<?xml version="1.0" encoding="utf-8"?>
<!-- Generator: Adobe Illustrator 19.2.1, SVG Export Plug-In . SVG Version: 6.00 Build 0)  -->
<svg version="1.1" xmlns="http://www.w3.org/2000/svg" xmlns:xlink="http://www.w3.org/1999/xlink" x="0px" y="0px"
	 viewBox="0 0 109 148" style="enable-background:new 0 0 109 148;" xml:space="preserve">
<style type="text/css">
	.st0{fill:#66609E;}
	.st1{fill:#FFFFFF;}
	.st2{fill:#2A216A;}
	.st3{fill:#E13718;}
	.st4{fill:#365AA5;}
	.st5{fill:#999632;}
	.st6{fill:#46743C;}
	.st7{fill:#901A1E;}
</style>
<g id="TEO">
</g>
<g id="SUND">
</g>
<g id="SAMF">
</g>
<g id="HUM">
</g>
<g id="JURA">
</g>
<g id="SCI">
</g>
<g id="KU">
	<g>
		<path class="st7" d="M107,39.8c0,21.9-17.8,39.8-39.7,39.8c-22,0-39.7-17.8-39.7-39.8C27.6,17.8,45.3,0,67.3,0
			C89.2,0,107,17.8,107,39.8"/>
		<path class="st7" d="M37.7,97.8c0,10.4-8.4,18.8-18.8,18.8C8.5,116.6,0,108.2,0,97.8c0-10.4,8.5-18.8,18.9-18.8
			C29.3,78.9,37.7,87.4,37.7,97.8"/>
		<path class="st7" d="M77.1,138.2c0,5.4-4.4,9.8-9.8,9.8c-5.4,0-9.8-4.4-9.8-9.8c0-5.4,4.4-9.8,9.8-9.8
			C72.7,128.3,77.1,132.7,77.1,138.2"/>
		<path class="st1" d="M61.3,75.2L61.3,75.2L61.3,75.2z"/>
		<path class="st1" d="M61.3,75.2L61.3,75.2L61.3,75.2z"/>
		<path class="st1" d="M93,38.1c0,0,0-0.1,0-0.2c0-0.3,0.1-0.4,0.5-0.5c0.1,0,0.5,0,0.6,0c0,0.1,0.1,0.8,0.1,0.9c0.1,0,0.2,0,0.3,0
			c0-0.1-0.1-0.8-0.1-0.9c0.1,0,0.9-0.1,1-0.1c0.1,0,0.2,0,0.2,0.2c0,0.1,0,0.4,0,0.7c0,0.5-0.5,0.6-0.7,0.6c-0.1,0.1,0,0.2,0.1,0.3
			c0.3,0,0.7-0.1,1-0.1c0-1.2-0.1-1.9-0.2-2.9c-0.1,0-0.2,0-0.3,0c0,0,0,0.1,0,0.1c0,0.3-0.2,0.4-0.6,0.4c-0.3,0-0.8,0.1-1.3,0.1
			c-0.6,0.1-0.6,0-0.7-0.3c0,0,0,0,0-0.1c-0.1,0-0.2,0-0.3,0c0.1,0.5,0.1,1.1,0.2,1.6C92.8,38.2,92.9,38.2,93,38.1"/>
		<path class="st1" d="M48.4,57c0,0,0.1,0.1,0.1,0.1c0.2,0.2,0.2,0.4-0.1,0.7c-0.1,0.1-0.4,0.3-0.5,0.4c-0.1-0.1-0.5-0.6-0.6-0.7
			c-0.1,0-0.2,0.1-0.3,0.2c0.1,0.1,0.5,0.6,0.6,0.7c-0.1,0.1-0.6,0.6-0.7,0.7c-0.1,0.1-0.1,0.1-0.2,0c-0.1-0.1-0.3-0.3-0.5-0.5
			c-0.3-0.4,0-0.8,0.2-0.9c0-0.1-0.1-0.2-0.2-0.2c-0.2,0.2-0.5,0.5-0.7,0.7c0.8,0.9,1.2,1.4,1.9,2.1c0.1,0,0.2-0.1,0.2-0.2
			c0,0,0,0-0.1-0.1c-0.2-0.3,0-0.4,0.2-0.7c0.2-0.2,0.6-0.6,0.9-0.9c0.4-0.4,0.5-0.4,0.7-0.2c0,0,0,0,0.1,0.1c0.1,0,0.2-0.1,0.2-0.2
			c-0.4-0.4-0.7-0.8-1.1-1.2C48.5,56.8,48.4,56.9,48.4,57"/>
		<path class="st1" d="M93.2,42.1c1-0.3,1.2-0.3,2-0.5c0.3-0.1,0.4-0.1,0.4,0.2v0.1c0.1,0.1,0.2,0.1,0.3,0c0-0.5,0.1-1,0.1-1.6
			c-0.1-0.1-0.2-0.1-0.3,0c0,0,0,0.1,0,0.2c-0.1,0.2-0.1,0.3-0.5,0.4c-0.2,0.1-2.5,0.6-2.6,0.6c-0.1,0,0,0,0,0.1
			c0,0,0.1,0.4,0.1,0.6c0.8,0.4,1.8,0.9,2.3,1.2c0.4,0.2,0.5,0.4,0.5,0.5c0,0.1,0,0.1,0,0.2c0.1,0.1,0.2,0.1,0.3,0
			c0.1-0.3,0.1-1,0.2-1.3c-0.1-0.1-0.2-0.1-0.3,0c0,0,0,0.1,0,0.2c0,0.2-0.1,0.2-0.4,0.1C94.5,42.7,93.8,42.4,93.2,42.1"/>
		<path class="st1" d="M86.8,23.3c0-0.1,0.1-0.2,0.2-0.2c0,0,0.1,0.1,0.2,0.2c0.2,0.2,0.3,0.2,0.7-0.1c0.3-0.2,0.8-0.7,1-0.8
			c0.2-0.2,0.5-0.4,0.3-0.6c0-0.1-0.1-0.1-0.1-0.2c0-0.1,0.1-0.2,0.2-0.2c0.4,0.4,0.8,1,1,1.3c0,0.1-0.1,0.2-0.2,0.2
			c0-0.1-0.1-0.1-0.1-0.1c-0.2-0.2-0.5-0.1-0.7,0.1c-0.4,0.3-0.8,0.7-1.1,0.8c-0.4,0.3-0.5,0.4-0.3,0.7c0,0,0.1,0.2,0.1,0.2
			c0,0.1-0.1,0.2-0.2,0.1C87.5,24.2,87.1,23.7,86.8,23.3"/>
		<path class="st1" d="M43.3,31.4c-0.1,0-0.2,0-0.3-0.1c0-0.1,0-0.2,0.1-0.2c0-0.3,0-0.4-0.5-0.6c-0.3-0.1-1-0.4-1.2-0.5
			c-0.3-0.1-0.6-0.3-0.7,0.1c0,0.1-0.1,0.1-0.1,0.2c-0.1,0-0.2,0-0.3-0.1c0.2-0.6,0.4-1.2,0.6-1.5c0.1,0,0.2,0,0.2,0.1
			c0,0.1,0,0.1-0.1,0.2c-0.1,0.3,0.2,0.4,0.5,0.6c0.5,0.2,1,0.4,1.3,0.5c0.4,0.2,0.6,0.2,0.7-0.1c0,0,0.1-0.2,0.1-0.2
			c0.1,0,0.2,0,0.2,0.1C43.7,30.2,43.4,31,43.3,31.4"/>
		<path class="st1" d="M89,26.4c0-0.1,0.1-0.2,0.2-0.2c0,0,0.1,0.1,0.1,0.1c0,0.1,0.1,0.2,0.3,0.1c0.2-0.1,0.3-0.2,0.4-0.2
			c-0.1-0.2-0.5-0.8-0.8-1.3c0-0.1,0.1-0.2,0.1-0.3c0.1,0,3,0.4,3.2,0.4c0.1,0.1,0,0.3,0,0.4c-0.1,0-2.6-0.4-2.8-0.4
			c0.2,0.3,0.5,0.8,0.6,0.9c0.1-0.1,0.5-0.3,0.7-0.4c0,0,0.1,0,0.1,0c0.1,0.1,0.2,0.2,0.4,0.4c0,0,0,0.1,0,0.1
			c-0.2,0.1-0.7,0.4-0.8,0.4c0.1,0.1,0.2,0.4,0.2,0.4c0,0.1-0.2,0.2-0.3,0.2c0,0-0.2-0.3-0.2-0.4c-0.1,0-0.3,0.2-0.4,0.2
			c-0.2,0.1,0,0.3,0,0.3c0,0.1,0.1,0.1,0.1,0.2c0,0.1-0.2,0.1-0.2,0.1C89.6,27.3,89.3,26.9,89,26.4"/>
		<path class="st1" d="M90.2,29.4c-0.1-0.1-0.1-0.3,0-0.4c0.1,0,3,0.1,3.2,0.1c-0.1-0.3-0.3-0.9-0.4-1.1c-0.1-0.2-0.3-0.2-0.4-0.3
			c-0.1,0-0.1,0-0.2,0c-0.1,0-0.1-0.2,0-0.3c0.2,0,0.8-0.1,0.9-0.1c0,0.1,0.1,0.2,0.1,0.3c0,0.1,0.5,1.1,0.5,1.3
			c0.1,0.2,0.2,0.4,0.2,0.5c0,0.1-0.1,0.1-0.1,0.2c-0.2-0.1-0.4-0.1-0.5-0.1C93.4,29.5,90.5,29.4,90.2,29.4"/>
		<path class="st1" d="M47.9,23.9c0,0.1-0.2,0.2-0.4,0.2c-0.1-0.1-1.3-2.6-1.4-2.9c-0.2,0.3-0.6,0.7-0.8,0.9c-0.1,0.2-0.1,0.3,0,0.5
			c0,0.1,0,0.1,0.1,0.1c0,0.1-0.1,0.2-0.2,0.2c-0.1-0.1-0.5-0.7-0.6-0.8c0.1-0.1,0.2-0.2,0.2-0.3c0.1-0.1,0.8-0.9,0.9-1.1
			c0.1-0.1,0.3-0.3,0.3-0.4c0.1,0,0.1,0,0.2,0c0,0.2,0.1,0.4,0.2,0.5C46.5,20.9,47.8,23.6,47.9,23.9"/>
		<path class="st1" d="M91.2,32c0-0.1,0.2-0.2,0.3-0.1c0.2,0.3,0.4,0.7,0.9,1c0.5,0.3,0.9,0.3,1.5,0.2c0.6-0.1,1.1-0.5,0.9-1
			c-0.2-0.5-0.6-0.3-0.8-0.3c-0.6,0.2-0.6,0.6-0.4,0.9c0,0.1-0.1,0.2-0.2,0.1c-0.1-0.1-0.3-0.2-0.3-0.6c-0.1-0.6,0.4-1,0.6-1.1
			c0.8-0.2,1.3,0.2,1.4,0.7c0.2,0.7,0,1.5-1.1,1.7C92.8,33.9,91.6,33.1,91.2,32"/>
		<path class="st1" d="M93.4,51c0,0-0.1,0.1-0.1,0.2c-0.1,0.1-0.2,0.2-0.6,0l-1.4-0.6c-0.4-0.2-0.4-0.2-0.4-0.5l0-0.1
			c0-0.1-0.2-0.1-0.3-0.1l-0.3,0.7L90,51.2c-0.4,0.7-0.6,1.7,0.5,2.4c0.9,0.6,1.8,0.3,2.5-1.1c0.3-0.5,0.4-0.9,0.6-1.3
			C93.6,51,93.4,51,93.4,51 M92.8,52.1c0,0.1,0,0.1-0.1,0.2c-0.4,0.8-1,1.1-1.8,0.7c-0.6-0.3-0.8-0.7-0.8-1c0-0.2,0-0.5,0.1-0.7
			c0.1-0.2,0.2-0.3,0.3-0.3c0.1,0,0.3,0,0.5,0.1c0,0,1.6,0.8,1.7,0.8C92.8,52,92.8,52,92.8,52.1"/>
		<path class="st1" d="M87.3,59c0.1,0.1,0.1,0.2,0.1,0.3c0,0.1,0,0.4-0.2,0.5c-0.1,0.1-0.2,0.2-0.3,0.3c0,0-1.1-1.1-1.3-1.4
			c-0.4-0.4-0.4-0.5-0.2-0.7c0,0,0.1-0.1,0.1-0.1c0-0.1-0.1-0.2-0.2-0.2c-0.3,0.3-0.8,0.8-1.1,1c0,0.1,0.1,0.2,0.2,0.2
			c0,0,0.1-0.1,0.1-0.1c0.2-0.2,0.4-0.1,0.7,0.3c0.2,0.2,1.3,1.4,1.3,1.4c-0.2,0.2-0.3,0.3-0.4,0.4c-0.2,0.2-0.4,0.1-0.5,0
			c-0.1,0-0.1-0.1-0.2-0.2c-0.1,0-0.2,0.1-0.2,0.2c0.1,0.1,0.5,0.5,0.6,0.7c0.9-0.8,1.4-1.3,2.2-2.1c0,0-0.4-0.7-0.4-0.7
			C87.4,58.8,87.3,58.9,87.3,59"/>
		<path class="st1" d="M87.8,54.8c0,0.1,0.2,0.2,0.2,0.2c0,0,0,0,0.1-0.1c0.2-0.2,0.2-0.1,0.4,0.2c0.1,0.2,0.2,0.3,0.2,0.3
			c-0.1,0.1-0.6,0.8-0.7,0.9c-0.1,0-0.1-0.1-0.4-0.1c-0.2-0.1-0.4-0.1-0.3-0.3c0-0.1,0.1-0.1,0.1-0.1c0-0.1-0.1-0.2-0.2-0.2
			c-0.1,0.2-0.5,0.5-0.9,1c0,0.1,0.1,0.2,0.2,0.2c0,0,0.1-0.1,0.1-0.1c0.2-0.2,0.5-0.1,0.7,0c0.2,0.1,2.5,0.8,2.6,0.8
			c0.1,0,0.1,0,0.1,0c0,0,0.1-0.3,0.1-0.4c-0.1-0.1-1.1-1.8-1.3-2.2c-0.3-0.5-0.2-0.6-0.2-0.7c0-0.1,0.1-0.1,0.1-0.1
			c0-0.1-0.1-0.2-0.2-0.1C88.3,54,87.8,54.7,87.8,54.8 M89.5,56.8l-1.3-0.4l0.6-0.8L89.5,56.8z"/>
		<path class="st1" d="M39.6,40.4c-0.1,0-0.2-0.1-0.3-0.1C39.1,40.2,39,40,39,39.7c0-0.1,0-0.2,0-0.4c0,0,1.6,0,1.9,0
			c0.5,0,0.6,0.1,0.7,0.3c0,0,0,0.1,0,0.1c0.1,0,0.2,0,0.3,0c0-0.4,0-1.2,0-1.5c-0.1-0.1-0.2-0.1-0.3,0c0,0.1,0,0.1,0,0.2
			c-0.1,0.3-0.2,0.3-0.7,0.3c-0.3,0-1.9,0-1.9,0c0-0.2,0-0.4,0-0.6c0-0.3,0.3-0.4,0.3-0.4c0.1,0,0.2,0,0.3,0c0.1-0.1,0-0.2,0-0.3
			c-0.1,0-0.7,0-0.9,0c-0.1,1.2-0.1,1.9-0.1,3.1c0.1,0,0.8,0.2,0.8,0.2C39.6,40.6,39.6,40.5,39.6,40.4"/>
		<path class="st1" d="M42.1,43c-0.1-0.1-0.2,0-0.3,0c0,0,0,0,0,0.1c0,0.2-0.1,0.2-0.4,0.1c-0.2-0.1-0.3-0.1-0.4-0.1
			c0-0.2-0.1-1-0.1-1.2c0.1-0.1,0.1-0.1,0.4-0.2c0.2-0.1,0.4-0.2,0.4,0.1c0,0.1,0,0.1,0,0.1c0.1,0.1,0.2,0,0.3,0
			c0-0.2-0.1-0.7-0.1-1.4c-0.1-0.1-0.2,0-0.3,0c0,0.1,0,0.1,0,0.2c0,0.3-0.3,0.4-0.5,0.5c-0.2,0.1-2.4,1.1-2.4,1.2
			c-0.1,0-0.1,0,0,0.1c0,0,0.2,0.3,0.2,0.4c0.2,0,2,0.6,2.5,0.7c0.5,0.2,0.5,0.3,0.6,0.4c0,0.1,0,0.1,0,0.1c0.1,0.1,0.2,0,0.3-0.1
			C42.3,43.9,42.1,43.1,42.1,43 M39.5,42.7l1.2-0.6l0.1,1L39.5,42.7z"/>
		<path class="st1" d="M46.6,54.1c-0.3-0.4-0.7-0.7-1.2-0.8c-0.4-0.1-0.9,0-1.3,0.3c-0.4,0.3-0.7,0.7-0.8,1.1
			c-0.1,0.5,0,0.9,0.3,1.4c0.6,0.9,1.7,1.1,2.5,0.6c0.4-0.3,0.6-0.6,0.7-1.1C47.1,55.1,46.9,54.6,46.6,54.1 M45.7,56.1
			c-0.4,0.3-0.7,0.4-1.1,0.3c-0.2,0-0.5-0.2-0.6-0.4c-0.2-0.2-0.2-0.5-0.2-0.7c0.1-0.4,0.4-0.8,0.8-1c0.7-0.5,1.3-0.4,1.7,0.1
			C46.8,55,46.3,55.7,45.7,56.1"/>
		<path class="st1" d="M52.5,60.3c0,0.1-0.1,0.2-0.2,0.2c0,0-0.1,0-0.1-0.1c-0.2-0.1-0.4-0.1-0.7,0.3c-0.3,0.4-0.6,0.8-0.8,1
			c-0.2,0.3-0.4,0.5-0.1,0.7c0,0,0.1,0.1,0.1,0.1c0,0.1-0.1,0.2-0.2,0.2c-0.5-0.4-1.3-1-2.2-1.7c0.1-0.2,0.4-0.5,0.5-0.7
			c0.1,0,0.2,0.1,0.3,0.2c0,0.1-0.1,0.2-0.1,0.3c0,0.1-0.1,0.3,0.1,0.5c0.2,0.2,0.5,0.4,0.6,0.5c0.1,0.1,0.2,0,0.2,0
			c0.1-0.1,0.5-0.7,0.6-0.8c-0.1-0.1-0.7-0.5-0.7-0.6c0-0.1,0.1-0.2,0.2-0.2c0.1,0.1,0.6,0.5,0.7,0.6c0,0,0.4-0.4,0.4-0.5
			c0.3-0.4,0.2-0.5,0-0.7c-0.1-0.1-0.2-0.2-0.3-0.2c-0.2-0.2-0.4-0.2-0.7,0c-0.1,0.1-0.1,0.1-0.2,0.1c-0.1,0-0.2-0.1-0.2-0.2
			c0.1-0.1,0.6-0.5,0.7-0.6C51,59.2,51.7,59.8,52.5,60.3"/>
		<path class="st1" d="M42.9,47.7c0-0.1,0.2-0.1,0.3-0.1c0.2,0.5,0.3,0.8,0.4,1.2c0,0.1-0.1,0.2-0.3,0.1c0-0.1,0-0.1-0.1-0.1
			c-0.1-0.2-0.1-0.3-0.7-0.2c-0.3,0.1-1.3,0.2-1.5,0.3c-0.3,0.1-0.6,0.2-0.5,0.5c0,0.1,0,0.1,0,0.1c0,0.1-0.2,0.1-0.3,0.1
			c-0.2-0.4-0.3-0.8-0.4-1.2c0.2,0,0.3-0.1,0.5-0.3c0.3-0.3,1.1-0.9,1.4-1.2c-0.3-0.1-1.7-0.3-1.8-0.3c-0.2,0-0.5-0.1-0.7,0
			c-0.1-0.2-0.2-0.8-0.3-1.2c0-0.1,0.2-0.1,0.3,0c0,0.1,0,0.1,0,0.1c0.1,0.2,0.1,0.3,0.5,0.2c0.4-0.1,1.1-0.4,1.5-0.5
			c0.4-0.2,0.6-0.3,0.6-0.5c0-0.1,0-0.1,0-0.2c0-0.1,0.2-0.1,0.3-0.1c0.1,0.7,0.2,1.1,0.3,1.5c0,0.1-0.2,0.1-0.3,0.1
			c0,0,0-0.1,0-0.1c-0.1-0.2-0.1-0.3-0.6-0.2c-0.4,0.2-1.4,0.5-1.7,0.6c0.4,0.1,1.4,0.2,1.9,0.3c0.6,0.1,0.7,0.1,0.9,0.1
			c0.1,0,0.1,0.1,0.1,0.2c-0.1,0-0.4,0.3-0.7,0.6c-0.4,0.3-1.2,1.1-1.4,1.2c0.4-0.1,1.3-0.3,1.6-0.3c0.4-0.1,0.7-0.2,0.6-0.4"/>
		<path class="st1" d="M92.2,44.8c0.1-0.1,0.2,0,0.3,0c0,0,0,0.1,0,0.2c0,0.2,0.1,0.4,0.6,0.5c0.4,0.1,0.9,0.2,1.3,0.3
			c0.4,0.1,0.6,0.2,0.7-0.1c0,0,0-0.1,0-0.2c0.1,0,0.2,0,0.3,0c0,0.2-0.2,0.7-0.2,1c0,0.1,0,0.1,0,0.2c-0.1,0-0.1,0-0.3,0.1
			c-0.1,0-2.2,1.1-2.5,1.2c0.2,0.1,1.1,0.4,1.3,0.5c0.4,0.1,0.6,0.2,0.7-0.1c0,0,0-0.1,0.1-0.2c0.1,0,0.2,0,0.3,0.1
			c-0.1,0.4-0.3,0.9-0.4,1.3c-0.1,0-0.2,0-0.3-0.1c0,0,0-0.1,0-0.1c0.1-0.2,0-0.3-0.5-0.5c-0.4-0.1-2-0.7-2.2-0.8c0,0-0.1-0.1,0-0.2
			c0.5-0.2,3.1-1.6,3.3-1.6c-0.2-0.1-1.3-0.3-1.6-0.3c-0.5-0.1-0.6-0.1-0.7,0.2c0,0.1,0,0.1-0.1,0.2c-0.1,0-0.2,0-0.3-0.1
			C92,45.7,92.2,45,92.2,44.8"/>
		<path class="st1" d="M39,35.7c0.1,0,0.4,0.1,0.7,0.2c0,0,1.5,1,1.8,1.2c0.3,0.2,0.3,0.3,0.3,0.4c0,0,0,0.1,0,0.2
			c0.1,0.1,0.2,0.1,0.3,0c0-0.1,0.1-0.7,0.1-1.1c0-0.1-0.2-0.1-0.3,0c0,0.1,0,0.1,0,0.2c0,0.1-0.1,0.1-0.3,0
			c-0.1-0.1-0.5-0.3-0.7-0.4c0-0.1,0.1-0.9,0.1-1c0.1,0,0.5,0,0.6,0c0.3,0.1,0.3,0.3,0.3,0.3c0,0.1,0,0.1,0,0.2c0,0.1,0.2,0.1,0.3,0
			c0.1-0.9,0.3-1.5,0.5-2.5C42.3,33.1,42,33,41.9,33c-0.1,0-0.2,0.2-0.1,0.3c0.1,0,0.1,0.1,0.2,0.1c0.3,0.2,0.3,0.4,0.3,0.6
			c0,0.2,0,0.2-0.1,0.4c-0.1,0.3-0.2,0.3-0.5,0.3c-0.2,0-0.6,0-0.7,0l0.1-0.9c-0.1,0-0.2-0.1-0.3,0l-0.1,0.9c-0.1,0-0.9-0.1-1.1-0.1
			c-0.1,0-0.1-0.1-0.1-0.1c0-0.1,0-0.3,0.1-0.6c0.1-0.4,0.3-0.4,0.4-0.4c0.1,0,0.2,0,0.3,0c0.1-0.1,0.1-0.3,0-0.3
			c-0.2,0-0.6,0-0.8,0c-0.2,0.8-0.3,1.2-0.4,1.8C39,35.3,39,35.4,39,35.7C38.9,35.7,38.9,35.7,39,35.7 M39.3,35.3
			c0,0,0.1-0.1,0.1-0.1c0.2,0,1.1,0.1,1.2,0.1c0,0.2-0.1,0.7-0.1,0.9c-0.3-0.2-1.1-0.7-1.2-0.8C39.3,35.4,39.3,35.3,39.3,35.3"/>
		<path class="st1" d="M83.8,63.1c-0.1-0.1-0.2-0.3-0.3-0.7c0-0.1-0.3-1.8-0.4-2.1c0-0.3,0-0.4,0.1-0.5c0,0,0.1-0.1,0.1-0.1
			c0-0.1-0.1-0.2-0.2-0.2c-0.1,0.1-0.5,0.4-0.9,0.7c-0.1,0.1,0.1,0.2,0.2,0.2c0.1,0,0.1-0.1,0.2-0.1c0.1,0,0.2,0,0.2,0.2
			c0,0.1,0.1,0.6,0.1,0.7c-0.1,0.1-0.8,0.5-0.8,0.6c0,0-0.3-0.3-0.4-0.5c-0.2-0.3,0-0.4,0.1-0.5c0,0,0,0,0.1-0.1
			c0-0.1-0.1-0.2-0.2-0.2c-0.7,0.5-1.3,0.8-2.2,1.4c0.1,0.4,0.3,0.7,0.3,0.9c0.1,0.1,0.3,0,0.3-0.1c0-0.1,0-0.2,0-0.2
			c-0.1-0.3,0.1-0.5,0.3-0.6c0.1-0.1,0.2-0.1,0.4-0.2c0.2-0.2,0.4,0,0.6,0.2c0.1,0.2,0.4,0.4,0.4,0.5c-0.1,0.1-0.6,0.4-0.7,0.5
			c0,0.1,0.1,0.2,0.2,0.2c0.1-0.1,0.6-0.4,0.8-0.5c0.1,0.1,0.6,0.7,0.7,0.9c0.1,0.1,0,0.1-0.1,0.1c-0.1,0-0.3,0.2-0.5,0.3
			c-0.3,0.2-0.5,0.1-0.6,0c-0.1,0-0.2-0.1-0.2-0.2c-0.2,0-0.2,0.1-0.2,0.2c0.1,0.2,0.4,0.5,0.5,0.6c0.7-0.4,1.1-0.6,1.6-1
			C83.4,63.4,83.5,63.3,83.8,63.1C83.8,63.2,83.8,63.1,83.8,63.1 M83.2,63.1c0,0-0.1,0-0.1-0.1c-0.1-0.1-0.7-0.8-0.8-1
			c0.2-0.1,0.6-0.4,0.7-0.5c0.1,0.3,0.2,1.3,0.3,1.4C83.2,63.1,83.2,63.1,83.2,63.1"/>
		<path class="st1" d="M42.1,52.6c0.6-0.3,1.5-0.8,1.7-0.9c0.4-0.2,0.5-0.3,0.4-0.6c0,0,0-0.1-0.1-0.2c0-0.1,0.2-0.1,0.3-0.1
			c0.2,0.4,0.5,1,0.7,1.3c0,0.1-0.2,0.2-0.3,0.2c0,0-0.1-0.1-0.1-0.1c-0.2-0.2-0.3-0.2-0.7,0c-0.3,0.2-1,0.5-1.2,0.6
			c-0.5,0.3-0.5,0.3-0.4,0.6c0,0.1,0,0.1,0.1,0.1c0,0.1-0.2,0.1-0.2,0.1c-0.3-0.5-0.7-1.2-0.7-1.3c-0.1-0.1-0.1-0.3-0.2-0.4
			c-0.2-0.4-0.2-1,0.4-1.2c0.4-0.2,0.8,0,1,0.3c0.2-0.3,0.4-0.6,0.5-1c0.1-0.3,0.2-0.4,0.1-0.7c0,0,0,0,0-0.1c0-0.1,0.2-0.1,0.2-0.1
			c0,0.1,0.2,0.5,0.3,0.8c-0.1,0.3-0.7,1.5-0.8,1.7c0,0-0.1,0-0.1,0c-0.1-0.2-0.2-0.4-0.5-0.4c-0.2,0-0.4,0.1-0.5,0.1
			c-0.1,0.1-0.3,0.2-0.3,0.4c-0.1,0.2,0,0.4,0,0.5c0,0.1,0.1,0.2,0.2,0.3C42.1,52.5,42.1,52.6,42.1,52.6"/>
		<path class="st1" d="M53.5,64.4c0.3-0.6,0.8-1.5,0.9-1.7c0.2-0.4,0.3-0.6,0-0.7c0,0-0.1-0.1-0.1-0.1c0-0.1,0.1-0.2,0.1-0.2
			c0.4,0.2,1,0.5,1.3,0.7c0,0.1-0.1,0.2-0.1,0.3c-0.1,0-0.1,0-0.1-0.1c-0.3-0.1-0.3,0-0.6,0.4c-0.2,0.3-0.5,1-0.6,1.2
			c-0.3,0.5-0.3,0.6,0,0.7c0,0,0.1,0,0.1,0.1c0,0.1-0.1,0.2-0.1,0.2c-0.5-0.3-1.2-0.6-1.3-0.7c-0.1-0.1-0.3-0.2-0.4-0.2
			c-0.3-0.2-0.7-0.7-0.3-1.3c0.3-0.4,0.6-0.4,1-0.3c0-0.3,0-0.7-0.1-1.1C53,61.1,53,61,52.8,60.9c0,0,0,0-0.1-0.1
			c0-0.1,0.1-0.2,0.2-0.2c0.1,0,0.4,0.3,0.7,0.5c0.1,0.4,0.2,1.7,0.3,1.9c0,0-0.1,0-0.1,0.1c-0.2-0.1-0.4-0.2-0.6-0.1
			c-0.2,0.1-0.3,0.2-0.3,0.4c-0.1,0.1-0.1,0.3-0.1,0.5c0,0.2,0.2,0.3,0.3,0.4c0.1,0.1,0.2,0.1,0.3,0.2
			C53.4,64.4,53.4,64.4,53.5,64.4"/>
		<path class="st1" d="M44.2,29.1c0-0.1,0.5-1-0.2-1.6c-0.6-0.5-1.2,0.1-1.5,0.9c-0.2-0.2-1-0.9-1.1-1.1c0-0.1,0.5-1.5,0.5-1.6
			c0.2,0.1,0.3,0.2,0.4,0.4c-0.1,0.2-0.4,1.2-0.4,1.3c0.1,0.1,0.2,0.2,0.3,0.3c0.1-0.3,0.5-0.9,1.2-1c1.1,0,1.7,1.1,1.1,2.5
			C44.5,29.3,44.3,29.3,44.2,29.1"/>
		<path class="st1" d="M43.1,25c0-0.1-0.2-0.6,0.1-1.1c0.1-0.2,0.4-0.4,0.6-0.5c0.2,0,0.8,0.2,0.7,0.9c0.2-0.3,0.5-0.4,0.7-0.3
			c0.1,0,0.8,0.1,1,1.2c0.1,0.7-0.3,1.4-0.6,1.5c-0.3,0.1-0.6-0.3-0.3-0.5c0.1-0.1,0.3,0,0.5-0.1c0.1-0.2,0.2-0.8-0.2-1.1
			c-0.2-0.2-0.7-0.4-1,0c-0.1,0.1-0.1,0.3-0.1,0.6c-0.1,0.2-0.4,0.1-0.4,0c0-0.2,0.2-0.7,0.1-1.1c-0.1-0.3-0.4-0.5-0.7-0.2
			c-0.2,0.2-0.1,0.6-0.1,0.8C43.4,25,43.2,25,43.1,25"/>
		<path class="st1" d="M80.6,11.1c0-0.1,0.1-0.3,0.2-0.4c0.1,0,0.2,0.1,0.3,0.1c0.4,0.1,0.6,0.1,1-0.7c0.3-0.5,0.8-1.5,1-1.9
			c0.2-0.4,0.5-0.9,0-1.2c-0.1,0-0.1-0.1-0.2-0.1c-0.1-0.1,0.1-0.4,0.2-0.4c0.9,0.4,1.7,0.8,2.2,1.1C85.2,7.8,85.1,8,85,8.1
			C84.9,8,84.8,8,84.8,8c-0.5-0.2-0.7,0.2-1,0.7c-0.4,0.7-0.8,1.5-1,1.9c-0.4,0.7-0.4,0.9,0,1.2c0.1,0.1,0.2,0.1,0.2,0.2
			c0,0.1-0.1,0.3-0.2,0.4C82.3,12,81.2,11.4,80.6,11.1"/>
		<path class="st1" d="M89.7,17.5c0-0.1,0.2-0.3,0.3-0.3c0.1,0.1,0.1,0.1,0.2,0.2c0.4,0.3,0.5,0.3,1.2-0.3c0.4-0.4,1.2-1.2,1.6-1.5
			c0.3-0.3,0.8-0.6,0.4-1.1c-0.1-0.1-0.1-0.1-0.1-0.2c0-0.1,0.2-0.3,0.3-0.3c0.7,0.7,1.3,1.4,1.7,1.8c0,0.1-0.2,0.3-0.3,0.3
			c-0.1-0.1-0.1-0.1-0.1-0.1c-0.4-0.4-0.7-0.1-1.1,0.3c-0.6,0.5-1.3,1.1-1.6,1.4c-0.6,0.5-0.7,0.7-0.4,1.1c0,0.1,0.1,0.2,0.2,0.2
			c0,0.1-0.2,0.3-0.3,0.3C91,18.9,90.2,18,89.7,17.5"/>
		<path class="st1" d="M92.2,58.9c0.1,0,0.3,0.2,0.4,0.3c-0.1,0.1-0.1,0.2-0.1,0.2c-0.2,0.4-0.2,0.5,0.5,1.1
			c0.5,0.4,1.3,1.1,1.6,1.4c0.3,0.3,0.7,0.7,1.1,0.3c0.1-0.1,0.1-0.1,0.2-0.2c0.1,0,0.3,0.1,0.3,0.3c-0.6,0.8-1.2,1.5-1.6,1.9
			c-0.1,0-0.3-0.2-0.3-0.3c0.1-0.1,0.1-0.1,0.1-0.2c0.3-0.5,0-0.7-0.5-1.1c-0.6-0.5-1.3-1.1-1.6-1.4c-0.6-0.5-0.8-0.6-1.1-0.3
			c-0.1,0-0.1,0.1-0.2,0.2c-0.1,0-0.3-0.2-0.3-0.3C91,60.3,91.8,59.4,92.2,58.9"/>
		<path class="st1" d="M67.7,71.1c0.1,0.1,0.1,0.3,0,0.4c-0.1,0-0.2,0-0.3,0c-0.4,0.1-0.6,0.1-0.6,1.1c0,0.6,0,1.7,0,2.1
			c0,0.4-0.1,1,0.5,1.1c0.1,0,0.1,0,0.2,0c0.1,0.1,0.1,0.3,0,0.4c-1,0-1.9,0-2.5-0.1c-0.1-0.1-0.1-0.3,0-0.4c0.1,0,0.2,0,0.2,0
			c0.5,0,0.5-0.5,0.6-1c0-0.8,0.1-1.7,0.1-2.1c0-0.8,0-1-0.5-1.1c-0.1,0-0.2,0-0.3,0c-0.1-0.1,0-0.3,0-0.4
			C65.8,71.1,67,71.2,67.7,71.1"/>
		<path class="st1" d="M47.6,64.2c0,0.1-0.2,0.3-0.3,0.3c-0.1-0.1-0.2-0.1-0.2-0.2c-0.4-0.2-0.5-0.2-1.1,0.5
			c-0.4,0.5-1.1,1.3-1.4,1.6c-0.3,0.3-0.7,0.7-0.3,1.1c0.1,0.1,0.1,0.1,0.2,0.2c0,0.1-0.2,0.3-0.3,0.3c-0.7-0.6-1.4-1.2-1.9-1.6
			c0-0.1,0.2-0.3,0.3-0.3c0.1,0.1,0.1,0.1,0.2,0.1c0.4,0.3,0.7,0,1.1-0.4c0.5-0.6,1.1-1.3,1.4-1.6c0.5-0.6,0.6-0.8,0.3-1.1
			c-0.1-0.1-0.1-0.1-0.2-0.2c0-0.1,0.2-0.3,0.3-0.3C46.2,63,47.1,63.7,47.6,64.2"/>
		<path class="st1" d="M37.5,29.7c-0.1,0-0.3,0-0.4-0.1c0-0.1,0-0.2,0.1-0.3c0.1-0.5,0-0.6-0.8-0.9c-0.6-0.2-1.6-0.6-2-0.7
			c-0.4-0.1-0.9-0.4-1.1,0.1c0,0.1-0.1,0.1-0.1,0.2c-0.1,0.1-0.4,0-0.4-0.1c0.3-0.9,0.6-1.8,0.9-2.3c0.1-0.1,0.3,0,0.4,0.2
			c0,0.1-0.1,0.2-0.1,0.2c-0.1,0.5,0.3,0.7,0.8,0.9c0.7,0.3,1.6,0.6,2,0.8c0.7,0.3,0.9,0.3,1.2-0.1c0-0.1,0.1-0.2,0.1-0.3
			c0.1,0,0.3,0.1,0.4,0.2C38.1,27.9,37.7,29.1,37.5,29.7"/>
		<path class="st1" d="M94.7,24.2c-0.8-1.4-1.8-2.9-2.3-3.4c0-0.1,0.2-0.3,0.3-0.3c0.1,0.1,0.1,0.1,0.2,0.2c0.3,0.3,0.5,0.3,1.2-0.2
			c0.5-0.3,1.4-1,1.8-1.2c0.4-0.3,0.9-0.5,0.6-1c0-0.1-0.1-0.1-0.1-0.2c0-0.1,0.2-0.3,0.3-0.3c0.6,0.8,1.1,1.5,1.4,2
			c0,0.1-0.2,0.3-0.3,0.3c-0.1-0.1-0.1-0.1-0.1-0.2c-0.3-0.4-0.8-0.1-1.2,0.2c-0.6,0.4-1.2,0.8-1.8,1.2c-0.6,0.4-0.8,0.5-0.6,0.9
			c0,0.1,0.1,0.3,0.3,0.5c0.1,0.2,0.3,0.5,0.5,0.6c0.2,0.1,0.6,0.1,0.7,0.1c0.1,0,0.3-0.1,0.4-0.1c0.1,0,0.2,0.2,0.2,0.4
			C95.9,23.8,95.4,24,94.7,24.2"/>
		<path class="st1" d="M97.1,29.4c-0.5-1.5-1.3-3.2-1.6-3.8c0.1-0.1,0.3-0.2,0.4-0.2c0,0.1,0.1,0.2,0.1,0.2c0.2,0.4,0.4,0.4,1.2,0
			c0.5-0.2,1.6-0.7,1.9-0.9c0.4-0.2,0.9-0.3,0.7-0.9c0-0.1,0-0.1-0.1-0.2c0-0.1,0.3-0.2,0.4-0.2c0.4,0.9,0.8,1.7,1,2.3
			c0,0.1-0.2,0.2-0.4,0.2c-0.1-0.1-0.1-0.1-0.1-0.2c-0.2-0.5-0.7-0.2-1.2,0c-0.7,0.3-1.4,0.6-1.9,0.9c-0.7,0.3-0.8,0.4-0.7,0.8
			c0,0.1,0.1,0.3,0.2,0.5c0.1,0.2,0.2,0.5,0.4,0.7c0.2,0.2,0.6,0.2,0.7,0.2c0.1,0,0.3,0,0.4,0c0.1,0.1,0.2,0.2,0.1,0.4
			C98.3,29.2,97.7,29.3,97.1,29.4"/>
		<path class="st1" d="M75.9,9.1c0-0.5,0.1-1,0.2-1.3c0.1,0,0.4,0,0.5,0.1c0,0.5-0.1,1.2,0.8,1.6c0.6,0.2,1,0,1.1-0.4
			c0.2-0.5,0-0.9-0.6-1.4c-0.9-0.8-1-1.3-0.9-1.7c0.1-0.6,0.6-1.6,2.2-1.1c0.8,0.3,1.1,0.5,1.3,0.7c0,0.1-0.2,0.9-0.3,1.2
			c-0.1,0.1-0.3,0-0.4-0.1c0-0.1,0.2-0.9-0.6-1.2c-0.8-0.3-1.1,0.1-1.2,0.4c-0.1,0.4,0.1,0.6,0.7,1.2c0.5,0.5,1.2,1.1,0.8,2
			c-0.3,0.8-1.3,1.2-2.3,0.9C76.3,9.6,75.9,9.1,75.9,9.1"/>
		<path class="st1" d="M72.8,70.9c0.2,0.4,0.3,0.9,0.4,1.3c-0.1,0.1-0.3,0.2-0.5,0.1c-0.2-0.4-0.4-1.2-1.4-1
			c-0.6,0.1-0.8,0.5-0.8,0.8c0,0.5,0.4,0.8,1.2,1c1.1,0.3,1.5,0.7,1.6,1.1c0.2,0.6,0.2,1.8-1.5,2c-0.8,0.1-1.2,0-1.5,0
			C70.2,76,70,75.3,70,75c0.1-0.1,0.3-0.2,0.4-0.1c0,0.1,0.2,0.9,1.1,0.8c0.8-0.1,0.9-0.6,0.9-0.9c-0.1-0.4-0.3-0.5-1.2-0.8
			c-0.7-0.3-1.5-0.5-1.7-1.4c-0.1-0.9,0.6-1.7,1.6-1.8C72.3,70.6,72.8,70.9,72.8,70.9"/>
		<path class="st1" d="M44.2,61.2c-0.2,0.4-0.6,0.8-0.8,1c-0.1,0-0.3-0.2-0.4-0.3c0.3-0.4,0.7-1,0.1-1.8c-0.4-0.5-0.9-0.4-1.2-0.2
			c-0.4,0.3-0.4,0.8-0.1,1.6c0.4,1.1,0.2,1.6,0,1.9c-0.4,0.5-1.4,1.1-2.5-0.2c-0.5-0.6-0.7-1-0.8-1.2c0.1-0.1,0.6-0.7,0.8-0.9
			c0.2,0,0.3,0.1,0.3,0.3c-0.1,0.1-0.6,0.7-0.1,1.4c0.5,0.7,1,0.4,1.2,0.2c0.3-0.3,0.2-0.5,0-1.4c-0.2-0.7-0.5-1.5,0.3-2.2
			c0.7-0.6,1.7-0.5,2.4,0.4C44.1,60.6,44.2,61.2,44.2,61.2"/>
		<path class="st1" d="M51.6,12.4c-0.1-0.1-0.2-0.3-0.2-0.4c0.1,0,0.2-0.1,0.2-0.2c0.4-0.3,0.4-0.4,0-1.2c-0.3-0.5-0.8-1.5-1-1.9
			c-0.2-0.4-0.4-0.9-0.9-0.7c-0.1,0-0.1,0.1-0.2,0.1c-0.1,0-0.2-0.3-0.2-0.4c0.8-0.5,1.6-0.9,2.2-1.2c0.1,0,0.2,0.3,0.2,0.4
			c-0.1,0.1-0.1,0.1-0.2,0.1c-0.5,0.3-0.2,0.7,0,1.2c0.4,0.7,0.8,1.5,1,1.9c0.4,0.7,0.5,0.8,0.9,0.7c0.1,0,0.2-0.1,0.3-0.1
			c0.1,0,0.2,0.3,0.2,0.4C53.3,11.5,52.3,12,51.6,12.4"/>
		<path class="st1" d="M55.6,10.2c-0.3-0.4-0.5-0.8-0.6-1.1C55,9,55.2,8.8,55.4,8.8C55.7,9.2,56,9.9,57,9.6c0.6-0.2,0.7-0.6,0.6-1
			C57.5,8,57,7.9,56.2,7.9c-1.2-0.1-1.6-0.4-1.8-0.7c-0.3-0.5-0.5-1.7,1-2.2c0.8-0.3,1.2-0.3,1.5-0.3c0.1,0.1,0.4,0.8,0.5,1.1
			c-0.1,0.1-0.2,0.2-0.4,0.2C57,5.7,56.7,5,55.8,5.3C55,5.5,55,6.1,55.1,6.3c0.2,0.4,0.4,0.4,1.4,0.5c0.7,0.1,1.6,0.1,1.9,1
			c0.3,0.8-0.2,1.7-1.2,2.1C56.2,10.4,55.6,10.2,55.6,10.2"/>
		<path class="st1" d="M47.3,15.1c-0.4-0.3-0.7-0.7-0.9-0.9c0-0.1,0.2-0.3,0.4-0.3c0.4,0.3,0.9,0.8,1.8,0.2c0.5-0.4,0.5-0.8,0.3-1.1
			c-0.3-0.5-0.7-0.5-1.5-0.3c-1.1,0.2-1.6,0.1-1.9-0.2c-0.4-0.4-1-1.5,0.4-2.4c0.7-0.5,1.1-0.6,1.3-0.7c0.1,0.1,0.6,0.6,0.8,0.9
			c0,0.2-0.1,0.3-0.3,0.3c-0.1-0.1-0.6-0.7-1.4-0.2c-0.7,0.5-0.5,1-0.3,1.2c0.3,0.3,0.5,0.3,1.4,0.1c0.7-0.1,1.6-0.3,2.1,0.5
			c0.5,0.7,0.3,1.7-0.6,2.4C47.9,15,47.3,15.1,47.3,15.1"/>
		<path class="st1" d="M96.1,52.4c0.2-0.1,0.3,0,0.4,0.2c0,0-0.1,0.2-0.1,0.2c-0.1,0.4,0,0.6,0.8,0.9c0.6,0.3,1.4,0.7,1.9,0.9
			c0.5,0.2,0.9,0.5,1.1,0.1c0-0.1,0.1-0.1,0.1-0.2c0.1,0,0.3,0,0.4,0.2c-0.1,0.3-0.5,1-0.7,1.4c0,0.1-0.1,0.1-0.1,0.2
			c-0.1,0-0.2,0-0.5,0.1c-0.1,0-3.9,0.9-4.4,1c0.3,0.2,1.5,1,1.8,1.2c0.6,0.4,0.9,0.5,1.2,0.1c0-0.1,0.1-0.1,0.2-0.2
			c0.1,0,0.3,0.1,0.4,0.2c-0.4,0.6-0.8,1.3-1.1,1.8c-0.1,0.1-0.3-0.1-0.4-0.2c0-0.1,0.1-0.1,0.1-0.2c0.2-0.3,0.1-0.5-0.6-1
			c-0.5-0.3-2.8-1.9-3.1-2c0-0.1-0.1-0.2,0-0.4c0.8-0.2,5.4-1.3,5.7-1.3c-0.3-0.2-1.9-0.9-2.4-1.1c-0.8-0.3-1-0.3-1.2,0
			c-0.1,0.1-0.1,0.2-0.1,0.2c-0.1,0-0.3,0-0.4-0.2C95.5,53.7,96,52.7,96.1,52.4"/>
		<path class="st1" d="M36,37c-0.1,0.1-0.3,0.1-0.4,0c0-0.1,0-0.2,0-0.3c0-0.4-0.2-0.5-1-0.6c-0.7-0.1-1.5-0.2-2.1-0.2
			c-0.6-0.1-1-0.2-1.1,0.3c0,0.1,0,0.1,0,0.2c-0.1,0.1-0.3,0.1-0.4,0c0-0.3,0.1-1.1,0.2-1.5c0-0.1,0-0.1,0-0.2
			c0.1,0,0.2-0.1,0.5-0.2c0.1-0.1,3.4-2.1,3.8-2.4c-0.4-0.1-1.8-0.5-2.1-0.5c-0.7-0.2-1-0.2-1.1,0.3c0,0.1-0.1,0.2-0.1,0.3
			c-0.1,0.1-0.3,0-0.4-0.1c0.2-0.7,0.4-1.5,0.5-2c0.1-0.1,0.4,0,0.4,0.1c0,0.1,0,0.2,0,0.2c-0.1,0.4,0.1,0.5,0.9,0.7
			c0.6,0.2,3.3,0.9,3.5,0.9c0.1,0.1,0.1,0.2,0.1,0.3c-0.7,0.4-4.7,3-4.9,3.1c0.4,0,2.1,0.2,2.6,0.3c0.8,0.1,1,0,1.1-0.4
			c0-0.1,0-0.2,0.1-0.3c0.1-0.1,0.3-0.1,0.4,0.1C36.1,35.5,36,36.7,36,37"/>
		<path class="st1" d="M42.2,20.7c-0.2,0-0.3-0.1-0.4-0.2c0,0,0.1-0.2,0.2-0.2c0.2-0.3,0.1-0.6-0.5-1.1c-0.6-0.4-1.2-1-1.7-1.3
			c-0.4-0.4-0.7-0.7-1.1-0.3c-0.1,0.1-0.1,0.1-0.2,0.2c-0.1,0-0.3-0.1-0.3-0.3c0.2-0.2,0.7-0.9,1-1.2c0-0.1,0.1-0.1,0.1-0.2
			c0.1,0.1,0.2,0.1,0.5,0.1c0.1,0,4,0,4.5,0c-0.3-0.3-1.2-1.3-1.5-1.6c-0.5-0.5-0.7-0.7-1.1-0.4c-0.1,0-0.1,0.1-0.2,0.2
			c-0.1,0-0.3-0.2-0.3-0.3c0.5-0.5,1.1-1.1,1.5-1.5c0.1,0,0.3,0.2,0.3,0.3c0,0-0.1,0.1-0.2,0.2c-0.3,0.3-0.2,0.5,0.4,1.1
			c0.4,0.4,2.3,2.5,2.5,2.6c0,0.1,0,0.2-0.1,0.3c-0.8,0-5.5,0-5.8,0c0.3,0.2,1.6,1.3,2.1,1.6c0.7,0.5,0.9,0.5,1.2,0.3
			c0.1-0.1,0.1-0.1,0.2-0.2c0.2,0,0.3,0.1,0.3,0.3C43.2,19.5,42.4,20.5,42.2,20.7"/>
		<path class="st1" d="M39,53.3c-0.1,0-0.4,0.1-0.4,0.2c0,0.1,0.1,0.2,0.1,0.3c0.1,0.4,0,0.6-0.7,0.9c-0.2,0.1-0.5,0.2-0.8,0.4
			L36,52.6c0.3-0.1,0.6-0.3,0.8-0.3c0.8-0.3,0.9-0.3,1.2,0.1c0,0.1,0.1,0.1,0.1,0.2c0.1,0,0.3-0.1,0.4-0.2c-0.3-0.7-0.7-1.6-0.9-2.2
			c-0.1,0-0.4,0-0.4,0.1c0,0.1,0,0.2,0.1,0.3c0.1,0.4-0.1,0.6-0.8,0.9c-0.4,0.2-1.3,0.5-2,0.8c-0.5,0.2-0.9,0.4-1.1-0.1
			c0,0,0-0.1-0.1-0.2c-0.1,0-0.4,0-0.4,0.2c0.2,0.6,0.5,1.4,0.9,2.2c0.1,0,0.4,0,0.4-0.2c0-0.1,0-0.1-0.1-0.2
			c-0.1-0.5,0.2-0.6,0.8-0.9c0.1-0.1,0.4-0.2,0.7-0.3l1.2,2.5c-0.2,0.1-0.5,0.2-0.7,0.4c-0.4,0.2-0.9,0.5-1.1,0c0,0-0.1-0.1-0.1-0.2
			c-0.2,0-0.4,0.1-0.4,0.2c0.3,0.6,0.7,1.3,1.1,2.1c0.1,0,0.3-0.1,0.4-0.2c0-0.1,0-0.1-0.1-0.2c-0.2-0.5,0.1-0.7,0.7-1
			c0.3-0.2,1.4-0.7,1.9-1c0.8-0.4,0.9-0.4,1.2-0.1c0,0,0.1,0.1,0.1,0.2c0.1,0,0.3-0.1,0.4-0.2C39.7,54.8,39.2,53.8,39,53.3"/>
		<path class="st1" d="M88.7,15.5c-0.2,0.2-0.3,0.3-0.4,0.6c-0.4-0.2-1-0.5-1.8-1.1c-0.6-0.5-1.3-1.2-1.3-2.5c0.1-1.1,0.8-2,1.7-2.4
			c1.1-0.5,2.2,0,3,0.6c0.9,0.7,1.2,1.2,1.4,1.3c-0.3,0.4-0.5,0.7-0.8,1.2c-0.1,0-0.4-0.1-0.4-0.2c0.1-0.2,0.3-0.5,0.2-0.9
			c0-0.4-0.2-0.7-0.7-1.1c-0.5-0.4-2-0.9-3,0.7c-1,1.6-0.1,2.5,0.2,2.8c0.2,0.2,0.3,0.2,0.4,0.3c0.3,0.2,0.5,0.2,0.7-0.1
			c0.1-0.1,0.2-0.2,0.3-0.3c0.2-0.3,0.3-0.3,0-0.7c-0.1-0.1-0.2-0.2-0.3-0.3c0-0.1,0.1-0.3,0.3-0.3c0.6,0.6,1.3,1.1,1.8,1.4
			c0,0.1-0.1,0.4-0.3,0.4c-0.1,0-0.1-0.1-0.2-0.1c-0.2-0.1-0.3-0.2-0.6,0.2C88.8,15.3,88.8,15.4,88.7,15.5"/>
		<path class="st1" d="M39.1,25.8c-0.1,0-0.3-0.1-0.4-0.2c0-0.1,0-0.1,0.1-0.2c0.2-0.4,0.1-0.6-0.7-1.1c-0.6-0.3-1.4-0.7-1.8-1
			c-0.5-0.3-0.9-0.5-1.2,0C35,23.4,35,23.4,35,23.5c-0.1,0-0.3-0.1-0.4-0.2c0.4-0.9,1.3-2.4,2.2-3.9c0.3,0.2,0.9,0.5,1.2,0.6
			c0,0.2,0,0.4-0.2,0.5c-0.1,0-0.3-0.1-0.4-0.1c-0.2,0-0.5-0.1-0.8,0.3c-0.3,0.3-0.5,0.8-0.6,1c-0.1,0.2,0,0.3,0.1,0.4
			c0.1,0.1,1.2,0.7,1.3,0.8c0.7-1.3,0.7-1.3,0.8-1.3c0.2,0,0.3,0.1,0.4,0.3c0,0-0.7,1.3-0.7,1.3c0,0,0.8,0.5,0.9,0.5
			c0.7,0.4,0.8,0.3,1.1-0.2c0.1-0.2,0.2-0.3,0.3-0.5c0.2-0.4,0.2-0.7-0.1-1.1c-0.1-0.1-0.2-0.2-0.2-0.3c0-0.2,0.1-0.3,0.3-0.4
			c0.1,0.1,0.9,0.8,1.1,1C40.5,23.2,39.7,24.5,39.1,25.8"/>
		<path class="st1" d="M84.6,65.9c0.1,0,0.2,0.2,0.2,0.4c-0.1,0.1-0.1,0.1-0.1,0.1c-0.4,0.3-0.4,0.5,0.1,1.3
			c0.4,0.6,0.8,1.3,1.1,1.8c0.3,0.5,0.5,0.9,1,0.6c0.1,0,0.1-0.1,0.2-0.1c0.1,0,0.2,0.2,0.2,0.4c-0.8,0.6-2.3,1.4-3.9,2.2
			c-0.2-0.3-0.5-0.8-0.7-1.1c0.1-0.2,0.2-0.3,0.4-0.3c0.1,0.1,0.2,0.2,0.3,0.3c0.1,0.1,0.4,0.3,0.8,0.1c0.4-0.2,0.9-0.5,1.1-0.6
			c0.2-0.1,0.2-0.2,0.1-0.3c-0.1-0.1-0.7-1.2-0.8-1.4l-1.3,0.8C83.1,70,83,69.8,83,69.7l1.3-0.8c0,0-0.4-0.8-0.5-0.9
			c-0.4-0.7-0.5-0.6-1.1-0.4c-0.2,0.1-0.3,0.2-0.5,0.3c-0.4,0.3-0.5,0.5-0.4,1c0,0.2,0,0.3,0,0.3c-0.1,0.1-0.3,0.3-0.5,0.1
			c-0.1-0.2-0.3-1.1-0.4-1.4C82,67.5,83.3,66.8,84.6,65.9"/>
		<path class="st1" d="M98.9,32.6c1.5-0.9,1.6-1,2.8-1.8c0.4-0.2,0.6-0.3,0.7,0c0,0.1,0.1,0.2,0.1,0.2c0.1,0.1,0.4,0,0.4-0.1
			c-0.2-0.8-0.4-1.5-0.7-2.4c-0.1-0.1-0.4,0-0.4,0.1c0,0.1,0,0.2,0.1,0.3c0,0.4-0.1,0.6-0.6,0.9c-0.3,0.2-3.5,2.2-3.6,2.3
			c-0.1,0.1-0.1,0.1,0,0.2c0,0,0.3,0.5,0.4,0.7c1.3,0.2,3.3,0.5,4,0.7c0.8,0.1,0.9,0.3,1,0.5c0,0.1,0,0.2,0,0.3
			c0.1,0.1,0.4,0.1,0.4,0c-0.1-0.6-0.2-1.5-0.3-2c-0.1-0.1-0.4-0.1-0.4,0.1c0,0.1,0,0.2,0,0.2c0,0.3,0,0.5-0.6,0.4
			C101.2,32.9,99.9,32.7,98.9,32.6"/>
		<path class="st1" d="M98.2,49.3c1.7-0.1,1.9-0.1,3.3-0.1c0.5,0,0.7,0,0.6,0.4c0,0.1,0,0.2,0,0.2c0.1,0.1,0.3,0.2,0.4,0.1
			c0.2-0.8,0.4-1.5,0.6-2.4c-0.1-0.2-0.3-0.1-0.4-0.1c0,0.1-0.1,0.2-0.1,0.3c-0.2,0.4-0.3,0.4-1,0.5c-0.3,0-4.2,0.2-4.2,0.2
			c-0.1,0-0.1,0.1-0.1,0.1c0,0,0,0.6,0,0.8c1.1,0.8,2.6,2.1,3.2,2.6c0.6,0.5,0.6,0.7,0.6,0.9c0,0.1-0.1,0.2-0.1,0.3
			c0.1,0.1,0.3,0.2,0.4,0.2c0.2-0.5,0.5-1.4,0.7-1.9c0-0.1-0.3-0.2-0.4-0.2c0,0.1-0.1,0.2-0.1,0.2c-0.1,0.3-0.2,0.4-0.7,0
			C100,50.7,99,49.9,98.2,49.3"/>
		<path class="st1" d="M88.2,64.4c1.5,0.9,1.7,1,2.8,1.7c0.4,0.2,0.6,0.4,0.3,0.7c-0.1,0.1-0.1,0.1-0.2,0.2c0,0.2,0.2,0.3,0.3,0.3
			c0.6-0.5,1.2-1.1,1.8-1.7c0-0.2-0.2-0.3-0.3-0.3c-0.1,0.1-0.1,0.1-0.2,0.2c-0.4,0.2-0.5,0.2-1.1-0.1c-0.3-0.2-3.6-2.1-3.7-2.1
			c-0.1,0-0.2,0-0.2,0c0,0-0.3,0.5-0.4,0.7c0.5,1.3,1.1,3.1,1.3,3.9c0.2,0.8,0.2,1,0,1.1c-0.1,0.1-0.2,0.1-0.2,0.2
			c0,0.1,0.1,0.4,0.2,0.3c0.5-0.3,1.2-0.9,1.6-1.2c0-0.2-0.1-0.4-0.2-0.4c-0.1,0.1-0.1,0.1-0.2,0.1c-0.2,0.1-0.4,0.2-0.6-0.4
			C88.9,66.6,88.5,65.4,88.2,64.4"/>
		<path class="st1" d="M79.3,73.8c-0.4-0.9-0.9-2.6-1.1-3c-0.3-0.7-0.4-0.9-0.8-0.8c-0.1,0-0.2,0-0.3,0.1C77,70,76.9,69.8,77,69.6
			c0.7-0.3,1.6-0.6,2.3-0.9c0.1,0.1,0.2,0.3,0.2,0.4c-0.1,0-0.2,0.1-0.2,0.1c-0.4,0.3-0.4,0.4-0.1,1.2c0.2,0.5,0.6,1.6,0.7,2
			c0.3,0.8,0.4,0.9,0.8,0.8c0.1,0,0.1,0,0.2-0.1c0.1,0,0.2,0.3,0.2,0.4c-1.3,0.5-2,0.7-2.3,0.8c-0.2,0.1-0.5,0.2-0.7,0.2
			c-0.6,0.1-1.6,0.2-1.9-1c-0.2-0.7,0.1-1.2,0.6-1.5c-0.4-0.3-0.9-0.7-1.4-1c-0.5-0.3-0.7-0.4-1.1-0.3c0,0-0.1,0-0.3,0
			c-0.1-0.1-0.1-0.3-0.1-0.4c0.1,0,0.8-0.2,1.4-0.3c0.3,0.2,2.1,1.4,2.5,1.6L77.8,72c-0.3,0.1-0.6,0.3-0.7,0.6
			c-0.1,0.4,0,0.6,0.1,0.8c0.1,0.2,0.2,0.5,0.5,0.6c0.3,0.1,0.6,0.1,0.8,0c0.2-0.1,0.4-0.1,0.5-0.2C79.1,73.8,79.2,73.8,79.3,73.8"
			/>
		<path class="st1" d="M57,69.4c-0.2,0.1-0.2,0.3-0.2,0.4c0.1,0,0.1,0,0.2,0.1c0.3,0.2,0.3,0.3-0.1,0.7c-0.2,0.2-0.3,0.3-0.4,0.4
			c-0.2-0.1-1.4-0.6-1.7-0.6c0-0.2,0-0.2,0-0.6c0-0.4,0-0.7,0.4-0.6c0.1,0,0.1,0,0.2,0.1c0.1-0.1,0.2-0.3,0.2-0.4
			c-0.3-0.1-1-0.4-2-0.9c-0.2,0.1-0.2,0.3-0.2,0.4c0.1,0,0.2,0.1,0.2,0.1c0.5,0.3,0.3,0.7,0.3,1.1c0,0.4-0.1,4.2-0.1,4.3
			c0,0.1,0,0.1,0.1,0.1c0.1,0,0.5,0,0.7,0c0.2-0.2,2.2-2.5,2.8-3.1c0.6-0.6,0.7-0.6,1-0.6c0.1,0,0.2,0,0.2,0
			c0.1-0.1,0.2-0.3,0.1-0.4C58.1,69.8,57.2,69.4,57,69.4 M54.7,73l0.1-2.2l1.4,0.5L54.7,73z"/>
		<path class="st1" d="M36.8,47.3c-0.2-0.1-0.4,0-0.4,0.1c0,0.1,0,0.1,0,0.2c0,0.4-0.1,0.4-0.6,0.3c-0.3,0-0.4-0.1-0.5-0.1
			c-0.1-0.3-0.3-1.5-0.4-1.7c0.2-0.1,0.2-0.1,0.5-0.3c0.3-0.2,0.6-0.4,0.7,0c0,0.1,0,0.1,0,0.2c0.1,0.1,0.4,0,0.4-0.1
			c-0.1-0.3-0.2-1.1-0.4-2.2c-0.1-0.1-0.4,0-0.4,0c0,0.1,0,0.2,0,0.3c0,0.5-0.4,0.7-0.7,0.9c-0.3,0.2-3.6,2.2-3.7,2.2
			c-0.1,0.1-0.1,0.1,0,0.1c0,0,0.3,0.5,0.4,0.6c0.3,0,3.3,0.5,4.1,0.6c0.8,0.1,0.9,0.3,1,0.5c0.1,0.1,0.1,0.2,0.1,0.2
			c0.1,0.1,0.4,0,0.4-0.1C37.2,48.8,36.9,47.5,36.8,47.3 M32.6,47.4l1.9-1.1l0.3,1.5L32.6,47.4z"/>
		<path class="st1" d="M99.2,38.2c-0.1,0.1-0.3,0.1-0.4,0c-0.1-0.9-0.1-1.3-0.2-2c0.1-0.1,0.3-0.2,0.4-0.1c0,0.1,0,0.1,0,0.2
			c0.1,0.3,0.1,0.5,0.9,0.6c0.5,0.1,2,0.1,2.3,0.1c0.5,0,1.1,0,1-0.6c0-0.1,0-0.1,0-0.2c0.1-0.1,0.3-0.1,0.4,0
			c0.1,0.7,0.1,1.2,0.1,2c-0.3,0-0.5,0.1-1,0.3c-0.5,0.3-2.1,1-2.7,1.3c0.4,0.2,2.5,1.2,2.6,1.3c0.3,0.1,0.7,0.3,1.1,0.4
			c0,0.5-0.1,1.3-0.1,2c-0.1,0.1-0.3,0.1-0.4-0.1c0-0.1,0-0.1,0-0.2c0-0.3-0.1-0.5-0.7-0.5c-0.7,0-1.8,0-2.5,0
			c-0.7,0.1-1.1,0.1-1.1,0.4c0,0.2,0,0.2,0,0.3c-0.1,0.1-0.3,0.1-0.4-0.1c0.1-1.2,0.2-1.6,0.2-2.3c0.1-0.1,0.3-0.1,0.4,0
			c0,0.1,0,0.2,0,0.2c0,0.3,0,0.4,0.9,0.4c0.7,0,2.4,0,2.8-0.1c-0.5-0.3-2-0.9-2.8-1.3c-0.8-0.4-1.1-0.5-1.4-0.6
			c-0.1-0.1-0.1-0.2,0-0.3c0.1,0,0.7-0.2,1.4-0.6c0.7-0.3,2.4-1.1,2.8-1.2c-0.6,0-2.2-0.1-2.6-0.1c-0.6,0-1.1,0-1,0.4"/>
		<path class="st1" d="M62.8,74.6c0,0.1-0.2,0.3-0.3,0.5c-0.2,0.2-0.5,0.3-0.9,0.2c-0.1,0-0.4-0.1-0.7-0.1c0,0,0.5-2.5,0.6-3
			c0.2-0.9,0.3-1,0.7-1c0.1,0,0.1,0,0.2,0c0.1-0.1,0.1-0.3,0.1-0.4c-0.7-0.1-1.8-0.3-2.4-0.5C60,70.4,60,70.6,60,70.7
			c0.1,0,0.2,0.1,0.3,0.1c0.4,0.2,0.4,0.4,0.3,1.1c-0.1,0.4-0.6,3-0.6,3c-0.4-0.1-0.7-0.1-0.9-0.2c-0.4-0.1-0.5-0.5-0.5-0.7
			c0-0.1,0-0.3,0-0.4c-0.1-0.1-0.3-0.1-0.4-0.1c0,0.2-0.2,1.1-0.3,1.4c1.9,0.5,3,0.7,4.8,0.9c0-0.1,0.5-1.1,0.6-1.3
			C63.2,74.6,62.9,74.5,62.8,74.6"/>
		<path class="st1" d="M50.9,70.8c-0.1,0.1-0.3,0.3-0.5,0.4c-0.2,0.1-0.6,0.1-0.9-0.1c-0.1-0.1-0.3-0.2-0.6-0.4c0,0,1.3-2.2,1.6-2.7
			c0.5-0.7,0.6-0.8,1-0.7c0.1,0,0.1,0.1,0.2,0.1c0.1-0.1,0.2-0.3,0.2-0.4c-0.6-0.3-1.6-0.9-2.1-1.3c-0.1,0-0.3,0.2-0.3,0.3
			c0.1,0.1,0.2,0.1,0.2,0.2c0.3,0.3,0.3,0.5-0.1,1.2c-0.2,0.4-1.6,2.7-1.6,2.7c-0.3-0.2-0.6-0.4-0.8-0.5c-0.4-0.3-0.3-0.7-0.2-0.8
			c0-0.1,0.1-0.3,0.2-0.4c-0.1-0.2-0.3-0.2-0.4-0.2c-0.1,0.2-0.6,1-0.8,1.2c1.6,1.1,2.5,1.7,4.2,2.6c0.1-0.1,0.9-0.9,1-1
			C51.2,70.9,51.1,70.8,50.9,70.8"/>
		<path class="st1" d="M35.4,39.9c0,0.1,0,0.2,0,0.3c-0.1,0.4-0.1,0.7-0.8,0.7c-0.2,0-0.8,0-0.9,0c0,0,0-1.4,0-1.4
			c-0.2-0.1-0.4-0.1-0.5,0c0,0,0,0,0,1.5c-0.2,0-1.5,0.1-1.6,0.1c-0.1,0-0.2,0-0.3-0.3c0-0.2,0-0.6,0-1.1c0.1-0.8,1.1-1,1.4-1
			c0.1-0.2,0.1-0.3-0.1-0.5c-0.4,0-1.4,0.2-1.8,0.2c-0.1,1.9,0,3.1,0.1,4.5c0.1,0.1,0.3,0.1,0.4,0c0-0.1,0-0.1,0-0.2
			c0-0.5,0.4-0.5,1-0.6c0.4,0,1.3,0,2.1-0.1c1-0.1,1,0.1,1.1,0.5c0,0.1,0,0.1,0,0.2c0.1,0.1,0.4,0,0.4,0c-0.1-0.8-0.1-1.8-0.1-2.6
			C35.8,39.8,35.5,39.8,35.4,39.9"/>
		<path class="st1" d="M52.6,16.2C52.2,16.3,52,17,52,17.3c-0.1,0.3-0.1,0.8-0.1,0.8c0,0.1-0.1,0.1-0.3,0c-0.2,0-0.4-0.4-0.5-0.6
			c0-0.2,0-0.4-0.1-0.5c0.1,0,0.2,0.1,0.3,0c0.2-0.1,0.2-0.3,0.2-0.7c0-0.2-0.1-0.3-0.2-0.4c-0.1,0-0.1,0-0.2,0c0-0.1,0-0.2,0-0.3
			c0-0.1-0.1-0.2-0.2-0.2c-0.1,0-0.3-0.1-0.4,0l0,0c-0.2,0-0.3,0.1-0.4,0.1C50,15.7,50,15.8,50,15.8c0,0.1,0.1,0.2,0.1,0.2
			c-0.1,0-0.2,0-0.2,0.1c-0.1,0.1-0.1,0.3-0.1,0.4c0.1,0.3,0.2,0.5,0.4,0.6c0.1,0,0.2,0,0.2-0.1c0,0.1,0.1,0.3,0.1,0.5
			c0,0.2,0,0.7-0.2,0.8c-0.1,0-0.2,0.1-0.2,0c0,0-0.4-0.7-0.4-0.7c-0.3-0.5-0.6-0.9-0.9-0.9c-0.1,0-0.3,0.1-0.4,0.2
			c-0.1,0.2-0.1,0.6,0.1,0.8c0.2,0.2,0.5,0.3,0.6,0.2c0.2,0.4,0.3,0.6,0.6,1.2c0.1,0.3,0.3,0.8,0.4,1.1c0.1,0.3,0.4,0.5,0.8,0.6
			c0,0,0.2,2.8,1,8.4c0.1,0.2,0.6,0.3,0.8,0.2c0.3-0.1,0.7-0.2,0.6-0.6c-0.9-5.6-1.5-8.3-1.5-8.2c0.3-0.2,0.6-0.4,0.6-0.8
			c0-0.3,0-0.8,0-1.3c0-0.5,0-0.8,0.1-1.3c0.2,0,0.4-0.1,0.5-0.3c0.1-0.3,0.1-0.6,0-0.8C52.9,16.2,52.8,16.1,52.6,16.2"/>
		<path class="st1" d="M51.9,35.8c0.2,0.3,0.8,0.6,1.7,0.5c0.8-0.1,1.2-0.5,1.4-1c0.2,0.2,0.7,2.3-1.1,2.5
			C52.1,38,51.8,36.3,51.9,35.8"/>
		<path class="st1" d="M55.5,32.3c-0.1-0.1-0.2-0.2-0.4-0.2c0.1-0.2,0.2-0.2,0.2-0.4c0.1-0.2,0.1-0.4,0-0.8
			c-0.1-0.2-0.3-0.2-0.5-0.3c0-0.1,0.1-0.1,0.1-0.3c0.1-0.3,0-0.4-0.1-0.6c-0.2-0.3-0.9-0.3-1-0.1c-0.2,0.4-0.7,0.6-1.1,0.6
			c-0.5,0.1-0.9,0-1.3-0.2c-0.3-0.2-0.5-0.2-0.7,0c-0.2,0.2-0.4,0.5-0.4,0.9c0,0.4,0.3,0.6,0.3,0.8c0.1,0.3-0.2,0.5-0.1,0.8
			c0.1,0.3,0.3,0.4,0.4,0.6c0.1,0.2,0,0.4,0,0.7c0,0.3,0.3,0.5,0.4,0.6c0.1,0.2,0,0.5,0.1,0.6c0.2,0.2,0.3,0.2,0.6,0.3
			c0.5,0.1,1.2,0.1,2-0.2c0.4-0.2,0.9-0.4,1.1-0.9c0.1-0.2,0-0.5-0.1-0.7c0.2-0.1,0.3-0.2,0.3-0.4C55.7,32.7,55.6,32.4,55.5,32.3
			 M53.8,33.6c-0.1,0.1-0.3,0.1-0.4,0.1c0,0.1,0.1,0.3,0.1,0.3c0,0-0.4,0.1-0.4,0C53,34,53,33.9,52.9,33.8c-0.1,0-0.2,0.1-0.4,0
			c-0.1,0-0.2-0.4-0.2-0.5c0.1-0.1,0.2,0,0.4-0.1c-0.1-0.1-0.1-0.3-0.1-0.3c0,0,0.4-0.1,0.4,0c0.1,0.1,0.1,0.2,0.1,0.3
			c0.1,0,0.3-0.1,0.4,0C53.8,33.2,53.9,33.5,53.8,33.6"/>
		<path class="st1" d="M62,18.1c0.1-0.9,0.4-1.6,0.6-2.1c0-0.1-0.2-0.3-0.2-0.3c-0.1,0-4.4,1.1-8,3.3c-0.7,0.4-0.2,2,0.3,3.1
			c1.6,3.8,3.4,3.3,4.1,6.2c0.2,1,1.1,4.6,1.2,5.1c0.3,1,1.2,1.6,2.3,1.5C62,30.2,61.5,22.5,62,18.1 M57.4,21.2
			c-0.1,0.5-0.6,1.5-0.8,1.5c-0.3-0.1-0.6-1.2-0.6-1.7c0-0.3,0.1-0.4,0.2-0.5c0.1,0,0.3,0.4,0.3,0.9h0.3c0.1-0.6,0.4-0.9,0.5-0.8
			C57.5,20.6,57.5,20.9,57.4,21.2 M59,18c0.1-0.3,0.1-0.4,0.2-0.4c0.1,0,0.2,0.4,0.1,0.9l0.3,0c0.2-0.5,0.5-0.7,0.6-0.7
			c0.1,0.1,0.1,0.3,0,0.5c-0.2,0.4-0.7,1.3-1,1.2C59,19.6,58.9,18.5,59,18 M60.5,23.6c-0.2,0.5-0.8,1.6-1.1,1.5
			c-0.4-0.1-0.5-1.4-0.4-1.9c0-0.3,0.1-0.5,0.3-0.5c0.1,0,0.2,0.4,0.2,1.1l0.3,0c0.2-0.7,0.5-0.9,0.6-0.8
			C60.6,23.1,60.6,23.3,60.5,23.6"/>
		<path class="st1" d="M80.8,19.1c-3.9-2.4-8.2-3.4-8.3-3.4c-0.1,0-0.3,0.2-0.2,0.3c0.2,0.4,0.5,1.1,0.6,2c0.5,4.4,0,12.1-0.3,16.9
			c1.1,0.1,1.9-0.5,2.3-1.5c0.2-0.5,0.9-4.1,1.2-5.1c0.6-2.4,3.6-3.4,4.4-6C80.9,21.1,81.5,19.5,80.8,19.1 M74.6,17.9
			c0.1,0,0.4,0.1,0.6,0.7l0.3,0c-0.1-0.5,0-0.9,0.1-0.9c0.1,0,0.2,0.1,0.2,0.4c0.1,0.4,0,1.5-0.3,1.6c-0.2,0.1-0.8-0.8-1-1.2
			C74.5,18.2,74.5,18,74.6,17.9 M75.6,25.9c-0.3,0.1-0.9-1-1.1-1.5c-0.1-0.3-0.1-0.6,0-0.7c0.1-0.1,0.4,0.2,0.6,0.8l0.3,0
			c0-0.6,0.1-1.1,0.2-1.1c0.1,0,0.2,0.2,0.3,0.5C76.1,24.5,75.9,25.8,75.6,25.9 M78.5,22.8c-0.3,0-0.7-1-0.8-1.5
			c-0.1-0.3,0-0.5,0.1-0.6c0.1,0,0.4,0.2,0.5,0.8h0.3c0-0.6,0.2-1,0.3-1c0.1,0,0.2,0.2,0.2,0.5C79.1,21.6,78.8,22.7,78.5,22.8"/>
		<path class="st1" d="M70.6,10.5c0,0,0-0.8-0.7-1V9.3c0,0,0.7-0.1,1.1,0.2c0,0,0,0.1,0,0.3c0.5,1.2-0.3,1.7-0.3,2.6
			c-1-0.6-1.8-0.6-1.8-0.6l-0.5-1.3c0,0,0.2-0.1,0.7-0.1C69.6,10.4,70.2,10.3,70.6,10.5"/>
		<path class="st1" d="M67.3,6.4L67.3,6.4c-1.4,0-2.9,0.1-3.8,0.6c-0.2-0.4-0.5-2.2-1.1-2.8c-0.1-0.1-0.3-0.4-0.4-0.4
			c-0.1-0.1-0.1-0.2,0-0.2c0.1,0,0.2-0.1,0.4,0c0.2,0,0.3,0.1,0.4,0.4c0,0,0.1,0,0.1,0c0-0.1,0-0.3,0-0.4c0-0.1,0.2-0.2,0.4,0.1
			c0.1,0.1,0.2,0.2,0.2,0.3c0,0.1,0.1,0.3,0,0.4c-0.1,0.1-0.2,0-0.3,0l0,0.1c0.2,0.2,0.6,0.5,1,0.4c0.5-0.1,0.7-0.4,0.6-0.8
			c0,0,0,0,0,0c0,0-0.1,0.1-0.2,0.1c-0.1,0-0.3,0-0.4-0.3c-0.1-0.2-0.1-0.4,0-0.4c0-0.1,0.2-0.1,0.4,0c0,0,0,0,0-0.1
			c-0.3-0.1-0.3-0.3-0.3-0.4c0-0.1,0.1-0.3,0.4-0.3c0.4-0.1,0.5,0.1,0.5,0.2c0,0.1,0,0.3-0.2,0.4c0,0,0,0,0.1,0.1
			c0.1,0,0.1-0.1,0.1-0.1c0,0,0.1-0.1,0.2-0.1c0.1,0,0.2,0,0.3,0.3C65.8,3.9,65.6,4,65.5,4c-0.1,0-0.2,0-0.3-0.1c0,0,0,0,0,0
			c0.2,0.4,0.5,0.7,1.1,0.6c0.5,0,0.8-0.3,0.8-0.9c0,0,0,0,0,0c0,0-0.1,0.1-0.3,0.1c-0.2,0-0.3-0.1-0.3-0.4c-0.1-0.3,0-0.4,0.2-0.5
			c0.1-0.1,0.3,0,0.3,0.1c0,0,0,0,0-0.1c-0.1-0.1-0.2-0.2-0.2-0.4c0-0.1,0.2-0.2,0.5-0.2c0.3,0,0.5,0.1,0.5,0.2
			c0,0.1-0.1,0.2-0.2,0.4c0,0,0,0,0,0.1c0,0,0.2-0.1,0.3-0.1c0.1,0,0.2,0.2,0.2,0.5c-0.1,0.2-0.2,0.4-0.3,0.4
			c-0.2,0-0.2-0.1-0.3-0.1c0,0,0,0,0,0c0,0.6,0.4,0.9,0.8,0.9c0.5,0,0.9-0.2,1-0.6c0,0,0,0,0,0C69.3,4,69.2,4,69.1,4
			c-0.1,0-0.3-0.1-0.2-0.5c0.1-0.3,0.2-0.3,0.3-0.3c0,0,0.1,0,0.2,0.1c0,0,0.1,0.1,0.1,0.1c0,0,0,0,0.1-0.1
			c-0.2-0.1-0.2-0.4-0.2-0.4c0-0.1,0.2-0.3,0.5-0.2c0.3,0.1,0.4,0.2,0.4,0.3c0,0.1-0.1,0.3-0.3,0.4c0,0,0,0.1,0,0.1
			c0.2-0.1,0.4,0,0.4,0c0,0.1,0.1,0.2,0,0.4c-0.1,0.3-0.3,0.3-0.4,0.3c-0.1,0-0.1-0.1-0.2-0.1c0,0,0,0,0,0c0,0.4,0.1,0.7,0.6,0.8
			c0.4,0.1,0.9-0.2,1-0.4l0-0.1c-0.1,0.1-0.2,0.1-0.3,0c-0.1-0.1-0.1-0.2,0-0.4c0-0.1,0.1-0.2,0.2-0.3c0.2-0.2,0.4-0.1,0.4-0.1
			c0.1,0.1,0.1,0.2,0,0.4c0,0,0.1,0,0.1,0c0.1-0.2,0.2-0.3,0.4-0.4c0.2,0,0.3,0,0.4,0c0.1,0,0.1,0.1,0,0.2c-0.1,0-0.3,0.3-0.4,0.4
			c-0.6,0.7-0.9,2.4-1.1,2.8C70.2,6.6,68.8,6.4,67.3,6.4"/>
		<path class="st1" d="M66.5,14c0.4,0,0.7-0.5,0.7-0.5h0.3c0,0,0.2,0.5,0.6,0.5c1.4,0.2,2.5,0.4,2.9,0.6c0.3-0.5,0.2-1-0.6-1.5
			c-0.3-0.2-1.1-0.5-2.3-0.5c-0.7,0.8-1.5-0.2-2.4,0.1c0.3-0.3,0.7-0.7,1.1-0.7c0,0,0.2,0.1,0.4,0.2c0.2,0.1,0.7-0.1,0.8-0.2
			c0.1-0.1-0.4-2.8-0.4-2.8s1.2-0.7,2.2-0.7c0.9,0,1.2,0.6,1.2,0.6c0.4-1.9-2-1.8-3.7-1.8c-4.7,0-3.5,0.9-3.3,2.5
			c0,0.4-0.7,0.8,0,2.4c0.1,0.2,0.2,0.5,0.2,0.9c-0.6,0.4-0.8,1-0.5,1.5C64.3,14.3,65.5,14.1,66.5,14 M67,9.2
			c-0.2,0.7-0.3,1.4-0.3,1.4s-0.3-0.1-0.9-0.1c-0.9,0-1.5,0-1.5,0c0.1-0.3,0.2-0.9,0.9-0.9V9.4l-0.9-0.2C65,7.7,66.7,9,67,9.2"/>
		<path class="st1" d="M70.6,15.1c-2.3-0.4-4.4-0.4-6.7,0.1c-0.4,1.6-0.9,5-0.1,6c0.2,0.2,1.5,0.8,2.7,0.5c0.3-0.2,0.3-1.7,0.4-2.4
			c0.1-1,0.1-1.1,0.2-1.1h0.4c0.2,0.1,0.1,3.2,0.5,3.4c1.1,0.4,2.7-0.1,3-0.5C71.7,20.3,71,16.1,70.6,15.1 M67.3,16.5
			c-1.1,0-1.4-0.3-1.4-0.9c0,0,0.3,0.2,1.4,0.2c1.1,0,1.4-0.2,1.4-0.2C68.7,16.2,68.3,16.5,67.3,16.5"/>
		<path class="st1" d="M67.3,45.2L67.3,45.2c-3.5,0-7.6,0.4-9.2,0.7c-0.4-0.9-1.4-3.3-2.8-4.9c-0.2-0.2-0.8-0.8-0.9-1
			c-0.1-0.1-0.2-0.4,0-0.4c0.3-0.1,0.6-0.1,0.9-0.1c0.5,0.1,0.8,0.3,0.9,0.9c0,0,0.2,0.1,0.2,0.1c-0.1-0.3-0.1-0.6,0.1-0.8
			c0.1-0.1,0.5-0.3,1.1,0.2c0.3,0.3,0.4,0.5,0.5,0.8c0.1,0.3,0.2,0.6-0.1,0.8c-0.2,0.1-0.5,0.1-0.8,0l0,0.2c0.4,0.5,1.4,1.1,2.5,1
			c1.3-0.2,1.6-0.9,1.5-1.7c0,0-0.1,0-0.1-0.1c-0.1,0.1-0.2,0.2-0.4,0.3c-0.2,0-0.6,0-1-0.6c-0.2-0.5-0.2-0.8-0.1-0.9
			c0.1-0.1,0.4-0.2,1-0.1c0,0,0-0.1,0-0.1c-0.7-0.2-0.8-0.6-0.8-0.9c0-0.2,0.2-0.6,1-0.7c0.9-0.2,1.2,0.2,1.3,0.4
			c0.1,0.2,0,0.7-0.4,1c0,0,0.1,0.1,0.1,0.1c0.1-0.1,0.2-0.2,0.3-0.2c0.1-0.1,0.3-0.1,0.4-0.1c0.3,0,0.5,0.1,0.7,0.8
			c0.2,0.9-0.4,1-0.5,1c-0.2,0-0.5-0.1-0.6-0.1c0,0,0,0-0.1,0.1c0.5,0.9,1.3,1.5,2.6,1.4c1.2-0.1,2-0.7,2-2c0,0-0.1,0-0.1-0.1
			c0,0-0.2,0.3-0.6,0.3c-0.4,0-0.7-0.3-0.8-0.8c-0.2-0.6,0.1-0.9,0.4-1c0.4-0.1,0.7,0.1,0.8,0.2c0,0,0.1-0.1,0.1-0.1
			c-0.2-0.2-0.4-0.5-0.4-0.8c0.1-0.3,0.5-0.6,1.2-0.6h0c0.7,0,1.1,0.2,1.2,0.6c0.1,0.2-0.1,0.5-0.4,0.8c0,0,0.1,0.1,0.1,0.1
			c0.1-0.1,0.5-0.3,0.8-0.2c0.3,0.1,0.5,0.4,0.4,1c-0.1,0.5-0.4,0.8-0.8,0.8c-0.4,0-0.6-0.3-0.6-0.3c0,0-0.1,0-0.1,0.1
			c0,1.3,0.9,2,2,2c1.3,0.1,2.1-0.4,2.6-1.4c0,0,0-0.1-0.1-0.1c-0.2,0.1-0.5,0.1-0.6,0.1c-0.2,0-0.7-0.2-0.5-1
			c0.2-0.7,0.4-0.8,0.7-0.8c0.1,0,0.3,0.1,0.4,0.1c0.1,0.1,0.2,0.1,0.3,0.2c0,0,0.1-0.1,0.1-0.1c-0.4-0.3-0.5-0.8-0.4-1
			c0.1-0.2,0.4-0.6,1.3-0.4c0.8,0.1,1,0.5,1,0.7c0,0.2-0.1,0.7-0.8,0.9c0,0,0,0.1,0,0.1c0.6-0.2,0.9-0.1,1,0.1
			c0.1,0.1,0.1,0.5-0.1,0.9c-0.3,0.6-0.8,0.6-1,0.6c-0.2,0-0.3-0.2-0.4-0.3c0,0-0.1,0-0.1,0.1c-0.1,0.8,0.2,1.5,1.5,1.7
			c1.1,0.2,2.1-0.4,2.5-1l0-0.2c-0.3,0.1-0.6,0.2-0.8,0c-0.3-0.2-0.2-0.5-0.1-0.8c0.1-0.3,0.2-0.5,0.5-0.8c0.5-0.5,0.9-0.3,1.1-0.2
			c0.1,0.2,0.2,0.5,0.1,0.8c0,0,0.2-0.1,0.2-0.1c0.1-0.6,0.4-0.8,0.9-0.9c0.4-0.1,0.7,0,0.9,0.1c0.2,0.1,0.1,0.3,0,0.4
			c-0.1,0.1-0.7,0.7-0.9,1c-1.4,1.5-2.4,4-2.8,4.9C75,45.6,70.8,45.2,67.3,45.2L67.3,45.2L67.3,45.2L67.3,45.2L67.3,45.2L67.3,45.2
			L67.3,45.2L67.3,45.2z"/>
		<path class="st1" d="M64.6,61.4c0.2,0,0.3-0.1,0.5-0.3l-0.7,0C64.4,61.3,64.4,61.4,64.6,61.4"/>
		<path class="st1" d="M64.7,54.8l-0.7,0c0,0.2,0.1,0.3,0.2,0.3C64.5,55.1,64.6,55,64.7,54.8"/>
		<path class="st1" d="M71.3,56.9c0,0,0.1,0,0.2,0c0.5,0,0.9-0.3,0.9-0.9c0-0.6-0.5-0.8-0.9-0.8c-1,0-1,1.1-2.1,1.3
			c0.3,0,0.4,0,0.6,0C70.7,56.6,71.1,56.6,71.3,56.9"/>
		<path class="st1" d="M67.3,46.5c-4.9,0-7.9,0.5-9,0.7c0,0.8,0.3,7.7,0.5,13c0.3,6.4,3.7,8.4,8.5,8.4c4.5,0,8.2-1,8.5-8.4
			c0.3-5.3,0.5-12.2,0.5-13C75.3,47,72.3,46.5,67.3,46.5 M68.2,48c0.3,0,0.4,0.2,0.4,0.3h0.3c0-0.1,0.1-0.3,0.4-0.3
			c0.4,0,0.5,0.3,0.5,0.3c0,0.5-0.7,0.6-0.9,0.8h-0.1c-0.2-0.2-0.9-0.3-0.9-0.8C67.7,48.3,67.7,48,68.2,48 M63.5,48.5
			c0.1,0,0.2,0,0.3,0l-0.2-1l0.1,0c0.3,0.2,0.4,0.5,0.4,0.5h0.1c0-0.2,0.2-0.5,0.2-0.5l0.2,0c0.1,0.2,0.2,0.5,0.2,0.5h0.1
			c0,0,0.1-0.3,0.4-0.5h0.1l-0.2,0.8c0.3,0,1,1.1,1,2.1c0.3-0.1,1.8-0.1,1.9-0.1c-1-0.1-1.7-0.6-1.7-2c0.1,0,0.2,0,0.3,0
			c0.5,0.1,0.8,0.5,0.8,0.7c0,0.2-0.1,0.3-0.2,0.4c0,0.2,0.4,0.5,1.1,0.5c1.5,0,1.4-1.7,3.3-1.7c0.7,0,1.7,0.3,1.7,1.4
			c0,1.2-1.4,1.3-1.7,1.3c0.2,0.2-0.1,0.7,0.6,0.7c0.6,0,1.4-0.2,1.7-0.2c0.5,0,0.2,0.6,0.6,1c0.3,0.3,0.3,0.4,0.3,0.5
			c0,0.1-0.1,0.3-0.2,0.3c0,0,0-0.1,0-0.2c0,0,0,0-0.1,0c0,0-0.1,0-0.2-0.2c-0.2,0-0.2,0.1-0.2,0.2c0,0.1,0,0.1,0,0.2
			c0,0.2-0.2,0.2-0.2,0.2c0,0,0,0,0,0.1c0,0,0,0.1,0,0.1c-0.1,0-0.2-0.1-0.2-0.3c0-0.1,0-0.1,0-0.2c0-0.1,0-0.1-0.1-0.1
			c0,0-0.1,0-0.1,0c0,0,0,0.3-0.2,0.3c-0.1,0-0.1,0-0.2,0c0,0-0.1,0.1-0.1,0.1c0,0,0,0.1,0,0.1C73,53.8,73,53.7,73,53.6
			c0-0.3,0.2-0.2,0.2-0.3c0-0.1-0.1-0.1-0.1-0.1c-0.1,0-0.1,0-0.2,0c-0.1,0-0.1,0-0.1,0c-0.1,0.1-0.1,0.1-0.1,0.2
			c0-0.1-0.1-0.2-0.1-0.2c0-0.2,0.2-0.3,0.5-0.3c0.1,0,0.2,0,0.3,0c0.2,0,0.4-0.2,0.4-0.3c0,0,0,0,0,0c-0.4,0-1.8,0.5-3,0.5
			c-1.7,0-0.4-2.1-1.7-2.1c-1.3,0-1.6,1.4-3,1.4c-0.5,0-0.9-0.1-1-0.1c0,0.4,0,0.6-0.4,0.6c-0.3,0-1.4,0.1-3.1,0.1
			c-0.1,0.6-0.3,0.7-0.5,0.7c-0.1,0-0.2-0.1-0.3-0.1c0.1,0,0.3,0,0.3-0.1c0,0-0.1-0.1-0.1-0.1c0,0,0-0.1,0.1-0.2c0,0-0.1,0-0.1,0
			c-0.2,0-0.4,0.4-0.7,0.4c-0.1,0-0.2-0.1-0.2-0.2c-0.1,0-0.2,0.1-0.2,0.2c0-0.2,0.1-0.4,0.3-0.4c0.2,0,0.2,0,0.2-0.1
			c0,0,0-0.1,0-0.1c-0.1,0-0.1,0-0.2,0c-0.2,0-0.3-0.1-0.3-0.2c0,0,0,0,0,0c0,0-0.1,0-0.2,0.1c0-0.2,0.2-0.4,0.3-0.4
			c0.2,0,0.2,0,0.4,0.1c0,0,0-0.1,0-0.1c0-0.1-0.1-0.1-0.3-0.2c-0.1,0-0.1-0.2-0.2-0.2c-0.1,0-0.2,0.1-0.2,0.1
			c0.1-0.2,0.2-0.4,0.5-0.4c0.5,0,0.5,0.5,1.1,0.5c0.8,0,2.1-0.1,2.3-0.2c-0.2-0.2-0.3-0.3-0.3-0.6c0-0.3,0.3-0.7,0.4-0.9
			c0,0-0.1,0-0.2,0c-0.1,0-0.3,0-0.3-0.2c0-0.2,0.1-0.3,0.2-0.4h0.2c0,0.1,0.1,0.2,0.5,0.2c0.4,0,0.5-0.2,0.5-0.4
			c0-0.5-0.2-0.6-0.6-0.6c-0.3,0-0.3,0-0.3,0.2h-0.2c-0.1-0.2-0.2-0.4-0.2-0.6C62.9,48.6,63,48.5,63.5,48.5 M67.2,53.7
			c0,0-0.1,0-0.1,0c-0.3,0-0.3,0.6-0.8,0.3c-0.1,0-0.1,0.1,0,0.2c-0.1-0.1-0.2-0.2-0.1-0.3c0.1-0.1,0.3-0.2,0.3-0.3
			c0,0,0-0.1-0.1-0.1c-0.2,0-0.3,0.3-0.5,0.1l0-0.1c0,0-0.1,0-0.2,0.1c0-0.2,0.1-0.2,0.2-0.3c0.2-0.1,0.4-0.1,0.4-0.1c0,0,0,0,0-0.1
			C66.2,53,66,53.2,66,53c-0.1,0-0.2,0-0.2,0.1c0-0.2,0.2-0.3,0.4-0.4c0.2,0,0.6,0.2,0.9,0.3c0.1,0,0.4,0,0.4,0c0.1,0,0.2,0,0.3,0
			c0.2,0,0.2-0.1,0.1-0.4c-0.1-0.5,0-0.9,0.4-1.2c0.3-0.2,0.6-0.2,0.9-0.2c0.1,0.1,0.2,0.2,0.2,0.4c0,0.2,0,0.3,0.1,0.6
			c-0.2,0-0.5,0.1-0.7,0.3c-0.1,0.2,0.1,0.5,0.1,0.7c0,0.2-0.1,0.2-0.3,0.3c-0.1,0-0.4,0-0.8,0l0,0.1c0,0.1-0.1,0.3-0.3,0.3
			C67.3,54,67.2,54.1,67,54c0.1,0,0.2-0.1,0.2-0.1C67,53.8,67.2,53.7,67.2,53.7 M68.2,54.4c0.3,0,0.4,0.2,0.4,0.3h0.3
			c0-0.1,0.1-0.3,0.4-0.3c0.4,0,0.5,0.3,0.5,0.3c0,0.5-0.7,0.6-0.9,0.8h-0.1c-0.2-0.2-0.9-0.3-0.9-0.8
			C67.7,54.6,67.7,54.4,68.2,54.4 M62.8,58.1c-0.2-0.1-0.3-0.2-0.4-0.3c-0.4-0.4-0.5-1-0.8-1.3c-0.3-0.4-0.5-0.6-0.5-0.7
			c-0.2,0-0.3,0-0.4,0c-0.1,0-0.4,0-0.6-0.4c0.1,0,0.2,0.1,0.2,0.1c0-0.1,0.1-0.1,0.1-0.1c0.1,0,0.1,0.1,0.2,0.1c0,0,0.1,0,0.1,0
			s0,0,0-0.1c0-0.2-0.2-0.2-0.3-0.2c-0.3,0-0.3-0.3-0.3-0.3c0,0,0-0.1-0.1-0.1c0,0-0.1,0-0.1,0c0.1-0.1,0.3-0.2,0.5-0.2
			c0.2,0,0.4,0.3,0.5,0.3c0.1,0,0.1-0.1,0.1-0.1c0-0.1-0.1-0.1-0.2-0.2c0,0-0.1-0.1-0.1-0.1c0,0,0-0.1,0-0.1
			c-0.1-0.1-0.1-0.1-0.3-0.1c0.2-0.1,0.3-0.1,0.4-0.1c0.3,0,0.5,0.3,0.5,0.5c0.1,0,0.1,0,0.1-0.1v-0.1c0-0.1,0-0.2,0.1-0.2
			c0-0.1-0.1-0.1-0.2-0.1c0.1,0,0.1,0,0.2,0c0.1,0,0.4,0.1,0.4,0.4c0,0.3-0.2,0.5-0.2,0.6c0,0.2,0.9,1.6,1.3,1.9
			C62.8,57.2,62.5,57.8,62.8,58.1 M62,55c0.1,0,0.1,0,0.2,0c0.5,0,0.5,0.7,1.1,0.7c0.3,0,0.3-0.1,0.5-0.1c0.1,0,0.2,0,0.2,0.2
			c0,0.2-0.1,0.2-0.5,0.2C62.3,56.1,62.6,55.4,62,55 M62.1,48.7c0.5,0,0.5,0.7,1.1,0.7c0.3,0,0.3-0.1,0.5-0.1c0.1,0,0.2,0,0.2,0.2
			c0,0.2-0.1,0.2-0.5,0.2c-1.2,0-0.9-0.7-1.6-1C62,48.8,62.1,48.7,62.1,48.7 M60.3,48.3c0.2,0,0.4,0.3,0.5,0.3
			c0.1,0,0.1-0.1,0.1-0.1c0-0.1-0.1-0.1-0.2-0.2c0,0-0.1-0.1-0.1-0.1c0,0,0-0.1,0-0.1C60.6,48,60.5,48,60.4,48
			c0.2-0.1,0.3-0.1,0.4-0.1c0.3,0,0.5,0.3,0.5,0.5c0.1,0,0.1,0,0.1-0.1v-0.1c0-0.1,0-0.2,0.1-0.2c0-0.1-0.1-0.1-0.2-0.1
			c0.1,0,0.1,0,0.2,0c0.1,0,0.4,0.1,0.4,0.4c0,0.3-0.2,0.4-0.2,0.6c0,0.2,0.9,1.6,1.3,1.9c-0.2,0.3-0.5,0.8-0.1,1.1
			c-0.2-0.1-0.3-0.2-0.4-0.3c-0.4-0.4-0.5-1-0.8-1.3c-0.3-0.4-0.5-0.6-0.5-0.7c-0.2,0-0.3,0-0.4,0c-0.1,0-0.4,0-0.6-0.4
			c0.1,0,0.2,0.1,0.2,0.1c0-0.1,0.1-0.1,0.1-0.1c0.1,0,0.1,0.1,0.2,0.1c0,0,0.1,0,0.1,0s0,0,0-0.1c0-0.2-0.2-0.2-0.3-0.2
			c-0.3,0-0.3-0.3-0.3-0.3c0,0,0-0.1-0.1-0.1c0,0-0.1,0-0.1,0C60,48.4,60.1,48.3,60.3,48.3 M59.8,50.1c0.3,0,0.4,0.2,0.4,0.3h0.3
			c0-0.1,0.1-0.3,0.4-0.3c0.4,0,0.5,0.3,0.5,0.3c0,0.5-0.7,0.6-0.9,0.8h-0.1c-0.2-0.2-0.9-0.3-0.9-0.8
			C59.3,50.3,59.3,50.1,59.8,50.1 M59.3,56.7c0-0.1,0-0.3,0.5-0.3c0.3,0,0.4,0.2,0.4,0.3h0.3c0-0.1,0.1-0.3,0.4-0.3
			c0.4,0,0.5,0.3,0.5,0.3c0,0.5-0.7,0.6-0.9,0.8h-0.1C60,57.3,59.3,57.2,59.3,56.7 M60.1,59.3c0.2,0,0.2,0,0.2-0.1c0,0,0-0.1,0-0.1
			c-0.1,0-0.1,0-0.2,0c-0.2,0-0.3-0.1-0.3-0.2c0,0,0,0,0,0c0,0-0.1,0-0.2,0.1c0-0.2,0.2-0.4,0.3-0.4c0.2,0,0.2,0,0.4,0.1
			c0,0,0-0.1,0-0.1c0-0.1-0.1-0.1-0.3-0.2c-0.1,0-0.1-0.2-0.2-0.2c-0.1,0-0.2,0.1-0.2,0.1c0.1-0.2,0.2-0.4,0.5-0.4
			c0.5,0,0.5,0.5,1.1,0.5c0.8,0,1.9-0.1,2.1-0.2C63.2,58.1,63,58,63,57.7c0-0.3,0.3-0.7,0.4-0.9c0,0-0.1,0-0.2,0
			c-0.1,0-0.3,0-0.3-0.2c0-0.2,0.1-0.3,0.2-0.4h0.2c0,0.2,0.1,0.2,0.5,0.2c0.4,0,0.5-0.2,0.5-0.4c0-0.5-0.2-0.5-0.6-0.5
			c-0.3,0-0.3,0-0.3,0.2h-0.2c-0.1-0.2-0.2-0.4-0.2-0.6c0-0.2,0.1-0.3,0.6-0.3c0.1,0,0.2,0,0.3,0l-0.2-1l0.1,0
			c0.3,0.2,0.4,0.5,0.4,0.5h0.1c0-0.2,0.2-0.5,0.2-0.5l0.2,0c0.1,0.2,0.2,0.5,0.2,0.5l0.1,0c0,0,0.1-0.3,0.4-0.5l0.1,0l-0.2,0.8
			c0.3,0,1,1.1,1,2.1c0.3-0.1,1.8-0.1,1.9-0.1c-1-0.1-1.7-0.6-1.7-2c0.1,0,0.2,0,0.3,0c0.5,0.1,0.8,0.5,0.8,0.7
			c0,0.2-0.1,0.3-0.2,0.4c0,0.2,0.4,0.5,1.1,0.5c1.5,0,1.2-1.7,3.2-1.7c0.7,0,1.7,0.3,1.7,1.4c0,1.2-1.2,1.3-1.5,1.3
			c0.2,0.2-0.2,1,0.5,0.9c0.6-0.1,1.4-0.4,1.6-0.4c0.5-0.1,0.3,0.6,0.8,1c0.3,0.3,0.4,0.3,0.4,0.4c0,0.1,0,0.3-0.2,0.4
			c0,0,0-0.1,0-0.2c0,0,0,0-0.1,0c0,0-0.1,0-0.2-0.2c-0.2,0.1-0.2,0.1-0.2,0.2c0,0.1,0,0.1,0.1,0.2c0,0.2-0.1,0.2-0.2,0.3
			c0,0,0,0,0,0.1c0,0,0,0.1,0,0.1c-0.1,0-0.2-0.1-0.3-0.2c0-0.1,0-0.1,0-0.2c0-0.1-0.1-0.1-0.1-0.1c0,0-0.1,0-0.1,0
			c0,0,0,0.3-0.2,0.3c-0.1,0-0.1,0-0.2,0c0,0-0.1,0.1,0,0.1c0,0,0,0.1,0,0.1c-0.1-0.1-0.1-0.1-0.2-0.2c0-0.3,0.2-0.2,0.2-0.3
			c0-0.1-0.1-0.1-0.1-0.1c-0.1,0-0.1,0.1-0.2,0.1c-0.1,0-0.1,0-0.1,0c0,0.1-0.1,0.1-0.1,0.2c-0.1-0.1-0.1-0.1-0.1-0.2
			c0-0.2,0.2-0.3,0.4-0.4c0.1,0,0.2,0,0.3,0c0.2,0,0.3-0.2,0.3-0.4c0,0,0,0,0,0c-0.4,0.1-1.8,0.6-2.9,0.6c-1.7,0-0.4-2.2-1.7-2.2
			c-1.3,0-1.6,1.4-3,1.4c-0.5,0-0.9-0.1-1-0.1c0,0.4,0,0.6-0.4,0.6c-0.3,0-1.1,0.1-2.9,0.1c-0.1,0.6-0.3,0.7-0.5,0.7
			c-0.1,0-0.2-0.1-0.3-0.1c0.1,0,0.3,0,0.3-0.1c0,0-0.1-0.1-0.1-0.1c0,0,0-0.1,0.1-0.2c0,0-0.1,0-0.1,0c-0.2,0-0.4,0.4-0.7,0.4
			c-0.1,0-0.2-0.1-0.2-0.2c-0.1,0-0.2,0.1-0.2,0.2C59.7,59.5,59.8,59.3,60.1,59.3 M67.2,59.9c0,0-0.1,0-0.1,0
			c-0.3,0-0.3,0.6-0.8,0.3c-0.1,0-0.1,0.1,0,0.2c-0.1-0.1-0.2-0.2-0.1-0.3c0.1-0.1,0.3-0.2,0.3-0.3c0,0,0-0.1-0.1-0.1
			c-0.2,0-0.3,0.3-0.5,0.1l0-0.1c0,0-0.1,0-0.2,0.1c0-0.1,0.1-0.2,0.2-0.3c0.2-0.1,0.4-0.1,0.4-0.1c0,0,0,0,0-0.1
			c-0.1-0.1-0.3,0.1-0.3-0.1c-0.1,0-0.2,0-0.2,0.1c0-0.2,0.2-0.3,0.4-0.4c0.2,0,0.6,0.2,0.9,0.3c0.1,0,0.4,0,0.4,0
			c0.1,0,0.2,0,0.3,0c0.2,0,0.2-0.1,0.1-0.4c-0.1-0.5,0-0.9,0.4-1.2c0.3-0.2,0.6-0.2,0.9-0.2c0.1,0.1,0.2,0.2,0.2,0.4
			c0,0.2,0,0.3,0.1,0.6c-0.2,0-0.5,0.1-0.7,0.3c-0.1,0.2,0.1,0.5,0.1,0.7c0,0.2-0.1,0.2-0.3,0.3c-0.1,0-0.4,0-0.8,0l0,0.1
			c0,0.1-0.1,0.3-0.3,0.3c-0.2,0.1-0.3,0.1-0.5,0.1c0.1,0,0.2-0.1,0.2-0.1C67,60,67.2,59.9,67.2,59.9 M68.2,60.7
			c0.3,0,0.4,0.2,0.4,0.3h0.3c0-0.1,0.1-0.3,0.4-0.3c0.4,0,0.5,0.3,0.5,0.3c0,0.5-0.7,0.6-0.9,0.8h-0.1c-0.2-0.2-0.9-0.3-0.9-0.8
			C67.7,60.9,67.7,60.7,68.2,60.7 M63.3,64.4c-0.2-0.1-0.2-0.1-0.4-0.2c-0.4-0.4-0.5-1-0.8-1.3c-0.3-0.3-0.5-0.6-0.5-0.6
			c-0.2,0-0.3,0-0.4,0c-0.1,0-0.4,0.1-0.5-0.4c0.1,0,0.1,0.1,0.2,0.1c0-0.1,0.1-0.1,0.1-0.1c0.1,0,0,0,0.1,0c0,0,0.1,0,0.1-0.1
			c0-0.1-0.1-0.2-0.2-0.2c-0.2,0-0.3-0.2-0.3-0.3c0,0,0-0.1-0.1,0c0,0-0.1,0-0.1,0c0.1-0.2,0.3-0.2,0.4-0.2c0.2,0,0.3,0,0.4,0.2
			c0,0,0.1-0.1,0.1-0.1c0-0.1-0.1-0.1-0.2-0.1c0,0-0.1-0.1-0.1-0.1c0,0,0-0.1,0-0.1c-0.1-0.1-0.1-0.1-0.2-0.1
			c0.2-0.1,0.2-0.2,0.3-0.2c0.4,0,0.5,0.3,0.5,0.5c0.1,0,0.1-0.1,0.1-0.1c0-0.1,0,0,0-0.1c0-0.1,0-0.2,0.1-0.2
			c0-0.1-0.1-0.1-0.2-0.1c0.1,0,0.1-0.1,0.2-0.1c0.1,0,0.3,0.1,0.4,0.3c0,0.3-0.1,0.5-0.1,0.6c0,0.2,0.9,1.5,1.3,1.8
			C63.3,63.5,63,64.1,63.3,64.4 M62.4,61.4c0.1,0,0.1,0,0.2,0c0.5,0,0.5,0.7,1.1,0.7c0.3,0,0.3-0.1,0.5-0.1c0.1,0,0.2,0,0.2,0.2
			c0,0.2-0.1,0.2-0.4,0.2C62.8,62.4,63.1,61.7,62.4,61.4 M59.8,63.1c0-0.1,0-0.3,0.5-0.3c0.3,0,0.4,0.2,0.4,0.3h0.3
			c0-0.1,0.1-0.3,0.4-0.3c0.4,0,0.5,0.3,0.5,0.3c0,0.5-0.7,0.6-0.9,0.8h-0.1C60.5,63.8,59.8,63.6,59.8,63.1 M68.7,65.2
			c-0.1,0.2,0.1,0.6,0.1,0.8c0,0.2-0.1,0.3-0.2,0.3c-0.1,0-0.3,0.1-0.7,0.2c0,0,0.1,0.1,0.1,0.3c0,0.2-0.4,0.3-0.5,0.3
			c0.1-0.1,0.1-0.2,0.1-0.2c-0.2-0.1,0-0.2,0-0.2c0,0-0.1,0-0.1,0c-0.3,0.1-0.1,0.7-0.6,0.5c-0.1,0.1,0,0.1,0,0.2
			c-0.1,0-0.2-0.2-0.2-0.3c0.1-0.1,0.3-0.3,0.3-0.3c0,0,0-0.1-0.1,0c-0.2,0-0.2,0.3-0.4,0.2l0-0.1c0,0-0.1,0-0.2,0.1
			c0-0.1,0-0.2,0.2-0.3c0.1-0.1,0.3-0.1,0.3-0.2c0,0,0,0,0,0c-0.1-0.1-0.3,0.1-0.4,0c-0.1,0-0.1,0.1-0.2,0.2c0-0.2,0.1-0.4,0.3-0.5
			c0.2-0.1,0.6,0.1,0.9,0c0.1,0,0.3-0.1,0.3-0.1c0.1,0,0.1,0,0.2-0.1c0.2,0,0.1-0.1,0-0.4c-0.2-0.4,0.1-1.3,0.4-1.5
			c0.2-0.2,0.5-0.2,0.8-0.2c0.1,0.1,0.1,0.2,0.1,0.4c0,0.2,0,0.3,0.1,0.6C69.1,64.9,68.8,64.9,68.7,65.2 M74,65.7c0,0,0-0.1,0-0.2
			c0,0,0,0-0.1,0c-0.1,0-0.1,0-0.2-0.1c-0.1,0.1-0.2,0.2-0.1,0.2c0,0.1,0,0.1,0.1,0.2c0,0.2-0.1,0.3-0.1,0.3c0,0,0,0,0,0.1
			c0,0,0,0.1,0,0.1c-0.1,0-0.2,0-0.3-0.2c0-0.1,0-0.1,0-0.2c0-0.1,0,0-0.1,0c0,0-0.1,0-0.1,0c0,0.1,0,0.3-0.1,0.3
			c-0.1,0-0.1,0-0.2,0c0,0,0,0.1,0,0.1c0,0,0,0.1,0,0.1c-0.1,0-0.1-0.1-0.2-0.2c-0.1-0.2,0.1-0.3,0.1-0.4c0,0-0.1,0-0.1,0
			c-0.1,0.1-0.1,0.1-0.2,0.1c0,0-0.1,0-0.1,0c0,0.1,0,0.1,0,0.2c-0.1-0.1-0.1-0.1-0.1-0.2c0-0.2,0.1-0.4,0.3-0.4c0.1,0,0.1,0,0.2,0
			c0.1,0,0.3-0.3,0.2-0.4c0,0,0,0,0,0c-0.4,0.1-1.5,0.9-2.5,0.9c-1.4,0-0.3-2.4-1.5-2.4c-1.1,0-1.5,1.4-2.7,1.4
			c-0.4,0-0.8-0.1-0.9-0.1c0,0.4,0,0.6-0.4,0.6c-0.3,0-0.7,0.1-2.3,0.1c-0.1,0.6-0.2,0.7-0.4,0.7c-0.1,0-0.2-0.1-0.2-0.1
			c0.1,0,0.2,0,0.2-0.1c0,0-0.1-0.1-0.1-0.1c0,0,0-0.1,0.1-0.1c0,0-0.1,0-0.1,0c-0.2,0-0.4,0.3-0.7,0.3c-0.1,0-0.2-0.1-0.2-0.2
			c-0.1,0-0.2,0.1-0.2,0.2c0-0.2,0.1-0.4,0.3-0.4c0.2,0,0.2,0,0.2-0.1c0,0,0,0,0-0.1c-0.1,0-0.1,0-0.2,0c-0.1,0-0.3-0.1-0.3-0.2
			c0,0,0,0,0,0c0,0-0.1,0-0.2,0.1c0-0.2,0.2-0.4,0.3-0.4c0.2,0,0.2,0,0.4,0.1c0,0,0-0.1,0-0.1c0-0.1-0.1-0.1-0.3-0.2
			c-0.1,0-0.1-0.2-0.2-0.2c-0.1,0-0.2,0.1-0.2,0.1c0-0.2,0.2-0.4,0.5-0.4c0.4,0,0.4,0.5,1,0.5c0.7,0,1.3-0.1,1.5-0.2
			c-0.1-0.2-0.3-0.3-0.3-0.6c0-0.3,0.2-0.7,0.3-0.9c0,0-0.1,0-0.2,0c-0.1,0-0.3,0-0.3-0.2c0-0.2,0.1-0.3,0.2-0.4h0.2
			c0,0.2,0.1,0.2,0.5,0.2c0.4,0,0.5-0.2,0.5-0.4c0-0.5-0.2-0.6-0.6-0.6c-0.3,0-0.3,0-0.3,0.2h-0.2c-0.1-0.2-0.2-0.4-0.2-0.6
			c0-0.2,0.1-0.3,0.6-0.3c0.1,0,0.2,0,0.3,0l-0.1-1l0.1,0c0.2,0.2,0.4,0.5,0.4,0.5h0.1c0-0.2,0.2-0.5,0.2-0.5l0.1,0
			c0.1,0.2,0.1,0.5,0.1,0.5h0.1c0,0,0.1-0.3,0.3-0.5l0.1,0l-0.1,0.8c0.3,0,0.9,1.1,0.9,2.1c0.3-0.1,1.6-0.1,1.7-0.1
			c-0.9-0.1-1.6-0.6-1.6-2c0.1,0,0.2,0,0.3,0c0.5,0.1,0.7,0.5,0.7,0.7c0,0.2-0.1,0.3-0.2,0.4c0,0.2,0.3,0.5,1,0.5
			c1.3,0,1.4-1.5,3-1.5c0.6,0,1.4,0.2,1.4,1.3c0,1.1-1.2,1.3-1.4,1.3c0.2,0.2-0.4,1.1,0.2,1c0.6-0.2,1.2-0.6,1.4-0.6
			c0.5-0.1,0.3,0.5,0.8,0.8c0.3,0.2,0.4,0.3,0.4,0.4C74.1,65.4,74.1,65.6,74,65.7 M74.1,63.9H74c-0.2-0.2-0.9-0.3-0.9-0.8
			c0-0.1,0-0.3,0.5-0.3c0.3,0,0.4,0.2,0.4,0.3h0.3c0-0.1,0.1-0.3,0.4-0.3c0.4,0,0.5,0.3,0.5,0.3C75,63.6,74.3,63.8,74.1,63.9
			 M74.5,57.5h-0.1c-0.2-0.2-0.9-0.3-0.9-0.8c0-0.1,0-0.3,0.5-0.3c0.3,0,0.4,0.2,0.4,0.3h0.3c0-0.1,0.1-0.3,0.4-0.3
			c0.4,0,0.5,0.3,0.5,0.3C75.4,57.2,74.7,57.3,74.5,57.5 M74.5,51.2h-0.1c-0.2-0.2-0.9-0.3-0.9-0.8c0-0.1,0-0.3,0.5-0.3
			c0.3,0,0.4,0.2,0.4,0.3h0.3c0-0.1,0.1-0.3,0.4-0.3c0.4,0,0.5,0.3,0.5,0.3C75.5,50.9,74.8,51,74.5,51.2"/>
		<path class="st1" d="M72,62.4c0-0.5-0.4-0.7-0.7-0.7c-0.8,0-1.1,1-2.1,1.2c0.2,0,0.4,0,0.5,0c0.7,0,1,0.1,1.2,0.3c0,0,0.1,0,0.1,0
			C71.5,63.2,72,62.9,72,62.4"/>
		<path class="st1" d="M71.3,50.6c0,0,0.1,0,0.2,0c0.5,0,1-0.3,1-0.9c0-0.6-0.5-0.8-0.8-0.8c-1,0-1.1,1.2-2.3,1.3c0.3,0,0.4,0,0.6,0
			C70.7,50.3,71.1,50.4,71.3,50.6"/>
		<path class="st1" d="M64.2,48.9c0.3,0,0.4-0.1,0.5-0.3l-0.7,0C64,48.7,64.1,48.9,64.2,48.9"/>
		<path class="st1" d="M87.5,30.4c0.4,0,0.7,0.2,0.7,0.7c0,0.7-0.3,1-0.6,1c-0.3,0-1-0.2-1-0.9C86.6,30.5,87.3,30.4,87.5,30.4"/>
		<path class="st1" d="M83.7,30.6c0.3,0,0.6,0.3,0.7,0.5c0.1-0.3,0.4-0.4,0.6-0.4c0.4,0,0.6,0.3,0.8,0.8c0.2,0.4,0.5,0.9,1.1,1
			c0,0.8-0.2,1.3-0.9,1.3c-0.3,0-0.5-0.1-0.6-0.1c-0.2,0.2-0.3,0.4-0.8,0.4c-0.3,0-0.7-0.2-0.8-0.4c-0.3,0.2-0.4,0.4-0.8,0.4
			c-0.3,0-0.6-0.3-0.8-0.5c-0.2,0.1-0.3,0.1-0.5,0.1c-0.5,0-0.9-1.1-0.9-1.5c0-0.3,0.2-0.6,0.6-0.6c0.1,0,0.3,0.1,0.4,0.1
			c0-0.2,0.1-0.7,0.6-0.7c0.2,0,0.5,0.1,0.6,0.2C83.1,30.9,83.2,30.6,83.7,30.6"/>
		<path class="st1" d="M83.5,26c-0.9,0-3.2,1.1-3.2,3.3c0,0.5,0,1.1,0.1,1.4c0.1-0.1,0.2-0.1,0.3-0.1c0.1,0,0.4,0.1,0.5,0.3
			c0-0.3,0.1-0.7,0.7-0.7c0.3,0,0.4,0.1,0.6,0.2c0.1-0.5,0.5-0.6,0.8-0.6c0.3,0,0.7,0.2,0.9,0.6c0-0.4,0.3-0.5,0.6-0.5
			c0.6,0,0.8,0.4,1.1,0.9c0-0.6,0.9-0.9,1.5-0.9c0.1,0,0.2,0,0.2,0c0-1.8-0.8-3.2-2.7-3.7c0.4-3,0.2-3.2,0.1-3.3
			c-0.1-0.1-0.2-0.2-0.4-0.2l0-0.4c0.3-0.1,0.5-0.3,0.5-0.6c0-0.2-0.2-1.6-0.2-1.6c0-0.2,0.1-0.3,0.2-0.3c0.1,0,1.4,0.5,1.5,0.6
			c0.3,0,0.6-0.3,0.6-0.6c0-0.4-0.2-0.7-0.5-0.7c-0.2,0-1.3,0.3-1.6,0.3c-0.1,0-0.3-0.2-0.2-0.3c0,0,0.4-1.4,0.5-1.6
			c0-0.3-0.3-0.6-0.6-0.6c-0.4-0.1-0.7,0.1-0.7,0.5c0,0.2,0.2,1.6,0.2,1.6c0,0.1-0.1,0.3-0.3,0.3c-0.3-0.1-1.4-0.5-1.5-0.5
			c-0.3,0-0.6,0.3-0.6,0.6c0,0.4,0.2,0.7,0.5,0.7c0.2,0,1.5-0.3,1.6-0.3c0.2,0,0.2,0.1,0.2,0.3c0,0-0.4,1.4-0.4,1.6
			c0,0.3,0.1,0.5,0.4,0.6l0,0.4c-0.1,0-0.3,0-0.4,0.1C83.8,22.8,83.6,23,83.5,26"/>
	</g>
</g>
</svg>
