<svg xmlns="http://www.w3.org/2000/svg" viewBox="0 0 109 148"><style>.st4{fill:#365aa5}</style><g id="HUM"><path class="st4" d="M107 39.8c0 21.9-17.8 39.8-39.7 39.8-22 0-39.7-17.8-39.7-39.8C27.6 17.8 45.3 0 67.3 0 89.2 0 107 17.8 107 39.8M37.7 97.8c0 10.4-8.4 18.8-18.8 18.8S0 108.2 0 97.8 8.5 79 18.9 79c10.4-.1 18.8 8.4 18.8 18.8M77.1 138.2c0 5.4-4.4 9.8-9.8 9.8s-9.8-4.4-9.8-9.8 4.4-9.8 9.8-9.8c5.4-.1 9.8 4.3 9.8 9.8"/><path d="M84.4 58.5c.1 0 .2.1.2.2l-.1.1c-.2.2-.2.3.2.7.2.3.7.8.9 1 .2.2.4.5.7.3.1 0 .1-.1.1-.1.1 0 .2.1.2.2-.4.4-.9.8-1.2 1.1-.1 0-.2-.1-.2-.2.1 0 .1-.1.1-.1.2-.2.1-.5-.1-.7-.3-.4-.7-.8-.9-1-.3-.4-.4-.4-.7-.3l-.1.1c-.1 0-.2-.1-.2-.2l1.1-1.1m-14.5 6.6c-.4 0-.9.1-1.6.1-.1.1 0 .2 0 .3h.2c.3 0 .3.2.4.6 0 .3.1.8.1 1.3 0 .3 0 .6-.3.7h-.1c-.1.1-.1.2 0 .3.4 0 1-.1 1.6-.1V68H70c-.4 0-.3-.3-.4-.6 0-.3-.1-.9-.1-1.3-.1-.6 0-.6.3-.7h.2c0-.1 0-.3-.1-.3M45.1 52.3c-.2-.4-.5-.8-.7-1.4-.1 0-.2.1-.3.1 0 .1.1.1.1.2.1.3 0 .4-.4.6-.2.1-.7.4-1.2.6-.3.2-.6.3-.7 0 0 0 0-.1-.1-.1s-.2 0-.2.1c.2.4.5.9.8 1.4.1 0 .2-.1.2-.1s0-.1-.1-.1c-.1-.3.2-.5.4-.6.2-.1.8-.5 1.2-.6.5-.3.6-.2.8 0l.1.1c-.1-.1 0-.1.1-.2m-3-16.2c.1-.4.1-.9.3-1.5 0-.1-.2-.1-.3-.1v.2c-.1.3-.2.3-.7.2-.3 0-.8-.2-1.3-.2-.3-.1-.6-.1-.6-.5v-.1c0-.1-.2-.1-.3-.1-.1.4-.2 1-.3 1.6 0 .1.2.1.3 0v-.1c.1-.3.4-.2.7-.2.3 0 .9.2 1.3.2.6.1.6.2.6.4v.2h.3m50.6 3.6v1.6c.1.1.2.1.3 0v-.2c.1-.3.2-.3.7-.3.3 0 .8 0 1.3.1.3 0 .6 0 .6.4v.1c0 .1.2.1.3 0v-1.6c0-.1-.2-.1-.3 0v.2c0 .4-.4.3-.7.3h-1.3c-.6 0-.6-.1-.7-.4v-.2h-.2m-5.6 16.1s-.4.1-.9.6-.5 1.2 0 1.5c.5.4 1 .2 1.4 0 .5-.2.7-.3.9-.1.1.1.3.4 0 .8-.4.4-.8.1-.9.1-.1 0-.2.1-.2.2.1.1.5.4.6.4.1-.1.4-.3.7-.6.7-.8.2-1.4-.1-1.6-.3-.2-.5-.2-1.2.1-.5.2-.8.3-1 0-.2-.2-.2-.4.1-.7.4-.5.8-.2 1.1-.1.1 0 .2-.2.2-.3-.1 0-.3-.2-.7-.3m-20.6 9.5s-.3-.2-1-.3c-.7 0-1.2.3-1.2.9 0 .6.4.9.9 1.1.5.2.7.4.7.6 0 .2-.1.5-.6.5-.6-.1-.6-.6-.6-.6-.1-.1-.2-.1-.3 0v.8c.2 0 .4.1.9.2 1.1.1 1.2-.7 1.2-1 0-.3-.2-.5-.9-.9-.5-.2-.7-.4-.6-.8 0-.2.2-.4.6-.4.6 0 .7.5.8.8h.3c-.1-.2-.1-.5-.2-.9M41.7 40s.2-.3.3-1c0-.7-.4-1.2-1-1.2s-.9.5-1.1.9c-.2.5-.4.7-.6.7-.2 0-.5-.1-.5-.6 0-.6.6-.6.6-.6.1-.1.1-.2 0-.3-.2 0-.7 0-.8.1 0 .2-.1.4-.1 1 0 1.1.7 1.2 1.1 1.1.3-.1.5-.2.9-.9.2-.5.4-.7.7-.7.2 0 .4.2.4.6 0 .6-.5.7-.8.8v.3c.3-.1.5-.1.9-.2m1-7.3s.3-.3.5-.9c.2-.7-.1-1.3-.6-1.4-.6-.2-1 .2-1.3.6-.3.4-.5.6-.8.5-.2 0-.5-.2-.3-.7.2-.6.7-.4.8-.4.1-.1.1-.2.1-.3-.2-.1-.7-.1-.8-.1-.1.1-.2.4-.4.9-.3 1 .4 1.4.7 1.4.3 0 .6-.1 1.1-.6.3-.4.6-.6.9-.4.2.1.4.3.3.7-.2.6-.7.6-1 .6-.1.1-.1.2-.1.3.2-.3.5-.2.9-.2m49.2-1.2c.9-.7.9-.8 1.6-1.3.2-.2.3-.3.5 0 0 .1 0 .1.1.1s.2 0 .3-.1c-.2-.5-.3-.9-.6-1.4-.1 0-.2 0-.3.1 0 0 0 .1.1.2.1.3 0 .4-.3.6-.2.1-2 1.6-2.1 1.7v.1s.2.3.3.4c.8 0 2.1.1 2.6.2.5 0 .6.1.6.3v.2c.1 0 .2 0 .3-.1-.1-.4-.2-.9-.4-1.2-.1-.1-.2 0-.3.1v.1c0 .2 0 .3-.4.3-.6-.2-1.4-.2-2-.3m.9 13.2c1.1-.2 1.2-.2 2-.3.3 0 .4-.1.4.2v.1c.1.1.2.1.3 0 .1-.5.2-1 .2-1.5-.1-.1-.2-.1-.3 0v.2c-.1.3-.2.3-.6.4-.2 0-2.6.4-2.6.5-.1 0-.1.1-.1.1s.1.4.1.5c.7.4 1.7 1.1 2.2 1.4.4.3.4.4.4.5v.2c0 .1.2.1.3.1.1-.4.2-.9.3-1.3 0-.1-.2-.1-.3-.1v.1c-.1.2-.1.3-.5.1-.6-.4-1.3-.8-1.8-1.2m-1 9.2c-.1.2-.2.3-.3.5-.1.1-.2.3-.4.3s-.4 0-.5-.1c-.1-.1-.2-.1-.3-.3-.1-.2 0-.4.1-.6l-.1-.1c-.3 0-1.6.2-1.9.3-.2.3-.5.7-.5.8 0 .1.1.2.2.2 0-.1.1-.1.1-.1.2-.2.3-.2.6-.3.4-.1.8-.1 1.1-.1-.1.4-.1.8.3 1 .6.4 1.1 0 1.3-.3.1-.1.2-.3.3-.4.1-.1.3-.6.8-1.4 0-.1-.2-.2-.2-.1 0 0 0 .1-.1.1-.2.3-.2.2-.7 0-.2-.1-.9-.5-1.2-.6-.5-.3-.5-.3-.4-.6 0 0 0-.1.1-.1 0-.1-.2-.1-.2-.1-.2.4-.5.9-.7 1.3 0 .1.2.1.2.1l.1-.1c.2-.2.3-.2.7 0 .1-.1 1 .4 1.6.7M77.5 63c.1-.1.7-.3 1-.5.1 0 .2.2.1.2 0 0-.1 0-.1.1-.1.1-.2.2-.2.7v2.6l-.3.3h-.1s-1.7-1.8-1.8-2c-.1-.1-.4-.4-.6-.4h-.2s-.1-.2-.1-.3c.6-.2 1.1-.4 1.3-.5.1 0 .1.2.1.3h-.1c-.2.1-.1.3.1.4.2.2.2.2.2.3.1-.1 1-.4 1.1-.5v-.3c0-.3 0-.4-.3-.4h-.1c.1.3 0 .1 0 0m.5 1.2l-.9.4 1 1-.1-1.4zm-23.8-2.6c.2.1.6.4 1 .6 0 .1 0 .2-.1.2 0 0-.1 0-.1-.1-.1 0-.3-.1-.7.2-.4.3-2 1.4-2.1 1.5-.1 0-.4-.1-.4-.1s-.1 0 0-.1c0-.1.5-2.4.6-2.6 0-.1.1-.5-.1-.7-.1 0-.1-.1-.1-.1 0-.1.1-.2.2-.2.5.4.9.7 1.1.8 0 .1-.1.2-.1.2l-.1-.1c-.2-.1-.3.1-.3.3-.1.2-.1.2-.1.4.1.1.9.5 1 .6.1 0 .1-.1.3-.2.3-.2.3-.3.1-.4-.1-.1-.1 0-.1-.1-.2.1-.1 0 0-.1m-.7 1.1l-.8-.5-.3 1.4 1.1-.9zm29.7-.2c0 .1.1.2.1.4 0 .1 0 .3-.3.5-.1 0-.2.1-.4.2 0 0-.8-1.3-1-1.6-.3-.5-.3-.6-.1-.7l.1-.1c0-.1-.1-.2-.2-.2-.4.3-.9.6-1.3.8 0 .1.1.2.1.2.1 0 .1 0 .2-.1.3-.1.4 0 .6.4.1.2.1.2 1 1.6-.2.1-.4.2-.5.3-.3.1-.4 0-.5-.1-.1 0-.1-.1-.2-.2-.1 0-.2.1-.2.2.1.1.4.6.5.8 1.1-.6 1.7-1 2.7-1.7 0-.1-.3-.7-.3-.8-.2 0-.3 0-.3.1m-8.3 4v.4c0 .1-.1.3-.4.4-.1 0-.2.1-.4.1 0 0-.4-1.5-.4-1.9-.1-.5-.1-.6.1-.7h.1c0-.1 0-.2-.1-.3-.4.1-1 .3-1.5.3v.3h.2c.3 0 .3.1.5.6.1.3.1.2.4 1.9-.2.1-.5.1-.6.1-.3 0-.4-.2-.5-.2 0-.1-.1-.2-.1-.3-.1 0-.2 0-.3.1 0 .1.2.7.2.9 1.2-.2 1.9-.4 3.1-.7v-.9c-.1-.2-.2-.2-.3-.1m17.2-32.1c.1.3.2 1 .2 1.3.1.1.2 0 .3 0v-.2c0-.2.1-.3.6-.4.3-.1 1.4-.3 1.6-.3-.2.3-.5.6-1 1.1-.5.6-1 1.2-1.4 1.7 0 .1.1.2.1.2.2 0 1.9-.1 2.3-.2.5 0 .6 0 .7.2v.1c.1 0 .2.1.3 0 0-.3-.1-.9-.1-1.3-.1-.1-.2 0-.3 0v.2c0 .3-.1.4-.6.4-.2 0-1.2.1-1.4.1.1-.1.4-.5.9-1.1.5-.5.8-.9.9-1 .1-.1.2-.2.3-.2v-.1c0-.3-.1-.8-.2-1-.1 0-.2 0-.3.1v.2c0 .3-.2.3-.6.4-.4.1-.9.2-1.3.2-.5.1-.7 0-.7-.2v-.2c-.1-.1-.3-.1-.3 0M58.4 63.7c-.1 0-.1.2-.1.3.1 0 .1.1.2.1.3.1.2.3.1.7 0 .1-.1.3-.2.5 0 0-.4-.2-.8-.3-.4-.1-.8-.3-.8-.3.1-.2.2-.4.2-.5.2-.5.3-.6.6-.5h.1c.1 0 .1-.2.1-.3-.5-.2-1-.4-1.4-.6-.1 0-.2.2-.1.3.1 0 .1.1.1.1.2.1.2.3 0 .7l-.6 1.2c-.1.3-.3.6-.6.5 0 0-.1 0-.1-.1-.1 0-.1.2-.1.3.3.2.9.4 1.5.6.1 0 .1-.2.1-.2s-.1 0-.1-.1c-.3-.1-.2-.4-.1-.7 0-.1.1-.3.2-.4 0 0 .5.2.8.3.3.1.8.3.8.3 0 .2-.1.3-.2.5-.1.3-.2.6-.6.5h-.1c-.1.1-.1.2-.1.3.4.1 1 .3 1.5.5 0 0 .1-.2.1-.3h-.1c-.3-.1-.2-.3-.1-.7.1-.2.3-.9.4-1.3.2-.5.2-.6.5-.5h.1c.1 0 .1-.2.1-.3-.3-.3-.8-.5-1.3-.6m33.1-16.3c-.3.8-.6 1.8-.9 2.5.1.1.7.5.8.5.1 0 .2-.2.2-.3 0 0-.1-.1-.2-.1-.2-.2-.3-.4-.2-.7 0-.1.1-.2.1-.3.1-.3.2-.5.7-.3.1 0 .6.2.6.2l-.3.9c.1.1.2.1.3.1 0 0 .1-.2.3-.9.1 0 .8.3.9.3.1 0 .1.1.1.2s-.2.5-.3.8c-.1.3-.3.3-.4.3h-.3c-.1.1-.1.2-.1.3.2.1.6.2.8.3.4-1 .8-2 1-2.7 0-.1-.2-.1-.3-.1v.1c-.1.3-.4.2-.7.1-.3-.1-.8-.3-1.3-.4-.6-.2-.6-.3-.5-.6v-.1c-.1 0-.3-.1-.3-.1m-47.8 2.1c-.3-.8-.7-1.8-.9-2.5-.2 0-.8.1-.9.1-.1.1 0 .2 0 .3h.2c.3 0 .5.1.6.4 0 .1.1.2.1.3.1.4.1.5-.3.6-.1 0-.6.2-.6.2l-.3-.9c-.1 0-.2 0-.3.1 0 0 .1.2.3.9-.1 0-.8.3-.9.3-.1 0-.1 0-.2-.1s-.2-.5-.3-.8c-.1-.3.1-.4.2-.5.1-.1.2-.1.3-.2 0-.1 0-.2-.1-.3-.2.1-.6.2-.8.3.3 1 .7 2.1.9 2.7.1 0 .2 0 .3-.1v-.1c-.1-.3.1-.4.5-.5.3-.1.8-.3 1.2-.5.6-.2.7-.1.8.1l.1.1c-.1.2.1.1.1.1m4.5 7.1c-.2-.2-.6-.7-.8-1-.1 0-.2.1-.2.2 0 0 0 .1.1.1.1.2.1.3-.3.7-.3.2-1.1.9-1.3 1.1.1-.3.2-.8.3-1.5.1-.7.3-1.5.4-2.1-.1-.1-.2-.1-.3-.1-.1.1-1.6 1.1-1.9 1.3-.5.3-.5.3-.7.1l-.1-.1c-.1 0-.2.1-.2.1.2.3.5.7.8 1.1.1 0 .2-.1.2-.2l-.1-.1c-.2-.3-.1-.4.3-.7.2-.1 1-.6 1.2-.8 0 .2-.1.6-.2 1.4-.1.7-.3 1.2-.3 1.4 0 .2-.1.3-.1.3l.1.1c.2.2.5.6.6.8.1 0 .2-.1.2-.2s-.1-.1-.1-.1c-.2-.3 0-.4.3-.6.3-.2.7-.6 1-.9.4-.3.6-.4.7-.2l.1.1c.2 0 .3 0 .3-.2m-5.8-11.3c-.1-.3-.2-1-.2-1.3-.1-.1-.2 0-.3 0v.2c0 .2-.1.3-.6.4-.3.1-1.4.3-1.6.3.2-.3.5-.6 1-1.1.5-.6 1-1.2 1.4-1.7 0-.1-.1-.2-.1-.2-.2 0-1.9.1-2.3.2-.5 0-.6 0-.7-.2v-.1c-.1 0-.2-.1-.3 0 0 .3.1.9.1 1.3.1.1.2 0 .3 0v-.2c0-.3.1-.4.6-.4.2 0 1.2-.1 1.4-.1-.1.1-.4.5-.9 1.1-.5.5-.8.9-.9 1-.1.1-.2.2-.3.2v.1c0 .3.1.8.2 1 .1 0 .2 0 .3-.1v-.2c0-.3.2-.3.6-.4.4-.1.9-.2 1.3-.3.5-.1.7 0 .7.2v.2c.1.2.2.2.3.1m7.3 13.3l.1.1c.2.2.3.4 0 .7l-.4.4c-.3-.3-.4-.4-.7-.6-.1 0-.2.1-.2.2.3.2.4.4.7.6-.1.1-.6.7-.7.8-.1.1-.1.1-.2 0s-.3-.2-.5-.5c-.3-.4 0-.9.1-1.1 0-.1-.1-.2-.3-.2-.2.2-.5.7-.7.9.9.9 1.4 1.3 2.1 1.9.1 0 .2-.1.2-.2l-.1-.1c-.2-.2-.1-.4.2-.7.2-.2.5-.6.9-1 .4-.5.5-.4.7-.3l.1.1c.1 0 .2-.1.2-.2-.4-.3-.9-.7-1.2-1.1-.2.1-.3.2-.3.3m47-29.8c.7-.1 1.2-.2 1.6-.3.1-.2 0-.4-.1-.4h-.4c-.1 0-.5 0-.7-.2-.2-.2-.4-.5-.4-.7-.1-.2-.2-.4-.2-.5-.1-.4 0-.5.7-.8.6-.3 1.2-.6 1.9-.9.4-.2.9-.5 1.2 0 0 0 0 .1.1.2.2 0 .4-.1.4-.2-.2-.6-.6-1.4-1.1-2.2-.1 0-.3.1-.4.2 0 .1 0 .1.1.2.2.5-.3.7-.7.9-.3.2-1.4.7-1.9.9-.8.4-.9.4-1.2 0 0 0-.1-.1-.1-.2-.1 0-.3.1-.4.2.3.7 1.1 2.3 1.6 3.8m1.8 7.5c.7.1 1.2.1 1.6.1.2-.2.1-.4 0-.4s-.3 0-.4-.1c-.1 0-.4-.2-.6-.4-.2-.2-.2-.5-.3-.8 0-.2-.1-.5-.1-.5 0-.5.1-.5.9-.6.6-.1 1.4-.3 2.1-.4.5-.1 1-.2 1.1.3 0 0 0 .1.1.2s.4 0 .4-.1c-.1-.6-.3-1.5-.5-2.4-.1-.1-.3 0-.4.1v.2c.1.6-.5.6-.9.7-.4.1-1.5.3-2.1.4-.8.2-1 .1-1.1-.3 0-.1 0-.1-.1-.2-.1 0-.3 0-.4.1.2.7.5 2.5.7 4.1m-9.4-20.2c.1-.1.1-.1.3-.4.3-.3.4-.3.6-.2.1 0 .1.1.2.1s.3-.2.3-.4c-.5-.3-1.2-.9-1.8-1.5-.2 0-.3.2-.3.3l.3.3c.3.3.2.3 0 .7-.1.2-.2.2-.3.3-.2.2-.4.3-.7 0-.1-.1-.2-.1-.4-.3-.3-.3-1.2-1.2-.2-2.8 1.1-1.6 2.5-1.1 3-.7.4.4.6.7.6 1.1 0 .4-.2.7-.2.9 0 .1.2.2.4.2.3-.4.6-.8.8-1.2-.1-.2-.4-.6-1.3-1.4-.8-.6-1.8-1.1-3-.7-.9.3-1.6 1.2-1.7 2.3-.1 1.3.6 2 1.2 2.5.7.6 1.3.9 1.7 1.1.3.1.4-.1.5-.2M69.9 72c.7 1.6.9 1.7 1.4 3 .2.4.3.6-.1.7H71c-.1.1 0 .4.1.4l2.4-.3c.1-.1 0-.4-.1-.4h-.3c-.4 0-.5-.2-.8-.7-.2-.3-1.8-3.8-1.8-3.9 0-.1-.1-.1-.2-.1 0 0-.5.2-.7.3-.4 1.3-1 3.2-1.3 3.9-.3.7-.4.9-.7.9h-.3c-.1.1-.1.4 0 .4.6 0 1.5 0 2-.1.1-.1.1-.4 0-.4h-.2c-.3 0-.4-.1-.3-.7.4-.7.8-2 1.1-3M50.5 12.1C49.2 11 49 10.9 47.9 10c-.4-.3-.5-.4-.2-.7.1-.1.1-.1.2-.1 0-.1-.1-.3-.2-.4-.7.4-1.3.9-2 1.4 0 .2.1.3.2.3s.1-.1.2-.1c.4-.2.6-.1 1 .3.3.2 3.3 2.6 3.4 2.6.1.1.2 0 .2 0s.4-.4.5-.6c-.3-1.3-.5-3.3-.6-4.1-.1-.8 0-1 .2-1.1.1-.1.2-.1.2-.1 0-.1-.1-.4-.2-.4-.5.3-1.3.7-1.8 1-.1.1.1.4.2.4s.1-.1.2-.1c.3-.1.4-.1.6.5.2 1 .3 2.3.5 3.3m49 29.6c1.7-.5 1.9-.6 3.2-1 .5-.1.7-.2.7.2v.2c.1.1.3.1.4 0v-2.5c-.1-.1-.3-.1-.4 0v.3c-.1.4-.3.5-.8.7-.3.1-4 1.3-4.1 1.3-.1 0-.1.1-.1.2 0 0 .2.5.2.8 1.2.5 3 1.4 3.7 1.8.7.3.8.5.8.8v.3c.1.1.3.2.4.1.1-.6.2-1.4.2-2-.1-.1-.3-.1-.4-.1v.2c-.1.3-.1.4-.7.2-1-.5-2.2-1.1-3.1-1.5M60.1 70.5c-.3.6-.5 1.1-.6 1.4.1.2.3.2.4.2 0-.1.1-.3.2-.4.1-.1.3-.4.5-.4.2-.1.6 0 .8 0 .2 0 .5.1.5.1.4.1.4.3.3 1.1-.1.6-.2 1.4-.3 2.1-.1.5-.1 1-.7 1H61c-.1.1-.1.3 0 .4.6.1 1.5.2 2.5.3.1-.1.1-.3 0-.4h-.2c-.6-.1-.4-.7-.3-1.1 0-.4.2-1.5.3-2.1.1-.9.2-1 .6-1h.2c.1-.1.1-.3 0-.4-.6-.2-2.4-.5-4-.8m37.8-22c.1-.4.6-.3 1.1-.1.5.2 1.9.7 2.5.9-.4 0-2.3.2-3 .3-.8.1-1.3.1-1.5.1-.1.1-.1.2-.1.3.2.2.5.4 1.1 1l2.2 2.2c-.4-.1-2-.6-2.7-.9-.8-.3-.7-.4-.7-.7 0 0 0-.1.1-.2-.1-.1-.3-.2-.4-.2-.2.6-.4 1-.9 2.1 0 .1.3.2.4.2.1-.1.1-.1.1-.3.2-.3.5-.2 1.2 0 .6.2 1.6.5 2.3.8.6.2.6.4.5.7 0 .1 0 .1-.1.2 0 .2.3.2.4.2.3-.6.6-1.3.8-1.8-.3-.2-.6-.5-.9-.7-.1-.1-1.8-1.7-2.1-2.1.7-.1 2.4-.3 3-.4.5-.1.8 0 1 .1.2-.7.3-1.2.5-1.9-.1-.1-.3-.2-.4-.1 0 .1 0 .1-.1.2-.2.6-.6.4-1.1.2-.3-.1-1.7-.7-2.2-.9-.8-.4-.7-.5-.7-.8v-.2c-.1-.2-.3-.2-.4-.1-.2.7-.3 1.1-.5 1.9.1.2.3.2.4.1l.2-.1zm-41-38.9c-.4.1-.6-.3-.7-.9-.1-.5-.5-1.9-.7-2.6.2.3 1.4 1.8 1.9 2.3.5.6.8 1 .9 1.2.1 0 .2 0 .3-.1 0-.3.1-.6.2-1.5.2-.9.4-2.5.5-3.1.1.4.6 2 .8 2.7.2.8.1.8-.2.9 0 0-.1 0-.2.1s0 .3.1.4c.7-.2 1-.2 2.2-.4.1-.1 0-.3-.1-.4h-.3c-.3 0-.5-.3-.7-1 .1-.4-.2-1.5-.4-2.2-.2-.6 0-.7.3-.8.1 0 .1 0 .2-.1s0-.4-.1-.4c-.6.1-1.4.3-1.9.4 0 .4 0 .8-.1 1.1 0 .1-.4 2.4-.5 2.9-.5-.5-1.6-1.8-2-2.3-.4-.3-.5-.6-.5-.8-.7.2-1.2.4-1.9.7-.1.1 0 .3.1.3s.1 0 .2-.1c.5-.2.7.3.8.8.1.3.4 1.8.5 2.3.1.8 0 .9-.3 1.1-.1 0-.1 0-.2.1-.1.2 0 .4.2.4.7-.3 1.1-.4 1.9-.7.1-.1 0-.4-.1-.4l-.2.1zM68 5.7c0-.5-.4-.8-.8-.8-.5 0-.8.4-.8.8 0 .5.4.8.8.8.5 0 .8-.4.8-.8M56 73.1c-.1.1-.2.3-.4.4-.2.1-.4.2-.9.1-.1 0-.3-.1-.6-.3 0 0 .9-2.3 1.1-2.8.3-.8.4-.9.9-.8.1 0 .1 0 .2.1.1-.1.2-.3.1-.4-.7-.3-1.6-.6-2.3-.9-.1.1-.2.3-.2.4.1 0 .2.1.2.1.4.3.3.5.1 1.2-.2.4-.1.4-1.2 2.8-.4-.2-.7-.3-.9-.4-.4-.2-.4-.6-.4-.7 0-.1 0-.3.1-.4-.1-.1-.3-.2-.4-.2-.1.2-.4 1.1-.5 1.4 1.9.9 2.9 1.3 4.7 1.9.1-.1.7-1.1.8-1.2 0-.2-.2-.3-.4-.3m-14.1-8.9c-.1.1-.3.2-.6.2-.2 0-.5 0-.8-.4-.1-.1-.2-.3-.4-.5 0 0 1.9-1.6 2.3-2 .7-.6.8-.6 1.1-.3l.2.2c.1 0 .3-.2.3-.3-.5-.5-1.1-1.3-1.6-1.9-.1 0-.3.2-.4.3.1.1.1.2.1.2.2.4.1.6-.5 1.1-.3.3-.3.3-2.4 2-.2-.3-.5-.6-.6-.7-.3-.4-.1-.7 0-.8l.3-.3c0-.2-.2-.3-.3-.3-.2.1-.9.8-1.1 1 1.3 1.7 2 2.5 3.3 3.9.1 0 1.1-.6 1.2-.7.1-.5 0-.7-.1-.7m48.8-2.8l.2-.2c.3-.3.6-.4 1.1 0 .1.1.5.5.7.6-.4.5-.6.7-1 1.1.1.2.2.3.4.4.4-.4.6-.6 1-1.1.1.1 1.1 1 1.2 1.1.1.1.2.2 0 .4s-.4.4-.7.8c-.6.6-1.4 0-1.7-.2-.2.1-.3.2-.3.4.4.3 1.1.8 1.4 1.1 1.4-1.4 2.1-2.3 3-3.3 0-.1-.2-.3-.3-.3l-.1.1c-.4.4-.7.1-1.1-.3-.3-.3-1-.8-1.6-1.4-.7-.6-.7-.8-.5-1.1 0-.1 0-.1.1-.1-.1-.1-.2-.3-.3-.3-.6.7-1.1 1.4-1.7 2-.1.1.1.3.2.3M79.5 10.8c.7.3 1.4.6 2.3 1.1.1 0 .2-.3.2-.4-.1-.1-.2-.1-.2-.1-.4-.3-.3-.5 0-1.2.2-.4.6-1.2.9-1.9.2-.5.5-.9 1-.7 0 0 .1 0 .2.1.1 0 .3-.3.2-.4-.6-.3-1.5-.8-2.4-1.1-.1 0-.2.3-.2.4.1 0 .1.1.2.1.5.3.2.7 0 1.2-.2.4-.6 1.4-.9 1.9-.4.8-.5.9-.9.7-.1 0-.2-.1-.3-.1 0 0-.1.3-.1.4M39.9 55.5c-.4-.6-.7-1.4-1.2-2.2-.1 0-.4.1-.4.2s.1.2.1.3c.1.4 0 .6-.7.9-.4.2-1.2.6-1.9 1-.5.2-.9.4-1.2 0 0 0-.1-.1-.1-.2-.1 0-.4.1-.4.2.3.6.8 1.5 1.2 2.4.1 0 .3-.1.4-.2 0-.1-.1-.1-.1-.2-.2-.5.3-.7.7-.9.4-.2 1.3-.7 1.9-1 .8-.4.9-.4 1.2 0 0 .1.1.1.2.2.1-.3.3-.4.3-.5m-3.1-33.3c-.1-.1-.3-.3-.3-.5-.1-.2-.1-.5.1-.9.1-.1.2-.3.4-.6 0 0 2.1 1.3 2.6 1.7.7.5.8.6.6 1 0 .1-.1.1-.1.2s.3.2.4.2c.4-.6.9-1.4 1.4-2 0-.1-.2-.3-.4-.3l-.2.2c-.3.3-.5.2-1.2-.2-.4-.2-.3-.2-2.5-1.7.2-.3.4-.6.5-.8.3-.4.7-.2.8-.2.1 0 .3.1.4.2.2 0 .3-.3.2-.4-.2-.1-1-.6-1.2-.8-1.3 1.7-1.9 2.7-2.9 4.3l1 1c.2 0 .3-.2.4-.4m7.7-4.2c.5-.5 1.1-1.1 1.8-1.7 0-.1-.2-.3-.3-.3 0 0-.1 0-.2.1-.4.3-.6.1-1.1-.4-.3-.3-.9-1-1.4-1.5-.4-.4-.7-.7-.3-1.2l.2-.2c0-.1-.2-.3-.3-.3-.5.5-1.3 1.2-1.9 1.8 0 .1.2.3.3.3l.2-.2c.4-.4.8.1 1.1.4l1.5 1.5c.6.7.6.8.4 1.1 0 .1-.1.1-.2.2-.1.2.1.4.2.4m46.9 1.6c.5.6 1 1.2 1.5 2 .1 0 .4-.2.4-.3-.1-.1-.1-.2-.2-.2-.2-.4-.1-.6.5-1 .4-.3 1.1-.8 1.7-1.3.4-.3.8-.6 1.2-.2l.2.2c.1 0 .4-.1.4-.3-.4-.6-1-1.4-1.6-2.1-.1 0-.3.2-.3.3 0 .1.1.1.1.2.3.5-.2.8-.5 1-.3.3-1.2.9-1.7 1.3-.7.6-.8.5-1.2.2l-.2-.2c-.1.1-.3.3-.3.4M77.6 69.3c-.8.3-1.6.7-1.8.8.1.5.2.9.3 1.4.1.1.4 0 .5-.1 0-.2-.1-.5.1-.8.2-.4.6-.7 1.1-.8.4-.1 1.8-.4 2.4 1.4.7 1.8-.5 2.7-1.1 2.9-.6.2-1.1 0-1.3-.1-.3-.2-.4-.5-.5-.6-.1 0-.4.1-.4.2.2.4.4.9.6 1.3.2 0 1.2-.1 2-.3.9-.3 1.8-.9 2.1-2 .2-.9-.1-2-.9-2.7-1.2-.9-2.3-.8-3.1-.6m-5-60.7s.5.4 1.6.7c1.1.3 2-.2 2.2-1.1.2-1-.5-1.5-1.1-2-.7-.5-1-.8-.9-1.2 0-.3.3-.8 1.2-.5.9.3.8 1.1.8 1.2.2.1.3.2.5.1.1-.4.1-1.1.1-1.3-.2-.1-.6-.3-1.4-.5-1.7-.4-2.2.7-2.2 1.3 0 .5.2.9 1.1 1.6.7.5 1 .9.8 1.4-.1.3-.5.6-1.1.5-1-.2-.9-.9-.9-1.5-.1-.1-.4-.1-.5-.1 0 .3-.1.9-.2 1.4M37.2 49.7s.1-.6-.2-1.7c-.3-1.1-1.2-1.7-2-1.4-1 .3-1.1 1.1-1.2 1.9-.1.8-.2 1.2-.6 1.3-.3.1-.8.1-1-.8-.2-.9.6-1.2.7-1.3 0-.2 0-.3-.2-.4-.3.1-1 .3-1.1.4 0 .3 0 .7.2 1.5.4 1.7 1.6 1.6 2.2 1.3.4-.2.7-.6.9-1.8.1-.8.3-1.3.8-1.4.4-.1.8.1 1 .8.3 1-.4 1.3-.9 1.5 0 .2.1.4.2.5.2 0 .7-.2 1.2-.4m12.2 16.1c.2.1 1 .7 1.6 1 .1.1-.1.3-.2.4 0 0-.1-.1-.2-.1-.2-.1-.4-.1-1.1.3-.7.4-3.3 2-3.5 2.2-.1 0-.7-.2-.8-.3 0 0-.1 0-.1-.1s1.1-3.8 1.2-4.1c.1-.2.3-.8 0-1.1l-.2-.2c0-.1.1-.3.3-.3.8.7 1.5 1.2 1.7 1.4 0 .1-.1.3-.3.3 0 0-.1 0-.1-.1-.3-.2-.5.1-.6.4-.1.4-.1.4-.2.5.2.1 1.4 1 1.6 1.2.1-.1.2-.1.4-.3.5-.3.5-.4.2-.7l-.1-.1c.2-.1.2-.3.4-.3m-1.2 1.6l-1.3-1-.6 2.1v.1h.1l1.8-1.2zM35.8 38.3v1.9c-.1.1-.3.1-.4 0V40c-.1-.2-.1-.4-.9-.7-.7-.4-3.5-1.7-3.7-1.8 0-.1-.2-.8-.2-.8s0-.1.1-.1 3.8-1 4.2-1.1c.2-.1.9-.2 1-.6 0-.1 0-.1.1-.3.1 0 .3-.1.4.1-.2 1-.3 1.9-.3 2.2-.1.1-.3.1-.4 0v-.2c0-.4-.3-.4-.7-.3-.4.1-.4.1-.5.1 0 .2-.1 1.7-.2 2 .1.1.2.1.5.2.5.2.6.2.7-.2v-.2c-.1-.1.2-.2.3 0m-2.1-.2l.1-1.7-2.2.6 2.1 1.1zm52.2 27c.2-.1 1-.7 1.5-1.1.1 0 .3.2.3.3l-.2.2c-.2.2-.2.3 0 1.1s.9 3.8.9 4c-.1.1-.5.6-.5.7 0 0-.1.1-.1 0-.1-.1-3.2-2.3-3.5-2.5-.2-.1-.7-.6-1.1-.4-.1 0-.1.1-.3.1-.1 0-.3-.2-.2-.4.9-.5 1.6-1 1.9-1.2.1 0 .3.2.2.4 0 0-.1 0-.1.1-.3.3-.1.4.2.7.3.2.3.2.5.3.2-.1 1.4-1 1.6-1.1 0-.1-.1-.2-.1-.5-.1-.5-.2-.6-.6-.5-.1.1-.1.1-.2.1 0 0-.2-.1-.2-.3m1.2 1.7l-1.4 1 1.8 1.3h.1V69l-.5-2.2zM32.9 28.4c0-.1 0-.1.1-.3 0-.1.1-.3.2-.5s.3-.5.5-.6c.3-.1.6-.1.8 0 .2.1.4.1.6.4.2.3.2.7.1.9l.2.2c.4-.2 2.5-.9 2.8-1 .2-.6.5-1.2.6-1.3-.1-.1-.3-.2-.4-.2-.1.1-.1.2-.1.2-.2.3-.4.4-.9.6-.5.2-1.2.4-1.7.5 0-.6-.1-1.2-.8-1.5-1.1-.5-1.6.3-1.9.9-.1.2-.2.5-.3.7-.1.2-.3.9-.7 2.3.1.1.3.2.4.1 0-.1 0-.1.1-.2.2-.4.3-.4 1.1-.2.4.1 1.5.5 2 .6.8.3.9.4.9.8v.2c.1.1.3.1.4.1.2-.7.5-1.6.7-2.3-.1-.1-.3-.2-.4-.2 0 .1-.1.2-.1.3-.2.4-.4.4-1.2.2-.4.2-2-.4-3-.7m57.6-5.3c0-.1-.1-.1-.2-.1h-.4c-.5.1-1.8.2-2.1.2-.2 0-.5-.1-.8-.2l.3-.3.3-.3c.1-.2 0-.3-.1-.3s-.6.2-1 .4c-.3.2-.7.4-1 .5-.3.1-.8.2-2.4-.1-1.6-.3-2.5-.4-4.1-.4-.6 0-1.1-.1-1.6-.2-1.1-.2-3-.6-4.3-.9-1.3-.3-1.8-.3-3.1-.3-.9 0-1.9-.1-1.9-1.3.3-.2 1-.5 1.2-.8.2-.2.3-.3.4-.5.1-.2.2-.4.2-.7 0-.7 0-2.1-.2-2.8-.2-.8-.8-1.5-1.2-1.8-.4-.3-1.1-.4-1.5-.5-.5-.1-.9 0-1.4.3-.3.1-.8.6-1.2 1.2-.1.2-.3.6-.3.8-.2 1-.3 1.2-.4 1.9-.1.6-.1.9.1 1.2.1.1.1.3.2.4.1.3.3.5.6.6.1.1.3.2.7.5.1 1.5-.9 1.5-2.2 1.4-1.2 0-1.5-.1-2.7.3-1.1.3-3.1.7-4.1.9-.8.2-1.2.3-2.2.2-1.4-.1-2.2 0-4.6.4-1 .2-1.3.2-1.5.1-.7-.3-1.4-.7-1.8-1-.1-.1-.2-.1-.2 0-.1.4.3.8.6.9 0 0-.3.1-.4.1-.1 0-.3.1-.4.1-.3 0-1.3-.2-2.1-.3-.2 0-.4 0-.4.2v.2c.1.1.1 0 .2.2 0 .2.1.3.3.4.3.2.5.3.7.5.5.3.9.4 1.5.4.6-.1 1.8-.2 2.3-.3.4-.1 1.2 0 2 .1 1.1.1 1.5.2 2.3.2.9.1 1.6.1 2.1 0 .6-.1 1.2-.1 1.7-.1 1.4.1 2.1 0 4.1-.4 1-.2 1.5.7 1.5 1.6 2.8.2 4.9.7 5.2 2.2.2-1.1 1.7-1.9 4.2-2.1 0-1.6.6-1.8 1.6-1.7 2.2.3 3.3.4 4 .4.9 0 1.3 0 2.2.2.8.1 1.2.1 2.4 0 .8-.1 1.8-.2 2.6-.2.6-.1 1.2-.1 1.4-.1.5.1 1.4.2 2 .2.7.1 1 0 1.5-.3.3-.2.6-.4.8-.6.1-.1.2-.2.2-.4.4-.1.4-.1.5-.2-.1.1 0 .1-.1 0M71.8 59.6c-.6-1-.8-1.7-.8-2.4 0-.8 0-1.7.2-2.7.2-1.3.4-2.7.5-3.8-.5-.2-1.1-.4-1.6-.4s-1.2.2-1.7.6c.2 1.6.4 2.9.6 3.9.1.8.2 1.4.2 1.8 0 .5-.2.9-.2 1.3 0 .6 0 .9.4 1.5.4.7.6 1.2.8 1.7.1.2.2.4.4.7.3.3.5.3.9.2.3-.2.6-.3.8-.6.1-.7-.1-1.1-.5-1.8m-6.9-9.3c-.4 0-1 .1-1.3.2.1.9.2 1.7.3 2.5.2 1.3.4 2.5.5 3.1 0 .3 0 .5-.1.8-.2.4-1.1 1.4-1.7 2.1-.1.2-.2.2-.4.3-.4.3-.5.4-.5.6 0 .2.1.4.3.5.2.2.5.4.8.5.3.1.5.1.9-.1s.6-.4.9-.9c.4-.6.8-.9 1.1-1 .2 0 .5-.2.7-.5.1-.2.2-.6.1-1.1 0-.4-.1-.9-.2-1.3-.1-1.2-.1-1.7.1-3.1.1-.5.2-1.3.2-2.1-.4-.3-1.1-.5-1.7-.5m20.4-19.8c-.4 7.2-.6 13.8-.6 20.7-3.4.8-8.8-.9-11.5-1.6-1.1-.3-2.5-.8-4.3-.3 1.4-.5 2.9-.6 6.1-.2 3.1.4 6.6 1.1 8.2.6v-1.4c-2.3.7-7-.1-10.7-.3-1.9-.1-3.4.1-4.8 1.3-.1-6.2-.2-18.6-.1-20.5.1-1.3 1.5-1.9 3.8-1.9 3.8 0 6.6 1.5 12.8 1-.1.9-.1 1.8-.2 2.8.4-.1.9-.1 1.3-.2m-7.1 1.7h.4c.2 0 .3-.1.3-.3 0-.2-.1-.3-.3-.3h-.5v-.4c0-.6.2-1.1.6-1.3.2-.1.2-.4-.1-.4-.4 0-1.1.5-1.1 1.7v.4l-3.8-.1v-.4c0-1.2-.5-1.7-1-1.7-.3 0-.3.3-.1.4.4.2.5.7.5 1.3v.4h-.5c-.2 0-.3.1-.3.3 0 .2.1.3.3.3h.4c-.5 1.6-1.9 3.2-2 5.7-.1 1.5.5 2.7 1 3.6.8 1.4 1.1 2.7 1.3 4.7l3.7.1c.3-2 .7-3.2 1.6-4.6.6-.9 1.2-2 1.2-3.5.1-2.6-1.2-4.3-1.6-5.9m-2.8-.1h-.6l-.3 7.4h.6l.3-7.4zm.1 7.3h.6l.3-7.3h-.6l-.3 7.3zm-1.7.1h.3l.3-7.4h-.8c-.3 1.9-1.3 3.4-1.4 5.5-.1 1.7.7 2.6 1.1 2.6.4 0 .5-.2.5-.7m4.8-1.7c.1-2.1-.8-3.7-1-5.6h-.8l-.3 7.4c.1 0 .2 0 .3.1 0 .5.1.7.5.7.4-.1 1.2-.9 1.3-2.6m-2.5 6l-.4.3h-1.3l-.3-.3h-.3l.1.9 2.2.1.2-.9-.2-.1zm-9.4-15c.1 2.4-.1 14.7-.3 20.3-1.4-1.1-4.1-1.4-7.5-1.1-4.2.4-5.3.6-7.7.3v1.3c2.7.7 5.8-.1 8.3-.5 2.1-.4 3.9-.4 5.3.2-1.6-.1-3.7.5-5.2.9-3.3.9-6.8 1.4-10 .6.2-7.3.1-12.7-.3-20.3.5.1 1 .1 1.6 0-.1-1.1-.2-2.2-.3-3.4 5.4.4 6.8-.7 12-.5 2.7.2 4 .8 4.1 2.2m-2.4 11.9c.3-.2.5-.6.5-.9 0-.1 0-.3-.1-.3h-.3c-1.2 0-3-.1-4.9-.2-.1-1.5-.1-3-.2-4.5 1.1-.7 2.2-1.3 3.2-1.8.2-.1.4-.3.6-.5.2-.2.3-.5.3-.7 0-.2-.1-.3-.5-.1-1 .4-2.2 1.1-3.6 1.8v-3-.3c-.1-.2-.2-.2-.4-.2-.5 0-1.2.4-1.2 1.1 0 .9 0 2.1.1 3.4-1.3.8-2.7 1.7-3.7 2.6-1 .9-1.6 1.7-1.6 2.4 0 .3.1.5.2.6.2.2.4.2.8.3 1.4.2 3.1.4 4.8.5.2 1.9.4 3.8.5 5.2v.3c0 .1.1.2.2.2.3 0 .6-.3.8-.7.1-.2.1-.5.1-.8-.1-1.1-.2-2.5-.3-4.1 1.6.1 3 .1 4.1.1.3-.3.5-.3.6-.4m-9.7-2.1c0-.2.2-.5.6-.9.6-.6 1.6-1.4 2.7-2.1.1 1.1.2 2.3.3 3.5-1.5-.1-2.8-.3-3.6-.5" fill="#fff"/></g></svg>