<?xml version="1.0" encoding="utf-8"?>
<!-- Generator: Adobe Illustrator 19.2.1, SVG Export Plug-In . SVG Version: 6.00 Build 0)  -->
<svg version="1.1" xmlns="http://www.w3.org/2000/svg" xmlns:xlink="http://www.w3.org/1999/xlink" x="0px" y="0px"
	 viewBox="0 0 109 148" style="enable-background:new 0 0 109 148;" xml:space="preserve">
<style type="text/css">
	.st0{fill:#66609E;}
	.st1{fill:#FFFFFF;}
	.st2{fill:#2A216A;}
	.st3{fill:#E13718;}
	.st4{fill:#365AA5;}
	.st5{fill:#999632;}
	.st6{fill:#46743C;}
	.st7{fill:#901A1E;}
</style>
<g id="TEO">
</g>
<g id="SUND">
</g>
<g id="SAMF">
</g>
<g id="HUM">
	<g>
		<path class="st4" d="M107,39.8c0,21.9-17.8,39.8-39.7,39.8c-22,0-39.7-17.8-39.7-39.8C27.6,17.8,45.3,0,67.3,0
			C89.2,0,107,17.8,107,39.8"/>
		<path class="st4" d="M37.7,97.8c0,10.4-8.4,18.8-18.8,18.8C8.5,116.6,0,108.2,0,97.8c0-10.4,8.5-18.8,18.9-18.8
			C29.3,78.9,37.7,87.4,37.7,97.8"/>
		<path class="st4" d="M77.1,138.2c0,5.4-4.4,9.8-9.8,9.8c-5.4,0-9.8-4.4-9.8-9.8c0-5.4,4.4-9.8,9.8-9.8
			C72.7,128.3,77.1,132.7,77.1,138.2"/>
		<g>
			<path class="st1" d="M84.4,58.5c0.1,0,0.2,0.1,0.2,0.2c0,0-0.1,0.1-0.1,0.1c-0.2,0.2-0.2,0.3,0.2,0.7c0.2,0.3,0.7,0.8,0.9,1
				c0.2,0.2,0.4,0.5,0.7,0.3c0.1,0,0.1-0.1,0.1-0.1c0.1,0,0.2,0.1,0.2,0.2c-0.4,0.4-0.9,0.8-1.2,1.1c-0.1,0-0.2-0.1-0.2-0.2
				c0.1,0,0.1-0.1,0.1-0.1c0.2-0.2,0.1-0.5-0.1-0.7c-0.3-0.4-0.7-0.8-0.9-1c-0.3-0.4-0.4-0.4-0.7-0.3c0,0-0.1,0.1-0.1,0.1
				c-0.1,0-0.2-0.1-0.2-0.2C83.7,59.2,84.1,58.8,84.4,58.5 M69.9,65.1c-0.4,0-0.9,0.1-1.6,0.1c-0.1,0.1,0,0.2,0,0.3
				c0.1,0,0.1,0,0.2,0c0.3,0,0.3,0.2,0.4,0.6c0,0.3,0.1,0.8,0.1,1.3c0,0.3,0,0.6-0.3,0.7c0,0-0.1,0-0.1,0c-0.1,0.1-0.1,0.2,0,0.3
				c0.4,0,1-0.1,1.6-0.1c0-0.1,0-0.2,0-0.3c-0.1,0-0.1,0-0.2,0c-0.4,0-0.3-0.3-0.4-0.6c0-0.3-0.1-0.9-0.1-1.3
				c-0.1-0.6,0-0.6,0.3-0.7c0,0,0.1,0,0.2,0C70,65.3,70,65.1,69.9,65.1 M45.1,52.3c-0.2-0.4-0.5-0.8-0.7-1.4c-0.1,0-0.2,0.1-0.3,0.1
				c0,0.1,0.1,0.1,0.1,0.2c0.1,0.3,0,0.4-0.4,0.6c-0.2,0.1-0.7,0.4-1.2,0.6c-0.3,0.2-0.6,0.3-0.7,0c0,0,0-0.1-0.1-0.1
				c-0.1,0-0.2,0-0.2,0.1c0.2,0.4,0.5,0.9,0.8,1.4c0.1,0,0.2-0.1,0.2-0.1c0,0,0-0.1-0.1-0.1c-0.1-0.3,0.2-0.5,0.4-0.6
				c0.2-0.1,0.8-0.5,1.2-0.6c0.5-0.3,0.6-0.2,0.8,0c0,0,0.1,0.1,0.1,0.1C44.9,52.4,45,52.4,45.1,52.3 M42.1,36.1
				c0.1-0.4,0.1-0.9,0.3-1.5c0-0.1-0.2-0.1-0.3-0.1c0,0.1,0,0.1,0,0.2c-0.1,0.3-0.2,0.3-0.7,0.2c-0.3,0-0.8-0.2-1.3-0.2
				c-0.3-0.1-0.6-0.1-0.6-0.5c0,0,0-0.1,0-0.1c0-0.1-0.2-0.1-0.3-0.1c-0.1,0.4-0.2,1-0.3,1.6c0,0.1,0.2,0.1,0.3,0c0,0,0-0.1,0-0.1
				c0.1-0.3,0.4-0.2,0.7-0.2c0.3,0,0.9,0.2,1.3,0.2c0.6,0.1,0.6,0.2,0.6,0.4c0,0,0,0.1,0,0.2C41.8,36.1,42,36.1,42.1,36.1
				 M92.7,39.7c0,0.4,0,1,0,1.6c0.1,0.1,0.2,0.1,0.3,0c0-0.1,0-0.1,0-0.2c0.1-0.3,0.2-0.3,0.7-0.3c0.3,0,0.8,0,1.3,0.1
				c0.3,0,0.6,0,0.6,0.4c0,0,0,0.1,0,0.1c0,0.1,0.2,0.1,0.3,0c0-0.4,0-1,0-1.6c0-0.1-0.2-0.1-0.3,0c0,0.1,0,0.1,0,0.2
				c0,0.4-0.4,0.3-0.7,0.3c-0.3,0-0.9,0-1.3,0c-0.6,0-0.6-0.1-0.7-0.4c0,0,0-0.1,0-0.2C92.9,39.7,92.7,39.7,92.7,39.7 M87.1,55.8
				c0,0-0.4,0.1-0.9,0.6c-0.5,0.5-0.5,1.2,0,1.5c0.5,0.4,1,0.2,1.4,0c0.5-0.2,0.7-0.3,0.9-0.1c0.1,0.1,0.3,0.4,0,0.8
				c-0.4,0.4-0.8,0.1-0.9,0.1c-0.1,0-0.2,0.1-0.2,0.2c0.1,0.1,0.5,0.4,0.6,0.4c0.1-0.1,0.4-0.3,0.7-0.6c0.7-0.8,0.2-1.4-0.1-1.6
				c-0.3-0.2-0.5-0.2-1.2,0.1c-0.5,0.2-0.8,0.3-1,0c-0.2-0.2-0.2-0.4,0.1-0.7c0.4-0.5,0.8-0.2,1.1-0.1c0.1,0,0.2-0.2,0.2-0.3
				C87.7,56.1,87.5,55.9,87.1,55.8 M66.5,65.3c0,0-0.3-0.2-1-0.3c-0.7,0-1.2,0.3-1.2,0.9c0,0.6,0.4,0.9,0.9,1.1
				c0.5,0.2,0.7,0.4,0.7,0.6c0,0.2-0.1,0.5-0.6,0.5c-0.6-0.1-0.6-0.6-0.6-0.6c-0.1-0.1-0.2-0.1-0.3,0c0,0.2,0,0.7,0,0.8
				c0.2,0,0.4,0.1,0.9,0.2c1.1,0.1,1.2-0.7,1.2-1c0-0.3-0.2-0.5-0.9-0.9c-0.5-0.2-0.7-0.4-0.6-0.8c0-0.2,0.2-0.4,0.6-0.4
				c0.6,0,0.7,0.5,0.8,0.8c0.1,0,0.2,0,0.3,0C66.6,66,66.6,65.7,66.5,65.3 M41.7,40c0,0,0.2-0.3,0.3-1c0-0.7-0.4-1.2-1-1.2
				c-0.6,0-0.9,0.5-1.1,0.9c-0.2,0.5-0.4,0.7-0.6,0.7c-0.2,0-0.5-0.1-0.5-0.6c0-0.6,0.6-0.6,0.6-0.6c0.1-0.1,0.1-0.2,0-0.3
				c-0.2,0-0.7,0-0.8,0.1c0,0.2-0.1,0.4-0.1,1c0,1.1,0.7,1.2,1.1,1.1c0.3-0.1,0.5-0.2,0.9-0.9c0.2-0.5,0.4-0.7,0.7-0.7
				c0.2,0,0.4,0.2,0.4,0.6c0,0.6-0.5,0.7-0.8,0.8c0,0.1,0,0.2,0,0.3C41.1,40.1,41.3,40.1,41.7,40 M42.7,32.7c0,0,0.3-0.3,0.5-0.9
				c0.2-0.7-0.1-1.3-0.6-1.4c-0.6-0.2-1,0.2-1.3,0.6c-0.3,0.4-0.5,0.6-0.8,0.5c-0.2,0-0.5-0.2-0.3-0.7c0.2-0.6,0.7-0.4,0.8-0.4
				c0.1-0.1,0.1-0.2,0.1-0.3c-0.2-0.1-0.7-0.1-0.8-0.1c-0.1,0.1-0.2,0.4-0.4,0.9c-0.3,1,0.4,1.4,0.7,1.4c0.3,0,0.6-0.1,1.1-0.6
				c0.3-0.4,0.6-0.6,0.9-0.4c0.2,0.1,0.4,0.3,0.3,0.7c-0.2,0.6-0.7,0.6-1,0.6c-0.1,0.1-0.1,0.2-0.1,0.3C42,32.6,42.3,32.7,42.7,32.7
				 M91.9,31.5c0.9-0.7,0.9-0.8,1.6-1.3c0.2-0.2,0.3-0.3,0.5,0c0,0.1,0,0.1,0.1,0.1c0.1,0,0.2,0,0.3-0.1c-0.2-0.5-0.3-0.9-0.6-1.4
				c-0.1,0-0.2,0-0.3,0.1c0,0,0,0.1,0.1,0.2c0.1,0.3,0,0.4-0.3,0.6c-0.2,0.1-2,1.6-2.1,1.7c0,0,0,0.1,0,0.1c0,0,0.2,0.3,0.3,0.4
				c0.8,0,2.1,0.1,2.6,0.2c0.5,0,0.6,0.1,0.6,0.3c0,0.1,0,0.1,0,0.2c0.1,0,0.2,0,0.3-0.1c-0.1-0.4-0.2-0.9-0.4-1.2
				c-0.1-0.1-0.2,0-0.3,0.1c0,0,0,0.1,0,0.1c0,0.2,0,0.3-0.4,0.3C93.3,31.6,92.5,31.6,91.9,31.5 M92.8,44.7c1.1-0.2,1.2-0.2,2-0.3
				c0.3,0,0.4-0.1,0.4,0.2c0,0.1,0,0.1,0,0.1c0.1,0.1,0.2,0.1,0.3,0c0.1-0.5,0.2-1,0.2-1.5c-0.1-0.1-0.2-0.1-0.3,0c0,0,0,0.1,0,0.2
				c-0.1,0.3-0.2,0.3-0.6,0.4c-0.2,0-2.6,0.4-2.6,0.5c-0.1,0-0.1,0.1-0.1,0.1c0,0,0.1,0.4,0.1,0.5c0.7,0.4,1.7,1.1,2.2,1.4
				c0.4,0.3,0.4,0.4,0.4,0.5c0,0.1,0,0.1,0,0.2c0,0.1,0.2,0.1,0.3,0.1c0.1-0.4,0.2-0.9,0.3-1.3c0-0.1-0.2-0.1-0.3-0.1
				c0,0,0,0.1,0,0.1c-0.1,0.2-0.1,0.3-0.5,0.1C94,45.5,93.3,45.1,92.8,44.7 M91.8,53.9c-0.1,0.2-0.2,0.3-0.3,0.5
				c-0.1,0.1-0.2,0.3-0.4,0.3c-0.2,0-0.4,0-0.5-0.1c-0.1-0.1-0.2-0.1-0.3-0.3c-0.1-0.2,0-0.4,0.1-0.6l-0.1-0.1
				c-0.3,0-1.6,0.2-1.9,0.3c-0.2,0.3-0.5,0.7-0.5,0.8c0,0.1,0.1,0.2,0.2,0.2c0-0.1,0.1-0.1,0.1-0.1c0.2-0.2,0.3-0.2,0.6-0.3
				c0.4-0.1,0.8-0.1,1.1-0.1c-0.1,0.4-0.1,0.8,0.3,1c0.6,0.4,1.1,0,1.3-0.3c0.1-0.1,0.2-0.3,0.3-0.4c0.1-0.1,0.3-0.6,0.8-1.4
				c0-0.1-0.2-0.2-0.2-0.1c0,0,0,0.1-0.1,0.1c-0.2,0.3-0.2,0.2-0.7,0c-0.2-0.1-0.9-0.5-1.2-0.6c-0.5-0.3-0.5-0.3-0.4-0.6
				c0,0,0-0.1,0.1-0.1c0-0.1-0.2-0.1-0.2-0.1c-0.2,0.4-0.5,0.9-0.7,1.3c0,0.1,0.2,0.1,0.2,0.1c0,0,0.1-0.1,0.1-0.1
				c0.2-0.2,0.3-0.2,0.7,0C90.3,53.1,91.2,53.6,91.8,53.9 M77.5,63c0.1-0.1,0.7-0.3,1-0.5c0.1,0,0.2,0.2,0.1,0.2c0,0-0.1,0-0.1,0.1
				c-0.1,0.1-0.2,0.2-0.2,0.7c0,0.5,0,2.4,0,2.6c-0.1,0.1-0.3,0.3-0.3,0.3c0,0,0,0-0.1,0c0,0-1.7-1.8-1.8-2
				c-0.1-0.1-0.4-0.4-0.6-0.4c-0.1,0-0.1,0-0.2,0c0,0-0.1-0.2-0.1-0.3c0.6-0.2,1.1-0.4,1.3-0.5c0.1,0,0.1,0.2,0.1,0.3c0,0,0,0-0.1,0
				c-0.2,0.1-0.1,0.3,0.1,0.4c0.2,0.2,0.2,0.2,0.2,0.3c0.1-0.1,1-0.4,1.1-0.5c0-0.1,0-0.1,0-0.3c0-0.3,0-0.4-0.3-0.4
				c-0.1,0-0.1,0-0.1,0C77.6,63.3,77.5,63.1,77.5,63 M78,64.2l-0.9,0.4l1,1L78,64.2z M54.2,61.6c0.2,0.1,0.6,0.4,1,0.6
				c0,0.1,0,0.2-0.1,0.2c0,0-0.1,0-0.1-0.1c-0.1,0-0.3-0.1-0.7,0.2c-0.4,0.3-2,1.4-2.1,1.5c-0.1,0-0.4-0.1-0.4-0.1c0,0-0.1,0,0-0.1
				c0-0.1,0.5-2.4,0.6-2.6c0-0.1,0.1-0.5-0.1-0.7c-0.1,0-0.1-0.1-0.1-0.1c0-0.1,0.1-0.2,0.2-0.2c0.5,0.4,0.9,0.7,1.1,0.8
				c0,0.1-0.1,0.2-0.1,0.2c0,0,0,0-0.1-0.1c-0.2-0.1-0.3,0.1-0.3,0.3c-0.1,0.2-0.1,0.2-0.1,0.4c0.1,0.1,0.9,0.5,1,0.6
				c0.1,0,0.1-0.1,0.3-0.2c0.3-0.2,0.3-0.3,0.1-0.4c-0.1-0.1-0.1,0-0.1-0.1C54,61.8,54.1,61.7,54.2,61.6 M53.5,62.7l-0.8-0.5
				l-0.3,1.4L53.5,62.7z M83.2,62.5c0,0.1,0.1,0.2,0.1,0.4c0,0.1,0,0.3-0.3,0.5c-0.1,0-0.2,0.1-0.4,0.2c0,0-0.8-1.3-1-1.6
				c-0.3-0.5-0.3-0.6-0.1-0.7c0,0,0.1-0.1,0.1-0.1c0-0.1-0.1-0.2-0.2-0.2c-0.4,0.3-0.9,0.6-1.3,0.8c0,0.1,0.1,0.2,0.1,0.2
				c0.1,0,0.1,0,0.2-0.1c0.3-0.1,0.4,0,0.6,0.4c0.1,0.2,0.1,0.2,1,1.6c-0.2,0.1-0.4,0.2-0.5,0.3c-0.3,0.1-0.4,0-0.5-0.1
				c-0.1,0-0.1-0.1-0.2-0.2c-0.1,0-0.2,0.1-0.2,0.2c0.1,0.1,0.4,0.6,0.5,0.8c1.1-0.6,1.7-1,2.7-1.7c0-0.1-0.3-0.7-0.3-0.8
				C83.3,62.4,83.2,62.4,83.2,62.5 M74.9,66.5c0,0.1,0,0.2,0,0.4c0,0.1-0.1,0.3-0.4,0.4c-0.1,0-0.2,0.1-0.4,0.1c0,0-0.4-1.5-0.4-1.9
				c-0.1-0.5-0.1-0.6,0.1-0.7c0,0,0.1,0,0.1,0c0-0.1,0-0.2-0.1-0.3c-0.4,0.1-1,0.3-1.5,0.3c0,0.1,0,0.2,0,0.3c0.1,0,0.1,0,0.2,0
				c0.3,0,0.3,0.1,0.5,0.6c0.1,0.3,0.1,0.2,0.4,1.9c-0.2,0.1-0.5,0.1-0.6,0.1c-0.3,0-0.4-0.2-0.5-0.2c0-0.1-0.1-0.2-0.1-0.3
				c-0.1,0-0.2,0-0.3,0.1c0,0.1,0.2,0.7,0.2,0.9c1.2-0.2,1.9-0.4,3.1-0.7c0-0.1,0-0.8,0-0.9C75.1,66.4,75,66.4,74.9,66.5 M92.1,34.4
				c0.1,0.3,0.2,1,0.2,1.3c0.1,0.1,0.2,0,0.3,0c0,0,0-0.1,0-0.2c0-0.2,0.1-0.3,0.6-0.4c0.3-0.1,1.4-0.3,1.6-0.3
				c-0.2,0.3-0.5,0.6-1,1.1c-0.5,0.6-1,1.2-1.4,1.7c0,0.1,0.1,0.2,0.1,0.2c0.2,0,1.9-0.1,2.3-0.2c0.5,0,0.6,0,0.7,0.2
				c0,0,0,0.1,0,0.1c0.1,0,0.2,0.1,0.3,0c0-0.3-0.1-0.9-0.1-1.3c-0.1-0.1-0.2,0-0.3,0c0,0.1,0,0.1,0,0.2c0,0.3-0.1,0.4-0.6,0.4
				c-0.2,0-1.2,0.1-1.4,0.1c0.1-0.1,0.4-0.5,0.9-1.1c0.5-0.5,0.8-0.9,0.9-1c0.1-0.1,0.2-0.2,0.3-0.2c0-0.1,0-0.1,0-0.1
				c0-0.3-0.1-0.8-0.2-1c-0.1,0-0.2,0-0.3,0.1c0,0.1,0,0.1,0,0.2c0,0.3-0.2,0.3-0.6,0.4c-0.4,0.1-0.9,0.2-1.3,0.2
				c-0.5,0.1-0.7,0-0.7-0.2c0,0,0-0.1,0-0.2C92.3,34.3,92.1,34.3,92.1,34.4 M58.4,63.7c-0.1,0-0.1,0.2-0.1,0.3
				c0.1,0,0.1,0.1,0.2,0.1c0.3,0.1,0.2,0.3,0.1,0.7c0,0.1-0.1,0.3-0.2,0.5c0,0-0.4-0.2-0.8-0.3c-0.4-0.1-0.8-0.3-0.8-0.3
				c0.1-0.2,0.2-0.4,0.2-0.5c0.2-0.5,0.3-0.6,0.6-0.5c0,0,0.1,0,0.1,0c0.1,0,0.1-0.2,0.1-0.3c-0.5-0.2-1-0.4-1.4-0.6
				c-0.1,0-0.2,0.2-0.1,0.3c0.1,0,0.1,0.1,0.1,0.1c0.2,0.1,0.2,0.3,0,0.7c-0.1,0.2-0.4,0.8-0.6,1.2c-0.1,0.3-0.3,0.6-0.6,0.5
				c0,0-0.1,0-0.1-0.1c-0.1,0-0.1,0.2-0.1,0.3c0.3,0.2,0.9,0.4,1.5,0.6c0.1,0,0.1-0.2,0.1-0.2c0,0-0.1,0-0.1-0.1
				c-0.3-0.1-0.2-0.4-0.1-0.7c0-0.1,0.1-0.3,0.2-0.4c0,0,0.5,0.2,0.8,0.3c0.3,0.1,0.8,0.3,0.8,0.3c0,0.2-0.1,0.3-0.2,0.5
				c-0.1,0.3-0.2,0.6-0.6,0.5c0,0-0.1,0-0.1,0c-0.1,0.1-0.1,0.2-0.1,0.3c0.4,0.1,1,0.3,1.5,0.5c0,0,0.1-0.2,0.1-0.3
				c-0.1,0-0.1,0-0.1,0c-0.3-0.1-0.2-0.3-0.1-0.7c0.1-0.2,0.3-0.9,0.4-1.3c0.2-0.5,0.2-0.6,0.5-0.5c0,0,0.1,0,0.1,0
				c0.1,0,0.1-0.2,0.1-0.3C59.4,64,58.9,63.8,58.4,63.7 M91.5,47.4c-0.3,0.8-0.6,1.8-0.9,2.5c0.1,0.1,0.7,0.5,0.8,0.5
				c0.1,0,0.2-0.2,0.2-0.3c0,0-0.1-0.1-0.2-0.1c-0.2-0.2-0.3-0.4-0.2-0.7c0-0.1,0.1-0.2,0.1-0.3c0.1-0.3,0.2-0.5,0.7-0.3
				c0.1,0,0.6,0.2,0.6,0.2c0,0-0.3,0.9-0.3,0.9c0.1,0.1,0.2,0.1,0.3,0.1c0,0,0.1-0.2,0.3-0.9c0.1,0,0.8,0.3,0.9,0.3
				c0.1,0,0.1,0.1,0.1,0.2c0,0.1-0.2,0.5-0.3,0.8c-0.1,0.3-0.3,0.3-0.4,0.3c-0.1,0-0.2,0-0.3,0c-0.1,0.1-0.1,0.2-0.1,0.3
				c0.2,0.1,0.6,0.2,0.8,0.3c0.4-1,0.8-2,1-2.7c0-0.1-0.2-0.1-0.3-0.1c0,0,0,0.1,0,0.1c-0.1,0.3-0.4,0.2-0.7,0.1
				c-0.3-0.1-0.8-0.3-1.3-0.4c-0.6-0.2-0.6-0.3-0.5-0.6c0,0,0-0.1,0-0.1C91.7,47.5,91.5,47.4,91.5,47.4 M43.7,49.5
				c-0.3-0.8-0.7-1.8-0.9-2.5c-0.2,0-0.8,0.1-0.9,0.1c-0.1,0.1,0,0.2,0,0.3c0,0,0.1,0,0.2,0c0.3,0,0.5,0.1,0.6,0.4
				c0,0.1,0.1,0.2,0.1,0.3c0.1,0.4,0.1,0.5-0.3,0.6c-0.1,0-0.6,0.2-0.6,0.2c0,0-0.3-0.9-0.3-0.9c-0.1,0-0.2,0-0.3,0.1
				c0,0,0.1,0.2,0.3,0.9c-0.1,0-0.8,0.3-0.9,0.3c-0.1,0-0.1,0-0.2-0.1c-0.1-0.1-0.2-0.5-0.3-0.8c-0.1-0.3,0.1-0.4,0.2-0.5
				c0.1-0.1,0.2-0.1,0.3-0.2c0-0.1,0-0.2-0.1-0.3c-0.2,0.1-0.6,0.2-0.8,0.3c0.3,1,0.7,2.1,0.9,2.7c0.1,0,0.2,0,0.3-0.1
				c0,0,0-0.1,0-0.1c-0.1-0.3,0.1-0.4,0.5-0.5c0.3-0.1,0.8-0.3,1.2-0.5c0.6-0.2,0.7-0.1,0.8,0.1c0,0,0,0,0.1,0.1
				C43.5,49.6,43.7,49.5,43.7,49.5 M48.2,56.6c-0.2-0.2-0.6-0.7-0.8-1c-0.1,0-0.2,0.1-0.2,0.2c0,0,0,0.1,0.1,0.1
				c0.1,0.2,0.1,0.3-0.3,0.7c-0.3,0.2-1.1,0.9-1.3,1.1c0.1-0.3,0.2-0.8,0.3-1.5c0.1-0.7,0.3-1.5,0.4-2.1C46.3,54,46.2,54,46.1,54
				c-0.1,0.1-1.6,1.1-1.9,1.3c-0.5,0.3-0.5,0.3-0.7,0.1c0,0-0.1-0.1-0.1-0.1c-0.1,0-0.2,0.1-0.2,0.1c0.2,0.3,0.5,0.7,0.8,1.1
				c0.1,0,0.2-0.1,0.2-0.2c0,0-0.1-0.1-0.1-0.1c-0.2-0.3-0.1-0.4,0.3-0.7c0.2-0.1,1-0.6,1.2-0.8c0,0.2-0.1,0.6-0.2,1.4
				c-0.1,0.7-0.3,1.2-0.3,1.4c0,0.2-0.1,0.3-0.1,0.3c0,0,0.1,0.1,0.1,0.1c0.2,0.2,0.5,0.6,0.6,0.8c0.1,0,0.2-0.1,0.2-0.2
				c0-0.1-0.1-0.1-0.1-0.1c-0.2-0.3,0-0.4,0.3-0.6c0.3-0.2,0.7-0.6,1-0.9c0.4-0.3,0.6-0.4,0.7-0.2c0,0,0.1,0.1,0.1,0.1
				C48.1,56.8,48.2,56.8,48.2,56.6 M42.4,45.3c-0.1-0.3-0.2-1-0.2-1.3c-0.1-0.1-0.2,0-0.3,0c0,0,0,0.1,0,0.2c0,0.2-0.1,0.3-0.6,0.4
				c-0.3,0.1-1.4,0.3-1.6,0.3c0.2-0.3,0.5-0.6,1-1.1c0.5-0.6,1-1.2,1.4-1.7c0-0.1-0.1-0.2-0.1-0.2c-0.2,0-1.9,0.1-2.3,0.2
				c-0.5,0-0.6,0-0.7-0.2c0,0,0-0.1,0-0.1c-0.1,0-0.2-0.1-0.3,0c0,0.3,0.1,0.9,0.1,1.3c0.1,0.1,0.2,0,0.3,0c0,0,0-0.1,0-0.2
				c0-0.3,0.1-0.4,0.6-0.4c0.2,0,1.2-0.1,1.4-0.1c-0.1,0.1-0.4,0.5-0.9,1.1c-0.5,0.5-0.8,0.9-0.9,1c-0.1,0.1-0.2,0.2-0.3,0.2
				c0,0.1,0,0.1,0,0.1c0,0.3,0.1,0.8,0.2,1c0.1,0,0.2,0,0.3-0.1c0-0.1,0-0.1,0-0.2c0-0.3,0.2-0.3,0.6-0.4c0.4-0.1,0.9-0.2,1.3-0.3
				c0.5-0.1,0.7,0,0.7,0.2c0,0,0,0.1,0,0.2C42.2,45.4,42.3,45.4,42.4,45.3 M49.7,58.6c0,0,0.1,0.1,0.1,0.1c0.2,0.2,0.3,0.4,0,0.7
				c-0.1,0.1-0.3,0.3-0.4,0.4c-0.3-0.3-0.4-0.4-0.7-0.6c-0.1,0-0.2,0.1-0.2,0.2c0.3,0.2,0.4,0.4,0.7,0.6c-0.1,0.1-0.6,0.7-0.7,0.8
				c-0.1,0.1-0.1,0.1-0.2,0c-0.1-0.1-0.3-0.2-0.5-0.5c-0.3-0.4,0-0.9,0.1-1.1c0-0.1-0.1-0.2-0.3-0.2c-0.2,0.2-0.5,0.7-0.7,0.9
				c0.9,0.9,1.4,1.3,2.1,1.9c0.1,0,0.2-0.1,0.2-0.2c0,0,0,0-0.1-0.1c-0.2-0.2-0.1-0.4,0.2-0.7c0.2-0.2,0.5-0.6,0.9-1
				c0.4-0.5,0.5-0.4,0.7-0.3c0,0,0,0,0.1,0.1c0.1,0,0.2-0.1,0.2-0.2c-0.4-0.3-0.9-0.7-1.2-1.1C49.8,58.4,49.7,58.5,49.7,58.6
				 M96.7,28.8c0.7-0.1,1.2-0.2,1.6-0.3c0.1-0.2,0-0.4-0.1-0.4c-0.1,0-0.3,0-0.4,0c-0.1,0-0.5,0-0.7-0.2c-0.2-0.2-0.4-0.5-0.4-0.7
				c-0.1-0.2-0.2-0.4-0.2-0.5c-0.1-0.4,0-0.5,0.7-0.8c0.6-0.3,1.2-0.6,1.9-0.9c0.4-0.2,0.9-0.5,1.2,0c0,0,0,0.1,0.1,0.2
				c0.2,0,0.4-0.1,0.4-0.2c-0.2-0.6-0.6-1.4-1.1-2.2c-0.1,0-0.3,0.1-0.4,0.2c0,0.1,0,0.1,0.1,0.2c0.2,0.5-0.3,0.7-0.7,0.9
				c-0.3,0.2-1.4,0.7-1.9,0.9c-0.8,0.4-0.9,0.4-1.2,0c0,0-0.1-0.1-0.1-0.2c-0.1,0-0.3,0.1-0.4,0.2C95.4,25.7,96.2,27.3,96.7,28.8
				 M98.5,36.3c0.7,0.1,1.2,0.1,1.6,0.1c0.2-0.2,0.1-0.4,0-0.4c-0.1,0-0.3,0-0.4-0.1c-0.1,0-0.4-0.2-0.6-0.4
				c-0.2-0.2-0.2-0.5-0.3-0.8c0-0.2-0.1-0.5-0.1-0.5c0-0.5,0.1-0.5,0.9-0.6c0.6-0.1,1.4-0.3,2.1-0.4c0.5-0.1,1-0.2,1.1,0.3
				c0,0,0,0.1,0.1,0.2c0.1,0.1,0.4,0,0.4-0.1c-0.1-0.6-0.3-1.5-0.5-2.4c-0.1-0.1-0.3,0-0.4,0.1c0,0.1,0,0.1,0,0.2
				c0.1,0.6-0.5,0.6-0.9,0.7c-0.4,0.1-1.5,0.3-2.1,0.4c-0.8,0.2-1,0.1-1.1-0.3c0-0.1,0-0.1-0.1-0.2c-0.1,0-0.3,0-0.4,0.1
				C98,32.9,98.3,34.7,98.5,36.3 M89.1,16.1c0.1-0.1,0.1-0.1,0.3-0.4c0.3-0.3,0.4-0.3,0.6-0.2c0.1,0,0.1,0.1,0.2,0.1
				c0.1,0,0.3-0.2,0.3-0.4c-0.5-0.3-1.2-0.9-1.8-1.5c-0.2,0-0.3,0.2-0.3,0.3c0.1,0.1,0.2,0.2,0.3,0.3c0.3,0.3,0.2,0.3,0,0.7
				c-0.1,0.2-0.2,0.2-0.3,0.3c-0.2,0.2-0.4,0.3-0.7,0c-0.1-0.1-0.2-0.1-0.4-0.3c-0.3-0.3-1.2-1.2-0.2-2.8c1.1-1.6,2.5-1.1,3-0.7
				c0.4,0.4,0.6,0.7,0.6,1.1c0,0.4-0.2,0.7-0.2,0.9c0,0.1,0.2,0.2,0.4,0.2c0.3-0.4,0.6-0.8,0.8-1.2c-0.1-0.2-0.4-0.6-1.3-1.4
				c-0.8-0.6-1.8-1.1-3-0.7c-0.9,0.3-1.6,1.2-1.7,2.3c-0.1,1.3,0.6,2,1.2,2.5c0.7,0.6,1.3,0.9,1.7,1.1C88.9,16.4,89,16.2,89.1,16.1
				 M69.9,72c0.7,1.6,0.9,1.7,1.4,3c0.2,0.4,0.3,0.6-0.1,0.7c-0.1,0-0.2,0-0.2,0c-0.1,0.1,0,0.4,0.1,0.4c0.8-0.1,1.6-0.2,2.4-0.3
				c0.1-0.1,0-0.4-0.1-0.4c-0.1,0-0.2,0-0.3,0c-0.4,0-0.5-0.2-0.8-0.7c-0.2-0.3-1.8-3.8-1.8-3.9c0-0.1-0.1-0.1-0.2-0.1
				c0,0-0.5,0.2-0.7,0.3c-0.4,1.3-1,3.2-1.3,3.9c-0.3,0.7-0.4,0.9-0.7,0.9c-0.1,0-0.2,0-0.3,0c-0.1,0.1-0.1,0.4,0,0.4
				c0.6,0,1.5,0,2-0.1c0.1-0.1,0.1-0.4,0-0.4c-0.1,0-0.2,0-0.2,0c-0.3,0-0.4-0.1-0.3-0.7C69.2,74.3,69.6,73,69.9,72 M50.5,12.1
				C49.2,11,49,10.9,47.9,10c-0.4-0.3-0.5-0.4-0.2-0.7c0.1-0.1,0.1-0.1,0.2-0.1c0-0.1-0.1-0.3-0.2-0.4c-0.7,0.4-1.3,0.9-2,1.4
				c0,0.2,0.1,0.3,0.2,0.3c0.1,0,0.1-0.1,0.2-0.1c0.4-0.2,0.6-0.1,1,0.3c0.3,0.2,3.3,2.6,3.4,2.6c0.1,0.1,0.2,0,0.2,0
				c0,0,0.4-0.4,0.5-0.6c-0.3-1.3-0.5-3.3-0.6-4.1c-0.1-0.8,0-1,0.2-1.1c0.1-0.1,0.2-0.1,0.2-0.1c0-0.1-0.1-0.4-0.2-0.4
				c-0.5,0.3-1.3,0.7-1.8,1c-0.1,0.1,0.1,0.4,0.2,0.4c0.1,0,0.1-0.1,0.2-0.1c0.3-0.1,0.4-0.1,0.6,0.5C50.2,9.8,50.3,11.1,50.5,12.1
				 M99.5,41.7c1.7-0.5,1.9-0.6,3.2-1c0.5-0.1,0.7-0.2,0.7,0.2c0,0.1,0,0.2,0,0.2c0.1,0.1,0.3,0.1,0.4,0c0-0.8,0-1.6,0-2.5
				c-0.1-0.1-0.3-0.1-0.4,0c0,0.1,0,0.2,0,0.3c-0.1,0.4-0.3,0.5-0.8,0.7c-0.3,0.1-4,1.3-4.1,1.3c-0.1,0-0.1,0.1-0.1,0.2
				c0,0,0.2,0.5,0.2,0.8c1.2,0.5,3,1.4,3.7,1.8c0.7,0.3,0.8,0.5,0.8,0.8c0,0.1,0,0.2,0,0.3c0.1,0.1,0.3,0.2,0.4,0.1
				c0.1-0.6,0.2-1.4,0.2-2c-0.1-0.1-0.3-0.1-0.4-0.1c0,0.1,0,0.2,0,0.2c-0.1,0.3-0.1,0.4-0.7,0.2C101.6,42.7,100.4,42.1,99.5,41.7
				 M60.1,70.5c-0.3,0.6-0.5,1.1-0.6,1.4c0.1,0.2,0.3,0.2,0.4,0.2c0-0.1,0.1-0.3,0.2-0.4c0.1-0.1,0.3-0.4,0.5-0.4
				c0.2-0.1,0.6,0,0.8,0c0.2,0,0.5,0.1,0.5,0.1c0.4,0.1,0.4,0.3,0.3,1.1c-0.1,0.6-0.2,1.4-0.3,2.1c-0.1,0.5-0.1,1-0.7,1
				c0,0-0.1,0-0.2,0c-0.1,0.1-0.1,0.3,0,0.4c0.6,0.1,1.5,0.2,2.5,0.3c0.1-0.1,0.1-0.3,0-0.4c-0.1,0-0.1,0-0.2,0
				c-0.6-0.1-0.4-0.7-0.3-1.1c0-0.4,0.2-1.5,0.3-2.1c0.1-0.9,0.2-1,0.6-1c0.1,0,0.1,0,0.2,0c0.1-0.1,0.1-0.3,0-0.4
				C63.5,71.1,61.7,70.8,60.1,70.5 M97.9,48.5c0.1-0.4,0.6-0.3,1.1-0.1c0.5,0.2,1.9,0.7,2.5,0.9c-0.4,0-2.3,0.2-3,0.3
				c-0.8,0.1-1.3,0.1-1.5,0.1c-0.1,0.1-0.1,0.2-0.1,0.3c0.2,0.2,0.5,0.4,1.1,1c0.6,0.6,1.8,1.8,2.2,2.2c-0.4-0.1-2-0.6-2.7-0.9
				c-0.8-0.3-0.7-0.4-0.7-0.7c0,0,0-0.1,0.1-0.2c-0.1-0.1-0.3-0.2-0.4-0.2c-0.2,0.6-0.4,1-0.9,2.1c0,0.1,0.3,0.2,0.4,0.2
				c0.1-0.1,0.1-0.1,0.1-0.3c0.2-0.3,0.5-0.2,1.2,0c0.6,0.2,1.6,0.5,2.3,0.8c0.6,0.2,0.6,0.4,0.5,0.7c0,0.1,0,0.1-0.1,0.2
				c0,0.2,0.3,0.2,0.4,0.2c0.3-0.6,0.6-1.3,0.8-1.8c-0.3-0.2-0.6-0.5-0.9-0.7c-0.1-0.1-1.8-1.7-2.1-2.1c0.7-0.1,2.4-0.3,3-0.4
				c0.5-0.1,0.8,0,1,0.1c0.2-0.7,0.3-1.2,0.5-1.9c-0.1-0.1-0.3-0.2-0.4-0.1c0,0.1,0,0.1-0.1,0.2c-0.2,0.6-0.6,0.4-1.1,0.2
				c-0.3-0.1-1.7-0.7-2.2-0.9c-0.8-0.4-0.7-0.5-0.7-0.8c0-0.1,0-0.1,0-0.2c-0.1-0.2-0.3-0.2-0.4-0.1c-0.2,0.7-0.3,1.1-0.5,1.9
				c0.1,0.2,0.3,0.2,0.4,0.1L97.9,48.5z M56.9,9.6c-0.4,0.1-0.6-0.3-0.7-0.9c-0.1-0.5-0.5-1.9-0.7-2.6c0.2,0.3,1.4,1.8,1.9,2.3
				c0.5,0.6,0.8,1,0.9,1.2c0.1,0,0.2,0,0.3-0.1c0-0.3,0.1-0.6,0.2-1.5c0.2-0.9,0.4-2.5,0.5-3.1c0.1,0.4,0.6,2,0.8,2.7
				c0.2,0.8,0.1,0.8-0.2,0.9c0,0-0.1,0-0.2,0.1c-0.1,0.1,0,0.3,0.1,0.4c0.7-0.2,1-0.2,2.2-0.4c0.1-0.1,0-0.3-0.1-0.4
				c-0.1,0-0.1,0-0.3,0c-0.3,0-0.5-0.3-0.7-1C61,6.8,60.7,5.7,60.5,5c-0.2-0.6,0-0.7,0.3-0.8c0.1,0,0.1,0,0.2-0.1
				c0.1-0.1,0-0.4-0.1-0.4C60.3,3.8,59.5,4,59,4.1c0,0.4,0,0.8-0.1,1.1c0,0.1-0.4,2.4-0.5,2.9c-0.5-0.5-1.6-1.8-2-2.3
				C56,5.5,55.9,5.2,55.9,5c-0.7,0.2-1.2,0.4-1.9,0.7C53.9,5.8,54,6,54.1,6c0.1,0,0.1,0,0.2-0.1c0.5-0.2,0.7,0.3,0.8,0.8
				c0.1,0.3,0.4,1.8,0.5,2.3c0.1,0.8,0,0.9-0.3,1.1c-0.1,0-0.1,0-0.2,0.1c-0.1,0.2,0,0.4,0.2,0.4c0.7-0.3,1.1-0.4,1.9-0.7
				c0.1-0.1,0-0.4-0.1-0.4L56.9,9.6z M68,5.7c0-0.5-0.4-0.8-0.8-0.8c-0.5,0-0.8,0.4-0.8,0.8c0,0.5,0.4,0.8,0.8,0.8
				C67.7,6.5,68,6.1,68,5.7 M56,73.1c-0.1,0.1-0.2,0.3-0.4,0.4c-0.2,0.1-0.4,0.2-0.9,0.1c-0.1,0-0.3-0.1-0.6-0.3
				c0,0,0.9-2.3,1.1-2.8c0.3-0.8,0.4-0.9,0.9-0.8c0.1,0,0.1,0,0.2,0.1c0.1-0.1,0.2-0.3,0.1-0.4c-0.7-0.3-1.6-0.6-2.3-0.9
				c-0.1,0.1-0.2,0.3-0.2,0.4c0.1,0,0.2,0.1,0.2,0.1c0.4,0.3,0.3,0.5,0.1,1.2c-0.2,0.4-0.1,0.4-1.2,2.8c-0.4-0.2-0.7-0.3-0.9-0.4
				c-0.4-0.2-0.4-0.6-0.4-0.7c0-0.1,0-0.3,0.1-0.4c-0.1-0.1-0.3-0.2-0.4-0.2c-0.1,0.2-0.4,1.1-0.5,1.4c1.9,0.9,2.9,1.3,4.7,1.9
				c0.1-0.1,0.7-1.1,0.8-1.2C56.4,73.2,56.2,73.1,56,73.1 M41.9,64.2c-0.1,0.1-0.3,0.2-0.6,0.2c-0.2,0-0.5,0-0.8-0.4
				c-0.1-0.1-0.2-0.3-0.4-0.5c0,0,1.9-1.6,2.3-2c0.7-0.6,0.8-0.6,1.1-0.3c0,0,0.1,0.1,0.2,0.2c0.1,0,0.3-0.2,0.3-0.3
				c-0.5-0.5-1.1-1.3-1.6-1.9c-0.1,0-0.3,0.2-0.4,0.3c0.1,0.1,0.1,0.2,0.1,0.2c0.2,0.4,0.1,0.6-0.5,1.1c-0.3,0.3-0.3,0.3-2.4,2
				c-0.2-0.3-0.5-0.6-0.6-0.7c-0.3-0.4-0.1-0.7,0-0.8c0.1-0.1,0.2-0.2,0.3-0.3c0-0.2-0.2-0.3-0.3-0.3c-0.2,0.1-0.9,0.8-1.1,1
				c1.3,1.7,2,2.5,3.3,3.9c0.1,0,1.1-0.6,1.2-0.7C42.1,64.4,42,64.2,41.9,64.2 M90.7,61.4c0.1-0.1,0.1-0.1,0.2-0.2
				c0.3-0.3,0.6-0.4,1.1,0c0.1,0.1,0.5,0.5,0.7,0.6c-0.4,0.5-0.6,0.7-1,1.1c0.1,0.2,0.2,0.3,0.4,0.4c0.4-0.4,0.6-0.6,1-1.1
				c0.1,0.1,1.1,1,1.2,1.1c0.1,0.1,0.2,0.2,0,0.4c-0.2,0.2-0.4,0.4-0.7,0.8c-0.6,0.6-1.4,0-1.7-0.2c-0.2,0.1-0.3,0.2-0.3,0.4
				c0.4,0.3,1.1,0.8,1.4,1.1c1.4-1.4,2.1-2.3,3-3.3c0-0.1-0.2-0.3-0.3-0.3c0,0-0.1,0.1-0.1,0.1c-0.4,0.4-0.7,0.1-1.1-0.3
				c-0.3-0.3-1-0.8-1.6-1.4c-0.7-0.6-0.7-0.8-0.5-1.1c0-0.1,0-0.1,0.1-0.1c-0.1-0.1-0.2-0.3-0.3-0.3c-0.6,0.7-1.1,1.4-1.7,2
				C90.4,61.2,90.6,61.4,90.7,61.4 M79.5,10.8c0.7,0.3,1.4,0.6,2.3,1.1c0.1,0,0.2-0.3,0.2-0.4c-0.1-0.1-0.2-0.1-0.2-0.1
				c-0.4-0.3-0.3-0.5,0-1.2c0.2-0.4,0.6-1.2,0.9-1.9c0.2-0.5,0.5-0.9,1-0.7c0,0,0.1,0,0.2,0.1c0.1,0,0.3-0.3,0.2-0.4
				c-0.6-0.3-1.5-0.8-2.4-1.1c-0.1,0-0.2,0.3-0.2,0.4c0.1,0,0.1,0.1,0.2,0.1c0.5,0.3,0.2,0.7,0,1.2c-0.2,0.4-0.6,1.4-0.9,1.9
				c-0.4,0.8-0.5,0.9-0.9,0.7c-0.1,0-0.2-0.1-0.3-0.1C79.6,10.4,79.5,10.7,79.5,10.8 M39.9,55.5c-0.4-0.6-0.7-1.4-1.2-2.2
				c-0.1,0-0.4,0.1-0.4,0.2c0,0.1,0.1,0.2,0.1,0.3c0.1,0.4,0,0.6-0.7,0.9c-0.4,0.2-1.2,0.6-1.9,1c-0.5,0.2-0.9,0.4-1.2,0
				c0,0-0.1-0.1-0.1-0.2c-0.1,0-0.4,0.1-0.4,0.2c0.3,0.6,0.8,1.5,1.2,2.4c0.1,0,0.3-0.1,0.4-0.2c0-0.1-0.1-0.1-0.1-0.2
				c-0.2-0.5,0.3-0.7,0.7-0.9c0.4-0.2,1.3-0.7,1.9-1c0.8-0.4,0.9-0.4,1.2,0c0,0.1,0.1,0.1,0.2,0.2C39.7,55.7,39.9,55.6,39.9,55.5
				 M36.8,22.2c-0.1-0.1-0.3-0.3-0.3-0.5c-0.1-0.2-0.1-0.5,0.1-0.9c0.1-0.1,0.2-0.3,0.4-0.6c0,0,2.1,1.3,2.6,1.7
				c0.7,0.5,0.8,0.6,0.6,1c0,0.1-0.1,0.1-0.1,0.2c0,0.1,0.3,0.2,0.4,0.2c0.4-0.6,0.9-1.4,1.4-2c0-0.1-0.2-0.3-0.4-0.3
				c-0.1,0.1-0.1,0.1-0.2,0.2c-0.3,0.3-0.5,0.2-1.2-0.2c-0.4-0.2-0.3-0.2-2.5-1.7c0.2-0.3,0.4-0.6,0.5-0.8c0.3-0.4,0.7-0.2,0.8-0.2
				c0.1,0,0.3,0.1,0.4,0.2c0.2,0,0.3-0.3,0.2-0.4c-0.2-0.1-1-0.6-1.2-0.8C37,19,36.4,20,35.4,21.6c0.1,0.1,0.9,0.9,1,1
				C36.6,22.6,36.7,22.4,36.8,22.2 M44.5,18c0.5-0.5,1.1-1.1,1.8-1.7c0-0.1-0.2-0.3-0.3-0.3C46,16,45.9,16,45.8,16.1
				c-0.4,0.3-0.6,0.1-1.1-0.4c-0.3-0.3-0.9-1-1.4-1.5c-0.4-0.4-0.7-0.7-0.3-1.2c0,0,0.1-0.1,0.2-0.2c0-0.1-0.2-0.3-0.3-0.3
				c-0.5,0.5-1.3,1.2-1.9,1.8c0,0.1,0.2,0.3,0.3,0.3c0.1-0.1,0.1-0.1,0.2-0.2c0.4-0.4,0.8,0.1,1.1,0.4c0.3,0.3,1.1,1.1,1.5,1.5
				c0.6,0.7,0.6,0.8,0.4,1.1c0,0.1-0.1,0.1-0.2,0.2C44.2,17.8,44.4,18,44.5,18 M91.4,19.6c0.5,0.6,1,1.2,1.5,2
				c0.1,0,0.4-0.2,0.4-0.3c-0.1-0.1-0.1-0.2-0.2-0.2c-0.2-0.4-0.1-0.6,0.5-1c0.4-0.3,1.1-0.8,1.7-1.3c0.4-0.3,0.8-0.6,1.2-0.2
				c0,0,0.1,0.1,0.2,0.2c0.1,0,0.4-0.1,0.4-0.3c-0.4-0.6-1-1.4-1.6-2.1c-0.1,0-0.3,0.2-0.3,0.3c0,0.1,0.1,0.1,0.1,0.2
				c0.3,0.5-0.2,0.8-0.5,1c-0.3,0.3-1.2,0.9-1.7,1.3c-0.7,0.6-0.8,0.5-1.2,0.2c-0.1-0.1-0.1-0.1-0.2-0.2
				C91.6,19.3,91.4,19.5,91.4,19.6 M77.6,69.3c-0.8,0.3-1.6,0.7-1.8,0.8c0.1,0.5,0.2,0.9,0.3,1.4c0.1,0.1,0.4,0,0.5-0.1
				c0-0.2-0.1-0.5,0.1-0.8c0.2-0.4,0.6-0.7,1.1-0.8c0.4-0.1,1.8-0.4,2.4,1.4c0.7,1.8-0.5,2.7-1.1,2.9c-0.6,0.2-1.1,0-1.3-0.1
				c-0.3-0.2-0.4-0.5-0.5-0.6c-0.1,0-0.4,0.1-0.4,0.2c0.2,0.4,0.4,0.9,0.6,1.3c0.2,0,1.2-0.1,2-0.3c0.9-0.3,1.8-0.9,2.1-2
				c0.2-0.9-0.1-2-0.9-2.7C79.5,69,78.4,69.1,77.6,69.3 M72.6,8.6c0,0,0.5,0.4,1.6,0.7c1.1,0.3,2-0.2,2.2-1.1c0.2-1-0.5-1.5-1.1-2
				c-0.7-0.5-1-0.8-0.9-1.2c0-0.3,0.3-0.8,1.2-0.5c0.9,0.3,0.8,1.1,0.8,1.2c0.2,0.1,0.3,0.2,0.5,0.1C77,5.4,77,4.7,77,4.5
				c-0.2-0.1-0.6-0.3-1.4-0.5c-1.7-0.4-2.2,0.7-2.2,1.3c0,0.5,0.2,0.9,1.1,1.6c0.7,0.5,1,0.9,0.8,1.4c-0.1,0.3-0.5,0.6-1.1,0.5
				c-1-0.2-0.9-0.9-0.9-1.5c-0.1-0.1-0.4-0.1-0.5-0.1C72.8,7.5,72.7,8.1,72.6,8.6 M37.2,49.7c0,0,0.1-0.6-0.2-1.7
				c-0.3-1.1-1.2-1.7-2-1.4c-1,0.3-1.1,1.1-1.2,1.9c-0.1,0.8-0.2,1.2-0.6,1.3c-0.3,0.1-0.8,0.1-1-0.8c-0.2-0.9,0.6-1.2,0.7-1.3
				c0-0.2,0-0.3-0.2-0.4c-0.3,0.1-1,0.3-1.1,0.4c0,0.3,0,0.7,0.2,1.5c0.4,1.7,1.6,1.6,2.2,1.3c0.4-0.2,0.7-0.6,0.9-1.8
				c0.1-0.8,0.3-1.3,0.8-1.4c0.4-0.1,0.8,0.1,1,0.8c0.3,1-0.4,1.3-0.9,1.5c0,0.2,0.1,0.4,0.2,0.5C36.2,50.1,36.7,49.9,37.2,49.7
				 M49.4,65.8c0.2,0.1,1,0.7,1.6,1c0.1,0.1-0.1,0.3-0.2,0.4c0,0-0.1-0.1-0.2-0.1c-0.2-0.1-0.4-0.1-1.1,0.3c-0.7,0.4-3.3,2-3.5,2.2
				c-0.1,0-0.7-0.2-0.8-0.3c0,0-0.1,0-0.1-0.1c0-0.1,1.1-3.8,1.2-4.1c0.1-0.2,0.3-0.8,0-1.1c-0.1-0.1-0.1-0.1-0.2-0.2
				c0-0.1,0.1-0.3,0.3-0.3c0.8,0.7,1.5,1.2,1.7,1.4c0,0.1-0.1,0.3-0.3,0.3c0,0-0.1,0-0.1-0.1c-0.3-0.2-0.5,0.1-0.6,0.4
				c-0.1,0.4-0.1,0.4-0.2,0.5c0.2,0.1,1.4,1,1.6,1.2c0.1-0.1,0.2-0.1,0.4-0.3c0.5-0.3,0.5-0.4,0.2-0.7c-0.1-0.1-0.1-0.1-0.1-0.1
				C49.2,66,49.2,65.8,49.4,65.8 M48.2,67.4l-1.3-1l-0.6,2.1c0,0,0,0,0,0.1c0,0,0.1,0,0.1,0L48.2,67.4z M35.8,38.3
				c0,0.2,0,1.2,0,1.9c-0.1,0.1-0.3,0.1-0.4,0c0,0,0-0.1,0-0.2c-0.1-0.2-0.1-0.4-0.9-0.7c-0.7-0.4-3.5-1.7-3.7-1.8
				c0-0.1-0.2-0.8-0.2-0.8c0,0,0-0.1,0.1-0.1c0.1,0,3.8-1,4.2-1.1c0.2-0.1,0.9-0.2,1-0.6c0-0.1,0-0.1,0.1-0.3c0.1,0,0.3-0.1,0.4,0.1
				c-0.2,1-0.3,1.9-0.3,2.2c-0.1,0.1-0.3,0.1-0.4,0c0-0.1,0-0.1,0-0.2c0-0.4-0.3-0.4-0.7-0.3c-0.4,0.1-0.4,0.1-0.5,0.1
				c0,0.2-0.1,1.7-0.2,2c0.1,0.1,0.2,0.1,0.5,0.2c0.5,0.2,0.6,0.2,0.7-0.2c0-0.1,0-0.1,0-0.2C35.4,38.2,35.7,38.1,35.8,38.3
				 M33.7,38.1l0.1-1.7l-2.2,0.6c0,0,0,0,0,0c0,0,0,0,0,0L33.7,38.1z M85.9,65.1c0.2-0.1,1-0.7,1.5-1.1c0.1,0,0.3,0.2,0.3,0.3
				c0,0-0.1,0.1-0.2,0.2c-0.2,0.2-0.2,0.3,0,1.1c0.2,0.8,0.9,3.8,0.9,4c-0.1,0.1-0.5,0.6-0.5,0.7c0,0-0.1,0.1-0.1,0
				c-0.1-0.1-3.2-2.3-3.5-2.5c-0.2-0.1-0.7-0.6-1.1-0.4c-0.1,0-0.1,0.1-0.3,0.1c-0.1,0-0.3-0.2-0.2-0.4c0.9-0.5,1.6-1,1.9-1.2
				c0.1,0,0.3,0.2,0.2,0.4c0,0-0.1,0-0.1,0.1c-0.3,0.3-0.1,0.4,0.2,0.7c0.3,0.2,0.3,0.2,0.5,0.3c0.2-0.1,1.4-1,1.6-1.1
				c0-0.1-0.1-0.2-0.1-0.5c-0.1-0.5-0.2-0.6-0.6-0.5c-0.1,0.1-0.1,0.1-0.2,0.1C86.1,65.4,85.9,65.3,85.9,65.1 M87.1,66.8l-1.4,1
				l1.8,1.3c0,0,0,0,0.1,0c0,0,0-0.1,0-0.1L87.1,66.8z M32.9,28.4c0-0.1,0-0.1,0.1-0.3c0-0.1,0.1-0.3,0.2-0.5
				c0.1-0.2,0.3-0.5,0.5-0.6c0.3-0.1,0.6-0.1,0.8,0c0.2,0.1,0.4,0.1,0.6,0.4c0.2,0.3,0.2,0.7,0.1,0.9l0.2,0.2c0.4-0.2,2.5-0.9,2.8-1
				c0.2-0.6,0.5-1.2,0.6-1.3c-0.1-0.1-0.3-0.2-0.4-0.2c-0.1,0.1-0.1,0.2-0.1,0.2c-0.2,0.3-0.4,0.4-0.9,0.6c-0.5,0.2-1.2,0.4-1.7,0.5
				c0-0.6-0.1-1.2-0.8-1.5c-1.1-0.5-1.6,0.3-1.9,0.9c-0.1,0.2-0.2,0.5-0.3,0.7c-0.1,0.2-0.3,0.9-0.7,2.3c0.1,0.1,0.3,0.2,0.4,0.1
				c0-0.1,0-0.1,0.1-0.2c0.2-0.4,0.3-0.4,1.1-0.2c0.4,0.1,1.5,0.5,2,0.6c0.8,0.3,0.9,0.4,0.9,0.8c0,0.1,0,0.1,0,0.2
				c0.1,0.1,0.3,0.1,0.4,0.1c0.2-0.7,0.5-1.6,0.7-2.3c-0.1-0.1-0.3-0.2-0.4-0.2c0,0.1-0.1,0.2-0.1,0.3c-0.2,0.4-0.4,0.4-1.2,0.2
				C35.5,29.3,33.9,28.7,32.9,28.4 M90.5,23.1c0-0.1-0.1-0.1-0.2-0.1c-0.1,0-0.2,0-0.4,0c-0.5,0.1-1.8,0.2-2.1,0.2
				c-0.2,0-0.5-0.1-0.8-0.2c0.1-0.1,0.2-0.2,0.3-0.3c0.1-0.1,0.2-0.2,0.3-0.3c0.1-0.2,0-0.3-0.1-0.3c-0.1,0-0.6,0.2-1,0.4
				c-0.3,0.2-0.7,0.4-1,0.5c-0.3,0.1-0.8,0.2-2.4-0.1c-1.6-0.3-2.5-0.4-4.1-0.4c-0.6,0-1.1-0.1-1.6-0.2c-1.1-0.2-3-0.6-4.3-0.9
				c-1.3-0.3-1.8-0.3-3.1-0.3c-0.9,0-1.9-0.1-1.9-1.3c0.3-0.2,1-0.5,1.2-0.8c0.2-0.2,0.3-0.3,0.4-0.5c0.1-0.2,0.2-0.4,0.2-0.7
				c0-0.7,0-2.1-0.2-2.8c-0.2-0.8-0.8-1.5-1.2-1.8c-0.4-0.3-1.1-0.4-1.5-0.5c-0.5-0.1-0.9,0-1.4,0.3c-0.3,0.1-0.8,0.6-1.2,1.2
				c-0.1,0.2-0.3,0.6-0.3,0.8c-0.2,1-0.3,1.2-0.4,1.9c-0.1,0.6-0.1,0.9,0.1,1.2c0.1,0.1,0.1,0.3,0.2,0.4c0.1,0.3,0.3,0.5,0.6,0.6
				c0.1,0.1,0.3,0.2,0.7,0.5c0.1,1.5-0.9,1.5-2.2,1.4c-1.2,0-1.5-0.1-2.7,0.3c-1.1,0.3-3.1,0.7-4.1,0.9c-0.8,0.2-1.2,0.3-2.2,0.2
				c-1.4-0.1-2.2,0-4.6,0.4c-1,0.2-1.3,0.2-1.5,0.1c-0.7-0.3-1.4-0.7-1.8-1c-0.1-0.1-0.2-0.1-0.2,0c-0.1,0.4,0.3,0.8,0.6,0.9
				c0,0-0.3,0.1-0.4,0.1c-0.1,0-0.3,0.1-0.4,0.1c-0.3,0-1.3-0.2-2.1-0.3c-0.2,0-0.4,0-0.4,0.2c0,0.1,0,0.2,0,0.2
				c0.1,0.1,0.1,0,0.2,0.2c0,0.2,0.1,0.3,0.3,0.4c0.3,0.2,0.5,0.3,0.7,0.5c0.5,0.3,0.9,0.4,1.5,0.4c0.6-0.1,1.8-0.2,2.3-0.3
				c0.4-0.1,1.2,0,2,0.1c1.1,0.1,1.5,0.2,2.3,0.2c0.9,0.1,1.6,0.1,2.1,0c0.6-0.1,1.2-0.1,1.7-0.1c1.4,0.1,2.1,0,4.1-0.4
				c1-0.2,1.5,0.7,1.5,1.6c2.8,0.2,4.9,0.7,5.2,2.2c0.2-1.1,1.7-1.9,4.2-2.1c0-1.6,0.6-1.8,1.6-1.7c2.2,0.3,3.3,0.4,4,0.4
				c0.9,0,1.3,0,2.2,0.2c0.8,0.1,1.2,0.1,2.4,0c0.8-0.1,1.8-0.2,2.6-0.2c0.6-0.1,1.2-0.1,1.4-0.1c0.5,0.1,1.4,0.2,2,0.2
				c0.7,0.1,1,0,1.5-0.3c0.3-0.2,0.6-0.4,0.8-0.6c0.1-0.1,0.2-0.2,0.2-0.4c0.4-0.1,0.4-0.1,0.5-0.2C90.5,23.2,90.6,23.2,90.5,23.1
				 M71.8,59.6c-0.6-1-0.8-1.7-0.8-2.4c0-0.8,0-1.7,0.2-2.7c0.2-1.3,0.4-2.7,0.5-3.8c-0.5-0.2-1.1-0.4-1.6-0.4
				c-0.5,0-1.2,0.2-1.7,0.6c0.2,1.6,0.4,2.9,0.6,3.9c0.1,0.8,0.2,1.4,0.2,1.8c0,0.5-0.2,0.9-0.2,1.3c0,0.6,0,0.9,0.4,1.5
				c0.4,0.7,0.6,1.2,0.8,1.7c0.1,0.2,0.2,0.4,0.4,0.7c0.3,0.3,0.5,0.3,0.9,0.2c0.3-0.2,0.6-0.3,0.8-0.6
				C72.4,60.7,72.2,60.3,71.8,59.6 M64.9,50.3c-0.4,0-1,0.1-1.3,0.2c0.1,0.9,0.2,1.7,0.3,2.5c0.2,1.3,0.4,2.5,0.5,3.1
				c0,0.3,0,0.5-0.1,0.8c-0.2,0.4-1.1,1.4-1.7,2.1c-0.1,0.2-0.2,0.2-0.4,0.3c-0.4,0.3-0.5,0.4-0.5,0.6c0,0.2,0.1,0.4,0.3,0.5
				c0.2,0.2,0.5,0.4,0.8,0.5c0.3,0.1,0.5,0.1,0.9-0.1c0.4-0.2,0.6-0.4,0.9-0.9c0.4-0.6,0.8-0.9,1.1-1c0.2,0,0.5-0.2,0.7-0.5
				c0.1-0.2,0.2-0.6,0.1-1.1c0-0.4-0.1-0.9-0.2-1.3c-0.1-1.2-0.1-1.7,0.1-3.1c0.1-0.5,0.2-1.3,0.2-2.1
				C66.2,50.5,65.5,50.3,64.9,50.3 M85.3,30.5c-0.4,7.2-0.6,13.8-0.6,20.7c-3.4,0.8-8.8-0.9-11.5-1.6c-1.1-0.3-2.5-0.8-4.3-0.3
				c1.4-0.5,2.9-0.6,6.1-0.2c3.1,0.4,6.6,1.1,8.2,0.6c0-0.5,0-1,0-1.4c-2.3,0.7-7-0.1-10.7-0.3c-1.9-0.1-3.4,0.1-4.8,1.3
				c-0.1-6.2-0.2-18.6-0.1-20.5c0.1-1.3,1.5-1.9,3.8-1.9c3.8,0,6.6,1.5,12.8,1c-0.1,0.9-0.1,1.8-0.2,2.8
				C84.4,30.6,84.9,30.6,85.3,30.5 M78.2,32.2l0.4,0c0.2,0,0.3-0.1,0.3-0.3c0-0.2-0.1-0.3-0.3-0.3l-0.5,0c0-0.1,0-0.3,0-0.4
				c0-0.6,0.2-1.1,0.6-1.3c0.2-0.1,0.2-0.4-0.1-0.4c-0.4,0-1.1,0.5-1.1,1.7c0,0.1,0,0.2,0,0.4l-3.8-0.1c0-0.1,0-0.2,0-0.4
				c0-1.2-0.5-1.7-1-1.7c-0.3,0-0.3,0.3-0.1,0.4c0.4,0.2,0.5,0.7,0.5,1.3c0,0.1,0,0.3,0,0.4l-0.5,0c-0.2,0-0.3,0.1-0.3,0.3
				c0,0.2,0.1,0.3,0.3,0.3l0.4,0c-0.5,1.6-1.9,3.2-2,5.7c-0.1,1.5,0.5,2.7,1,3.6c0.8,1.4,1.1,2.7,1.3,4.7l3.7,0.1
				c0.3-2,0.7-3.2,1.6-4.6c0.6-0.9,1.2-2,1.2-3.5C79.9,35.5,78.6,33.8,78.2,32.2 M75.4,32.1l-0.6,0l-0.3,7.4c0.2,0,0.4,0,0.6,0
				L75.4,32.1z M75.5,39.4c0.2,0,0.4,0,0.6,0l0.3-7.3l-0.6,0L75.5,39.4z M73.8,39.5c0.1,0,0.2,0,0.3,0l0.3-7.4l-0.8,0
				c-0.3,1.9-1.3,3.4-1.4,5.5c-0.1,1.7,0.7,2.6,1.1,2.6C73.7,40.2,73.8,40,73.8,39.5 M78.6,37.8c0.1-2.1-0.8-3.7-1-5.6l-0.8,0
				l-0.3,7.4c0.1,0,0.2,0,0.3,0.1c0,0.5,0.1,0.7,0.5,0.7C77.7,40.3,78.5,39.5,78.6,37.8 M76.1,43.8l-0.4,0.3l-1.3,0l-0.3-0.3l-0.3,0
				l0.1,0.9l2.2,0.1l0.2-0.9L76.1,43.8z M66.7,28.8c0.1,2.4-0.1,14.7-0.3,20.3C65,48,62.3,47.7,58.9,48c-4.2,0.4-5.3,0.6-7.7,0.3
				c0,0.5,0,0.9,0,1.3c2.7,0.7,5.8-0.1,8.3-0.5c2.1-0.4,3.9-0.4,5.3,0.2c-1.6-0.1-3.7,0.5-5.2,0.9c-3.3,0.9-6.8,1.4-10,0.6
				c0.2-7.3,0.1-12.7-0.3-20.3c0.5,0.1,1,0.1,1.6,0c-0.1-1.1-0.2-2.2-0.3-3.4c5.4,0.4,6.8-0.7,12-0.5C65.3,26.8,66.6,27.4,66.7,28.8
				 M64.3,40.7c0.3-0.2,0.5-0.6,0.5-0.9c0-0.1,0-0.3-0.1-0.3c0,0-0.1,0-0.3,0c-1.2,0-3-0.1-4.9-0.2c-0.1-1.5-0.1-3-0.2-4.5
				c1.1-0.7,2.2-1.3,3.2-1.8c0.2-0.1,0.4-0.3,0.6-0.5c0.2-0.2,0.3-0.5,0.3-0.7c0-0.2-0.1-0.3-0.5-0.1c-1,0.4-2.2,1.1-3.6,1.8
				c0-1.1,0-2.1,0-3c0-0.2,0-0.3,0-0.3c-0.1-0.2-0.2-0.2-0.4-0.2c-0.5,0-1.2,0.4-1.2,1.1c0,0.9,0,2.1,0.1,3.4
				c-1.3,0.8-2.7,1.7-3.7,2.6c-1,0.9-1.6,1.7-1.6,2.4c0,0.3,0.1,0.5,0.2,0.6c0.2,0.2,0.4,0.2,0.8,0.3c1.4,0.2,3.1,0.4,4.8,0.5
				c0.2,1.9,0.4,3.8,0.5,5.2c0,0.1,0,0.2,0,0.3c0,0.1,0.1,0.2,0.2,0.2c0.3,0,0.6-0.3,0.8-0.7c0.1-0.2,0.1-0.5,0.1-0.8
				c-0.1-1.1-0.2-2.5-0.3-4.1c1.6,0.1,3,0.1,4.1,0.1C64,40.8,64.2,40.8,64.3,40.7 M54.6,38.6c0-0.2,0.2-0.5,0.6-0.9
				c0.6-0.6,1.6-1.4,2.7-2.1c0.1,1.1,0.2,2.3,0.3,3.5C56.7,39,55.4,38.8,54.6,38.6"/>
		</g>
	</g>
</g>
<g id="JURA">
</g>
<g id="SCI">
</g>
<g id="KU">
</g>
</svg>
