<svg xmlns="http://www.w3.org/2000/svg" viewBox="0 0 109 148"><style>.st1{fill:#fff}.st5{fill:#999632}</style><g id="JURA"><path class="st5" d="M107 39.8c0 21.9-17.8 39.8-39.7 39.8-22 0-39.7-17.8-39.7-39.8C27.6 17.8 45.3 0 67.3 0 89.2 0 107 17.8 107 39.8M37.7 97.8c0 10.4-8.4 18.8-18.8 18.8S0 108.2 0 97.8 8.5 79 18.9 79c10.4-.1 18.8 8.4 18.8 18.8M77.1 138.2c0 5.4-4.4 9.8-9.8 9.8s-9.8-4.4-9.8-9.8 4.4-9.8 9.8-9.8c5.4-.1 9.8 4.3 9.8 9.8"/><path class="st1" d="M61.4 75.2zM61.4 75.2zM83 19.8c-.3-.1-.5-.1-.8 0-.5-.4-.2-.4-1.7-.8-.7-.2-1.6-.4-2.2-.6 0-.3 0-.8.3-1 .3-.4.7-.2.7-.3-.1-1-1.6-.6-1.8-.1-.1.3-.1.7-.2 1.1-.9-.4-4.4-1.5-6.7-2.3l-1.9.7c2.2.7 6.6 2.1 8.4 2.5-.1.3-.3.6-.4.7-.3.4-.8.3-.8.5.3 1 1.5.5 1.7.3.2-.3.3-.9.4-1.2.5.2 1.3.5 1.9.7 1.5.5 1.4.3 2.3.3.1.1.2.3.4.3.4.1.8 0 1-.2-.1-.2-.3-.5-.6-.6"/><path class="st1" d="M69.2 15.4c2.3-.8 4.1-1.5 4.1-1.5.2.1.7.3 1 .2.1 0 .9-.2 1.1-.2.5-.1.6-.1 1.1-.1 0 .1.2.2.5.2s.5-.1.6-.2c.1-.1.1-.2 0-.3-.1-.1-.3-.1-.4-.1h-.6c-.7 0-.8-.4-.1-.5 0 .1 0 .1.1.1.1.1.4.1.6 0 .1 0 .2-.1.2-.2 0 0 0-.1-.1-.1h.2c.1 0 .1-.1.1-.1 0-.1-.2-.3-.2-.3-.1-.3-.2-.3-.3-.3h-.2c-.1 0-.1.1-.2.1 0-.1-.1-.1-.1-.1h-.4c-.2.1-.4.2-.3.3 0 0 .1.1.2.1-1.1.3-1-.2-.7-.4.3-.3.4-.4.3-.5-.1-.1-.2-.1-.3-.2-.2 0-.5 0-.6.2-.1.1-.1.3.1.4-.3.2-.4.3-.8.5-.2.1-.8.4-.9.4-.2.1-.2.5-.2.6 0 0-2.6.7-5.5 1.5-4.1-1.2-7.2-2-8.8-2.1 1 .6 3.4 1.6 6.7 2.7-2.6.7-5.1 1.4-6.2 1.8-1.7.5-.6.7-1.4 1l-.4-.3c-.6.2-1.5.4-2.2.6-1 .3-1.3.6-1.5.9-.3-.1-.6-.1-.8 0-.4.1-.5.6-.3.9.2.2.6.4 1 .2.2-.1.4-.3.5-.5.8 0 1.9-.3 2.5-.5.7-.2 1.2-.4 1.7-.7l.1-.2c.7-.3.3.4 2-.1 1.2-.4 4.2-1.5 7-2.5l1.8-.7zM88.5 27.6c-.8-1.2-2-2.9-4.7-4.2.4 1.5.1 4.6-.1 6 .7-.6 1.1-.9 1.6-1.2.7 1.3.1 7.2-1.1 9.6l-.7-.7s-.1 2.9-1.3 4.5l-.6-1.3s-.7 1.8-2.8 3.4l-.3-1.2s-1.6 1.9-3 2.6l-.2-1.1c-.7.3-2.3.7-3.7.9l.4-1.2c-.8-.2-1.7-.4-2.8-.5-2.3-.3-5-.6-5-.6 1.3-.2 3.2-.1 4.6 0 1.4.1 2.9.3 3.7.5.1-.3.2-.6.4-.9.5-.9.6-1.2.9-1.5-4.2-.2-8.9-.3-8.9-.3 2-.7 7.3-.7 9.6-.5.1-.7.2-1 .5-1.7.2-.6.8-1.4 1.2-1.5-.8.1-2.5.3-4.3.5-2.9.3-6.2.9-6.2.9s1.5-.9 6.3-1.8c2.7-.6 3.9-.7 4.9-.8.1-.7.2-1.1.4-1.5.4-.8.8-1.9 1.3-2.2-2 .3-3 .7-4.9 1.3-2.7.9-6.7 2.4-6.7 2.4s3-2.5 7.4-3.9c2.7-.9 3.4-1.1 4.9-1.3 0-.7.1-1.6.4-2.2.8-1.7 2-2.4 2-2.4s-11.6 2.5-16.2 7.5c-.8.9-3.6 7.9-3.6 7.9s0-.8.2-2.4c-1 0-4.3-.8-4.2-3.5 0-1.8 1.6-2.3 2.4-2.7.3.3.3.6.4 1 .5-.6.6-1 .6-1.6.1-.6-.2-1.7-.5-2.2.3.1 1.1.5 1.5 1.3.3-.6 1-2-.5-3.9 1.3-.2 2.1-2.3 2.3-3.3-.9.8-2.8 1.6-3.6.8-.1-1-3.6-2.7-5.5-2.7-1.3 0-1.3 1.3-1.2 1.7.1.1.6.1.7.1.5-.4 2.3.2 2.9.7.2.2.8.3 1.1.5-.5.6-1.2.2-1.8 0 0 0-.5.4-1 .3-.7-.1-.8-.4-.9-.9-1-.2-2.2-.4-3.2.4-.4.3-.8 1-.6 1.5.4-.4.6-.6 1-.7.1.2 1.1.9 2.8.8 2.3.2 1.8 1.2 1.8 1.5-1.2-.2-2.7-.6-3.8-.6-.7 0-1.3.3-1.5.6.5-.1 1.2-.1 1.6.2 1.3 1 3.9 1.2 5.1.3.1 0 1.3.8-.8 1.7.2.1.7.1 1.1.2.3.1.5.2.4.3-.1.1-2.4-.2-3.1.4.4.3 1.4.5 1.4.5 0 .2 0 .2-.3.3-.6.1-1.5-.2-2-.7 0 0-.6.1-.9.4.3.5 1.9 1 1.9 1-.1.1-.2.3-.6.2-.7-.1-1.1-.3-1.7-.8-.3.1-1 .4-1.3.8 0 0 .9.5 1.8.9 0 .2-.2.3-.5.3-.8-.1-1.1-.3-1.7-.5-.3.3-.5.7-.7 1 .6.4 1.5.5 2.1.6.1.3-.7.3-2 .1h-.2c-.2.4-.5 1.1-.5 1.6 0 0 1.3-.1 2.9 0 0 0 .5.2.1.2-.6.1-1.9.1-3.1.1-.2.4-.3 1.2-.2 1.6.9 0 1.9-.1 3.9 0 0 0 .4.2.1.2-.6.1-2.3.1-3.7.3-.2.4-.2 1.2-.1 1.8 2-.1 4.7-.4 4.7-.4s.4.2 0 .3c-.6.2-2.9.5-4.2.7-.1.5-.1 1.2.2 2 2-.3 4.9-.7 4.9-.7s.3.1 0 .3c-.6.2-2.9.7-4.1 1 0 .7.2 1.4.6 2.1 1.8-.5 4.8-1.3 4.8-1.3s.3.1-.1.3c-.6.3-2.6 1-3.7 1.5.2.8.6 1.4 1.1 2 1.6-.7 3.9-1.8 3.9-1.8s.4 0 .1.2c-.4.3-1.8 1.3-2.7 1.8 1 1 2 1.9 3.1 2.6-.1.7-.4 1.8-.7 1.8-1-.3-3.5-.9-6.4-2.4-.6-2.2-2.1-3.5-2.5-3.8-.7-.3-1.2-.1-1.7.1-.3.1-.6.4-.6.6l.6-.1c.5.8 1.3.6 1.7.4.1.2 1 .7.8 1-.7 0-2.2-.3-3 0-1 .4-1 1.1-1 1.7.3-.3.5-.5.9-.3.7 0 1.2-.4 1.4-.8.5-.4 1.5-.1 1.8.5-.1.2-1.8.3-2.5 1-.5.4-.4 1.1-.4 1.7.2-.2.4-.7.6-.7.8.2.5-.3 1.4-.9.2-.2 2-.9 2.1 1.1-.5.6-.7 1.5.1 1.5.1.2.2.4 0 .8.5-.3 1-.6 1-1.4-.1-.6-.4-.9-.3-.9.7.3 2.6 1.3 3.7 1.8 1.8.7 3.2 1.6 4.4 1.4.5-.2 1.1-1.8 1.2-2.4-.1-.2-.2-.4-.4-.6 1.2.5 2.4.8 4 1l1-4 .5 6.1h.5s.1 2.1.1 2.2c-1 1.1-3-.7-4.4.2-.3.2-.6.8-.6 1.3.3-.4.6-.5.8-.5.5.6 1.2.6 1.9.1.1.1 1.1.1 1.1.4-.6.2-2.1.7-2.9 1.2-.7.4-.4 1.2-.3 1.6.2-.1.2-.5.5-.6.6.3 1.7.1 1.8-1.1.3-.1 1-.6 1.3-.4 0 .5-1.2 1.5-1.3 1.9-.3.7-.2 1.2.3 1.7l.1-.6c2.6.1.3-2.5 2.3-3 .6-.4 1.5.2 1.9.4 1 .4 1.5 0 1.8-.5.2 0 .2.3.5.4v-.8c-.7-1.3-2.6.2-3.2-1 0-.1-.1-1.7-.2-2.8h1.3l.5-2.3c13.7 1.1 19.9-15 16.3-25.9 0 .2 1 .1 1.8.1"/><path class="st1" d="M52 26.5s.1 0 0 0c.1 0 0 0 0 0h-.4c-.4 0-1.1.1-1.7.1-.6 0-3.4-.3-5-.9-.2.3 0 .6.2.8 1 .7 3.6.6 5.8.2-1 .4-2.7 1-4 .9.1.3.3.6.7.8 1.6.5 3.4-1.5 5-1.8 0 .1-.2 0-.6-.1M84.5 58.5c.1 0 .2.1.2.2l-.1.1c-.2.2-.2.3.2.7.2.3.7.8.9 1 .2.2.4.5.7.3.1 0 .1-.1.1-.1.1 0 .2.1.2.2-.4.4-.9.8-1.2 1.1-.1 0-.2-.1-.2-.2.1 0 .1-.1.1-.1.2-.3.1-.5-.2-.7-.3-.4-.7-.8-.9-1-.3-.4-.4-.4-.7-.3l-.1.1c-.1 0-.2-.1-.2-.2.5-.5.9-.8 1.2-1.1M70.1 65c0 .1.1.2 0 .3h-.2c-.3.1-.3.1-.3.7 0 .4.1 1.1.1 1.3 0 .3 0 .6.4.6h.2c.1 0 .1.2 0 .3-.6.1-1.2.1-1.6.1-.1 0-.1-.2 0-.3h.1c.3-.1.3-.3.3-.7 0-.5-.1-1-.1-1.3 0-.5-.1-.6-.4-.6h-.2s-.1-.2 0-.3c.7 0 1.2 0 1.7-.1M45.3 52.3c0 .1-.2.2-.2.2 0-.1-.1-.1-.1-.1-.2-.2-.3-.3-.8 0-.3.2-.9.5-1.2.6-.2.1-.6.3-.4.6 0 .1 0 .1.1.1 0 .1-.2.2-.2.1-.3-.5-.6-1.1-.8-1.4 0-.1.2-.2.3-.1 0 .1.1.1.1.1.2.3.4.2.7 0 .4-.2.9-.5 1.2-.6.4-.2.5-.3.4-.6 0 0 0-.1-.1-.2 0-.1.2-.1.3-.1.2.5.5 1 .7 1.4M42.3 36.1H42v-.2c0-.3 0-.4-.6-.4-.4-.1-1-.2-1.3-.2-.3 0-.6-.1-.7.2v.2c-.1.1-.2 0-.3 0 .1-.6.2-1.2.3-1.6.1-.1.2 0 .3.1v.1c0 .3.2.4.6.5.5.1 1 .2 1.3.2.5.1.6.1.7-.2v-.2c.1 0 .2 0 .3.1-.2.5-.3 1-.3 1.4M92.7 39.8h.3v.2c0 .3.1.3.7.3H95c.3 0 .6 0 .7-.3v-.2c.1-.1.2-.1.3 0v1.6c-.1.1-.2 0-.3 0v-.1c0-.3-.3-.4-.6-.4h-1.3c-.5 0-.6 0-.7.3v.2h-.3c-.1-.7-.1-1.2-.1-1.6M87.3 55.8c.3.1.5.3.7.4 0 .1-.1.2-.2.3-.3-.1-.7-.4-1.1.1-.3.3-.2.6-.1.8.2.2.5.2 1 0 .7-.3 1-.3 1.2-.1.3.2.8.8.1 1.6-.3.4-.6.5-.7.6-.1 0-.5-.3-.6-.5 0-.1 0-.2.2-.2.1 0 .5.3.9-.1s.2-.7 0-.8c-.2-.2-.4-.1-.9.1-.4.2-.9.4-1.4 0-.4-.4-.4-1 0-1.5.5-.6.9-.7.9-.7M66.7 65.3c.1.4.1.6.1.8-.1 0-.2.1-.3 0-.1-.3-.1-.8-.8-.8-.4 0-.6.2-.6.4-.1.3.2.5.6.8.7.3.8.6.9.9.1.4-.1 1.1-1.2 1-.5 0-.8-.1-.9-.2 0-.1-.1-.6 0-.8.1-.1.2-.1.3 0 0 .1 0 .6.6.6.5.1.6-.3.7-.5 0-.3-.2-.4-.7-.6-.4-.2-.9-.5-.9-1.1 0-.6.6-1 1.2-.9.6.2 1 .4 1 .4M41.9 40c-.4.1-.6.1-.8.1 0-.1-.1-.2 0-.3.3-.1.8-.2.8-.8 0-.4-.2-.6-.4-.6-.3 0-.5.2-.7.7-.3.7-.6.8-.9.9-.4.1-1.1-.1-1.1-1.1 0-.5.1-.8.1-1 .1 0 .6-.1.8-.1.1.1.1.2 0 .3-.1 0-.6 0-.6.6 0 .5.3.6.5.6.3 0 .4-.2.6-.7.2-.4.4-.9 1.1-.9.6 0 1 .5 1 1.2-.2.8-.4 1.1-.4 1.1M42.9 32.7c-.4 0-.6-.1-.8-.1 0-.1 0-.2.1-.3.3 0 .8.1 1-.6.1-.4-.1-.6-.3-.7-.3-.1-.6.1-.9.5-.5.6-.8.7-1.1.6-.4 0-1.1-.4-.7-1.4.2-.5.3-.7.4-.9.1 0 .6.1.8.1.1.1 0 .2-.1.3-.1 0-.6-.1-.8.4-.2.5.1.7.3.7.3.1.4-.1.8-.5.3-.4.7-.8 1.3-.6.5.2.8.8.6 1.4-.3.9-.6 1.1-.6 1.1M92 31.6c.8-.7.9-.8 1.6-1.3.2-.2.3-.3.5 0 0 .1 0 .1.1.1s.2 0 .2-.1c-.2-.5-.3-.9-.6-1.4-.1 0-.2 0-.2.1s0 .1.1.2c.1.3 0 .4-.3.6-.2.1-2 1.6-2.1 1.7v.1s.2.3.3.4c.8 0 2.1.1 2.6.2.5 0 .6.1.6.3v.2c.1 0 .2 0 .3-.1-.1-.4-.2-.9-.4-1.2-.1-.1-.2 0-.3.1v.1c0 .2 0 .3-.4.3-.6-.2-1.4-.3-2-.3M92.8 44.7c1.1-.2 1.2-.2 2-.3.3 0 .4-.1.4.2v.1c.1.1.2.1.3 0 .1-.5.2-1 .2-1.5-.1-.1-.2-.1-.3 0v.2c-.1.2-.2.3-.6.4-.2 0-2.6.4-2.6.4-.1 0-.1.1-.1.1s.1.3.1.5c.7.4 1.7 1.1 2.2 1.4.4.3.5.4.4.5v.2c0 .1.2.1.3.1.1-.4.2-.9.3-1.2 0-.1-.2-.1-.3-.1v.1c-.1.2-.1.3-.5 0-.5-.3-1.2-.7-1.8-1.1M91.9 53.9c-.6-.3-1.5-.8-1.7-1-.4-.2-.5-.3-.7 0l-.1.1c-.1 0-.2-.1-.2-.1.3-.4.5-.9.7-1.3.1 0 .2.1.2.1 0 .1 0 .1-.1.1-.1.3 0 .3.4.6.3.2 1 .5 1.2.6.5.3.5.4.7 0 0-.1 0-.1.1-.1s.2.1.2.1c-.4.8-.7 1.2-.8 1.4-.1.1-.2.3-.3.4-.2.3-.7.7-1.3.3-.4-.3-.4-.7-.3-1-.3 0-.7.1-1.1.1-.4.1-.5.1-.6.3l-.1.1c-.1 0-.2-.1-.2-.2s.3-.4.5-.8c.2 0 1.6-.2 1.9-.2l.1.1c-.1.2-.2.4-.1.6.1.2.2.3.3.3.1.1.3.1.5.1s.3-.2.4-.3c.2.1.3-.1.4-.3M77.7 63c-.1.1 0 .2.1.2h.1c.2-.1.3 0 .3.4v.4c-.2.1-1 .4-1.1.5-.1-.1-.1-.1-.2-.3-.2-.2-.3-.3-.1-.4h.1c0-.1 0-.2-.1-.2-.2.1-.7.3-1.3.5-.1.1 0 .2.1.3h.2c.3-.1.5.2.6.3.2.2 1.8 2 1.8 2h.1l.3-.3v-2.6c0-.5.1-.6.2-.7.1 0 .1-.1.1-.1 0-.1-.1-.2-.1-.2-.5-.1-1 .1-1.1.2m.5 2.6l-1-1 .9-.4.1 1.4zM54.4 61.6c-.1 0-.2.2-.2.2l.1.1c.2.2.1.2-.1.4-.2.1-.2.2-.3.2-.1-.1-.9-.5-1-.6 0-.1 0-.1.1-.4.1-.2.1-.4.3-.3.1 0 .1 0 .1.1.1 0 .2-.2.1-.2-.2-.1-.6-.4-1.1-.8-.1 0-.2.2-.2.2l.1.1c.2.2.1.6.1.7 0 .2-.6 2.6-.6 2.6v.1s.3.1.4.1c.1-.1 1.7-1.2 2.1-1.5.4-.3.5-.3.7-.2.1 0 .1.1.1.1.1 0 .2-.2.1-.2-.2-.3-.6-.6-.8-.7m-1.9 1.9l.3-1.4.8.5-1.1.9zM83.3 62.5c0 .1.1.2.1.4 0 .1 0 .3-.3.5-.1 0-.2.1-.4.2 0 0-.8-1.3-1-1.6-.3-.5-.3-.6-.1-.8l.1-.1c0-.1-.1-.2-.2-.2-.4.3-.9.6-1.3.8 0 .1.1.2.1.2.1 0 .1 0 .2-.1.3-.1.4 0 .6.4.1.2.1.2 1 1.6-.2.1-.4.3-.5.3-.3.1-.4 0-.5-.1-.1.1-.1 0-.2-.1-.1 0-.2.1-.2.2.1.1.4.6.5.8 1.1-.6 1.7-1 2.7-1.7 0 0-.3-.7-.3-.8-.2-.1-.3 0-.3.1M75 66.4c0 .1 0 .2-.1.4 0 .1-.1.3-.4.4-.1 0-.2.1-.4.1 0 0-.4-1.5-.5-1.9-.1-.5-.1-.6.2-.7h.1c0-.1 0-.2-.1-.3-.4.1-1 .2-1.5.3v.3h.2c.3 0 .3.1.5.6.1.3.1.2.4 1.9-.2.1-.5.1-.6.1-.3 0-.4-.2-.5-.2 0-.1-.1-.2-.1-.2-.1 0-.2 0-.3.1 0 .1.2.7.2.9 1.2-.2 1.9-.4 3.1-.7v-.9c0-.3-.1-.2-.2-.2M92.2 34.4c0-.1.2-.1.3-.1v.2c.1.2.2.3.7.2.4-.1 1-.2 1.3-.2.4-.1.6-.1.6-.4v-.2c0-.1.2-.1.3-.1 0 .2.1.7.2 1v.1c-.1 0-.1.1-.3.2-.1.1-.5.5-.9 1-.5.6-.8.9-.9 1.1.2 0 1.2-.1 1.4-.1.5-.1.6-.1.6-.4v-.2c.1-.1.2-.1.3 0 .1.4.1 1 .1 1.3 0 .1-.2.1-.3 0v-.1c0-.2-.1-.3-.7-.2-.4 0-2.1.1-2.3.2-.1 0-.1-.1-.1-.2.4-.5.9-1.1 1.4-1.7.5-.5.8-.9 1-1.1-.2 0-1.3.2-1.6.3-.5.1-.6.2-.6.4v.2c-.1.1-.2.1-.3 0 0-.2-.2-.9-.2-1.2M58.6 63.6c-.1 0-.1.2-.1.3.1 0 .1.1.1.1.3.1.2.3.1.7 0 .1-.1.3-.2.5 0 0-.4-.2-.8-.3-.4-.1-.8-.3-.8-.3.1-.2.2-.4.2-.5.2-.5.3-.6.6-.5h.1c.1 0 .1-.2.1-.3-.5-.2-1-.4-1.4-.6-.1 0-.2.2-.1.3.1 0 .1.1.1.1.2.1.2.3 0 .7l-.6 1.2c-.1.3-.3.6-.6.5h-.1c-.1 0-.1.2-.1.2.3.2.9.4 1.5.6.1 0 .1-.2.1-.3 0 0-.1 0-.1-.1-.3-.1-.2-.4-.1-.7 0-.1.1-.3.2-.4 0 0 .5.2.8.3.3.1.8.3.8.3-.1.2-.1.3-.1.5-.1.3-.2.6-.6.5h-.1c-.1.1-.1.2-.1.3.4.1 1 .3 1.5.5 0 0 .1-.2.1-.3h-.1c-.3-.1-.2-.3-.1-.7.1-.2.3-.9.4-1.3.2-.5.2-.6.5-.5h.1c.1 0 .1-.2.1-.3-.3-.1-.8-.3-1.3-.5M91.6 47.4c.1 0 .2 0 .3.1v.1c-.1.3 0 .4.5.6.4.1.9.3 1.3.4.4.1.6.2.7-.1v-.1c.1 0 .2 0 .3.1-.2.7-.6 1.7-1 2.7-.2-.1-.6-.2-.8-.3 0-.1 0-.2.1-.3h.3c.1 0 .3 0 .5-.3.1-.2.3-.6.3-.8 0-.1 0-.2-.1-.2s-.8-.3-.9-.3c-.3.7-.3.9-.3.9-.1 0-.2 0-.3-.1l.3-.9s-.5-.2-.6-.2c-.5-.2-.5-.1-.7.3 0 .1-.1.2-.1.3-.1.3 0 .5.2.7.1.1.1.1.2.1 0 .1 0 .2-.2.3-.1-.1-.7-.4-.8-.5.2-.7.5-1.6.8-2.5M43.9 49.4c0 .1-.2.1-.2.1 0-.1 0-.1-.1-.1-.1-.2-.2-.3-.8-.1-.4.2-.9.4-1.2.5-.4.2-.6.2-.5.6v.1c0 .1-.2.1-.2.1-.3-.6-.6-1.7-.9-2.7.2-.1.6-.3.8-.3.1.1.2.2.1.3-.1 0-.2.1-.3.2-.1.1-.2.2-.2.5.1.3.2.6.3.8.1.1.1.1.2.1s.8-.3.9-.3c-.2-.7-.3-.9-.3-.9.1-.1.2-.1.3-.1l.3.9s.5-.2.6-.2c.5-.2.4-.3.3-.6 0-.1-.1-.2-.1-.3-.1-.3-.3-.4-.6-.4h-.2c-.1-.1-.1-.2 0-.3.1 0 .8-.1.9-.1.3.5.6 1.4.9 2.2M48.4 56.6c0 .1-.1.2-.2.2l-.1-.1c-.2-.2-.3-.1-.7.2-.3.3-.8.6-1 .9-.4.2-.6.3-.4.6l.1.1c0 .1-.1.2-.2.2-.1-.1-.5-.5-.6-.7l-.1-.1c0-.1.1-.1.1-.3 0-.2.2-.7.3-1.4.1-.7.2-1.2.2-1.4-.2.1-1 .6-1.2.8-.4.3-.5.4-.3.7l.1.1c0 .1-.1.2-.2.2-.3-.4-.6-.8-.7-1.1 0-.1.1-.2.2-.1l.1.1c.2.2.2.2.7-.1.3-.2 1.8-1.2 1.9-1.3.1 0 .2 0 .2.1-.1.6-.2 1.4-.4 2.1-.1.7-.2 1.1-.3 1.5.2-.1 1-.8 1.3-1.1.4-.3.4-.5.3-.7 0-.1-.1-.1-.1-.1 0-.1.1-.2.2-.2.1.2.6.7.8.9M42.6 45.3c0 .1-.2.1-.3.1v-.2c-.1-.2-.2-.3-.7-.2-.4.1-1 .2-1.3.3-.4.1-.6.1-.6.4v.2c-.1.1-.2.1-.3.1 0-.2-.1-.7-.2-1v-.1c.1 0 .1-.1.2-.2s.5-.5.9-1c.5-.6.8-1 .9-1.1-.2 0-1.2.1-1.4.1-.5.1-.6.1-.6.4v.2c-.1.1-.2.1-.3 0-.1-.5-.1-1-.1-1.3 0-.1.2-.1.3 0v.1c0 .2.1.3.7.2.4 0 2.1-.1 2.3-.2.1 0 .1.1.1.2-.4.5-.9 1.1-1.3 1.7-.5.5-.8.9-1 1.1.2 0 1.3-.2 1.6-.3.5-.1.6-.2.6-.4v-.2c.1-.1.2-.1.3 0 0 .1.2.8.2 1.1M49.9 58.6l.1.1c.2.2.3.4 0 .7l-.4.4c-.3-.2-.4-.4-.7-.6-.1 0-.2.1-.2.3.3.2.4.3.7.6-.1.1-.6.7-.7.8-.1.1-.1.1-.2 0s-.3-.2-.5-.5c-.4-.4 0-.9.1-1.1 0-.1-.1-.2-.3-.2-.2.2-.5.7-.7.9.9.9 1.4 1.3 2.1 1.9.1 0 .2-.1.2-.2l-.1-.1c-.2-.2-.1-.4.2-.7.2-.2.5-.6.9-1 .4-.5.5-.4.7-.3l.1.1c.1 0 .2-.1.2-.2-.4-.4-.9-.7-1.2-1.1-.2 0-.3.1-.3.2M95.7 26.3c-.7-1.4-1.6-3-2-3.6.1-.1.2-.2.4-.2.1.1.1.1.1.2.3.3.4.3 1.2-.1.5-.3 1.5-.9 1.8-1.1.4-.2.9-.4.6-1l-.1-.2c0-.1.2-.3.4-.2.5.8 1 1.6 1.3 2.1 0 .1-.2.2-.4.2-.1-.1-.1-.1-.1-.2-.3-.5-.8-.2-1.2.1-.7.4-1.3.7-1.8 1.1-.7.4-.8.5-.6.9 0 .1.1.3.2.5s.3.5.5.6c.2.1.6.2.7.1.1 0 .3 0 .4-.1.1 0 .2.2.1.4-.3.2-.8.4-1.5.5M98 33c-.3-1.6-.9-3.3-1.2-3.9.1-.1.3-.2.4-.2 0 .1.1.2.1.2.2.4.4.4 1.2.2.5-.2 1.7-.6 2-.7.4-.1 1-.2.8-.8 0-.1 0-.1-.1-.2 0-.1.3-.2.4-.2l.8 2.4c0 .1-.3.2-.4.1 0-.1-.1-.1-.1-.2-.2-.5-.7-.3-1.2-.2-.7.2-1.4.4-2 .6-.7.2-.9.3-.8.7 0 .1.1.3.1.5.1.2.2.5.4.7.2.2.5.3.6.3h.4c.1.1.2.2 0 .4s-.7.3-1.4.3M88.6 15.6c-.1.2-.3.3-.4.6-.4-.2-1-.5-1.8-1-.6-.5-1.3-1.2-1.3-2.5.1-1.1.8-2 1.6-2.4 1.1-.5 2.2 0 3 .6.9.7 1.2 1.2 1.4 1.3-.3.4-.5.7-.8 1.2-.1 0-.4-.1-.4-.2.1-.2.2-.5.2-.9s-.2-.7-.7-1.1c-.5-.4-2-.9-3 .8-1 1.6-.1 2.5.2 2.8.2.2.3.2.4.3.3.2.5.2.7-.1l.3-.3c.2-.3.3-.4 0-.7-.1-.2-.2-.2-.3-.3 0-.1.1-.3.3-.3.6.6 1.3 1.1 1.8 1.4 0 .1-.1.4-.3.4-.1 0-.1-.1-.2-.1-.2-.1-.3-.2-.6.2.1.1 0 .2-.1.3M35.2 42.2c-1.6.7-1.8.9-3 1.4-.5.2-.6.3-.7-.1v-.2c-.1-.1-.4 0-.4.1l.3 2.4c.1.1.4 0 .4-.1v-.3c0-.4.2-.6.7-.8.3-.2 3.8-1.7 3.9-1.8.1 0 .1-.1.1-.2 0 0-.2-.5-.3-.7-1.3-.4-3.2-1-3.9-1.3-.7-.3-.9-.4-.9-.7v-.3c-.1-.1-.4-.1-.4 0v2c.1.1.3.1.4 0v-.2c0-.3.1-.4.7-.3.9.4 2.1.8 3.1 1.1M76.6 70.7c1 1.4 1.2 1.5 2 2.7.3.4.4.6 0 .7-.1 0-.2.1-.2.1-.1.1 0 .4.1.4.7-.2 1.5-.5 2.3-.8.1-.2-.1-.3-.1-.4-.1 0-.2.1-.3.1-.4.1-.6 0-.9-.5-.2-.3-2.5-3.3-2.6-3.4-.1-.1-.1-.1-.2 0 0 0-.5.3-.7.5-.1 1.3-.3 3.3-.4 4.1-.1.8-.2.9-.5 1-.1 0-.2 0-.3.1-.1.1 0 .4.1.4.6-.1 1.4-.3 2-.5.1-.1 0-.4-.1-.4h-.2c-.3 0-.5 0-.4-.6.2-1.2.3-2.4.4-3.5M99.6 37.6c1.6-.7 1.8-.8 3-1.4.5-.2.6-.3.7.1v.2c.1.1.4.1.4 0l-.3-2.4c-.1-.1-.4 0-.4.1v.3c0 .4-.2.6-.7.8-.3.2-3.8 1.7-3.9 1.8-.1 0-.1.1-.1.2 0 0 .2.5.3.7 1.3.4 3.2 1 3.9 1.3.7.3.9.4.9.7v.3c.1.1.3.1.4 0v-2c-.1-.1-.3-.1-.4 0v.2c0 .3-.1.5-.7.3-.9-.5-2.1-.9-3.1-1.2M67.4 71.2c1.6 0 3.4-.2 4.1-.3.1.1.1.3.1.4h-.2c-.4.1-.5.2-.4 1.1.1.6.2 1.8.2 2.1 0 .4 0 1 .6 1h.2v.5c-1 .1-1.9.2-2.5.2-.1-.1-.1-.3 0-.4h.2c.5-.1.5-.6.4-1.1-.1-.7-.1-1.5-.2-2.1-.1-.8-.1-.9-.5-1h-.5c-.2 0-.6.1-.8.2-.2.1-.4.5-.4.6 0 .1-.1.3-.1.4-.1.1-.3.1-.4-.1-.1-.3 0-.9.2-1.5M98.9 44.4c-.1.1-.3.1-.4-.1.1-.8.2-1.3.2-2 .1-.1.3-.1.4 0v.2c0 .3 0 .5.8.7.5.2 2 .5 2.3.6.5.1 1 .2 1.1-.3v-.2c.1-.1.3-.1.4 0-.1.7-.1 1.2-.2 1.9-.3 0-.5 0-1 .1-.6.2-2.2.5-2.9.8.3.3 2.2 1.7 2.3 1.7.3.2.6.4 1 .6-.1.5-.3 1.3-.5 1.9-.1.1-.3 0-.4-.1V50c.1-.3 0-.5-.6-.6-.7-.1-1.8-.4-2.4-.4-.7-.1-1.1-.1-1.2.2-.1.2-.1.2-.1.3-.1.1-.4 0-.4-.1.4-1.2.4-1.5.6-2.2.1-.1.3 0 .4.1v.2c0 .3-.1.4.8.6.7.1 2.4.4 2.8.5-.4-.3-1.8-1.3-2.5-1.8-.7-.6-1-.7-1.2-.9 0-.1 0-.2.1-.3.1 0 .7-.1 1.4-.3.7-.2 2.6-.6 3-.7-.6-.2-2.1-.5-2.6-.6-.6-.1-1.1-.2-1.1.2l-.1.2zM68.2 5.8c0 .4-.4.8-.8.8s-.8-.4-.8-.8.4-.8.8-.8.8.4.8.8M35.8 22.2c0-.1.1-.2.2-.3.2-.2.4-.3 1 .2l2.1 1.2c.6.4.6.4.5.8l-.1.2c0 .2.2.3.4.2l.6-1 .7-1.1c.7-1 1.2-2.7-.3-3.8-2-1.5-3.5.3-4.2 1.3-.3.5-.7 1-1.2 2 0 .2.2.4.3.3m1.2-1.7c0-.1.1-.2.2-.3.7-1.2 1.8-1.5 2.9-.8.9.6 1.1 1.2 1.1 1.7 0 .3-.1.7-.3 1.1-.2.3-.3.4-.5.5-.2.1-.5-.1-.8-.3 0 0-2.4-1.5-2.5-1.6-.2 0-.2-.1-.1-.3M73.3 8.6c0-.6.1-1 .2-1.3.1-.1.4 0 .5.1 0 .5-.1 1.3.9 1.5.6.2 1-.1 1.1-.4.2-.5-.1-.9-.7-1.4-.9-.8-1.1-1.2-1-1.7 0-.6.6-1.7 2.2-1.2.8.2 1.1.5 1.3.6 0 .1-.1.9-.2 1.2-.1.1-.3.1-.4-.1 0-.1.2-.9-.7-1.2-.8-.3-1.1.2-1.2.5-.1.4.2.7.8 1.2.6.5 1.2 1 1 2-.2.9-1.2 1.3-2.2 1-1.2-.3-1.6-.8-1.6-.8M42.2 58.9c-.4.5-.7.7-.9.9-.1 0-.3-.2-.3-.4.3-.4.9-.9.3-1.8-.4-.5-.8-.5-1.1-.4-.5.2-.5.7-.3 1.5.2 1.2.1 1.6-.3 1.9-.4.4-1.5.9-2.5-.5-.5-.7-.6-1.1-.7-1.3.1-.1.7-.6.9-.8.2 0 .3.1.3.3-.1.1-.7.6-.2 1.4.4.7 1 .5 1.2.3.3-.3.3-.6.1-1.5-.1-.7-.3-1.6.5-2.2.7-.5 1.7-.2 2.3.7.7 1.3.7 1.9.7 1.9M31.7 34.7c1 .1 2.7.4 3.1.4.8.1 1 .1 1.1-.4 0-.1 0-.2.1-.2.1-.1.3 0 .4.1-.1.8-.2 1.7-.3 2.4-.1.1-.4 0-.4 0v-.2c0-.4-.1-.5-1-.6-.6-.1-1.7-.2-2.1-.3-.9-.1-1-.2-1.1.4v.2c-.1.1-.4 0-.4 0 .1-1.4.3-2.3.3-2.5 0-.2.1-.6.1-.8.2-.6.6-1.4 1.7-1.2.8.2 1 .7 1.1 1.3.5-.2 1-.5 1.5-.9.5-.3.6-.4.7-.8 0 0 0-.1.1-.2.1 0 .3 0 .4.1 0 .1-.2.8-.4 1.4-.3.2-2.2 1.2-2.6 1.5l-.2-.2c0-.3 0-.7-.3-.9-.3-.2-.5-.3-.7-.3-.2 0-.5 0-.8.1-.2.2-.4.5-.4.7 0 .2-.1.4-.1.6.2.2.2.3.2.3M89.9 61.7c0 .2.2.3.3.3.1 0 0 0 .1-.1.3-.2.4-.1.6.4.1.3.2.4.2.5-.2.2-1.2 1.2-1.4 1.3-.2-.1-.2-.1-.5-.3-.3-.2-.6-.3-.3-.6l.1-.1c0-.2-.2-.3-.3-.3-.2.2-.9.8-1.7 1.5 0 .2.2.3.3.3l.2-.2c.3-.3.9.1 1.1.2.3.1 3.8 1.8 3.9 1.9h.1s.2-.5.3-.7c-.1-.2-1.3-3.1-1.6-3.8-.3-.8-.2-1-.1-1.2.1-.1.1-.2.1-.2 0-.1-.2-.3-.3-.3-.3.5-.9 1.2-1.1 1.4m2.3 3.5l-2-1 1.1-1.1.9 2.1zM57.3 69.5c-.2.1-.2.3-.2.4.1 0 .1 0 .2.1.4.2.3.3-.1.7-.2.3-.2.4-.3.4-.2-.1-1.5-.6-1.8-.7v-.6c0-.4 0-.7.4-.6.1 0 .1 0 .2.1.1-.1.2-.3.2-.4-.3-.1-1.1-.5-2-.9-.2.1-.2.3-.2.4.1.1.2.1.2.1.4.2.3.8.3 1.1v4.3c0 .1 0 .1.1.1h.7c.2-.2 2.3-2.5 2.8-3.1.6-.6.7-.6 1-.6h.2c.1-.1.2-.3.1-.4-.6 0-1.6-.3-1.8-.4m-2.2 3.7V71l1.5.6-1.5 1.6zM64.8 74.8c-.1.2-.1.3-.3.5-.1.2-.4.3-.9.3-.1 0-.4 0-.7-.1 0 0 .3-2.5.4-3 .1-.9.2-1 .6-1h.2c.1-.1.1-.3 0-.4-.7-.1-1.7-.2-2.4-.3-.1.1-.2.4-.1.4s.2 0 .3.1c.4.1.4.4.3 1.1-.1.4 0 .4-.5 3-.4-.1-.8-.1-.9-.2-.5-.1-.5-.5-.5-.6v-.4c0-.2-.3-.2-.3-.1 0 .2-.1 1.2-.2 1.5 2.1.4 3.1.6 5 .7 0-.1.4-1.2.5-1.3-.2-.2-.4-.3-.5-.2M50.2 70.4c-.1.1-.3.3-.5.4-.2.1-.5.1-.9-.1-.1-.1-.3-.2-.6-.4 0 0 1.3-2.1 1.6-2.6.5-.7.6-.8 1-.6.1 0 .1.1.2.1s.2-.3.2-.4c-.6-.4-1.4-.9-2.1-1.3-.1 0-.3.2-.3.3l.2.2c.3.3.3.5-.2 1.2-.2.4-.2.3-1.7 2.5-.3-.2-.6-.4-.8-.5-.4-.3-.3-.7-.2-.8 0-.1.1-.3.2-.4-.1-.1-.3-.3-.4-.2-.1.2-.6 1-.8 1.2 1.7 1.2 2.6 1.8 4.2 2.8l1-1c.3-.2.1-.4-.1-.4M93.6 57.9l.2-.2c.3-.3.5-.5 1.1-.1.1.1.6.4.8.5-.3.5-.5.7-.8 1.2.1.2.3.3.4.3.3-.5.5-.7.8-1.2.1.1 1.2.8 1.4.9.1.1.2.2.1.4s-.3.5-.6.9c-.5.6-1.4.2-1.7.1-.3-.1-.4.1-.3.3.4.2 1.2.7 1.5.9 1.2-1.6 1.8-2.5 2.5-3.7 0-.1-.2-.2-.4-.2 0 0-.1.1-.1.2-.3.4-.6.2-1.2-.1-.3-.2-1.1-.7-1.8-1.1-.8-.5-.8-.7-.6-1.1 0-.1 0-.1.1-.1-.1-.1-.3-.2-.4-.2-.4.7-.9 1.5-1.4 2.2.1-.1.3 0 .4.1M55.5 5.3c0 .1 0 .3.1.4.2-.1.4-.1.5 0 .1.1.1.2.1.5 0 .1-.3 2.9-.4 3.4-.1.5-.3.6-.4.6-.1 0-.2.1-.3.1-.1.2 0 .4.2.4.4-.2 1.1-.4 1.7-.7.1-.1.1-.4-.1-.4-.1 0-.2 0-.3.1-.1 0-.3-.1-.2-.4 0-.2.1-.9.1-1.2.2-.1 1.5-.5 1.6-.5 0 0 .3.7.4.9.1.4 0 .5-.2.6 0 0-.2.1-.3.1-.1.1 0 .4.1.4 1.3-.4 2.3-.6 4-.9 0-.7-.1-1.3-.1-1.6-.1-.2-.4-.1-.5 0v.3c-.1.6-.3.8-.7.9-.2.1-.3.1-.7.2-.4.1-.6-.1-.8-.6-.1-.3-.4-.9-.4-1.1.2-.1 1.2-.3 1.4-.3 0-.1 0-.4-.2-.5-.3.1-1.1.3-1.4.3-.1-.2-.5-1.2-.6-1.5-.1-.1 0-.2.2-.2.1 0 .5-.1 1-.2.6-.1.8.1.9.2.1.1.2.3.3.4.3.1.5-.1.5-.2-.1-.3-.4-.9-.6-1.3-1 .2-2.1.5-3 .7-.7.6-1.1.8-1.9 1.1m1.6 0c.1 0 .2 0 .2.1.1.3.7 1.6.7 1.9-.3.1-1.2.4-1.4.4.1-.5.2-2 .2-2.2.1-.1.2-.2.3-.2M37.6 49.9c-.1.1-.3.2-.4.2 0-.1-.1-.2-.1-.3-.2-.4-.3-.5-1.2-.2-.6.2-1.6.5-2 .6-.4.1-1 .2-.8.8 0 .1 0 .2.1.2-.1.1-.3.2-.4.2-.3-.9-.6-1.9-.7-2.5 0-.1.3-.2.4-.1 0 .1.1.2.1.2.2.5.6.4 1.2.3.8-.2 1.6-.5 2-.6.7-.2.9-.3.9-.8 0-.1 0-.2-.1-.3.1-.1.3-.2.4-.1.2.9.4 1.7.6 2.4M46.3 63c0 .1-.2.3-.3.3-.1-.1-.2-.1-.2-.2-.4-.2-.5-.3-1.1.4L43.2 65c-.3.3-.7.7-.4 1.1l.2.2c0 .1-.2.3-.3.3l-1.9-1.9c0-.1.2-.3.3-.3l.2.2c.4.3.8.1 1.1-.3l1.5-1.5c.5-.5.6-.7.4-1.1 0-.1-.1-.1-.2-.2 0-.1.2-.3.3-.3.8.8 1.3 1.4 1.9 1.8M37.7 29.5c-.1 0-.4-.1-.4-.1 0-.1.1-.2.1-.3.1-.5 0-.6-.8-.9-.6-.2-1.6-.6-2-.7-.4-.2-.9-.4-1.1.1 0 .1-.1.1-.1.2-.1.1-.4 0-.4-.1.3-.9.7-1.8 1-2.4.1-.1.4 0 .4.2 0 .1-.1.2-.1.2-.1.5.3.7.8.9.7.3 1.5.6 2 .8.7.3.9.3 1.2-.1 0-.1.1-.1.1-.2.1 0 .4.1.4.2-.6.8-.9 1.6-1.1 2.2M44.9 17.9c-.1 0-.3-.2-.3-.3l.2-.2c.3-.4.3-.5-.3-1.2L43 14.7c-.3-.3-.6-.8-1.1-.4l-.2.2c-.1 0-.3-.2-.3-.3.7-.7 1.4-1.3 1.9-1.8.1 0 .3.2.3.3l-.2.2c-.4.4-.1.8.3 1.2.5.6 1.1 1.2 1.4 1.5.5.6.7.7 1.1.4.1 0 .1-.1.2-.2.1 0 .3.2.3.3l-1.8 1.8M90.4 18.5c0-.1.2-.3.3-.3l.2.2c.4.3.5.3 1.2-.3.4-.4 1.3-1.1 1.6-1.4.3-.3.8-.6.4-1.1l-.2-.2c0-.1.2-.3.3-.3.6.7 1.3 1.5 1.7 2 0 .1-.2.3-.3.3l-.2-.2c-.4-.4-.7-.1-1.2.2-.6.5-1.3 1.1-1.6 1.3-.6.5-.7.7-.5 1.1 0 .1.1.1.2.2 0 .1-.2.3-.4.3-.5-.7-1-1.3-1.5-1.8M79.4 10.8c0-.1.1-.4.2-.4s.2.1.3.1c.4.1.6.1.9-.8.2-.5.7-1.5.9-1.9.2-.4.5-.9 0-1.2-.1 0-.1-.1-.2-.1-.1-.1.1-.4.2-.4.9.4 1.8.8 2.4 1.1.1.1-.1.4-.2.4s-.2-.1-.2-.1c-.5-.2-.7.2-1 .7-.3.7-.7 1.5-.9 1.9-.3.7-.4.9 0 1.2.1 0 .1.1.2.1 0 .1-.1.4-.2.4-1-.4-1.7-.7-2.4-1M51.6 12.8c.7-.4 1.4-1.1 1.5-1.2-.2-.4-.4-.9-.6-1.3-.1 0-.4.1-.4.2.1.2.2.5.1.8-.1.4-.4.8-.8 1.1-.4.2-1.6.8-2.7-.7-1.1-1.6-.2-2.7.4-3 .5-.3 1-.3 1.3-.2.3.1.5.3.6.5.1 0 .3-.2.4-.3-.3-.4-.6-.7-.9-1.1-.2.1-1.1.4-1.8.8-.8.5-1.5 1.3-1.5 2.5 0 .9.6 1.9 1.6 2.4 1.1.3 2.1 0 2.8-.5M83.1 66.8c-.7.4-1.4 1-1.6 1.1.2.4.3.9.5 1.3.1 0 .4-.1.4-.2 0-.2-.2-.5-.1-.8.1-.4.5-.8.9-1 .4-.2 1.7-.7 2.6.9 1 1.6 0 2.7-.6 3-.5.3-1 .2-1.3.1-.3-.1-.5-.4-.6-.5-.1 0-.3.2-.4.3.3.4.6.8.8 1.2.2 0 1.2-.3 1.9-.7.8-.5 1.6-1.2 1.7-2.4 0-.9-.5-2-1.4-2.5-1.1-.5-2.1-.2-2.8.2"/></g></svg>