<?xml version="1.0" encoding="utf-8"?>
<!-- Generator: Adobe Illustrator 19.2.1, SVG Export Plug-In . SVG Version: 6.00 Build 0)  -->
<svg version="1.1" xmlns="http://www.w3.org/2000/svg" xmlns:xlink="http://www.w3.org/1999/xlink" x="0px" y="0px"
	 viewBox="0 0 109 148" style="enable-background:new 0 0 109 148;" xml:space="preserve">
<style type="text/css">
	.st0{fill:#66609E;}
	.st1{fill:#FFFFFF;}
	.st2{fill:#2A216A;}
	.st3{fill:#E13718;}
	.st4{fill:#365AA5;}
	.st5{fill:#999632;}
	.st6{fill:#46743C;}
	.st7{fill:#901A1E;}
</style>
<g id="TEO">
</g>
<g id="SUND">
</g>
<g id="SAMF">
</g>
<g id="HUM">
</g>
<g id="JURA">
	<g>
		<path class="st5" d="M107,39.8c0,21.9-17.8,39.8-39.7,39.8c-22,0-39.7-17.8-39.7-39.8C27.6,17.8,45.3,0,67.3,0
			C89.2,0,107,17.8,107,39.8"/>
		<path class="st5" d="M37.7,97.8c0,10.4-8.4,18.8-18.8,18.8C8.5,116.6,0,108.2,0,97.8c0-10.4,8.5-18.8,18.9-18.8
			C29.3,78.9,37.7,87.4,37.7,97.8"/>
		<path class="st5" d="M77.1,138.2c0,5.4-4.4,9.8-9.8,9.8c-5.4,0-9.8-4.4-9.8-9.8c0-5.4,4.4-9.8,9.8-9.8
			C72.7,128.3,77.1,132.7,77.1,138.2"/>
		<g>
			<path class="st1" d="M61.4,75.2L61.4,75.2L61.4,75.2z"/>
			<path class="st1" d="M61.4,75.2L61.4,75.2L61.4,75.2z"/>
			<path class="st1" d="M83,19.8c-0.3-0.1-0.5-0.1-0.8,0c-0.5-0.4-0.2-0.4-1.7-0.8c-0.7-0.2-1.6-0.4-2.2-0.6c0-0.3,0-0.8,0.3-1
				c0.3-0.4,0.7-0.2,0.7-0.3c-0.1-1-1.6-0.6-1.8-0.1c-0.1,0.3-0.1,0.7-0.2,1.1c-0.9-0.4-4.4-1.5-6.7-2.3l-1.9,0.7
				c2.2,0.7,6.6,2.1,8.4,2.5c-0.1,0.3-0.3,0.6-0.4,0.7c-0.3,0.4-0.8,0.3-0.8,0.5c0.3,1,1.5,0.5,1.7,0.3c0.2-0.3,0.3-0.9,0.4-1.2
				c0.5,0.2,1.3,0.5,1.9,0.7c1.5,0.5,1.4,0.3,2.3,0.3c0.1,0.1,0.2,0.3,0.4,0.3c0.4,0.1,0.8,0,1-0.2C83.5,20.2,83.3,19.9,83,19.8"/>
			<path class="st1" d="M69.2,15.4C69.2,15.4,69.2,15.4,69.2,15.4c2.3-0.8,4.1-1.5,4.1-1.5c0.2,0.1,0.7,0.3,1,0.2
				c0.1,0,0.9-0.2,1.1-0.2c0.5-0.1,0.6-0.1,1.1-0.1c0,0.1,0.2,0.2,0.5,0.2c0.3,0,0.5-0.1,0.6-0.2c0.1-0.1,0.1-0.2,0-0.3
				c-0.1-0.1-0.3-0.1-0.4-0.1c0,0-0.6,0-0.6,0c-0.7,0-0.8-0.4-0.1-0.5c0,0.1,0,0.1,0.1,0.1c0.1,0.1,0.4,0.1,0.6,0
				c0.1,0,0.2-0.1,0.2-0.2c0,0,0-0.1-0.1-0.1c0.1,0,0.2,0,0.2,0c0.1,0,0.1-0.1,0.1-0.1c0-0.1-0.2-0.3-0.2-0.3l0,0
				C77.3,12,77.2,12,77.1,12c-0.1,0-0.2,0-0.2,0c-0.1,0-0.1,0.1-0.2,0.1c0-0.1-0.1-0.1-0.1-0.1c-0.1,0-0.2,0-0.4,0
				c-0.2,0.1-0.4,0.2-0.3,0.3c0,0,0.1,0.1,0.2,0.1c-1.1,0.3-1-0.2-0.7-0.4c0.3-0.3,0.4-0.4,0.3-0.5c-0.1-0.1-0.2-0.1-0.3-0.2
				c-0.2,0-0.5,0-0.6,0.2c-0.1,0.1-0.1,0.3,0.1,0.4c-0.3,0.2-0.4,0.3-0.8,0.5c-0.2,0.1-0.8,0.4-0.9,0.4c-0.2,0.1-0.2,0.5-0.2,0.6
				c0,0-2.6,0.7-5.5,1.5c-4.1-1.2-7.2-2-8.8-2.1c1,0.6,3.4,1.6,6.7,2.7c-2.6,0.7-5.1,1.4-6.2,1.8c-1.7,0.5-0.6,0.7-1.4,1L57.4,18
				c-0.6,0.2-1.5,0.4-2.2,0.6c-1,0.3-1.3,0.6-1.5,0.9c-0.3-0.1-0.6-0.1-0.8,0c-0.4,0.1-0.5,0.6-0.3,0.9c0.2,0.2,0.6,0.4,1,0.2
				c0.2-0.1,0.4-0.3,0.5-0.5c0.8,0,1.9-0.3,2.5-0.5c0.7-0.2,1.2-0.4,1.7-0.7l0.1-0.2c0.7-0.3,0.3,0.4,2-0.1c1.2-0.4,4.2-1.5,7-2.5
				l0,0L69.2,15.4z"/>
			<path class="st1" d="M88.5,27.6c-0.8-1.2-2-2.9-4.7-4.2c0.4,1.5,0.1,4.6-0.1,6c0.7-0.6,1.1-0.9,1.6-1.2c0.7,1.3,0.1,7.2-1.1,9.6
				l-0.7-0.7c0,0-0.1,2.9-1.3,4.5l-0.6-1.3c0,0-0.7,1.8-2.8,3.4l-0.3-1.2c0,0-1.6,1.9-3,2.6L75.3,44c-0.7,0.3-2.3,0.7-3.7,0.9
				l0.4-1.2c-0.8-0.2-1.7-0.4-2.8-0.5c-2.3-0.3-5-0.6-5-0.6c1.3-0.2,3.2-0.1,4.6,0c1.4,0.1,2.9,0.3,3.7,0.5c0.1-0.3,0.2-0.6,0.4-0.9
				c0.5-0.9,0.6-1.2,0.9-1.5c-4.2-0.2-8.9-0.3-8.9-0.3c2-0.7,7.3-0.7,9.6-0.5c0.1-0.7,0.2-1,0.5-1.7c0.2-0.6,0.8-1.4,1.2-1.5
				c-0.8,0.1-2.5,0.3-4.3,0.5c-2.9,0.3-6.2,0.9-6.2,0.9s1.5-0.9,6.3-1.8c2.7-0.6,3.9-0.7,4.9-0.8c0.1-0.7,0.2-1.1,0.4-1.5
				c0.4-0.8,0.8-1.9,1.3-2.2c-2,0.3-3,0.7-4.9,1.3c-2.7,0.9-6.7,2.4-6.7,2.4s3-2.5,7.4-3.9c2.7-0.9,3.4-1.1,4.9-1.3
				c0-0.7,0.1-1.6,0.4-2.2c0.8-1.7,2-2.4,2-2.4s-11.6,2.5-16.2,7.5c-0.8,0.9-3.6,7.9-3.6,7.9s0-0.8,0.2-2.4c-1,0-4.3-0.8-4.2-3.5
				c0-1.8,1.6-2.3,2.4-2.7c0.3,0.3,0.3,0.6,0.4,1c0.5-0.6,0.6-1,0.6-1.6c0.1-0.6-0.2-1.7-0.5-2.2c0.3,0.1,1.1,0.5,1.5,1.3
				c0.3-0.6,1-2-0.5-3.9c1.3-0.2,2.1-2.3,2.3-3.3c-0.9,0.8-2.8,1.6-3.6,0.8c-0.1-1-3.6-2.7-5.5-2.7c-1.3,0-1.3,1.3-1.2,1.7
				c0.1,0.1,0.6,0.1,0.7,0.1c0.5-0.4,2.3,0.2,2.9,0.7c0.2,0.2,0.8,0.3,1.1,0.5c-0.5,0.6-1.2,0.2-1.8,0c0,0-0.5,0.4-1,0.3
				c-0.7-0.1-0.8-0.4-0.9-0.9c-1-0.2-2.2-0.4-3.2,0.4c-0.4,0.3-0.8,1-0.6,1.5c0.4-0.4,0.6-0.6,1-0.7c0.1,0.2,1.1,0.9,2.8,0.8
				c2.3,0.2,1.8,1.2,1.8,1.5c-1.2-0.2-2.7-0.6-3.8-0.6c-0.7,0-1.3,0.3-1.5,0.6c0.5-0.1,1.2-0.1,1.6,0.2c1.3,1,3.9,1.2,5.1,0.3
				c0.1,0,1.3,0.8-0.8,1.7c0.2,0.1,0.7,0.1,1.1,0.2c0.3,0.1,0.5,0.2,0.4,0.3c-0.1,0.1-2.4-0.2-3.1,0.4c0.4,0.3,1.4,0.5,1.4,0.5
				c0,0.2,0,0.2-0.3,0.3c-0.6,0.1-1.5-0.2-2-0.7c0,0-0.6,0.1-0.9,0.4c0.3,0.5,1.9,1,1.9,1c-0.1,0.1-0.2,0.3-0.6,0.2
				c-0.7-0.1-1.1-0.3-1.7-0.8c-0.3,0.1-1,0.4-1.3,0.8c0,0,0.9,0.5,1.8,0.9c0,0.2-0.2,0.3-0.5,0.3c-0.8-0.1-1.1-0.3-1.7-0.5
				c-0.3,0.3-0.5,0.7-0.7,1c0.6,0.4,1.5,0.5,2.1,0.6c0.1,0.3-0.7,0.3-2,0.1l-0.2,0c-0.2,0.4-0.5,1.1-0.5,1.6c0,0,1.3-0.1,2.9,0
				c0,0,0.5,0.2,0.1,0.2c-0.6,0.1-1.9,0.1-3.1,0.1c-0.2,0.4-0.3,1.2-0.2,1.6c0.9,0,1.9-0.1,3.9,0c0,0,0.4,0.2,0.1,0.2
				c-0.6,0.1-2.3,0.1-3.7,0.3c-0.2,0.4-0.2,1.2-0.1,1.8c2-0.1,4.7-0.4,4.7-0.4s0.4,0.2,0,0.3c-0.6,0.2-2.9,0.5-4.2,0.7
				c-0.1,0.5-0.1,1.2,0.2,2c2-0.3,4.9-0.7,4.9-0.7s0.3,0.1,0,0.3c-0.6,0.2-2.9,0.7-4.1,1c0,0.7,0.2,1.4,0.6,2.1
				c1.8-0.5,4.8-1.3,4.8-1.3s0.3,0.1-0.1,0.3c-0.6,0.3-2.6,1-3.7,1.5c0.2,0.8,0.6,1.4,1.1,2c1.6-0.7,3.9-1.8,3.9-1.8s0.4,0,0.1,0.2
				c-0.4,0.3-1.8,1.3-2.7,1.8c1,1,2,1.9,3.1,2.6c-0.1,0.7-0.4,1.8-0.7,1.8c-1-0.3-3.5-0.9-6.4-2.4c-0.6-2.2-2.1-3.5-2.5-3.8
				c-0.7-0.3-1.2-0.1-1.7,0.1c-0.3,0.1-0.6,0.4-0.6,0.6l0.6-0.1c0.5,0.8,1.3,0.6,1.7,0.4c0.1,0.2,1,0.7,0.8,1c-0.7,0-2.2-0.3-3,0
				c-1,0.4-1,1.1-1,1.7c0.3-0.3,0.5-0.5,0.9-0.3c0.7,0,1.2-0.4,1.4-0.8c0.5-0.4,1.5-0.1,1.8,0.5c-0.1,0.2-1.8,0.3-2.5,1
				c-0.5,0.4-0.4,1.1-0.4,1.7c0.2-0.2,0.4-0.7,0.6-0.7c0.8,0.2,0.5-0.3,1.4-0.9c0.2-0.2,2-0.9,2.1,1.1c-0.5,0.6-0.7,1.5,0.1,1.5
				c0.1,0.2,0.2,0.4,0,0.8c0.5-0.3,1-0.6,1-1.4c-0.1-0.6-0.4-0.9-0.3-0.9c0.7,0.3,2.6,1.3,3.7,1.8c1.8,0.7,3.2,1.6,4.4,1.4
				c0.5-0.2,1.1-1.8,1.2-2.4c-0.1-0.2-0.2-0.4-0.4-0.6c1.2,0.5,2.4,0.8,4,1l1-4l0.5,6.1l0.5,0c0,0,0.1,2.1,0.1,2.2
				c-1,1.1-3-0.7-4.4,0.2c-0.3,0.2-0.6,0.8-0.6,1.3c0.3-0.4,0.6-0.5,0.8-0.5c0.5,0.6,1.2,0.6,1.9,0.1c0.1,0.1,1.1,0.1,1.1,0.4
				c-0.6,0.2-2.1,0.7-2.9,1.2c-0.7,0.4-0.4,1.2-0.3,1.6c0.2-0.1,0.2-0.5,0.5-0.6c0.6,0.3,1.7,0.1,1.8-1.1c0.3-0.1,1-0.6,1.3-0.4
				c0,0.5-1.2,1.5-1.3,1.9c-0.3,0.7-0.2,1.2,0.3,1.7l0.1-0.6c2.6,0.1,0.3-2.5,2.3-3c0.6-0.4,1.5,0.2,1.9,0.4c1,0.4,1.5,0,1.8-0.5
				c0.2,0,0.2,0.3,0.5,0.4l0-0.8c-0.7-1.3-2.6,0.2-3.2-1c0-0.1-0.1-1.7-0.2-2.8l1.3,0l0.5-2.3c13.7,1.1,19.9-15,16.3-25.9
				C86.7,27.7,87.7,27.6,88.5,27.6"/>
			<path class="st1" d="M52,26.5C52,26.5,52.1,26.5,52,26.5C52.1,26.5,52,26.5,52,26.5c-0.2,0-0.3,0-0.4,0c0,0,0,0,0,0
				c-0.4,0-1.1,0.1-1.7,0.1c-0.6,0-3.4-0.3-5-0.9c-0.2,0.3,0,0.6,0.2,0.8c1,0.7,3.6,0.6,5.8,0.2c-1,0.4-2.7,1-4,0.9
				c0.1,0.3,0.3,0.6,0.7,0.8c1.6,0.5,3.4-1.5,5-1.8C52.6,26.7,52.4,26.6,52,26.5"/>
			<path class="st1" d="M84.5,58.5c0.1,0,0.2,0.1,0.2,0.2c0,0-0.1,0.1-0.1,0.1c-0.2,0.2-0.2,0.3,0.2,0.7c0.2,0.3,0.7,0.8,0.9,1
				c0.2,0.2,0.4,0.5,0.7,0.3c0.1,0,0.1-0.1,0.1-0.1c0.1,0,0.2,0.1,0.2,0.2c-0.4,0.4-0.9,0.8-1.2,1.1c-0.1,0-0.2-0.1-0.2-0.2
				c0.1,0,0.1-0.1,0.1-0.1c0.2-0.3,0.1-0.5-0.2-0.7c-0.3-0.4-0.7-0.8-0.9-1c-0.3-0.4-0.4-0.4-0.7-0.3c0,0-0.1,0.1-0.1,0.1
				c-0.1,0-0.2-0.1-0.2-0.2C83.8,59.1,84.2,58.8,84.5,58.5"/>
			<path class="st1" d="M70.1,65c0,0.1,0.1,0.2,0,0.3c-0.1,0-0.1,0-0.2,0c-0.3,0.1-0.3,0.1-0.3,0.7c0,0.4,0.1,1.1,0.1,1.3
				c0,0.3,0,0.6,0.4,0.6c0.1,0,0.1,0,0.2,0c0.1,0,0.1,0.2,0,0.3c-0.6,0.1-1.2,0.1-1.6,0.1c-0.1,0-0.1-0.2,0-0.3c0.1,0,0.1,0,0.1,0
				c0.3-0.1,0.3-0.3,0.3-0.7c0-0.5-0.1-1-0.1-1.3c0-0.5-0.1-0.6-0.4-0.6c-0.1,0-0.1,0-0.2,0c0,0-0.1-0.2,0-0.3
				C69.1,65.1,69.6,65.1,70.1,65"/>
			<path class="st1" d="M45.3,52.3c0,0.1-0.2,0.2-0.2,0.2c0-0.1-0.1-0.1-0.1-0.1c-0.2-0.2-0.3-0.3-0.8,0c-0.3,0.2-0.9,0.5-1.2,0.6
				c-0.2,0.1-0.6,0.3-0.4,0.6c0,0.1,0,0.1,0.1,0.1c0,0.1-0.2,0.2-0.2,0.1c-0.3-0.5-0.6-1.1-0.8-1.4c0-0.1,0.2-0.2,0.3-0.1
				c0,0.1,0.1,0.1,0.1,0.1c0.2,0.3,0.4,0.2,0.7,0c0.4-0.2,0.9-0.5,1.2-0.6c0.4-0.2,0.5-0.3,0.4-0.6c0,0,0-0.1-0.1-0.2
				c0-0.1,0.2-0.1,0.3-0.1C44.8,51.4,45.1,51.9,45.3,52.3"/>
			<path class="st1" d="M42.3,36.1c-0.1,0-0.2,0-0.3,0c0-0.1,0-0.1,0-0.2c0-0.3,0-0.4-0.6-0.4c-0.4-0.1-1-0.2-1.3-0.2
				c-0.3,0-0.6-0.1-0.7,0.2c0,0.1,0,0.1,0,0.2c-0.1,0.1-0.2,0-0.3,0c0.1-0.6,0.2-1.2,0.3-1.6c0.1-0.1,0.2,0,0.3,0.1
				c0,0.1,0,0.1,0,0.1c0,0.3,0.2,0.4,0.6,0.5c0.5,0.1,1,0.2,1.3,0.2c0.5,0.1,0.6,0.1,0.7-0.2c0,0,0-0.1,0-0.2c0.1,0,0.2,0,0.3,0.1
				C42.4,35.2,42.3,35.7,42.3,36.1"/>
			<path class="st1" d="M92.7,39.8c0.1,0,0.2,0,0.3,0c0,0.1,0,0.1,0,0.2c0,0.3,0.1,0.3,0.7,0.3c0.4,0,1,0,1.3,0c0.3,0,0.6,0,0.7-0.3
				c0-0.1,0-0.1,0-0.2c0.1-0.1,0.2-0.1,0.3,0c0,0.6,0,1.2,0,1.6c-0.1,0.1-0.2,0-0.3,0c0-0.1,0-0.1,0-0.1c0-0.3-0.3-0.4-0.6-0.4
				c-0.5,0-1,0-1.3,0c-0.5,0-0.6,0-0.7,0.3c0,0,0,0.1,0,0.2c-0.1,0-0.2,0-0.3,0C92.7,40.7,92.7,40.2,92.7,39.8"/>
			<path class="st1" d="M87.3,55.8c0.3,0.1,0.5,0.3,0.7,0.4c0,0.1-0.1,0.2-0.2,0.3c-0.3-0.1-0.7-0.4-1.1,0.1
				c-0.3,0.3-0.2,0.6-0.1,0.8c0.2,0.2,0.5,0.2,1,0c0.7-0.3,1-0.3,1.2-0.1c0.3,0.2,0.8,0.8,0.1,1.6c-0.3,0.4-0.6,0.5-0.7,0.6
				c-0.1,0-0.5-0.3-0.6-0.5c0-0.1,0-0.2,0.2-0.2c0.1,0,0.5,0.3,0.9-0.1c0.4-0.4,0.2-0.7,0-0.8c-0.2-0.2-0.4-0.1-0.9,0.1
				c-0.4,0.2-0.9,0.4-1.4,0c-0.4-0.4-0.4-1,0-1.5C86.9,55.9,87.3,55.8,87.3,55.8"/>
			<path class="st1" d="M66.7,65.3c0.1,0.4,0.1,0.6,0.1,0.8c-0.1,0-0.2,0.1-0.3,0c-0.1-0.3-0.1-0.8-0.8-0.8c-0.4,0-0.6,0.2-0.6,0.4
				c-0.1,0.3,0.2,0.5,0.6,0.8c0.7,0.3,0.8,0.6,0.9,0.9c0.1,0.4-0.1,1.1-1.2,1c-0.5,0-0.8-0.1-0.9-0.2c0-0.1-0.1-0.6,0-0.8
				c0.1-0.1,0.2-0.1,0.3,0c0,0.1,0,0.6,0.6,0.6c0.5,0.1,0.6-0.3,0.7-0.5c0-0.3-0.2-0.4-0.7-0.6c-0.4-0.2-0.9-0.5-0.9-1.1
				c0-0.6,0.6-1,1.2-0.9C66.3,65.1,66.7,65.3,66.7,65.3"/>
			<path class="st1" d="M41.9,40c-0.4,0.1-0.6,0.1-0.8,0.1c0-0.1-0.1-0.2,0-0.3c0.3-0.1,0.8-0.2,0.8-0.8c0-0.4-0.2-0.6-0.4-0.6
				c-0.3,0-0.5,0.2-0.7,0.7c-0.3,0.7-0.6,0.8-0.9,0.9c-0.4,0.1-1.1-0.1-1.1-1.1c0-0.5,0.1-0.8,0.1-1c0.1,0,0.6-0.1,0.8-0.1
				c0.1,0.1,0.1,0.2,0,0.3c-0.1,0-0.6,0-0.6,0.6c0,0.5,0.3,0.6,0.5,0.6c0.3,0,0.4-0.2,0.6-0.7c0.2-0.4,0.4-0.9,1.1-0.9
				c0.6,0,1,0.5,1,1.2C42.1,39.7,41.9,40,41.9,40"/>
			<path class="st1" d="M42.9,32.7c-0.4,0-0.6-0.1-0.8-0.1c0-0.1,0-0.2,0.1-0.3c0.3,0,0.8,0.1,1-0.6c0.1-0.4-0.1-0.6-0.3-0.7
				c-0.3-0.1-0.6,0.1-0.9,0.5c-0.5,0.6-0.8,0.7-1.1,0.6c-0.4,0-1.1-0.4-0.7-1.4c0.2-0.5,0.3-0.7,0.4-0.9c0.1,0,0.6,0.1,0.8,0.1
				c0.1,0.1,0,0.2-0.1,0.3c-0.1,0-0.6-0.1-0.8,0.4c-0.2,0.5,0.1,0.7,0.3,0.7c0.3,0.1,0.4-0.1,0.8-0.5c0.3-0.4,0.7-0.8,1.3-0.6
				c0.5,0.2,0.8,0.8,0.6,1.4C43.2,32.5,42.9,32.7,42.9,32.7"/>
			<path class="st1" d="M92,31.6c0.8-0.7,0.9-0.8,1.6-1.3c0.2-0.2,0.3-0.3,0.5,0c0,0.1,0,0.1,0.1,0.1c0.1,0,0.2,0,0.2-0.1
				c-0.2-0.5-0.3-0.9-0.6-1.4c-0.1,0-0.2,0-0.2,0.1c0,0.1,0,0.1,0.1,0.2c0.1,0.3,0,0.4-0.3,0.6c-0.2,0.1-2,1.6-2.1,1.7
				c0,0,0,0.1,0,0.1c0,0,0.2,0.3,0.3,0.4c0.8,0,2.1,0.1,2.6,0.2c0.5,0,0.6,0.1,0.6,0.3c0,0.1,0,0.1,0,0.2c0.1,0,0.2,0,0.3-0.1
				c-0.1-0.4-0.2-0.9-0.4-1.2c-0.1-0.1-0.2,0-0.3,0.1c0,0.1,0,0.1,0,0.1c0,0.2,0,0.3-0.4,0.3C93.4,31.7,92.6,31.6,92,31.6"/>
			<path class="st1" d="M92.8,44.7c1.1-0.2,1.2-0.2,2-0.3c0.3,0,0.4-0.1,0.4,0.2c0,0.1,0,0.1,0,0.1c0.1,0.1,0.2,0.1,0.3,0
				c0.1-0.5,0.2-1,0.2-1.5c-0.1-0.1-0.2-0.1-0.3,0c0,0,0,0.1,0,0.2c-0.1,0.2-0.2,0.3-0.6,0.4c-0.2,0-2.6,0.4-2.6,0.4
				c-0.1,0-0.1,0.1-0.1,0.1c0,0,0.1,0.3,0.1,0.5c0.7,0.4,1.7,1.1,2.2,1.4c0.4,0.3,0.5,0.4,0.4,0.5c0,0.1,0,0.1,0,0.2
				c0,0.1,0.2,0.1,0.3,0.1c0.1-0.4,0.2-0.9,0.3-1.2c0-0.1-0.2-0.1-0.3-0.1c0,0,0,0.1,0,0.1c-0.1,0.2-0.1,0.3-0.5,0
				C94.1,45.5,93.4,45.1,92.8,44.7"/>
			<path class="st1" d="M91.9,53.9c-0.6-0.3-1.5-0.8-1.7-1c-0.4-0.2-0.5-0.3-0.7,0c0,0-0.1,0.1-0.1,0.1c-0.1,0-0.2-0.1-0.2-0.1
				c0.3-0.4,0.5-0.9,0.7-1.3c0.1,0,0.2,0.1,0.2,0.1c0,0.1,0,0.1-0.1,0.1c-0.1,0.3,0,0.3,0.4,0.6c0.3,0.2,1,0.5,1.2,0.6
				c0.5,0.3,0.5,0.4,0.7,0c0-0.1,0-0.1,0.1-0.1c0.1,0,0.2,0.1,0.2,0.1c-0.4,0.8-0.7,1.2-0.8,1.4c-0.1,0.1-0.2,0.3-0.3,0.4
				c-0.2,0.3-0.7,0.7-1.3,0.3c-0.4-0.3-0.4-0.7-0.3-1c-0.3,0-0.7,0.1-1.1,0.1c-0.4,0.1-0.5,0.1-0.6,0.3c0,0-0.1,0.1-0.1,0.1
				c-0.1,0-0.2-0.1-0.2-0.2c0-0.1,0.3-0.4,0.5-0.8c0.2,0,1.6-0.2,1.9-0.2l0.1,0.1c-0.1,0.2-0.2,0.4-0.1,0.6c0.1,0.2,0.2,0.3,0.3,0.3
				c0.1,0.1,0.3,0.1,0.5,0.1c0.2,0,0.3-0.2,0.4-0.3C91.7,54.3,91.8,54.1,91.9,53.9"/>
			<path class="st1" d="M77.7,63c-0.1,0.1,0,0.2,0.1,0.2c0,0,0,0,0.1,0c0.2-0.1,0.3,0,0.3,0.4c0,0.2,0,0.3,0,0.4
				c-0.2,0.1-1,0.4-1.1,0.5c-0.1-0.1-0.1-0.1-0.2-0.3c-0.2-0.2-0.3-0.3-0.1-0.4c0.1,0,0.1,0,0.1,0c0-0.1,0-0.2-0.1-0.2
				c-0.2,0.1-0.7,0.3-1.3,0.5c-0.1,0.1,0,0.2,0.1,0.3c0.1,0,0.1,0,0.2,0c0.3-0.1,0.5,0.2,0.6,0.3c0.2,0.2,1.8,2,1.8,2
				c0,0,0.1,0,0.1,0c0,0,0.3-0.3,0.3-0.3c0-0.2,0-2.1,0-2.6c0-0.5,0.1-0.6,0.2-0.7c0.1,0,0.1-0.1,0.1-0.1c0-0.1-0.1-0.2-0.1-0.2
				C78.3,62.7,77.8,62.9,77.7,63 M78.2,65.6l-1-1l0.9-0.4L78.2,65.6z"/>
			<path class="st1" d="M54.4,61.6c-0.1,0-0.2,0.2-0.2,0.2c0,0,0,0,0.1,0.1c0.2,0.2,0.1,0.2-0.1,0.4c-0.2,0.1-0.2,0.2-0.3,0.2
				c-0.1-0.1-0.9-0.5-1-0.6c0-0.1,0-0.1,0.1-0.4c0.1-0.2,0.1-0.4,0.3-0.3c0.1,0,0.1,0,0.1,0.1c0.1,0,0.2-0.2,0.1-0.2
				c-0.2-0.1-0.6-0.4-1.1-0.8c-0.1,0-0.2,0.2-0.2,0.2c0.1,0.1,0.1,0.1,0.1,0.1c0.2,0.2,0.1,0.6,0.1,0.7c0,0.2-0.6,2.6-0.6,2.6
				c0,0.1,0,0.1,0,0.1c0,0,0.3,0.1,0.4,0.1c0.1-0.1,1.7-1.2,2.1-1.5c0.4-0.3,0.5-0.3,0.7-0.2c0.1,0,0.1,0.1,0.1,0.1
				c0.1,0,0.2-0.2,0.1-0.2C55,62,54.6,61.7,54.4,61.6 M52.5,63.5l0.3-1.4l0.8,0.5L52.5,63.5z"/>
			<path class="st1" d="M83.3,62.5c0,0.1,0.1,0.2,0.1,0.4c0,0.1,0,0.3-0.3,0.5c-0.1,0-0.2,0.1-0.4,0.2c0,0-0.8-1.3-1-1.6
				c-0.3-0.5-0.3-0.6-0.1-0.8c0,0,0.1-0.1,0.1-0.1c0-0.1-0.1-0.2-0.2-0.2c-0.4,0.3-0.9,0.6-1.3,0.8c0,0.1,0.1,0.2,0.1,0.2
				c0.1,0,0.1,0,0.2-0.1c0.3-0.1,0.4,0,0.6,0.4c0.1,0.2,0.1,0.2,1,1.6c-0.2,0.1-0.4,0.3-0.5,0.3c-0.3,0.1-0.4,0-0.5-0.1
				C81,64.1,81,64,80.9,63.9c-0.1,0-0.2,0.1-0.2,0.2c0.1,0.1,0.4,0.6,0.5,0.8c1.1-0.6,1.7-1,2.7-1.7c0,0-0.3-0.7-0.3-0.8
				C83.4,62.3,83.3,62.4,83.3,62.5"/>
			<path class="st1" d="M75,66.4c0,0.1,0,0.2-0.1,0.4c0,0.1-0.1,0.3-0.4,0.4c-0.1,0-0.2,0.1-0.4,0.1c0,0-0.4-1.5-0.5-1.9
				c-0.1-0.5-0.1-0.6,0.2-0.7c0,0,0.1,0,0.1,0c0-0.1,0-0.2-0.1-0.3c-0.4,0.1-1,0.2-1.5,0.3c0,0.1,0,0.2,0,0.3c0.1,0,0.1,0,0.2,0
				c0.3,0,0.3,0.1,0.5,0.6c0.1,0.3,0.1,0.2,0.4,1.9c-0.2,0.1-0.5,0.1-0.6,0.1c-0.3,0-0.4-0.2-0.5-0.2c0-0.1-0.1-0.2-0.1-0.2
				c-0.1,0-0.2,0-0.3,0.1c0,0.1,0.2,0.7,0.2,0.9c1.2-0.2,1.9-0.4,3.1-0.7c0-0.1,0-0.8,0-0.9C75.2,66.3,75.1,66.4,75,66.4"/>
			<path class="st1" d="M92.2,34.4c0-0.1,0.2-0.1,0.3-0.1c0,0,0,0.1,0,0.2c0.1,0.2,0.2,0.3,0.7,0.2c0.4-0.1,1-0.2,1.3-0.2
				c0.4-0.1,0.6-0.1,0.6-0.4c0-0.1,0-0.1,0-0.2c0-0.1,0.2-0.1,0.3-0.1c0,0.2,0.1,0.7,0.2,1c0,0,0,0.1,0,0.1c-0.1,0-0.1,0.1-0.3,0.2
				c-0.1,0.1-0.5,0.5-0.9,1c-0.5,0.6-0.8,0.9-0.9,1.1c0.2,0,1.2-0.1,1.4-0.1c0.5-0.1,0.6-0.1,0.6-0.4c0,0,0-0.1,0-0.2
				c0.1-0.1,0.2-0.1,0.3,0c0.1,0.4,0.1,1,0.1,1.3c0,0.1-0.2,0.1-0.3,0c0,0,0-0.1,0-0.1c0-0.2-0.1-0.3-0.7-0.2
				c-0.4,0-2.1,0.1-2.3,0.2c-0.1,0-0.1-0.1-0.1-0.2c0.4-0.5,0.9-1.1,1.4-1.7c0.5-0.5,0.8-0.9,1-1.1c-0.2,0-1.3,0.2-1.6,0.3
				c-0.5,0.1-0.6,0.2-0.6,0.4c0,0.1,0,0.1,0,0.2c-0.1,0.1-0.2,0.1-0.3,0C92.4,35.4,92.2,34.7,92.2,34.4"/>
			<path class="st1" d="M58.6,63.6c-0.1,0-0.1,0.2-0.1,0.3c0.1,0,0.1,0.1,0.1,0.1c0.3,0.1,0.2,0.3,0.1,0.7c0,0.1-0.1,0.3-0.2,0.5
				c0,0-0.4-0.2-0.8-0.3c-0.4-0.1-0.8-0.3-0.8-0.3c0.1-0.2,0.2-0.4,0.2-0.5c0.2-0.5,0.3-0.6,0.6-0.5c0,0,0.1,0,0.1,0
				c0.1,0,0.1-0.2,0.1-0.3c-0.5-0.2-1-0.4-1.4-0.6c-0.1,0-0.2,0.2-0.1,0.3c0.1,0,0.1,0.1,0.1,0.1c0.2,0.1,0.2,0.3,0,0.7
				c-0.1,0.2-0.4,0.8-0.6,1.2c-0.1,0.3-0.3,0.6-0.6,0.5c0,0-0.1,0-0.1,0c-0.1,0-0.1,0.2-0.1,0.2c0.3,0.2,0.9,0.4,1.5,0.6
				c0.1,0,0.1-0.2,0.1-0.3c0,0-0.1,0-0.1-0.1c-0.3-0.1-0.2-0.4-0.1-0.7c0-0.1,0.1-0.3,0.2-0.4c0,0,0.5,0.2,0.8,0.3
				c0.3,0.1,0.8,0.3,0.8,0.3c-0.1,0.2-0.1,0.3-0.1,0.5c-0.1,0.3-0.2,0.6-0.6,0.5c0,0-0.1,0-0.1,0c-0.1,0.1-0.1,0.2-0.1,0.3
				c0.4,0.1,1,0.3,1.5,0.5c0,0,0.1-0.2,0.1-0.3c-0.1,0-0.1,0-0.1,0c-0.3-0.1-0.2-0.3-0.1-0.7c0.1-0.2,0.3-0.9,0.4-1.3
				c0.2-0.5,0.2-0.6,0.5-0.5c0,0,0.1,0,0.1,0c0.1,0,0.1-0.2,0.1-0.3C59.6,64,59.1,63.8,58.6,63.6"/>
			<path class="st1" d="M91.6,47.4c0.1,0,0.2,0,0.3,0.1c0,0.1,0,0.1,0,0.1c-0.1,0.3,0,0.4,0.5,0.6c0.4,0.1,0.9,0.3,1.3,0.4
				c0.4,0.1,0.6,0.2,0.7-0.1c0-0.1,0-0.1,0-0.1c0.1,0,0.2,0,0.3,0.1c-0.2,0.7-0.6,1.7-1,2.7c-0.2-0.1-0.6-0.2-0.8-0.3
				c0-0.1,0-0.2,0.1-0.3c0.1,0,0.2,0,0.3,0c0.1,0,0.3,0,0.5-0.3c0.1-0.2,0.3-0.6,0.3-0.8c0-0.1,0-0.2-0.1-0.2
				c-0.1,0-0.8-0.3-0.9-0.3c-0.3,0.7-0.3,0.9-0.3,0.9c-0.1,0-0.2,0-0.3-0.1c0,0,0.3-0.9,0.3-0.9c0,0-0.5-0.2-0.6-0.2
				c-0.5-0.2-0.5-0.1-0.7,0.3c0,0.1-0.1,0.2-0.1,0.3c-0.1,0.3,0,0.5,0.2,0.7c0.1,0.1,0.1,0.1,0.2,0.1c0,0.1,0,0.2-0.2,0.3
				c-0.1-0.1-0.7-0.4-0.8-0.5C91,49.2,91.3,48.3,91.6,47.4"/>
			<path class="st1" d="M43.9,49.4c0,0.1-0.2,0.1-0.2,0.1c0-0.1,0-0.1-0.1-0.1c-0.1-0.2-0.2-0.3-0.8-0.1c-0.4,0.2-0.9,0.4-1.2,0.5
				C41.2,50,41,50,41.1,50.4c0,0.1,0,0.1,0,0.1c0,0.1-0.2,0.1-0.2,0.1c-0.3-0.6-0.6-1.7-0.9-2.7c0.2-0.1,0.6-0.3,0.8-0.3
				c0.1,0.1,0.2,0.2,0.1,0.3c-0.1,0-0.2,0.1-0.3,0.2c-0.1,0.1-0.2,0.2-0.2,0.5c0.1,0.3,0.2,0.6,0.3,0.8c0.1,0.1,0.1,0.1,0.2,0.1
				c0.1,0,0.8-0.3,0.9-0.3c-0.2-0.7-0.3-0.9-0.3-0.9c0.1-0.1,0.2-0.1,0.3-0.1c0,0,0.3,0.9,0.3,0.9c0,0,0.5-0.2,0.6-0.2
				c0.5-0.2,0.4-0.3,0.3-0.6c0-0.1-0.1-0.2-0.1-0.3c-0.1-0.3-0.3-0.4-0.6-0.4c-0.1,0-0.2,0-0.2,0c-0.1-0.1-0.1-0.2,0-0.3
				c0.1,0,0.8-0.1,0.9-0.1C43.3,47.7,43.6,48.6,43.9,49.4"/>
			<path class="st1" d="M48.4,56.6c0,0.1-0.1,0.2-0.2,0.2c0,0-0.1-0.1-0.1-0.1c-0.2-0.2-0.3-0.1-0.7,0.2c-0.3,0.3-0.8,0.6-1,0.9
				C46,58,45.8,58.1,46,58.4c0,0,0.1,0.1,0.1,0.1c0,0.1-0.1,0.2-0.2,0.2c-0.1-0.1-0.5-0.5-0.6-0.7c0,0-0.1-0.1-0.1-0.1
				c0-0.1,0.1-0.1,0.1-0.3c0-0.2,0.2-0.7,0.3-1.4c0.1-0.7,0.2-1.2,0.2-1.4c-0.2,0.1-1,0.6-1.2,0.8c-0.4,0.3-0.5,0.4-0.3,0.7
				c0,0,0.1,0.1,0.1,0.1c0,0.1-0.1,0.2-0.2,0.2c-0.3-0.4-0.6-0.8-0.7-1.1c0-0.1,0.1-0.2,0.2-0.1c0,0,0.1,0.1,0.1,0.1
				c0.2,0.2,0.2,0.2,0.7-0.1c0.3-0.2,1.8-1.2,1.9-1.3c0.1,0,0.2,0,0.2,0.1c-0.1,0.6-0.2,1.4-0.4,2.1c-0.1,0.7-0.2,1.1-0.3,1.5
				c0.2-0.1,1-0.8,1.3-1.1c0.4-0.3,0.4-0.5,0.3-0.7c0-0.1-0.1-0.1-0.1-0.1c0-0.1,0.1-0.2,0.2-0.2C47.7,55.9,48.2,56.4,48.4,56.6"/>
			<path class="st1" d="M42.6,45.3c0,0.1-0.2,0.1-0.3,0.1c0,0,0-0.1,0-0.2c-0.1-0.2-0.2-0.3-0.7-0.2c-0.4,0.1-1,0.2-1.3,0.3
				c-0.4,0.1-0.6,0.1-0.6,0.4c0,0.1,0,0.1,0,0.2c-0.1,0.1-0.2,0.1-0.3,0.1c0-0.2-0.1-0.7-0.2-1c0-0.1,0-0.1,0-0.1
				c0.1,0,0.1-0.1,0.2-0.2c0.1-0.1,0.5-0.5,0.9-1c0.5-0.6,0.8-1,0.9-1.1c-0.2,0-1.2,0.1-1.4,0.1c-0.5,0.1-0.6,0.1-0.6,0.4
				c0,0,0,0.1,0,0.2c-0.1,0.1-0.2,0.1-0.3,0c-0.1-0.5-0.1-1-0.1-1.3c0-0.1,0.2-0.1,0.3,0c0,0,0,0.1,0,0.1c0,0.2,0.1,0.3,0.7,0.2
				c0.4,0,2.1-0.1,2.3-0.2c0.1,0,0.1,0.1,0.1,0.2c-0.4,0.5-0.9,1.1-1.3,1.7c-0.5,0.5-0.8,0.9-1,1.1c0.2,0,1.3-0.2,1.6-0.3
				c0.5-0.1,0.6-0.2,0.6-0.4c0-0.1,0-0.1,0-0.2c0.1-0.1,0.2-0.1,0.3,0C42.4,44.3,42.6,45,42.6,45.3"/>
			<path class="st1" d="M49.9,58.6c0,0,0.1,0.1,0.1,0.1c0.2,0.2,0.3,0.4,0,0.7c-0.1,0.1-0.3,0.3-0.4,0.4c-0.3-0.2-0.4-0.4-0.7-0.6
				c-0.1,0-0.2,0.1-0.2,0.3c0.3,0.2,0.4,0.3,0.7,0.6c-0.1,0.1-0.6,0.7-0.7,0.8c-0.1,0.1-0.1,0.1-0.2,0c-0.1-0.1-0.3-0.2-0.5-0.5
				c-0.4-0.4,0-0.9,0.1-1.1c0-0.1-0.1-0.2-0.3-0.2c-0.2,0.2-0.5,0.7-0.7,0.9c0.9,0.9,1.4,1.3,2.1,1.9c0.1,0,0.2-0.1,0.2-0.2
				c0,0,0,0-0.1-0.1c-0.2-0.2-0.1-0.4,0.2-0.7c0.2-0.2,0.5-0.6,0.9-1c0.4-0.5,0.5-0.4,0.7-0.3c0,0,0,0,0.1,0.1
				c0.1,0,0.2-0.1,0.2-0.2c-0.4-0.4-0.9-0.7-1.2-1.1C50,58.4,49.9,58.5,49.9,58.6"/>
			<path class="st1" d="M95.7,26.3c-0.7-1.4-1.6-3-2-3.6c0.1-0.1,0.2-0.2,0.4-0.2c0.1,0.1,0.1,0.1,0.1,0.2c0.3,0.3,0.4,0.3,1.2-0.1
				c0.5-0.3,1.5-0.9,1.8-1.1c0.4-0.2,0.9-0.4,0.6-1l-0.1-0.2c0-0.1,0.2-0.3,0.4-0.2c0.5,0.8,1,1.6,1.3,2.1c0,0.1-0.2,0.2-0.4,0.2
				c-0.1-0.1-0.1-0.1-0.1-0.2c-0.3-0.5-0.8-0.2-1.2,0.1c-0.7,0.4-1.3,0.7-1.8,1.1c-0.7,0.4-0.8,0.5-0.6,0.9c0,0.1,0.1,0.3,0.2,0.5
				c0.1,0.2,0.3,0.5,0.5,0.6c0.2,0.1,0.6,0.2,0.7,0.1c0.1,0,0.3,0,0.4-0.1c0.1,0,0.2,0.2,0.1,0.4C96.9,26,96.4,26.2,95.7,26.3"/>
			<path class="st1" d="M98,33c-0.3-1.6-0.9-3.3-1.2-3.9c0.1-0.1,0.3-0.2,0.4-0.2c0,0.1,0.1,0.2,0.1,0.2c0.2,0.4,0.4,0.4,1.2,0.2
				c0.5-0.2,1.7-0.6,2-0.7c0.4-0.1,1-0.2,0.8-0.8c0-0.1,0-0.1-0.1-0.2c0-0.1,0.3-0.2,0.4-0.2c0.3,0.9,0.6,1.8,0.8,2.4
				c0,0.1-0.3,0.2-0.4,0.1c0-0.1-0.1-0.1-0.1-0.2c-0.2-0.5-0.7-0.3-1.2-0.2c-0.7,0.2-1.4,0.4-2,0.6c-0.7,0.2-0.9,0.3-0.8,0.7
				c0,0.1,0.1,0.3,0.1,0.5c0.1,0.2,0.2,0.5,0.4,0.7c0.2,0.2,0.5,0.3,0.6,0.3c0.1,0,0.3,0,0.4,0c0.1,0.1,0.2,0.2,0,0.4
				C99.2,32.9,98.7,33,98,33"/>
			<path class="st1" d="M88.6,15.6c-0.1,0.2-0.3,0.3-0.4,0.6c-0.4-0.2-1-0.5-1.8-1c-0.6-0.5-1.3-1.2-1.3-2.5c0.1-1.1,0.8-2,1.6-2.4
				c1.1-0.5,2.2,0,3,0.6c0.9,0.7,1.2,1.2,1.4,1.3c-0.3,0.4-0.5,0.7-0.8,1.2c-0.1,0-0.4-0.1-0.4-0.2c0.1-0.2,0.2-0.5,0.2-0.9
				c0-0.4-0.2-0.7-0.7-1.1c-0.5-0.4-2-0.9-3,0.8c-1,1.6-0.1,2.5,0.2,2.8c0.2,0.2,0.3,0.2,0.4,0.3c0.3,0.2,0.5,0.2,0.7-0.1
				c0.1-0.1,0.2-0.2,0.3-0.3c0.2-0.3,0.3-0.4,0-0.7c-0.1-0.2-0.2-0.2-0.3-0.3c0-0.1,0.1-0.3,0.3-0.3c0.6,0.6,1.3,1.1,1.8,1.4
				c0,0.1-0.1,0.4-0.3,0.4c-0.1,0-0.1-0.1-0.2-0.1c-0.2-0.1-0.3-0.2-0.6,0.2C88.8,15.4,88.7,15.5,88.6,15.6"/>
			<path class="st1" d="M35.2,42.2c-1.6,0.7-1.8,0.9-3,1.4c-0.5,0.2-0.6,0.3-0.7-0.1c0-0.1,0-0.2,0-0.2c-0.1-0.1-0.4,0-0.4,0.1
				c0.1,0.8,0.2,1.6,0.3,2.4c0.1,0.1,0.4,0,0.4-0.1c0-0.1,0-0.2,0-0.3c0-0.4,0.2-0.6,0.7-0.8c0.3-0.2,3.8-1.7,3.9-1.8
				c0.1,0,0.1-0.1,0.1-0.2c0,0-0.2-0.5-0.3-0.7c-1.3-0.4-3.2-1-3.9-1.3c-0.7-0.3-0.9-0.4-0.9-0.7c0-0.1,0-0.2,0-0.3
				c-0.1-0.1-0.4-0.1-0.4,0c0,0.6,0,1.5,0,2c0.1,0.1,0.3,0.1,0.4,0c0-0.1,0-0.2,0-0.2c0-0.3,0.1-0.4,0.7-0.3
				C33,41.5,34.2,41.9,35.2,42.2"/>
			<path class="st1" d="M76.6,70.7c1,1.4,1.2,1.5,2,2.7c0.3,0.4,0.4,0.6,0,0.7c-0.1,0-0.2,0.1-0.2,0.1c-0.1,0.1,0,0.4,0.1,0.4
				c0.7-0.2,1.5-0.5,2.3-0.8c0.1-0.2-0.1-0.3-0.1-0.4c-0.1,0-0.2,0.1-0.3,0.1c-0.4,0.1-0.6,0-0.9-0.5c-0.2-0.3-2.5-3.3-2.6-3.4
				c-0.1-0.1-0.1-0.1-0.2,0c0,0-0.5,0.3-0.7,0.5c-0.1,1.3-0.3,3.3-0.4,4.1c-0.1,0.8-0.2,0.9-0.5,1c-0.1,0-0.2,0-0.3,0.1
				c-0.1,0.1,0,0.4,0.1,0.4c0.6-0.1,1.4-0.3,2-0.5c0.1-0.1,0-0.4-0.1-0.4c-0.1,0-0.2,0-0.2,0c-0.3,0-0.5,0-0.4-0.6
				C76.4,73,76.5,71.8,76.6,70.7"/>
			<path class="st1" d="M99.6,37.6c1.6-0.7,1.8-0.8,3-1.4c0.5-0.2,0.6-0.3,0.7,0.1c0,0.1,0,0.2,0,0.2c0.1,0.1,0.4,0.1,0.4,0
				c-0.1-0.8-0.2-1.6-0.3-2.4c-0.1-0.1-0.4,0-0.4,0.1c0,0.1,0,0.2,0,0.3c0,0.4-0.2,0.6-0.7,0.8c-0.3,0.2-3.8,1.7-3.9,1.8
				c-0.1,0-0.1,0.1-0.1,0.2c0,0,0.2,0.5,0.3,0.7c1.3,0.4,3.2,1,3.9,1.3c0.7,0.3,0.9,0.4,0.9,0.7c0,0.1,0,0.2,0,0.3
				c0.1,0.1,0.3,0.1,0.4,0c0-0.6,0-1.5,0-2c-0.1-0.1-0.3-0.1-0.4,0c0,0.1,0,0.2,0,0.2c0,0.3-0.1,0.5-0.7,0.3
				C101.8,38.3,100.6,37.9,99.6,37.6"/>
			<path class="st1" d="M67.4,71.2c1.6,0,3.4-0.2,4.1-0.3c0.1,0.1,0.1,0.3,0.1,0.4c-0.1,0-0.2,0-0.2,0c-0.4,0.1-0.5,0.2-0.4,1.1
				c0.1,0.6,0.2,1.8,0.2,2.1c0,0.4,0,1,0.6,1c0.1,0,0.1,0,0.2,0C72,75.7,72,76,72,76c-1,0.1-1.9,0.2-2.5,0.2c-0.1-0.1-0.1-0.3,0-0.4
				c0.1,0,0.2,0,0.2,0c0.5-0.1,0.5-0.6,0.4-1.1C70,74,70,73.2,69.9,72.6c-0.1-0.8-0.1-0.9-0.5-1c-0.1,0-0.3,0-0.5,0
				c-0.2,0-0.6,0.1-0.8,0.2c-0.2,0.1-0.4,0.5-0.4,0.6c0,0.1-0.1,0.3-0.1,0.4c-0.1,0.1-0.3,0.1-0.4-0.1
				C67.1,72.4,67.2,71.8,67.4,71.2"/>
			<path class="st1" d="M98.9,44.4c-0.1,0.1-0.3,0.1-0.4-0.1c0.1-0.8,0.2-1.3,0.2-2c0.1-0.1,0.3-0.1,0.4,0c0,0.1,0,0.1,0,0.2
				c0,0.3,0,0.5,0.8,0.7c0.5,0.2,2,0.5,2.3,0.6c0.5,0.1,1,0.2,1.1-0.3c0-0.1,0-0.1,0-0.2c0.1-0.1,0.3-0.1,0.4,0
				c-0.1,0.7-0.1,1.2-0.2,1.9c-0.3,0-0.5,0-1,0.1c-0.6,0.2-2.2,0.5-2.9,0.8c0.3,0.3,2.2,1.7,2.3,1.7c0.3,0.2,0.6,0.4,1,0.6
				c-0.1,0.5-0.3,1.3-0.5,1.9c-0.1,0.1-0.3,0-0.4-0.1c0-0.1,0-0.1,0-0.2c0.1-0.3,0-0.5-0.6-0.6c-0.7-0.1-1.8-0.4-2.4-0.4
				c-0.7-0.1-1.1-0.1-1.2,0.2c-0.1,0.2-0.1,0.2-0.1,0.3c-0.1,0.1-0.4,0-0.4-0.1c0.4-1.2,0.4-1.5,0.6-2.2c0.1-0.1,0.3,0,0.4,0.1
				c0,0.1,0,0.1,0,0.2c0,0.3-0.1,0.4,0.8,0.6c0.7,0.1,2.4,0.4,2.8,0.5c-0.4-0.3-1.8-1.3-2.5-1.8c-0.7-0.6-1-0.7-1.2-0.9
				c0-0.1,0-0.2,0.1-0.3c0.1,0,0.7-0.1,1.4-0.3c0.7-0.2,2.6-0.6,3-0.7c-0.6-0.2-2.1-0.5-2.6-0.6c-0.6-0.1-1.1-0.2-1.1,0.2L98.9,44.4
				z"/>
			<path class="st1" d="M68.2,5.8c0,0.4-0.4,0.8-0.8,0.8c-0.4,0-0.8-0.4-0.8-0.8c0-0.4,0.4-0.8,0.8-0.8C67.8,5,68.2,5.4,68.2,5.8"/>
			<path class="st1" d="M35.8,22.2c0-0.1,0.1-0.2,0.2-0.3c0.2-0.2,0.4-0.3,1,0.2l2.1,1.2c0.6,0.4,0.6,0.4,0.5,0.8l-0.1,0.2
				c0,0.2,0.2,0.3,0.4,0.2l0.6-1l0.7-1.1c0.7-1,1.2-2.7-0.3-3.8c-2-1.5-3.5,0.3-4.2,1.3c-0.3,0.5-0.7,1-1.2,2
				C35.5,22.1,35.7,22.3,35.8,22.2 M37,20.5c0-0.1,0.1-0.2,0.2-0.3c0.7-1.2,1.8-1.5,2.9-0.8c0.9,0.6,1.1,1.2,1.1,1.7
				c0,0.3-0.1,0.7-0.3,1.1c-0.2,0.3-0.3,0.4-0.5,0.5c-0.2,0.1-0.5-0.1-0.8-0.3c0,0-2.4-1.5-2.5-1.6C36.9,20.8,36.9,20.7,37,20.5"/>
			<path class="st1" d="M73.3,8.6c0-0.6,0.1-1,0.2-1.3c0.1-0.1,0.4,0,0.5,0.1c0,0.5-0.1,1.3,0.9,1.5c0.6,0.2,1-0.1,1.1-0.4
				c0.2-0.5-0.1-0.9-0.7-1.4c-0.9-0.8-1.1-1.2-1-1.7c0-0.6,0.6-1.7,2.2-1.2c0.8,0.2,1.1,0.5,1.3,0.6c0,0.1-0.1,0.9-0.2,1.2
				c-0.1,0.1-0.3,0.1-0.4-0.1c0-0.1,0.2-0.9-0.7-1.2c-0.8-0.3-1.1,0.2-1.2,0.5c-0.1,0.4,0.2,0.7,0.8,1.2c0.6,0.5,1.2,1,1,2
				c-0.2,0.9-1.2,1.3-2.2,1C73.7,9.1,73.3,8.6,73.3,8.6"/>
			<path class="st1" d="M42.2,58.9c-0.4,0.5-0.7,0.7-0.9,0.9c-0.1,0-0.3-0.2-0.3-0.4c0.3-0.4,0.9-0.9,0.3-1.8
				c-0.4-0.5-0.8-0.5-1.1-0.4c-0.5,0.2-0.5,0.7-0.3,1.5c0.2,1.2,0.1,1.6-0.3,1.9c-0.4,0.4-1.5,0.9-2.5-0.5c-0.5-0.7-0.6-1.1-0.7-1.3
				c0.1-0.1,0.7-0.6,0.9-0.8c0.2,0,0.3,0.1,0.3,0.3c-0.1,0.1-0.7,0.6-0.2,1.4c0.4,0.7,1,0.5,1.2,0.3c0.3-0.3,0.3-0.6,0.1-1.5
				c-0.1-0.7-0.3-1.6,0.5-2.2c0.7-0.5,1.7-0.2,2.3,0.7C42.2,58.3,42.2,58.9,42.2,58.9"/>
			<path class="st1" d="M31.7,34.7c1,0.1,2.7,0.4,3.1,0.4c0.8,0.1,1,0.1,1.1-0.4c0-0.1,0-0.2,0.1-0.2c0.1-0.1,0.3,0,0.4,0.1
				c-0.1,0.8-0.2,1.7-0.3,2.4c-0.1,0.1-0.4,0-0.4,0c0-0.1,0-0.2,0-0.2c0-0.4-0.1-0.5-1-0.6c-0.6-0.1-1.7-0.2-2.1-0.3
				c-0.9-0.1-1-0.2-1.1,0.4c0,0.1,0,0.1,0,0.2c-0.1,0.1-0.4,0-0.4,0c0.1-1.4,0.3-2.3,0.3-2.5c0-0.2,0.1-0.6,0.1-0.8
				c0.2-0.6,0.6-1.4,1.7-1.2c0.8,0.2,1,0.7,1.1,1.3c0.5-0.2,1-0.5,1.5-0.9c0.5-0.3,0.6-0.4,0.7-0.8c0,0,0-0.1,0.1-0.2
				c0.1,0,0.3,0,0.4,0.1c0,0.1-0.2,0.8-0.4,1.4c-0.3,0.2-2.2,1.2-2.6,1.5l-0.2-0.2c0-0.3,0-0.7-0.3-0.9c-0.3-0.2-0.5-0.3-0.7-0.3
				c-0.2,0-0.5,0-0.8,0.1c-0.2,0.2-0.4,0.5-0.4,0.7c0,0.2-0.1,0.4-0.1,0.6C31.7,34.6,31.7,34.7,31.7,34.7"/>
			<path class="st1" d="M89.9,61.7c0,0.2,0.2,0.3,0.3,0.3c0.1,0,0,0,0.1-0.1c0.3-0.2,0.4-0.1,0.6,0.4c0.1,0.3,0.2,0.4,0.2,0.5
				c-0.2,0.2-1.2,1.2-1.4,1.3c-0.2-0.1-0.2-0.1-0.5-0.3c-0.3-0.2-0.6-0.3-0.3-0.6c0.1-0.1,0.1-0.1,0.1-0.1c0-0.2-0.2-0.3-0.3-0.3
				c-0.2,0.2-0.9,0.8-1.7,1.5c0,0.2,0.2,0.3,0.3,0.3c0.1-0.1,0.1-0.1,0.2-0.2c0.3-0.3,0.9,0.1,1.1,0.2c0.3,0.1,3.8,1.8,3.9,1.9
				c0.1,0,0.1,0,0.1,0c0,0,0.2-0.5,0.3-0.7c-0.1-0.2-1.3-3.1-1.6-3.8c-0.3-0.8-0.2-1-0.1-1.2c0.1-0.1,0.1-0.2,0.1-0.2
				c0-0.1-0.2-0.3-0.3-0.3C90.7,60.8,90.1,61.5,89.9,61.7 M92.2,65.2l-2-1l1.1-1.1L92.2,65.2z"/>
			<path class="st1" d="M57.3,69.5c-0.2,0.1-0.2,0.3-0.2,0.4c0.1,0,0.1,0,0.2,0.1c0.4,0.2,0.3,0.3-0.1,0.7C57,71,57,71.1,56.9,71.1
				c-0.2-0.1-1.5-0.6-1.8-0.7c0-0.2,0-0.2,0-0.6c0-0.4,0-0.7,0.4-0.6c0.1,0,0.1,0,0.2,0.1c0.1-0.1,0.2-0.3,0.2-0.4
				c-0.3-0.1-1.1-0.5-2-0.9c-0.2,0.1-0.2,0.3-0.2,0.4c0.1,0.1,0.2,0.1,0.2,0.1c0.4,0.2,0.3,0.8,0.3,1.1c0,0.4,0,4.2,0,4.3
				c0,0.1,0,0.1,0.1,0.1c0,0,0.6,0,0.7,0c0.2-0.2,2.3-2.5,2.8-3.1c0.6-0.6,0.7-0.6,1-0.6c0.1,0,0.2,0,0.2,0c0.1-0.1,0.2-0.3,0.1-0.4
				C58.5,69.9,57.5,69.6,57.3,69.5 M55.1,73.2l0-2.2l1.5,0.6L55.1,73.2z"/>
			<path class="st1" d="M64.8,74.8c-0.1,0.2-0.1,0.3-0.3,0.5c-0.1,0.2-0.4,0.3-0.9,0.3c-0.1,0-0.4,0-0.7-0.1c0,0,0.3-2.5,0.4-3
				c0.1-0.9,0.2-1,0.6-1c0.1,0,0.1,0,0.2,0c0.1-0.1,0.1-0.3,0-0.4c-0.7-0.1-1.7-0.2-2.4-0.3c-0.1,0.1-0.2,0.4-0.1,0.4
				c0.1,0,0.2,0,0.3,0.1c0.4,0.1,0.4,0.4,0.3,1.1c-0.1,0.4,0,0.4-0.5,3c-0.4-0.1-0.8-0.1-0.9-0.2c-0.5-0.1-0.5-0.5-0.5-0.6
				c0-0.1,0-0.3,0-0.4C60.3,74,60,74,60,74.1c0,0.2-0.1,1.2-0.2,1.5c2.1,0.4,3.1,0.6,5,0.7c0-0.1,0.4-1.2,0.5-1.3
				C65.1,74.8,64.9,74.7,64.8,74.8"/>
			<path class="st1" d="M50.2,70.4c-0.1,0.1-0.3,0.3-0.5,0.4c-0.2,0.1-0.5,0.1-0.9-0.1c-0.1-0.1-0.3-0.2-0.6-0.4
				c0,0,1.3-2.1,1.6-2.6c0.5-0.7,0.6-0.8,1-0.6c0.1,0,0.1,0.1,0.2,0.1c0.1,0,0.2-0.3,0.2-0.4c-0.6-0.4-1.4-0.9-2.1-1.3
				c-0.1,0-0.3,0.2-0.3,0.3c0.1,0.1,0.1,0.1,0.2,0.2c0.3,0.3,0.3,0.5-0.2,1.2c-0.2,0.4-0.2,0.3-1.7,2.5c-0.3-0.2-0.6-0.4-0.8-0.5
				c-0.4-0.3-0.3-0.7-0.2-0.8c0-0.1,0.1-0.3,0.2-0.4c-0.1-0.1-0.3-0.3-0.4-0.2c-0.1,0.2-0.6,1-0.8,1.2c1.7,1.2,2.6,1.8,4.2,2.8
				c0.1-0.1,0.9-0.9,1-1C50.6,70.6,50.4,70.4,50.2,70.4"/>
			<path class="st1" d="M93.6,57.9c0.1-0.1,0.1-0.1,0.2-0.2c0.3-0.3,0.5-0.5,1.1-0.1c0.1,0.1,0.6,0.4,0.8,0.5
				c-0.3,0.5-0.5,0.7-0.8,1.2c0.1,0.2,0.3,0.3,0.4,0.3c0.3-0.5,0.5-0.7,0.8-1.2c0.1,0.1,1.2,0.8,1.4,0.9c0.1,0.1,0.2,0.2,0.1,0.4
				c-0.1,0.2-0.3,0.5-0.6,0.9c-0.5,0.6-1.4,0.2-1.7,0.1C95,60.6,94.9,60.8,95,61c0.4,0.2,1.2,0.7,1.5,0.9c1.2-1.6,1.8-2.5,2.5-3.7
				c0-0.1-0.2-0.2-0.4-0.2c0,0-0.1,0.1-0.1,0.2c-0.3,0.4-0.6,0.2-1.2-0.1c-0.3-0.2-1.1-0.7-1.8-1.1c-0.8-0.5-0.8-0.7-0.6-1.1
				c0-0.1,0-0.1,0.1-0.1c-0.1-0.1-0.3-0.2-0.4-0.2c-0.4,0.7-0.9,1.5-1.4,2.2C93.3,57.7,93.5,57.8,93.6,57.9"/>
			<path class="st1" d="M55.5,5.3c0,0.1,0,0.3,0.1,0.4c0.2-0.1,0.4-0.1,0.5,0c0.1,0.1,0.1,0.2,0.1,0.5c0,0.1-0.3,2.9-0.4,3.4
				c-0.1,0.5-0.3,0.6-0.4,0.6c-0.1,0-0.2,0.1-0.3,0.1c-0.1,0.2,0,0.4,0.2,0.4c0.4-0.2,1.1-0.4,1.7-0.7c0.1-0.1,0.1-0.4-0.1-0.4
				c-0.1,0-0.2,0-0.3,0.1c-0.1,0-0.3-0.1-0.2-0.4c0-0.2,0.1-0.9,0.1-1.2c0.2-0.1,1.5-0.5,1.6-0.5c0,0,0.3,0.7,0.4,0.9
				c0.1,0.4,0,0.5-0.2,0.6c0,0-0.2,0.1-0.3,0.1c-0.1,0.1,0,0.4,0.1,0.4c1.3-0.4,2.3-0.6,4-0.9c0-0.7-0.1-1.3-0.1-1.6
				c-0.1-0.2-0.4-0.1-0.5,0c0,0.2,0,0.3,0,0.3c-0.1,0.6-0.3,0.8-0.7,0.9c-0.2,0.1-0.3,0.1-0.7,0.2c-0.4,0.1-0.6-0.1-0.8-0.6
				c-0.1-0.3-0.4-0.9-0.4-1.1c0.2-0.1,1.2-0.3,1.4-0.3c0-0.1,0-0.4-0.2-0.5c-0.3,0.1-1.1,0.3-1.4,0.3c-0.1-0.2-0.5-1.2-0.6-1.5
				c-0.1-0.1,0-0.2,0.2-0.2c0.1,0,0.5-0.1,1-0.2c0.6-0.1,0.8,0.1,0.9,0.2c0.1,0.1,0.2,0.3,0.3,0.4c0.3,0.1,0.5-0.1,0.5-0.2
				c-0.1-0.3-0.4-0.9-0.6-1.3c-1,0.2-2.1,0.5-3,0.7C56.7,4.8,56.3,5,55.5,5.3 M57.1,5.3c0.1,0,0.2,0,0.2,0.1C57.4,5.7,58,7,58,7.3
				c-0.3,0.1-1.2,0.4-1.4,0.4c0.1-0.5,0.2-2,0.2-2.2C56.9,5.4,57,5.3,57.1,5.3"/>
			<path class="st1" d="M37.6,49.9c-0.1,0.1-0.3,0.2-0.4,0.2c0-0.1-0.1-0.2-0.1-0.3c-0.2-0.4-0.3-0.5-1.2-0.2
				c-0.6,0.2-1.6,0.5-2,0.6c-0.4,0.1-1,0.2-0.8,0.8c0,0.1,0,0.2,0.1,0.2c-0.1,0.1-0.3,0.2-0.4,0.2c-0.3-0.9-0.6-1.9-0.7-2.5
				c0-0.1,0.3-0.2,0.4-0.1c0,0.1,0.1,0.2,0.1,0.2c0.2,0.5,0.6,0.4,1.2,0.3c0.8-0.2,1.6-0.5,2-0.6c0.7-0.2,0.9-0.3,0.9-0.8
				c0-0.1,0-0.2-0.1-0.3c0.1-0.1,0.3-0.2,0.4-0.1C37.2,48.4,37.4,49.2,37.6,49.9"/>
			<path class="st1" d="M46.3,63c0,0.1-0.2,0.3-0.3,0.3c-0.1-0.1-0.2-0.1-0.2-0.2c-0.4-0.2-0.5-0.3-1.1,0.4
				c-0.4,0.4-1.2,1.2-1.5,1.5c-0.3,0.3-0.7,0.7-0.4,1.1c0.1,0.1,0.1,0.1,0.2,0.2c0,0.1-0.2,0.3-0.3,0.3c-0.7-0.7-1.4-1.4-1.9-1.9
				c0-0.1,0.2-0.3,0.3-0.3c0.1,0.1,0.1,0.1,0.2,0.2c0.4,0.3,0.8,0.1,1.1-0.3c0.6-0.6,1.2-1.2,1.5-1.5c0.5-0.5,0.6-0.7,0.4-1.1
				c0-0.1-0.1-0.1-0.2-0.2c0-0.1,0.2-0.3,0.3-0.3C45.2,62,45.7,62.6,46.3,63"/>
			<path class="st1" d="M37.7,29.5c-0.1,0-0.4-0.1-0.4-0.1c0-0.1,0.1-0.2,0.1-0.3c0.1-0.5,0-0.6-0.8-0.9c-0.6-0.2-1.6-0.6-2-0.7
				c-0.4-0.2-0.9-0.4-1.1,0.1c0,0.1-0.1,0.1-0.1,0.2c-0.1,0.1-0.4,0-0.4-0.1c0.3-0.9,0.7-1.8,1-2.4c0.1-0.1,0.4,0,0.4,0.2
				c0,0.1-0.1,0.2-0.1,0.2c-0.1,0.5,0.3,0.7,0.8,0.9c0.7,0.3,1.5,0.6,2,0.8c0.7,0.3,0.9,0.3,1.2-0.1c0-0.1,0.1-0.1,0.1-0.2
				c0.1,0,0.4,0.1,0.4,0.2C38.2,28.1,37.9,28.9,37.7,29.5"/>
			<path class="st1" d="M44.9,17.9c-0.1,0-0.3-0.2-0.3-0.3c0.1-0.1,0.1-0.1,0.2-0.2c0.3-0.4,0.3-0.5-0.3-1.2
				c-0.4-0.4-1.2-1.2-1.5-1.5c-0.3-0.3-0.6-0.8-1.1-0.4c-0.1,0.1-0.1,0.1-0.2,0.2c-0.1,0-0.3-0.2-0.3-0.3c0.7-0.7,1.4-1.3,1.9-1.8
				c0.1,0,0.3,0.2,0.3,0.3c-0.1,0.1-0.1,0.1-0.2,0.2c-0.4,0.4-0.1,0.8,0.3,1.2c0.5,0.6,1.1,1.2,1.4,1.5c0.5,0.6,0.7,0.7,1.1,0.4
				c0.1,0,0.1-0.1,0.2-0.2c0.1,0,0.3,0.2,0.3,0.3C46,16.8,45.4,17.4,44.9,17.9"/>
			<path class="st1" d="M90.4,18.5c0-0.1,0.2-0.3,0.3-0.3c0.1,0.1,0.1,0.1,0.2,0.2c0.4,0.3,0.5,0.3,1.2-0.3c0.4-0.4,1.3-1.1,1.6-1.4
				c0.3-0.3,0.8-0.6,0.4-1.1c-0.1-0.1-0.1-0.1-0.2-0.2c0-0.1,0.2-0.3,0.3-0.3c0.6,0.7,1.3,1.5,1.7,2c0,0.1-0.2,0.3-0.3,0.3
				c-0.1-0.1-0.1-0.1-0.2-0.2c-0.4-0.4-0.7-0.1-1.2,0.2c-0.6,0.5-1.3,1.1-1.6,1.3c-0.6,0.5-0.7,0.7-0.5,1.1c0,0.1,0.1,0.1,0.2,0.2
				c0,0.1-0.2,0.3-0.4,0.3C91.4,19.6,90.9,19,90.4,18.5"/>
			<path class="st1" d="M79.4,10.8c0-0.1,0.1-0.4,0.2-0.4c0.1,0,0.2,0.1,0.3,0.1c0.4,0.1,0.6,0.1,0.9-0.8c0.2-0.5,0.7-1.5,0.9-1.9
				c0.2-0.4,0.5-0.9,0-1.2c-0.1,0-0.1-0.1-0.2-0.1c-0.1-0.1,0.1-0.4,0.2-0.4c0.9,0.4,1.8,0.8,2.4,1.1c0.1,0.1-0.1,0.4-0.2,0.4
				c-0.1,0-0.2-0.1-0.2-0.1c-0.5-0.2-0.7,0.2-1,0.7c-0.3,0.7-0.7,1.5-0.9,1.9c-0.3,0.7-0.4,0.9,0,1.2c0.1,0,0.1,0.1,0.2,0.1
				c0,0.1-0.1,0.4-0.2,0.4C80.8,11.4,80.1,11.1,79.4,10.8"/>
			<path class="st1" d="M51.6,12.8c0.7-0.4,1.4-1.1,1.5-1.2c-0.2-0.4-0.4-0.9-0.6-1.3c-0.1,0-0.4,0.1-0.4,0.2
				c0.1,0.2,0.2,0.5,0.1,0.8c-0.1,0.4-0.4,0.8-0.8,1.1c-0.4,0.2-1.6,0.8-2.7-0.7c-1.1-1.6-0.2-2.7,0.4-3c0.5-0.3,1-0.3,1.3-0.2
				c0.3,0.1,0.5,0.3,0.6,0.5c0.1,0,0.3-0.2,0.4-0.3c-0.3-0.4-0.6-0.7-0.9-1.1c-0.2,0.1-1.1,0.4-1.8,0.8c-0.8,0.5-1.5,1.3-1.5,2.5
				c0,0.9,0.6,1.9,1.6,2.4C49.9,13.6,50.9,13.3,51.6,12.8"/>
			<path class="st1" d="M83.1,66.8c-0.7,0.4-1.4,1-1.6,1.1c0.2,0.4,0.3,0.9,0.5,1.3c0.1,0,0.4-0.1,0.4-0.2c0-0.2-0.2-0.5-0.1-0.8
				c0.1-0.4,0.5-0.8,0.9-1c0.4-0.2,1.7-0.7,2.6,0.9c1,1.6,0,2.7-0.6,3c-0.5,0.3-1,0.2-1.3,0.1c-0.3-0.1-0.5-0.4-0.6-0.5
				c-0.1,0-0.3,0.2-0.4,0.3c0.3,0.4,0.6,0.8,0.8,1.2c0.2,0,1.2-0.3,1.9-0.7c0.8-0.5,1.6-1.2,1.7-2.4c0-0.9-0.5-2-1.4-2.5
				C84.8,66.1,83.8,66.4,83.1,66.8"/>
		</g>
	</g>
</g>
<g id="SCI">
</g>
<g id="KU">
</g>
</svg>
