<svg xmlns="http://www.w3.org/2000/svg" viewBox="0 0 109 148"><style>.st1{fill:#fff}.st6{fill:#901a1e}</style><g id="SCI"><path class="st6" d="M107 39.8c0 21.9-17.8 39.8-39.7 39.8-22 0-39.7-17.8-39.7-39.8C27.6 17.8 45.3 0 67.3 0 89.2 0 107 17.8 107 39.8M37.7 97.8c0 10.4-8.4 18.8-18.8 18.8S0 108.2 0 97.8 8.5 79 18.9 79c10.4-.1 18.8 8.4 18.8 18.8M77.1 138.2c0 5.4-4.4 9.8-9.8 9.8s-9.8-4.4-9.8-9.8 4.4-9.8 9.8-9.8c5.4-.1 9.8 4.3 9.8 9.8"/><path class="st1" d="M95.5 25.3c-.7-1.4-1.7-2.9-2.1-3.5.1-.1.2-.3.4-.3.1.1.1.1.1.2.3.3.4.3 1.2-.2.5-.3 1.5-1 1.8-1.2.4-.2.9-.5.6-1 0-.1-.1-.1-.1-.2s.2-.3.3-.2c.5.8 1 1.6 1.3 2.1 0 .1-.2.3-.4.2-.1-.1-.1-.1-.1-.2-.3-.4-.8-.1-1.2.1-.6.4-1.2.8-1.8 1.1-.6.4-.8.5-.6.9 0 .1.1.3.3.5.1.2.3.5.5.6.2.1.6.1.7.1.1 0 .3-.1.4-.1.1 0 .2.2.1.4-.2.4-.8.6-1.4.7m2.4 6.3c.7 0 1.2-.1 1.6-.1.1-.2 0-.4-.1-.4H99c-.1 0-.5-.1-.7-.3-.2-.2-.3-.5-.4-.7-.1-.2-.1-.4-.1-.5-.1-.5.1-.5.8-.8.6-.2 1.3-.5 2-.7.4-.2 1-.4 1.2.1 0 0 0 .1.1.2.1 0 .4 0 .4-.2-.2-.6-.5-1.4-.9-2.3-.1 0-.3 0-.4.2 0 .1 0 .1.1.2.2.5-.4.7-.8.8-.3.1-1.5.5-2 .7-.8.3-1 .3-1.2-.1 0 0-.1-.1-.1-.2-.1 0-.3.1-.4.2.3.6.9 2.3 1.3 3.9M88 14.8c.1-.1.1-.2.3-.4.3-.4.4-.3.6-.2.1 0 .1.1.2.1s.3-.3.2-.4c-.5-.3-1.2-.8-1.9-1.4-.2 0-.3.2-.3.3l.3.3c.3.3.3.3 0 .7-.1.2-.2.3-.3.4-.2.2-.4.3-.7.1-.1-.1-.2-.1-.4-.3-.3-.2-1.3-1.2-.3-2.7 1-1.7 2.4-1.3 3-.9.5.3.7.7.7 1 0 .4-.1.7-.2.9 0 .1.3.2.4.2.3-.5.5-.8.8-1.2-.1-.2-.4-.6-1.4-1.3-.8-.6-1.9-1-3-.5-.8.4-1.5 1.3-1.6 2.4 0 1.3.7 2 1.4 2.5.8.6 1.4.8 1.8 1 .2-.3.3-.4.4-.6m-8.5 54.9c1.1 1.3 1.3 1.4 2.2 2.5.3.4.4.5.1.7-.1 0-.2.1-.2.1 0 .1.1.4.2.4.7-.3 1.5-.6 2.2-1 .1-.2-.1-.3-.2-.4-.1 0-.2.1-.3.1-.4.1-.6 0-1-.4-.2-.3-2.8-3.1-2.9-3.2-.1-.1-.1 0-.2 0 0 0-.4.4-.6.5 0 1.3 0 3.3-.1 4.1 0 .8-.2.9-.4 1-.1 0-.2.1-.3.1-.1.1 0 .4.1.4.6-.2 1.4-.4 1.9-.7.1-.1 0-.4-.1-.4s-.1.1-.2.1c-.3.1-.5.1-.5-.6.3-.9.3-2.2.3-3.3m5.9-4.3c-.7.5-1.4 1.1-1.5 1.3.2.4.4.9.6 1.3.1 0 .4-.1.4-.2-.1-.2-.2-.5-.1-.8.1-.4.4-.8.8-1.1.4-.2 1.6-.8 2.7.7 1.1 1.6.2 2.7-.3 3.1-.5.3-1 .3-1.3.2-.3-.1-.5-.3-.7-.5-.1 0-.3.2-.3.3.3.4.6.7.9 1.1.2-.1 1.1-.4 1.8-.9.8-.5 1.5-1.3 1.5-2.5 0-.9-.6-1.9-1.6-2.4-1.3-.4-2.2 0-2.9.4m14.2-29.5c1.5-.8 1.7-.9 3-1.5.4-.2.6-.3.7.1v.2c.1.1.4 0 .4-.1-.1-.8-.2-1.6-.4-2.4-.1-.1-.4 0-.4.1v.3c0 .4-.2.6-.7.9-.3.2-3.7 1.9-3.8 2-.1 0-.1.1 0 .2 0 0 .3.5.4.7 1.3.3 3.2.9 4 1.1.8.2.9.4.9.6v.3c.1.1.4.1.4 0 0-.6-.1-1.5-.1-2-.1-.1-.4-.1-.4 0v.2c0 .3-.1.4-.7.3-1-.4-2.3-.7-3.3-1m-62.8-6.1c-1.7.1-2 .1-3.3.2-.5 0-.7 0-.6-.4v-.2c-.1-.1-.3-.2-.4-.1-.2.8-.4 1.5-.6 2.4.1.2.3.1.4.1 0-.1.1-.2.1-.3.2-.4.4-.4 1-.5.4 0 4.2-.2 4.3-.2.1 0 .1-.1.1-.1v-.8c-1.1-.8-2.6-2.1-3.2-2.6-.6-.5-.6-.7-.6-.9 0-.1.1-.2.1-.3-.1-.1-.3-.2-.4-.2-.2.5-.5 1.4-.7 1.9.1.1.3.2.4.2 0-.1.1-.1.1-.2.1-.2.2-.4.7 0 .8.5 1.8 1.4 2.6 2m34 41.2c-.1.7-.1 1.2-.1 1.6.2.2.4.1.4 0s0-.3.1-.4c0-.1.2-.4.4-.6.2-.2.5-.2.8-.3.2 0 .5-.1.5-.1.5 0 .5.1.6.9.1.6.3 1.3.4 2.1.1.5.2 1-.3 1.1 0 0-.1 0-.2.1s0 .4.1.4c.6-.1 1.5-.3 2.4-.5.1-.1 0-.3-.1-.4h-.2c-.6.1-.7-.4-.8-.9-.1-.4-.3-1.5-.4-2.1-.2-.9-.1-1 .3-1.1.1 0 .1 0 .2-.1 0-.1 0-.3-.1-.4-.7.2-2.4.5-4 .7m28.5-28.7c0-.5.5-.4 1.1-.3.5.1 2 .3 2.6.4-.3.1-2.2.6-2.9.8-.7.2-1.3.4-1.4.4-.1.1-.1.2 0 .3.2.1.5.3 1.3.8.7.5 2.1 1.4 2.6 1.7-.4 0-2.1-.2-2.8-.3-.8-.1-.8-.2-.8-.5v-.2c-.1-.1-.3-.1-.4-.1-.1.7-.2 1-.5 2.2.1.1.3.2.4.1 0-.1 0-.1.1-.3.1-.3.4-.3 1.2-.3.6 0 1.7.2 2.4.3.7.1.7.3.6.6v.2c.1.1.3.2.4.1.1-.6.3-1.4.4-1.9-.3-.1-.7-.3-1-.5-.1-.1-2.1-1.3-2.4-1.6.7-.3 2.3-.7 2.9-.9.5-.2.7-.2 1-.1.1-.8.1-1.2.1-2-.1-.1-.3-.1-.4 0v.2c0 .6-.6.5-1.1.4-.3 0-1.8-.3-2.3-.4-.8-.2-.8-.4-.9-.7v-.2c-.1-.1-.3-.1-.4 0 0 .7 0 1.2-.1 2 .1.1.3.1.4 0l-.1-.2zM68.4 5.7c0-.5-.4-.8-.8-.8-.5 0-.8.4-.8.8 0 .5.4.8.8.8s.8-.4.8-.8m.2 69.1c0 .2-.1.4-.2.5-.1.2-.3.4-.8.4h-.7s.1-2.5.1-3c0-.9.1-1 .5-1.1h.2c.1-.1.1-.3 0-.4-.7 0-1.7 0-2.5-.1-.1.1-.1.4 0 .4h.3c.4.1.5.3.5 1.1 0 .4 0 .4-.1 3.1-.4 0-.8 0-.9-.1-.5-.1-.6-.4-.6-.6 0-.1-.1-.3-.1-.4-.1-.1-.4-.1-.5 0v1.5c2.1.2 3.2.2 5 .2 0-.1.3-1.2.3-1.4-.1-.1-.3-.2-.5-.1M53.7 72c-.1.1-.2.3-.4.4-.2.1-.5.2-.9 0-.1-.1-.3-.2-.6-.3 0 0 1.1-2.2 1.4-2.7.4-.8.5-.9.9-.7.1 0 .1 0 .2.1.1-.1.2-.3.2-.4-.7-.3-1.5-.7-2.2-1.1-.1 0-.3.3-.2.4.1.1.2.1.2.2.4.3.3.5 0 1.2-.2.4-.2.3-1.4 2.7-.3-.2-.7-.4-.8-.4-.4-.2-.3-.6-.3-.8 0-.1.1-.3.1-.4-.1-.1-.3-.2-.4-.2-.1.2-.5 1.1-.7 1.3 1.8 1.1 2.8 1.6 4.5 2.3.1-.1.8-1 .9-1.1-.1-.4-.4-.5-.5-.5m41.2-15.9c0-.1.1-.1.1-.2.3-.3.5-.5 1.1-.2.1.1.6.4.8.5-.3.5-.4.8-.7 1.2.1.1.3.3.5.3.3-.5.4-.7.7-1.3.1.1 1.3.7 1.4.8.1.1.2.1.1.4-.1.2-.3.5-.6.9-.5.7-1.4.3-1.7.2-.2.1-.2.3-.2.5l1.6.8c1.1-1.6 1.6-2.6 2.2-3.9-.1-.1-.2-.2-.4-.2 0 0-.1.1-.1.2-.3.5-.6.3-1.2 0-.4-.2-1.1-.6-1.9-1-.9-.4-.8-.6-.7-1 0-.1 0-.1.1-.2-.1-.1-.3-.2-.4-.2-.4.8-.8 1.6-1.2 2.3.2-.1.4 0 .5.1m-16-45.7c.7.3 1.4.6 2.3 1 .1-.1.2-.3.2-.4-.1-.1-.2-.1-.2-.1-.4-.3-.3-.5 0-1.2.2-.4.6-1.2.9-1.9.2-.5.4-.9 1-.7 0 0 .1 0 .2.1.1 0 .2-.3.2-.4-.7-.3-1.7-.8-2.5-1.1-.1 0-.2.3-.1.4.1 0 .1.1.2.1.5.3.2.7.1 1.2-.2.4-.6 1.4-.8 1.9-.4.8-.5.9-.9.8-.1 0-.2 0-.3-.1-.2.1-.3.3-.3.4M49.2 65.2c-.6-.4-1.2-.9-2-1.6-.1 0-.3.2-.3.3.1.1.2.1.2.2.3.3.2.5-.3 1.1-.3.3-.8 1-1.3 1.6-.3.4-.6.8-1.1.5 0 0-.1-.1-.2-.1s-.3.2-.3.3c.5.4 1.3 1.1 2.1 1.6.1 0 .3-.2.2-.4l-.2-.2c-.4-.4 0-.8.2-1.1.3-.4.9-1.2 1.3-1.7.6-.7.7-.7 1.1-.5.1 0 .2.1.2.1.3.3.4.1.4-.1m40.6-47.7c.5.5 1.1 1.1 1.7 1.9.1 0 .3-.2.3-.3-.1-.1-.1-.2-.2-.2-.2-.4-.1-.6.4-1.1.3-.3 1-.9 1.6-1.4.4-.4.7-.6 1.2-.3l.2.2c.1 0 .3-.2.3-.3-.4-.5-1.1-1.3-1.8-2-.1 0-.3.2-.3.3l.2.2c.3.4-.1.8-.4 1.1-.3.3-1.1 1-1.5 1.5-.7.6-.8.6-1.2.3-.1 0-.1-.1-.2-.2-.1 0-.3.2-.3.3m-38.3-4.8l-.5-1.5c-.2-.1-.4.1-.4.2s.1.3.1.4c0 .1 0 .5-.1.7-.1.2-.4.4-.6.6-.2.1-.4.2-.5.3-.4.2-.5.1-1-.5-.4-.5-.8-1.1-1.2-1.7-.3-.4-.6-.8-.2-1.2 0 0 .1-.1.2-.1 0-.2-.1-.3-.3-.3-.5.3-1.3.9-2 1.5 0 .1.1.3.3.3.1 0 .1-.1.2-.1.5-.3.7.2 1 .6.2.3.9 1.3 1.3 1.7.5.7.5.8.2 1.2l-.2.2c0 .1.2.3.3.3.6-.8 2.1-1.8 3.4-2.6M73 8.6s.5.4 1.6.7c1.1.3 2-.2 2.2-1.1.2-1-.5-1.5-1.1-2-.7-.5-1-.8-.9-1.2 0-.3.3-.8 1.2-.5.9.3.8 1.1.8 1.2.1.1.3.2.5.1.1-.3.2-1.1.1-1.2-.2-.1-.6-.3-1.4-.5-1.7-.4-2.2.7-2.2 1.3 0 .5.2.9 1.1 1.6.7.5 1 .9.8 1.4-.1.3-.5.6-1.1.5-1-.2-.9-.9-.9-1.5-.1-.1-.4-.1-.5-.1-.1.1-.2.7-.2 1.3M45 61.8s-.2-.6-.9-1.5c-.7-.8-1.8-1-2.5-.4-.8.7-.5 1.5-.3 2.2.2.8.3 1.2 0 1.5-.2.2-.7.4-1.2-.2-.6-.7 0-1.3.1-1.4 0-.2-.2-.3-.3-.3-.2.2-.8.8-.8.9.1.2.3.6.8 1.3 1.1 1.3 2.2.7 2.5.2.3-.4.4-.8 0-2-.3-.8-.3-1.3.1-1.6.3-.2.8-.2 1.2.2.7.8.2 1.3-.1 1.8 0 .2.2.3.3.4l1.1-1.1m8.7-50.3c.6-.3 1.4-.7 2.3-1 0-.1-.1-.4-.2-.4s-.2.1-.3.1c-.4.1-.6-.1-.9-.8-.2-.4-.5-1.2-.8-1.9-.2-.5-.4-.9.1-1.2 0 0 .1-.1.2-.1.1-.1 0-.4-.2-.4-.6.3-1.6.7-2.4 1.1 0 .1.1.4.2.4s.1-.1.2-.1c.5-.2.7.3.9.7.2.4.6 1.4.9 1.9.4.8.3.9-.1 1.2-.1 0-.2.1-.2.1.1.1.2.3.3.4m5.1-2.2s.6.1 1.7-.1 1.7-1.1 1.5-2c-.2-1-1.1-1.1-1.8-1.3-.8-.2-1.2-.3-1.3-.7-.1-.3 0-.8.8-1 .9-.2 1.2.6 1.2.7.2.1.3 0 .4-.1-.1-.3-.3-1-.4-1.1-.3 0-.7-.1-1.5.1-1.7.4-1.6 1.6-1.4 2.1.2.4.5.7 1.7 1 .8.2 1.3.4 1.3.9 0 .4-.1.8-.8.9-1 .2-1.2-.4-1.5-1-.2 0-.4 0-.5.1.3.5.4 1 .6 1.5m1.8 61.1c.2 0 1.2.2 1.8.4.1.1.1.3-.1.4h-.2c-.2 0-.4 0-.9.7-.5.6-2.3 3.1-2.4 3.3-.1 0-.8 0-.8.1 0 0-.1 0-.1-.1s-.4-3.9-.4-4.3c0-.2 0-.9-.4-1-.1 0-.1-.1-.3-.1 0-.1 0-.3.2-.4 1 .3 1.8.6 2.1.7.1.1 0 .3-.1.4h-.2c-.4-.1-.4.2-.4.6v.6c.2.1 1.7.4 1.9.5.1-.1.1-.2.3-.4.3-.4.3-.6 0-.7-.1 0-.1 0-.2-.1 0-.3 0-.6.2-.6m-.5 2l-1.6-.4.2 2.2h.1l1.3-1.8zM32.5 38.9c-.2 0-.4-.1-.5-.3-.2-.1-.3-.3-.3-.8 0-.1 0-.4.1-.7 0 0 2.5.2 3 .2.9.1 1 .1 1 .6v.2c.1.1.3.1.4 0 0-.7.1-1.7.2-2.4-.1-.1-.4-.1-.4-.1 0 .1 0 .2-.1.3-.1.4-.3.5-1.1.4-.4 0-.4 0-3-.3 0-.4.1-.8.1-.9.1-.5.5-.5.6-.6h.4c.1-.1.1-.4 0-.5-.2 0-1.2-.1-1.5-.1-.3 2-.4 3.2-.4 5 .1 0 1.2.4 1.3.4.2 0 .2-.3.2-.4m4 5.8c0 .2.2 1.2.3 1.8 0 .1-.3.2-.4.1 0 0 0-.1-.1-.2-.1-.2-.2-.4-1-.6-.6-.2-2.6-.7-3.5-.9-.3-.1-.5-.1-.5-.1 0-.1-.3-.8-.3-.8v-.1c.1 0 3.5-1.8 3.8-2 .2-.1.8-.4.8-.8v-.3c.1-.1.3-.1.4 0 .1 1 .1 1.9.2 2.2-.1.1-.3.1-.4 0v-.2c-.1-.4-.4-.3-.7-.1-.3.2-.3.2-.5.3 0 .2.2 1.7.3 2 .1 0 .2 0 .5.1.5.1.7.1.7-.3v-.2c.1 0 .3-.1.4.1m-2 .3l-.2-1.7-2 1v.1l2.2.6zm9.6-26.2c-.2.2-.8.9-1.2 1.4-.1 0-.3-.1-.3-.3 0 0 .1-.1.1-.2.1-.2.2-.4-.2-1.1-.3-.6-1.1-2.4-1.5-3.3-.1-.2-.3-.4-.3-.4 0-.1.4-.7.4-.8 0 0 0-.1.1 0 .1 0 3.6 1.6 3.9 1.7.2.1.8.4 1.1.1l.2-.2c.1 0 .3.2.3.3-.8.7-1.4 1.3-1.6 1.5-.1 0-.3-.1-.3-.3l.1-.1c.3-.3 0-.5-.3-.6-.4-.2-.3-.2-.5-.2l-1.4 1.4c0 .1.1.2.2.5.2.5.4.6.7.3l.1-.1c.2.1.4.2.4.4m-1.5-1.4l1.1-1.2-2-.9h-.1v.1l1 2zM91.5 60c.1-.2.8-.9 1.2-1.4.1 0 .3.1.3.3 0 0-.1.1-.1.2-.1.2-.2.4.2 1.1.4.7 1.7 3.5 1.8 3.7 0 .1-.3.7-.3.8 0 0 0 .1-.1 0-.1 0-3.7-1.5-4-1.6-.2-.1-.8-.4-1.1-.1l-.2.2c-.1 0-.3-.2-.3-.3.8-.7 1.4-1.3 1.6-1.6.1 0 .3.1.3.3l-.1.1c-.3.3 0 .5.4.6.4.1.3.1.5.2.2-.2 1.1-1.3 1.3-1.5 0-.1-.1-.2-.2-.5-.2-.5-.4-.6-.7-.3l-.1.1c-.2 0-.4-.1-.4-.3m1.6 1.4L92 62.6l2.1.8h.1v-.1l-1.1-1.9zm-53.7-7.7c-.2-.3-.7-1.4-.8-1.8-.2-.1-.3 0-.4.2 0 .1 0 .1.1.2.1.4 0 .5-.8.9-.5.3-2 1-2.4 1.1.1-.3 2.3-4.5 2.6-5.2 0-.1-.2-.3-.3-.3-.1.1-.2.2-.4.2-.8.3-2.6.8-3.1.9-.8.3-1 .2-1.2-.2 0-.1-.1-.2-.1-.2-.1-.1-.4 0-.4.1.1.5.4 1.4.7 2.1.1.1.3 0 .4-.1 0-.1-.1-.2-.1-.3-.1-.5.1-.6.9-.8.4-.1 1.7-.5 2.1-.6-.2.4-2 3.9-2 4-.1.3-.2.4-.3.4.1.1.1.1.1.2.2.4.5 1.1.7 1.4.1 0 .3-.1.4-.2 0-.1-.1-.2-.1-.2-.2-.5.2-.6.8-.8.5-.2 1.3-.6 1.9-.9.7-.3 1-.3 1.2 0 0 .1.1.2.1.2.2 0 .4-.1.4-.3M36 22.3s0-.1.1-.2.2-.3.3-.5c.1-.2.3-.4.6-.5.3-.1.6 0 .8.1.2.1.4.2.6.5.2.3.1.7-.1.9l.1.2c.4-.1 2.6-.4 3-.5.3-.5.7-1.1.8-1.2-.1-.1-.2-.2-.4-.2-.1.1-.1.2-.2.2-.3.3-.4.3-1 .5-.6.1-1.2.2-1.8.2.1-.6.1-1.2-.6-1.6-1-.6-1.7 0-2 .5-.1.2-.3.4-.4.6-.1.2-.5.8-1.1 2.1 0 .1.3.2.4.2 0-.1.1-.1.1-.2.2-.4.4-.4 1.2.1.3.2 1.4.7 1.9 1 .8.4.9.5.7 1 0 .1-.1.1-.1.2.1.1.3.2.4.2.3-.7.7-1.5 1.1-2.1 0-.1-.3-.3-.4-.2-.1.1-.1.2-.2.2-.3.4-.5.3-1.2 0-.2-.2-1.7-1-2.6-1.5M84.7 58.5c.1 0 .2.1.2.2l-.1.1c-.2.2-.2.3.2.7.2.3.7.8.9 1 .2.2.4.5.7.3.1 0 .1-.1.1-.1.1 0 .2.1.2.2-.4.4-.9.8-1.2 1.1-.1 0-.2-.1-.2-.2.1 0 .1-.1.1-.1.2-.2.1-.5-.2-.7-.3-.4-.7-.8-.9-1-.3-.4-.4-.4-.7-.3l-.1.1c-.1 0-.2-.1-.2-.2.5-.5.9-.8 1.2-1.1M70.3 65c-.4.1-.9.1-1.6.1-.1.1 0 .2 0 .3h.2c.3 0 .3.2.4.6 0 .3.1.8.1 1.3 0 .3 0 .6-.3.7H69c-.1.1-.1.2 0 .3.4 0 1-.1 1.6-.1v-.3h-.2c-.4.1-.4-.3-.4-.6s-.1-.9-.1-1.3c-.1-.6 0-.6.3-.7h.2c0-.1-.1-.2-.1-.3M45.5 52.2c-.2-.4-.5-.8-.7-1.4-.1 0-.2.1-.3.1 0 .1.1.1.1.2.1.3 0 .4-.4.6-.2.1-.7.4-1.2.6-.3.2-.6.3-.7 0 0 0 0-.1-.1-.1s-.2 0-.3.1c.2.4.5.9.8 1.4.1 0 .2-.1.2-.1s0-.1-.1-.1c-.1-.3.2-.4.4-.6.2-.1.8-.5 1.2-.6.5-.3.6-.2.8 0l.1.1.2-.2m-3.1-16.1c.1-.4.1-.9.3-1.5-.1-.1-.2-.1-.3-.1v.2c-.1.3-.2.3-.7.2-.3-.1-.8-.2-1.3-.2-.3-.1-.6-.1-.6-.5v-.1c0-.1-.2-.1-.3-.1-.1.4-.2 1-.3 1.6 0 .1.2.1.3 0v-.2c.1-.3.4-.2.7-.2.3 0 .9.2 1.3.2.6.1.6.2.6.4v.2c.1.1.3.1.3.1M93 39.7v1.6c.1.1.2.1.3 0v-.2c.1-.3.2-.3.7-.3.3 0 .8 0 1.3.1.3 0 .6 0 .6.4v.1c0 .1.2.1.3 0v-1.6h-.3v.2c0 .4-.4.3-.7.3h-1.3c-.6 0-.6-.1-.7-.4v-.2H93m-5.5 16s-.4.1-.9.6-.5 1.2 0 1.5c.5.4 1 .2 1.4 0 .5-.2.7-.3.9-.1.1.1.3.4 0 .8-.5.5-.9.2-.9.1-.1 0-.2.1-.2.2.1.1.5.4.6.4.1-.1.4-.3.7-.6.7-.8.2-1.4-.1-1.6-.3-.2-.5-.2-1.2.1-.5.2-.8.3-1 0-.2-.2-.2-.4.1-.7.4-.5.8-.2 1.1-.1.1 0 .2-.2.2-.3-.2.1-.4-.1-.7-.3m-20.6 9.6s-.3-.2-1-.3c-.7 0-1.2.3-1.2.9 0 .6.5.9.9 1.1.5.2.7.4.7.6 0 .2-.1.5-.6.5-.6-.1-.6-.6-.6-.6-.1-.1-.2-.1-.3 0v.8c.2 0 .4.1.9.2 1.1.1 1.2-.7 1.2-1 0-.3-.2-.5-.9-.9-.5-.2-.7-.4-.6-.8 0-.2.2-.4.6-.4.6 0 .7.5.8.8h.3c-.2-.3-.1-.6-.2-.9M42.1 39.9s.2-.3.3-1c0-.7-.4-1.2-1-1.2s-.9.5-1.1.9c-.2.5-.4.7-.6.7-.2 0-.5-.1-.5-.6 0-.6.6-.6.6-.6.1-.1.1-.2 0-.3-.2 0-.7 0-.8.1 0 .2-.1.4-.1.9 0 1.1.7 1.2 1.1 1.1.3 0 .5-.2.9-.9.2-.5.4-.7.7-.7.2 0 .4.2.4.6 0 .6-.5.7-.8.8v.3c.2.1.5 0 .9-.1m1-7.2s.3-.3.5-.9c.2-.7-.1-1.3-.6-1.4-.6-.2-1 .2-1.3.6-.3.4-.5.6-.8.5-.2 0-.5-.2-.3-.7.2-.6.7-.4.8-.4.1-.1.1-.2.1-.3-.2-.1-.7-.1-.8-.1-.1.1-.2.4-.4.9-.3 1 .4 1.3.7 1.4.3 0 .6-.1 1.1-.6.3-.4.6-.6.9-.5.2.1.4.3.3.7-.2.6-.7.5-1 .6-.1.1-.1.2-.1.3.2-.2.5-.1.9-.1m49.1-1.2c.9-.7.9-.8 1.6-1.3.2-.2.3-.3.5 0 0 .1 0 .1.1.1s.2 0 .3-.1c-.2-.5-.3-.9-.6-1.4-.1-.1-.2 0-.3.1v.2c.1.3 0 .4-.3.6-.2.1-2 1.6-2.1 1.7v.1s.2.3.3.4c.8 0 2.1.1 2.6.2.5 0 .6.1.6.3v.2c.1 0 .2 0 .3-.1-.1-.4-.2-.9-.4-1.2-.1-.1-.2 0-.3.1v.1c0 .2 0 .3-.4.3-.5-.2-1.2-.2-1.9-.3m.9 13.2c1.1-.2 1.2-.2 2-.3.3 0 .4-.1.4.2v.1c.1.1.2.1.3 0 .1-.5.2-1 .2-1.5-.1-.1-.2-.1-.3 0v.2c-.1.3-.2.3-.6.4-.2 0-2.6.4-2.6.4-.1 0-.1.1-.1.1s.1.4.1.5c.7.4 1.7 1.1 2.1 1.4.4.3.5.4.4.5v.2c0 .1.2.1.3.1.1-.4.2-.9.3-1.2 0-.1-.2-.1-.3-.1v.1c-.1.2-.1.3-.5.1-.5-.4-1.2-.9-1.7-1.2m-1 9.2c-.1.2-.2.3-.3.5-.1.1-.2.3-.4.3s-.4 0-.5-.1c-.1-.1-.2-.1-.3-.3-.1-.2 0-.4.1-.6l-.1-.1c-.3 0-1.6.2-1.9.3-.2.3-.5.7-.5.8 0 .1.1.2.2.2 0-.1.1-.1.1-.1.2-.2.2-.2.6-.3.4-.1.8-.1 1.1-.1-.1.4-.1.8.3 1 .6.4 1.1 0 1.3-.3.1-.1.2-.3.2-.4.1-.1.3-.6.8-1.4 0-.1-.2-.2-.2-.1 0 0 0 .1-.1.1-.2.3-.2.2-.7 0-.2-.1-.9-.5-1.2-.6-.5-.3-.5-.3-.4-.6 0 0 0-.1.1-.1 0-.1-.2-.1-.2-.1-.2.4-.5.9-.7 1.3 0 .1.2.2.2.1l.1-.1c.2-.2.3-.2.7 0 .2-.2 1.2.4 1.7.7M77.9 63c.1-.1.7-.3 1-.5.1 0 .2.2.1.2 0 0-.1 0-.1.1-.1.1-.2.2-.2.7v2.6l-.3.3h-.1s-1.7-1.8-1.8-2c-.1-.1-.4-.4-.6-.4h-.2s-.1-.2-.1-.3c.6-.2 1.1-.4 1.3-.5.1 0 .1.2.1.2h-.1c-.2.1-.1.3.1.4.2.2.2.2.2.3.1-.1.9-.4 1.1-.5v-.3c0-.3 0-.4-.3-.4h-.1c0 .3-.1.2 0 .1m.5 1.2l-.9.4 1 1-.1-1.4zm5.1-1.8c0 .1.1.2.1.4 0 .1 0 .3-.3.5-.1 0-.2.1-.4.2 0 0-.8-1.3-1-1.6-.3-.5-.3-.6-.1-.7l.1-.1c0-.1-.1-.2-.2-.2-.4.3-.9.6-1.3.8 0 .1.1.2.1.2.1 0 .1-.1.2-.1.3-.1.4 0 .6.4.1.2.1.2 1 1.6-.2.1-.4.2-.5.3-.3.1-.4 0-.5-.1l-.2-.2c-.1 0-.2.1-.2.2.1.1.4.6.5.8 1.1-.6 1.7-1 2.7-1.7 0-.1-.3-.7-.3-.8-.1 0-.3.1-.3.1m-8.3 4v.4c0 .1-.1.3-.4.4-.1 0-.2.1-.4.1 0 0-.4-1.5-.4-1.9-.1-.5-.1-.6.2-.7h.1c0-.1 0-.2-.1-.3-.4.1-1 .3-1.5.3v.3h.2c.3 0 .3.1.5.6.1.3.1.2.4 1.9-.2.1-.5.1-.6.1-.3 0-.4-.2-.5-.2 0-.1-.1-.2-.1-.2-.1 0-.2 0-.3.1 0 .1.2.7.2.9 1.2-.2 1.9-.4 3.1-.7v-.9c-.2-.3-.3-.3-.4-.2m17.2-32c.1.3.2 1 .2 1.3.1.1.2 0 .3 0v-.2c0-.2.1-.3.6-.4.3-.1 1.4-.3 1.6-.3-.2.3-.5.6-1 1.1-.5.6-1 1.2-1.4 1.7 0 .1.1.2.1.2.2 0 1.9-.1 2.3-.2.5 0 .6 0 .7.2v.1c.1.1.2.1.3 0 0-.3-.1-.9-.1-1.3-.1-.1-.2 0-.3 0v.2c0 .3-.1.4-.6.4-.2 0-1.1.1-1.4.1.1-.1.4-.5.9-1.1.5-.5.8-.9.9-1 .1-.1.2-.2.3-.2v-.1c0-.3-.1-.8-.2-1-.1 0-.2 0-.3.1v.2c0 .3-.2.3-.6.4-.4.1-.9.2-1.3.2-.5.1-.7 0-.7-.2v-.2c-.1-.2-.3-.1-.3 0M58.8 63.6c-.1 0-.1.2-.1.3.1 0 .1.1.2.1.3.1.2.3.1.7 0 .1-.1.3-.2.5 0 0-.4-.2-.8-.3-.4-.1-.8-.3-.8-.3.1-.2.2-.4.2-.5.2-.5.3-.6.6-.5h.1c.1 0 .1-.2.1-.3-.5-.2-1-.4-1.4-.6-.1 0-.2.2-.1.3.1 0 .1.1.1.1.2.1.2.3 0 .7l-.6 1.2c-.1.3-.3.6-.6.5 0 0-.1 0-.1-.1-.1 0-.1.2-.1.3.3.2.9.4 1.5.6.1 0 .1-.2.1-.3 0 0-.1 0-.1-.1-.3-.1-.2-.4-.1-.7 0-.1.1-.3.2-.4 0 0 .5.2.8.3.3.1.8.3.8.3-.1.2-.1.3-.1.5-.1.3-.2.6-.6.5h-.1c-.1.1-.1.2-.1.3.4.1 1 .3 1.5.5.1 0 .1-.2.1-.3h-.1c-.3-.1-.2-.3-.1-.7.1-.2.3-.9.4-1.3.2-.5.2-.6.5-.5h.1c.1 0 .1-.2.1-.3-.4-.2-.9-.3-1.4-.5m33-16.2c-.3.8-.6 1.8-.9 2.5.1.1.7.5.8.5.1 0 .2-.2.2-.3 0 0-.1-.1-.2-.1-.2-.2-.3-.4-.2-.7 0-.1.1-.2.1-.3.1-.3.2-.5.7-.3.1 0 .6.2.6.2l-.3.9c.1.1.2.1.3.1 0 0 .1-.2.3-.9.1 0 .8.3.9.3.1 0 .1.1.1.2s-.2.5-.3.8c-.1.3-.3.3-.5.3h-.3c-.1 0-.1.2-.1.3.2.1.6.2.8.3.4-1 .8-2 1-2.7 0-.1-.2-.1-.3-.1v.1c-.1.3-.3.2-.7.1-.3-.1-.8-.3-1.3-.4-.5-.2-.5-.4-.5-.6v-.1c0-.1-.1-.1-.2-.1m-47.7 2c-.3-.8-.7-1.8-.9-2.5-.2 0-.8.1-.9.1-.1.1 0 .2 0 .3h.2c.3 0 .5.1.6.4 0 .1.1.2.1.3.1.4.1.5-.3.6-.1 0-.6.2-.6.2l-.3-.9c-.1 0-.2 0-.3.1 0 0 .1.2.3.9-.1 0-.8.3-.9.3-.1 0-.1 0-.2-.1s-.2-.5-.3-.8c-.1-.3.1-.4.2-.5.1-.1.2-.1.3-.2 0-.1 0-.2-.1-.3-.2.1-.6.2-.8.3.3 1 .7 2.1.9 2.7.1 0 .2 0 .3-.1v-.1c-.1-.3.1-.4.5-.5.3-.1.8-.3 1.2-.5.6-.2.7-.1.8.1l.1.1c-.1.2 0 .2.1.1m4.5 7.2c-.2-.2-.6-.7-.8-1-.1 0-.2.1-.2.2 0 0 0 .1.1.1.1.2.1.3-.3.7-.3.2-1.1.9-1.3 1.1.1-.3.2-.8.3-1.5.1-.7.3-1.5.4-2.1 0-.1-.1-.1-.2-.1-.1.1-1.6 1.1-1.9 1.3-.5.3-.5.3-.7.1l-.1-.1c-.1 0-.2.1-.2.2.2.3.5.7.8 1.1.1 0 .2-.1.2-.2l-.1-.1c-.2-.3-.1-.4.3-.7.2-.1 1-.6 1.2-.8 0 .2-.1.7-.2 1.4s-.3 1.2-.3 1.4c0 .2-.1.2-.1.3l.1.1c.2.2.5.6.6.8.1 0 .2-.1.2-.2s-.1-.1-.1-.1c-.2-.3 0-.4.3-.6.3-.2.7-.6 1-.9.4-.3.6-.4.7-.2l.1.1c.1-.1.2-.2.2-.3m-5.8-11.4c-.1-.3-.2-1-.2-1.3-.1-.1-.2 0-.3 0v.2c0 .2-.1.3-.6.4-.3.1-1.4.3-1.6.3.2-.3.5-.6 1-1.1.5-.6 1-1.2 1.3-1.7 0-.1-.1-.2-.1-.2-.2 0-1.9.1-2.3.2-.5 0-.6 0-.7-.2v-.1c-.1-.1-.2-.1-.3 0 0 .3.1.9.1 1.3.1.1.2 0 .3 0v-.2c0-.3.1-.4.6-.4.2 0 1.2-.1 1.4-.1-.1.1-.4.5-.9 1.1-.5.5-.8.9-.9 1-.1.1-.2.2-.3.2v.1c0 .3.1.8.2 1 .1 0 .2 0 .3-.1v-.2c0-.3.2-.3.6-.4.4-.1.9-.2 1.3-.3.5-.1.7 0 .7.2v.2c.2.3.3.2.4.1m7.3 13.3l.1.1c.2.2.3.4 0 .7l-.4.4c-.3-.2-.4-.4-.7-.6-.1 0-.2.1-.2.2.3.2.4.4.7.6-.1.1-.6.7-.7.8-.1.1-.1.1-.2 0s-.3-.2-.5-.5c-.3-.4 0-.9.1-1.1 0-.1-.1-.2-.3-.2-.2.2-.5.7-.7.9.9.9 1.4 1.3 2.1 1.9.1 0 .2-.1.2-.2l-.1-.1c-.2-.2-.1-.4.2-.7.2-.2.5-.6.9-1 .4-.5.5-.4.7-.3l.1.1c.1 0 .2-.1.2-.2-.4-.3-.9-.7-1.2-1.1-.2.1-.3.3-.3.3m4.5 3.1c.2.1.6.4 1 .6 0 .1 0 .2-.1.2 0 0-.1 0-.1-.1-.1 0-.3-.1-.7.2-.4.3-2 1.4-2.1 1.5-.1 0-.4-.1-.4-.1s-.1 0 0-.1c0-.1.5-2.4.6-2.6 0-.1.1-.5-.1-.7-.1 0-.1-.1-.1-.1 0-.1.1-.2.2-.2.5.4.9.7 1.1.8 0 .1-.1.2-.1.2l-.1-.1c-.2-.1-.3.1-.3.3-.1.2-.1.2-.1.4.1.1.9.5 1 .6.1 0 .1-.1.3-.2.3-.2.3-.3.1-.4-.1-.1-.1 0-.1-.1-.2 0-.2-.1 0-.1m-.7 1.1l-.9-.6-.3 1.4 1.2-.8zM69.2 44.3c.2 2.3.7 5.6 1.3 7.9l-.7 1.2c-1.1-4.3-1.4-6.9-1.5-7.8-.4.9-1.1 2.3-2 4.4.7 2.3 2 5.9 3.2 8.4l-.5 1.1c-1.3-2.7-2.1-5-2.8-6.7-.2-.7-.4-1.2-.5-1.6-.4 1.2-1.5 4.1-2.3 8.7l-1.1.5c.6-3.6 1.7-7.3 2.9-10.5-.5-1.9-1-3.9-1.2-5.3-1.1-.4-1.8-1.3-2.3-3.3.5.5.9.8 1.6 1.2l.1-.7c-1.5-1.1-2-2.1-2.2-3.6.5.5.9.9 1.6 1.4l.1-.7c-1.1-1.1-1.8-1.9-1.9-3.4.4.5.9.9 1.7 1.4l.1-.7c-1.1-1.2-1.6-1.9-1.5-3.1.5.7.9.9 1.4 1.3l.2-.6c-.9-1.1-1.1-1.6-1-2.5.6.7.7.8 1.3 1.3 0 0 .1-1.6.6-2.6.4.8.4 2.2.4 3.2.5-.5 1-1.3 1.3-1.8.1 1.6-.2 2.1-1.1 3.5l.2.5c.5-.4.9-.7 1.4-1.5.1 1.7-.3 2.2-1.3 3.8l.2.6c.7-.6 1.2-1.1 1.5-1.8.2 1.6-.4 2.6-1.4 4.2l.2.6c.6-.5.9-.7 1.3-1.4.3 1.7-.4 3.3-1.4 4.1.2 1 .4 2 .6 3.1.2.7.3 1.3.3 1.5.3-.8 1-2.3 2.3-4.7-.1-4.5.6-8.9 2.1-13.3-.9-.7-1.4-2.5-.6-4.3.2 1 .5 1.8.7 2.2l.4-.4c-.3-2.1-.3-3 .3-4.4.1.7.3 1.6.6 2.3l.5-.5c-.3-2-.4-3 .3-4.4.1.7.4 1.6.6 2.3l.5-.4c-.2-1.6-.2-3 .4-4.1.1.7.2 1.4.5 2.4l.5-.4c-.1-1.7.1-2.8.7-3.4 0 .9.1 1.3.3 2l.5-.4c0-1.4 0-1.9.6-2.5.1.8.1 1.1.3 1.7 0 0 1.1-1.1 2-1.6-.2.8-.9 1.9-1.6 2.7.7-.1 1.6-.4 2.1-.6-.9 1.3-1.4 1.5-2.9 1.9l-.1.5c.7 0 1.3 0 2.2-.3-1 1.3-1.7 1.5-3.4 2.1l-.2.6c1-.1 1.9-.3 2.5-.6-.8 1.4-1.9 1.8-3.6 2.4l-.5.7c1-.1 1.9-.4 2.5-.7-.7 1.4-2 2.1-3.7 2.6l-.2.6c1.3-.2 1.6-.3 2.6-.7-1 1.8-2.8 2.7-4 2.8-1.3 3.6-1.8 6.7-2 9.1-.1 1.2-.1 2.1-.2 3 .2-.3.3-.6.6-1 .7-1.1 1.2-1.9 2.2-3.3-.5-1-.5-2.6.6-4 0 1 .1 1.8.2 2.3l.4-.4c0-2 .3-2.9 1.1-4.2 0 .7 0 1.4.1 2.4l.5-.4c.1-2.1.4-3.1 1.3-4.3-.1.8 0 1.7 0 2.5l.6-.4c.1-1.6.3-3 1.2-4-.2 1.1-.1 1.3 0 2.5l.6-.3c.2-1.7.6-2.8 1.3-3.3-.2.9-.1 1.3-.1 2l.6-.3c.3-1.4.4-1.9 1.1-2.3-.1.8-.1 1.1-.1 1.8 0 0 1.2-.9 2.2-1.2-.3.8-1.3 1.7-2 2.3.7.1 1.6-.1 2.2-.2-1.1 1.1-1.7 1.2-3.2 1.4l-.2.4c.6.2 1.3.2 2.2 0-1.2 1.1-1.9 1.2-3.7 1.4l-.3.5c1 .1 1.7.1 2.4-.1-1.1 1.3-2 1.4-3.8 1.6l-.3.5c1 0 1.7 0 2.4-.3-.9 1.3-2 1.6-3.9 1.9l-.3.6c.9.1 1.5.1 2.5-.2-1.7 1.9-3.6 2-4.6 2-1.4 1.9-2.6 3.8-3.6 5.6zM56.6 25.6c0 1 .7 2 1.7 2.3 1.1.4 2.3 0 3-.9 1.9.8 3.9 1.8 5.9 3.1.1-.4.1-.8.3-1.3-1.9-1.3-3.8-2.4-5.6-3.3.2-1.2-.5-2.4-1.7-2.8-1.1-.4-2.2 0-2.9.8-5.1-1.9-9-2.2-10.4-.2-2.2 3.1 3.4 10.9 12.7 17.7-.2-.6-.4-1.3-.5-2-5.9-4.8-9.1-10.1-7.4-12.4.7-1.2 2.5-1.5 4.9-1zm22.5 12.3c-.2.3-.5.5-.8.8 4 3.9 5.9 7.8 4.5 9.7-1.4 2-5.9 1.4-11-1.2.1.5.2 1.1.3 1.7 6.9 3.8 12.9 4.8 14.6 2.4 1.7-2.5-1.5-8.1-7.6-13.4z"/></g></svg>
