<svg xmlns="http://www.w3.org/2000/svg" viewBox="0 0 109 148"><style>.st1{fill:#fff}.st3{fill:#e13718}</style><g id="SAMF"><path class="st3" d="M107 39.8c0 21.9-17.8 39.8-39.7 39.8-22 0-39.7-17.8-39.7-39.8C27.6 17.8 45.3 0 67.3 0 89.2 0 107 17.8 107 39.8M37.7 97.8c0 10.4-8.4 18.8-18.8 18.8S0 108.2 0 97.8 8.5 79 18.9 79c10.4-.1 18.8 8.4 18.8 18.8M77.1 138.2c0 5.4-4.4 9.8-9.8 9.8s-9.8-4.4-9.8-9.8 4.4-9.8 9.8-9.8c5.4-.1 9.8 4.3 9.8 9.8"/><path class="st1" d="M95.6 26.5c-.7-1.5-1.6-3-2-3.6.1-.1.2-.2.4-.2.1.1.1.1.1.2.3.3.4.3 1.2-.1.5-.3 1.5-.9 1.8-1.1.4-.2.9-.4.7-.9 0-.1-.1-.1-.1-.2s.2-.3.4-.2c.5.8 1 1.6 1.2 2.1 0 .1-.2.2-.4.2-.1-.1-.1-.1-.1-.2-.3-.4-.8-.2-1.2.1-.7.4-1.3.7-1.8 1.1-.7.4-.8.5-.6.9 0 .1.1.3.2.5s.3.5.5.6c.2.1.6.2.7.2.1 0 .3 0 .4-.1.1 0 .2.2.1.4-.3 0-.9.2-1.5.3M97.8 33.2c-.3-1.6-.9-3.3-1.1-3.9.1-.1.3-.2.4-.1 0 .1.1.2.1.2.2.4.3.4 1.2.2.6-.2 1.7-.5 2-.6.4-.1 1-.2.8-.8V28c0-.1.3-.2.4-.1.3.9.6 1.8.7 2.4 0 .1-.3.2-.4.1 0-.1-.1-.1-.1-.2-.2-.5-.7-.3-1.1-.2-.7.2-1.4.4-2 .6-.7.2-.9.3-.8.7 0 .1.1.3.1.5.1.2.2.5.3.7.2.2.5.3.6.3h.4c.1.1.2.2 0 .4-.3 0-.8.1-1.5 0M88.5 15.6c-.1.2-.3.3-.4.6-.4-.2-1-.5-1.8-1-.6-.5-1.3-1.2-1.3-2.5.1-1.1.8-2 1.6-2.4 1.1-.5 2.2 0 3 .6.9.7 1.2 1.2 1.3 1.3-.3.4-.5.7-.8 1.2-.1 0-.4-.1-.4-.2.1-.2.2-.5.2-.9s-.2-.7-.7-1.1c-.5-.4-2-.9-3 .7-1 1.5-.1 2.5.2 2.7.2.2.3.2.4.3.3.2.5.2.7-.1l.3-.3c.2-.3.3-.3 0-.7-.1-.2-.2-.2-.3-.3 0-.1.1-.3.3-.3.6.6 1.3 1.1 1.8 1.4 0 .1-.1.4-.3.4-.1 0-.1-.1-.2-.1-.2-.1-.3-.2-.6.2.1.4 0 .4 0 .5M75.6 70.8c1 1.4 1.2 1.6 1.9 2.7.3.4.4.6 0 .7-.1 0-.2.1-.2.1-.1.1 0 .4.1.4.8-.2 1.5-.5 2.3-.8.1-.2-.1-.3-.1-.4-.1 0-.2 0-.3.1-.4.1-.6-.1-.9-.5-.2-.3-2.4-3.4-2.5-3.4-.1-.1-.1-.1-.2 0 0 0-.5.3-.7.5-.1 1.3-.4 3.3-.5 4.1-.1.8-.3.9-.5 1-.1 0-.2 0-.3.1-.1.1 0 .4.1.4.6-.1 1.4-.3 2-.4.1-.1 0-.4-.1-.4h-.2c-.3 0-.4 0-.4-.6.2-1.3.4-2.6.5-3.6M99.3 37.9c1.6-.7 1.8-.8 3-1.3.4-.2.7-.3.7.1v.2c.1.1.4.1.4 0-.1-.8-.1-1.6-.3-2.4-.1-.1-.3 0-.4 0v.3c0 .4-.2.5-.7.8-.3.1-3.8 1.7-3.9 1.7-.1 0-.1.1-.1.2 0 0 .2.5.3.7 1.3.4 3.1 1.1 3.9 1.3.7.3.8.4.9.7v.3c.1.1.4.1.4 0v-2c-.1-.1-.3-.1-.4 0v.2c0 .3-.1.4-.7.3-.9-.3-2.1-.8-3.1-1.1M66.3 71c1.6 0 3.4-.1 4.1-.2.1.1.1.3 0 .4h-.2c-.4.1-.5.2-.4 1.1 0 .6.1 1.8.1 2.1 0 .4 0 1 .6 1h.2c.1.1.1.3.1.4-1 .1-1.9.1-2.5.2-.1-.1-.1-.3 0-.4h.2c.5 0 .5-.6.5-1.1 0-.8-.1-1.5-.1-2.1 0-.8-.1-.9-.5-1h-.5c-.2 0-.6 0-.8.2-.2.1-.4.4-.4.5 0 .1-.1.3-.1.4-.1.1-.3.1-.4-.1-.1-.2 0-.7.1-1.4M50.3 13.3c-1.4.9-2.8 2-3.3 2.4-.1 0-.3-.2-.3-.3l.2-.2c.3-.3.3-.5-.3-1.2-.4-.5-1.1-1.4-1.3-1.7-.3-.4-.6-.8-1-.5-.1.1-.1.1-.2.1s-.3-.2-.3-.3c.7-.6 1.5-1.2 2-1.5.1 0 .3.2.3.3-.1.1-.1.1-.2.1-.4.3-.1.8.2 1.2.5.6.9 1.2 1.3 1.7.5.6.6.7 1 .5.1 0 .3-.2.5-.3.2-.1.4-.3.6-.6.1-.2.1-.6.1-.7 0-.1-.1-.3-.1-.4 0-.1.1-.3.4-.2-.1.5.2 1 .4 1.6M98.5 44.8c-.1.1-.3.1-.4-.1.1-.8.2-1.3.3-2 .1-.1.3-.1.4 0v.2c0 .3 0 .5.8.7.5.2 2 .5 2.3.6.5.1 1 .2 1.1-.3v-.2c.1-.1.3-.1.4.1-.1.7-.1 1.2-.3 2-.2-.1-.5-.1-1 .1-.6.1-2.2.5-2.9.7.3.3 2.2 1.7 2.3 1.8.3.2.6.5 1 .6-.1.5-.4 1.3-.5 1.9-.1.1-.3 0-.4-.1v-.2c.1-.3 0-.5-.6-.6-.7-.2-1.8-.4-2.4-.5-.7-.1-1-.1-1.2.2-.1.2-.1.2-.1.3-.1.1-.4 0-.4-.1.4-1.2.5-1.5.6-2.2.1-.1.3 0 .4.1v.2c0 .3-.1.4.8.6.7.1 2.4.4 2.8.5-.4-.4-1.8-1.3-2.5-1.9-.7-.6-1-.7-1.2-.9 0-.1 0-.2.1-.3.1 0 .7-.1 1.4-.3.7-.2 2.6-.6 3-.6-.6-.2-2.1-.5-2.6-.6-.6-.1-1-.2-1.1.2l-.1.1zM67.9 5.7c0 .4-.4.8-.8.8s-.8-.4-.8-.8.4-.8.8-.8c.5 0 .8.4.8.8M73 8.6c0-.6.1-1 .2-1.3.1 0 .4 0 .5.1 0 .5-.1 1.3.9 1.5.6.2 1-.1 1.1-.4.2-.5-.1-.9-.7-1.5-.9-.8-1.1-1.2-1-1.7 0-.6.6-1.7 2.2-1.2.8.2 1.1.5 1.3.6 0 .1-.1.9-.2 1.2-.1.1-.3.1-.4 0 0-.1.2-.9-.7-1.2-.9-.3-1.2.2-1.2.5-.1.4.2.7.8 1.2.6.5 1.2 1 1 2-.2.9-1.2 1.3-2.2 1-1.1-.4-1.6-.8-1.6-.8M41.3 57.8c-.4.5-.7.7-1 .9-.1 0-.3-.2-.3-.4.3-.4.9-.9.3-1.7-.3-.6-.7-.6-1-.4-.5.2-.5.7-.4 1.5.2 1.2 0 1.6-.3 1.9-.4.4-1.5.9-2.5-.6-.4-.7-.5-1.1-.6-1.3.1-.1.7-.6.9-.8.2 0 .3.2.3.4-.1.1-.7.6-.3 1.4.4.7 1 .6 1.2.4.3-.2.3-.6.2-1.4-.1-.7-.2-1.6.6-2.1s1.7-.2 2.3.7c.6.9.6 1.5.6 1.5M89.2 61.9c0 .2.2.3.3.3.1 0 0 0 .1-.1.3-.2.4-.1.6.4.1.3.2.4.2.5-.2.2-1.2 1.1-1.4 1.3-.2-.1-.2-.1-.5-.3-.3-.2-.6-.3-.3-.6l.1-.1c0-.2-.2-.3-.3-.3-.2.2-.9.8-1.7 1.4 0 .2.2.3.3.4l.2-.2c.3-.3.9.1 1.1.2.3.2 3.7 1.9 3.8 1.9h.1s.3-.5.3-.6c-.1-.3-1.2-3.1-1.5-3.9-.3-.8-.2-.9-.1-1.2.1-.1.1-.2.1-.2 0-.1-.2-.3-.3-.3-.3.6-.9 1.3-1.1 1.4m2.3 3.7l-2-1 1.2-1.1.8 2.1zM56.2 69.1c-.2 0-.2.3-.2.4.1 0 .1 0 .2.1.3.2.3.3-.1.7l-.4.4c-.2-.1-1.5-.6-1.8-.7v-.6c0-.4 0-.7.4-.6.1 0 .1 0 .2.1.1-.1.2-.3.2-.4-.3-.1-1.1-.5-2-.9-.2.1-.2.3-.2.4.1.1.1.1.2.1.4.2.3.9.3 1.1 0 .4-.2 4.2-.2 4.3 0 .1 0 .1.1.1h.7c.2-.2 2.3-2.4 2.9-3 .6-.6.8-.6 1-.6h.2c.1-.1.2-.3.1-.4-.5-.1-1.4-.4-1.6-.5m-2.3 3.5l.1-2.2 1.5.6-1.6 1.6zM42.7 20.1c0-.2-.2-.3-.3-.3l-.1.1c-.3.3-.4.2-.7-.3-.2-.3-.2-.4-.3-.5.2-.2 1.1-1.3 1.2-1.4.2.1.2.1.5.2.4.1.7.2.4.6l-.1.1c0 .2.2.3.3.3.2-.3.8-.9 1.5-1.6 0-.2-.2-.3-.3-.3l-.2.2c-.3.3-.9 0-1.1-.1-.3-.1-3.9-1.5-4-1.5h-.1s-.2.5-.2.7c.1.2 1.5 3 1.9 3.7.4.7.3.9.2 1.1 0 .1-.1.2-.1.2 0 .1.2.3.4.2.3-.4.9-1.2 1.1-1.4M40 16.8l2.1.8-1 1.2-1.1-2zM63.6 74.5c-.1.2-.1.3-.3.5-.1.1-.4.3-.9.3-.1 0-.4-.1-.7-.1l.5-3c.1-.9.2-1 .7-1h.2c.1-.1.1-.3 0-.4-.7-.1-1.6-.3-2.4-.4-.1.1-.2.3-.1.4.1 0 .2.1.3.1.4.2.4.4.3 1.1-.1.4-.1.4-.5 3-.4-.1-.8-.1-.9-.2-.5-.1-.5-.5-.5-.6v-.4c-.1-.1-.4-.1-.4-.1 0 .2-.2 1.2-.2 1.4 2 .5 3.1.6 5 .8 0-.1.5-1.2.5-1.3-.3 0-.5-.1-.6-.1M49.1 69.7c-.1.1-.3.3-.5.3-.2.1-.5.1-.9-.1-.1-.1-.3-.2-.6-.4 0 0 1.4-2 1.7-2.5.5-.7.6-.8 1-.6.1 0 .1.1.2.1s.2-.3.2-.4c-.6-.4-1.4-.9-2-1.4-.1 0-.3.2-.3.3l.2.2c.3.3.2.5-.2 1.2-.2.3-.2.3-1.8 2.5-.3-.2-.6-.4-.7-.6-.4-.3-.2-.7-.2-.8 0-.1.1-.2.2-.4 0-.2-.3-.3-.4-.3-.1.2-.7 1-.8 1.2 1.6 1.3 2.5 1.9 4.1 2.9l1-1c.1 0-.1-.2-.2-.2M93 58.2l.2-.2c.3-.3.5-.5 1.1-.1.1.1.6.4.8.5-.3.5-.5.7-.8 1.2.1.1.3.3.4.3.3-.4.5-.7.8-1.2.1.1 1.2.8 1.3.9.1.1.2.2.1.4s-.3.5-.6.9c-.5.6-1.4.2-1.7 0-.2.1-.3.2-.2.4.4.2 1.2.7 1.5.9 1.2-1.5 1.8-2.5 2.5-3.7 0-.1-.2-.2-.4-.2 0 0-.1.1-.1.2-.3.4-.6.2-1.2-.1-.3-.2-1.1-.7-1.8-1.2-.8-.5-.8-.7-.6-1.1 0-.1 0-.1.1-.1-.1-.1-.3-.2-.4-.2-.5.7-1 1.5-1.4 2.2.1 0 .3.1.4.2M45.3 62.1c0 .1-.2.3-.3.3l-.2-.2c-.4-.3-.5-.3-1.1.4l-1.5 1.5c-.3.3-.8.6-.4 1.1l.2.2c0 .1-.2.3-.3.3-.7-.7-1.3-1.4-1.8-1.9 0-.1.2-.3.3-.3l.2.2c.4.4.8.1 1.2-.3.6-.5 1.2-1.1 1.6-1.4.6-.5.7-.7.4-1.1 0-.1-.1-.1-.2-.2 0-.1.2-.3.3-.3.5.7 1.1 1.2 1.6 1.7M58.1 9.4c-.3-.5-.4-.9-.5-1.2 0-.1.3-.2.4-.1.3.4.6 1.1 1.6.9.6-.2.8-.6.7-.9-.1-.5-.5-.7-1.3-.8-1.2-.2-1.5-.5-1.7-.9-.3-.5-.3-1.7 1.3-2.2.8-.2 1.2-.2 1.5-.2 0 0 .3.8.3 1-.1.1-.2.2-.4.2-.1-.1-.3-.9-1.2-.7-.8.2-.8.8-.8 1 .1.4.5.5 1.3.6.7.1 1.6.3 1.8 1.2.2.9-.4 1.7-1.4 2-1 .3-1.6.1-1.6.1M52.8 11.8c-.1-.1-.2-.3-.2-.4.1 0 .2-.1.2-.1.4-.3.4-.4 0-1.2-.3-.5-.7-1.5-.9-1.9-.2-.4-.4-.9-.9-.7-.1 0-.1.1-.2.1s-.2-.3-.2-.4c.8-.4 1.7-.8 2.4-1.1.1 0 .2.3.2.4-.1 0-.2.1-.2.1-.5.3-.3.7-.1 1.2.3.7.7 1.5.9 1.9.3.7.4.9.9.7.1 0 .2 0 .3-.1.1 0 .2.3.2.4-1.1.4-1.8.8-2.4 1.1M39 25.9c-.1 0-.4-.1-.4-.2s.1-.2.1-.3c.1-.4.1-.6-.7-1-.5-.3-1.5-.8-1.9-1-.4-.2-.8-.5-1.1 0-.1.1-.1.1-.1.2-.1 0-.4-.1-.4-.2.4-.8.9-1.7 1.3-2.3.1-.1.4.1.4.2s-.1.2-.1.2c-.2.5.2.7.6 1 .7.4 1.5.8 1.8 1 .7.4.9.4 1.2.1l.2-.2c.1 0 .3.1.4.2-.6.9-1 1.7-1.3 2.3M90.3 18.5c0-.1.2-.3.3-.3l.2.2c.4.3.5.3 1.2-.3.4-.4 1.3-1.1 1.6-1.4.3-.3.8-.6.5-1.1l-.2-.2c0-.1.2-.3.3-.3.6.7 1.3 1.5 1.7 2 0 .1-.2.3-.3.3l-.2-.2c-.4-.4-.7-.1-1.2.2-.6.5-1.3 1.1-1.6 1.3-.6.5-.7.7-.5 1.1 0 .1.1.1.2.2 0 .1-.2.3-.4.3-.6-.6-1.2-1.2-1.6-1.8M79.2 10.8c0-.1.1-.4.2-.4s.2.1.3.1c.4.1.6.1.9-.7.2-.5.7-1.5.9-1.9.2-.4.5-.9 0-1.1-.1 0-.1-.1-.2-.1-.1-.1.1-.4.2-.4.9.4 1.8.8 2.4 1.1.1.1-.1.4-.2.4s-.2-.1-.2-.1c-.5-.2-.7.2-1 .7-.3.7-.7 1.5-.9 1.9-.3.7-.4.9 0 1.2.1 0 .1.1.2.1 0 .1-.1.4-.2.4-1-.6-1.7-.9-2.4-1.2M36.9 48.8c-.5.3-.9.4-1.2.5-.1-.1-.2-.3-.1-.5.4-.2 1.2-.5.9-1.5-.1-.6-.5-.8-.9-.8-.5 0-.7.5-.9 1.3-.3 1.2-.6 1.5-1 1.7-.5.2-1.7.2-2.1-1.4-.2-.8-.1-1.2-.1-1.5.1-.1.9-.3 1.2-.4.1.1.2.2.1.4-.1.1-.9.3-.7 1.2.1.8.7.9 1 .8.4-.1.5-.5.7-1.3.2-.7.3-1.6 1.3-1.8.9-.2 1.7.5 1.9 1.5.1 1.2-.1 1.8-.1 1.8M82.2 67c-.8.4-1.5 1-1.6 1.1.2.4.3.9.5 1.3.1 0 .4 0 .5-.2 0-.2-.1-.5-.1-.8.1-.4.5-.8.9-1 .4-.2 1.7-.6 2.6 1 1 1.7 0 2.7-.6 3-.5.3-1 .2-1.3.1-.3-.1-.5-.4-.6-.5-.1 0-.3.1-.4.3.3.4.6.8.8 1.2.2 0 1.2-.3 1.9-.7.8-.4 1.6-1.2 1.7-2.3.1-.9-.4-2-1.4-2.5-1.1-.7-2.1-.4-2.9 0M37.3 30.8c.3-.8.4-1.7.4-1.9-.4-.2-.9-.4-1.3-.6-.1 0-.3.3-.2.4.2.1.4.3.6.5.2.4.2.9 0 1.3-.1.4-.8 1.6-2.5 1.2-1.9-.5-1.9-2-1.6-2.6.2-.6.6-.9.9-1 .3-.1.6-.1.8 0 .1-.1.1-.3.1-.4-.5-.1-.9-.2-1.4-.3-.1.2-.6 1-.9 1.8-.3.9-.3 2 .4 2.9.6.7 1.7 1.1 2.7.8 1.2-.4 1.7-1.3 2-2.1M36.1 39.2c0-.9-.3-1.6-.8-2.2-.5-.5-1.2-.8-2-.8s-1.5.3-2 .8-.8 1.3-.8 2.2c0 1.7 1.2 3 2.9 3 .7 0 1.4-.3 1.9-.8s.8-1.2.8-2.2m-3 1.9c-.8 0-1.3-.3-1.7-.7-.3-.3-.4-.7-.4-1.2s.2-.8.5-1.1c.5-.4 1.2-.7 2-.6 1.3.1 2.1.7 2.1 1.8 0 1.3-1.3 1.8-2.5 1.8M45 51.9c0 .1-.2.1-.2.1l-.1-.1c-.2-.2-.2-.3-.8 0-.3.2-.9.5-1.2.6-.2.1-.6.3-.4.6 0 .1 0 .1.1.1 0 .1-.2.2-.2.1-.3-.5-.6-1.1-.7-1.5 0-.1.2-.2.2-.1s.1.1.1.1c.2.3.4.2.7 0 .4-.2.9-.5 1.2-.6.4-.2.5-.3.4-.6 0 0 0-.1-.1-.2 0-.1.2-.1.3-.1.2.8.4 1.2.7 1.6M42.1 35.8h-.3v-.2c0-.3 0-.4-.6-.5-.4-.1-1-.2-1.3-.2-.3 0-.6-.1-.7.2v.1c-.1.1-.2 0-.3 0 .1-.6.2-1.2.3-1.6.1-.1.2 0 .3.1v.1c0 .3.2.4.6.5.5.1 1 .2 1.3.3.5.1.6.1.7-.2v-.2c.1 0 .2 0 .3.1l-.3 1.5M41.7 39.6c-.4.1-.6.1-.8.1 0-.1-.1-.2 0-.3.3-.1.8-.1.8-.8 0-.4-.2-.6-.4-.6-.3 0-.5.2-.8.7-.3.7-.6.8-.9.9-.4.1-1.1-.1-1.1-1.1 0-.5.1-.8.2-.9.1 0 .6-.1.8-.1.1.1.1.2 0 .3-.1 0-.6 0-.6.6 0 .5.3.6.5.6.3 0 .4-.2.6-.7.2-.4.4-.9 1.1-.9.6 0 1 .5.9 1.2 0 .7-.3 1-.3 1M42.8 32.4c-.4 0-.6-.1-.8-.1 0-.1 0-.2.1-.3.3 0 .8.1 1-.6.1-.4 0-.6-.3-.7-.3-.1-.6 0-.9.4-.5.6-.8.6-1.1.6-.4 0-1.1-.4-.7-1.4.2-.5.3-.7.4-.9.1 0 .6.1.8.1.1.1 0 .2-.1.3-.1 0-.6-.1-.8.4-.2.5.1.7.3.7.3.1.4-.1.8-.5.3-.3.7-.8 1.3-.6.5.2.8.8.6 1.4-.3.9-.6 1.2-.6 1.2M53.9 61.3c-.1 0-.2.2-.2.2l.1.1c.2.2.1.2-.1.4-.2.1-.2.2-.3.2-.1-.1-.9-.6-1-.6 0-.1 0-.1.1-.4.1-.2.1-.4.3-.3.1 0 .1 0 .1.1.1 0 .2-.2.1-.2-.2-.1-.6-.4-1.1-.8-.1 0-.2.2-.2.2l.1.1c.2.2.1.6.1.7 0 .2-.6 2.6-.6 2.6v.1l.4.1c.1-.1 1.7-1.2 2.1-1.5.4-.3.5-.3.7-.2.1 0 .1.1.1.1.1 0 .2-.2.1-.2-.1-.3-.6-.6-.8-.7m-1.8 1.9l.3-1.4.8.5-1.1.9zM58.1 63.4c-.1 0-.1.2-.1.3l.2.1c.2.1.2.3.1.7 0 .1-.1.3-.2.5 0 0-.4-.2-.8-.3-.4-.1-.8-.3-.8-.3.1-.2.2-.4.2-.5.2-.5.3-.6.6-.5h.1c.1 0 .1-.2.1-.3-.5-.2-1-.4-1.4-.6-.1 0-.2.2-.1.3.1 0 .1.1.1.1.2.2.2.3 0 .7l-.6 1.2c-.1.3-.3.6-.6.4 0 0-.1 0-.1-.1-.1 0-.1.2-.1.2.3.2.9.4 1.5.7.1 0 .1-.2.1-.3 0 0-.1 0-.1-.1-.3-.1-.2-.4-.1-.7 0-.1.1-.3.2-.4 0 0 .5.2.8.3.3.1.8.3.8.3-.1.1-.1.3-.2.5-.1.3-.2.6-.6.5H57c-.1.1-.1.2-.1.3.4.1 1 .4 1.5.5.1 0 .1-.2.1-.3h-.1c-.3-.1-.2-.4-.1-.7.1-.2.3-.9.4-1.3.2-.5.3-.6.5-.5h.1c.1 0 .1-.2.1-.3-.3 0-.8-.2-1.3-.4M43.6 49.1c0 .1-.2.1-.3.1v-.1c-.1-.2-.2-.3-.8-.1-.4.2-.9.4-1.2.5-.4.1-.6.2-.5.5v.1c0 .1-.2.1-.3.1-.2-.6-.6-1.7-.9-2.7.2-.1.6-.3.8-.3.1.1.1.2.1.3-.1 0-.2.1-.3.2-.1.1-.2.2-.2.5.1.3.2.6.2.8.1.1.1.1.2.1s.8-.3.9-.3c-.2-.7-.3-.9-.3-.9.1-.1.2-.1.3-.1l.3.9s.5-.2.6-.2c.5-.2.4-.3.3-.6 0-.1-.1-.2-.1-.3-.1-.3-.3-.4-.6-.4h-.2c-.1-.1-.1-.2 0-.3.1 0 .8-.1.9-.1.5.5.8 1.5 1.1 2.3M48 56.3c0 .1-.1.2-.2.2l-.1-.1c-.2-.2-.3-.1-.7.2-.3.3-.8.6-1 .8-.3.2-.5.4-.3.6l.1.1c0 .1-.1.2-.2.2-.1-.1-.5-.6-.6-.8l-.1-.1c0-.1.1-.1.1-.3 0-.2.2-.7.3-1.4.2-.7.2-1.2.2-1.4-.2.1-1 .6-1.2.8-.4.3-.5.4-.3.7l.1.1c0 .1-.1.2-.2.2-.3-.4-.6-.8-.7-1.1 0-.1.2-.2.2-.1l.1.1c.2.2.2.2.7-.1.3-.2 1.8-1.1 1.9-1.3.1 0 .2 0 .2.1-.1.6-.2 1.4-.4 2.1-.1.7-.3 1.1-.3 1.5.2-.1 1-.8 1.3-1 .4-.3.4-.5.3-.7 0-.1-.1-.1-.1-.1 0-.1.1-.2.2-.2.1.2.5.8.7 1M42.4 44.9c0 .1-.2.1-.3.1v-.2c-.1-.2-.2-.3-.7-.2-.4.1-1 .2-1.3.2-.4.1-.6.1-.6.4v.2c-.1.1-.2.1-.3.1 0-.2-.1-.7-.2-1v-.1c.1 0 .1-.1.3-.2.1-.1.5-.5.9-1 .5-.6.8-.9.9-1.1-.2 0-1.2.1-1.4.1-.5 0-.6.1-.6.4v.2c-.1.1-.2.1-.3 0-.1-.5-.1-1-.1-1.3 0-.1.2-.1.3 0v.1c0 .2.1.3.7.2.4 0 2.1-.1 2.3-.2.1 0 .1.1.1.2-.4.5-.9 1.1-1.4 1.7-.5.5-.8.9-1 1.1.2 0 1.3-.2 1.6-.3.5-.1.6-.2.6-.4v-.2c.1-.1.2-.1.3 0 0 .2.1.9.2 1.2M49.5 58.2l.1.1c.2.2.3.4 0 .7l-.4.4-.6-.6c-.1 0-.2.1-.2.2.2.2.4.4.7.6-.1.1-.6.7-.7.7-.1.1-.1.1-.2 0s-.3-.2-.5-.5c-.3-.4 0-.9.1-1.1 0-.1-.1-.2-.3-.2-.2.2-.5.7-.7.9.8.9 1.4 1.4 2 1.9.1 0 .2-.1.2-.2l-.1-.1c-.2-.2-.1-.4.2-.7.2-.2.5-.6.9-1 .4-.5.5-.4.7-.3l.1.1c.1 0 .2-.1.2-.2-.4-.3-.8-.7-1.2-1.1-.2.3-.3.4-.3.4M84 58.6c.1 0 .2.1.2.2l-.1.1c-.2.2-.2.3.2.7.2.3.7.8.9 1 .2.2.4.5.7.3l.1-.1c.1 0 .2.1.2.2-.4.4-.9.8-1.2 1-.1 0-.2-.1-.2-.2l.1-.1c.2-.2.1-.5-.1-.7-.3-.4-.7-.8-.8-1-.3-.4-.4-.4-.7-.3l-.1.1c-.1 0-.2-.1-.2-.2.3-.4.7-.7 1-1M69.6 64.9c0 .1.1.2 0 .3h-.2c-.3.1-.3.1-.3.7 0 .4.1 1 .1 1.3 0 .3 0 .6.4.6h.2c.1.1.1.2 0 .3-.6.1-1.2.1-1.6.1-.1 0-.1-.2 0-.3h.1c.3-.1.3-.3.3-.7 0-.5-.1-1-.1-1.3 0-.5-.1-.6-.4-.6h-.2s-.1-.2 0-.3c.7 0 1.2 0 1.7-.1M92.5 39.9h.3v.2c0 .3.1.3.7.4h1.3c.3 0 .6.1.7-.3V40c.1-.1.2-.1.3 0 0 .6 0 1.2-.1 1.6-.1.1-.2 0-.3 0v-.1c0-.3-.3-.4-.6-.4-.5 0-1-.1-1.3-.1-.5 0-.6 0-.7.3v.2h-.3c-.1-.6 0-1.1 0-1.6M86.8 55.9c.3.2.5.3.7.5 0 .1-.1.2-.2.3-.3-.1-.7-.4-1.1.1-.3.3-.2.6-.1.7.2.2.5.2 1 0 .7-.3 1-.3 1.2-.1.3.2.8.8.1 1.6-.3.4-.6.5-.7.6-.1 0-.5-.3-.6-.4 0-.1.1-.2.2-.2s.5.3.9-.1.2-.7 0-.8c-.2-.2-.4-.1-.9.1-.4.2-.9.4-1.4 0-.4-.4-.4-1 .1-1.5.4-.7.8-.8.8-.8M66.1 65.2c.1.4.1.6.1.8-.1 0-.2.1-.3 0-.1-.3-.1-.8-.8-.8-.4 0-.6.2-.6.4-.1.3.2.5.6.8.7.4.8.6.8.9 0 .4-.1 1.1-1.2 1-.5 0-.8-.1-.9-.2 0-.1-.1-.6 0-.8.1-.1.2-.1.3 0 0 .1 0 .6.6.7.5.1.6-.3.7-.5 0-.3-.2-.4-.7-.6-.4-.2-.9-.5-.9-1.1 0-.6.6-1 1.3-.9.7 0 1 .3 1 .3M91.8 31.8c.9-.7.9-.8 1.6-1.3.2-.2.3-.3.5 0 0 .1 0 .1.1.1s.2 0 .3-.1c-.2-.5-.3-.9-.5-1.4-.1-.1-.2 0-.3.1v.2c0 .3 0 .4-.3.6-.2.1-2 1.6-2.1 1.7v.1s.2.3.3.4c.8 0 2.1.2 2.6.2s.6.1.6.3v.2c.1 0 .2 0 .3-.1-.1-.4-.2-.9-.3-1.2-.1-.1-.2 0-.3.1v.1c0 .2 0 .3-.4.3-.7-.2-1.5-.3-2.1-.3M92.5 44.9c1.1-.1 1.2-.2 2-.3.3 0 .4-.1.4.2v.1c.1.1.2.1.3 0 .1-.5.2-1 .2-1.5-.1-.1-.2-.1-.3 0v.2c-.1.2-.2.3-.6.4-.2 0-2.6.4-2.6.4-.1 0-.1.1-.1.1s0 .4.1.5c.7.4 1.7 1.2 2.1 1.4.4.3.4.4.4.5v.2c0 .1.2.1.3.1.1-.4.2-.9.3-1.2 0-.1-.2-.1-.3-.1v.1c-.1.2-.1.3-.5 0-.5-.3-1.2-.8-1.7-1.1M91.4 54.1c-.5-.3-1.5-.9-1.7-1-.4-.3-.5-.3-.7-.1l-.1.1c-.1 0-.2-.1-.2-.1.3-.4.5-.9.8-1.3.1 0 .2.1.2.1 0 .1 0 .1-.1.1-.1.3 0 .3.4.6.3.2.9.5 1.2.7.5.3.5.4.7 0 0-.1 0-.1.1-.1s.2.1.2.1c-.5.8-.7 1.2-.8 1.4-.1.1-.2.3-.3.4-.2.3-.7.7-1.3.3-.4-.3-.4-.7-.3-1-.3 0-.7.1-1.1.1-.4.1-.4.1-.6.3l-.1.1c-.1 0-.2-.1-.2-.2s.3-.4.5-.7c.2 0 1.6-.2 1.9-.2l.1.1c0 .2-.1.4 0 .6.1.2.2.3.3.3.1.1.3.1.5.1s.3-.2.4-.3c.1-.1.2-.2.2-.4M77.2 63c-.1.1 0 .2.1.3h.1c.2-.1.3 0 .3.4v.3c-.2.1-1 .4-1.1.4-.1-.1-.1-.1-.2-.3-.2-.2-.3-.3-.1-.4h.1c0-.1 0-.2-.1-.2-.2.1-.7.3-1.3.5-.1.1 0 .2.1.3h.2c.3-.1.5.3.6.4.1.2 1.8 2 1.8 2h.1s.3-.2.3-.3v-2.6c0-.5.1-.6.2-.7.1 0 .1-.1.1-.1 0-.1 0-.2-.1-.2-.5-.1-1 .1-1.1.2m.5 2.6l-.9-1 .9-.4v1.4zM82.7 62.5c0 .1.1.2.1.4 0 .1 0 .3-.3.5-.1 0-.2.1-.4.2 0 0-.8-1.3-1-1.6-.3-.5-.3-.6-.1-.7l.1-.1c0-.1-.1-.2-.2-.2-.4.3-.9.6-1.3.8 0 .1.1.2.1.2.1 0 .1-.1.2-.1.3-.1.4 0 .6.4.1.2.1.2 1 1.6-.2.1-.4.2-.5.3-.3.1-.4 0-.5-.1l-.2-.2c-.1 0-.2.1-.2.2.1.1.4.6.5.8 1.1-.6 1.7-1 2.7-1.6 0 0-.3-.7-.3-.8-.1-.1-.2-.1-.3 0M74.5 66.4c0 .1 0 .2-.1.4 0 .1-.1.3-.4.4-.1 0-.2.1-.4.1 0 0-.4-1.5-.4-1.9-.1-.5-.1-.6.2-.7h.1c0-.1 0-.2-.1-.3-.4.1-1 .2-1.5.3v.3h.2c.3 0 .3.1.4.6.1.3.1.2.4 1.9-.2 0-.5.1-.6.1-.3 0-.4-.2-.5-.2 0-.1-.1-.2-.1-.2-.1 0-.2 0-.3.1 0 .1.2.7.2.9 1.2-.2 1.9-.4 3.1-.7v-.9c0-.3-.2-.3-.2-.2M91.9 34.6c0-.1.2-.1.3-.1v.2c.1.2.2.3.7.2.4-.1 1-.2 1.3-.2.4-.1.6-.1.6-.4v-.2c0-.1.2-.1.3-.1 0 .2.1.7.2 1v.1c-.1 0-.1.1-.3.2-.1.1-.5.5-.9 1-.5.6-.8.9-.9 1.1.2 0 1.2-.1 1.4-.1.5 0 .6-.1.6-.4v-.2c.1-.1.2-.1.3 0 0 .5.1 1 .1 1.3 0 .1-.2.1-.3 0v-.1c0-.2-.1-.3-.7-.2-.4 0-2.1.1-2.3.1-.1 0-.1-.1-.1-.2.4-.5.9-1.1 1.4-1.7.5-.5.8-.9 1-1.1-.2 0-1.3.2-1.6.3-.5.1-.6.2-.6.4v.2c-.1.1-.2.1-.3 0 0-.1-.1-.9-.2-1.1M91.2 47.6c.1 0 .2 0 .3.1v.1c-.1.3 0 .4.5.6.4.1.9.3 1.2.4.4.1.6.2.7-.1v-.1c.1 0 .2 0 .3.1-.2.7-.6 1.7-1 2.7-.2-.1-.6-.2-.8-.3 0-.1 0-.2.1-.3h.3c.1 0 .3 0 .5-.3.1-.2.3-.6.3-.8 0-.1 0-.2-.1-.2s-.8-.3-.9-.3c-.3.7-.3.9-.3.9-.1 0-.2 0-.3-.1l.3-.9s-.5-.2-.6-.2c-.5-.2-.5-.1-.7.3 0 .1-.1.2-.1.3-.1.3 0 .5.2.7.1.1.1.1.2.1 0 .1 0 .2-.2.3-.1-.1-.7-.4-.8-.5.3-.7.6-1.7.9-2.5M52.7 25.8l.4-.4v-.2l-2.9-3.9h-.1-.1l-1.4 1.3v.2l3.9 2.9c.1.1.1.1.2.1M47.8 39.3l-3.1-.4h-.1v1.6h.1l3.1-.4c.1 0 .1-.1.1-.1v-.5c0-.1 0-.1-.1-.2M67.4 59.3h-.5c-.1 0-.1 0-.1.1l-.4 2.4v.1H67.9v-.1l-.4-2.4c0-.1-.1-.1-.1-.1M53.3 53.3h-.1l-1.7 1s-.1 0-.1.1v.1l.9.9h.1s.1 0 .1-.1l1-1.7v-.1l-.2-.2zM85 20.7c-.1-.1-.1-.1 0 0h-.2l-2.9 3.9v.2l.4.4h.2l3.9-2.9v-.1-.1L85 20.7zM90.1 38.9l-3.2.4c-.1 0-.1.1-.1.1v.6c0 .1 0 .1.1.1l3.1.4h.1v-1.6c.1.1.1.1 0 0M82.5 54l-1.7-1h-.1l-.3.3v.1l1 1.7.1.1h.1l.9-.9V54M68.2 13.3h-2.1-.1v.1l.7 6.3c0 .1.1.1.1.1h.8c.1 0 .1 0 .1-.1l.7-6.3c-.1 0-.1 0-.2-.1.1 0 0 0 0 0"/><path class="st1" d="M67.1 57.7c10 0 18.1-8 18.1-18 0-9.9-8.1-18-18.1-18-10 0-18.1 8-18.1 18s8.1 18 18.1 18"/><path class="st3" d="M48.6 39.7c0-10.2 8.3-18.4 18.5-18.4s18.5 8.2 18.5 18.4-8.3 18.4-18.5 18.4-18.5-8.2-18.5-18.4m6.5 4.4h.2l1.2.4h.1l1.8 1.4.1.1.4.9s0 .1.1.1l1.8 1 .1.1.1.7v.1l-.9 1.6s0 .1-.1.1l-1 .4h-.1l-.8.9-.7.8s-.1.1 0 .2l.1.2v.1l-.1.2c0 .1 0 .2.1.2l.7.5c.1 0 .1.1.1.2 0 0-.1.1-.1.2 2.6 1.6 5.7 2.5 9 2.5 6.5 0 12.2-3.6 15.1-8.9l-.9.5h-.2c-.1-.1-.1-.1 0-.2l2.1-4c0-.1.1-.1.2-.1h.1c.1 0 .2.1.2.2v.7c.6-1.7.8-3.5.8-5.4 0-3.4-1-6.5-2.6-9.2-.1.6-.3 1.2-.3 1.2v.1l.9 2.1.6 2.4v.2l-.2.3s-.1.1 0 .1l.4 2.7v.1l-.8 1.2v.2l.3.8v.2l-.5.6c-.1.1-.2.1-.2.1l-1.9-.9h-.1s-.1 0-.1.1l-.3.5-.4.7V44.2l-.6.8c0 .1-.1.1-.2.1s-.1 0-.2-.1l-1.2-2.4-.1-.1-2.4-.5c-.1 0-.1 0-.2.1l-.1.1V42.5l.3.5c0 .1.1.1.2.1l.5-.1h.1l.4.2.1.1v.1l-.7.9h-.1l-1.1.5c-.1 0-.2 0-.2-.1l-1.4-2-.1-.1h-.1l-.1.1-.1.3c-.1.1-.1.1 0 .2l.7 1.4.2.4s0 .1.1.1l1.1.7h.1l.3-.1c.1 0 .1 0 .2.1v.2l-1.3 2.1V49.6l-.8.9v.6l-1.1 1.5-.1.1-1.3.4c-.1 0-.2 0-.2-.1l-1.1-2.4v-.1l.4-1.1v-.1l-.8-1.7s0-.1-.1-.1l-.8-.4-.6-.1h-.1l-1.7.2c-.1 0-.1 0-.2-.1l-1.1-1.4V44v-.1l1.8-2c0-.1.2 0 .2 0l.4.1h.1l1.8-.4h.1l1.3.8H70.4l1.1-.1h.1l.6-.3c.1 0 .1-.1.1-.2v-.4c0-.1-.1-.2-.2-.2l-.9-.1s-.1 0-.1-.1l-.3-.4-.1-.1h-.4-.1l-.9-.8h-.1s-.1 0-.1.1c-.1.1-.1.2 0 .2l.6.6.1.1s0 .1-.1.1l-.2.1s-.1.1-.2 0c-.1 0-.1 0-.1-.1l-.2-.4-.6-.6s-.1-.1-.2 0l-.9.3s-.1 0-.1.1l-.4.8s0 .1-.1.1l-.6.3h-.2l-.4-.2c-.1 0-.1-.1-.1-.2v-.9c0-.1.1-.2.1-.2l.8-.1c.1 0 .1-.1.1-.2v-.7s0-.1.1-.1l1.4-1.3.1-.1v-.6c0-.1.1-.1.2-.2.1 0 .2 0 .2.1l.1.3c0 .1.1.1.2.1l.9-.1c.1 0 .1 0 .1-.1l.6-1.1v-.2l-.4-.5s-.1-.1 0-.2l.1-.5c0-.1 0-.2-.1-.2h-.1c-.1 0-.2 0-.2.1l-.2.8v.9c0 .1 0 .1-.1.2l-.3.2c-.1.1-.2 0-.2 0l-.3-.3s-.1-.1-.2-.1l-.5.1h-.1l-.1-.1-.1-.9c0-.1 0-.1.1-.1l.7-.7v-.1l.6-1.5.1-.1 1.2-.3h.1l1 .5c.1 0 .1.1.1.2l-.1.5c0 .1 0 .2.1.2l.1.1h.2l.7-.7 1.7-1.1c.1 0 .1-.1.1-.2l-.1-.5c0-.1 0-.2.1-.2l.7-.3c.1 0 .1-.1.1-.1l.6-2.2c0-.1.1-.1.2-.1l.6.1s.1 0 .1.1l.6.6s.1.1.1 0l1.3-.2s.1 0 .1-.1l.3-.4.1-.1.8-.2c-3.2-3.5-7.7-5.7-12.8-5.7-5.4 0-10.2 2.5-13.3 6.3.1.1.3.2.3.2l.1.1.1.4v.1l.4.5.1.1c0 .1.1.1.2.1s.1-.1.1-.1l.1-.9c0-.1.1-.1.2-.1h.5c.1 0 .1 0 .2.1l.3.6v.2l-.5.9v.2c0 .1.1.1.2.1l.5-.1h.1l.2.2s.1.1.2 0c.1 0 .1-.1.1-.1l.2-.6c0-.1.1-.1.1-.1l.7-.2h.1l.1.1.6 2.5v.2l-.7.8-.1.1s-.1 0-.1-.1l-.5-.5c-.1-.1-.1-.1 0-.2l.5-.8v-.2l-.1-.1-.1-.2h-.1s-.1 0-.1.1l-.9 1.1-1.5.8c-.1 0-.1.1-.1.2l.3.6.4.9c0 .1.1.1.2.1s.1 0 .2-.1l.9-1.5c0-.1.1-.1.1-.1.1 0 .1 0 .2.1l1 1.3v.1l.2 2c0 .1 0 .1-.1.2h-.2l-.6-.3h-.2c-.1 0-.1.1-.1.1l-.2.8c0 .1-.1.1-.1.1l-.9.3s-.1 0-.1.1l-1.7 2c-.1.1-.1.1-.2 0l-.7-.4h-.2l-.4.2-.2.1c-.1 0-.1.1-.1.2v.9c0 .1.1.2.1.2l.5.1c.1 0 .1.1.1.1s.3 1.2.3 1.3c0 .1 0 .1.1.1 0 0 .5.6.5.7 0 .1.1.1.2 0l.7-.3zm-1.2.2c-.2-.1-.2-.2-.3-.3l-.5-.9c-.1-.1-.2-.2-.2-.3l-.9-.7c-.1 0-.1-.1-.1-.1l-.8-4.5v-.1l1.2-5.4v-.1l-.3-.4c-1.4 2.5-2.1 5.3-2.1 8.3 0 5.4 2.5 10.2 6.4 13.4-.1-.2-.1-.4-.1-.4l-.4-2.8-.4-1s0-.1-.1-.1l-.8-.5-.1-.1-.6-1.7v-.1l.4-1.8c0-.1 0-.2-.1-.2l-.2-.2zm28.4-.5l.5-.7.1-.1h.1s.1.1.1.2l-.2.9c0 .1 0 .1-.1.1l-.3.1h-.2c-.1 0-.1-.1-.1-.1l-.1-.3c.1 0 .1-.1.2-.1M67.7 29.3c0-.1 0-.1.1-.1l.8-.4h.2c.1 0 .1.1.1.2v.4l.1.2v.2l-.1.1-.6.1c-.1 0-.1 0-.2-.1l-.4-.5v-.1m-2 7.1l.2-.1h.1l.1.1.6 1.3c0 .1 0 .2-.1.2l-.4.3H66V38l.1-.6v-.1l-.4-.6c-.1-.1-.1-.2 0-.3m-7.3-7c-.1.1-.2 0-.2 0l-.2-.2s-.1-.1 0-.2l.3-1.1c0-.1.1-.1.1-.1l2-.8h.2l.4.2c.1 0 .1.1.1.1 0 .1 0 .1-.1.2l-2.6 1.9zm3.2 4.7l-.9 1.1c0 .1-.1.1-.2.1s-.1-.1-.1-.1l-.4-1.8v-.1l.3-.7v-.1l.3-2.1v-.1l-.5-.6s-.1-.1 0-.2l.3-.8s0-.1.1-.1l1.8-1.2h.1l1.7-.3h.1l.6.3c.1 0 .1.1.1.2v.4c0 .1 0 .1.1.1l.3.2c.1 0 .1.1.1.2l-.4.9-1.1 3.2s0 .1-.1.1l-2.2 1.4c.1-.1 0-.1 0 0m1.9.4c0-.1 0-.1.1-.1l.4-.4s.1-.1.2 0l.4.1c.1 0 .1.1.1.1l.1.4c0 .1 0 .2-.1.2l-.4.2h-.2l-.5-.4c-.1 0-.1-.1-.1-.1M75 49.6l-.5 1.4c0 .1-.1.1-.1.1l-.5.2c-.1 0-.1 0-.2-.1l-.2-.2c0-.1-.1-.1 0-.2l.9-1.6.1-.1h.1l.2.2c.2.1.2.2.2.3m6-4.7v-1.5c0-.1.1-.2.1-.2H81.4l.1.1.2 1.6c0 .1 0 .1-.1.1 0 0-.1.1-.2 0l-.3-.1c0 .2-.1.1-.1 0m-8.9-5.5l-.4-.1c-.1 0-.2 0-.2.1l-.2.5v.2s.1.1.2.1l1.1-.1c.1 0 .1-.1.2-.1v-.2c0-.1 0-.2-.1-.2l-.6-.2zm2.5-.1v-.5c0-.1 0-.1-.1-.1h-.2l-.4.3c-.1 0-.1.1-.1.2l.3 1 .1.4c0 .1.1.1.2.1l.6-.1c.1 0 .1 0 .1-.1v-.2l-.5-1z"/></g></svg>