<?xml version="1.0" encoding="utf-8"?>
<!-- Generator: Adobe Illustrator 19.2.1, SVG Export Plug-In . SVG Version: 6.00 Build 0)  -->
<svg version="1.1" xmlns="http://www.w3.org/2000/svg" xmlns:xlink="http://www.w3.org/1999/xlink" x="0px" y="0px"
	 viewBox="0 0 109 148" style="enable-background:new 0 0 109 148;" xml:space="preserve">
<style type="text/css">
	.st0{fill:#66609E;}
	.st1{fill:#FFFFFF;}
	.st2{fill:#2A216A;}
	.st3{fill:#E13718;}
	.st4{fill:#365AA5;}
	.st5{fill:#999632;}
	.st6{fill:#46743C;}
	.st7{fill:#901A1E;}
</style>
<g id="TEO">
</g>
<g id="SUND">
</g>
<g id="SAMF">
	<path class="st3" d="M107,39.8c0,21.9-17.8,39.8-39.7,39.8c-22,0-39.7-17.8-39.7-39.8C27.6,17.8,45.3,0,67.3,0
		C89.2,0,107,17.8,107,39.8"/>
	<path class="st3" d="M37.7,97.8c0,10.4-8.4,18.8-18.8,18.8C8.5,116.6,0,108.2,0,97.8c0-10.4,8.5-18.8,18.9-18.8
		C29.3,78.9,37.7,87.4,37.7,97.8"/>
	<path class="st3" d="M77.1,138.2c0,5.4-4.4,9.8-9.8,9.8c-5.4,0-9.8-4.4-9.8-9.8c0-5.4,4.4-9.8,9.8-9.8
		C72.7,128.3,77.1,132.7,77.1,138.2"/>
	<g>
		<path class="st1" d="M95.6,26.5c-0.7-1.5-1.6-3-2-3.6c0.1-0.1,0.2-0.2,0.4-0.2c0.1,0.1,0.1,0.1,0.1,0.2c0.3,0.3,0.4,0.3,1.2-0.1
			c0.5-0.3,1.5-0.9,1.8-1.1c0.4-0.2,0.9-0.4,0.7-0.9c0-0.1-0.1-0.1-0.1-0.2c0-0.1,0.2-0.3,0.4-0.2c0.5,0.8,1,1.6,1.2,2.1
			c0,0.1-0.2,0.2-0.4,0.2c-0.1-0.1-0.1-0.1-0.1-0.2c-0.3-0.4-0.8-0.2-1.2,0.1c-0.7,0.4-1.3,0.7-1.8,1.1c-0.7,0.4-0.8,0.5-0.6,0.9
			c0,0.1,0.1,0.3,0.2,0.5c0.1,0.2,0.3,0.5,0.5,0.6c0.2,0.1,0.6,0.2,0.7,0.2c0.1,0,0.3,0,0.4-0.1c0.1,0,0.2,0.2,0.1,0.4
			C96.8,26.2,96.2,26.4,95.6,26.5"/>
		<path class="st1" d="M97.8,33.2c-0.3-1.6-0.9-3.3-1.1-3.9c0.1-0.1,0.3-0.2,0.4-0.1c0,0.1,0.1,0.2,0.1,0.2c0.2,0.4,0.3,0.4,1.2,0.2
			c0.6-0.2,1.7-0.5,2-0.6c0.4-0.1,1-0.2,0.8-0.8c0-0.1,0-0.1,0-0.2c0-0.1,0.3-0.2,0.4-0.1c0.3,0.9,0.6,1.8,0.7,2.4
			c0,0.1-0.3,0.2-0.4,0.1c0-0.1-0.1-0.1-0.1-0.2c-0.2-0.5-0.7-0.3-1.1-0.2c-0.7,0.2-1.4,0.4-2,0.6c-0.7,0.2-0.9,0.3-0.8,0.7
			c0,0.1,0.1,0.3,0.1,0.5c0.1,0.2,0.2,0.5,0.3,0.7c0.2,0.2,0.5,0.3,0.6,0.3c0.1,0,0.3,0,0.4,0c0.1,0.1,0.2,0.2,0,0.4
			C99,33.2,98.5,33.3,97.8,33.2"/>
		<path class="st1" d="M88.5,15.6c-0.1,0.2-0.3,0.3-0.4,0.6c-0.4-0.2-1-0.5-1.8-1c-0.6-0.5-1.3-1.2-1.3-2.5c0.1-1.1,0.8-2,1.6-2.4
			c1.1-0.5,2.2,0,3,0.6c0.9,0.7,1.2,1.2,1.3,1.3c-0.3,0.4-0.5,0.7-0.8,1.2c-0.1,0-0.4-0.1-0.4-0.2c0.1-0.2,0.2-0.5,0.2-0.9
			c0-0.4-0.2-0.7-0.7-1.1c-0.5-0.4-2-0.9-3,0.7c-1,1.5-0.1,2.5,0.2,2.7c0.2,0.2,0.3,0.2,0.4,0.3c0.3,0.2,0.5,0.2,0.7-0.1
			c0.1-0.1,0.2-0.2,0.3-0.3c0.2-0.3,0.3-0.3,0-0.7c-0.1-0.2-0.2-0.2-0.3-0.3c0-0.1,0.1-0.3,0.3-0.3c0.6,0.6,1.3,1.1,1.8,1.4
			c0,0.1-0.1,0.4-0.3,0.4c-0.1,0-0.1-0.1-0.2-0.1c-0.2-0.1-0.3-0.2-0.6,0.2C88.6,15.5,88.5,15.5,88.5,15.6"/>
		<path class="st1" d="M75.6,70.8c1,1.4,1.2,1.6,1.9,2.7c0.3,0.4,0.4,0.6,0,0.7c-0.1,0-0.2,0.1-0.2,0.1c-0.1,0.1,0,0.4,0.1,0.4
			c0.8-0.2,1.5-0.5,2.3-0.8c0.1-0.2-0.1-0.3-0.1-0.4c-0.1,0-0.2,0-0.3,0.1c-0.4,0.1-0.6-0.1-0.9-0.5c-0.2-0.3-2.4-3.4-2.5-3.4
			c-0.1-0.1-0.1-0.1-0.2,0c0,0-0.5,0.3-0.7,0.5c-0.1,1.3-0.4,3.3-0.5,4.1c-0.1,0.8-0.3,0.9-0.5,1c-0.1,0-0.2,0-0.3,0.1
			c-0.1,0.1,0,0.4,0.1,0.4c0.6-0.1,1.4-0.3,2-0.4c0.1-0.1,0-0.4-0.1-0.4c-0.1,0-0.2,0-0.2,0c-0.3,0-0.4,0-0.4-0.6
			C75.3,73.1,75.5,71.8,75.6,70.8"/>
		<path class="st1" d="M99.3,37.9c1.6-0.7,1.8-0.8,3-1.3c0.4-0.2,0.7-0.3,0.7,0.1c0,0.1,0,0.2,0,0.2c0.1,0.1,0.4,0.1,0.4,0
			c-0.1-0.8-0.1-1.6-0.3-2.4c-0.1-0.1-0.3,0-0.4,0c0,0.1,0,0.2,0,0.3c0,0.4-0.2,0.5-0.7,0.8c-0.3,0.1-3.8,1.7-3.9,1.7
			c-0.1,0-0.1,0.1-0.1,0.2c0,0,0.2,0.5,0.3,0.7c1.3,0.4,3.1,1.1,3.9,1.3c0.7,0.3,0.8,0.4,0.9,0.7c0,0.1,0,0.2,0,0.3
			c0.1,0.1,0.4,0.1,0.4,0c0-0.6,0-1.5,0-2c-0.1-0.1-0.3-0.1-0.4,0c0,0.1,0,0.2,0,0.2c0,0.3-0.1,0.4-0.7,0.3
			C101.5,38.7,100.3,38.2,99.3,37.9"/>
		<path class="st1" d="M66.3,71c1.6,0,3.4-0.1,4.1-0.2c0.1,0.1,0.1,0.3,0,0.4c-0.1,0-0.2,0-0.2,0c-0.4,0.1-0.5,0.2-0.4,1.1
			c0,0.6,0.1,1.8,0.1,2.1c0,0.4,0,1,0.6,1c0.1,0,0.1,0,0.2,0c0.1,0.1,0.1,0.3,0.1,0.4c-1,0.1-1.9,0.1-2.5,0.2
			c-0.1-0.1-0.1-0.3,0-0.4c0.1,0,0.2,0,0.2,0c0.5,0,0.5-0.6,0.5-1.1c0-0.8-0.1-1.5-0.1-2.1c0-0.8-0.1-0.9-0.5-1c-0.1,0-0.3,0-0.5,0
			c-0.2,0-0.6,0-0.8,0.2c-0.2,0.1-0.4,0.4-0.4,0.5c0,0.1-0.1,0.3-0.1,0.4c-0.1,0.1-0.3,0.1-0.4-0.1C66.1,72.2,66.2,71.7,66.3,71"/>
		<path class="st1" d="M50.3,13.3c-1.4,0.9-2.8,2-3.3,2.4c-0.1,0-0.3-0.2-0.3-0.3c0.1-0.1,0.1-0.1,0.2-0.2c0.3-0.3,0.3-0.5-0.3-1.2
			c-0.4-0.5-1.1-1.4-1.3-1.7c-0.3-0.4-0.6-0.8-1-0.5c-0.1,0.1-0.1,0.1-0.2,0.1c-0.1,0-0.3-0.2-0.3-0.3c0.7-0.6,1.5-1.2,2-1.5
			c0.1,0,0.3,0.2,0.3,0.3c-0.1,0.1-0.1,0.1-0.2,0.1c-0.4,0.3-0.1,0.8,0.2,1.2c0.5,0.6,0.9,1.2,1.3,1.7c0.5,0.6,0.6,0.7,1,0.5
			c0.1,0,0.3-0.2,0.5-0.3c0.2-0.1,0.4-0.3,0.6-0.6c0.1-0.2,0.1-0.6,0.1-0.7c0-0.1-0.1-0.3-0.1-0.4c0-0.1,0.1-0.3,0.4-0.2
			C49.8,12.2,50.1,12.7,50.3,13.3"/>
		<path class="st1" d="M98.5,44.8c-0.1,0.1-0.3,0.1-0.4-0.1c0.1-0.8,0.2-1.3,0.3-2c0.1-0.1,0.3-0.1,0.4,0c0,0.1,0,0.1,0,0.2
			c0,0.3,0,0.5,0.8,0.7c0.5,0.2,2,0.5,2.3,0.6c0.5,0.1,1,0.2,1.1-0.3c0-0.1,0-0.1,0-0.2c0.1-0.1,0.3-0.1,0.4,0.1
			c-0.1,0.7-0.1,1.2-0.3,2c-0.2-0.1-0.5-0.1-1,0.1c-0.6,0.1-2.2,0.5-2.9,0.7c0.3,0.3,2.2,1.7,2.3,1.8c0.3,0.2,0.6,0.5,1,0.6
			c-0.1,0.5-0.4,1.3-0.5,1.9c-0.1,0.1-0.3,0-0.4-0.1c0-0.1,0-0.1,0-0.2c0.1-0.3,0-0.5-0.6-0.6c-0.7-0.2-1.8-0.4-2.4-0.5
			c-0.7-0.1-1-0.1-1.2,0.2c-0.1,0.2-0.1,0.2-0.1,0.3c-0.1,0.1-0.4,0-0.4-0.1c0.4-1.2,0.5-1.5,0.6-2.2c0.1-0.1,0.3,0,0.4,0.1
			c0,0.1,0,0.1,0,0.2c0,0.3-0.1,0.4,0.8,0.6c0.7,0.1,2.4,0.4,2.8,0.5c-0.4-0.4-1.8-1.3-2.5-1.9c-0.7-0.6-1-0.7-1.2-0.9
			c0-0.1,0-0.2,0.1-0.3c0.1,0,0.7-0.1,1.4-0.3c0.7-0.2,2.6-0.6,3-0.6c-0.6-0.2-2.1-0.5-2.6-0.6c-0.6-0.1-1-0.2-1.1,0.2L98.5,44.8z"
			/>
		<path class="st1" d="M67.9,5.7c0,0.4-0.4,0.8-0.8,0.8c-0.4,0-0.8-0.4-0.8-0.8c0-0.4,0.4-0.8,0.8-0.8C67.6,4.9,67.9,5.3,67.9,5.7"
			/>
		<path class="st1" d="M73,8.6c0-0.6,0.1-1,0.2-1.3c0.1,0,0.4,0,0.5,0.1c0,0.5-0.1,1.3,0.9,1.5c0.6,0.2,1-0.1,1.1-0.4
			C75.9,8,75.6,7.6,75,7c-0.9-0.8-1.1-1.2-1-1.7c0-0.6,0.6-1.7,2.2-1.2c0.8,0.2,1.1,0.5,1.3,0.6c0,0.1-0.1,0.9-0.2,1.2
			C77.2,6,77,6,76.9,5.9c0-0.1,0.2-0.9-0.7-1.2C75.3,4.4,75,4.9,75,5.2c-0.1,0.4,0.2,0.7,0.8,1.2c0.6,0.5,1.2,1,1,2
			c-0.2,0.9-1.2,1.3-2.2,1C73.5,9,73,8.6,73,8.6"/>
		<path class="st1" d="M41.3,57.8c-0.4,0.5-0.7,0.7-1,0.9c-0.1,0-0.3-0.2-0.3-0.4c0.3-0.4,0.9-0.9,0.3-1.7C40,56,39.6,56,39.3,56.2
			c-0.5,0.2-0.5,0.7-0.4,1.5c0.2,1.2,0,1.6-0.3,1.9c-0.4,0.4-1.5,0.9-2.5-0.6c-0.4-0.7-0.5-1.1-0.6-1.3c0.1-0.1,0.7-0.6,0.9-0.8
			c0.2,0,0.3,0.2,0.3,0.4c-0.1,0.1-0.7,0.6-0.3,1.4c0.4,0.7,1,0.6,1.2,0.4c0.3-0.2,0.3-0.6,0.2-1.4c-0.1-0.7-0.2-1.6,0.6-2.1
			c0.8-0.5,1.7-0.2,2.3,0.7C41.3,57.2,41.3,57.8,41.3,57.8"/>
		<path class="st1" d="M89.2,61.9c0,0.2,0.2,0.3,0.3,0.3c0.1,0,0,0,0.1-0.1c0.3-0.2,0.4-0.1,0.6,0.4c0.1,0.3,0.2,0.4,0.2,0.5
			c-0.2,0.2-1.2,1.1-1.4,1.3c-0.2-0.1-0.2-0.1-0.5-0.3c-0.3-0.2-0.6-0.3-0.3-0.6c0.1-0.1,0.1-0.1,0.1-0.1c0-0.2-0.2-0.3-0.3-0.3
			c-0.2,0.2-0.9,0.8-1.7,1.4c0,0.2,0.2,0.3,0.3,0.4c0.1-0.1,0.1-0.1,0.2-0.2c0.3-0.3,0.9,0.1,1.1,0.2c0.3,0.2,3.7,1.9,3.8,1.9
			c0.1,0,0.1,0,0.1,0c0,0,0.3-0.5,0.3-0.6c-0.1-0.3-1.2-3.1-1.5-3.9c-0.3-0.8-0.2-0.9-0.1-1.2c0.1-0.1,0.1-0.2,0.1-0.2
			c0-0.1-0.2-0.3-0.3-0.3C90,61.1,89.4,61.8,89.2,61.9 M91.5,65.6l-2-1l1.2-1.1L91.5,65.6z"/>
		<path class="st1" d="M56.2,69.1C56,69.1,56,69.4,56,69.5c0.1,0,0.1,0,0.2,0.1c0.3,0.2,0.3,0.3-0.1,0.7c-0.2,0.2-0.3,0.3-0.4,0.4
			c-0.2-0.1-1.5-0.6-1.8-0.7c0-0.2,0-0.2,0-0.6c0-0.4,0-0.7,0.4-0.6c0.1,0,0.1,0,0.2,0.1c0.1-0.1,0.2-0.3,0.2-0.4
			c-0.3-0.1-1.1-0.5-2-0.9c-0.2,0.1-0.2,0.3-0.2,0.4c0.1,0.1,0.1,0.1,0.2,0.1c0.4,0.2,0.3,0.9,0.3,1.1c0,0.4-0.2,4.2-0.2,4.3
			c0,0.1,0,0.1,0.1,0.1c0,0,0.6,0,0.7,0c0.2-0.2,2.3-2.4,2.9-3c0.6-0.6,0.8-0.6,1-0.6c0.1,0,0.2,0,0.2,0c0.1-0.1,0.2-0.3,0.1-0.4
			C57.3,69.5,56.4,69.2,56.2,69.1 M53.9,72.6l0.1-2.2l1.5,0.6L53.9,72.6z"/>
		<path class="st1" d="M42.7,20.1c0-0.2-0.2-0.3-0.3-0.3c-0.1,0.1,0,0-0.1,0.1c-0.3,0.3-0.4,0.2-0.7-0.3c-0.2-0.3-0.2-0.4-0.3-0.5
			c0.2-0.2,1.1-1.3,1.2-1.4c0.2,0.1,0.2,0.1,0.5,0.2c0.4,0.1,0.7,0.2,0.4,0.6c-0.1,0.1-0.1,0.1-0.1,0.1c0,0.2,0.2,0.3,0.3,0.3
			c0.2-0.3,0.8-0.9,1.5-1.6c0-0.2-0.2-0.3-0.3-0.3c-0.1,0.1-0.1,0.1-0.2,0.2c-0.3,0.3-0.9,0-1.1-0.1c-0.3-0.1-3.9-1.5-4-1.5
			c-0.1,0-0.1,0-0.1,0c0,0-0.2,0.5-0.2,0.7c0.1,0.2,1.5,3,1.9,3.7c0.4,0.7,0.3,0.9,0.2,1.1c0,0.1-0.1,0.2-0.1,0.2
			c0,0.1,0.2,0.3,0.4,0.2C41.9,21.1,42.5,20.3,42.7,20.1 M40,16.8l2.1,0.8l-1,1.2L40,16.8z"/>
		<path class="st1" d="M63.6,74.5c-0.1,0.2-0.1,0.3-0.3,0.5c-0.1,0.1-0.4,0.3-0.9,0.3c-0.1,0-0.4-0.1-0.7-0.1c0,0,0.4-2.4,0.5-3
			c0.1-0.9,0.2-1,0.7-1c0.1,0,0.1,0,0.2,0c0.1-0.1,0.1-0.3,0-0.4c-0.7-0.1-1.6-0.3-2.4-0.4c-0.1,0.1-0.2,0.3-0.1,0.4
			c0.1,0,0.2,0.1,0.3,0.1c0.4,0.2,0.4,0.4,0.3,1.1c-0.1,0.4-0.1,0.4-0.5,3c-0.4-0.1-0.8-0.1-0.9-0.2c-0.5-0.1-0.5-0.5-0.5-0.6
			c0-0.1,0-0.3,0-0.4c-0.1-0.1-0.4-0.1-0.4-0.1c0,0.2-0.2,1.2-0.2,1.4c2,0.5,3.1,0.6,5,0.8c0-0.1,0.5-1.2,0.5-1.3
			C63.9,74.6,63.7,74.5,63.6,74.5"/>
		<path class="st1" d="M49.1,69.7c-0.1,0.1-0.3,0.3-0.5,0.3c-0.2,0.1-0.5,0.1-0.9-0.1c-0.1-0.1-0.3-0.2-0.6-0.4c0,0,1.4-2,1.7-2.5
			c0.5-0.7,0.6-0.8,1-0.6c0.1,0,0.1,0.1,0.2,0.1c0.1,0,0.2-0.3,0.2-0.4c-0.6-0.4-1.4-0.9-2-1.4c-0.1,0-0.3,0.2-0.3,0.3
			c0.1,0.1,0.1,0.1,0.2,0.2c0.3,0.3,0.2,0.5-0.2,1.2c-0.2,0.3-0.2,0.3-1.8,2.5c-0.3-0.2-0.6-0.4-0.7-0.6c-0.4-0.3-0.2-0.7-0.2-0.8
			c0-0.1,0.1-0.2,0.2-0.4c0-0.2-0.3-0.3-0.4-0.3c-0.1,0.2-0.7,1-0.8,1.2c1.6,1.3,2.5,1.9,4.1,2.9c0.1-0.1,0.9-0.9,1-1
			C49.4,69.9,49.2,69.7,49.1,69.7"/>
		<path class="st1" d="M93,58.2c0.1-0.1,0.1-0.1,0.2-0.2c0.3-0.3,0.5-0.5,1.1-0.1c0.1,0.1,0.6,0.4,0.8,0.5c-0.3,0.5-0.5,0.7-0.8,1.2
			c0.1,0.1,0.3,0.3,0.4,0.3c0.3-0.4,0.5-0.7,0.8-1.2c0.1,0.1,1.2,0.8,1.3,0.9c0.1,0.1,0.2,0.2,0.1,0.4c-0.1,0.2-0.3,0.5-0.6,0.9
			c-0.5,0.6-1.4,0.2-1.7,0c-0.2,0.1-0.3,0.2-0.2,0.4c0.4,0.2,1.2,0.7,1.5,0.9c1.2-1.5,1.8-2.5,2.5-3.7c0-0.1-0.2-0.2-0.4-0.2
			c0,0-0.1,0.1-0.1,0.2c-0.3,0.4-0.6,0.2-1.2-0.1c-0.3-0.2-1.1-0.7-1.8-1.2c-0.8-0.5-0.8-0.7-0.6-1.1c0-0.1,0-0.1,0.1-0.1
			c-0.1-0.1-0.3-0.2-0.4-0.2c-0.5,0.7-1,1.5-1.4,2.2C92.7,58,92.9,58.1,93,58.2"/>
		<path class="st1" d="M45.3,62.1c0,0.1-0.2,0.3-0.3,0.3c-0.1-0.1-0.1-0.1-0.2-0.2c-0.4-0.3-0.5-0.3-1.1,0.4
			c-0.4,0.4-1.2,1.2-1.5,1.5c-0.3,0.3-0.8,0.6-0.4,1.1c0.1,0.1,0.1,0.1,0.2,0.2c0,0.1-0.2,0.3-0.3,0.3c-0.7-0.7-1.3-1.4-1.8-1.9
			c0-0.1,0.2-0.3,0.3-0.3c0.1,0.1,0.1,0.1,0.2,0.2c0.4,0.4,0.8,0.1,1.2-0.3c0.6-0.5,1.2-1.1,1.6-1.4c0.6-0.5,0.7-0.7,0.4-1.1
			c0-0.1-0.1-0.1-0.2-0.2c0-0.1,0.2-0.3,0.3-0.3C44.2,61.1,44.8,61.6,45.3,62.1"/>
		<path class="st1" d="M58.1,9.4c-0.3-0.5-0.4-0.9-0.5-1.2C57.6,8.1,57.9,8,58,8.1c0.3,0.4,0.6,1.1,1.6,0.9c0.6-0.2,0.8-0.6,0.7-0.9
			c-0.1-0.5-0.5-0.7-1.3-0.8c-1.2-0.2-1.5-0.5-1.7-0.9c-0.3-0.5-0.3-1.7,1.3-2.2c0.8-0.2,1.2-0.2,1.5-0.2C60.1,4,60.4,4.8,60.4,5
			c-0.1,0.1-0.2,0.2-0.4,0.2c-0.1-0.1-0.3-0.9-1.2-0.7C58,4.7,58,5.3,58,5.5c0.1,0.4,0.5,0.5,1.3,0.6c0.7,0.1,1.6,0.3,1.8,1.2
			c0.2,0.9-0.4,1.7-1.4,2C58.7,9.6,58.1,9.4,58.1,9.4"/>
		<path class="st1" d="M52.8,11.8c-0.1-0.1-0.2-0.3-0.2-0.4c0.1,0,0.2-0.1,0.2-0.1c0.4-0.3,0.4-0.4,0-1.2c-0.3-0.5-0.7-1.5-0.9-1.9
			c-0.2-0.4-0.4-0.9-0.9-0.7c-0.1,0-0.1,0.1-0.2,0.1c-0.1,0-0.2-0.3-0.2-0.4c0.8-0.4,1.7-0.8,2.4-1.1c0.1,0,0.2,0.3,0.2,0.4
			c-0.1,0-0.2,0.1-0.2,0.1c-0.5,0.3-0.3,0.7-0.1,1.2c0.3,0.7,0.7,1.5,0.9,1.9c0.3,0.7,0.4,0.9,0.9,0.7c0.1,0,0.2,0,0.3-0.1
			c0.1,0,0.2,0.3,0.2,0.4C54.1,11.1,53.4,11.5,52.8,11.8"/>
		<path class="st1" d="M39,25.9c-0.1,0-0.4-0.1-0.4-0.2c0-0.1,0.1-0.2,0.1-0.3c0.1-0.4,0.1-0.6-0.7-1c-0.5-0.3-1.5-0.8-1.9-1
			c-0.4-0.2-0.8-0.5-1.1,0c-0.1,0.1-0.1,0.1-0.1,0.2c-0.1,0-0.4-0.1-0.4-0.2c0.4-0.8,0.9-1.7,1.3-2.3c0.1-0.1,0.4,0.1,0.4,0.2
			c0,0.1-0.1,0.2-0.1,0.2c-0.2,0.5,0.2,0.7,0.6,1c0.7,0.4,1.5,0.8,1.8,1c0.7,0.4,0.9,0.4,1.2,0.1c0.1-0.1,0.1-0.1,0.2-0.2
			c0.1,0,0.3,0.1,0.4,0.2C39.7,24.5,39.3,25.3,39,25.9"/>
		<path class="st1" d="M90.3,18.5c0-0.1,0.2-0.3,0.3-0.3c0.1,0.1,0.1,0.1,0.2,0.2c0.4,0.3,0.5,0.3,1.2-0.3c0.4-0.4,1.3-1.1,1.6-1.4
			c0.3-0.3,0.8-0.6,0.5-1.1c-0.1-0.1-0.1-0.1-0.2-0.2c0-0.1,0.2-0.3,0.3-0.3c0.6,0.7,1.3,1.5,1.7,2c0,0.1-0.2,0.3-0.3,0.3
			c-0.1-0.1-0.1-0.1-0.2-0.2c-0.4-0.4-0.7-0.1-1.2,0.2c-0.6,0.5-1.3,1.1-1.6,1.3c-0.6,0.5-0.7,0.7-0.5,1.1c0,0.1,0.1,0.1,0.2,0.2
			c0,0.1-0.2,0.3-0.4,0.3C91.3,19.7,90.7,19.1,90.3,18.5"/>
		<path class="st1" d="M79.2,10.8c0-0.1,0.1-0.4,0.2-0.4c0.1,0,0.2,0.1,0.3,0.1c0.4,0.1,0.6,0.1,0.9-0.7c0.2-0.5,0.7-1.5,0.9-1.9
			c0.2-0.4,0.5-0.9,0-1.1c-0.1,0-0.1-0.1-0.2-0.1c-0.1-0.1,0.1-0.4,0.2-0.4c0.9,0.4,1.8,0.8,2.4,1.1c0.1,0.1-0.1,0.4-0.2,0.4
			c-0.1,0-0.2-0.1-0.2-0.1c-0.5-0.2-0.7,0.2-1,0.7c-0.3,0.7-0.7,1.5-0.9,1.9c-0.3,0.7-0.4,0.9,0,1.2c0.1,0,0.1,0.1,0.2,0.1
			c0,0.1-0.1,0.4-0.2,0.4C80.6,11.4,79.9,11.1,79.2,10.8"/>
		<path class="st1" d="M36.9,48.8c-0.5,0.3-0.9,0.4-1.2,0.5c-0.1-0.1-0.2-0.3-0.1-0.5c0.4-0.2,1.2-0.5,0.9-1.5
			c-0.1-0.6-0.5-0.8-0.9-0.8c-0.5,0-0.7,0.5-0.9,1.3c-0.3,1.2-0.6,1.5-1,1.7c-0.5,0.2-1.7,0.2-2.1-1.4c-0.2-0.8-0.1-1.2-0.1-1.5
			c0.1-0.1,0.9-0.3,1.2-0.4c0.1,0.1,0.2,0.2,0.1,0.4c-0.1,0.1-0.9,0.3-0.7,1.2c0.1,0.8,0.7,0.9,1,0.8c0.4-0.1,0.5-0.5,0.7-1.3
			c0.2-0.7,0.3-1.6,1.3-1.8c0.9-0.2,1.7,0.5,1.9,1.5C37.1,48.2,36.9,48.8,36.9,48.8"/>
		<path class="st1" d="M82.2,67c-0.8,0.4-1.5,1-1.6,1.1c0.2,0.4,0.3,0.9,0.5,1.3c0.1,0,0.4,0,0.5-0.2c0-0.2-0.1-0.5-0.1-0.8
			c0.1-0.4,0.5-0.8,0.9-1c0.4-0.2,1.7-0.6,2.6,1c1,1.7,0,2.7-0.6,3c-0.5,0.3-1,0.2-1.3,0.1c-0.3-0.1-0.5-0.4-0.6-0.5
			c-0.1,0-0.3,0.1-0.4,0.3c0.3,0.4,0.6,0.8,0.8,1.2c0.2,0,1.2-0.3,1.9-0.7c0.8-0.4,1.6-1.2,1.7-2.3c0.1-0.9-0.4-2-1.4-2.5
			C84,66.3,83,66.6,82.2,67"/>
		<path class="st1" d="M37.3,30.8c0.3-0.8,0.4-1.7,0.4-1.9c-0.4-0.2-0.9-0.4-1.3-0.6c-0.1,0-0.3,0.3-0.2,0.4
			c0.2,0.1,0.4,0.3,0.6,0.5c0.2,0.4,0.2,0.9,0,1.3c-0.1,0.4-0.8,1.6-2.5,1.2c-1.9-0.5-1.9-2-1.6-2.6c0.2-0.6,0.6-0.9,0.9-1
			c0.3-0.1,0.6-0.1,0.8,0c0.1-0.1,0.1-0.3,0.1-0.4c-0.5-0.1-0.9-0.2-1.4-0.3c-0.1,0.2-0.6,1-0.9,1.8c-0.3,0.9-0.3,2,0.4,2.9
			c0.6,0.7,1.7,1.1,2.7,0.8C36.5,32.5,37,31.6,37.3,30.8"/>
		<path class="st1" d="M36.1,39.2c0-0.9-0.3-1.6-0.8-2.2c-0.5-0.5-1.2-0.8-2-0.8c-0.8,0-1.5,0.3-2,0.8c-0.5,0.5-0.8,1.3-0.8,2.2
			c0,1.7,1.2,3,2.9,3c0.7,0,1.4-0.3,1.9-0.8C35.8,40.9,36.1,40.2,36.1,39.2 M33.1,41.1c-0.8,0-1.3-0.3-1.7-0.7
			c-0.3-0.3-0.4-0.7-0.4-1.2c0-0.5,0.2-0.8,0.5-1.1c0.5-0.4,1.2-0.7,2-0.6c1.3,0.1,2.1,0.7,2.1,1.8C35.6,40.6,34.3,41.1,33.1,41.1"
			/>
		<path class="st1" d="M45,51.9c0,0.1-0.2,0.1-0.2,0.1c0,0-0.1-0.1-0.1-0.1c-0.2-0.2-0.2-0.3-0.8,0c-0.3,0.2-0.9,0.5-1.2,0.6
			c-0.2,0.1-0.6,0.3-0.4,0.6c0,0.1,0,0.1,0.1,0.1c0,0.1-0.2,0.2-0.2,0.1c-0.3-0.5-0.6-1.1-0.7-1.5c0-0.1,0.2-0.2,0.2-0.1
			c0,0.1,0.1,0.1,0.1,0.1c0.2,0.3,0.4,0.2,0.7,0c0.4-0.2,0.9-0.5,1.2-0.6c0.4-0.2,0.5-0.3,0.4-0.6c0,0,0-0.1-0.1-0.2
			c0-0.1,0.2-0.1,0.3-0.1C44.5,51.1,44.7,51.5,45,51.9"/>
		<path class="st1" d="M42.1,35.8c-0.1,0-0.2,0-0.3,0c0-0.1,0-0.1,0-0.2c0-0.3,0-0.4-0.6-0.5c-0.4-0.1-1-0.2-1.3-0.2
			c-0.3,0-0.6-0.1-0.7,0.2c0,0.1,0,0.1,0,0.1c-0.1,0.1-0.2,0-0.3,0c0.1-0.6,0.2-1.2,0.3-1.6c0.1-0.1,0.2,0,0.3,0.1
			c0,0.1,0,0.1,0,0.1c0,0.3,0.2,0.4,0.6,0.5c0.5,0.1,1,0.2,1.3,0.3c0.5,0.1,0.6,0.1,0.7-0.2c0,0,0-0.1,0-0.2c0.1,0,0.2,0,0.3,0.1
			C42.3,34.8,42.2,35.3,42.1,35.8"/>
		<path class="st1" d="M41.7,39.6c-0.4,0.1-0.6,0.1-0.8,0.1c0-0.1-0.1-0.2,0-0.3c0.3-0.1,0.8-0.1,0.8-0.8c0-0.4-0.2-0.6-0.4-0.6
			c-0.3,0-0.5,0.2-0.8,0.7c-0.3,0.7-0.6,0.8-0.9,0.9c-0.4,0.1-1.1-0.1-1.1-1.1c0-0.5,0.1-0.8,0.2-0.9c0.1,0,0.6-0.1,0.8-0.1
			c0.1,0.1,0.1,0.2,0,0.3c-0.1,0-0.6,0-0.6,0.6c0,0.5,0.3,0.6,0.5,0.6c0.3,0,0.4-0.2,0.6-0.7c0.2-0.4,0.4-0.9,1.1-0.9
			c0.6,0,1,0.5,0.9,1.2C42,39.3,41.7,39.6,41.7,39.6"/>
		<path class="st1" d="M42.8,32.4c-0.4,0-0.6-0.1-0.8-0.1c0-0.1,0-0.2,0.1-0.3c0.3,0,0.8,0.1,1-0.6c0.1-0.4,0-0.6-0.3-0.7
			c-0.3-0.1-0.6,0-0.9,0.4c-0.5,0.6-0.8,0.6-1.1,0.6c-0.4,0-1.1-0.4-0.7-1.4c0.2-0.5,0.3-0.7,0.4-0.9c0.1,0,0.6,0.1,0.8,0.1
			c0.1,0.1,0,0.2-0.1,0.3c-0.1,0-0.6-0.1-0.8,0.4c-0.2,0.5,0.1,0.7,0.3,0.7c0.3,0.1,0.4-0.1,0.8-0.5c0.3-0.3,0.7-0.8,1.3-0.6
			c0.5,0.2,0.8,0.8,0.6,1.4C43.1,32.1,42.8,32.4,42.8,32.4"/>
		<path class="st1" d="M53.9,61.3c-0.1,0-0.2,0.2-0.2,0.2c0,0,0,0,0.1,0.1c0.2,0.2,0.1,0.2-0.1,0.4c-0.2,0.1-0.2,0.2-0.3,0.2
			c-0.1-0.1-0.9-0.6-1-0.6c0-0.1,0-0.1,0.1-0.4c0.1-0.2,0.1-0.4,0.3-0.3c0.1,0,0.1,0,0.1,0.1c0.1,0,0.2-0.2,0.1-0.2
			c-0.2-0.1-0.6-0.4-1.1-0.8c-0.1,0-0.2,0.2-0.2,0.2c0.1,0.1,0.1,0.1,0.1,0.1c0.2,0.2,0.1,0.6,0.1,0.7c0,0.2-0.6,2.6-0.6,2.6
			c0,0.1,0,0.1,0,0.1c0,0,0.4,0.1,0.4,0.1c0.1-0.1,1.7-1.2,2.1-1.5c0.4-0.3,0.5-0.3,0.7-0.2c0.1,0,0.1,0.1,0.1,0.1
			c0.1,0,0.2-0.2,0.1-0.2C54.6,61.7,54.1,61.4,53.9,61.3 M52.1,63.2l0.3-1.4l0.8,0.5L52.1,63.2z"/>
		<path class="st1" d="M58.1,63.4c-0.1,0-0.1,0.2-0.1,0.3l0.2,0.1c0.2,0.1,0.2,0.3,0.1,0.7c0,0.1-0.1,0.3-0.2,0.5
			c0,0-0.4-0.2-0.8-0.3c-0.4-0.1-0.8-0.3-0.8-0.3c0.1-0.2,0.2-0.4,0.2-0.5c0.2-0.5,0.3-0.6,0.6-0.5c0,0,0.1,0,0.1,0
			c0.1,0,0.1-0.2,0.1-0.3c-0.5-0.2-1-0.4-1.4-0.6c-0.1,0-0.2,0.2-0.1,0.3c0.1,0,0.1,0.1,0.1,0.1c0.2,0.2,0.2,0.3,0,0.7
			c-0.1,0.2-0.4,0.8-0.6,1.2c-0.1,0.3-0.3,0.6-0.6,0.4c0,0-0.1,0-0.1-0.1c-0.1,0-0.1,0.2-0.1,0.2c0.3,0.2,0.9,0.4,1.5,0.7
			c0.1,0,0.1-0.2,0.1-0.3c0,0-0.1,0-0.1-0.1c-0.3-0.1-0.2-0.4-0.1-0.7c0-0.1,0.1-0.3,0.2-0.4c0,0,0.5,0.2,0.8,0.3
			c0.3,0.1,0.8,0.3,0.8,0.3c-0.1,0.1-0.1,0.3-0.2,0.5c-0.1,0.3-0.2,0.6-0.6,0.5c0,0-0.1,0-0.1,0c-0.1,0.1-0.1,0.2-0.1,0.3
			c0.4,0.1,1,0.4,1.5,0.5c0.1,0,0.1-0.2,0.1-0.3c0,0-0.1,0-0.1,0c-0.3-0.1-0.2-0.4-0.1-0.7c0.1-0.2,0.3-0.9,0.4-1.3
			c0.2-0.5,0.3-0.6,0.5-0.5c0,0,0.1,0,0.1,0c0.1,0,0.1-0.2,0.1-0.3C59.1,63.8,58.6,63.6,58.1,63.4"/>
		<path class="st1" d="M43.6,49.1c0,0.1-0.2,0.1-0.3,0.1c0-0.1,0-0.1,0-0.1c-0.1-0.2-0.2-0.3-0.8-0.1c-0.4,0.2-0.9,0.4-1.2,0.5
			c-0.4,0.1-0.6,0.2-0.5,0.5c0,0.1,0,0.1,0,0.1c0,0.1-0.2,0.1-0.3,0.1c-0.2-0.6-0.6-1.7-0.9-2.7c0.2-0.1,0.6-0.3,0.8-0.3
			c0.1,0.1,0.1,0.2,0.1,0.3c-0.1,0-0.2,0.1-0.3,0.2c-0.1,0.1-0.2,0.2-0.2,0.5c0.1,0.3,0.2,0.6,0.2,0.8c0.1,0.1,0.1,0.1,0.2,0.1
			c0.1,0,0.8-0.3,0.9-0.3c-0.2-0.7-0.3-0.9-0.3-0.9c0.1-0.1,0.2-0.1,0.3-0.1c0,0,0.3,0.9,0.3,0.9c0,0,0.5-0.2,0.6-0.2
			c0.5-0.2,0.4-0.3,0.3-0.6c0-0.1-0.1-0.2-0.1-0.3c-0.1-0.3-0.3-0.4-0.6-0.4c-0.1,0-0.2,0-0.2,0c-0.1-0.1-0.1-0.2,0-0.3
			c0.1,0,0.8-0.1,0.9-0.1C43,47.3,43.3,48.3,43.6,49.1"/>
		<path class="st1" d="M48,56.3c0,0.1-0.1,0.2-0.2,0.2c0,0-0.1-0.1-0.1-0.1c-0.2-0.2-0.3-0.1-0.7,0.2c-0.3,0.3-0.8,0.6-1,0.8
			c-0.3,0.2-0.5,0.4-0.3,0.6c0,0,0.1,0.1,0.1,0.1c0,0.1-0.1,0.2-0.2,0.2c-0.1-0.1-0.5-0.6-0.6-0.8c0,0-0.1-0.1-0.1-0.1
			c0-0.1,0.1-0.1,0.1-0.3c0-0.2,0.2-0.7,0.3-1.4c0.2-0.7,0.2-1.2,0.2-1.4c-0.2,0.1-1,0.6-1.2,0.8c-0.4,0.3-0.5,0.4-0.3,0.7
			c0,0,0.1,0.1,0.1,0.1c0,0.1-0.1,0.2-0.2,0.2c-0.3-0.4-0.6-0.8-0.7-1.1c0-0.1,0.2-0.2,0.2-0.1c0,0,0.1,0.1,0.1,0.1
			c0.2,0.2,0.2,0.2,0.7-0.1c0.3-0.2,1.8-1.1,1.9-1.3c0.1,0,0.2,0,0.2,0.1c-0.1,0.6-0.2,1.4-0.4,2.1c-0.1,0.7-0.3,1.1-0.3,1.5
			c0.2-0.1,1-0.8,1.3-1c0.4-0.3,0.4-0.5,0.3-0.7c0-0.1-0.1-0.1-0.1-0.1c0-0.1,0.1-0.2,0.2-0.2C47.4,55.5,47.8,56.1,48,56.3"/>
		<path class="st1" d="M42.4,44.9c0,0.1-0.2,0.1-0.3,0.1c0,0,0-0.1,0-0.2c-0.1-0.2-0.2-0.3-0.7-0.2c-0.4,0.1-1,0.2-1.3,0.2
			c-0.4,0.1-0.6,0.1-0.6,0.4c0,0.1,0,0.1,0,0.2c-0.1,0.1-0.2,0.1-0.3,0.1c0-0.2-0.1-0.7-0.2-1c0,0,0-0.1,0-0.1
			c0.1,0,0.1-0.1,0.3-0.2c0.1-0.1,0.5-0.5,0.9-1c0.5-0.6,0.8-0.9,0.9-1.1c-0.2,0-1.2,0.1-1.4,0.1c-0.5,0-0.6,0.1-0.6,0.4
			c0,0,0,0.1,0,0.2c-0.1,0.1-0.2,0.1-0.3,0c-0.1-0.5-0.1-1-0.1-1.3c0-0.1,0.2-0.1,0.3,0c0,0,0,0.1,0,0.1c0,0.2,0.1,0.3,0.7,0.2
			c0.4,0,2.1-0.1,2.3-0.2c0.1,0,0.1,0.1,0.1,0.2c-0.4,0.5-0.9,1.1-1.4,1.7c-0.5,0.5-0.8,0.9-1,1.1c0.2,0,1.3-0.2,1.6-0.3
			c0.5-0.1,0.6-0.2,0.6-0.4c0-0.1,0-0.1,0-0.2c0.1-0.1,0.2-0.1,0.3,0C42.2,43.9,42.3,44.6,42.4,44.9"/>
		<path class="st1" d="M49.5,58.2c0,0,0.1,0.1,0.1,0.1c0.2,0.2,0.3,0.4,0,0.7c-0.1,0.1-0.3,0.3-0.4,0.4c-0.3-0.3-0.4-0.4-0.6-0.6
			c-0.1,0-0.2,0.1-0.2,0.2c0.2,0.2,0.4,0.4,0.7,0.6c-0.1,0.1-0.6,0.7-0.7,0.7c-0.1,0.1-0.1,0.1-0.2,0c-0.1-0.1-0.3-0.2-0.5-0.5
			c-0.3-0.4,0-0.9,0.1-1.1c0-0.1-0.1-0.2-0.3-0.2c-0.2,0.2-0.5,0.7-0.7,0.9c0.8,0.9,1.4,1.4,2,1.9c0.1,0,0.2-0.1,0.2-0.2
			c0,0,0,0-0.1-0.1c-0.2-0.2-0.1-0.4,0.2-0.7c0.2-0.2,0.5-0.6,0.9-1c0.4-0.5,0.5-0.4,0.7-0.3c0,0,0,0,0.1,0.1c0.1,0,0.2-0.1,0.2-0.2
			c-0.4-0.3-0.8-0.7-1.2-1.1C49.6,58.1,49.5,58.2,49.5,58.2"/>
		<path class="st1" d="M84,58.6c0.1,0,0.2,0.1,0.2,0.2c0,0-0.1,0.1-0.1,0.1c-0.2,0.2-0.2,0.3,0.2,0.7c0.2,0.3,0.7,0.8,0.9,1
			c0.2,0.2,0.4,0.5,0.7,0.3c0,0,0.1-0.1,0.1-0.1c0.1,0,0.2,0.1,0.2,0.2c-0.4,0.4-0.9,0.8-1.2,1c-0.1,0-0.2-0.1-0.2-0.2
			c0,0,0.1-0.1,0.1-0.1c0.2-0.2,0.1-0.5-0.1-0.7c-0.3-0.4-0.7-0.8-0.8-1c-0.3-0.4-0.4-0.4-0.7-0.3c0,0-0.1,0.1-0.1,0.1
			c-0.1,0-0.2-0.1-0.2-0.2C83.3,59.2,83.7,58.9,84,58.6"/>
		<path class="st1" d="M69.6,64.9c0,0.1,0.1,0.2,0,0.3c-0.1,0-0.1,0-0.2,0c-0.3,0.1-0.3,0.1-0.3,0.7c0,0.4,0.1,1,0.1,1.3
			c0,0.3,0,0.6,0.4,0.6c0.1,0,0.1,0,0.2,0c0.1,0.1,0.1,0.2,0,0.3c-0.6,0.1-1.2,0.1-1.6,0.1c-0.1,0-0.1-0.2,0-0.3c0.1,0,0.1,0,0.1,0
			c0.3-0.1,0.3-0.3,0.3-0.7c0-0.5-0.1-1-0.1-1.3c0-0.5-0.1-0.6-0.4-0.6c0,0-0.1,0-0.2,0c0,0-0.1-0.2,0-0.3
			C68.6,65,69.1,65,69.6,64.9"/>
		<path class="st1" d="M92.5,39.9c0.1,0,0.2,0,0.3,0c0,0.1,0,0.1,0,0.2c0,0.3,0.1,0.3,0.7,0.4c0.4,0,1,0,1.3,0
			c0.3,0,0.6,0.1,0.7-0.3c0-0.1,0-0.1,0-0.2c0.1-0.1,0.2-0.1,0.3,0c0,0.6,0,1.2-0.1,1.6c-0.1,0.1-0.2,0-0.3,0v-0.1
			c0-0.3-0.3-0.4-0.6-0.4c-0.5,0-1-0.1-1.3-0.1c-0.5,0-0.6,0-0.7,0.3c0,0,0,0.1,0,0.2c-0.1,0-0.2,0-0.3,0
			C92.4,40.9,92.5,40.4,92.5,39.9"/>
		<path class="st1" d="M86.8,55.9c0.3,0.2,0.5,0.3,0.7,0.5c0,0.1-0.1,0.2-0.2,0.3c-0.3-0.1-0.7-0.4-1.1,0.1
			c-0.3,0.3-0.2,0.6-0.1,0.7c0.2,0.2,0.5,0.2,1,0c0.7-0.3,1-0.3,1.2-0.1c0.3,0.2,0.8,0.8,0.1,1.6c-0.3,0.4-0.6,0.5-0.7,0.6
			c-0.1,0-0.5-0.3-0.6-0.4c0-0.1,0.1-0.2,0.2-0.2c0.1,0,0.5,0.3,0.9-0.1c0.4-0.4,0.2-0.7,0-0.8c-0.2-0.2-0.4-0.1-0.9,0.1
			c-0.4,0.2-0.9,0.4-1.4,0c-0.4-0.4-0.4-1,0.1-1.5C86.4,56,86.8,55.9,86.8,55.9"/>
		<path class="st1" d="M66.1,65.2c0.1,0.4,0.1,0.6,0.1,0.8c-0.1,0-0.2,0.1-0.3,0c-0.1-0.3-0.1-0.8-0.8-0.8c-0.4,0-0.6,0.2-0.6,0.4
			c-0.1,0.3,0.2,0.5,0.6,0.8c0.7,0.4,0.8,0.6,0.8,0.9c0,0.4-0.1,1.1-1.2,1c-0.5,0-0.8-0.1-0.9-0.2c0-0.1-0.1-0.6,0-0.8
			c0.1-0.1,0.2-0.1,0.3,0c0,0.1,0,0.6,0.6,0.7c0.5,0.1,0.6-0.3,0.7-0.5c0-0.3-0.2-0.4-0.7-0.6c-0.4-0.2-0.9-0.5-0.9-1.1
			c0-0.6,0.6-1,1.3-0.9C65.8,64.9,66.1,65.2,66.1,65.2"/>
		<path class="st1" d="M91.8,31.8c0.9-0.7,0.9-0.8,1.6-1.3c0.2-0.2,0.3-0.3,0.5,0c0,0.1,0,0.1,0.1,0.1c0.1,0,0.2,0,0.3-0.1
			c-0.2-0.5-0.3-0.9-0.5-1.4c-0.1-0.1-0.2,0-0.3,0.1c0,0,0,0.1,0,0.2c0,0.3,0,0.4-0.3,0.6c-0.2,0.1-2,1.6-2.1,1.7c0,0,0,0.1,0,0.1
			c0,0,0.2,0.3,0.3,0.4c0.8,0,2.1,0.2,2.6,0.2c0.5,0,0.6,0.1,0.6,0.3c0,0.1,0,0.1,0,0.2c0.1,0,0.2,0,0.3-0.1
			c-0.1-0.4-0.2-0.9-0.3-1.2c-0.1-0.1-0.2,0-0.3,0.1c0,0,0,0.1,0,0.1c0,0.2,0,0.3-0.4,0.3C93.2,31.9,92.4,31.8,91.8,31.8"/>
		<path class="st1" d="M92.5,44.9c1.1-0.1,1.2-0.2,2-0.3c0.3,0,0.4-0.1,0.4,0.2c0,0.1,0,0.1,0,0.1c0.1,0.1,0.2,0.1,0.3,0
			c0.1-0.5,0.2-1,0.2-1.5c-0.1-0.1-0.2-0.1-0.3,0c0,0.1,0,0.1,0,0.2c-0.1,0.2-0.2,0.3-0.6,0.4c-0.2,0-2.6,0.4-2.6,0.4
			c-0.1,0-0.1,0.1-0.1,0.1c0,0,0,0.4,0.1,0.5c0.7,0.4,1.7,1.2,2.1,1.4c0.4,0.3,0.4,0.4,0.4,0.5c0,0.1,0,0.1,0,0.2
			c0,0.1,0.2,0.1,0.3,0.1c0.1-0.4,0.2-0.9,0.3-1.2c0-0.1-0.2-0.1-0.3-0.1c0,0.1,0,0.1,0,0.1c-0.1,0.2-0.1,0.3-0.5,0
			C93.7,45.7,93,45.2,92.5,44.9"/>
		<path class="st1" d="M91.4,54.1c-0.5-0.3-1.5-0.9-1.7-1c-0.4-0.3-0.5-0.3-0.7-0.1c0,0-0.1,0.1-0.1,0.1c-0.1,0-0.2-0.1-0.2-0.1
			c0.3-0.4,0.5-0.9,0.8-1.3c0.1,0,0.2,0.1,0.2,0.1c0,0.1,0,0.1-0.1,0.1c-0.1,0.3,0,0.3,0.4,0.6c0.3,0.2,0.9,0.5,1.2,0.7
			c0.5,0.3,0.5,0.4,0.7,0c0-0.1,0-0.1,0.1-0.1c0.1,0,0.2,0.1,0.2,0.1c-0.5,0.8-0.7,1.2-0.8,1.4c-0.1,0.1-0.2,0.3-0.3,0.4
			c-0.2,0.3-0.7,0.7-1.3,0.3c-0.4-0.3-0.4-0.7-0.3-1c-0.3,0-0.7,0.1-1.1,0.1c-0.4,0.1-0.4,0.1-0.6,0.3c0,0-0.1,0.1-0.1,0.1
			c-0.1,0-0.2-0.1-0.2-0.2c0-0.1,0.3-0.4,0.5-0.7c0.2,0,1.6-0.2,1.9-0.2l0.1,0.1C90,54,89.9,54.2,90,54.4c0.1,0.2,0.2,0.3,0.3,0.3
			c0.1,0.1,0.3,0.1,0.5,0.1c0.2,0,0.3-0.2,0.4-0.3C91.3,54.4,91.4,54.3,91.4,54.1"/>
		<path class="st1" d="M77.2,63c-0.1,0.1,0,0.2,0.1,0.3c0,0,0,0,0.1,0c0.2-0.1,0.3,0,0.3,0.4c0,0.2,0,0.3,0,0.3
			c-0.2,0.1-1,0.4-1.1,0.4c-0.1-0.1-0.1-0.1-0.2-0.3c-0.2-0.2-0.3-0.3-0.1-0.4c0.1,0,0.1,0,0.1,0c0-0.1,0-0.2-0.1-0.2
			c-0.2,0.1-0.7,0.3-1.3,0.5c-0.1,0.1,0,0.2,0.1,0.3c0.1,0,0.1,0,0.2,0c0.3-0.1,0.5,0.3,0.6,0.4c0.1,0.2,1.8,2,1.8,2
			c0,0,0.1,0,0.1,0c0,0,0.3-0.2,0.3-0.3c0-0.2,0-2.1,0-2.6c0-0.5,0.1-0.6,0.2-0.7c0.1,0,0.1-0.1,0.1-0.1c0-0.1,0-0.2-0.1-0.2
			C77.8,62.7,77.3,62.9,77.2,63 M77.7,65.6l-0.9-1l0.9-0.4L77.7,65.6z"/>
		<path class="st1" d="M82.7,62.5c0,0.1,0.1,0.2,0.1,0.4c0,0.1,0,0.3-0.3,0.5c-0.1,0-0.2,0.1-0.4,0.2c0,0-0.8-1.3-1-1.6
			c-0.3-0.5-0.3-0.6-0.1-0.7c0,0,0.1-0.1,0.1-0.1c0-0.1-0.1-0.2-0.2-0.2c-0.4,0.3-0.9,0.6-1.3,0.8c0,0.1,0.1,0.2,0.1,0.2
			c0.1,0,0.1-0.1,0.2-0.1c0.3-0.1,0.4,0,0.6,0.4c0.1,0.2,0.1,0.2,1,1.6c-0.2,0.1-0.4,0.2-0.5,0.3c-0.3,0.1-0.4,0-0.5-0.1
			c-0.1-0.1-0.1-0.1-0.2-0.2c-0.1,0-0.2,0.1-0.2,0.2c0.1,0.1,0.4,0.6,0.5,0.8c1.1-0.6,1.7-1,2.7-1.6c0,0-0.3-0.7-0.3-0.8
			C82.9,62.4,82.8,62.4,82.7,62.5"/>
		<path class="st1" d="M74.5,66.4c0,0.1,0,0.2-0.1,0.4c0,0.1-0.1,0.3-0.4,0.4c-0.1,0-0.2,0.1-0.4,0.1c0,0-0.4-1.5-0.4-1.9
			c-0.1-0.5-0.1-0.6,0.2-0.7c0,0,0.1,0,0.1,0c0-0.1,0-0.2-0.1-0.3c-0.4,0.1-1,0.2-1.5,0.3c0,0.1,0,0.2,0,0.3c0.1,0,0.1,0,0.2,0
			c0.3,0,0.3,0.1,0.4,0.6c0.1,0.3,0.1,0.2,0.4,1.9c-0.2,0-0.5,0.1-0.6,0.1c-0.3,0-0.4-0.2-0.5-0.2c0-0.1-0.1-0.2-0.1-0.2
			c-0.1,0-0.2,0-0.3,0.1c0,0.1,0.2,0.7,0.2,0.9c1.2-0.2,1.9-0.4,3.1-0.7c0-0.1,0-0.8,0-0.9C74.7,66.3,74.5,66.3,74.5,66.4"/>
		<path class="st1" d="M91.9,34.6c0-0.1,0.2-0.1,0.3-0.1c0,0,0,0.1,0,0.2c0.1,0.2,0.2,0.3,0.7,0.2c0.4-0.1,1-0.2,1.3-0.2
			c0.4-0.1,0.6-0.1,0.6-0.4c0-0.1,0-0.1,0-0.2c0-0.1,0.2-0.1,0.3-0.1c0,0.2,0.1,0.7,0.2,1c0,0,0,0.1,0,0.1c-0.1,0-0.1,0.1-0.3,0.2
			c-0.1,0.1-0.5,0.5-0.9,1c-0.5,0.6-0.8,0.9-0.9,1.1c0.2,0,1.2-0.1,1.4-0.1c0.5,0,0.6-0.1,0.6-0.4c0,0,0-0.1,0-0.2
			c0.1-0.1,0.2-0.1,0.3,0c0,0.5,0.1,1,0.1,1.3c0,0.1-0.2,0.1-0.3,0c0,0,0-0.1,0-0.1c0-0.2-0.1-0.3-0.7-0.2c-0.4,0-2.1,0.1-2.3,0.1
			c-0.1,0-0.1-0.1-0.1-0.2c0.4-0.5,0.9-1.1,1.4-1.7c0.5-0.5,0.8-0.9,1-1.1c-0.2,0-1.3,0.2-1.6,0.3c-0.5,0.1-0.6,0.2-0.6,0.4
			c0,0.1,0,0.1,0,0.2c-0.1,0.1-0.2,0.1-0.3,0C92.1,35.6,92,34.8,91.9,34.6"/>
		<path class="st1" d="M91.2,47.6c0.1,0,0.2,0,0.3,0.1c0,0.1,0,0.1,0,0.1c-0.1,0.3,0,0.4,0.5,0.6c0.4,0.1,0.9,0.3,1.2,0.4
			c0.4,0.1,0.6,0.2,0.7-0.1c0-0.1,0-0.1,0-0.1c0.1,0,0.2,0,0.3,0.1c-0.2,0.7-0.6,1.7-1,2.7c-0.2-0.1-0.6-0.2-0.8-0.3
			c0-0.1,0-0.2,0.1-0.3c0.1,0,0.2,0,0.3,0c0.1,0,0.3,0,0.5-0.3c0.1-0.2,0.3-0.6,0.3-0.8c0-0.1,0-0.2-0.1-0.2c-0.1,0-0.8-0.3-0.9-0.3
			c-0.3,0.7-0.3,0.9-0.3,0.9c-0.1,0-0.2,0-0.3-0.1c0,0,0.3-0.9,0.3-0.9c0,0-0.5-0.2-0.6-0.2c-0.5-0.2-0.5-0.1-0.7,0.3
			c0,0.1-0.1,0.2-0.1,0.3c-0.1,0.3,0,0.5,0.2,0.7c0.1,0.1,0.1,0.1,0.2,0.1c0,0.1,0,0.2-0.2,0.3c-0.1-0.1-0.7-0.4-0.8-0.5
			C90.6,49.4,90.9,48.4,91.2,47.6"/>
		<path class="st1" d="M52.7,25.8l0.4-0.4c0,0,0-0.1,0-0.2l-2.9-3.9c0,0-0.1,0-0.1,0c0,0-0.1,0-0.1,0l-1.4,1.3c0,0,0,0.1,0,0.1
			c0,0,0,0.1,0,0.1l3.9,2.9C52.6,25.8,52.6,25.8,52.7,25.8"/>
		<path class="st1" d="M47.8,39.3l-3.1-0.4c0,0-0.1,0-0.1,0c0,0,0,0.1,0,0.1v1.4c0,0,0,0.1,0,0.1c0,0,0.1,0,0.1,0l3.1-0.4
			c0.1,0,0.1-0.1,0.1-0.1v-0.5C47.9,39.4,47.9,39.4,47.8,39.3"/>
		<path class="st1" d="M67.4,59.3h-0.5c-0.1,0-0.1,0-0.1,0.1l-0.4,2.4c0,0,0,0.1,0,0.1c0,0,0.1,0,0.1,0h1.3c0,0,0.1,0,0.1,0
			c0,0,0-0.1,0-0.1l-0.4-2.4C67.5,59.3,67.4,59.3,67.4,59.3"/>
		<path class="st1" d="M53.3,53.3c0,0-0.1,0-0.1,0l-1.7,1c0,0-0.1,0-0.1,0.1c0,0,0,0.1,0,0.1l0.9,0.9c0,0,0.1,0,0.1,0
			c0,0,0.1,0,0.1-0.1l1-1.7c0,0,0-0.1,0-0.1L53.3,53.3z"/>
		<path class="st1" d="M85,20.7C84.9,20.6,84.9,20.6,85,20.7c-0.1,0-0.2,0-0.2,0l-2.9,3.9c0,0,0,0.1,0,0.2l0.4,0.4c0,0,0.1,0,0.2,0
			l3.9-2.9c0,0,0-0.1,0-0.1c0,0,0-0.1,0-0.1L85,20.7z"/>
		<path class="st1" d="M90.1,38.9C90.1,38.9,90.1,38.9,90.1,38.9l-3.2,0.4c-0.1,0-0.1,0.1-0.1,0.1V40c0,0.1,0,0.1,0.1,0.1l3.1,0.4
			c0,0,0.1,0,0.1,0c0,0,0-0.1,0-0.1L90.1,38.9C90.2,39,90.2,39,90.1,38.9"/>
		<path class="st1" d="M82.5,54l-1.7-1c0,0-0.1,0-0.1,0l-0.3,0.3c0,0,0,0.1,0,0.1l1,1.7c0,0,0.1,0.1,0.1,0.1c0,0,0.1,0,0.1,0
			l0.9-0.9C82.5,54.1,82.5,54.1,82.5,54C82.5,54,82.5,54,82.5,54"/>
		<path class="st1" d="M68.2,13.3h-2.1c0,0-0.1,0-0.1,0c0,0,0,0.1,0,0.1l0.7,6.3c0,0.1,0.1,0.1,0.1,0.1h0.8c0.1,0,0.1,0,0.1-0.1
			l0.7-6.3C68.3,13.4,68.3,13.4,68.2,13.3C68.3,13.3,68.2,13.3,68.2,13.3"/>
		<path class="st1" d="M67.1,57.7c10,0,18.1-8,18.1-18c0-9.9-8.1-18-18.1-18c-10,0-18.1,8-18.1,18C49,49.7,57.1,57.7,67.1,57.7"/>
		<path class="st3" d="M48.6,39.7c0-10.2,8.3-18.4,18.5-18.4s18.5,8.2,18.5,18.4c0,10.2-8.3,18.4-18.5,18.4S48.6,49.9,48.6,39.7
			 M55.1,44.1c0,0,0.1,0,0.2,0l1.2,0.4c0,0,0,0,0.1,0l1.8,1.4c0,0,0,0,0.1,0.1l0.4,0.9c0,0,0,0.1,0.1,0.1l1.8,1c0,0,0.1,0.1,0.1,0.1
			l0.1,0.7c0,0,0,0.1,0,0.1l-0.9,1.6c0,0,0,0.1-0.1,0.1L59,51c0,0,0,0-0.1,0l-0.8,0.9l-0.7,0.8c0,0-0.1,0.1,0,0.2l0.1,0.2
			c0,0,0,0.1,0,0.1l-0.1,0.2c0,0.1,0,0.2,0.1,0.2l0.7,0.5c0.1,0,0.1,0.1,0.1,0.2c0,0-0.1,0.1-0.1,0.2c2.6,1.6,5.7,2.5,9,2.5
			c6.5,0,12.2-3.6,15.1-8.9l-0.9,0.5c-0.1,0-0.2,0-0.2,0c-0.1-0.1-0.1-0.1,0-0.2l2.1-4c0-0.1,0.1-0.1,0.2-0.1l0.1,0
			c0.1,0,0.2,0.1,0.2,0.2l0,0.7c0.6-1.7,0.8-3.5,0.8-5.4c0-3.4-1-6.5-2.6-9.2c-0.1,0.6-0.3,1.2-0.3,1.2c0,0,0,0.1,0,0.1l0.9,2.1
			c0,0,0,0,0,0l0.6,2.4c0,0.1,0,0.1,0,0.2l-0.2,0.3c0,0-0.1,0.1,0,0.1l0.4,2.7c0,0,0,0.1,0,0.1l-0.8,1.2c0,0,0,0.1,0,0.2l0.3,0.8
			c0,0.1,0,0.1,0,0.2l-0.5,0.6c-0.1,0.1-0.2,0.1-0.2,0.1L80.3,42c0,0-0.1,0-0.1,0c0,0-0.1,0-0.1,0.1l-0.3,0.5l-0.4,0.7
			c0,0,0,0,0,0.1l0,0.7c0,0,0,0.1,0,0.1L78.8,45c0,0.1-0.1,0.1-0.2,0.1c-0.1,0-0.1,0-0.2-0.1l-1.2-2.4c0,0-0.1-0.1-0.1-0.1L74.7,42
			c-0.1,0-0.1,0-0.2,0.1l-0.1,0.1l0,0.1c0,0.1,0,0.1,0,0.2l0.3,0.5l0,0c0,0.1,0.1,0.1,0.2,0.1l0.5-0.1c0,0,0.1,0,0.1,0l0.4,0.2
			c0,0,0.1,0.1,0.1,0.1c0,0.1,0,0.1,0,0.1l-0.7,0.9c0,0,0,0-0.1,0l-1.1,0.5c-0.1,0-0.2,0-0.2-0.1l-1.4-2c0,0-0.1-0.1-0.1-0.1
			c0,0-0.1,0-0.1,0l-0.1,0.1L72.1,43c-0.1,0.1-0.1,0.1,0,0.2l0.7,1.4l0.2,0.4c0,0,0,0.1,0.1,0.1l1.1,0.7c0,0,0.1,0,0.1,0l0.3-0.1
			c0.1,0,0.1,0,0.2,0.1c0,0.1,0,0.1,0,0.2l-1.3,2.1c0,0,0,0.1,0,0.1l0,1.3c0,0,0,0.1,0,0.1l-0.8,0.9c0,0,0,0.1,0,0.1l0,0.4
			c0,0,0,0.1,0,0.1l-1.1,1.5c0,0-0.1,0.1-0.1,0.1l-1.3,0.4c-0.1,0-0.2,0-0.2-0.1l-1.1-2.4c0,0,0-0.1,0-0.1l0.4-1.1c0,0,0-0.1,0-0.1
			l-0.8-1.7c0,0,0-0.1-0.1-0.1l-0.8-0.4L67,47c0,0-0.1,0-0.1,0l-1.7,0.2c-0.1,0-0.1,0-0.2-0.1l-1.1-1.4c0,0,0-0.1,0-0.1l0-1.6
			c0,0,0-0.1,0-0.1l1.8-2c0-0.1,0.2,0,0.2,0l0.4,0.1c0,0,0,0,0.1,0l1.8-0.4c0,0,0.1,0,0.1,0l1.3,0.8c0,0,0.1,0,0.1,0l0.7,0l1.1-0.1
			c0,0,0,0,0.1,0l0.6-0.3c0.1,0,0.1-0.1,0.1-0.2v-0.4c0-0.1-0.1-0.2-0.2-0.2l-0.9-0.1c0,0-0.1,0-0.1-0.1l-0.3-0.4
			c0,0-0.1-0.1-0.1-0.1l-0.4,0c0,0-0.1,0-0.1,0l-0.9-0.8c0,0-0.1,0-0.1,0c0,0-0.1,0-0.1,0.1l0,0c-0.1,0.1-0.1,0.2,0,0.2l0.6,0.6
			c0,0,0.1,0.1,0.1,0.1c0,0,0,0.1-0.1,0.1l-0.2,0.1c0,0-0.1,0.1-0.2,0c-0.1,0-0.1,0-0.1-0.1l-0.2-0.4c0,0,0,0,0,0l-0.6-0.6
			c0,0-0.1-0.1-0.2,0l-0.9,0.3c0,0-0.1,0-0.1,0.1l-0.4,0.8c0,0,0,0.1-0.1,0.1l-0.6,0.3c-0.1,0-0.1,0-0.2,0l-0.4-0.2
			c-0.1,0-0.1-0.1-0.1-0.2l0-0.9c0-0.1,0.1-0.2,0.1-0.2l0.8-0.1c0.1,0,0.1-0.1,0.1-0.2l0-0.7c0,0,0-0.1,0.1-0.1l1.4-1.3
			c0,0,0.1-0.1,0.1-0.1l0-0.6c0-0.1,0.1-0.1,0.2-0.2c0.1,0,0.2,0,0.2,0.1l0.1,0.3c0,0.1,0.1,0.1,0.2,0.1l0.9-0.1
			c0.1,0,0.1,0,0.1-0.1l0.6-1.1c0-0.1,0-0.1,0-0.2l-0.4-0.5c0,0-0.1-0.1,0-0.2l0.1-0.5c0-0.1,0-0.2-0.1-0.2l-0.1,0
			c-0.1,0-0.2,0-0.2,0.1l-0.2,0.8c0,0,0,0,0,0l0,0.9c0,0.1,0,0.1-0.1,0.2l-0.3,0.2c-0.1,0.1-0.2,0-0.2,0l-0.3-0.3
			c0,0-0.1-0.1-0.2-0.1l-0.5,0.1c0,0-0.1,0-0.1,0c0,0-0.1-0.1-0.1-0.1l-0.1-0.9c0-0.1,0-0.1,0.1-0.1l0.7-0.7c0,0,0,0,0-0.1l0.6-1.5
			c0,0,0.1-0.1,0.1-0.1l1.2-0.3c0,0,0.1,0,0.1,0l1,0.5c0.1,0,0.1,0.1,0.1,0.2l-0.1,0.5c0,0.1,0,0.2,0.1,0.2l0.1,0.1
			c0.1,0,0.1,0,0.2,0l0.7-0.7c0,0,0,0,0,0l1.7-1.1c0.1,0,0.1-0.1,0.1-0.2l-0.1-0.5c0-0.1,0-0.2,0.1-0.2l0.7-0.3
			c0.1,0,0.1-0.1,0.1-0.1l0.6-2.2c0-0.1,0.1-0.1,0.2-0.1l0.6,0.1c0,0,0.1,0,0.1,0.1l0.6,0.6c0,0,0.1,0.1,0.1,0l1.3-0.2
			c0,0,0.1,0,0.1-0.1l0.3-0.4c0,0,0.1-0.1,0.1-0.1c0,0,0.4-0.1,0.8-0.2c-3.2-3.5-7.7-5.7-12.8-5.7c-5.4,0-10.2,2.5-13.3,6.3
			c0.1,0.1,0.3,0.2,0.3,0.2c0,0,0.1,0.1,0.1,0.1l0.1,0.4c0,0,0,0.1,0,0.1l0.4,0.5l0.1,0.1c0,0.1,0.1,0.1,0.2,0.1
			c0.1,0,0.1-0.1,0.1-0.1l0.1-0.9c0-0.1,0.1-0.1,0.2-0.1l0.5,0c0.1,0,0.1,0,0.2,0.1l0.3,0.6c0,0.1,0,0.1,0,0.2l-0.5,0.9
			c0,0.1,0,0.1,0,0.2c0,0.1,0.1,0.1,0.2,0.1l0.5-0.1c0.1,0,0.1,0,0.1,0l0.2,0.2c0,0,0.1,0.1,0.2,0c0.1,0,0.1-0.1,0.1-0.1l0.2-0.6
			c0-0.1,0.1-0.1,0.1-0.1l0.7-0.2c0,0,0.1,0,0.1,0c0,0,0.1,0.1,0.1,0.1l0.6,2.5c0,0.1,0,0.1,0,0.2l-0.7,0.8c0,0-0.1,0.1-0.1,0.1
			c0,0-0.1,0-0.1-0.1l-0.5-0.5c-0.1-0.1-0.1-0.1,0-0.2l0.5-0.8c0-0.1,0-0.2,0-0.2l-0.1-0.1L57.8,32c0,0-0.1,0-0.1,0
			c0,0-0.1,0-0.1,0.1l-0.9,1.1c0,0,0,0,0,0L55.2,34c-0.1,0-0.1,0.1-0.1,0.2l0.3,0.6l0.4,0.9c0,0.1,0.1,0.1,0.2,0.1
			c0.1,0,0.1,0,0.2-0.1l0.9-1.5c0-0.1,0.1-0.1,0.1-0.1c0.1,0,0.1,0,0.2,0.1l1,1.3c0,0,0,0.1,0,0.1l0.2,2c0,0.1,0,0.1-0.1,0.2
			c-0.1,0-0.1,0-0.2,0l-0.6-0.3c0,0-0.1,0-0.2,0c-0.1,0-0.1,0.1-0.1,0.1l-0.2,0.8c0,0.1-0.1,0.1-0.1,0.1l-0.9,0.3c0,0-0.1,0-0.1,0.1
			l-1.7,2c-0.1,0.1-0.1,0.1-0.2,0l-0.7-0.4c-0.1,0-0.1,0-0.2,0l-0.4,0.2l-0.2,0.1c-0.1,0-0.1,0.1-0.1,0.2l0,0.5l0,0.4
			c0,0.1,0.1,0.2,0.1,0.2l0.5,0.1c0.1,0,0.1,0.1,0.1,0.1c0,0,0.3,1.2,0.3,1.3c0,0.1,0,0.1,0.1,0.1c0,0,0.5,0.6,0.5,0.7
			c0,0.1,0.1,0.1,0.2,0L55.1,44.1z M53.9,44.3c-0.2-0.1-0.2-0.2-0.3-0.3l-0.5-0.9c-0.1-0.1-0.2-0.2-0.2-0.3L52,42.1
			c-0.1,0-0.1-0.1-0.1-0.1l-0.8-4.5c0,0,0,0,0-0.1l1.2-5.4c0,0,0-0.1,0-0.1l-0.3-0.4c-1.4,2.5-2.1,5.3-2.1,8.3
			c0,5.4,2.5,10.2,6.4,13.4c-0.1-0.2-0.1-0.4-0.1-0.4c0,0,0,0,0,0L55.8,50c0,0,0,0,0,0l-0.4-1c0,0,0-0.1-0.1-0.1l-0.8-0.5
			c0,0-0.1-0.1-0.1-0.1c0,0-0.6-1.7-0.6-1.7c0,0,0-0.1,0-0.1l0.4-1.8c0-0.1,0-0.2-0.1-0.2L53.9,44.3z M82.3,43.8l0.5-0.7
			c0,0,0.1-0.1,0.1-0.1c0.1,0,0.1,0,0.1,0l0,0c0,0,0.1,0.1,0.1,0.2l-0.2,0.9c0,0.1,0,0.1-0.1,0.1l-0.3,0.1c0,0-0.1,0-0.2,0
			c-0.1,0-0.1-0.1-0.1-0.1l-0.1-0.3C82.2,43.9,82.2,43.8,82.3,43.8 M67.7,29.3c0-0.1,0-0.1,0.1-0.1l0.8-0.4c0.1,0,0.1,0,0.2,0
			c0.1,0,0.1,0.1,0.1,0.2l0,0.3c0,0,0,0.1,0,0.1l0.1,0.2c0,0,0,0.1,0,0.2c0,0-0.1,0.1-0.1,0.1L68.3,30c-0.1,0-0.1,0-0.2-0.1
			l-0.4-0.5C67.7,29.4,67.7,29.4,67.7,29.3 M65.7,36.4l0.2-0.1c0,0,0.1,0,0.1,0c0,0,0.1,0.1,0.1,0.1l0.6,1.3c0,0.1,0,0.2-0.1,0.2
			l-0.4,0.3c-0.1,0-0.1,0-0.2,0C66,38.2,66,38.1,66,38l0.1-0.6c0,0,0-0.1,0-0.1l-0.4-0.6C65.6,36.6,65.6,36.5,65.7,36.4 M58.4,29.4
			c-0.1,0.1-0.2,0-0.2,0L58,29.2c0,0-0.1-0.1,0-0.2l0.3-1.1c0-0.1,0.1-0.1,0.1-0.1l2-0.8c0,0,0.1,0,0.2,0l0.4,0.2
			c0.1,0,0.1,0.1,0.1,0.1c0,0.1,0,0.1-0.1,0.2L58.4,29.4z M61.6,34.1l-0.9,1.1c0,0.1-0.1,0.1-0.2,0.1c-0.1,0-0.1-0.1-0.1-0.1
			L60,33.4c0,0,0-0.1,0-0.1l0.3-0.7c0,0,0,0,0-0.1l0.3-2.1c0,0,0-0.1,0-0.1l-0.5-0.6c0,0-0.1-0.1,0-0.2l0.3-0.8c0,0,0-0.1,0.1-0.1
			l1.8-1.2c0,0,0,0,0.1,0l1.7-0.3c0,0,0.1,0,0.1,0l0.6,0.3c0.1,0,0.1,0.1,0.1,0.2l0,0.4c0,0.1,0,0.1,0.1,0.1l0.3,0.2
			c0.1,0,0.1,0.1,0.1,0.2l-0.4,0.9c0,0,0,0,0,0l-1.1,3.2c0,0,0,0.1-0.1,0.1L61.6,34.1C61.7,34,61.6,34,61.6,34.1 M63.5,34.5
			c0-0.1,0-0.1,0.1-0.1L64,34c0,0,0.1-0.1,0.2,0l0.4,0.1c0.1,0,0.1,0.1,0.1,0.1l0.1,0.4c0,0.1,0,0.2-0.1,0.2L64.3,35
			c-0.1,0-0.1,0-0.2,0l-0.5-0.4C63.5,34.6,63.5,34.5,63.5,34.5 M75,49.6l-0.5,1.4c0,0.1-0.1,0.1-0.1,0.1l-0.5,0.2
			c-0.1,0-0.1,0-0.2-0.1L73.5,51c0-0.1-0.1-0.1,0-0.2l0.9-1.6c0,0,0.1-0.1,0.1-0.1c0,0,0.1,0,0.1,0l0.2,0.2C75,49.4,75,49.5,75,49.6
			 M81,44.9l0-1.5c0-0.1,0.1-0.2,0.1-0.2l0.2,0c0,0,0.1,0,0.1,0c0,0,0.1,0.1,0.1,0.1l0.2,1.6c0,0.1,0,0.1-0.1,0.1c0,0-0.1,0.1-0.2,0
			l-0.3-0.1C81.1,45.1,81,45,81,44.9 M72.1,39.4l-0.4-0.1c-0.1,0-0.2,0-0.2,0.1l-0.2,0.5c0,0.1,0,0.1,0,0.2c0,0,0.1,0.1,0.2,0.1
			l1.1-0.1c0.1,0,0.1-0.1,0.2-0.1l0-0.2c0-0.1,0-0.2-0.1-0.2L72.1,39.4z M74.6,39.3C74.6,39.3,74.6,39.3,74.6,39.3L74.6,39.3
			L74.6,39.3L74.6,39.3C74.6,39.3,74.6,39.3,74.6,39.3L74.6,39.3l0-0.5c0-0.1,0-0.1-0.1-0.1c-0.1,0-0.1,0-0.2,0l-0.4,0.3
			c-0.1,0-0.1,0.1-0.1,0.2l0.3,1l0.1,0.4c0,0.1,0.1,0.1,0.2,0.1l0.6-0.1c0.1,0,0.1,0,0.1-0.1c0,0,0-0.1,0-0.2L74.6,39.3L74.6,39.3z"
			/>
	</g>
</g>
<g id="HUM">
</g>
<g id="JURA">
</g>
<g id="SCI">
</g>
<g id="KU">
</g>
</svg>
