<svg xmlns="http://www.w3.org/2000/svg" viewBox="0 0 109 148"><style>.st1{fill:#fff}.st2{fill:#901a1e}</style><g id="SUND"><path class="st2" d="M107 39.8c0 21.9-17.8 39.8-39.7 39.8-22 0-39.7-17.8-39.7-39.8C27.6 17.8 45.3 0 67.3 0 89.2 0 107 17.8 107 39.8M37.7 97.8c0 10.4-8.4 18.8-18.8 18.8S0 108.2 0 97.8 8.5 79 18.9 79c10.4-.1 18.8 8.4 18.8 18.8M77.1 138.2c0 5.4-4.4 9.8-9.8 9.8s-9.8-4.4-9.8-9.8 4.4-9.8 9.8-9.8c5.4-.1 9.8 4.3 9.8 9.8"/><path class="st1" d="M84.4 58.6c.1 0 .2.1.2.2l-.1.1c-.2.2-.2.3.2.7.2.3.7.8.9 1 .2.2.4.5.7.3.1 0 .1-.1.1-.1.1 0 .2.1.2.2-.4.4-.9.8-1.2 1.1-.1 0-.2-.1-.2-.2l.1-.1c.2-.2.1-.5-.1-.7-.3-.4-.7-.8-.9-1-.3-.4-.4-.4-.7-.3l-.1.1c-.1 0-.2-.1-.2-.2.4-.5.8-.8 1.1-1.1m-14.5 6.5c-.4 0-1 .1-1.6.1-.1.1 0 .2 0 .3h.2c.3 0 .3.2.4.6 0 .3.1.8.1 1.3 0 .3 0 .6-.3.7h-.1c-.1.1-.1.2 0 .3.4 0 1.1-.1 1.6-.1V68H70c-.3 0-.3-.3-.4-.6 0-.3-.1-.9-.1-1.3-.1-.6 0-.6.3-.7h.2c0-.1-.1-.2-.1-.3m-25-12.8c-.2-.4-.5-.8-.7-1.4-.1 0-.2.1-.3.1 0 .1.1.1.1.2.1.3 0 .4-.4.6-.2.1-.7.4-1.2.6-.3.2-.6.3-.7 0 0 0 0-.1-.1-.1s-.2 0-.2.1c.2.4.5.9.8 1.5.1 0 .2-.1.2-.1 0-.1 0-.1-.1-.1-.1-.3.2-.5.4-.6.2-.1.8-.5 1.2-.6.5-.3.6-.2.8 0l.1.1c-.1-.2.1-.2.1-.3m-3-16.3c.1-.4.1-.9.3-1.6 0-.1-.2-.1-.3-.1 0 .1 0 .1-.1.2-.1.3-.2.3-.7.2-.3-.1-.8-.2-1.3-.2-.3-.1-.6-.1-.6-.5v-.1c0-.1-.2-.1-.3-.1-.1.4-.2 1-.3 1.6 0 .1.2.1.3 0v-.1c.1-.3.4-.2.7-.2.3 0 .9.2 1.3.2.6.1.6.2.6.5v.2h.4m50.8 3.7v1.6c.1.1.2.1.3 0v-.2c.1-.3.2-.3.7-.3H95c.3 0 .6 0 .6.4v.1c0 .1.2.1.3 0v-1.6c0-.1-.2-.1-.3 0v.2c0 .4-.4.3-.7.3h-1.3c-.6 0-.6-.1-.7-.4v-.2s-.1 0-.2.1m-5.5 16.1s-.4.1-.9.6-.5 1.2-.1 1.6c.5.4 1 .2 1.4 0 .5-.2.7-.3.9-.1.1.1.3.4 0 .8-.4.4-.8.1-.9.1-.1 0-.2.1-.2.2.1.1.5.4.6.5.1-.1.4-.3.7-.6.7-.8.2-1.4-.1-1.6-.3-.1-.6-.2-1.2.1-.5.2-.8.3-1 0-.2-.2-.2-.4 0-.8.4-.5.8-.2 1.1-.1.1-.1.2-.2.2-.3 0-.1-.2-.3-.5-.4m-20.8 9.6s-.3-.2-1-.3c-.7-.1-1.2.3-1.2.9 0 .6.5.9.9 1.1.5.2.7.4.7.6 0 .2-.1.5-.7.5-.6-.1-.6-.6-.6-.6-.1-.1-.2-.1-.3 0v.8c.2 0 .4.1.9.2 1.1.1 1.2-.7 1.2-1 0-.3-.2-.5-.9-.9-.5-.2-.7-.4-.6-.8 0-.2.2-.4.6-.4.6 0 .7.5.8.8h.3c0-.3 0-.5-.1-.9M41.5 39.9s.2-.3.3-1c0-.7-.4-1.2-1-1.2s-.9.5-1.1.9c-.2.5-.4.7-.6.7-.2 0-.5-.1-.5-.6 0-.6.6-.6.6-.6.1-.1.1-.2 0-.3-.2 0-.7 0-.8.1 0 .2-.1.4-.1.9-.1 1.1.7 1.2 1.1 1.1.3-.1.5-.2.9-.9.2-.5.4-.7.8-.7.2 0 .5.2.4.6 0 .6-.5.7-.8.8v.3c.2 0 .4 0 .8-.1m1-7.3s.3-.3.5-.9c.2-.7-.1-1.3-.6-1.4-.6-.2-1 .2-1.3.6-.3.4-.5.6-.8.5-.2 0-.5-.2-.3-.7.2-.6.7-.4.8-.4.1-.1.1-.2.1-.3-.2-.1-.7-.2-.8-.1-.1.1-.2.4-.4.9-.3 1 .4 1.4.8 1.4.3 0 .6-.1 1.1-.6.3-.4.6-.6.9-.4.2.1.4.3.3.7-.2.6-.7.6-1 .6-.1.1-.1.2-.1.3.1-.3.4-.2.8-.2m49.4-1.2c.9-.7.9-.8 1.6-1.3.2-.2.3-.3.5 0 0 .1 0 .1.1.1s.2 0 .3-.1c-.2-.5-.3-.9-.6-1.5-.1 0-.2 0-.3.1 0 0 0 .1.1.2.1.3 0 .4-.3.6-.2.1-2 1.7-2.1 1.7v.1s.2.3.3.4c.8 0 2.1.1 2.6.2.5 0 .6.1.6.3v.2c.1 0 .2 0 .3-.1-.1-.4-.2-.9-.4-1.2-.1-.1-.2 0-.3.1v.1c0 .2 0 .3-.4.3-.5-.1-1.3-.1-2-.2m.9 13.3c1.1-.2 1.2-.2 2-.3.3 0 .4-.1.4.2v.1c.1.1.2.1.3 0 .1-.5.2-1 .2-1.5-.1-.1-.2-.1-.3 0v.2c-.1.2-.2.3-.6.4-.2 0-2.6.4-2.7.5-.1 0-.1.1-.1.1s.1.4.1.5c.7.4 1.8 1.1 2.2 1.4.4.3.5.4.4.5v.2c0 .1.2.1.3.1.1-.4.2-.9.3-1.3 0-.1-.2-.1-.3-.1v.1c-.1.2-.1.3-.5.1-.5-.5-1.1-.9-1.7-1.2m-.9 9.2c-.1.2-.2.3-.3.5-.1.1-.2.3-.4.3s-.4 0-.5-.1c-.1-.1-.2-.1-.3-.3-.1-.2 0-.4.1-.6l-.1-.1c-.3 0-1.6.2-1.9.3-.2.3-.5.7-.5.8 0 .1.1.2.2.2 0-.1.1-.1.1-.1.2-.2.3-.2.6-.3.4-.1.8-.1 1.1-.1-.1.4-.1.8.3 1 .6.4 1.1 0 1.3-.3.1-.1.2-.3.3-.4.1-.1.3-.6.8-1.4 0-.1-.2-.2-.2-.1 0 0 0 .1-.1.1-.2.3-.2.2-.7 0-.2-.1-.9-.5-1.2-.6-.5-.3-.5-.3-.4-.6 0 0 0-.1.1-.1 0-.1-.2-.1-.2-.1-.2.4-.5.9-.7 1.3 0 .1.2.2.2.1l.1-.1c.2-.2.3-.2.7 0 .1-.1 1 .4 1.6.7m-14.4 9.2c.1-.1.7-.3 1-.5.1 0 .2.2.1.2 0 0-.1 0-.1.1-.1.1-.2.2-.2.7v2.6l-.3.3h-.1s-1.7-1.8-1.8-2c-.1-.1-.4-.4-.6-.4-.1 0-.1 0-.2.1-.1 0-.1-.2-.1-.3.6-.2 1.1-.4 1.3-.5.1 0 .1.2.1.3h-.1c-.2.1-.1.3.1.4l.3.3c.1-.1.9-.4 1.1-.5v-.3c0-.3 0-.4-.3-.4h-.1c0 .1-.1 0-.1-.1m.6 2.6v-1.4l-.9.4.9 1m-24-4c.2.1.6.4 1 .6 0 .1 0 .2-.1.2 0 0-.1 0-.1-.1-.2 0-.3-.1-.7.2-.4.3-2 1.4-2.1 1.5-.1 0-.4-.1-.4-.1v-.1c0-.1.5-2.4.6-2.7 0-.1.1-.5-.1-.7-.1 0-.1-.1-.1-.1 0-.1.1-.2.2-.2.5.4.9.7 1.1.8 0 .1-.1.2-.2.2l-.1-.1c-.2-.1-.3.1-.3.3-.1.2-.1.2-.1.4.1.1.9.6 1 .6.1 0 .1-.1.3-.2.3-.2.3-.3.1-.4-.1 0-.1 0-.1-.1-.1.1-.1 0 .1 0m-1.9 1.9l1.2-.9-.8-.5-.4 1.4m31-1.1c0 .1.1.2.1.4 0 .1 0 .3-.3.5-.1 0-.2.1-.4.2 0 0-.8-1.3-1-1.6-.3-.5-.3-.6-.1-.7l.1-.1c0-.1-.1-.2-.2-.2-.4.3-.9.6-1.3.8 0 .1.1.2.1.2.1 0 .1-.1.2-.1.3-.1.4 0 .6.4.1.2.1.2 1 1.6-.2.1-.4.2-.5.3-.3.1-.4 0-.5-.1l-.2-.2c-.1 0-.2.1-.2.2.1.1.4.6.5.8 1.1-.6 1.7-1 2.7-1.7 0-.1-.3-.7-.3-.8-.2 0-.3.1-.3.1m-8.3 4v.4c0 .1-.1.3-.5.4-.1 0-.2.1-.4.1 0 0-.4-1.5-.5-1.9-.1-.5-.1-.6.2-.7h.1c0-.1 0-.2-.1-.3-.4.1-1 .2-1.5.3v.3h.2c.3 0 .3.1.5.6.1.3.1.2.4 1.9-.2.1-.5.1-.6.1-.3 0-.4-.2-.5-.2 0-.1-.1-.2-.1-.2-.1 0-.2 0-.3.1 0 .1.2.7.2.9 1.2-.2 2-.4 3.1-.7v-.9c0-.3-.2-.2-.2-.2m17.2-32.2c.1.3.2 1 .2 1.3.1.1.2 0 .3 0v-.2c0-.2.1-.3.6-.4.3-.1 1.4-.3 1.6-.3-.2.3-.5.6-1 1.1-.5.6-1 1.2-1.4 1.7 0 .1.1.2.1.2.2 0 1.9-.1 2.3-.2.5 0 .6 0 .7.2v.1c.1.1.2.1.3 0 0-.3-.1-.9-.1-1.3-.1-.1-.2 0-.3 0v.2c0 .3-.1.4-.6.4-.2 0-1.2.1-1.4.1.1-.1.4-.5.9-1.1.5-.5.8-.9.9-1 .1-.1.2-.2.3-.2 0-.1 0-.1-.1-.1 0-.3-.1-.8-.2-1-.1 0-.2 0-.3.1v.2c0 .3-.2.3-.6.4-.4.1-.9.2-1.3.2-.5.1-.7 0-.7-.2v-.2c0-.2-.1-.1-.2 0M58.3 63.7c-.1 0-.1.2-.1.3.1 0 .1 0 .2.1.2.1.2.3.1.7 0 .1-.1.3-.2.5 0 0-.5-.2-.8-.3-.4-.1-.8-.3-.8-.3.1-.2.2-.4.2-.5.2-.5.3-.6.6-.5h.1c.1 0 .1-.2.1-.3-.5-.2-1-.4-1.4-.6-.1 0-.2.2-.1.3.1 0 .1.1.1.1.2.2.2.3 0 .7l-.6 1.2c-.1.3-.3.6-.6.5 0 0-.1 0-.1-.1-.1 0-.1.2-.1.3.3.2.9.4 1.5.6.1 0 .1-.2.1-.3 0 0-.1 0-.1-.1-.3-.1-.2-.4-.1-.7 0-.1.1-.3.2-.5 0 0 .5.2.8.3.3.1.8.3.8.3 0 .2-.1.3-.2.5-.1.3-.2.6-.6.5h-.1c-.1.1-.1.2-.1.3.4.1 1 .4 1.5.5.1 0 .1-.2.1-.3h-.1c-.3-.1-.2-.4-.1-.7.1-.2.3-.9.4-1.3.2-.5.2-.6.5-.5h.1c.1 0 .1-.2.1-.3-.3 0-.8-.2-1.3-.4m33.2-16.3c-.2.8-.6 1.8-.9 2.5.1.1.7.5.8.5.1 0 .2-.2.2-.3 0 0-.1-.1-.2-.1-.2-.2-.3-.4-.2-.7 0-.1.1-.2.1-.3.1-.3.2-.5.7-.3.1 0 .6.2.6.2l-.3.9c.1.1.2.1.3.1 0 0 .1-.2.3-.9.1 0 .8.3.9.3.1 0 .1.1.1.2s-.2.5-.3.8c-.1.3-.3.3-.5.3h-.3c-.1.1-.1.2-.1.3.2.1.6.2.8.3.4-1 .8-2 1-2.7 0-.1-.2-.1-.3-.1v.1c-.1.3-.4.2-.7.1-.3-.1-.8-.3-1.3-.4-.6-.2-.6-.3-.5-.6v-.1c0-.1-.1-.1-.2-.1m-48 2c-.3-.8-.7-1.8-.9-2.5-.2 0-.8.1-.9.1-.1.1 0 .3 0 .3h.2c.3 0 .5.1.6.4 0 .1.1.2.1.3.1.4.1.5-.3.6-.1 0-.6.2-.6.2l-.3-.9c-.1 0-.2 0-.3.1 0 0 0 .2.3.9-.1 0-.8.3-.9.3-.1 0-.1 0-.2-.1s-.2-.5-.3-.8c-.1-.3.1-.4.2-.5.1-.1.2-.1.2-.2s0-.2-.1-.3c-.2.1-.6.2-.8.3.3 1.1.7 2.1.9 2.7.1 0 .2 0 .3-.1v-.1c-.1-.3.1-.4.5-.5.3-.1.8-.3 1.2-.5.6-.2.7-.1.8.1l.1.1c0 .2.2.2.2.1m4.5 7.3c-.2-.2-.6-.7-.8-1-.1 0-.2.1-.2.2 0 0 0 .1.1.1.1.2.1.3-.3.7-.3.2-1.1.9-1.3 1.1.1-.3.2-.8.3-1.5.1-.7.3-1.5.4-2.1-.1-.2-.2-.2-.2-.2-.1.1-1.6 1.1-1.9 1.3-.5.3-.5.3-.7.1l-.1-.1c-.1 0-.2.1-.2.2.2.3.5.7.8 1.1.1 0 .2-.1.2-.2l-.1-.1c-.2-.3-.1-.4.3-.7.2-.1 1-.6 1.2-.8 0 .2-.1.6-.2 1.4-.2.7-.3 1.2-.3 1.4 0 .2-.1.2-.1.3l.1.1c.2.2.5.6.6.8.1 0 .2-.1.2-.2s-.1-.1-.1-.1c-.2-.3 0-.4.3-.6.3-.2.7-.6 1-.9.4-.3.6-.4.7-.2l.1.1c.1-.1.2-.1.2-.2m-5.8-11.5c-.1-.3-.2-1-.2-1.3-.1-.1-.2 0-.3 0v.2c0 .2-.1.3-.6.4-.3.1-1.4.3-1.6.3.2-.3.5-.6 1-1.1.5-.6 1-1.2 1.4-1.7 0-.1-.1-.2-.1-.2-.2 0-1.9.1-2.3.2-.6 0-.6 0-.7-.2v-.1c-.1-.1-.2-.1-.3 0 0 .3.1.9.1 1.3.1.1.2 0 .3 0v-.2c0-.3.1-.4.6-.4.2 0 1.2-.1 1.4-.1-.1.1-.4.5-.9 1.1-.5.5-.8.9-.9 1.1l-.2.2v.1c0 .3.1.8.2 1 .1 0 .2 0 .3-.1v-.2c0-.3.2-.3.6-.4.4-.1.9-.2 1.3-.3.5-.1.7 0 .7.2v.2c0 .2.1.1.2 0m7.3 13.4l.1.1c.2.2.3.4 0 .7l-.4.4c-.3-.2-.4-.4-.7-.6-.1 0-.2.1-.2.2.3.2.4.4.7.6-.1.1-.6.7-.7.8-.1.1-.1.1-.2 0s-.3-.2-.5-.5c-.3-.4 0-.9.1-1.1 0-.1-.1-.2-.3-.2-.2.2-.5.7-.7.9.9.9 1.4 1.4 2.1 1.9.1 0 .2-.1.2-.2l-.1-.1c-.2-.2-.1-.4.2-.7.2-.2.5-.6.9-1 .4-.5.5-.4.7-.3l.1.1c.1 0 .2-.1.2-.2-.4-.3-.9-.7-1.2-1.1-.2.1-.2.2-.3.3M36.4 32.1c.3-1.3.8-2.9 1.3-4-.2-.2-1.2-.7-1.3-.8-.2.1-.3.3-.3.4.1 0 .1.1.3.2.4.3.5.6.4 1.1 0 .1-.1.3-.2.5-.2.6-.3.7-1 .5-.1 0-1-.3-1-.3l.5-1.4c-.1-.1-.3-.2-.5-.2 0 0-.1.3-.5 1.4-.2 0-1.3-.4-1.4-.4-.1-.1-.2-.1-.2-.3.1-.2.2-.8.4-1.2.2-.4.5-.5.7-.5h.5c.1-.1.2-.3.1-.5-.3-.1-1-.3-1.4-.3-.6 1.6-1.2 3.3-1.4 4.4.1.1.3.2.4.1 0-.1 0-.1.1-.2.2-.5.5-.4 1.1-.2.5.2 1.4.4 2 .6.9.2 1 .5.9.9v.2c.2 0 .4.1.5 0m15.1-19.7c.7-.4 1.4-1.1 1.5-1.2-.2-.4-.4-1-.6-1.4-.1 0-.4.1-.4.2.1.2.2.6.1.9-.1.4-.4.8-.8 1.1-.4.2-1.7.8-2.7-.8-1.1-1.6-.1-2.7.4-3.1.5-.3 1-.3 1.3-.2.4.1.6.3.7.4.1 0 .3-.2.4-.3-.3-.4-.6-.8-.8-1.2-.2.1-1.2.4-1.9.8-.8.5-1.6 1.3-1.6 2.5 0 .9.6 2 1.6 2.4 1.1.7 2.1.3 2.8-.1m4.4-7.7c.8-.3 1.3-.4 2.1-.6.9-.2 2-.5 3-.6.2.4.4 1 .5 1.3 0 .1-.2.3-.5.2-.1-.2-.2-.3-.3-.4-.1-.1-.3-.4-.9-.3-.5.1-.8.2-1 .2-.1 0-.2 0-.2.2.1.3.5 1.3.6 1.5.3-.1 1.2-.3 1.4-.3.1.2.2.4.2.5-.2 0-1.2.3-1.4.3.1.2.3.8.4 1.1.2.5.3.7.8.6.4-.1.5-.1.7-.1.4-.3.6-.5.7-1.1v-.3c.1-.1.4-.2.5 0 0 .2.1.9.1 1.6-1.7.3-2.7.5-4.1.9-.1 0-.2-.3-.1-.4.1 0 .3-.1.3-.1.1-.1.3-.2.2-.6l-.3-.9c-.2 0-1.5.4-1.7.5 0 .2-.1.9-.1 1.2 0 .2.1.4.2.4s.2 0 .3-.1c.2.1.2.3.1.4-.7.2-1.4.5-1.8.6-.1 0-.3-.3-.2-.4.1 0 .2-.1.3-.1.1-.1.3-.1.4-.6.1-.5.4-3.3.4-3.4 0-.3 0-.4-.1-.5 0-.4-.2-.4-.4-.3-.1-.1-.2-.3-.1-.4m1.6 0c-.1 0-.2.1-.2.2 0 .2-.2 1.7-.3 2.2.2 0 1.1-.3 1.4-.4-.1-.3-.6-1.6-.7-1.8 0-.1-.1-.2-.2-.2M44.6 17.5c.5-.5 1.1-1.1 1.9-1.7 0-.1-.2-.3-.3-.3-.1.1-.2.1-.2.2-.4.2-.6.1-1.1-.4-.3-.3-.9-1-1.4-1.6-.4-.4-.6-.8-.3-1.2l.2-.2c0-.1-.2-.3-.3-.3-.5.5-1.3 1.2-2 1.8 0 .1.2.3.3.3l.2-.2c.4-.4.8.1 1.1.4l1.5 1.5c.6.7.6.8.4 1.2 0 .1-.1.1-.2.2s.1.3.2.3M35.4 22c-.2 0-.4-.1-.4-.3.5-1 .9-1.5 1.2-2 .7-1 2.1-2.9 4.2-1.3 1.6 1.2 1 2.8.3 3.9l-.7 1.1-.6 1c-.2.1-.3 0-.4-.2l.1-.2c.2-.4.2-.5-.5-.8L36.5 22c-.7-.4-.9-.3-1-.2 0 0-.1.1-.1.2m1.1-1.7c-.1.2 0 .3.1.3s2.5 1.6 2.5 1.6c.3.2.6.3.8.3.2 0 .3-.2.5-.5.2-.4.3-.8.3-1.1 0-.6-.2-1.1-1.1-1.7-1.1-.7-2.2-.3-2.9.8-.1.1-.2.2-.2.3m-1.4 20.3v.3c0 .5-.5.4-1.1.4-.5 0-2-.1-2.7-.1.3-.1 2.1-.9 2.8-1.2.7-.3 1.2-.5 1.4-.6.1-.1.1-.2 0-.3-.3-.1-.5-.2-1.3-.7-.8-.4-2.3-1.1-2.8-1.4h2.9c.8 0 .8.2.9.4v.2c.1.1.3.1.4 0 0-.7.1-1 .2-2.3-.1-.1-.3-.1-.4-.1 0 .1 0 .1-.1.3-.1.4-.4.4-1.1.4h-2.5c-.7 0-.7-.2-.7-.5v-.2c-.1-.1-.3-.2-.4-.1-.1.6-.2 1.4-.2 2 .4.1.8.3 1.1.4.1.1 2.2 1.1 2.6 1.3-.7.4-2.2 1-2.8 1.3-.4.2-.7.3-1 .2 0 .8 0 1.3.1 2 .1.1.3.1.4 0v-.2c0-.6.5-.5 1-.5.3 0 1.8.1 2.3.2.8.1.9.3.9.6v.2c.2.1.4.1.4-.1-.1-.7-.1-1.2-.1-2 .1 0-.1 0-.2.1m63.3-5.7c.7.1 1.2.1 1.6.1.2-.2.1-.4 0-.4s-.3 0-.4-.1c-.1 0-.5-.1-.6-.3-.2-.2-.3-.5-.3-.7 0-.2-.1-.5-.1-.5 0-.5.1-.5.9-.7.6-.2 1.4-.3 2.1-.5.5-.1 1-.3 1.1.3 0 0 0 .1.1.2s.4 0 .4-.1c-.1-.6-.3-1.5-.6-2.4-.1-.1-.4 0-.4.1v.2c.1.6-.5.6-.9.7-.4.1-1.5.4-2.1.5-.8.2-1 .2-1.2-.2 0-.1 0-.1-.1-.2-.1 0-.3 0-.4.1.2.5.7 2.3.9 3.9m-9.8-19.5c.1-.1.1-.2.3-.4.3-.4.4-.3.6-.2.1 0 .1.1.2.1s.3-.3.3-.4c-.5-.3-1.2-.9-1.8-1.4-.2 0-.3.2-.3.3l.3.3c.3.3.2.3 0 .7-.1.2-.2.2-.3.3-.2.2-.4.3-.7.1-.1-.1-.2-.1-.4-.3-.3-.3-1.2-1.2-.2-2.8 1.1-1.6 2.5-1.2 3-.8.5.4.6.7.7 1.1 0 .4-.1.7-.2.9 0 .1.3.2.4.2.3-.5.5-.8.8-1.2-.1-.2-.4-.6-1.4-1.3-.8-.6-1.9-1.1-3-.6-.9.3-1.6 1.3-1.7 2.4-.1 1.3.6 2 1.3 2.5.7.6 1.4.9 1.8 1.1.1-.3.2-.4.3-.6M72.1 71.9c.8 1.5 1 1.7 1.6 2.9.2.4.3.6-.1.7-.1 0-.2 0-.2.1-.1.1 0 .4.1.4.8-.1 1.6-.3 2.4-.5.1-.1 0-.4-.1-.4h-.3c-.4 0-.6-.1-.9-.7-.2-.3-2-3.7-2.1-3.7 0-.1-.1-.1-.2 0 0 0-.5.3-.7.4-.3 1.3-.8 3.2-1 4-.2.8-.4.9-.6.9h-.3c-.1.1-.1.4 0 .4.6 0 1.5-.1 2-.2.1-.1.1-.4 0-.4h-.2c-.3 0-.5 0-.3-.7.3-1 .6-2.2.9-3.2M99.6 40c1.6-.6 1.8-.7 3.1-1.1.5-.2.7-.2.7.2v.2c.1.1.4.1.4 0 0-.8 0-1.6-.1-2.5-.1-.1-.4 0-.4 0v.3c-.1.4-.2.5-.8.8-.3.1-4 1.5-4 1.5-.1 0-.1.1-.1.2 0 0 .2.5.3.8 1.3.5 3.1 1.3 3.8 1.6.7.3.8.5.8.7v.3c.1.1.3.2.4 0 .1-.6.1-1.5.1-2-.1-.1-.3-.1-.4 0v.2c0 .3-.1.4-.7.2-.9-.5-2.1-1-3.1-1.4M62.4 71c-.3.6-.4 1.1-.5 1.5.1.2.3.2.4.1 0-.1.1-.3.2-.4.1-.1.3-.4.5-.5.2-.1.6-.1.8-.1.2 0 .5.1.5.1.4.1.4.3.4 1 0 .6-.1 1.4-.1 2.1 0 .5-.1 1-.6 1h-.2c-.1.1-.1.4 0 .4.6.1 1.5.1 2.5.2.1-.1.1-.3 0-.4h-.2c-.6-.1-.5-.6-.4-1.1 0-.4.1-1.6.1-2.2.1-.9.1-1 .6-1h.2c.1-.1.1-.3 0-.4-.8 0-2.6-.1-4.2-.3m36-23.9l.1-.3c.1-.4.6-.3 1.1-.1.5.1 1.9.6 2.5.8-.4 0-2.3.3-3 .4-.8.1-1.3.2-1.5.2-.1.1-.1.2-.1.3.2.2.5.4 1.1 1 .6.6 1.9 1.7 2.3 2.1-.4-.1-2.1-.5-2.8-.7-.8-.2-.8-.4-.7-.6 0 0 0-.1.1-.2-.1-.1-.3-.2-.4-.1-.2.6-.3 1-.8 2.1 0 .1.3.2.4.2.1-.1.1-.1.1-.3.2-.3.5-.2 1.2-.1.6.1 1.7.4 2.4.7.6.2.6.4.5.7 0 .1 0 .1-.1.2.1.2.3.2.4.2.2-.6.5-1.3.7-1.8-.3-.2-.7-.4-.9-.7-.1-.1-1.9-1.6-2.2-1.9.7-.2 2.4-.4 3-.5.5-.1.8-.1 1 0 .2-.7.3-1.2.4-1.9-.1-.1-.3-.2-.4-.1 0 .1 0 .1-.1.2-.1.6-.6.4-1.1.3-.3-.1-1.7-.6-2.2-.8-.8-.3-.8-.5-.8-.8v-.2c-.1-.2-.3-.2-.4-.1-.1.7-.2 1.1-.4 2 .2-.2.4-.1.6-.2M68 5.4c0-.5-.4-.8-.8-.8-.5 0-.8.4-.8.8 0 .5.4.8.8.8.4.1.8-.3.8-.8M58.7 74c-.1.1-.2.3-.4.5-.2.1-.4.3-.9.1-.1 0-.4-.1-.7-.2 0 0 .7-2.4.9-2.9.3-.8.4-.9.8-.9h.2c.1-.1.1-.3.1-.4-.7-.2-1.6-.5-2.4-.7-.1.1-.2.3-.2.4.1 0 .2.1.2.1.4.2.4.4.2 1.2-.1.4-.1.4-1 2.9-.4-.1-.7-.2-.9-.3-.4-.2-.4-.6-.4-.7 0-.1 0-.3.1-.4-.1-.1-.4-.2-.4-.1-.1.2-.3 1.2-.4 1.4 1.9.7 3 1.1 4.8 1.5 0-.1.6-1.1.7-1.2 0-.2-.2-.3-.3-.3m-14.6-7.5c-.1.1-.3.2-.5.3-.2 0-.5 0-.9-.3l-.5-.5s1.7-1.8 2.1-2.2c.6-.6.8-.7 1.1-.4 0 0 .1.1.2.1s.3-.2.3-.3c-.5-.5-1.2-1.2-1.8-1.7-.1 0-.3.2-.3.3.1.1.1.2.2.2.3.4.1.6-.4 1.1l-2.2 2.2c-.3-.3-.5-.6-.7-.7-.3-.4-.1-.7-.1-.8.1-.1.1-.2.2-.4 0-.2-.2-.3-.3-.3-.2.2-.8.9-1 1.1 1.4 1.6 2.2 2.3 3.6 3.6.1 0 1.1-.7 1.2-.8.1-.3-.1-.5-.2-.5m47.7-6.2l.2-.2c.3-.3.5-.5 1.1 0 .1.1.6.5.7.6-.4.5-.6.7-.9 1.1.1.2.2.3.4.4.4-.4.5-.6.9-1.1.1.1 1.2.9 1.3 1 .1.1.2.2 0 .4-.1.2-.3.5-.7.8-.6.6-1.5 0-1.7-.1-.2.1-.3.2-.3.4.4.3 1.1.8 1.5 1 1.3-1.5 2-2.4 2.8-3.5 0-.1-.2-.3-.3-.3l-.1.1c-.4.4-.7.2-1.2-.2-.3-.2-1-.8-1.7-1.3-.8-.6-.7-.7-.5-1.1 0-.1 0-.1.1-.1-.1-.1-.3-.3-.4-.3-.5.7-1.1 1.5-1.6 2.1.1.1.2.2.4.3M79 10.4c.7.3 1.4.6 2.3 1.1.1 0 .2-.3.2-.4-.1-.1-.2-.1-.2-.1-.4-.3-.3-.5 0-1.2.2-.4.6-1.2.9-1.9.2-.5.4-.9 1-.7 0 0 .1 0 .2.1.1 0 .3-.3.2-.4-.7-.5-1.6-.9-2.5-1.3-.1 0-.2.3-.2.4.1 0 .1.1.2.1.5.3.2.7 0 1.2-.2.4-.6 1.4-.8 2-.4.8-.5.9-.9.8-.1 0-.2 0-.3-.1 0 0-.1.2-.1.4M41.5 58.2c-.4-.6-.9-1.3-1.4-2.1-.1 0-.4.1-.4.2.1.1.1.2.1.3.2.4 0 .6-.6 1-.4.2-1.1.7-1.8 1.1-.5.3-.9.5-1.2.1 0 0-.1-.1-.1-.2-.1 0-.4.1-.4.2.4.6.9 1.5 1.5 2.2.1 0 .3-.1.3-.3 0-.1-.1-.1-.1-.2-.3-.5.2-.7.6-1 .4-.3 1.3-.9 1.7-1.2.8-.5.9-.5 1.2-.1l.2.2c.1 0 .3-.1.4-.2m54.9-30.5c.7-.1 1.2-.2 1.6-.3.1-.2 0-.4-.1-.4s-.3 0-.4.1c-.1 0-.5 0-.7-.2-.2-.2-.4-.4-.5-.6-.1-.2-.2-.4-.2-.5-.1-.4 0-.5.7-.9.6-.3 1.2-.6 1.9-1 .4-.2.9-.5 1.2 0 0 0 0 .1.1.2.2 0 .4-.1.4-.2-.3-.5-.7-1.4-1.2-2.2-.1 0-.3.1-.4.2 0 .1.1.1.1.2.2.5-.3.7-.7.9-.3.2-1.4.7-1.9 1-.8.4-.9.4-1.2.1 0 0-.1-.1-.1-.2-.1 0-.3.1-.4.2.4.5 1.2 2.1 1.8 3.6m-5.6-9c0-.1.2-.3.3-.3l.2.2c.4.3.5.3 1.2-.3.5-.4 1.3-1.1 1.6-1.4.3-.3.8-.6.5-1.1-.1-.1-.1-.1-.1-.2s.2-.3.3-.3c.6.7 1.3 1.5 1.7 2.1 0 .1-.2.3-.3.3l-.2-.2c-.4-.4-.7-.1-1.2.2-.6.5-1.3 1.1-1.7 1.3-.6.5-.7.6-.5 1.1 0 .1.1.1.2.2 0 .1-.2.3-.4.3-.6-.7-1.1-1.3-1.6-1.9m-11.4 50c-.8.3-1.6.8-1.7.9.1.5.2.9.4 1.4.1.1.4 0 .5-.1 0-.2-.1-.5 0-.8.2-.4.6-.7 1-.9.4-.2 1.8-.5 2.5 1.2.8 1.8-.3 2.7-1 2.9-.6.2-1.1.1-1.4 0-.3-.2-.4-.4-.6-.6-.1 0-.4.1-.4.2.2.4.5.8.6 1.3.2 0 1.2-.2 2-.5.9-.4 1.7-1 1.9-2.2.2-.9-.2-2-1.1-2.7-.8-.6-1.9-.4-2.7-.1M72.3 8.3s.5.4 1.6.7c1.1.3 2-.3 2.2-1.1.2-1-.5-1.5-1.1-2-.7-.5-1-.8-.9-1.2 0-.3.3-.8 1.2-.5.9.3.8 1.1.8 1.2.2.1.3.2.5.1.1-.3.2-1.1.1-1.2-.2-.1-.6-.3-1.4-.5-1.8-.5-2.2.6-2.3 1.2 0 .5.2.9 1.2 1.6.7.5 1 .9.8 1.4-.1.4-.5.7-1.1.5-1-.2-.9-.9-.9-1.5-.1-.1-.4-.1-.5-.1-.1.3-.2.9-.2 1.4M38.2 52.9s.1-.6-.3-1.7-1.3-1.6-2.2-1.2c-.9.4-1 1.2-1 2-.1.8-.1 1.2-.5 1.4-.3.1-.8.2-1.1-.7-.3-.9.4-1.3.5-1.3 0-.2-.1-.3-.2-.4-.3.1-1 .5-1.1.6 0 .3.1.7.4 1.5.6 1.6 1.8 1.4 2.3 1.1.4-.3.6-.6.7-1.9 0-.8.2-1.3.7-1.5.4-.1.8 0 1 .6.4 1-.2 1.3-.7 1.6 0 .2.1.4.2.5.3-.1.8-.3 1.3-.6m13.4 14.4c-.2 0-.2.3-.2.4.1 0 .1 0 .2.1.3.2.3.4-.2.7-.3.2-.3.3-.4.3-.2-.1-1.5-.9-1.7-1 0-.2 0-.2.1-.6.1-.4.2-.7.5-.5.1 0 .1.1.2.1.2 0 .3-.3.2-.4-.3-.2-1-.7-1.9-1.3-.2 0-.3.3-.3.3l.2.2c.3.3.1.9.1 1.1-.1.4-.8 4.2-.9 4.3 0 .1 0 .1.1.1 0 0 .7.2.8.2.2-.2 2.7-2 3.3-2.5.7-.5.8-.5 1.1-.4.1 0 .2.1.2.1.1 0 .3-.3.2-.4-.5-.2-1.4-.7-1.6-.8m-2.8 3.2c-.1-.1-.1-.1 0 0l.4-2.2 1.4.9-1.8 1.3m38.5-6.4c.2-.1.9-.8 1.4-1.2.1 0 .3.2.3.3l-.2.2c-.1.2-.2.3 0 1.1s1.1 3.7 1.2 4c-.1.1-.4.7-.5.7 0 0-.1.1-.1 0-.1 0-3.4-2.1-3.7-2.3-.2-.1-.7-.5-1.1-.3-.1.1-.1.1-.2.1s-.3-.2-.2-.4c.9-.6 1.6-1.1 1.9-1.3.1 0 .3.2.3.3 0 0-.1 0-.2.1-.3.3-.1.5.3.7.3.2.3.2.5.3.2-.2 1.4-1.1 1.6-1.2 0-.1-.1-.2-.2-.5-.2-.5-.3-.6-.6-.4-.1.1-.1.1-.2.1s-.3-.1-.3-.3m2 3.7l-.7-2.2-1.3 1 2 1.2c-.1.1 0 .1 0 0 0 .1 0 0 0 0M76.7 44c0 2.3-1.8 3.8-9.2 5.2-3 .6-4 1.2-4 2.1 0 .8.8 1.6 2.5 2l.1 1.9c-3.3-.6-5.4-2.2-5.4-4 0-1.6.9-2.9 6.6-4.1 5-1.1 6.4-1.6 6.2-3-.1-1.1-1.6-1.6-4.3-1.6l.1-1.8c5.3 0 7.4 1.5 7.4 3.3m-3.9 13.7c0-2.1-1.7-3.3-4.2-3.8l-.1 1.8c1.2.3 2.1 1.1 2.1 2.2 0 1.6-1.5 3.1-3.7 3.1-3.1 0-4.1-1.6-4.5-2.4-.1-.3-.2-.4-.3-.4-.1 0-.2.2-.2.5.2 1.9 2.6 3.7 5.5 3.7 3.1-.2 5.4-2.2 5.4-4.7M59.9 19.8c1.2-.6 2.8-.9 4-.9-.3-.3-3-.2-5.3.8-1 .5-1.6 1-1.6 1.4 0 .4.6.9 1.9.7-1.1-.4-.7-1.3 1-2m5.7-5.3c-4.3-.4-6.5.8-6.3 1.7-1.4.5-2.5 1-2.5 1.8 0 .4.4.9 1.2 1.1 1.5-.6 3.5-1 5.2-1 1.5 0 2.2.3 2.2.8 0 .4-.7.7-2.2.7-.4 0-.6 0-.9-.1-.7.2-1.2.4-1.5.6.4.2 1.3.3 2.1.3 2.6 0 3.6-.4 5.1-1.3.6-.4 1.4-.7 1.9-.7 5.1.6 7.8 2.8 7.8 5.5 0 3.3-3.8 5.8-10.5 8.8-7.2 3.2-9.9 4.4-9.7 6.9.1 1.9 2.4 3.4 7.9 3.1l-.1-2c-3.2 0-4.1-.6-4.1-1.5-.1-1.2 2.1-2.1 5.1-3.3 12.3-4.8 15.6-7.7 15.6-12.1 0-4.6-4.1-6.9-10.6-8.1-2.8-.4-3.3-1-5.7-1.2m-3.5 1.1c.9-.1 1.4 0 1.5.3.1.3-.4.6-1.2.8-.9.1-1.4 0-1.5-.3-.1-.4.3-.7 1.2-.8M68.9 26c.5-.3.8-.6.8-1 0-.8-1.1-1.4-2.4-1.4-1.3 0-2.4.6-2.4 1.4 0 .4.3.8.8 1l.2 6.5c.5-.2 2.2-1 2.9-1.3l.1-5.2zm-.3 10.6c-.7.3-2.5 1-2.6 1l.3 9.1c.3-.1 1.5-.3 1.8-.4l.5-9.7zm-2.1 13.8c.3 7.9.4 8.4.8 9.1.4-.7.5-1.3.8-9.4-.2 0-1.2.2-1.6.3"/></g></svg>
