<?xml version="1.0" encoding="utf-8"?>
<!-- Generator: Adobe Illustrator 19.2.1, SVG Export Plug-In . SVG Version: 6.00 Build 0)  -->
<svg version="1.1" xmlns="http://www.w3.org/2000/svg" xmlns:xlink="http://www.w3.org/1999/xlink" x="0px" y="0px"
	 viewBox="0 0 109 148" style="enable-background:new 0 0 109 148;" xml:space="preserve">
<style type="text/css">
	.st0{fill:#66609E;}
	.st1{fill:#FFFFFF;}
	.st2{fill:#2A216A;}
	.st3{fill:#E13718;}
	.st4{fill:#365AA5;}
	.st5{fill:#999632;}
	.st6{fill:#46743C;}
	.st7{fill:#901A1E;}
</style>
<g id="TEO">
	<path class="st0" d="M107,39.8c0,21.9-17.8,39.8-39.7,39.8c-22,0-39.7-17.8-39.7-39.8C27.6,17.8,45.3,0,67.3,0
		C89.2,0,107,17.8,107,39.8"/>
	<path class="st0" d="M37.7,97.8c0,10.4-8.4,18.8-18.8,18.8C8.5,116.6,0,108.2,0,97.8c0-10.4,8.5-18.8,18.9-18.8
		C29.3,78.9,37.7,87.4,37.7,97.8"/>
	<path class="st0" d="M77.1,138.2c0,5.4-4.4,9.8-9.8,9.8c-5.4,0-9.8-4.4-9.8-9.8c0-5.4,4.4-9.8,9.8-9.8
		C72.7,128.3,77.1,132.7,77.1,138.2"/>
	<g>
		<path class="st1" d="M84.8,58c0.1,0,0.2,0.1,0.2,0.2c0,0-0.1,0.1-0.1,0.1c-0.2,0.2-0.2,0.3,0.2,0.7c0.2,0.3,0.7,0.8,0.9,1
			c0.2,0.2,0.4,0.5,0.7,0.3c0,0,0.1-0.1,0.1-0.1c0.1,0,0.2,0.1,0.2,0.2c-0.4,0.4-0.9,0.8-1.2,1.1c-0.1,0-0.2-0.1-0.2-0.2
			c0,0,0.1-0.1,0.1-0.1c0.2-0.3,0.1-0.5-0.2-0.7c-0.3-0.4-0.7-0.8-0.9-1C84.3,59,84.2,59,84,59.1c0,0-0.1,0.1-0.1,0.1
			c-0.1,0-0.2-0.1-0.2-0.2C84.1,58.6,84.5,58.3,84.8,58"/>
		<path class="st1" d="M70.4,64.7c0,0.1,0.1,0.2,0,0.3c-0.1,0-0.1,0-0.2,0C70,65.1,70,65.1,70,65.7c0,0.4,0.1,1,0.1,1.3
			c0,0.3,0,0.6,0.4,0.6c0.1,0,0.1,0,0.2,0c0.1,0,0.1,0.2,0,0.3C70.2,68,69.6,68,69.1,68c-0.1,0-0.1-0.2,0-0.3c0.1,0,0.1,0,0.1,0
			c0.3-0.1,0.3-0.3,0.3-0.7c0-0.5-0.1-1-0.1-1.3c0-0.5-0.1-0.6-0.4-0.6c0,0-0.1,0-0.2,0c0,0-0.1-0.2,0-0.3
			C69.5,64.8,70,64.7,70.4,64.7"/>
		<path class="st1" d="M45.4,52.2c0,0.1-0.2,0.2-0.2,0.1c0,0-0.1-0.1-0.1-0.1c-0.2-0.2-0.3-0.3-0.8,0c-0.3,0.2-0.9,0.5-1.2,0.7
			c-0.2,0.1-0.6,0.3-0.4,0.6c0,0.1,0,0.1,0.1,0.1c0,0.1-0.2,0.2-0.2,0.1c-0.3-0.5-0.6-1.1-0.8-1.4c0-0.1,0.2-0.2,0.2-0.1
			c0,0.1,0.1,0.1,0.1,0.1c0.2,0.3,0.4,0.2,0.7,0c0.4-0.2,0.9-0.5,1.2-0.6c0.4-0.2,0.5-0.3,0.4-0.6c0-0.1,0-0.1-0.1-0.2
			c0-0.1,0.2-0.1,0.3-0.1C45,51.4,45.2,51.8,45.4,52.2"/>
		<path class="st1" d="M42.2,36.1c-0.1,0-0.2,0-0.3,0c0-0.1,0-0.1,0-0.2c0-0.3,0-0.4-0.6-0.4c-0.4-0.1-1-0.2-1.3-0.2
			c-0.3,0-0.6-0.1-0.7,0.2c0,0.1,0,0.1,0,0.2c-0.1,0.1-0.2,0-0.3,0c0.1-0.6,0.2-1.2,0.3-1.6c0.1-0.1,0.2,0,0.3,0.1
			c0,0.1,0,0.1,0,0.1c0,0.3,0.2,0.4,0.6,0.5c0.5,0.1,1,0.2,1.3,0.2c0.5,0.1,0.6,0.1,0.7-0.2c0,0,0-0.1,0-0.2c0.1,0,0.2,0,0.3,0.1
			C42.4,35.1,42.3,35.6,42.2,36.1"/>
		<path class="st1" d="M92.8,39.1c0.1,0,0.2,0,0.3,0c0,0.1,0,0.1,0,0.2c0,0.3,0.1,0.3,0.7,0.3c0.4,0,1,0,1.3,0c0.3,0,0.6,0,0.7-0.3
			c0-0.1,0-0.1,0-0.2c0.1-0.1,0.2-0.1,0.3,0c0,0.6,0,1.2,0,1.6c-0.1,0.1-0.2,0.1-0.3,0c0-0.1,0-0.1,0-0.1c0-0.3-0.3-0.4-0.6-0.4
			c-0.5,0-1,0-1.3,0c-0.5,0-0.6,0-0.7,0.3c0,0,0,0.1,0,0.2c0,0-0.2,0-0.3,0C92.8,40,92.8,39.5,92.8,39.1"/>
		<path class="st1" d="M87.5,55.2c0.3,0.1,0.6,0.3,0.7,0.4c0,0.1-0.1,0.2-0.2,0.3c-0.3-0.1-0.7-0.4-1.1,0.1c-0.3,0.3-0.2,0.6,0,0.7
			c0.2,0.2,0.5,0.2,1,0c0.7-0.3,1-0.3,1.2-0.2c0.3,0.2,0.8,0.8,0.1,1.6c-0.3,0.4-0.6,0.5-0.7,0.6c-0.1,0-0.5-0.3-0.6-0.4
			c0-0.1,0-0.2,0.2-0.2c0.1,0,0.5,0.3,0.9-0.1c0.4-0.4,0.2-0.7,0-0.8c-0.2-0.2-0.4-0.1-0.9,0.1c-0.4,0.2-0.9,0.4-1.4,0
			c-0.4-0.4-0.4-1,0-1.5C87.1,55.3,87.5,55.2,87.5,55.2"/>
		<path class="st1" d="M67,65c0.1,0.4,0.1,0.6,0.1,0.8c-0.1,0-0.2,0.1-0.3,0C66.7,65.5,66.7,65,66,65c-0.4,0-0.6,0.2-0.6,0.4
			c0,0.3,0.2,0.5,0.7,0.8c0.7,0.3,0.8,0.6,0.9,0.9c0.1,0.4-0.1,1.1-1.2,1.1c-0.5,0-0.8-0.1-0.9-0.2c0-0.1-0.1-0.6,0-0.8
			c0.1-0.1,0.2-0.1,0.3,0c0,0.1,0,0.6,0.6,0.6c0.5,0.1,0.6-0.3,0.6-0.5c0-0.3-0.2-0.4-0.7-0.6c-0.4-0.2-0.9-0.5-0.9-1.1
			c0-0.6,0.5-1,1.2-0.9C66.7,64.7,67,65,67,65"/>
		<path class="st1" d="M41.9,40c-0.4,0.1-0.6,0.1-0.8,0.1c0-0.1-0.1-0.2,0-0.3c0.3-0.1,0.8-0.2,0.8-0.8c0-0.4-0.2-0.6-0.4-0.6
			c-0.3,0-0.5,0.2-0.7,0.7c-0.3,0.7-0.6,0.8-0.8,0.9c-0.4,0.1-1.1-0.1-1.1-1.1c0-0.5,0.1-0.8,0.1-1c0.1,0,0.6-0.1,0.8-0.1
			c0.1,0.1,0.1,0.2,0,0.3c-0.1,0-0.6,0.1-0.6,0.6c0,0.5,0.3,0.6,0.5,0.6c0.3,0,0.4-0.2,0.6-0.7c0.2-0.4,0.4-0.9,1.1-0.9
			c0.6,0,1,0.5,1,1.2C42.1,39.6,41.9,40,41.9,40"/>
		<path class="st1" d="M42.8,32.7c-0.4,0-0.6,0-0.8-0.1c0-0.1,0-0.2,0.1-0.3c0.3,0,0.8,0,1-0.6c0.1-0.4-0.1-0.6-0.3-0.7
			c-0.3-0.1-0.6,0.1-0.9,0.5c-0.5,0.6-0.8,0.7-1.1,0.7c-0.4,0-1.1-0.3-0.8-1.4c0.2-0.5,0.3-0.7,0.4-0.9c0.1,0,0.6,0.1,0.8,0.1
			c0.1,0.1,0,0.2,0,0.3c-0.1,0-0.6-0.1-0.8,0.5c-0.2,0.5,0.1,0.7,0.3,0.7c0.3,0.1,0.4-0.1,0.8-0.5c0.3-0.4,0.7-0.8,1.3-0.6
			c0.5,0.2,0.8,0.8,0.6,1.4C43.1,32.4,42.8,32.7,42.8,32.7"/>
		<path class="st1" d="M91.9,30.9c0.8-0.7,0.9-0.8,1.6-1.3c0.2-0.2,0.3-0.3,0.5,0c0,0.1,0,0.1,0.1,0.1c0.1,0,0.2,0,0.2-0.1
			c-0.2-0.5-0.4-0.9-0.6-1.4c-0.1,0-0.2,0-0.3,0.1c0,0,0,0.1,0.1,0.2c0.1,0.3,0,0.4-0.3,0.6c-0.2,0.1-2,1.7-2.1,1.7c0,0,0,0.1,0,0.1
			c0,0,0.2,0.3,0.3,0.4c0.8,0,2.1,0.1,2.6,0.1c0.5,0,0.6,0.1,0.6,0.3c0,0.1,0,0.1,0,0.2c0.1,0,0.2,0,0.3-0.1
			c-0.1-0.4-0.3-0.9-0.4-1.2c-0.1-0.1-0.2,0-0.3,0.1c0,0,0,0.1,0,0.1c0,0.2,0,0.3-0.4,0.3C93.4,31,92.6,30.9,91.9,30.9"/>
		<path class="st1" d="M93,44c1.1-0.2,1.2-0.2,2-0.4c0.3,0,0.4-0.1,0.4,0.2c0,0.1,0,0.1,0,0.1c0.1,0.1,0.2,0.1,0.3,0
			c0.1-0.5,0.1-1,0.2-1.5c-0.1-0.1-0.2-0.1-0.3,0c0,0.1,0,0.1,0,0.2c-0.1,0.3-0.2,0.3-0.6,0.4c-0.2,0-2.6,0.5-2.6,0.5
			c-0.1,0-0.1,0.1-0.1,0.1c0,0,0.1,0.4,0.1,0.5c0.7,0.4,1.8,1.1,2.2,1.4C95,45.8,95,45.9,95,46c0,0.1,0,0.1,0,0.2
			c0,0.1,0.2,0.1,0.3,0.1c0.1-0.4,0.2-0.9,0.3-1.2c0-0.1-0.2-0.1-0.3-0.1c0,0.1,0,0.1,0,0.1c-0.1,0.2-0.1,0.3-0.5,0.1
			C94.2,44.8,93.5,44.4,93,44"/>
		<path class="st1" d="M92.1,53.3c-0.6-0.3-1.5-0.8-1.7-1c-0.4-0.2-0.6-0.3-0.7,0c0,0-0.1,0.1-0.1,0.1c-0.1,0-0.2-0.1-0.2-0.1
			c0.3-0.4,0.5-0.9,0.7-1.3c0.1,0,0.2,0.1,0.2,0.1c0,0.1,0,0.1-0.1,0.1c-0.1,0.3,0,0.3,0.4,0.6c0.3,0.2,1,0.5,1.2,0.6
			c0.5,0.3,0.5,0.4,0.7,0c0-0.1,0-0.1,0.1-0.1c0.1,0,0.2,0.1,0.2,0.1c-0.4,0.8-0.7,1.3-0.8,1.4c-0.1,0.1-0.2,0.3-0.2,0.4
			c-0.2,0.3-0.7,0.7-1.3,0.3c-0.4-0.3-0.4-0.7-0.4-1c-0.3,0-0.7,0.1-1.1,0.2c-0.4,0.1-0.5,0.1-0.6,0.3c0,0-0.1,0.1-0.1,0.1
			c-0.1,0-0.2-0.1-0.2-0.2c0-0.1,0.3-0.4,0.5-0.8c0.2,0,1.6-0.2,1.9-0.3l0.1,0.1c-0.1,0.2-0.2,0.4-0.1,0.6c0.1,0.2,0.2,0.3,0.3,0.3
			c0.1,0.1,0.3,0.1,0.5,0.1c0.2,0,0.3-0.2,0.4-0.3C92,53.6,92.1,53.4,92.1,53.3"/>
		<path class="st1" d="M78,62.5c-0.1,0.1,0,0.2,0.1,0.2c0,0,0,0,0.1,0c0.2-0.1,0.3,0,0.3,0.4c0,0.2,0,0.3,0,0.3
			c-0.2,0.1-1,0.4-1.1,0.5c-0.1-0.1-0.1-0.1-0.2-0.3c-0.2-0.2-0.3-0.3-0.1-0.4c0.1,0,0.1,0,0.1,0c0-0.1,0-0.2-0.1-0.2
			c-0.2,0.1-0.7,0.3-1.3,0.5c-0.1,0.1,0,0.2,0.1,0.3c0.1,0,0.1,0,0.2,0c0.3-0.1,0.5,0.2,0.6,0.3c0.2,0.2,1.8,1.9,1.8,2
			c0,0,0.1,0,0.1,0c0,0,0.3-0.2,0.3-0.3c0-0.2,0-2.1-0.1-2.6c0-0.5,0.1-0.6,0.2-0.7c0.1,0,0.1-0.1,0.1-0.1c0-0.1-0.1-0.2-0.1-0.2
			C78.7,62.2,78.1,62.5,78,62.5 M78.6,65.2l-1-1l0.9-0.4L78.6,65.2z"/>
		<path class="st1" d="M54.7,61.4c-0.1,0-0.2,0.2-0.2,0.2c0,0,0,0,0.1,0.1c0.2,0.2,0.1,0.2-0.1,0.4c-0.2,0.1-0.2,0.2-0.3,0.2
			c-0.1-0.1-0.9-0.5-1-0.6c0-0.1,0-0.1,0.1-0.4c0-0.2,0.1-0.4,0.3-0.3c0.1,0,0.1,0,0.1,0.1c0.1,0,0.2-0.2,0.1-0.2
			c-0.2-0.1-0.6-0.4-1.2-0.8c-0.1,0-0.2,0.2-0.2,0.2c0.1,0.1,0.1,0.1,0.1,0.1c0.2,0.2,0.1,0.6,0.1,0.7c0,0.2-0.5,2.6-0.5,2.6
			c0,0.1,0,0.1,0,0.1c0,0,0.4,0.1,0.4,0.1c0.1-0.1,1.7-1.2,2.1-1.6c0.4-0.3,0.5-0.3,0.7-0.3c0.1,0,0.1,0,0.1,0.1
			c0.1,0,0.2-0.2,0.1-0.2C55.3,61.8,54.9,61.5,54.7,61.4 M52.9,63.4l0.3-1.4l0.8,0.5L52.9,63.4z"/>
		<path class="st1" d="M83.6,61.9c0,0.1,0.1,0.2,0.1,0.4c0,0.1,0,0.3-0.3,0.5c-0.1,0-0.2,0.1-0.4,0.2c0,0-0.9-1.3-1.1-1.6
			c-0.3-0.5-0.3-0.5-0.1-0.7c0,0,0.1-0.1,0.1-0.1c0-0.1-0.1-0.2-0.2-0.2c-0.4,0.3-0.9,0.6-1.3,0.8c0,0.1,0.1,0.2,0.1,0.2
			c0.1,0,0.1-0.1,0.2-0.1c0.3-0.1,0.4,0,0.6,0.4c0.1,0.2,0.1,0.2,1,1.6c-0.2,0.1-0.4,0.3-0.5,0.3c-0.3,0.1-0.4,0-0.5-0.1
			c-0.1-0.1-0.1-0.1-0.2-0.2c-0.1,0-0.2,0.1-0.2,0.2c0.1,0.1,0.4,0.6,0.5,0.8c1.1-0.6,1.7-1,2.6-1.7c0-0.1-0.3-0.7-0.3-0.8
			C83.8,61.8,83.7,61.9,83.6,61.9"/>
		<path class="st1" d="M75.4,66c0,0.1,0,0.2,0,0.4c0,0.1-0.1,0.3-0.4,0.4c-0.1,0-0.2,0.1-0.4,0.1c0,0-0.4-1.5-0.5-1.9
			c-0.1-0.5-0.1-0.6,0.1-0.7c0,0,0.1,0,0.1,0c0-0.1,0-0.2-0.1-0.3c-0.4,0.1-1,0.3-1.5,0.4c0,0.1,0,0.2,0,0.3c0.1,0,0.1,0,0.2,0
			c0.3,0,0.3,0.1,0.5,0.6c0.1,0.3,0.1,0.2,0.4,1.9c-0.2,0.1-0.5,0.1-0.6,0.1c-0.3,0-0.4-0.2-0.5-0.2c0-0.1-0.1-0.2-0.1-0.2
			c-0.1,0-0.2,0-0.3,0.1c0,0.1,0.2,0.7,0.2,0.9c1.2-0.2,1.9-0.4,3.1-0.7c0-0.1,0-0.8,0-0.9C75.6,65.9,75.5,65.9,75.4,66"/>
		<path class="st1" d="M92.2,33.7c0-0.1,0.2-0.1,0.3-0.1c0,0,0,0.1,0,0.2c0.1,0.2,0.2,0.3,0.7,0.2c0.4-0.1,1-0.2,1.3-0.3
			c0.4-0.1,0.6-0.1,0.6-0.4c0-0.1,0-0.1,0-0.2c0-0.1,0.2-0.1,0.3-0.1c0,0.2,0.2,0.7,0.2,1c0,0,0,0.1,0,0.1c-0.1,0-0.1,0.1-0.3,0.2
			c-0.1,0.1-0.5,0.5-0.9,1c-0.5,0.6-0.8,1-0.9,1.1c0.2,0,1.2-0.1,1.4-0.1c0.5-0.1,0.6-0.1,0.6-0.4c0,0,0-0.1,0-0.2
			c0.1-0.1,0.2-0.1,0.3,0c0.1,0.5,0.1,1,0.1,1.3c0,0.1-0.2,0.1-0.3,0c0,0,0-0.1,0-0.1c0-0.2-0.1-0.3-0.7-0.2c-0.4,0-2.1,0.2-2.3,0.2
			c-0.1,0-0.1-0.1-0.1-0.2c0.4-0.5,0.9-1.1,1.3-1.7c0.5-0.5,0.8-0.9,1-1.1c-0.2,0-1.3,0.2-1.6,0.3c-0.5,0.1-0.6,0.2-0.6,0.4
			c0,0.1,0,0.1,0,0.2c-0.1,0.1-0.2,0.1-0.3,0C92.4,34.7,92.2,34,92.2,33.7"/>
		<path class="st1" d="M59,63.4c-0.1,0-0.1,0.2-0.1,0.3c0.1,0,0.1,0,0.2,0.1c0.3,0.1,0.2,0.3,0.1,0.7c0,0.1-0.1,0.3-0.2,0.5
			c0,0-0.4-0.1-0.8-0.3c-0.4-0.1-0.8-0.3-0.8-0.3c0.1-0.2,0.2-0.4,0.2-0.5c0.2-0.5,0.3-0.6,0.6-0.5c0,0,0.1,0,0.1,0
			c0.1,0,0.1-0.2,0.1-0.3c-0.5-0.2-1-0.4-1.4-0.6c-0.1,0-0.2,0.2-0.1,0.3c0.1,0,0.1,0.1,0.1,0.1c0.2,0.1,0.2,0.3,0,0.7
			c-0.1,0.2-0.3,0.8-0.5,1.2c-0.1,0.3-0.3,0.6-0.6,0.5c0,0-0.1,0-0.1,0c-0.1,0-0.1,0.2-0.1,0.3c0.3,0.2,0.9,0.4,1.5,0.6
			c0.1,0,0.1-0.2,0.1-0.3c0,0-0.1,0-0.1-0.1c-0.3-0.1-0.2-0.4-0.1-0.7c0-0.1,0.1-0.3,0.2-0.4c0,0,0.5,0.2,0.8,0.3
			c0.3,0.1,0.8,0.3,0.8,0.3c0,0.2-0.1,0.3-0.1,0.5c-0.1,0.3-0.2,0.6-0.6,0.5c0,0-0.1,0-0.1,0c-0.1,0.1-0.1,0.2-0.1,0.3
			c0.4,0.1,1,0.3,1.5,0.5c0.1,0,0.1-0.2,0.1-0.3c-0.1,0-0.1,0-0.1,0c-0.3-0.1-0.2-0.3-0.1-0.7c0.1-0.2,0.3-0.9,0.4-1.3
			c0.2-0.5,0.2-0.6,0.5-0.5c0,0,0.1,0,0.1,0c0.1,0,0.1-0.2,0.1-0.3C60,63.7,59.4,63.6,59,63.4"/>
		<path class="st1" d="M91.7,46.8c0.1,0,0.2,0,0.3,0.1c0,0.1,0,0.1,0,0.1c-0.1,0.3,0,0.4,0.5,0.6c0.4,0.1,0.9,0.3,1.3,0.4
			c0.4,0.1,0.6,0.2,0.7-0.1c0-0.1,0-0.1,0-0.1c0.1,0,0.2,0,0.3,0.1c-0.2,0.7-0.6,1.7-1,2.7c-0.2-0.1-0.6-0.2-0.8-0.3
			c0-0.1,0-0.2,0.1-0.3c0.1,0,0.2,0,0.3,0c0.1,0,0.3,0,0.4-0.3c0.1-0.2,0.2-0.6,0.3-0.8c0-0.1,0-0.2-0.1-0.2c-0.1,0-0.8-0.3-0.9-0.3
			c-0.3,0.7-0.3,0.9-0.3,0.9c-0.1,0-0.2,0-0.3-0.1c0,0,0.3-0.9,0.3-0.9c0,0-0.5-0.2-0.6-0.2c-0.5-0.2-0.5-0.1-0.7,0.3
			c0,0.1-0.1,0.2-0.1,0.3c-0.1,0.3,0,0.5,0.2,0.7c0.1,0.1,0.1,0.1,0.2,0.1c0,0.1,0,0.2-0.2,0.3c-0.1-0.1-0.7-0.4-0.8-0.5
			C91.2,48.6,91.5,47.6,91.7,46.8"/>
		<path class="st1" d="M44,49.4c0,0.1-0.2,0.1-0.2,0.1c0,0,0-0.1-0.1-0.1c-0.1-0.2-0.2-0.3-0.8-0.1c-0.4,0.2-0.9,0.4-1.2,0.5
			c-0.4,0.1-0.6,0.2-0.5,0.5c0,0.1,0,0.1,0,0.1c0,0.1-0.2,0.1-0.3,0.1c-0.3-0.6-0.7-1.7-1-2.7c0.2-0.1,0.6-0.3,0.8-0.3
			c0.1,0.1,0.2,0.2,0.1,0.3c-0.1,0-0.2,0.1-0.2,0.2c-0.1,0.1-0.2,0.2-0.2,0.5c0.1,0.3,0.2,0.6,0.3,0.8c0.1,0.1,0.1,0.1,0.2,0.1
			c0.1,0,0.8-0.3,0.9-0.3c-0.3-0.7-0.3-0.9-0.3-0.9c0.1-0.1,0.2-0.1,0.3-0.1c0,0,0.3,0.9,0.3,0.9c0,0,0.5-0.2,0.6-0.2
			c0.5-0.2,0.4-0.3,0.3-0.6c0-0.1-0.1-0.2-0.1-0.3c-0.1-0.3-0.3-0.4-0.6-0.4c-0.1,0-0.2,0-0.2,0c-0.1-0.1-0.1-0.2,0-0.3
			c0.1,0,0.8-0.1,0.9-0.1C43.3,47.6,43.7,48.6,44,49.4"/>
		<path class="st1" d="M48.6,56.5c0,0.1-0.1,0.2-0.2,0.2c0,0-0.1-0.1-0.1-0.1c-0.2-0.2-0.3-0.1-0.7,0.2c-0.3,0.3-0.7,0.6-1,0.9
			c-0.3,0.2-0.5,0.4-0.3,0.6c0,0,0.1,0.1,0.1,0.1c0,0.1-0.1,0.2-0.2,0.2c-0.1-0.1-0.5-0.5-0.6-0.7c0,0-0.1-0.1-0.1-0.1
			c0-0.1,0.1-0.1,0.1-0.3c0-0.2,0.2-0.7,0.3-1.4c0.1-0.7,0.2-1.2,0.2-1.4c-0.2,0.1-1,0.6-1.2,0.8c-0.4,0.3-0.5,0.4-0.3,0.7
			c0,0,0.1,0.1,0.1,0.1c0,0.1-0.1,0.2-0.2,0.2c-0.3-0.4-0.6-0.8-0.8-1.1c0-0.1,0.1-0.2,0.2-0.2c0,0,0.1,0.1,0.1,0.1
			c0.2,0.2,0.2,0.2,0.7-0.1c0.3-0.2,1.8-1.2,1.9-1.3c0.1,0,0.2,0,0.2,0.1c-0.1,0.6-0.2,1.4-0.3,2.1c-0.1,0.7-0.2,1.1-0.3,1.5
			c0.2-0.2,1-0.8,1.2-1.1c0.4-0.4,0.4-0.5,0.3-0.7c0-0.1-0.1-0.1-0.1-0.1c0-0.1,0.1-0.2,0.2-0.2C48,55.8,48.4,56.3,48.6,56.5"/>
		<path class="st1" d="M42.7,45.2c0,0.1-0.2,0.1-0.3,0.1c0,0,0-0.1,0-0.2c-0.1-0.2-0.2-0.3-0.7-0.2c-0.4,0.1-1,0.2-1.3,0.3
			c-0.4,0.1-0.6,0.1-0.6,0.4c0,0.1,0,0.1,0,0.2c-0.1,0.1-0.2,0.1-0.3,0.1c-0.1-0.2-0.1-0.7-0.2-1c0,0,0-0.1,0-0.1
			c0.1,0,0.1-0.1,0.3-0.2c0.1-0.2,0.5-0.5,0.9-1.1c0.5-0.6,0.8-1,0.9-1.1c-0.2,0-1.2,0.1-1.4,0.1c-0.5,0.1-0.6,0.1-0.6,0.4
			c0,0,0,0.1,0,0.2c-0.1,0.1-0.2,0.1-0.3,0c-0.1-0.5-0.1-1-0.1-1.3c0-0.1,0.2-0.1,0.3,0c0,0,0,0.1,0,0.1c0,0.2,0.1,0.3,0.7,0.2
			c0.4,0,2.1-0.2,2.3-0.2c0.1,0,0.1,0.1,0.1,0.2c-0.4,0.5-0.9,1.1-1.3,1.7c-0.5,0.5-0.7,0.9-1,1.1c0.2,0,1.3-0.3,1.6-0.3
			c0.5-0.1,0.6-0.2,0.6-0.4c0-0.1,0-0.1,0-0.2c0.1-0.1,0.2-0.1,0.3,0C42.5,44.3,42.6,45,42.7,45.2"/>
		<path class="st1" d="M50.1,58.4c0,0,0.1,0.1,0.1,0.1c0.2,0.2,0.3,0.3,0,0.7c-0.1,0.1-0.3,0.3-0.4,0.4c-0.3-0.2-0.4-0.4-0.7-0.6
			c-0.1,0-0.2,0.1-0.2,0.2c0.3,0.2,0.4,0.3,0.7,0.6C49.5,60,49,60.7,49,60.7c-0.1,0.1-0.1,0.1-0.2,0c-0.1-0.1-0.3-0.2-0.5-0.5
			c-0.4-0.4,0-0.9,0.1-1.1c0-0.1-0.1-0.2-0.3-0.2c-0.2,0.2-0.5,0.7-0.7,0.9c0.9,0.9,1.4,1.3,2.1,1.9c0.1,0,0.2-0.1,0.2-0.2
			c0,0,0,0-0.1-0.1c-0.2-0.2-0.1-0.4,0.2-0.7c0.2-0.2,0.5-0.6,0.9-1c0.4-0.5,0.5-0.4,0.7-0.3c0,0,0,0,0.1,0.1c0.1,0,0.2-0.1,0.2-0.2
			c-0.4-0.3-0.9-0.7-1.2-1.1C50.2,58.3,50.2,58.4,50.1,58.4"/>
		<path class="st1" d="M37.4,30.1c-0.5,1.6-0.8,3.3-1,4c-0.1,0-0.3,0-0.4-0.1c0-0.1,0-0.2,0-0.2c0-0.4-0.1-0.5-0.9-0.7
			c-0.6-0.1-1.7-0.4-2.1-0.4c-0.4-0.1-1-0.3-1.1,0.3c0,0.1,0,0.1-0.1,0.2c-0.1,0.1-0.4,0-0.4-0.1c0.2-1,0.4-1.8,0.5-2.4
			c0.1-0.1,0.3,0,0.4,0.1c0,0.1,0,0.2,0,0.2c-0.1,0.5,0.5,0.6,0.9,0.7c0.7,0.2,1.5,0.3,2.1,0.5c0.7,0.2,0.9,0.2,1.1-0.2
			c0-0.1,0.1-0.3,0.2-0.5c0-0.2,0.1-0.5,0-0.8c-0.1-0.2-0.3-0.5-0.4-0.6c-0.1-0.1-0.3-0.2-0.4-0.2c0-0.1-0.1-0.3,0.2-0.4
			C36.3,29.5,36.8,29.8,37.4,30.1"/>
		<path class="st1" d="M42.2,63.9c-0.1,0.1-0.3,0.2-0.6,0.2c-0.2,0-0.5,0-0.8-0.4c-0.1-0.1-0.3-0.3-0.5-0.5c0,0,1.9-1.6,2.3-2
			c0.7-0.6,0.8-0.6,1.1-0.3c0,0,0.1,0.1,0.2,0.2c0.1,0,0.3-0.2,0.3-0.3c-0.5-0.5-1.1-1.3-1.6-1.9c-0.1,0-0.3,0.2-0.4,0.3
			c0.1,0.1,0.1,0.2,0.1,0.2c0.2,0.4,0.1,0.6-0.5,1.1c-0.3,0.3-0.3,0.2-2.3,1.9c-0.2-0.3-0.5-0.6-0.6-0.7c-0.3-0.4-0.1-0.7,0-0.8
			c0.1-0.1,0.2-0.2,0.3-0.3c0-0.2-0.2-0.3-0.3-0.3c-0.2,0.1-0.9,0.8-1.1,1c1.2,1.6,2.1,2.6,3.3,3.8c0.1,0,1.1-0.6,1.2-0.7
			C42.5,64.2,42.4,64,42.2,63.9"/>
		<path class="st1" d="M37.3,48.5c-0.1,0.1-0.3,0.1-0.4,0.1c0-0.1,0-0.1-0.1-0.2c-0.2-0.4-0.3-0.6-1.2-0.3c-0.7,0.2-1.5,0.4-2,0.5
			c-0.6,0.2-1,0.2-0.9,0.8c0,0.1,0,0.1,0,0.2c-0.1,0.1-0.3,0.1-0.4,0.1c-0.3-1-0.7-2.7-1-4.5c0.3-0.1,1-0.3,1.3-0.4
			c0.1,0.1,0.2,0.3,0.2,0.5c-0.1,0.1-0.3,0.1-0.4,0.2c-0.2,0.1-0.4,0.3-0.3,0.8c0,0.4,0.2,1,0.3,1.3c0.1,0.2,0.2,0.2,0.3,0.2
			c0.1,0,1.3-0.3,1.4-0.4c-0.3-1.2-0.3-1.5-0.3-1.5c0.2-0.1,0.3-0.1,0.5-0.1c0,0,0.3,1.4,0.3,1.4c0,0,0.9-0.2,1-0.2
			c0.8-0.2,0.8-0.3,0.6-0.9c0-0.2-0.1-0.4-0.1-0.5c-0.1-0.5-0.4-0.6-0.9-0.7c-0.2,0-0.3,0-0.3-0.1c-0.1-0.1-0.1-0.3,0-0.5
			c0.2,0,1.2,0,1.5,0C36.5,45.7,36.9,47.2,37.3,48.5"/>
		<path class="st1" d="M43.8,17.4c0.2,0.2,0.3,0.3,0.5,0.4c-0.2,0.4-0.5,1-1.1,1.7c-0.5,0.6-1.3,1.3-2.5,1.2c-1.1-0.1-2-0.9-2.3-1.7
			c-0.4-1.2,0-2.2,0.7-3c0.8-0.9,1.2-1.2,1.4-1.3c0.4,0.3,0.7,0.5,1.2,0.8c0,0.1-0.1,0.4-0.2,0.4c-0.2-0.1-0.5-0.3-0.9-0.3
			c-0.4,0-0.7,0.2-1.1,0.6c-0.4,0.5-0.9,1.9,0.7,3c1.5,1.1,2.5,0.2,2.8-0.1c0.2-0.2,0.2-0.3,0.3-0.4c0.2-0.3,0.2-0.5,0-0.7
			C43.1,18,43,18,42.8,17.8c-0.3-0.3-0.3-0.3-0.7,0c-0.2,0.1-0.3,0.2-0.3,0.3c-0.1,0-0.3-0.1-0.3-0.3c0.6-0.6,1.1-1.3,1.5-1.8
			c0.1,0,0.4,0.1,0.4,0.3c0,0.1-0.1,0.1-0.1,0.2c-0.1,0.2-0.2,0.3,0.2,0.6C43.7,17.3,43.8,17.4,43.8,17.4"/>
		<path class="st1" d="M36.3,38.9c0-0.9-0.3-1.6-0.8-2.2c-0.5-0.5-1.2-0.8-2-0.8c-0.8,0-1.5,0.3-2,0.8c-0.5,0.5-0.8,1.3-0.8,2.2
			c0,1.7,1.2,3,2.9,3c0.8,0,1.4-0.3,1.9-0.8C36,40.6,36.3,39.8,36.3,38.9 M33.3,40.7c-0.7,0-1.3-0.3-1.7-0.7
			c-0.3-0.3-0.4-0.7-0.4-1.2c0-0.4,0.2-0.8,0.5-1.1c0.4-0.4,1.2-0.6,2-0.6c1.3,0.1,2.1,0.7,2,1.8C35.7,40.3,34.4,40.8,33.3,40.7"/>
		<path class="st1" d="M39.4,26c0.4-0.8,0.4-1.6,0.1-2.3c-0.3-0.7-0.8-1.2-1.5-1.6c-0.7-0.3-1.5-0.4-2.1-0.1
			c-0.7,0.3-1.3,0.8-1.7,1.7c-0.7,1.6-0.2,3.2,1.3,3.9c0.7,0.3,1.4,0.4,2.1,0.1C38.4,27.4,39,26.8,39.4,26 M35.9,26.4
			c-0.7-0.3-1.1-0.8-1.3-1.3c-0.1-0.4-0.1-0.8,0.1-1.2c0.2-0.4,0.5-0.7,0.9-0.8c0.6-0.2,1.3-0.1,2.1,0.3c1.2,0.6,1.6,1.5,1.1,2.5
			C38.2,27,36.9,26.9,35.9,26.4"/>
		<path class="st1" d="M39.5,54c-0.1,0-0.4,0.1-0.4,0.2c0,0.1,0.1,0.2,0.1,0.3c0.1,0.4,0,0.6-0.7,0.9c-0.2,0.1-0.4,0.3-0.8,0.4
			c0,0-0.4-0.7-0.7-1.2c-0.3-0.6-0.6-1.2-0.6-1.2c0.3-0.1,0.6-0.3,0.8-0.4c0.8-0.4,0.9-0.4,1.2,0c0,0,0.1,0.1,0.1,0.2
			c0.1,0,0.3-0.1,0.4-0.2c-0.4-0.7-0.7-1.6-0.9-2.2c-0.1,0-0.4,0-0.4,0.2c0,0.1,0.1,0.2,0.1,0.3c0.1,0.4,0,0.6-0.7,0.9
			c-0.4,0.2-1.3,0.5-2,0.8c-0.6,0.3-0.9,0.4-1.2-0.1c0,0-0.1-0.1-0.1-0.2c-0.1,0-0.4,0.1-0.4,0.2c0.2,0.5,0.6,1.5,1,2.4
			c0.1,0,0.4-0.1,0.4-0.2c0-0.1,0-0.1-0.1-0.2c-0.2-0.5,0.1-0.7,0.7-0.9c0.1-0.1,0.4-0.2,0.7-0.3c0,0,0.3,0.7,0.6,1.3
			c0.3,0.6,0.6,1.2,0.6,1.2c-0.2,0.1-0.5,0.3-0.7,0.4c-0.6,0.3-0.8,0.5-1.2,0c0,0-0.1-0.1-0.1-0.2c-0.2,0-0.4,0.1-0.4,0.2
			c0.3,0.6,0.8,1.4,1.3,2.2c0.1,0,0.3-0.1,0.4-0.2c0-0.1,0-0.1-0.1-0.2c-0.2-0.5,0.1-0.7,0.6-1c0.3-0.2,1.4-0.8,1.9-1.1
			c0.8-0.4,0.9-0.4,1.2-0.1c0,0,0.1,0.1,0.1,0.2c0.1,0,0.3-0.1,0.4-0.2C40.3,55.4,39.9,54.6,39.5,54"/>
		<path class="st1" d="M52.5,12c0.7-0.4,1.4-1,1.6-1.2c-0.2-0.4-0.4-1-0.6-1.4c-0.1,0-0.4,0.1-0.4,0.2c0,0.2,0.2,0.6,0.1,0.9
			c-0.1,0.4-0.4,0.8-0.9,1c-0.4,0.2-1.7,0.7-2.7-0.8c-1-1.6-0.1-2.7,0.5-3c0.5-0.3,1-0.3,1.3-0.2c0.3,0.1,0.5,0.4,0.6,0.5
			c0.1,0,0.3-0.2,0.4-0.3c-0.3-0.4-0.6-0.8-0.8-1.2c-0.2,0-1.2,0.3-1.9,0.8c-0.8,0.5-1.6,1.3-1.6,2.4c0,0.9,0.5,2,1.5,2.5
			C50.7,12.7,51.7,12.4,52.5,12"/>
		<path class="st1" d="M55.7,4.8c0,0.1,0,0.3,0.1,0.4c0.2-0.1,0.4-0.1,0.5,0c0.1,0.1,0.1,0.2,0.1,0.5c0,0.1-0.3,2.9-0.4,3.4
			c-0.1,0.5-0.3,0.6-0.4,0.6c-0.1,0-0.2,0.1-0.3,0.1c-0.1,0.2,0,0.4,0.2,0.4c0.4-0.2,1.1-0.4,1.7-0.6c0.1-0.1,0.1-0.3-0.1-0.4
			c-0.1,0-0.2,0-0.3,0.1c-0.1,0-0.3-0.1-0.2-0.4c0-0.2,0.1-1,0.1-1.2c0.2-0.1,1.5-0.5,1.7-0.5c0,0,0.3,0.7,0.4,0.9
			c0.1,0.4-0.1,0.5-0.2,0.6c0,0-0.2,0.1-0.3,0.1c-0.1,0.1,0,0.4,0.1,0.4c1.3-0.4,2.4-0.6,4.1-0.9c0-0.7-0.1-1.3-0.1-1.6
			c-0.1-0.2-0.4-0.1-0.5,0c0,0.2,0,0.3,0,0.3c-0.1,0.6-0.3,0.8-0.7,0.9c-0.2,0.1-0.3,0.1-0.6,0.1c-0.4,0.1-0.6-0.1-0.8-0.6
			c-0.1-0.3-0.4-0.9-0.4-1.1c0.2-0.1,1.2-0.3,1.4-0.3c0-0.1,0-0.4-0.2-0.5c-0.3,0.1-1.1,0.3-1.4,0.3c-0.1-0.2-0.5-1.2-0.6-1.5
			c-0.1-0.1,0-0.2,0.2-0.2c0.1,0,0.5-0.1,1-0.2c0.6-0.1,0.8,0.1,0.9,0.3c0.1,0.1,0.2,0.3,0.3,0.4c0.3,0.1,0.5-0.1,0.5-0.2
			c-0.1-0.3-0.4-0.9-0.5-1.3c-1.1,0.2-2.1,0.4-3,0.7C57,4.3,56.6,4.5,55.7,4.8 M57.4,4.8c0.1,0,0.2,0,0.3,0.2
			c0.1,0.2,0.6,1.6,0.7,1.8c-0.3,0.1-1.2,0.4-1.4,0.4c0.1-0.5,0.2-2,0.2-2.2C57.2,4.9,57.3,4.8,57.4,4.8"/>
		<path class="st1" d="M46.2,16.2c-0.1,0-0.3-0.2-0.3-0.3c0.1-0.1,0.1-0.1,0.2-0.2c0.3-0.4,0.3-0.5-0.3-1.2
			c-0.4-0.4-1.1-1.3-1.4-1.6c-0.3-0.3-0.6-0.8-1.1-0.5c-0.1,0.1-0.1,0.1-0.2,0.2c-0.1,0-0.3-0.2-0.3-0.3c0.7-0.6,1.5-1.3,2-1.7
			c0.1,0,0.3,0.2,0.3,0.3C45.1,11,45,11.1,45,11.1c-0.4,0.4-0.1,0.7,0.2,1.2c0.5,0.6,1.1,1.3,1.3,1.6c0.5,0.6,0.7,0.7,1.1,0.5
			c0.1,0,0.1-0.1,0.2-0.2c0.1,0,0.3,0.2,0.3,0.4C47.4,15.2,46.7,15.8,46.2,16.2"/>
		<path class="st1" d="M94.2,23c-0.8-1.4-1.9-2.8-2.4-3.4c0-0.1,0.2-0.3,0.3-0.3c0.1,0.1,0.1,0.1,0.2,0.2c0.3,0.3,0.5,0.3,1.2-0.2
			c0.5-0.3,1.4-1.1,1.7-1.3c0.4-0.3,0.8-0.5,0.5-1c-0.1-0.1-0.1-0.1-0.1-0.2c0-0.1,0.2-0.3,0.3-0.3c0.6,0.7,1.1,1.5,1.5,2
			c0,0.1-0.2,0.3-0.3,0.3C97,18.7,97,18.7,97,18.6c-0.3-0.4-0.8-0.1-1.2,0.2c-0.6,0.5-1.2,0.9-1.7,1.3c-0.6,0.5-0.7,0.5-0.5,1
			c0,0.1,0.2,0.3,0.3,0.5c0.1,0.2,0.3,0.4,0.6,0.6c0.2,0.1,0.6,0.1,0.7,0.1c0.1,0,0.3-0.1,0.4-0.1c0.1,0,0.3,0.2,0.2,0.4
			C95.4,22.6,94.9,22.8,94.2,23"/>
		<path class="st1" d="M97,28.7c-0.5-1.5-1.3-3.2-1.7-3.8c0.1-0.1,0.3-0.2,0.4-0.2c0,0.1,0.1,0.2,0.1,0.2c0.3,0.4,0.4,0.4,1.2,0
			c0.5-0.2,1.6-0.8,1.9-0.9c0.4-0.2,0.9-0.4,0.7-0.9c0-0.1-0.1-0.1-0.1-0.2c0-0.1,0.3-0.2,0.4-0.2c0.5,0.9,0.8,1.7,1.1,2.3
			c0,0.1-0.2,0.2-0.4,0.2c-0.1-0.1-0.1-0.1-0.1-0.2c-0.2-0.5-0.7-0.2-1.2,0c-0.7,0.3-1.4,0.6-1.9,0.9c-0.7,0.3-0.8,0.4-0.7,0.8
			c0,0.1,0.1,0.3,0.2,0.5c0.1,0.2,0.2,0.5,0.4,0.7C97.5,28,97.9,28,98,28c0.1,0,0.3,0,0.4,0c0.1,0.1,0.2,0.2,0.1,0.4
			C98.2,28.5,97.6,28.6,97,28.7"/>
		<path class="st1" d="M86.6,13.5c-0.1,0.2-0.2,0.4-0.3,0.6c-0.4-0.2-1.1-0.4-1.8-0.9c-0.7-0.4-1.4-1.1-1.5-2.4
			c0-1.1,0.6-2.1,1.4-2.5c1.1-0.6,2.2-0.2,3.1,0.3c1,0.6,1.3,1.1,1.5,1.2c-0.2,0.4-0.5,0.8-0.7,1.3c-0.1,0-0.4,0-0.4-0.2
			c0.1-0.2,0.2-0.5,0.1-0.9c-0.1-0.4-0.3-0.7-0.8-1c-0.6-0.4-2-0.7-2.9,1c-0.9,1.6,0.1,2.5,0.5,2.7c0.2,0.1,0.3,0.2,0.4,0.3
			c0.3,0.2,0.5,0.1,0.7-0.1c0.1-0.1,0.1-0.2,0.3-0.4c0.2-0.3,0.2-0.4-0.1-0.7c-0.1-0.1-0.2-0.2-0.3-0.3c0-0.1,0.1-0.3,0.3-0.4
			c0.7,0.5,1.4,1,1.9,1.3c0,0.1-0.1,0.4-0.2,0.4c-0.1,0-0.1-0.1-0.2-0.1c-0.2-0.1-0.3-0.1-0.6,0.2C86.7,13.3,86.7,13.4,86.6,13.5"/>
		<path class="st1" d="M84.8,66.7c1.4,1.1,1.6,1.1,2.6,2c0.4,0.3,0.5,0.4,0.2,0.7c-0.1,0.1-0.1,0.1-0.2,0.1c0,0.1,0.1,0.3,0.2,0.3
			c0.7-0.4,1.3-0.9,2-1.4c0-0.2-0.2-0.3-0.2-0.3c-0.1,0-0.1,0.1-0.2,0.1c-0.4,0.2-0.6,0.1-1.1-0.2c-0.3-0.2-3.3-2.5-3.4-2.6
			c-0.1-0.1-0.1,0-0.2,0c0,0-0.4,0.5-0.5,0.6c0.3,1.3,0.6,3.3,0.7,4c0.1,0.8,0,1-0.2,1.1c-0.1,0.1-0.2,0.1-0.2,0.1
			c0,0.1,0.1,0.4,0.2,0.4c0.5-0.3,1.3-0.7,1.8-1c0.1-0.1-0.1-0.4-0.2-0.4c-0.1,0-0.1,0.1-0.2,0.1c-0.3,0.1-0.4,0.1-0.6-0.5
			C85.2,69,85,67.7,84.8,66.7"/>
		<path class="st1" d="M98.9,32.3c1.5-0.9,1.6-1.1,2.8-1.8c0.4-0.3,0.6-0.4,0.7,0c0,0.1,0.1,0.2,0.1,0.2c0.1,0.1,0.4,0,0.4-0.1
			c-0.2-0.8-0.4-1.5-0.7-2.4c-0.1-0.1-0.4,0-0.4,0.1c0,0.1,0,0.2,0.1,0.3c0,0.4-0.1,0.6-0.6,0.9c-0.3,0.2-3.5,2.3-3.6,2.4
			c-0.1,0.1-0.1,0.1,0,0.2c0,0,0.3,0.5,0.4,0.7c1.3,0.2,3.3,0.5,4.1,0.7c0.8,0.1,0.9,0.3,1,0.5c0,0.1,0,0.2,0,0.3
			c0.1,0.1,0.4,0.1,0.4-0.1c-0.1-0.6-0.2-1.4-0.3-2c-0.1-0.1-0.4-0.1-0.4,0.1c0,0.1,0,0.2,0,0.2c0,0.3,0,0.5-0.6,0.4
			C101.2,32.7,99.9,32.4,98.9,32.3"/>
		<path class="st1" d="M76.8,69.5c1.5-0.5,3.2-1.2,3.8-1.5c0.1,0.1,0.2,0.3,0.2,0.4c-0.1,0-0.2,0.1-0.2,0.1
			c-0.4,0.2-0.4,0.4-0.1,1.2c0.2,0.5,0.7,1.6,0.8,2c0.2,0.4,0.3,1,0.9,0.8l0.2-0.1c0.1,0,0.2,0.3,0.2,0.4c-0.9,0.4-1.7,0.7-2.3,1
			c-0.1,0-0.2-0.2-0.2-0.4c0.1,0,0.1-0.1,0.2-0.1c0.5-0.2,0.3-0.7,0.1-1.2c-0.3-0.7-0.6-1.4-0.8-2c-0.3-0.7-0.3-0.8-0.8-0.8
			c-0.1,0-0.3,0.1-0.5,0.2c-0.2,0.1-0.5,0.2-0.7,0.4c-0.2,0.2-0.2,0.5-0.2,0.7c0,0.1,0,0.3,0,0.4c-0.1,0.1-0.2,0.2-0.4,0.1
			C76.9,70.7,76.8,70.1,76.8,69.5"/>
		<path class="st1" d="M99.3,38.4c-0.1,0.1-0.3,0.1-0.4,0c0-0.9-0.1-1.3-0.1-2c0.1-0.1,0.3-0.2,0.4-0.1c0,0.1,0,0.1,0,0.2
			c0.1,0.3,0.1,0.5,0.9,0.6c0.5,0.1,2,0.2,2.3,0.2c0.5,0,1.1,0,1-0.5c0-0.1,0-0.1,0-0.2c0.1-0.1,0.3-0.1,0.4,0
			c0.1,0.7,0.1,1.2,0.1,2c-0.3,0-0.5,0-1,0.3c-0.6,0.3-2.1,0.9-2.7,1.3c0.4,0.2,2.5,1.2,2.6,1.3c0.3,0.2,0.7,0.3,1.1,0.4
			c0,0.5-0.1,1.4-0.2,2c-0.1,0.1-0.3,0.1-0.4-0.1c0-0.1,0-0.1,0-0.2c0-0.3,0-0.5-0.7-0.5c-0.7,0-1.8,0-2.5,0c-0.7,0-1.1,0.1-1.1,0.4
			c0,0.2,0,0.2-0.1,0.3c-0.1,0.1-0.4,0.1-0.4-0.1c0.1-1.2,0.2-1.6,0.2-2.3c0.1-0.1,0.3-0.1,0.4,0c0,0.1,0,0.1,0,0.2
			c0,0.3,0,0.4,0.9,0.4c0.7,0,2.4,0,2.9,0c-0.5-0.3-2-1-2.8-1.4c-0.8-0.4-1.1-0.5-1.3-0.6c-0.1-0.1-0.1-0.2,0-0.3
			c0.1,0,0.7-0.2,1.4-0.6c0.7-0.3,2.5-1.1,2.8-1.2c-0.6,0-2.2-0.1-2.6-0.1c-0.6,0-1.1,0-1.1,0.4L99.3,38.4z"/>
		<path class="st1" d="M68.2,5.4c0,0.5-0.4,0.8-0.8,0.8c-0.5,0-0.8-0.4-0.8-0.8c0-0.5,0.4-0.8,0.8-0.8C67.8,4.5,68.2,4.9,68.2,5.4"
			/>
		<path class="st1" d="M76,73.5c0,0.2,0,0.4-0.1,0.6c-0.1,0.2-0.2,0.4-0.7,0.5c-0.1,0-0.4,0.1-0.7,0.1c0,0-0.5-2.4-0.6-3
			c-0.2-0.9-0.1-1,0.3-1.1c0.1,0,0.1,0,0.2-0.1c0-0.1,0-0.3-0.1-0.4c-0.7,0.2-1.6,0.3-2.4,0.4c-0.1,0.1,0,0.4,0.1,0.4
			c0.1,0,0.2,0,0.3,0c0.5,0,0.5,0.2,0.7,0.9c0.1,0.4,0.1,0.4,0.5,3c-0.4,0.1-0.8,0.1-0.9,0.1c-0.5,0-0.6-0.3-0.7-0.4
			c-0.1-0.1-0.1-0.3-0.1-0.4c-0.1-0.1-0.4,0-0.4,0.1c0,0.2,0.2,1.2,0.3,1.4c2-0.2,3.2-0.5,5-0.9c0-0.1,0-1.3,0-1.4
			C76.4,73.4,76.1,73.4,76,73.5"/>
		<path class="st1" d="M62.3,74.2c-0.1,0.2-0.2,0.3-0.3,0.5c-0.1,0.1-0.4,0.3-0.9,0.2c-0.1,0-0.4-0.1-0.7-0.1c0,0,0.5-2.4,0.6-3
			c0.2-0.8,0.3-1,0.7-1c0.1,0,0.1,0,0.2,0c0.1-0.1,0.1-0.3,0.1-0.4c-0.7-0.1-1.6-0.3-2.4-0.5c-0.1,0.1-0.2,0.3-0.1,0.4
			c0.1,0,0.2,0.1,0.3,0.1c0.4,0.2,0.4,0.4,0.3,1.1c-0.1,0.4-0.1,0.4-0.7,3c-0.4-0.1-0.7-0.2-0.9-0.2c-0.4-0.1-0.5-0.5-0.5-0.7
			c0-0.1,0-0.3,0-0.4c-0.1-0.1-0.4-0.1-0.4-0.1c0,0.2-0.2,1.2-0.3,1.4c2,0.6,3.1,0.8,4.9,1.1c0-0.1,0.5-1.2,0.6-1.3
			C62.6,74.2,62.4,74.2,62.3,74.2"/>
		<path class="st1" d="M96.9,51.6c0-0.1,0.1-0.2,0.1-0.2c0.2-0.4,0.4-0.6,1.1-0.3c0.2,0.1,0.7,0.3,0.9,0.3c-0.2,0.6-0.3,0.8-0.5,1.3
			c0.1,0.1,0.3,0.2,0.5,0.2c0.2-0.5,0.3-0.8,0.6-1.4c0.2,0.1,1.4,0.5,1.5,0.6c0.1,0.1,0.2,0.1,0.1,0.3c-0.1,0.2-0.2,0.5-0.4,1
			c-0.4,0.7-1.4,0.5-1.6,0.4c-0.2,0.1-0.2,0.3-0.1,0.5c0.4,0.1,1.3,0.4,1.7,0.5c0.8-1.8,1.2-2.9,1.6-4.2c-0.1-0.1-0.3-0.2-0.4-0.1
			c0,0,0,0.1-0.1,0.2c-0.2,0.5-0.6,0.3-1.2,0.1c-0.4-0.1-1.2-0.5-2-0.7c-0.9-0.3-0.9-0.5-0.8-0.9c0-0.1,0-0.1,0-0.2
			c-0.1-0.1-0.3-0.2-0.4-0.1c-0.3,0.9-0.6,1.7-0.9,2.5C96.6,51.5,96.8,51.6,96.9,51.6"/>
		<path class="st1" d="M77.7,9.7c0-0.1,0.1-0.4,0.1-0.4c0.1,0,0.2,0.1,0.3,0.1c0.4,0.1,0.6,0,0.9-0.8c0.2-0.6,0.6-1.6,0.7-2
			c0.2-0.4,0.4-0.9-0.1-1.1c-0.1,0-0.1-0.1-0.2-0.1c-0.1-0.1,0-0.4,0.1-0.4c0.9,0.3,1.8,0.7,2.5,1C82.1,6,82,6.3,81.9,6.3
			c-0.1,0-0.2-0.1-0.2-0.1c-0.5-0.2-0.7,0.2-0.9,0.8c-0.3,0.7-0.6,1.5-0.8,2c-0.3,0.7-0.3,0.9,0.1,1.2c0.1,0,0.1,0.1,0.3,0.1
			c0,0.1-0.1,0.4-0.2,0.4C79.2,10.3,78.4,10,77.7,9.7"/>
		<path class="st1" d="M56.7,69c0,0.1-0.1,0.4-0.2,0.4c-0.1,0-0.2-0.1-0.3-0.1c-0.4-0.1-0.6-0.1-0.9,0.8c-0.2,0.6-0.6,1.6-0.8,2
			c-0.2,0.4-0.4,0.9,0.1,1.1c0.1,0,0.1,0.1,0.2,0.1c0.1,0.1,0,0.4-0.1,0.4c-0.9-0.3-1.8-0.7-2.5-1c-0.1-0.1,0.1-0.4,0.2-0.4
			c0.1,0,0.2,0.1,0.2,0.1c0.5,0.2,0.7-0.2,0.9-0.7c0.3-0.7,0.7-1.5,0.8-1.9c0.3-0.7,0.3-0.9-0.1-1.2c-0.1,0-0.1-0.1-0.3-0.1
			c0-0.1,0.1-0.4,0.2-0.4C55.3,68.5,56,68.8,56.7,69"/>
		<path class="st1" d="M88.2,15.8c0-0.1,0.2-0.3,0.3-0.3c0.1,0.1,0.2,0.1,0.2,0.2c0.4,0.2,0.5,0.3,1.1-0.4c0.4-0.4,1.1-1.2,1.4-1.5
			c0.3-0.3,0.7-0.7,0.3-1.1c-0.1-0.1-0.1-0.1-0.2-0.2c0-0.1,0.2-0.3,0.3-0.3c0.7,0.6,1.4,1.3,1.9,1.8c0,0.1-0.2,0.3-0.3,0.3
			c-0.1-0.1-0.1-0.1-0.2-0.1c-0.4-0.3-0.8,0-1.1,0.3c-0.5,0.6-1.2,1.2-1.5,1.5c-0.5,0.5-0.6,0.7-0.4,1.1c0,0.1,0.1,0.1,0.2,0.2
			c0,0.1-0.2,0.3-0.3,0.3C89.3,16.9,88.7,16.3,88.2,15.8"/>
		<path class="st1" d="M89.4,61.7c-0.6,0.6-1.1,1.3-1.3,1.5c0.3,0.4,0.6,0.8,0.9,1.2c0.1,0,0.4-0.2,0.4-0.3
			c-0.1-0.2-0.3-0.4-0.3-0.8c0-0.5,0.2-0.9,0.6-1.2c0.3-0.3,1.5-1.1,2.8,0.2c1.4,1.3,0.7,2.6,0.2,3.1c-0.4,0.4-0.9,0.5-1.3,0.5
			c-0.3,0-0.6-0.2-0.7-0.3c-0.1,0-0.3,0.2-0.3,0.4c0.4,0.3,0.7,0.6,1.1,0.9c0.2-0.1,1-0.6,1.6-1.2c0.7-0.7,1.2-1.6,1-2.7
			c-0.2-0.9-0.9-1.8-2-2.1C90.9,60.5,90.1,61.1,89.4,61.7"/>
		<path class="st1" d="M72.1,8.2c0-0.6,0.1-1.1,0.2-1.4c0.1,0,0.4,0,0.5,0.1c0,0.6-0.1,1.3,0.9,1.5c0.6,0.1,1-0.2,1.1-0.5
			C75,7.3,74.7,6.9,74,6.4c-1-0.7-1.2-1.1-1.2-1.6c0-0.6,0.5-1.7,2.2-1.3c0.8,0.2,1.2,0.4,1.4,0.5c0,0.1,0,0.9-0.1,1.2
			c-0.1,0.1-0.3,0.1-0.5-0.1C75.8,5,75.9,4.2,75,4c-0.8-0.2-1.1,0.3-1.1,0.6c-0.1,0.4,0.2,0.7,0.9,1.2c0.6,0.5,1.3,1,1.1,1.9
			c-0.2,0.9-1.1,1.4-2.2,1.2C72.6,8.5,72.1,8.2,72.1,8.2"/>
		<path class="st1" d="M52.1,67.1c-0.2,0.5-0.5,1-0.7,1.3c-0.1,0-0.3-0.1-0.4-0.2c0.2-0.6,0.5-1.2-0.4-1.7c-0.6-0.4-1-0.2-1.2,0.1
			c-0.3,0.4-0.2,0.9,0.3,1.6c0.7,1,0.7,1.5,0.5,1.9c-0.2,0.6-1,1.4-2.5,0.5c-0.7-0.4-1-0.8-1.2-1c0-0.1,0.4-0.8,0.5-1.1
			c0.2,0,0.3,0,0.4,0.2c0,0.1-0.4,0.8,0.4,1.4c0.7,0.5,1.1,0.1,1.3-0.1c0.2-0.4,0-0.7-0.5-1.4c-0.4-0.6-0.9-1.4-0.4-2.2
			c0.5-0.8,1.5-0.9,2.5-0.3C51.7,66.6,52.1,67.1,52.1,67.1"/>
		<path class="st1" d="M67.9,70.8c-0.1,0.1-0.1,0.4,0,0.4c0.1,0,0.1,0,0.2,0c0.4,0,0.4,0.2,0.2,0.7c-0.1,0.3-0.1,0.4-0.2,0.5
			c-0.3,0-1.7,0-2,0c-0.1-0.2-0.1-0.2-0.2-0.5c-0.1-0.4-0.2-0.7,0.2-0.7c0.1,0,0.1,0,0.2,0c0.1-0.1,0.1-0.4,0-0.4
			c-0.3,0-1.2,0-2.2-0.1c-0.1,0.1-0.1,0.4,0,0.4c0.1,0,0.2,0,0.3,0c0.4,0.1,0.6,0.7,0.7,0.9c0.1,0.3,1.4,4,1.5,4
			c0,0.1,0.1,0.1,0.1,0.1c0,0,0.7-0.2,0.8-0.3c0.1-0.3,1.2-3.1,1.5-3.9c0.3-0.8,0.4-0.8,0.7-0.9c0.1,0,0.2,0,0.2,0
			c0.1-0.1,0.1-0.4,0-0.4C69.1,70.7,68.1,70.8,67.9,70.8 M67.1,75C67.1,75,67.1,75,67.1,75C67,75,67,75,67.1,75l-0.9-2.1l1.7,0
			L67.1,75z"/>
		<path class="st1" d="M94.5,55.5c0,0.2,0.3,0.3,0.3,0.2c0-0.1,0-0.1,0.1-0.2c0.2-0.3,0.4-0.3,0.7,0.2c0.2,0.3,0.3,0.3,0.3,0.4
			c-0.1,0.2-0.9,1.5-1.1,1.7c-0.2,0-0.2,0-0.6-0.1c-0.4-0.1-0.7-0.2-0.5-0.5C94,57.1,94,57.1,94,57c0-0.2-0.2-0.3-0.4-0.2
			c-0.2,0.3-0.7,1-1.3,1.8c0,0.2,0.2,0.3,0.3,0.3c0.1-0.1,0.1-0.1,0.2-0.2c0.3-0.3,0.9-0.1,1.1-0.1c0.3,0.1,4.1,0.9,4.2,0.9
			c0.1,0,0.1,0,0.1-0.1c0,0,0.2-0.7,0.2-0.8c-0.2-0.2-2-2.7-2.4-3.4c-0.5-0.7-0.5-0.8-0.4-1.1c0-0.1,0.1-0.2,0.1-0.2
			c0-0.1-0.3-0.3-0.4-0.2C95.1,54.4,94.6,55.3,94.5,55.5 M97.6,58.3C97.6,58.3,97.6,58.4,97.6,58.3C97.6,58.4,97.5,58.4,97.6,58.3
			l-2.2-0.4l0.9-1.4L97.6,58.3z"/>
		<polygon class="st1" points="70,12 70.6,12.7 71.8,12.7 71.2,13.4 71.8,14.1 70.6,14.1 70,14.8 69.4,14.1 68.3,14.1 68.9,13.4 
			68.3,12.7 69.4,12.7 		"/>
		<polygon class="st1" points="74.8,13.1 75.4,13.8 76.6,13.8 76,14.5 76.6,15.2 75.4,15.2 74.8,15.9 74.2,15.2 73,15.2 73.6,14.5 
			73,13.8 74.2,13.8 		"/>
		<polygon class="st1" points="77.5,15.7 78.1,16.4 79.3,16.4 78.7,17.1 79.3,17.8 78.1,17.8 77.5,18.5 76.9,17.8 75.8,17.8 
			76.4,17.1 75.8,16.4 76.9,16.4 		"/>
		<polygon class="st1" points="65,12 64.4,12.7 63.2,12.7 63.8,13.4 63.2,14.1 64.4,14.1 65,14.8 65.6,14.1 66.7,14.1 66.1,13.4 
			66.7,12.7 65.6,12.7 		"/>
		<polygon class="st1" points="60.3,13.1 59.7,13.8 58.5,13.8 59.1,14.5 58.5,15.2 59.7,15.2 60.3,15.9 60.9,15.2 62.1,15.2 
			61.5,14.5 62.1,13.8 60.9,13.8 		"/>
		<polygon class="st1" points="57.5,15.8 56.9,16.5 55.9,16.5 56.4,17.1 55.9,17.8 56.9,17.8 57.5,18.4 58,17.8 59.1,17.8 
			58.5,17.1 59.1,16.5 58,16.5 		"/>
		<polygon class="st1" points="70.1,22.2 70.7,21.5 71.8,21.5 71.3,20.8 71.8,20.1 70.7,20.1 70.1,19.4 69.5,20.1 68.3,20.1 
			68.9,20.8 68.3,21.5 69.5,21.5 		"/>
		<polygon class="st1" points="74.8,21.1 75.4,20.4 76.6,20.4 76,19.7 76.6,19 75.4,19 74.8,18.3 74.2,19 73,19 73.6,19.7 73,20.4 
			74.2,20.4 		"/>
		<polygon class="st1" points="65,22.2 64.4,21.5 63.2,21.5 63.8,20.8 63.2,20.1 64.4,20.1 65,19.4 65.6,20.1 66.8,20.1 66.2,20.8 
			66.8,21.5 65.6,21.5 		"/>
		<polygon class="st1" points="60.4,21.1 59.8,20.4 58.6,20.4 59.2,19.7 58.6,19 59.8,19 60.4,18.3 60.9,19 62.1,19 61.5,19.7 
			62.1,20.4 60.9,20.4 		"/>
		<path class="st1" d="M80.8,36.8c3.5,0,9.6-0.8,9.6-4.6c0-0.4,0-1.2-0.3-1.6c-1.2,1.9-4.8,3-8.5,3c2.2,0,8.3-1.9,8.3-5.4
			c0-0.7-0.1-1.6-0.9-2.5c-1,1.4-4.3,3.9-7.5,4.8c5.2-3,6.2-5.6,6.2-7.3c0-2.2-0.9-2.9-2.2-4.2c-1.5,6.9-9.8,8.8-13.2,14.6
			c-0.8-0.6-1.3-1.3-1.2-2.5c0.6-6.7-2-7-4-7c-1.8,0-3,1.1-3.4,2.4c-0.3,0.6-2.7,0.9-2.3,2c0.8-0.3,2.3-0.6,2.9-0.7
			c0.1,0,0.3,0.2,0.2,0.2c-0.3,0.1-0.9,0.4-2.1,0.9c0.6,0.5,1.5,0.1,1.8,0c0.6-0.1,1,0,1.1,0.8c0.1,1.4-1.3,3.1-2.5,4.5
			c-3.1-6.3-12-8.2-13.6-15.3c-1.3,1.3-2.2,2-2.2,4.2c0,1.7,1,4.3,6.2,7.3c-3.2-0.9-6.5-3.5-7.5-4.8c-0.8,1-0.9,1.9-0.9,2.5
			c0,3.5,6.2,5.4,8.3,5.4c-3.7,0-7.3-1.1-8.5-3c-0.2,0.4-0.3,1.2-0.3,1.6c0,3.8,6.1,4.6,9.6,4.6c-0.7,0.2-1.2,0.3-2,0.3
			c-2.7,0-5-0.5-6.9-1.4c0,2.3,1.2,4.4,6.6,4.4c0.8,0,3,0,4-0.1c-1.8,0.6-3.4,0.9-5.2,0.9c-1.7,0-2.8-0.2-3.5-0.4
			c0,1.5,1.4,3.5,4.7,3.5c2,0,3.7-0.7,5.9-1.8c-2,1.8-4.2,2.7-7.6,2.7c0,1.3,1.4,2.5,4.3,2.5c2.4,0,4.9-1.1,7.7-4.8
			c0.2,2,0.7,3.8,1.3,5.3c-10,4.5-11.9,7.4-11.9,7.4s1.9,0.3,6.9-1.4c-3.6,3.8-3.9,5.4-3.9,5.4S56,59,60.2,56
			c-2.2,4.3-1.8,5.6-1.8,5.6s1.3-0.2,4.4-4c-0.8,4.6,0,5.4,0,5.4s1.1-0.3,3-4.6c0.5,4.7,1.5,5.3,1.5,5.3s1-0.6,1.5-5.2
			c1.8,4.3,3,4.6,3,4.6s0.8-0.8,0-5.4c3.1,3.8,4.4,4,4.4,4s0.4-1.3-1.8-5.6c4.3,3,5.9,3.1,5.9,3.1s-0.3-1.7-3.9-5.4
			c5.1,1.7,6.9,1.4,6.9,1.4s-1.9-2.9-11.9-7.4c0.6-1.5,1-3.3,1.3-5.3c2.8,3.7,5.3,4.8,7.7,4.8c2.8,0,4.3-1.2,4.3-2.5
			c-3.5,0-5.6-0.9-7.6-2.7c2.2,1.2,3.9,1.8,5.9,1.8c3.3,0,4.7-2,4.7-3.5c-0.7,0.2-1.8,0.4-3.5,0.4c-1.7,0-3.4-0.2-5.2-0.9
			c1,0.1,3.2,0.1,4,0.1c5.4,0,6.6-2,6.6-4.4c-1.9,0.9-4.2,1.4-6.9,1.4C82,37,81.5,37,80.8,36.8 M67.3,26.1c0.4,0,0.7,0.3,0.7,0.7
			c0,0.4-0.3,0.7-0.7,0.7c-0.4,0-0.7-0.3-0.7-0.7C66.6,26.4,66.9,26.1,67.3,26.1"/>
	</g>
</g>
<g id="SUND">
</g>
<g id="SAMF">
</g>
<g id="HUM">
</g>
<g id="JURA">
</g>
<g id="SCI">
</g>
<g id="KU">
</g>
</svg>
