<?xml version="1.0" standalone="no"?>
<!DOCTYPE svg PUBLIC "-//W3C//DTD SVG 1.1//EN" "http://www.w3.org/Graphics/SVG/1.1/DTD/svg11.dtd" >
<svg xmlns="http://www.w3.org/2000/svg">
<metadata>Generated by IcoMoon</metadata>
<defs>
<font id="KU" horiz-adv-x="1024">
<font-face units-per-em="1024" ascent="860.8406647116325" descent="-163.15933528836754" />
<missing-glyph horiz-adv-x="1024" />
<glyph unicode="&#x20;" horiz-adv-x="0" d="" />
<glyph unicode="&#x61;" glyph-name="arrow" horiz-adv-x="625" d="M24.572-156.997c0 0 314.707 512.5 314.707 512.5s-314.707 512.5-314.707 512.5c0 0 260.759 0 260.759 0s314.707-512.5 314.707-512.5c0 0-314.707-512.5-314.707-512.5s-260.759 0-260.759 0c0 0 0 0 0 0" />
<glyph unicode="&#x62;" glyph-name="vimeo" horiz-adv-x="787" d="M425.119 471.841c14.35 84.050 92.25 133.25 156.825 133.25 48.175 0 88.15-26.65 88.15-88.15 0-8.2 0-18.45-2.050-28.7-32.8-180.4-208.075-332.1-263.425-364.9-13.325-9.225-26.65-12.3-38.95-12.3-37.925 0-69.7 34.85-82 62.525-22.55 38.95-82 265.475-98.4 284.95-2.050 3.075-7.175 5.125-11.275 5.125-19.475 0-51.25-24.6-51.25-24.6l-26.65 29.725s92.25 114.8 171.175 131.2c4.1 1.025 8.2 2.050 12.3 2.050 66.625 0 67.65-127.1 86.1-195.775 16.4-72.775 29.725-114.8 46.125-114.8s46.125 38.95 78.925 101.475c10.25 17.425 14.35 33.825 14.35 48.175 0 25.625-15.375 44.075-39.975 44.075-11.275 0-24.6-4.1-39.975-13.325z" />
<glyph unicode="&#x63;" glyph-name="coursera" horiz-adv-x="774" d="M758.441 356.016c0-101.475-79.95-182.45-183.475-182.45-55.35 0-107.625 22.55-146.575 61.5-13.325 10.25-23.575 19.475-33.825 32.8l53.3 72.775c19.475-19.475 30.75-42.025 52.275-59.45 19.475-17.425 44.075-26.65 70.725-26.65 53.3 0 93.275 38.95 97.375 86.1 0 26.65-7.175 52.275-23.575 71.75s-42.025 32.8-68.675 32.8c-32.8 0-63.55-13.325-86.1-35.875-16.4-19.475-32.8-39.975-49.2-62.525-19.475-26.65-38.95-55.35-58.425-82-39.975-47.15-98.4-98.4-174.25-98.4-106.6 0-192.7 73.8-192.7 186.55 0 107.625 84.050 185.525 188.6 185.525 51.25 0 101.475-18.45 138.375-53.3l13.325-13.325v-3.075l-52.275-75.85-13.325 13.325c-16.4 16.4-33.825 29.725-56.375 35.875-10.25 5.125-21.525 7.175-32.8 7.175-57.4 0-96.35-46.125-96.35-101.475 0-49.2 45.1-90.2 93.275-90.2 71.75 0 107.625 58.425 138.375 102.5 19.475 29.725 35.875 55.35 55.35 82 33.825 53.3 96.35 102.5 174.25 102.5h11.275c102.5 0 181.425-87.125 181.425-188.6z" />
<glyph unicode="&#x64;" glyph-name="padlock" horiz-adv-x="768" d="M702.13 394.974h-636.274v-464.050h636.274v464.050zM423.857 143.809v-133.954h-80.53v133.954c-40.662 22.324-55.81 73.351-33.486 113.225s73.351 55.81 113.225 33.486 55.81-73.351 33.486-113.225c-7.176-14.351-18.338-26.311-32.689-33.486zM242.863 437.23c0 7.176-1.595 82.124 0.798 110.833 6.378 66.175 69.364 120.401 141.13 121.995 66.175 0.798 124.386-48.634 138.737-118.008 5.581-27.107 2.392-106.846 2.392-114.819h110.035c0 6.378 2.392 116.414-10.365 163.454-29.5 103.657-128.373 177.008-240.79 179.399-105.252 1.595-201.723-66.971-239.196-171.426-17.54-47.837-13.554-165.048-13.554-171.426h110.833z" />
<glyph unicode="&#x65;" glyph-name="exclamation" d="M465.979 609.573c32.208 0 60.834 0 93.044 0 0-116.297 0-232.592 0-350.679-30.418 0-60.834 0-93.044 0 0 116.297 0 232.592 0 350.679zM465.979 219.521c32.208 0 62.626 0 93.044 0 0-32.208 0-62.626 0-94.828-32.208 0-62.626 0-93.044 0 0 32.208 0 62.626 0 94.828zM897.18 357.294c0-212.91-173.548-386.466-384.68-386.466-212.91 0-384.68 171.758-384.68 384.68s169.967 382.889 384.68 384.68c209.339 1.791 384.68-171.758 384.68-382.889zM811.296 355.503c0 166.399-132.4 298.796-298.796 298.796-164.609 0-298.796-132.4-298.796-297.010 0-166.399 130.61-298.796 297.010-300.58s300.58 132.4 300.58 298.796z" />
<glyph unicode="&#x66;" glyph-name="facebook" horiz-adv-x="945" d="M530.438-155.972h-134.275v332.1h-111.725v128.125h114.8v95.325c0 111.725 69.7 171.175 168.1 171.175 9.225 1.025 19.475 1.025 28.7 1.025 23.575 0 46.125-3.075 69.7-5.125v-117.875h-69.7c-55.35 0-65.6-26.65-65.6-62.525v-82h128.125l-16.4-128.125h-111.725v-332.1z" />
<glyph unicode="&#x69;" glyph-name="instagram" horiz-adv-x="759" d="M600.678 630.057c29.951-3.328 49.919-29.951 53.247-63.231v-432.63c-6.655-29.951-33.279-53.246-63.231-53.246h-429.302c-26.623 6.655-46.59 23.295-53.247 49.919-3.327 3.327-3.327 6.655-3.327 9.984v432.63c3.327 23.295 23.295 46.59 46.59 53.246 3.328 3.328 9.984 3.328 13.312 3.328h435.958zM377.707 463.66c-56.575 0-103.166-46.59-106.494-106.494 0-59.903 49.919-106.494 106.494-106.494 59.902 0 106.494 46.59 106.494 106.494s-49.92 106.494-106.494 106.494zM381.035 187.442c-91.734 0-171.337 76.382-171.337 167.614 0 13.986 1.664 28.116 4.941 42.046h-46.591v-229.627c3.328-9.984 13.312-19.967 23.296-19.967h382.712c9.984 0 16.639 9.984 16.639 19.967v232.954h-46.59c3.803-15.213 5.705-30.426 5.705-45.328 0-37.257-11.886-72.575-35.656-101.1-29.951-43.263-79.871-66.559-133.117-66.559zM590.694 483.628v59.902c0 9.984-9.984 19.967-19.967 19.967h-63.231c-9.984 0-19.967-9.984-19.967-19.967v-63.23c0-9.984 9.984-19.967 19.967-19.967h63.231c9.984 3.327 19.967 13.311 19.967 23.295z" />
<glyph unicode="&#x6b;" glyph-name="ku-logo" horiz-adv-x="558" d="M555.242 533.377c0-113.411-91.99-205.3-205.2-205.3-113.511 0-205.401 91.89-205.401 205.3s91.89 205.501 205.401 205.501c113.211 0 205.2-92.090 205.2-205.501zM197.092 233.584c0-53.752-43.643-97.395-97.395-97.395s-97.395 43.643-97.395 97.395c0 53.853 43.643 97.395 97.395 97.395 53.853 0 97.395-43.643 97.395-97.395zM400.992 24.981c0-28.027-22.922-50.85-50.85-50.85-28.027 0-50.95 22.722-50.95 50.85s22.822 50.85 50.95 50.85c27.827 0 50.85-22.822 50.85-50.85z" />
<glyph unicode="&#x6c;" glyph-name="linkedin" horiz-adv-x="609" d="M27.614 65.48v386.311h119.49v-386.311h-119.49zM86.779 645.527c37.123 0 70.766-30.162 70.766-70.766s-30.162-70.766-70.766-70.766-70.766 30.162-70.766 70.766 33.643 70.766 70.766 70.766zM221.349 65.48l-4.641 386.311h116.010v-52.204c20.881 38.283 60.325 63.805 105.569 63.805h9.281c122.97 0 145.013-81.207 145.013-185.615v-212.297h-118.33v185.615c0 48.725-4.641 104.409-63.805 104.409s-70.766-48.725-70.766-100.929v-189.096h-118.33z" />
<glyph unicode="&#x6d;" glyph-name="radio-button" horiz-adv-x="957" d="M483.478-10.959h-10.21c-55.405 0-109.296 10.778-160.069 32.050-48.976 20.517-93.034 49.921-131.042 87.361-37.914 37.441-67.885 81.121-89.158 129.813-21.84 50.3-33.376 103.811-34.132 159.122v0.946c0.756 55.405 12.292 109.108 34.226 159.596 21.179 48.786 51.15 92.466 89.064 130.001s82.068 66.938 131.042 87.455c50.676 21.273 104.57 32.050 159.972 32.050h5.39v-0.094h4.917c55.405 0 109.296-10.778 160.069-32.050 48.976-20.517 93.034-49.921 131.042-87.361 37.914-37.441 67.885-81.121 89.064-129.813 21.934-50.394 33.471-103.908 34.226-159.216v-0.946c-0.756-55.405-12.292-109.108-34.226-159.502-21.179-48.786-51.15-92.466-89.064-129.907-38.008-37.535-82.068-66.938-131.042-87.455-50.771-21.273-104.57-32.050-160.069-32.050zM123.349 397.861c1.417-92.184 38.387-178.693 104.097-243.458 65.9-65.048 153.168-100.788 245.728-100.788h10.21c92.56 0 179.828 35.832 245.728 100.883 65.709 64.953 102.679 151.559 104.191 244.025-1.417 92.184-38.482 178.693-104.097 243.458-65.9 65.048-153.168 100.788-245.728 100.788h-5.105v0.094h-5.199c-92.56 0-179.828-35.832-245.634-100.883-65.804-64.953-102.773-151.653-104.191-244.119z" />
<glyph unicode="&#x6f;" glyph-name="conversation" horiz-adv-x="668" d="M647.476 365.241v-10.25c0-111.725-92.25-202.95-203.975-202.95h-144.525c-43.050 0-85.075 12.3-120.95 38.95l-157.85-49.2 108.65 101.475c-22.55 32.8-32.8 72.775-32.8 111.725v10.25c0 111.725 91.225 203.975 202.95 203.975h150.675c111.725 0 197.825-91.225 197.825-203.975zM443.501 493.366h-147.6c-59.45 0-108.65-49.2-108.65-108.65v-46.125c0-62.525 49.2-111.725 111.725-111.725h148.625c62.525 0 107.625 49.2 107.625 111.725v46.125c0 59.45-49.2 108.65-111.725 108.65z" />
<glyph unicode="&#x70;" glyph-name="phone" horiz-adv-x="526" d="M113.619 657.879h292.125c22.55 0 43.050-20.5 46.125-43.050v-518.65c0-22.55-19.475-43.050-43.050-43.050h-292.125c-20.5 0-43.050 19.475-43.050 43.050v518.65c0 22.55 17.425 43.050 39.975 43.050zM294.019 89.003c10.25 0 13.325 9.225 13.325 19.475v17.425c3.075 10.25-3.075 16.4-13.325 19.475h-62.525c-10.25 0-13.325-9.225-13.325-19.475v-17.425c-3.075-10.25 3.075-16.4 13.325-19.475h62.525zM136.169 200.728h250.1v394.625h-250.1v-394.625z" />
<glyph unicode="&#x71;" glyph-name="quote" horiz-adv-x="558" d="M0.801 716.856c0 0-0.2-142.839 0.2-208.203 0.2-36.536-0.5-73.171 11.411-108.706 20.52-61.26 64.563-99.297 121.719-124.522 32.432-14.314 66.665-21.421 102-23.823 2.002-0.1 4.004 0.3 6.707 0.5 0 38.337 0 76.174 0 114.312-14.714 3.003-30.029 4.504-44.143 9.509-16.216 5.706-32.231 13.013-46.646 22.322-24.524 15.715-37.437 46.545-34.133 76.274l125.923 0.2v242.136h-243.037zM314.507 716.856c0 0-0.2-142.839 0.2-208.203 0.2-36.536-0.5-73.171 11.411-108.706 20.52-61.26 64.563-99.297 121.719-124.522 32.432-14.314 66.665-21.421 102-23.823 2.002-0.1 4.004 0.3 6.707 0.5 0 38.337 0 76.174 0 114.312-14.714 3.003-30.029 4.504-44.143 9.509-16.216 5.706-32.231 13.013-46.646 22.322-24.524 15.715-37.437 46.545-34.133 76.274h125.923v242.337h-243.037z" />
<glyph unicode="&#x72;" glyph-name="rss" horiz-adv-x="775" d="M189.041 227.378c38.95 0 71.75-32.8 71.75-71.75s-32.8-72.775-71.75-72.775-72.775 33.825-72.775 72.775 33.825 71.75 72.775 71.75zM296.666 263.253c-48.175 48.175-109.675 74.825-177.325 75.85v105.575c196.8-3.075 358.75-165.025 358.75-361.825h-105.575c0 68.675-26.65 131.2-75.85 180.4zM116.266 522.579v105.575c299.3-3.075 542.226-246 542.226-545.301h-105.575c0 242.925-193.725 439.725-436.65 439.725z" />
<glyph unicode="&#x73;" glyph-name="radio-button-active" horiz-adv-x="957" d="M483.478-10.959h-10.21c-55.405 0-109.296 10.778-160.069 32.050-48.976 20.517-93.034 49.921-131.042 87.361-37.914 37.441-67.885 81.121-89.158 129.813-21.84 50.3-33.376 103.811-34.132 159.122v0.946c0.756 55.405 12.292 109.108 34.226 159.596 21.179 48.786 51.15 92.466 89.064 130.001s82.068 66.938 131.042 87.455c50.676 21.273 104.57 32.050 159.972 32.050h5.39v-0.094h4.917c55.405 0 109.296-10.778 160.069-32.050 48.976-20.517 93.034-49.921 131.042-87.361 37.914-37.441 67.885-81.121 89.064-129.813 21.934-50.394 33.471-103.908 34.226-159.216v-0.946c-0.756-55.405-12.292-109.108-34.226-159.502-21.179-48.786-51.15-92.466-89.064-129.907-38.008-37.535-82.068-66.938-131.042-87.455-50.771-21.273-104.57-32.050-160.069-32.050zM123.349 397.861c1.417-92.184 38.387-178.693 104.097-243.458 65.9-65.048 153.168-100.788 245.728-100.788h10.21c92.56 0 179.828 35.832 245.728 100.883 65.709 64.953 102.679 151.559 104.191 244.025-1.417 92.184-38.482 178.693-104.097 243.458-65.9 65.048-153.168 100.788-245.728 100.788h-5.105v0.094h-5.199c-92.56 0-179.828-35.832-245.634-100.883-65.804-64.953-102.773-151.653-104.191-244.119zM477.144 525.027c67.697-2.079 121.776-57.39 121.776-125.369 0-69.303-56.161-125.369-125.369-125.369s-125.369 56.161-125.369 125.369v0c1.041 69.491 57.578 125.369 127.166 125.369 0.662 0 1.323 0 2.079 0h-0.282z" />
<glyph unicode="&#x74;" glyph-name="twitter" horiz-adv-x="824" d="M739.41 576.263c-16.4-26.65-38.95-49.2-68.675-65.6v-16.4c0-72.775-20.5-140.425-59.45-199.875-68.675-106.6-183.475-164-301.35-164-67.65 0-136.325 18.45-197.825 58.425 11.275-2.050 23.575-2.050 34.85-2.050 56.375 0 111.725 18.45 155.8 54.325-52.275 0-101.475 36.9-117.875 89.175 8.2-1.025 15.375-2.050 23.575-2.050 11.275 0 23.575 1.025 34.85 5.125-59.45 13.325-101.475 65.6-101.475 128.125 19.475-10.25 39.975-16.4 59.45-16.4-36.9 25.625-56.375 65.6-56.375 106.6 0 21.525 5.125 44.075 16.4 64.575 65.6-82 160.925-129.15 262.4-135.3-2.050 9.225-3.075 19.475-3.075 28.7 0 34.85 14.35 69.7 39.975 93.275 25.625 22.55 56.375 33.825 88.15 33.825 33.825 0 66.625-14.35 92.25-41 29.725 3.075 55.35 13.325 82 29.725-10.25-29.725-28.7-52.275-55.35-68.675 22.55 3.075 49.2 9.225 71.75 19.475z" />
<glyph unicode="&#x75;" glyph-name="futurity" horiz-adv-x="770" d="M292.113 508.741c-9.225 3.075-16.4-3.075-16.4-9.225l-137.35-201.925c-3.075-3.075-10.25-6.15-16.4-6.15h-83.025c0 3.075 3.075 3.075 3.075 6.15l256.25 381.3c3.075 3.075 6.15 6.15 9.225 6.15h209.1c0-6.15-4.1-6.15-4.1-9.225l-105.575-159.9c-3.075-3.075-9.225-7.175-15.375-7.175h-99.425zM516.588 252.491c-3.075-6.15-10.25-6.15-13.325-6.15h-102.5c-6.15 0-12.3-3.075-15.375-9.225-16.4-25.625-31.775-48.175-48.175-73.8-3.075-3.075-7.175-6.15-10.25-6.15h-89.175l6.15 9.225c54.325 79.95 108.65 164 162.975 243.95 3.075 6.15 10.25 9.225 16.4 9.225h205l-6.15-9.225c-34.85-51.25-70.725-106.6-105.575-157.85zM528.888 154.091c0 0 195.912 0 195.912 2.939 0 0.045-0.045 0.090-0.137 0.136h6.15l-31.775-48.175c-16.4-25.625-34.85-51.25-51.25-76.875 0-3.075-7.175-6.15-10.25-6.15h-205c27.675 39.975 56.375 79.95 84.050 120.95 3.075 3.075 6.15 7.175 12.3 7.175z" />
<glyph unicode="&#x76;" glyph-name="video" horiz-adv-x="500" d="M105.975 614.316c12.3 0 28.7-5.125 46.125-16.4 101.475-62.525 207.050-128.125 308.525-193.725 24.6-16.4 36.9-32.8 36.9-48.175s-12.3-30.75-36.9-47.15c-101.475-65.6-206.025-131.2-311.6-196.8-16.4-9.225-30.75-15.375-42.025-15.375-23.575 0-36.9 19.475-36.9 57.4v203.975c-3.075 65.6-3.075 128.125-3.075 193.725 0 41 14.35 62.525 38.95 62.525z" />
<glyph unicode="&#x78;" glyph-name="menu_arrow" horiz-adv-x="574" d="M12.659-160h240.34l320.528 503.249-0.405 0.27-332.556 520.481h-240.565l332.939-521.111-320.28-502.889z" />
<glyph unicode="&#x79;" glyph-name="youtube" horiz-adv-x="718" d="M612.31 335.26v-6.15c0-35.875-4.1-72.775-7.175-111.725-3.075-32.8-29.725-56.375-62.525-59.45-19.475-3.075-110.7-6.15-183.475-6.15s-164 3.075-183.475 6.15c-32.8 3.075-56.375 26.65-59.45 59.45-3.075 35.875-7.175 72.775-7.175 111.725v6.15c0 35.875 4.1 72.775 7.175 111.725 3.075 32.8 29.725 56.375 62.525 59.45 19.475 3.075 110.7 7.175 183.475 7.175s165.025-4.1 184.5-7.175c32.8-3.075 56.375-26.65 62.525-59.45 0-38.95 3.075-75.85 3.075-111.725zM470.86 335.26l-187.575 99.425v-200.9z" />
</font>
</defs>
</svg>
