<?xml version="1.0" encoding="utf-8"?>
<!-- Generator: Adobe Illustrator 19.2.1, SVG Export Plug-In . SVG Version: 6.00 Build 0)  -->
<svg version="1.1" id="Layer_1" xmlns="http://www.w3.org/2000/svg" xmlns:xlink="http://www.w3.org/1999/xlink" x="0px" y="0px"
	 viewBox="0 0 69.2 69.8" style="enable-background:new 0 0 69.2 69.8;" xml:space="preserve">
<style type="text/css">
	.st0{fill:none;stroke:#FFFFFF;stroke-width:0.5;}
	.st1{fill:#FFFFFF;}
</style>
<g>
	<g>
		<path class="st0" d="M67.8,35.2c0,18.5-15,33.5-33.5,33.5c-18.5,0-33.5-15-33.5-33.5c0-18.5,15-33.5,33.5-33.5
			C52.8,1.7,67.8,16.7,67.8,35.2z"/>
		<g>
			<g>
				<g>
					<g>
						<polygon class="st1" points="61,22.4 61,22.4 61,22.4 						"/>
						<path class="st1" d="M19.5,61.5L19.5,61.5L19.5,61.5z"/>
						<polygon class="st1" points="58.3,17.9 58.3,17.9 58.3,17.9 						"/>
						<path class="st1" d="M29.3,65L29.3,65L29.3,65z"/>
						<path class="st1" d="M29.3,65L29.3,65L29.3,65z"/>
						<path class="st1" d="M56,33.9c0,0,0-0.1,0-0.1c0-0.2,0.1-0.4,0.4-0.4c0.1,0,0.4,0,0.5,0c0,0.1,0,0.7,0.1,0.8
							c0.1,0,0.2,0,0.3,0c0-0.1-0.1-0.7-0.1-0.8c0.1,0,0.7-0.1,0.8-0.1c0.1,0,0.1,0,0.1,0.1c0,0.1,0,0.3,0,0.6
							c0,0.4-0.4,0.5-0.6,0.5c0,0.1,0,0.2,0,0.3c0.2,0,0.6-0.1,0.8-0.1c0-1-0.1-1.6-0.2-2.4c-0.1,0-0.2,0-0.2,0c0,0,0,0,0,0.1
							c0,0.3-0.2,0.3-0.5,0.3c-0.2,0-0.7,0.1-1.1,0.1c-0.5,0.1-0.5,0-0.6-0.2c0,0,0,0,0-0.1c-0.1,0-0.2,0-0.2,0
							c0.1,0.4,0.1,0.9,0.1,1.4C55.8,33.9,55.9,33.9,56,33.9z"/>
						<path class="st1" d="M18.4,49.7c0,0,0.1,0.1,0.1,0.1c0.1,0.2,0.2,0.3-0.1,0.6c-0.1,0.1-0.3,0.3-0.4,0.4
							c-0.1-0.1-0.5-0.5-0.5-0.6c-0.1,0-0.2,0.1-0.2,0.2c0,0.1,0.5,0.5,0.5,0.6c-0.1,0.1-0.5,0.5-0.6,0.6c-0.1,0.1-0.1,0.1-0.2,0
							c-0.1-0.1-0.2-0.2-0.4-0.4c-0.3-0.3,0-0.6,0.1-0.8c0-0.1-0.1-0.2-0.2-0.2c-0.2,0.1-0.4,0.4-0.6,0.6c0.7,0.8,1,1.2,1.6,1.7
							c0.1,0,0.1-0.1,0.2-0.2c0,0,0,0-0.1-0.1c-0.2-0.2,0-0.4,0.2-0.6c0.2-0.2,0.5-0.5,0.8-0.8c0.4-0.4,0.4-0.3,0.6-0.2
							c0,0,0,0,0.1,0.1c0.1,0,0.1-0.1,0.2-0.2c-0.3-0.3-0.6-0.6-1-1C18.5,49.6,18.4,49.7,18.4,49.7z"/>
						<path class="st1" d="M56.2,37.2c0.9-0.2,1-0.3,1.7-0.4c0.2-0.1,0.4-0.1,0.4,0.1c0,0.1,0,0.1,0,0.1c0.1,0.1,0.2,0.1,0.2,0
							c0-0.4,0.1-0.8,0.1-1.3c-0.1-0.1-0.2-0.1-0.2,0c0,0,0,0.1,0,0.2c-0.1,0.2-0.1,0.3-0.4,0.3c-0.2,0-2.1,0.5-2.2,0.5
							c0,0,0,0,0,0.1c0,0,0.1,0.4,0.1,0.5c0.6,0.3,1.6,0.8,1.9,1c0.4,0.2,0.4,0.3,0.4,0.4c0,0.1,0,0.1,0,0.1c0,0.1,0.2,0.1,0.2,0
							c0-0.3,0.1-0.8,0.1-1.1c0-0.1-0.2-0.1-0.2,0c0,0,0,0.1,0,0.1c0,0.1-0.1,0.2-0.4,0.1C57.2,37.7,56.7,37.4,56.2,37.2z"/>
						<path class="st1" d="M50.8,21.4c0-0.1,0.1-0.1,0.2-0.2c0,0,0.1,0.1,0.1,0.1c0.2,0.2,0.2,0.2,0.6-0.1c0.2-0.2,0.7-0.6,0.9-0.7
							c0.2-0.1,0.4-0.3,0.3-0.5c0,0-0.1-0.1-0.1-0.1c0-0.1,0.1-0.2,0.2-0.1c0.3,0.4,0.7,0.8,0.9,1.1c0,0.1-0.1,0.1-0.2,0.1
							c0,0-0.1-0.1-0.1-0.1c-0.2-0.2-0.4-0.1-0.6,0.1c-0.3,0.3-0.7,0.5-0.9,0.7c-0.3,0.2-0.4,0.3-0.3,0.6c0,0,0.1,0.1,0.1,0.2
							c0,0.1-0.1,0.1-0.2,0.1C51.4,22.1,51,21.7,50.8,21.4z"/>
						<path class="st1" d="M14.1,28.2c-0.1,0-0.2,0-0.2-0.1c0,0,0-0.1,0-0.2c0-0.2,0-0.3-0.4-0.5c-0.3-0.1-0.8-0.3-1.1-0.4
							c-0.2-0.1-0.5-0.2-0.6,0.1c0,0,0,0.1-0.1,0.1c-0.1,0-0.2,0-0.2-0.1c0.2-0.5,0.4-1,0.5-1.3c0.1,0,0.2,0,0.2,0.1
							c0,0.1,0,0.1,0,0.1c-0.1,0.3,0.1,0.4,0.4,0.5c0.4,0.1,0.8,0.3,1.1,0.4c0.4,0.1,0.5,0.2,0.6,0c0,0,0.1-0.1,0.1-0.2
							c0.1,0,0.2,0,0.2,0.1C14.5,27.1,14.2,27.8,14.1,28.2z"/>
						<path class="st1" d="M52.6,24c0-0.1,0.1-0.2,0.2-0.1c0,0,0.1,0.1,0.1,0.1c0,0,0.1,0.2,0.3,0.1c0.2-0.1,0.3-0.1,0.3-0.2
							c-0.1-0.1-0.4-0.7-0.7-1.1c0-0.1,0-0.2,0.1-0.2c0.1,0,2.6,0.4,2.7,0.4c0.1,0.1,0,0.2,0,0.3c-0.1,0-2.2-0.3-2.3-0.3
							c0.2,0.3,0.4,0.6,0.5,0.8c0.1-0.1,0.4-0.2,0.6-0.3c0,0,0,0,0.1,0c0.1,0.1,0.2,0.2,0.3,0.3c0,0,0,0,0,0.1
							c-0.2,0.1-0.6,0.3-0.7,0.4c0.1,0.1,0.2,0.4,0.2,0.4c0,0.1-0.2,0.2-0.3,0.1c0,0-0.2-0.3-0.2-0.4c-0.1,0-0.2,0.1-0.4,0.2
							c-0.1,0.1,0,0.2,0,0.3c0,0.1,0.1,0.1,0.1,0.2c0,0.1-0.1,0.1-0.2,0.1C53.1,24.7,52.9,24.4,52.6,24z"/>
						<path class="st1" d="M53.6,26.5c-0.1-0.1-0.1-0.2,0-0.3c0.1,0,2.5,0.1,2.7,0.1c-0.1-0.3-0.3-0.7-0.4-0.9
							c-0.1-0.2-0.2-0.2-0.4-0.2c-0.1,0-0.1,0-0.1,0c-0.1,0-0.1-0.2,0-0.2c0.1,0,0.6-0.1,0.8-0.1c0,0.1,0.1,0.2,0.1,0.3
							c0,0.1,0.4,0.9,0.4,1.1c0.1,0.1,0.1,0.3,0.2,0.4c0,0.1-0.1,0.1-0.1,0.1c-0.2-0.1-0.4-0.1-0.5-0.1
							C56.3,26.6,53.8,26.5,53.6,26.5z"/>
						<path class="st1" d="M18,21.8c0,0.1-0.2,0.2-0.3,0.1c-0.1-0.1-1.1-2.2-1.2-2.4c-0.2,0.2-0.5,0.6-0.6,0.8
							c-0.1,0.2-0.1,0.3,0,0.4c0,0.1,0,0.1,0.1,0.1c0,0.1-0.1,0.2-0.2,0.1c-0.1-0.1-0.4-0.6-0.5-0.7c0.1-0.1,0.1-0.2,0.2-0.2
							c0.1-0.1,0.6-0.8,0.7-0.9c0.1-0.1,0.2-0.3,0.3-0.4c0.1,0,0.1,0,0.2,0c0,0.2,0.1,0.3,0.1,0.4C16.8,19.4,17.9,21.6,18,21.8z"/>
						<path class="st1" d="M54.5,28.6c0-0.1,0.1-0.1,0.2-0.1c0.1,0.3,0.4,0.6,0.7,0.8c0.4,0.2,0.8,0.3,1.3,0.2
							c0.5-0.1,0.9-0.4,0.8-0.8c-0.2-0.4-0.5-0.3-0.7-0.2c-0.5,0.2-0.5,0.5-0.4,0.8c0,0.1-0.1,0.1-0.2,0.1c-0.1,0-0.2-0.2-0.3-0.5
							c-0.1-0.5,0.3-0.8,0.5-0.9c0.6-0.2,1.1,0.2,1.2,0.6c0.2,0.6,0,1.3-0.9,1.5C55.8,30.3,54.8,29.6,54.5,28.6z"/>
						<path class="st1" d="M56.3,44.7c0,0,0,0.1-0.1,0.1c-0.1,0.1-0.2,0.2-0.5,0l-1.2-0.5c-0.4-0.2-0.4-0.2-0.3-0.4l0-0.1
							c0-0.1-0.1-0.1-0.2-0.1l-0.2,0.6l-0.3,0.6c-0.3,0.6-0.5,1.5,0.4,2c0.7,0.5,1.5,0.3,2.1-0.9c0.2-0.4,0.4-0.8,0.5-1.1
							C56.5,44.7,56.4,44.7,56.3,44.7z M55.8,45.6c0,0,0,0.1-0.1,0.2c-0.3,0.6-0.9,0.9-1.5,0.6c-0.5-0.3-0.6-0.6-0.7-0.9
							c0-0.2,0-0.4,0.1-0.6c0.1-0.2,0.1-0.2,0.2-0.3c0.1,0,0.3,0,0.4,0.1c0,0,1.4,0.7,1.4,0.7C55.8,45.5,55.8,45.5,55.8,45.6z"/>
						<path class="st1" d="M51.1,51.4c0.1,0.1,0.1,0.2,0.1,0.3c0,0.1,0,0.3-0.2,0.4c0,0-0.1,0.1-0.3,0.2c0,0-0.9-1-1.1-1.2
							c-0.3-0.3-0.3-0.4-0.2-0.6c0,0,0-0.1,0.1-0.1c0-0.1-0.1-0.2-0.2-0.2c-0.3,0.3-0.7,0.7-0.9,0.9c0,0.1,0.1,0.2,0.1,0.2
							c0,0,0.1-0.1,0.1-0.1c0.2-0.1,0.3-0.1,0.6,0.2c0.2,0.2,1.1,1.2,1.1,1.2c-0.1,0.1-0.3,0.3-0.3,0.3c-0.2,0.2-0.4,0-0.4,0
							c-0.1,0-0.1-0.1-0.2-0.1c-0.1,0-0.2,0.1-0.2,0.2c0.1,0.1,0.4,0.5,0.5,0.6c0.8-0.7,1.2-1.1,1.9-1.8c0,0-0.3-0.6-0.4-0.6
							C51.3,51.3,51.2,51.3,51.1,51.4z"/>
						<path class="st1" d="M51.6,47.9c0,0.1,0.1,0.1,0.2,0.1c0,0,0,0,0.1-0.1c0.1-0.2,0.2-0.1,0.3,0.2c0.1,0.1,0.1,0.2,0.2,0.3
							c-0.1,0.1-0.5,0.7-0.6,0.8c-0.1,0-0.1,0-0.3-0.1c-0.2-0.1-0.3-0.1-0.2-0.3c0,0,0,0,0.1-0.1c0-0.1-0.1-0.2-0.2-0.1
							c-0.1,0.1-0.4,0.5-0.7,0.9c0,0.1,0.1,0.2,0.2,0.2c0,0,0.1-0.1,0.1-0.1c0.2-0.2,0.4-0.1,0.6,0c0.2,0.1,2.1,0.7,2.2,0.7
							c0,0,0.1,0,0.1,0c0,0,0.1-0.3,0.1-0.4c-0.1-0.1-0.9-1.5-1.1-1.9c-0.2-0.4-0.2-0.5-0.1-0.6c0-0.1,0-0.1,0.1-0.1
							c0-0.1-0.1-0.1-0.2-0.1C52.1,47.2,51.6,47.8,51.6,47.9z M53,49.6l-1.1-0.4l0.5-0.6L53,49.6z"/>
						<path class="st1" d="M11,35.7c-0.1,0-0.2,0-0.3-0.1c-0.1-0.1-0.2-0.2-0.2-0.4c0-0.1,0-0.2,0-0.4c0,0,1.3,0,1.6,0
							c0.5,0,0.5,0,0.6,0.3c0,0,0,0.1,0,0.1c0,0,0.2,0,0.2,0c0-0.4,0-1,0-1.3c-0.1,0-0.2-0.1-0.2,0c0,0.1,0,0.1,0,0.1
							c0,0.2-0.2,0.3-0.6,0.3c-0.2,0-1.6,0-1.6,0c0-0.2,0-0.4,0-0.5c0-0.2,0.2-0.3,0.3-0.3c0.1,0,0.1,0,0.2,0c0.1-0.1,0-0.2,0-0.2
							c-0.1,0-0.6,0-0.8,0c-0.1,1-0.1,1.6-0.1,2.6c0,0,0.6,0.2,0.7,0.2C11,35.9,11,35.8,11,35.7z"/>
						<path class="st1" d="M13.1,37.9c-0.1-0.1-0.2,0-0.2,0c0,0,0,0,0,0.1c0,0.2-0.1,0.2-0.3,0.1c-0.2,0-0.2-0.1-0.3-0.1
							c0-0.1-0.1-0.8-0.1-1c0.1,0,0.1,0,0.3-0.1c0.2-0.1,0.3-0.2,0.3,0.1c0,0.1,0,0.1,0,0.1c0.1,0.1,0.2,0,0.2,0
							c0-0.2,0-0.6-0.1-1.2c-0.1-0.1-0.2,0-0.2,0c0,0,0,0.1,0,0.2c0,0.3-0.3,0.3-0.4,0.4c-0.2,0.1-2,1-2,1c0,0,0,0,0,0.1
							c0,0,0.1,0.3,0.2,0.3c0.1,0,1.7,0.5,2.1,0.6c0.4,0.1,0.5,0.2,0.5,0.3c0,0.1,0,0.1,0,0.1c0.1,0,0.2,0,0.2,0
							C13.2,38.7,13.1,38,13.1,37.9z M10.9,37.7l1-0.5L12,38L10.9,37.7z"/>
						<path class="st1" d="M16.9,47.3c-0.3-0.4-0.6-0.6-1-0.7c-0.4-0.1-0.8,0-1.1,0.2c-0.3,0.2-0.6,0.6-0.6,0.9
							c-0.1,0.4,0,0.8,0.3,1.2c0.5,0.8,1.4,1,2.1,0.5c0.3-0.2,0.5-0.5,0.6-0.9C17.3,48.2,17.2,47.7,16.9,47.3z M16.1,49
							c-0.3,0.2-0.6,0.3-0.9,0.2c-0.2,0-0.4-0.2-0.5-0.4c-0.1-0.2-0.2-0.4-0.1-0.6c0.1-0.3,0.3-0.6,0.7-0.9c0.6-0.4,1.1-0.4,1.4,0.1
							C17,48.1,16.6,48.6,16.1,49z"/>
						<path class="st1" d="M21.9,52.5c0,0.1-0.1,0.2-0.1,0.2c0,0,0,0-0.1,0c-0.2-0.1-0.3-0.1-0.6,0.3c-0.2,0.3-0.5,0.7-0.7,0.9
							c-0.2,0.3-0.3,0.4-0.1,0.6c0,0,0.1,0.1,0.1,0.1c0,0.1-0.1,0.2-0.1,0.2c-0.4-0.3-1.1-0.8-1.8-1.5c0.1-0.2,0.3-0.4,0.4-0.6
							c0.1,0,0.2,0,0.2,0.1c0,0.1-0.1,0.1-0.1,0.2c0,0.1-0.1,0.3,0.1,0.4c0.2,0.2,0.4,0.3,0.5,0.4c0.1,0.1,0.1,0,0.2,0
							c0.1-0.1,0.5-0.6,0.5-0.6c-0.1-0.1-0.6-0.5-0.6-0.5c0-0.1,0.1-0.2,0.2-0.2c0.1,0.1,0.5,0.4,0.6,0.5c0,0,0.3-0.4,0.3-0.4
							c0.3-0.3,0.2-0.4,0-0.6c-0.1-0.1-0.2-0.1-0.2-0.2c-0.2-0.1-0.4-0.1-0.6,0c-0.1,0-0.1,0.1-0.2,0.1c-0.1,0-0.2-0.1-0.2-0.2
							c0.1-0.1,0.5-0.4,0.6-0.5C20.6,51.6,21.2,52.1,21.9,52.5z"/>
						<path class="st1" d="M13.8,41.9c0-0.1,0.1-0.1,0.2-0.1c0.1,0.4,0.2,0.6,0.4,1c0,0.1-0.1,0.1-0.2,0.1c0,0,0-0.1,0-0.1
							c-0.1-0.1-0.1-0.2-0.6-0.2c-0.3,0-1.1,0.2-1.2,0.2c-0.3,0.1-0.5,0.1-0.4,0.4c0,0.1,0,0.1,0,0.1c0,0.1-0.1,0.1-0.2,0.1
							c-0.1-0.4-0.2-0.6-0.4-1c0.1,0,0.3-0.1,0.4-0.3c0.2-0.2,0.9-0.7,1.2-1c-0.2-0.1-1.4-0.2-1.5-0.3c-0.2,0-0.4-0.1-0.6,0
							c0-0.2-0.2-0.7-0.2-1c0-0.1,0.2-0.1,0.2,0c0,0.1,0,0.1,0,0.1c0.1,0.2,0.1,0.2,0.4,0.1c0.4-0.1,0.9-0.3,1.2-0.4
							c0.4-0.1,0.5-0.2,0.5-0.4c0-0.1,0-0.1,0-0.2c0-0.1,0.2-0.1,0.2,0c0.1,0.6,0.2,0.9,0.3,1.2c0,0.1-0.2,0.1-0.2,0.1
							c0,0,0-0.1,0-0.1c-0.1-0.2-0.1-0.3-0.5-0.1c-0.4,0.1-1.2,0.4-1.4,0.5c0.3,0.1,1.2,0.2,1.6,0.3c0.5,0.1,0.6,0.1,0.8,0.1
							c0,0,0.1,0.1,0.1,0.2c-0.1,0-0.3,0.2-0.6,0.5c-0.3,0.3-1,0.9-1.2,1c0.3-0.1,1.1-0.2,1.3-0.3c0.3-0.1,0.6-0.1,0.5-0.4"/>
						<path class="st1" d="M55.3,39.5c0.1-0.1,0.2,0,0.2,0c0,0,0,0.1,0,0.1c0,0.2,0.1,0.3,0.5,0.4c0.4,0.1,0.8,0.2,1.1,0.2
							c0.3,0.1,0.5,0.1,0.6-0.1c0,0,0-0.1,0-0.1c0.1,0,0.2,0,0.2,0c0,0.2-0.1,0.6-0.2,0.8c0,0,0,0.1,0,0.1c-0.1,0-0.1,0-0.3,0.1
							c-0.1,0-1.9,0.9-2.1,1c0.2,0.1,0.9,0.3,1.1,0.4c0.4,0.1,0.5,0.2,0.6-0.1c0,0,0-0.1,0.1-0.1c0.1,0,0.2,0,0.2,0.1
							c-0.1,0.4-0.3,0.8-0.4,1.1c-0.1,0-0.2,0-0.2-0.1c0,0,0-0.1,0-0.1c0.1-0.2,0-0.3-0.4-0.4c-0.3-0.1-1.7-0.6-1.8-0.6
							c0,0-0.1-0.1,0-0.2c0.4-0.2,2.6-1.3,2.7-1.4c-0.2,0-1.1-0.2-1.4-0.3c-0.4-0.1-0.5,0-0.6,0.1c0,0.1,0,0.1,0,0.1
							c-0.1,0-0.2,0-0.2-0.1C55.2,40.2,55.3,39.6,55.3,39.5z"/>
						<path class="st1" d="M10.4,31.8c0.1,0,0.3,0.1,0.6,0.2c0,0,1.3,0.8,1.5,1c0.2,0.2,0.2,0.3,0.2,0.3c0,0,0,0.1,0,0.1
							c0.1,0.1,0.2,0.1,0.2,0c0-0.1,0-0.6,0.1-0.9c0-0.1-0.2-0.1-0.2,0c0,0.1,0,0.1,0,0.1c0,0.1-0.1,0.1-0.2,0
							c-0.1-0.1-0.4-0.3-0.5-0.3c0-0.1,0.1-0.8,0.1-0.9c0.1,0,0.5,0,0.5,0c0.3,0.1,0.2,0.3,0.2,0.3c0,0,0,0.1,0,0.1
							c0,0.1,0.2,0.1,0.2,0c0.1-0.7,0.2-1.2,0.4-2.2c-0.3-0.2-0.6-0.3-0.7-0.3c-0.1,0-0.1,0.2-0.1,0.2c0.1,0,0.1,0.1,0.1,0.1
							c0.3,0.2,0.3,0.3,0.2,0.5c0,0.1,0,0.2-0.1,0.4c0,0.2-0.2,0.3-0.4,0.2c-0.2,0-0.5,0-0.5,0l0.1-0.7c-0.1,0-0.2-0.1-0.3,0
							L11.9,31c-0.1,0-0.8-0.1-0.9-0.1c-0.1,0-0.1-0.1-0.1-0.1c0-0.1,0-0.3,0.1-0.5c0.1-0.3,0.2-0.3,0.3-0.4c0.1,0,0.2,0,0.3,0
							c0.1-0.1,0.1-0.2,0-0.2c-0.2,0-0.5,0-0.7,0c-0.1,0.6-0.2,1-0.3,1.6C10.5,31.4,10.5,31.5,10.4,31.8
							C10.4,31.8,10.4,31.8,10.4,31.8z M10.8,31.5c0,0,0.1-0.1,0.1-0.1c0.1,0,0.9,0.1,1,0.1c0,0.2-0.1,0.6-0.1,0.7
							c-0.2-0.1-0.9-0.6-1-0.6C10.8,31.5,10.7,31.5,10.8,31.5z"/>
						<path class="st1" d="M48.2,54.9c-0.1-0.1-0.2-0.3-0.2-0.6c0,0-0.3-1.5-0.3-1.8c0-0.3,0-0.3,0.1-0.4c0,0,0.1-0.1,0.1-0.1
							c0-0.1-0.1-0.2-0.2-0.2c-0.1,0.1-0.4,0.3-0.7,0.6c0,0.1,0,0.2,0.1,0.2c0.1,0,0.1,0,0.1-0.1c0.1,0,0.1,0,0.2,0.1
							c0,0.1,0.1,0.5,0.1,0.6c-0.1,0.1-0.6,0.5-0.7,0.5c0,0-0.2-0.3-0.3-0.4c-0.2-0.2,0-0.3,0-0.4c0,0,0,0,0.1-0.1
							c0-0.1-0.1-0.2-0.1-0.2c-0.6,0.4-1.1,0.7-1.9,1.1c0.1,0.3,0.2,0.6,0.3,0.7c0.1,0.1,0.2,0,0.2-0.1c0-0.1,0-0.1,0-0.2
							c0-0.3,0.1-0.4,0.2-0.5c0.1-0.1,0.2-0.1,0.3-0.2c0.2-0.1,0.3,0,0.5,0.2c0.1,0.1,0.3,0.3,0.4,0.4c-0.1,0.1-0.5,0.4-0.6,0.4
							c0,0.1,0.1,0.2,0.2,0.2c0.1-0.1,0.5-0.3,0.6-0.4c0.1,0.1,0.5,0.6,0.6,0.7c0.1,0.1,0,0.1-0.1,0.1c-0.1,0-0.2,0.2-0.4,0.3
							c-0.3,0.2-0.4,0.1-0.5,0c-0.1,0-0.1-0.1-0.2-0.2c-0.1,0-0.2,0.1-0.2,0.2c0.1,0.1,0.3,0.4,0.4,0.5c0.6-0.3,0.9-0.5,1.4-0.8
							C47.9,55.1,48,55.1,48.2,54.9C48.2,55,48.2,54.9,48.2,54.9z M47.7,54.9c0,0-0.1,0-0.1,0c-0.1-0.1-0.6-0.7-0.7-0.8
							c0.1-0.1,0.5-0.4,0.6-0.4c0,0.3,0.2,1.1,0.2,1.2C47.8,54.9,47.7,54.9,47.7,54.9z"/>
						<g>
							<path class="st1" d="M13.1,46c0.5-0.3,1.3-0.7,1.5-0.8c0.4-0.2,0.4-0.3,0.4-0.5c0,0,0-0.1,0-0.1c0-0.1,0.1-0.1,0.2-0.1
								c0.2,0.3,0.4,0.8,0.6,1.1c0,0.1-0.1,0.1-0.2,0.1c0,0,0-0.1-0.1-0.1c-0.1-0.2-0.2-0.2-0.6,0c-0.3,0.1-0.8,0.4-1,0.5
								c-0.4,0.2-0.5,0.3-0.4,0.5c0,0,0,0.1,0,0.1c0,0.1-0.1,0.1-0.2,0.1c-0.2-0.4-0.6-1-0.6-1.1c-0.1-0.1-0.1-0.2-0.2-0.4
								c-0.1-0.3-0.2-0.8,0.4-1c0.4-0.2,0.6,0,0.9,0.2c0.1-0.2,0.3-0.5,0.4-0.8c0.1-0.3,0.1-0.4,0.1-0.6c0,0,0,0,0-0.1
								c0-0.1,0.1-0.1,0.2-0.1c0,0.1,0.2,0.4,0.3,0.7C14.6,44,14.1,45,14,45.2c0,0-0.1,0-0.1,0c-0.1-0.1-0.2-0.3-0.4-0.3
								c-0.2,0-0.3,0-0.4,0.1c-0.1,0-0.2,0.1-0.3,0.3c-0.1,0.2,0,0.3,0,0.4c0,0.1,0.1,0.2,0.1,0.3C13.1,46,13.1,46,13.1,46z"/>
						</g>
						<g>
							<path class="st1" d="M22.7,56c0.2-0.5,0.7-1.3,0.8-1.5c0.2-0.4,0.2-0.5,0-0.6c0,0-0.1-0.1-0.1-0.1c0-0.1,0.1-0.2,0.1-0.2
								c0.3,0.2,0.8,0.5,1.1,0.6c0,0.1-0.1,0.2-0.1,0.2c0,0-0.1,0-0.1,0c-0.2-0.1-0.3,0-0.5,0.4c-0.1,0.3-0.4,0.8-0.5,1
								c-0.2,0.4-0.2,0.5,0,0.6c0,0,0.1,0,0.1,0.1c0,0.1-0.1,0.2-0.1,0.2c-0.4-0.2-1-0.5-1.1-0.6c-0.1-0.1-0.2-0.1-0.3-0.2
								c-0.3-0.2-0.6-0.6-0.3-1.1c0.2-0.3,0.5-0.4,0.8-0.3c0-0.3,0-0.6-0.1-0.9c-0.1-0.3-0.1-0.4-0.2-0.5c0,0,0,0-0.1-0.1
								c0-0.1,0.1-0.2,0.1-0.2c0.1,0,0.3,0.2,0.6,0.4c0.1,0.3,0.2,1.4,0.2,1.6c0,0-0.1,0-0.1,0.1c-0.1-0.1-0.4-0.2-0.5-0.1
								c-0.2,0.1-0.2,0.2-0.3,0.3C22,55.1,22,55.3,22,55.4c0,0.2,0.2,0.3,0.3,0.3c0.1,0.1,0.2,0.1,0.2,0.1C22.6,56,22.7,56,22.7,56z
								"/>
						</g>
						<path class="st1" d="M14.9,26.2c0-0.1,0.4-0.8-0.1-1.3c-0.5-0.5-1,0.1-1.3,0.7c-0.2-0.2-0.8-0.8-1-0.9c0-0.1,0.4-1.3,0.4-1.4
							c0.1,0,0.3,0.2,0.4,0.3c-0.1,0.2-0.3,1-0.4,1.1c0.1,0.1,0.2,0.2,0.3,0.2c0.1-0.2,0.4-0.8,1-0.8c0.9,0,1.4,0.9,0.9,2.1
							C15.1,26.4,14.9,26.4,14.9,26.2z"/>
						<path class="st1" d="M13.9,22.8c0-0.1-0.2-0.5,0.1-1c0.1-0.2,0.3-0.4,0.5-0.4c0.2,0,0.7,0.2,0.6,0.8c0.2-0.2,0.4-0.3,0.6-0.3
							c0.1,0,0.7,0.1,0.8,1c0.1,0.6-0.2,1.2-0.5,1.3c-0.3,0.1-0.5-0.2-0.3-0.5c0.1-0.1,0.3,0,0.4-0.1c0.1-0.1,0.2-0.7-0.2-1
							c-0.2-0.2-0.6-0.3-0.8,0c-0.1,0.1-0.1,0.3-0.1,0.5c-0.1,0.2-0.3,0.1-0.4,0c0-0.2,0.1-0.6,0.1-0.9c-0.1-0.2-0.3-0.4-0.6-0.2
							c-0.2,0.2-0.1,0.5-0.1,0.6C14.2,22.8,14,22.8,13.9,22.8z"/>
						<path class="st1" d="M45.5,11.1c0-0.1,0.1-0.3,0.2-0.3c0.1,0,0.2,0.1,0.2,0.1c0.4,0.1,0.5,0.1,0.8-0.6
							c0.2-0.4,0.6-1.3,0.8-1.6c0.2-0.3,0.4-0.7,0-1c-0.1,0-0.1-0.1-0.2-0.1c0-0.1,0.1-0.3,0.1-0.3c0.7,0.3,1.4,0.7,1.9,1
							c0,0.1-0.1,0.3-0.2,0.3c-0.1,0-0.1-0.1-0.2-0.1c-0.4-0.2-0.6,0.2-0.8,0.6c-0.3,0.6-0.7,1.3-0.8,1.6c-0.3,0.6-0.3,0.7,0,1
							c0.1,0,0.1,0.1,0.2,0.1c0,0.1-0.1,0.3-0.2,0.3C46.9,11.8,46.1,11.3,45.5,11.1z"/>
						<path class="st1" d="M53.2,16.5c0-0.1,0.2-0.2,0.3-0.3c0.1,0.1,0.1,0.1,0.2,0.2c0.3,0.2,0.4,0.2,1-0.3c0.4-0.3,1-1,1.3-1.2
							c0.3-0.3,0.6-0.5,0.4-0.9c-0.1-0.1-0.1-0.1-0.1-0.1c0-0.1,0.2-0.3,0.3-0.3c0.6,0.6,1.1,1.2,1.4,1.6c0,0.1-0.2,0.2-0.3,0.2
							c-0.1-0.1-0.1-0.1-0.1-0.1c-0.3-0.3-0.6,0-1,0.3c-0.5,0.4-1.1,1-1.3,1.2c-0.5,0.4-0.6,0.6-0.4,0.9c0,0.1,0.1,0.1,0.1,0.2
							c0,0.1-0.2,0.2-0.3,0.2C54.3,17.6,53.6,16.9,53.2,16.5z"/>
						<path class="st1" d="M55.3,51.3c0.1,0,0.3,0.1,0.3,0.2c0,0.1-0.1,0.1-0.1,0.2c-0.2,0.3-0.2,0.4,0.4,0.9
							c0.4,0.3,1.1,0.9,1.4,1.1c0.3,0.2,0.6,0.6,0.9,0.2c0.1-0.1,0.1-0.1,0.1-0.1c0.1,0,0.3,0.1,0.3,0.2c-0.5,0.7-1,1.2-1.4,1.6
							c-0.1,0-0.3-0.1-0.3-0.2c0.1-0.1,0.1-0.1,0.1-0.1c0.3-0.4,0-0.6-0.4-0.9c-0.5-0.4-1.1-0.9-1.4-1.2c-0.5-0.4-0.7-0.5-1-0.2
							c-0.1,0-0.1,0.1-0.2,0.2c-0.1,0-0.2-0.1-0.3-0.3C54.3,52.6,55,51.8,55.3,51.3z"/>
						<path class="st1" d="M34.6,61.6c0.1,0.1,0.1,0.3,0,0.4c-0.1,0-0.2,0-0.2,0c-0.4,0.1-0.5,0.1-0.5,0.9c0,0.5,0,1.4,0,1.8
							c0,0.4-0.1,0.8,0.4,0.9c0.1,0,0.1,0,0.2,0c0.1,0.1,0.1,0.3,0,0.4c-0.8,0-1.6,0-2.1-0.1c-0.1-0.1-0.1-0.3,0-0.4
							c0.1,0,0.1,0,0.2,0c0.5,0,0.5-0.4,0.5-0.9c0-0.7,0-1.4,0.1-1.8c0-0.6,0-0.8-0.4-0.9c-0.1,0-0.2,0-0.2,0c-0.1-0.1,0-0.3,0-0.4
							C33.1,61.6,34.1,61.6,34.6,61.6z"/>
						<path class="st1" d="M17.7,55.8c0,0.1-0.1,0.3-0.2,0.3c-0.1,0-0.1-0.1-0.2-0.1c-0.3-0.2-0.4-0.2-0.9,0.4
							c-0.3,0.4-0.9,1.1-1.2,1.4C15,58,14.6,58.3,15,58.6c0.1,0.1,0.1,0.1,0.1,0.1c0,0.1-0.1,0.3-0.2,0.3c-0.6-0.5-1.2-1-1.6-1.4
							c0-0.1,0.1-0.3,0.2-0.3c0.1,0.1,0.1,0.1,0.1,0.1c0.4,0.3,0.6,0,0.9-0.4c0.4-0.5,1-1.1,1.2-1.4c0.4-0.5,0.5-0.6,0.3-1
							c0-0.1-0.1-0.1-0.2-0.2c0-0.1,0.2-0.2,0.3-0.3C16.5,54.8,17.3,55.4,17.7,55.8z"/>
						<path class="st1" d="M9.2,26.8c-0.1,0-0.3,0-0.3-0.1c0-0.1,0-0.2,0.1-0.2c0.1-0.4,0-0.5-0.7-0.7c-0.5-0.2-1.3-0.5-1.7-0.6
							c-0.4-0.1-0.8-0.3-1,0.1c0,0.1-0.1,0.1-0.1,0.2c-0.1,0.1-0.3,0-0.3-0.1c0.3-0.8,0.5-1.5,0.7-2c0.1-0.1,0.3,0,0.3,0.1
							c0,0.1,0,0.1-0.1,0.2C6,24,6.4,24.1,6.8,24.3c0.6,0.2,1.3,0.5,1.7,0.6c0.6,0.2,0.8,0.2,1-0.1c0-0.1,0.1-0.1,0.1-0.2
							c0.1,0,0.3,0,0.3,0.2C9.7,25.3,9.4,26.2,9.2,26.8z"/>
						<path class="st1" d="M57.4,22.1c-0.7-1.2-1.5-2.4-1.9-2.9c0-0.1,0.2-0.2,0.3-0.2c0,0.1,0.1,0.1,0.1,0.1c0.3,0.3,0.4,0.3,1-0.2
							c0.4-0.3,1.2-0.9,1.5-1c0.3-0.2,0.7-0.4,0.5-0.8c0-0.1-0.1-0.1-0.1-0.2c0-0.1,0.2-0.2,0.3-0.2c0.5,0.6,0.9,1.3,1.2,1.7
							c0,0.1-0.2,0.2-0.3,0.2c-0.1-0.1-0.1-0.1-0.1-0.1c-0.3-0.4-0.7-0.1-1,0.1c-0.5,0.4-1,0.7-1.5,1c-0.5,0.4-0.6,0.4-0.5,0.8
							c0,0.1,0.1,0.2,0.2,0.4c0.1,0.2,0.3,0.4,0.5,0.5c0.2,0.1,0.5,0.1,0.6,0.1c0.1,0,0.3-0.1,0.4-0.1c0.1,0,0.2,0.1,0.1,0.3
							C58.4,21.8,58,21.9,57.4,22.1z"/>
						<path class="st1" d="M59.4,26.5c-0.4-1.3-1.1-2.7-1.3-3.2c0.1-0.1,0.2-0.2,0.3-0.2c0,0.1,0.1,0.1,0.1,0.2c0.2,0.3,0.3,0.3,1,0
							c0.4-0.2,1.4-0.6,1.6-0.7c0.3-0.2,0.8-0.3,0.6-0.7c0-0.1,0-0.1-0.1-0.2c0-0.1,0.2-0.2,0.3-0.2c0.4,0.7,0.7,1.4,0.9,1.9
							c0,0.1-0.2,0.2-0.3,0.2c0-0.1-0.1-0.1-0.1-0.2c-0.2-0.4-0.6-0.2-1,0c-0.6,0.3-1.1,0.5-1.6,0.7c-0.6,0.3-0.7,0.3-0.6,0.7
							c0,0.1,0.1,0.3,0.2,0.4c0.1,0.2,0.2,0.4,0.4,0.6c0.2,0.1,0.5,0.2,0.6,0.2c0.1,0,0.3,0,0.4,0c0.1,0,0.2,0.2,0.1,0.4
							C60.4,26.3,60,26.4,59.4,26.5z"/>
						<path class="st1" d="M41.6,9.3c0-0.4,0.1-0.8,0.2-1.1c0.1,0,0.3,0,0.4,0.1c0,0.4-0.1,1.1,0.7,1.3c0.5,0.2,0.8,0,0.9-0.3
							c0.2-0.4,0-0.7-0.5-1.2c-0.7-0.7-0.8-1.1-0.8-1.4c0.1-0.5,0.5-1.4,1.9-0.9c0.6,0.2,0.9,0.4,1.1,0.6c0,0.1-0.1,0.8-0.2,1
							c-0.1,0.1-0.3,0-0.4-0.1c0-0.1,0.2-0.7-0.5-1c-0.7-0.3-0.9,0.1-1,0.3c-0.1,0.3,0.1,0.5,0.6,1.1c0.4,0.5,1,0.9,0.7,1.7
							c-0.2,0.7-1.1,1-1.9,0.7C41.9,9.8,41.6,9.3,41.6,9.3z"/>
						<path class="st1" d="M39,61.5c0.2,0.3,0.3,0.8,0.3,1.1c-0.1,0.1-0.3,0.1-0.4,0.1c-0.2-0.4-0.4-1-1.2-0.9
							c-0.5,0.1-0.7,0.4-0.7,0.7c0,0.4,0.4,0.6,1,0.8c1,0.3,1.2,0.6,1.3,0.9c0.2,0.5,0.1,1.5-1.3,1.6c-0.7,0.1-1,0-1.3,0
							c-0.1-0.1-0.2-0.7-0.2-1c0.1-0.1,0.2-0.1,0.4-0.1c0,0.1,0.2,0.7,1,0.7c0.7-0.1,0.8-0.5,0.7-0.8c-0.1-0.3-0.3-0.4-1-0.7
							c-0.6-0.2-1.3-0.4-1.4-1.2c-0.1-0.7,0.5-1.4,1.4-1.5C38.5,61.2,39,61.5,39,61.5z"/>
						<path class="st1" d="M14.8,53.3c-0.2,0.4-0.5,0.7-0.7,0.9c-0.1,0-0.3-0.1-0.3-0.3c0.2-0.4,0.6-0.9,0.1-1.5
							c-0.4-0.4-0.7-0.4-1-0.2c-0.4,0.3-0.3,0.7-0.1,1.3c0.3,0.9,0.2,1.3,0,1.6c-0.3,0.4-1.2,0.9-2.1-0.1c-0.4-0.5-0.6-0.9-0.7-1
							c0.1-0.1,0.5-0.6,0.7-0.7c0.1,0,0.2,0.1,0.3,0.3c-0.1,0.1-0.5,0.6,0,1.2c0.4,0.6,0.9,0.4,1,0.2c0.2-0.2,0.2-0.5,0-1.2
							c-0.2-0.6-0.4-1.3,0.2-1.8c0.6-0.5,1.4-0.4,2,0.3C14.8,52.8,14.8,53.3,14.8,53.3z"/>
						<path class="st1" d="M21.1,12.2c-0.1,0-0.2-0.2-0.2-0.3c0.1,0,0.1-0.1,0.2-0.1c0.3-0.2,0.3-0.3,0-1c-0.2-0.4-0.7-1.3-0.8-1.6
							c-0.2-0.3-0.3-0.8-0.8-0.6c-0.1,0-0.1,0-0.2,0.1c-0.1,0-0.2-0.2-0.2-0.3c0.7-0.4,1.4-0.7,1.9-1c0.1,0,0.2,0.2,0.2,0.3
							c-0.1,0-0.1,0.1-0.2,0.1c-0.4,0.3-0.2,0.6,0,1c0.3,0.6,0.7,1.3,0.8,1.6c0.3,0.6,0.4,0.7,0.8,0.6c0.1,0,0.1-0.1,0.2-0.1
							c0.1,0,0.2,0.2,0.1,0.3C22.5,11.4,21.7,11.8,21.1,12.2z"/>
						<path class="st1" d="M24.4,10.3c-0.3-0.3-0.4-0.7-0.5-1c0.1-0.1,0.2-0.2,0.4-0.2c0.3,0.3,0.6,0.9,1.4,0.6
							c0.5-0.2,0.6-0.5,0.5-0.8c-0.1-0.4-0.5-0.5-1.2-0.6c-1-0.1-1.3-0.3-1.5-0.6c-0.3-0.4-0.5-1.4,0.9-1.9c0.6-0.2,1-0.2,1.2-0.3
							C25.7,5.6,26,6.2,26,6.5c-0.1,0.1-0.2,0.2-0.3,0.2c-0.1-0.1-0.3-0.7-1.1-0.5C23.9,6.4,24,6.8,24.1,7c0.1,0.3,0.4,0.3,1.1,0.4
							c0.6,0.1,1.3,0.1,1.6,0.9c0.3,0.7-0.2,1.5-1,1.8C25,10.4,24.4,10.3,24.4,10.3z"/>
						<path class="st1" d="M17.4,14.4c-0.3-0.2-0.6-0.6-0.8-0.8c0-0.1,0.2-0.2,0.3-0.3c0.3,0.2,0.8,0.7,1.5,0.2
							c0.4-0.3,0.4-0.7,0.3-0.9c-0.2-0.4-0.6-0.4-1.3-0.2c-1,0.2-1.4,0.1-1.6-0.2c-0.4-0.3-0.8-1.2,0.3-2c0.6-0.4,0.9-0.5,1.1-0.6
							c0.1,0.1,0.5,0.5,0.7,0.8c0,0.1-0.1,0.2-0.3,0.3c-0.1-0.1-0.5-0.6-1.2-0.2c-0.6,0.4-0.4,0.8-0.3,1c0.2,0.3,0.4,0.2,1.2,0.1
							c0.6-0.1,1.3-0.3,1.8,0.4c0.4,0.6,0.3,1.5-0.5,2C18,14.4,17.4,14.4,17.4,14.4z"/>
						<path class="st1" d="M58.6,45.8c0.1-0.1,0.3,0,0.3,0.1c0,0-0.1,0.1-0.1,0.2c-0.1,0.3,0,0.5,0.6,0.8c0.5,0.3,1.2,0.6,1.6,0.8
							c0.4,0.2,0.7,0.4,1,0c0-0.1,0.1-0.1,0.1-0.2c0.1,0,0.3,0,0.3,0.1c-0.1,0.2-0.4,0.9-0.6,1.2c0,0.1,0,0.1-0.1,0.2
							c-0.1,0-0.2,0-0.5,0c-0.1,0-3.3,0.7-3.7,0.8c0.3,0.2,1.3,0.9,1.6,1c0.5,0.3,0.7,0.5,1,0.1c0,0,0.1-0.1,0.1-0.2
							c0.1,0,0.3,0.1,0.3,0.2c-0.3,0.5-0.7,1.1-1,1.5c-0.1,0-0.3-0.1-0.3-0.2c0,0,0.1-0.1,0.1-0.2c0.2-0.3,0.1-0.4-0.5-0.8
							c-0.4-0.3-2.4-1.6-2.6-1.7c0-0.1-0.1-0.2,0-0.3c0.7-0.2,4.5-1.1,4.8-1.1c-0.3-0.1-1.6-0.7-2-0.9c-0.6-0.3-0.8-0.3-1,0
							c-0.1,0.1-0.1,0.1-0.1,0.2c-0.1,0-0.3,0-0.3-0.2C58.1,47,58.5,46.1,58.6,45.8z"/>
						<path class="st1" d="M7.9,32.9c-0.1,0.1-0.3,0.1-0.4,0c0,0,0-0.2,0-0.2c0-0.3-0.2-0.5-0.9-0.5c-0.6-0.1-1.3-0.1-1.8-0.2
							c-0.5-0.1-0.8-0.1-0.9,0.3c0,0.1,0,0.1,0,0.2c-0.1,0.1-0.3,0.1-0.4,0c0-0.2,0.1-0.9,0.1-1.3c0-0.1,0-0.1,0-0.2
							c0.1,0,0.2-0.1,0.4-0.2c0.1-0.1,2.9-1.8,3.2-2c-0.3-0.1-1.5-0.4-1.8-0.5c-0.6-0.1-0.8-0.2-1,0.2c0,0.1,0,0.1-0.1,0.2
							c-0.1,0.1-0.3,0-0.3-0.1c0.1-0.6,0.3-1.3,0.4-1.7c0.1-0.1,0.3,0,0.3,0.1c0,0.1,0,0.1,0,0.2c0,0.3,0,0.4,0.8,0.6
							c0.5,0.1,2.8,0.7,3,0.7c0.1,0.1,0.1,0.2,0.1,0.3c-0.6,0.4-3.9,2.5-4.1,2.6c0.3,0,1.7,0.2,2.2,0.2c0.7,0,0.9,0,0.9-0.3
							c0-0.1,0-0.2,0-0.2c0.1-0.1,0.3,0,0.4,0.1C8.1,31.6,8,32.6,7.9,32.9z"/>
						<path class="st1" d="M13.2,19.2c-0.1,0-0.3-0.1-0.3-0.2c0,0,0.1-0.1,0.1-0.2c0.2-0.3,0.1-0.5-0.4-0.9c-0.5-0.4-1-0.8-1.4-1.1
							c-0.4-0.3-0.6-0.6-0.9-0.3c0,0-0.1,0.1-0.1,0.2c-0.1,0-0.3-0.1-0.3-0.2c0.1-0.2,0.6-0.7,0.8-1c0,0,0.1-0.1,0.1-0.2
							c0.1,0,0.2,0.1,0.5,0.1c0.1,0,3.4,0,3.8,0c-0.2-0.2-1-1.1-1.3-1.4c-0.4-0.4-0.6-0.6-0.9-0.3c0,0-0.1,0.1-0.2,0.1
							c-0.1,0-0.2-0.1-0.2-0.3c0.4-0.4,0.9-0.9,1.3-1.2c0.1,0,0.2,0.2,0.2,0.3c0,0-0.1,0.1-0.1,0.1c-0.2,0.2-0.2,0.4,0.3,0.9
							c0.4,0.4,1.9,2.1,2.1,2.2c0,0.1,0,0.2-0.1,0.3c-0.7,0-4.7,0-4.9,0c0.2,0.2,1.4,1.1,1.7,1.4c0.6,0.4,0.7,0.4,1,0.2
							c0.1-0.1,0.1-0.1,0.2-0.2c0.1,0,0.3,0.1,0.3,0.2C14,18.2,13.4,18.9,13.2,19.2z"/>
						<path class="st1" d="M10.5,46.6c-0.1,0-0.3,0.1-0.3,0.1c0,0.1,0.1,0.1,0.1,0.2c0.1,0.4,0,0.5-0.6,0.8
							c-0.2,0.1-0.4,0.2-0.7,0.3L8,46c0.3-0.1,0.5-0.2,0.7-0.3c0.7-0.3,0.8-0.3,1,0.1c0,0,0.1,0.1,0.1,0.2c0.1,0,0.3-0.1,0.3-0.2
							c-0.3-0.6-0.6-1.4-0.7-1.9C9.2,43.9,9,44,9,44c0,0.1,0,0.2,0.1,0.2C9.1,44.6,9,44.7,8.4,45c-0.3,0.1-1.1,0.4-1.7,0.7
							c-0.4,0.2-0.8,0.3-1-0.1c0,0,0-0.1-0.1-0.2c-0.1,0-0.3,0-0.3,0.1c0.2,0.5,0.4,1.2,0.8,1.9c0.1,0,0.3,0,0.3-0.1
							c0-0.1,0-0.1,0-0.2c-0.1-0.4,0.2-0.5,0.6-0.7c0.1,0,0.3-0.1,0.6-0.2l1,2.1c-0.2,0.1-0.4,0.2-0.6,0.3c-0.4,0.2-0.7,0.4-1,0
							c0,0,0-0.1-0.1-0.2c-0.1,0-0.3,0.1-0.3,0.2c0.2,0.5,0.6,1.1,1,1.8c0.1,0,0.3-0.1,0.3-0.2c0-0.1,0-0.1-0.1-0.1
							c-0.2-0.4,0.1-0.6,0.6-0.8c0.3-0.1,1.2-0.6,1.6-0.9c0.6-0.3,0.8-0.3,1,0c0,0,0.1,0.1,0.1,0.2c0.1,0,0.3-0.1,0.3-0.2
							C11.1,47.9,10.7,47.1,10.5,46.6z"/>
						<path class="st1" d="M52.4,14.7c-0.1,0.2-0.2,0.3-0.3,0.5c-0.3-0.2-0.9-0.4-1.5-0.9c-0.5-0.4-1.1-1.1-1.1-2.1
							c0.1-0.9,0.7-1.7,1.4-2c1-0.4,1.9,0,2.5,0.5c0.8,0.6,1,1,1.1,1.1c-0.2,0.3-0.4,0.6-0.7,1c-0.1,0-0.3-0.1-0.3-0.2
							c0.1-0.2,0.2-0.4,0.2-0.7c0-0.3-0.2-0.6-0.6-0.9c-0.5-0.4-1.7-0.7-2.5,0.6c-0.9,1.3-0.1,2.1,0.2,2.3c0.2,0.1,0.2,0.2,0.3,0.3
							c0.3,0.2,0.4,0.1,0.6,0c0.1-0.1,0.1-0.2,0.2-0.3c0.2-0.3,0.2-0.3,0-0.6c-0.1-0.1-0.2-0.2-0.2-0.3c0-0.1,0.1-0.3,0.3-0.3
							c0.5,0.5,1.1,0.9,1.5,1.2c0,0.1-0.1,0.3-0.2,0.3c-0.1,0-0.1-0.1-0.2-0.1c-0.2-0.1-0.3-0.1-0.5,0.2
							C52.5,14.6,52.4,14.7,52.4,14.7z"/>
						<path class="st1" d="M10.5,23.5c-0.1,0-0.3-0.1-0.3-0.2c0-0.1,0-0.1,0.1-0.1c0.1-0.3,0.1-0.5-0.6-0.9
							c-0.5-0.3-1.2-0.6-1.5-0.8c-0.5-0.3-0.7-0.4-1,0c0,0.1-0.1,0.1-0.1,0.1c-0.1,0-0.3-0.1-0.3-0.2c0.4-0.8,1.1-2,1.9-3.2
							c0.3,0.1,0.7,0.4,1,0.5c0,0.2,0,0.3-0.2,0.4c-0.1,0-0.2-0.1-0.4-0.1c-0.2,0-0.4,0-0.7,0.3C8.2,19.4,8,19.8,7.9,20
							c-0.1,0.2,0,0.2,0.1,0.3c0.1,0.1,1,0.6,1.1,0.6c0.6-1.1,0.6-1.1,0.6-1.1c0.2,0,0.3,0.1,0.4,0.2c0,0-0.6,1.1-0.6,1.1
							c0,0,0.7,0.4,0.7,0.4c0.6,0.4,0.7,0.2,0.9-0.2c0.1-0.2,0.2-0.3,0.2-0.4c0.2-0.4,0.1-0.6-0.1-1c-0.1-0.1-0.1-0.2-0.2-0.2
							c0-0.1,0.1-0.3,0.3-0.3c0.1,0.1,0.8,0.7,0.9,0.9C11.8,21.2,11.1,22.4,10.5,23.5z"/>
						<path class="st1" d="M48.9,57.3c0.1,0,0.2,0.2,0.2,0.3c-0.1,0-0.1,0.1-0.1,0.1c-0.3,0.2-0.4,0.4,0,1.1
							c0.3,0.5,0.7,1.1,0.9,1.5c0.3,0.5,0.4,0.7,0.8,0.5c0.1,0,0.1-0.1,0.1-0.1c0.1,0,0.2,0.2,0.2,0.3c-0.7,0.5-1.9,1.2-3.3,1.8
							c-0.2-0.3-0.4-0.7-0.6-1c0.1-0.1,0.2-0.2,0.3-0.2c0.1,0.1,0.1,0.2,0.3,0.3c0.1,0.1,0.3,0.3,0.7,0.1c0.3-0.1,0.7-0.4,0.9-0.5
							c0.2-0.1,0.2-0.2,0.1-0.3c-0.1-0.1-0.6-1-0.6-1.1l-1.1,0.6c-0.1-0.1-0.2-0.2-0.2-0.4l1.1-0.6c0,0-0.4-0.7-0.4-0.8
							c-0.3-0.6-0.5-0.5-0.9-0.3c-0.2,0.1-0.3,0.2-0.4,0.2c-0.3,0.2-0.4,0.5-0.4,0.9c0,0.1,0,0.2,0,0.3c-0.1,0.1-0.2,0.2-0.4,0.1
							c-0.1-0.2-0.3-0.9-0.4-1.2C46.7,58.6,47.8,58,48.9,57.3z"/>
						<path class="st1" d="M60.9,29.1c1.2-0.8,1.4-0.9,2.4-1.5c0.4-0.2,0.5-0.3,0.6,0c0,0.1,0,0.1,0.1,0.2c0.1,0.1,0.3,0,0.3-0.1
							c-0.2-0.6-0.3-1.3-0.6-2c-0.1-0.1-0.3,0-0.3,0.1c0,0.1,0,0.1,0,0.2c0,0.4-0.1,0.5-0.5,0.8c-0.2,0.2-3,1.9-3,1.9
							c-0.1,0-0.1,0.1,0,0.1c0,0,0.3,0.4,0.4,0.6c1.1,0.1,2.8,0.4,3.4,0.6c0.6,0.1,0.8,0.3,0.8,0.4c0,0.1,0,0.2,0,0.2
							c0.1,0.1,0.3,0.1,0.4,0c-0.1-0.5-0.2-1.2-0.3-1.7c-0.1-0.1-0.3,0-0.4,0c0,0.1,0,0.1,0,0.2c0,0.2,0,0.4-0.5,0.3
							C62.9,29.5,61.8,29.3,60.9,29.1z"/>
						<path class="st1" d="M60.4,43.2c1.5-0.1,1.6-0.1,2.8-0.1c0.4,0,0.6,0,0.5,0.3c0,0.1,0,0.1,0,0.2c0.1,0.1,0.3,0.2,0.3,0.1
							c0.2-0.6,0.4-1.3,0.5-2c-0.1-0.1-0.3-0.1-0.3-0.1c0,0.1,0,0.1-0.1,0.2c-0.1,0.3-0.3,0.4-0.8,0.4c-0.3,0-3.5,0.2-3.6,0.2
							c-0.1,0-0.1,0.1-0.1,0.1c0,0,0,0.5,0,0.7c0.9,0.7,2.2,1.8,2.7,2.2c0.5,0.4,0.5,0.6,0.5,0.8c0,0.1-0.1,0.2-0.1,0.2
							c0.1,0.1,0.2,0.2,0.3,0.1c0.2-0.5,0.4-1.2,0.6-1.6c0-0.1-0.2-0.2-0.3-0.1c0,0.1,0,0.1-0.1,0.2c-0.1,0.2-0.2,0.3-0.6,0
							C61.9,44.5,61.1,43.8,60.4,43.2z"/>
						<path class="st1" d="M51.9,56c1.3,0.7,1.4,0.8,2.4,1.4c0.4,0.2,0.5,0.3,0.3,0.6c-0.1,0.1-0.1,0.1-0.1,0.1
							c0,0.1,0.1,0.3,0.2,0.3c0.5-0.4,1-0.9,1.5-1.4c0-0.2-0.2-0.2-0.2-0.3c-0.1,0-0.1,0.1-0.2,0.1c-0.3,0.2-0.5,0.2-0.9-0.1
							c-0.3-0.2-3-1.7-3.1-1.8c-0.1,0-0.1,0-0.1,0c0,0-0.2,0.4-0.3,0.6c0.4,1.1,0.9,2.6,1.1,3.3c0.2,0.6,0.1,0.8,0,0.9
							c-0.1,0.1-0.1,0.1-0.2,0.1c0,0.1,0.1,0.3,0.2,0.3c0.4-0.3,1-0.7,1.4-1c0-0.1-0.1-0.3-0.2-0.3c-0.1,0-0.1,0.1-0.2,0.1
							c-0.2,0.1-0.3,0.2-0.5-0.3C52.5,57.8,52.2,56.8,51.9,56z"/>
						<g>
							<path class="st1" d="M44.4,63.9c-0.3-0.8-0.8-2.2-0.9-2.5c-0.2-0.6-0.3-0.8-0.7-0.7c-0.1,0-0.2,0-0.2,0
								c-0.1,0-0.1-0.2-0.1-0.3c0.6-0.2,1.3-0.5,1.9-0.7c0.1,0.1,0.2,0.2,0.1,0.3c-0.1,0-0.1,0.1-0.2,0.1c-0.3,0.2-0.3,0.3-0.1,1
								c0.2,0.5,0.5,1.4,0.6,1.7c0.3,0.7,0.3,0.8,0.7,0.7c0.1,0,0.1,0,0.2-0.1c0.1,0,0.2,0.3,0.1,0.3c-1.1,0.4-1.7,0.6-1.9,0.7
								c-0.2,0.1-0.4,0.1-0.6,0.2c-0.5,0.1-1.3,0.1-1.6-0.8c-0.2-0.6,0.1-1,0.5-1.3c-0.4-0.3-0.8-0.6-1.2-0.9
								c-0.4-0.2-0.6-0.3-0.9-0.3c0,0-0.1,0-0.2,0c-0.1-0.1-0.1-0.2-0.1-0.4c0.1,0,0.7-0.1,1.2-0.3c0.3,0.2,1.8,1.2,2.1,1.4l0,0.2
								c-0.2,0.1-0.5,0.3-0.6,0.5c-0.1,0.3,0,0.5,0.1,0.6c0,0.2,0.2,0.4,0.4,0.5c0.2,0.1,0.5,0.1,0.7,0c0.2,0,0.3-0.1,0.4-0.1
								C44.3,63.9,44.4,63.9,44.4,63.9z"/>
						</g>
						<path class="st1" d="M25.6,60.2c-0.2,0.1-0.2,0.3-0.1,0.3c0.1,0,0.1,0,0.1,0.1c0.3,0.2,0.2,0.2-0.1,0.6
							c-0.2,0.2-0.2,0.3-0.3,0.3C25,61.4,24,61,23.8,61c0-0.2,0-0.2,0-0.5c0-0.3,0-0.6,0.3-0.4c0.1,0,0.1,0,0.1,0.1
							c0.1,0,0.2-0.2,0.1-0.3c-0.3-0.1-0.9-0.4-1.7-0.7c-0.1,0-0.2,0.2-0.2,0.3c0.1,0,0.1,0.1,0.2,0.1c0.4,0.2,0.3,0.6,0.3,0.9
							c0,0.3-0.1,3.5-0.1,3.6C23,64,23,64,23,64c0.1,0,0.5,0,0.6,0c0.2-0.2,1.9-2.1,2.3-2.6c0.5-0.5,0.6-0.5,0.8-0.5
							c0.1,0,0.2,0,0.2,0c0.1-0.1,0.2-0.3,0.1-0.4C26.5,60.5,25.8,60.2,25.6,60.2z M23.7,63.2l0.1-1.9l1.2,0.4L23.7,63.2z"/>
						<path class="st1" d="M8.6,41.5c-0.1-0.1-0.3,0-0.4,0.1c0,0.1,0,0.1,0,0.2c0,0.3-0.1,0.3-0.5,0.3c-0.3,0-0.4,0-0.5-0.1
							c0-0.2-0.3-1.3-0.3-1.5c0.1-0.1,0.1-0.1,0.4-0.3c0.3-0.2,0.5-0.3,0.6,0c0,0.1,0,0.1,0,0.2c0.1,0.1,0.3,0,0.4-0.1
							c-0.1-0.3-0.2-0.9-0.3-1.8c-0.1-0.1-0.3,0-0.4,0c0,0.1,0,0.2,0,0.2c0,0.4-0.4,0.6-0.6,0.7c-0.3,0.2-3,1.8-3.1,1.9
							c-0.1,0,0,0.1,0,0.1c0,0,0.3,0.4,0.3,0.5c0.2,0,2.8,0.4,3.4,0.5c0.7,0.1,0.8,0.3,0.9,0.4c0,0.1,0.1,0.2,0.1,0.2
							C8.8,43.2,9,43.1,9,43C9,42.8,8.7,41.8,8.6,41.5z M5,41.6l1.6-1l0.3,1.2L5,41.6z"/>
						<path class="st1" d="M61.2,33.9c-0.1,0.1-0.3,0.1-0.4,0c0-0.7-0.1-1.1-0.1-1.7c0.1-0.1,0.2-0.2,0.4,0c0,0.1,0,0.1,0,0.2
							c0.1,0.2,0.1,0.4,0.8,0.5c0.5,0,1.7,0.1,2,0.1c0.4,0,0.9,0,0.9-0.5c0-0.1,0-0.1,0-0.2c0.1-0.1,0.2-0.1,0.4,0
							c0.1,0.6,0.1,1,0.1,1.7c-0.2,0-0.4,0-0.8,0.2c-0.5,0.2-1.7,0.8-2.3,1.1c0.3,0.2,2.1,1,2.2,1.1c0.2,0.1,0.6,0.3,0.9,0.3
							c0,0.5-0.1,1.1-0.1,1.6c-0.1,0.1-0.3,0.1-0.4,0c0-0.1,0-0.1,0-0.2c0-0.3,0-0.4-0.6-0.4c-0.6,0-1.6,0-2.1,0
							c-0.6,0-0.9,0.1-0.9,0.4c0,0.1,0,0.2,0,0.3c-0.1,0.1-0.3,0-0.4,0c0.1-1,0.1-1.3,0.2-1.9c0.1-0.1,0.3-0.1,0.4,0
							c0,0.1,0,0.1,0,0.2c0,0.2,0,0.4,0.7,0.3c0.6,0,2,0,2.4-0.1c-0.4-0.2-1.7-0.8-2.4-1.1c-0.7-0.3-0.9-0.4-1.1-0.5
							c-0.1-0.1-0.1-0.2,0-0.3c0.1,0,0.6-0.2,1.1-0.5c0.6-0.3,2.1-0.9,2.3-1c-0.5,0-1.8,0-2.2-0.1c-0.5,0-0.9,0-0.9,0.4"/>
						<path class="st1" d="M30.5,64.5c0,0.1-0.1,0.3-0.3,0.4c-0.1,0.1-0.4,0.2-0.8,0.2c-0.1,0-0.3-0.1-0.6-0.1c0,0,0.4-2.1,0.5-2.6
							c0.1-0.7,0.2-0.8,0.6-0.8c0,0,0.1,0,0.2,0c0.1-0.1,0.1-0.3,0.1-0.4c-0.6-0.1-1.5-0.3-2-0.4c-0.1,0.1-0.1,0.3-0.1,0.3
							c0.1,0,0.2,0.1,0.2,0.1c0.4,0.1,0.4,0.3,0.2,1c-0.1,0.3-0.5,2.6-0.5,2.6c-0.3-0.1-0.6-0.1-0.7-0.2c-0.4-0.1-0.4-0.4-0.4-0.5
							c0-0.1,0-0.2,0-0.4c-0.1-0.1-0.3-0.1-0.4-0.1c0,0.2-0.2,1-0.2,1.2c1.6,0.4,2.5,0.6,4,0.8c0-0.1,0.4-1,0.5-1.1
							C30.8,64.5,30.7,64.5,30.5,64.5z"/>
						<path class="st1" d="M20.5,61.4c-0.1,0.1-0.2,0.2-0.4,0.3c-0.2,0.1-0.5,0.1-0.8-0.1c-0.1-0.1-0.3-0.2-0.5-0.3
							c0,0,1.1-1.8,1.4-2.2c0.4-0.6,0.5-0.7,0.8-0.6c0,0,0.1,0,0.2,0.1c0.1,0,0.2-0.2,0.2-0.3c-0.5-0.3-1.3-0.8-1.7-1.1
							c-0.1,0-0.2,0.2-0.2,0.3c0.1,0.1,0.1,0.1,0.2,0.1c0.3,0.3,0.2,0.4-0.1,1c-0.2,0.3-1.4,2.2-1.4,2.2c-0.3-0.2-0.5-0.3-0.6-0.4
							c-0.3-0.2-0.2-0.6-0.2-0.7c0-0.1,0.1-0.2,0.1-0.3c0-0.1-0.2-0.2-0.3-0.2c-0.1,0.1-0.5,0.8-0.6,1c1.3,0.9,2.1,1.4,3.5,2.2
							c0.1,0,0.7-0.7,0.8-0.8C20.8,61.5,20.6,61.4,20.5,61.4z"/>
						<path class="st1" d="M7.5,35.3c0,0.1,0,0.1,0,0.2c0,0.4-0.1,0.6-0.7,0.6c-0.1,0-0.6,0-0.8,0c0,0,0-1.2,0-1.2
							c-0.1-0.1-0.3-0.1-0.4,0c0,0,0,0,0,1.2c-0.1,0-1.2,0.1-1.4,0.1c-0.1,0-0.2,0-0.2-0.2c0-0.2,0-0.5,0-0.9c0-0.7,0.9-0.8,1.1-0.9
							C5.2,34.1,5.1,34,5,33.8c-0.4,0-1.1,0.1-1.5,0.1c0,1.6,0,2.6,0.1,3.8c0.1,0,0.3,0,0.4,0c0,0,0-0.1,0-0.2
							c0-0.5,0.3-0.5,0.9-0.5c0.3,0,1.1,0,1.8-0.1c0.8-0.1,0.9,0.1,0.9,0.4c0,0.1,0,0.1,0,0.1c0.1,0,0.3,0,0.4,0
							c-0.1-0.7-0.1-1.5-0.1-2.2C7.8,35.2,7.6,35.3,7.5,35.3z"/>
						<path class="st1" d="M21.9,15.3c-0.4,0.1-0.5,0.7-0.5,0.9c0,0.2-0.1,0.7-0.1,0.7c0,0-0.1,0.1-0.2,0c-0.2,0-0.4-0.3-0.4-0.5
							c0-0.2,0-0.3,0-0.4c0.1,0,0.2,0.1,0.2,0c0.1-0.1,0.2-0.3,0.2-0.5c0-0.1-0.1-0.3-0.2-0.3c0,0-0.1,0-0.2,0c0-0.1,0-0.1,0-0.2
							c0-0.1-0.1-0.1-0.1-0.2c-0.1,0-0.2,0-0.3,0l0,0c-0.1,0-0.2,0.1-0.3,0.1c-0.1,0.1-0.1,0.1-0.1,0.2c0,0.1,0.1,0.1,0.1,0.2
							c-0.1,0-0.2,0-0.2,0.1c-0.1,0.1-0.1,0.2-0.1,0.4c0.1,0.3,0.2,0.4,0.3,0.5c0.1,0,0.1,0,0.2-0.1c0,0.1,0.1,0.2,0.1,0.4
							c0,0.2,0,0.6-0.2,0.7c-0.1,0-0.1,0.1-0.2,0c0,0-0.3-0.6-0.3-0.6c-0.3-0.4-0.5-0.7-0.8-0.7c-0.1,0-0.2,0.1-0.3,0.2
							c-0.1,0.1-0.1,0.5,0.1,0.7c0.2,0.2,0.4,0.2,0.5,0.1c0.2,0.3,0.3,0.5,0.5,1c0.1,0.3,0.2,0.7,0.3,1c0.1,0.3,0.3,0.4,0.7,0.5
							c0,0,0.1,2.4,0.9,7.1c0,0.2,0.5,0.2,0.7,0.2c0.2,0,0.6-0.2,0.5-0.5c-0.8-4.7-1.2-7-1.2-6.9c0.2-0.1,0.5-0.3,0.5-0.7
							c0-0.2,0-0.7,0-1.1c0-0.4,0-0.7,0.1-1.1c0.2,0,0.3-0.1,0.4-0.3c0.1-0.2,0.1-0.5,0-0.7C22.2,15.4,22.1,15.3,21.9,15.3z"/>
						<path class="st1" d="M21.3,31.8c0.2,0.2,0.7,0.5,1.4,0.4c0.7-0.1,1-0.4,1.2-0.8c0.2,0.2,0.6,1.9-0.9,2.1
							C21.5,33.8,21.2,32.3,21.3,31.8z"/>
						<path class="st1" d="M24.4,28.9c-0.1-0.1-0.1-0.1-0.3-0.2c0.1-0.1,0.1-0.2,0.2-0.3c0.1-0.2,0.1-0.4,0-0.7
							c-0.1-0.2-0.3-0.2-0.4-0.2c0-0.1,0-0.1,0.1-0.2c0-0.2,0-0.3-0.1-0.5c-0.2-0.2-0.7-0.2-0.8-0.1c-0.2,0.3-0.6,0.5-0.9,0.5
							c-0.4,0.1-0.7,0-1.1-0.2c-0.3-0.1-0.4-0.2-0.6,0c-0.2,0.2-0.3,0.4-0.3,0.8c0,0.3,0.3,0.5,0.3,0.7c0.1,0.3-0.1,0.4-0.1,0.7
							c0,0.2,0.2,0.3,0.3,0.5c0.1,0.2,0,0.3,0,0.6c0,0.2,0.3,0.4,0.3,0.5c0,0.1,0,0.4,0.1,0.5c0.1,0.1,0.3,0.2,0.5,0.2
							c0.4,0.1,1,0.1,1.7-0.2c0.3-0.1,0.8-0.4,1-0.8c0.1-0.2,0-0.5-0.1-0.6c0.2-0.1,0.2-0.2,0.3-0.3C24.5,29.3,24.5,29,24.4,28.9z
							 M22.9,30c-0.1,0.1-0.3,0.1-0.3,0.1c0,0.1,0.1,0.2,0.1,0.3c0,0-0.3,0.1-0.4,0c-0.1-0.1-0.1-0.2-0.1-0.2c-0.1,0-0.2,0-0.3,0
							c-0.1,0-0.2-0.3-0.1-0.4c0.1-0.1,0.2,0,0.3-0.1c-0.1-0.1-0.1-0.2,0-0.3c0,0,0.3-0.1,0.4,0c0.1,0,0.1,0.2,0.1,0.3
							c0.1,0,0.3-0.1,0.3,0C22.9,29.7,23,30,22.9,30z"/>
						<path class="st1" d="M29.9,17c0.1-0.7,0.4-1.4,0.5-1.7c0-0.1-0.1-0.3-0.2-0.3c-0.1,0-3.8,0.9-6.7,2.8
							c-0.6,0.4-0.1,1.7,0.3,2.7c1.3,3.2,2.9,2.7,3.4,5.2c0.2,0.8,0.9,3.9,1,4.3c0.3,0.8,1,1.4,1.9,1.3C29.8,27.2,29.5,20.7,29.9,17
							z M26,19.5c-0.1,0.4-0.5,1.3-0.7,1.2c-0.3,0-0.5-1-0.5-1.4c0-0.3,0.1-0.4,0.2-0.4c0.1,0,0.2,0.3,0.2,0.8h0.3
							c0.1-0.5,0.3-0.7,0.4-0.7C26,19.1,26.1,19.3,26,19.5z M27.3,16.9c0-0.2,0.1-0.3,0.2-0.3c0.1,0,0.1,0.3,0.1,0.8l0.2,0
							c0.2-0.5,0.4-0.6,0.5-0.6c0.1,0.1,0.1,0.2,0,0.5c-0.1,0.3-0.6,1.1-0.8,1C27.3,18.2,27.3,17.3,27.3,16.9z M28.6,21.6
							c-0.1,0.4-0.7,1.3-0.9,1.3c-0.3-0.1-0.4-1.2-0.4-1.6c0-0.3,0.1-0.4,0.2-0.4c0.1,0,0.2,0.4,0.2,0.9l0.3,0
							c0.2-0.6,0.5-0.8,0.5-0.7C28.7,21.1,28.7,21.4,28.6,21.6z"/>
						<path class="st1" d="M45.7,17.8c-3.3-2.1-6.9-2.8-7-2.8c-0.1,0-0.2,0.2-0.2,0.3c0.1,0.3,0.4,1,0.5,1.7
							c0.4,3.7,0,10.2-0.3,14.2c0.9,0.1,1.6-0.5,1.9-1.3c0.1-0.4,0.8-3.5,1-4.3c0.5-2,3.1-2.8,3.7-5C45.8,19.5,46.3,18.2,45.7,17.8z
							 M40.5,16.8c0.1,0,0.3,0.1,0.5,0.6l0.2,0c-0.1-0.4,0-0.7,0.1-0.8c0.1,0,0.2,0.1,0.2,0.3c0.1,0.3,0,1.3-0.2,1.4
							c-0.2,0.1-0.7-0.7-0.8-1C40.4,17.1,40.4,16.9,40.5,16.8z M41.3,23.5c-0.2,0.1-0.8-0.9-0.9-1.3c-0.1-0.3-0.1-0.5,0-0.5
							c0.1,0,0.4,0.1,0.5,0.7l0.3,0c0-0.5,0.1-0.9,0.2-0.9c0.1,0,0.2,0.1,0.2,0.4C41.7,22.3,41.6,23.4,41.3,23.5z M43.8,20.9
							c-0.2,0-0.6-0.8-0.7-1.2c-0.1-0.2,0-0.4,0.1-0.5c0.1,0,0.3,0.2,0.4,0.7h0.3c0-0.5,0.2-0.8,0.3-0.8c0.1,0,0.2,0.1,0.2,0.4
							C44.3,19.9,44.1,20.9,43.8,20.9z"/>
					</g>
					<path class="st1" d="M37.1,10.6c0,0,0-0.6-0.6-0.9V9.6c0,0,0.6-0.1,0.9,0.2c0,0,0,0.1,0,0.2c0.4,1-0.3,1.4-0.3,2.2
						c-0.8-0.5-1.5-0.5-1.5-0.5l-0.4-1.1c0,0,0.2,0,0.6-0.1C36.3,10.5,36.7,10.4,37.1,10.6z"/>
					<path class="st1" d="M34.3,7.1L34.3,7.1L34.3,7.1L34.3,7.1L34.3,7.1c-1.2,0-2.4,0.1-3.2,0.5c-0.1-0.3-0.4-1.8-0.9-2.4
						c-0.1-0.1-0.3-0.3-0.3-0.4c0,0-0.1-0.1,0-0.2c0.1,0,0.2-0.1,0.3,0c0.2,0,0.3,0.1,0.3,0.3c0,0,0.1,0,0.1,0c0-0.1,0-0.2,0-0.3
						c0-0.1,0.2-0.1,0.4,0.1C31,4.9,31.1,5,31.1,5.1c0,0.1,0.1,0.2,0,0.3c-0.1,0-0.2,0-0.3,0l0,0.1c0.1,0.2,0.5,0.4,0.9,0.4
						c0.5-0.1,0.6-0.3,0.5-0.6c0,0,0,0,0,0c0,0-0.1,0.1-0.1,0.1c-0.1,0-0.2,0-0.3-0.2c-0.1-0.2-0.1-0.3,0-0.4c0-0.1,0.2-0.1,0.4,0
						c0,0,0,0,0-0.1c-0.2-0.1-0.3-0.2-0.3-0.3c0-0.1,0.1-0.2,0.3-0.3c0.3-0.1,0.4,0.1,0.5,0.2c0,0.1,0,0.3-0.1,0.4c0,0,0,0,0,0
						c0,0,0.1-0.1,0.1-0.1c0,0,0.1,0,0.1,0c0.1,0,0.2,0,0.2,0.3c0.1,0.3-0.1,0.4-0.2,0.4c-0.1,0-0.2,0-0.2-0.1c0,0,0,0,0,0
						c0.2,0.4,0.4,0.6,0.9,0.5c0.4,0,0.7-0.3,0.7-0.8c0,0,0,0,0,0c0,0-0.1,0.1-0.2,0.1c-0.1,0-0.2-0.1-0.3-0.3
						c-0.1-0.2,0-0.3,0.1-0.4c0.1,0,0.2,0,0.3,0.1c0,0,0,0,0,0C34,4.2,33.9,4.1,33.9,4c0-0.1,0.2-0.2,0.4-0.2l0,0l0,0
						c0.3,0,0.4,0.1,0.4,0.2c0,0.1,0,0.2-0.1,0.3c0,0,0,0,0,0c0,0,0.2-0.1,0.3-0.1c0.1,0,0.2,0.2,0.1,0.4c0,0.2-0.1,0.3-0.3,0.3
						c-0.1,0-0.2-0.1-0.2-0.1c0,0,0,0,0,0c0,0.5,0.3,0.7,0.7,0.8c0.4,0,0.7-0.2,0.9-0.5c0,0,0,0,0,0c-0.1,0-0.2,0.1-0.2,0.1
						c-0.1,0-0.3-0.1-0.2-0.4c0.1-0.3,0.1-0.3,0.2-0.3c0,0,0.1,0,0.1,0c0,0,0.1,0,0.1,0.1c0,0,0,0,0,0c-0.1-0.1-0.2-0.3-0.1-0.4
						c0-0.1,0.1-0.2,0.4-0.2c0.3,0.1,0.3,0.2,0.3,0.3c0,0.1,0,0.3-0.3,0.3c0,0,0,0,0,0.1c0.2-0.1,0.3,0,0.4,0c0,0.1,0,0.2,0,0.4
						c-0.1,0.2-0.3,0.2-0.3,0.2c-0.1,0-0.1-0.1-0.1-0.1c0,0,0,0,0,0c0,0.3,0.1,0.6,0.5,0.6c0.4,0.1,0.7-0.2,0.9-0.4l0-0.1
						c-0.1,0.1-0.2,0.1-0.3,0c-0.1-0.1-0.1-0.2,0-0.3c0-0.1,0.1-0.2,0.2-0.3c0.2-0.2,0.3-0.1,0.4-0.1c0,0.1,0,0.2,0,0.3
						c0,0,0.1,0,0.1,0c0-0.2,0.1-0.3,0.3-0.3c0.1,0,0.2,0,0.3,0c0.1,0,0,0.1,0,0.2c0,0-0.3,0.3-0.3,0.4c-0.5,0.6-0.8,2.1-0.9,2.4
						C36.8,7.2,35.6,7.1,34.3,7.1L34.3,7.1L34.3,7.1L34.3,7.1L34.3,7.1L34.3,7.1L34.3,7.1L34.3,7.1L34.3,7.1L34.3,7.1L34.3,7.1
						L34.3,7.1L34.3,7.1L34.3,7.1"/>
					<path class="st1" d="M33.6,13.5c0.3,0,0.6-0.4,0.6-0.4h0.3c0,0,0.2,0.4,0.5,0.4c1.2,0.1,2.1,0.3,2.4,0.5
						c0.3-0.4,0.2-0.9-0.5-1.3c-0.2-0.1-0.9-0.4-2-0.4c-0.6,0.6-1.3-0.2-2,0.1c0.3-0.3,0.6-0.6,0.9-0.6c0,0,0.1,0.1,0.3,0.2
						c0.2,0.1,0.6,0,0.7-0.2c0.1-0.1-0.3-2.4-0.3-2.4s1-0.6,1.8-0.6c0.8,0,1,0.5,1,0.5c0.4-1.6-1.7-1.5-3.1-1.5
						c-3.9,0-2.9,0.8-2.8,2.1c0,0.4-0.6,0.7,0,2c0.1,0.2,0.2,0.4,0.2,0.8c-0.5,0.3-0.7,0.8-0.4,1.3C31.8,13.7,32.8,13.6,33.6,13.5
						 M34.1,9.4c-0.1,0.6-0.2,1.2-0.2,1.2s-0.2-0.1-0.7-0.1c-0.8,0-1.2,0-1.2,0c0-0.3,0.2-0.7,0.7-0.8l0-0.1l-0.8-0.2
						C32.4,8.2,33.8,9.3,34.1,9.4z"/>
					<path class="st1" d="M37.1,14.5c-1.9-0.4-3.7-0.4-5.6,0c-0.3,1.4-0.8,4.2-0.1,5c0.2,0.2,1.2,0.6,2.3,0.4c0.3-0.2,0.3-1.4,0.3-2
						c0.1-0.8,0.1-0.9,0.2-0.9c0,0,0.3,0,0.3,0c0.1,0.1,0.1,2.7,0.5,2.9c0.9,0.3,2.3,0,2.5-0.4C38,18.8,37.5,15.3,37.1,14.5z
						 M34.3,15.6c-0.9,0-1.2-0.3-1.2-0.8c0,0,0.2,0.2,1.2,0.2c0.9,0,1.2-0.2,1.2-0.2C35.5,15.4,35.2,15.6,34.3,15.6z"/>
				</g>
				<path class="st1" d="M34.3,39.8L34.3,39.8L34.3,39.8L34.3,39.8L34.3,39.8L34.3,39.8L34.3,39.8L34.3,39.8c-3,0-6.4,0.3-7.8,0.6
					c-0.3-0.7-1.2-2.8-2.3-4.1c-0.2-0.2-0.7-0.7-0.8-0.8c-0.1-0.1-0.2-0.3,0-0.4c0.2-0.1,0.5-0.1,0.8-0.1c0.4,0.1,0.6,0.3,0.7,0.7
					c0,0,0.1,0.1,0.2,0.1c-0.1-0.3-0.1-0.5,0.1-0.7c0.1-0.1,0.4-0.3,0.9,0.1c0.2,0.2,0.3,0.4,0.4,0.6c0.1,0.3,0.2,0.5-0.1,0.7
					c-0.2,0.1-0.4,0.1-0.6,0l0,0.2c0.3,0.4,1.2,1,2.1,0.8c1.1-0.2,1.4-0.8,1.3-1.4c0,0,0,0-0.1-0.1c-0.1,0.1-0.2,0.2-0.4,0.2
					c-0.1,0-0.5,0-0.8-0.5c-0.2-0.4-0.2-0.7-0.1-0.8c0.1-0.1,0.4-0.2,0.9-0.1c0,0,0-0.1,0-0.1c-0.6-0.2-0.7-0.5-0.7-0.7
					c0-0.2,0.1-0.5,0.8-0.6c0.8-0.1,1,0.2,1.1,0.4c0.1,0.2,0,0.6-0.3,0.8c0,0,0.1,0.1,0.1,0.1c0.1-0.1,0.2-0.1,0.3-0.2
					c0.1-0.1,0.2-0.1,0.3-0.1c0.2,0,0.5,0.1,0.6,0.6c0.2,0.7-0.3,0.9-0.5,0.9c-0.1,0-0.4,0-0.5-0.1c0,0,0,0-0.1,0.1
					c0.4,0.8,1.1,1.2,2.2,1.2c1-0.1,1.7-0.6,1.7-1.7c0,0-0.1,0-0.1,0c0,0-0.2,0.3-0.5,0.3c-0.3,0-0.6-0.2-0.7-0.7
					c-0.1-0.5,0.1-0.8,0.3-0.9c0.3-0.1,0.6,0.1,0.7,0.2c0,0,0.1-0.1,0.1-0.1c-0.2-0.2-0.4-0.4-0.3-0.7c0.1-0.3,0.4-0.5,1-0.5h0
					c0.6,0,1,0.2,1,0.5c0.1,0.2-0.1,0.4-0.3,0.7c0,0,0.1,0.1,0.1,0.1c0.1-0.1,0.4-0.3,0.7-0.2c0.3,0.1,0.5,0.4,0.3,0.9
					c-0.1,0.4-0.4,0.7-0.7,0.7c-0.3,0-0.5-0.2-0.5-0.3c0,0-0.1,0-0.1,0c0,1.1,0.7,1.6,1.7,1.7c1.1,0.1,1.8-0.4,2.2-1.2
					c0,0,0-0.1-0.1-0.1c-0.1,0.1-0.4,0.1-0.5,0.1c-0.1,0-0.6-0.1-0.5-0.9c0.1-0.6,0.4-0.6,0.6-0.6c0.1,0,0.2,0,0.3,0.1
					c0.1,0.1,0.2,0.1,0.3,0.2c0,0,0.1-0.1,0.1-0.1c-0.3-0.3-0.4-0.7-0.3-0.8c0.1-0.2,0.3-0.5,1.1-0.4c0.7,0.1,0.8,0.4,0.8,0.6
					c0,0.2-0.1,0.6-0.7,0.7c0,0,0,0.1,0,0.1c0.5-0.1,0.8-0.1,0.9,0.1c0.1,0.1,0.1,0.4-0.1,0.8c-0.3,0.5-0.7,0.5-0.8,0.5
					c-0.2,0-0.3-0.2-0.4-0.2c0,0-0.1,0-0.1,0.1c-0.1,0.7,0.2,1.3,1.3,1.4c0.9,0.1,1.8-0.4,2.1-0.8l0-0.2c-0.2,0.1-0.5,0.1-0.6,0
					c-0.2-0.2-0.1-0.4-0.1-0.7c0.1-0.2,0.2-0.4,0.4-0.6c0.5-0.4,0.8-0.3,0.9-0.1c0.1,0.1,0.1,0.4,0.1,0.7c0,0,0.1-0.1,0.2-0.1
					c0.1-0.5,0.3-0.7,0.7-0.7c0.3-0.1,0.6,0,0.8,0.1c0.2,0.1,0.1,0.3,0,0.4c-0.1,0.1-0.6,0.6-0.8,0.8c-1.2,1.3-2,3.3-2.3,4.1
					C40.8,40.2,37.3,39.8,34.3,39.8L34.3,39.8L34.3,39.8L34.3,39.8L34.3,39.8L34.3,39.8L34.3,39.8L34.3,39.8z"/>
				<g>
					<path class="st1" d="M32,53.5c0.2,0,0.3-0.1,0.4-0.3l-0.6,0C31.9,53.4,31.9,53.5,32,53.5z"/>
					<path class="st1" d="M32.2,47.9l-0.6,0c0,0.2,0.1,0.3,0.2,0.3C31.9,48.2,32,48.1,32.2,47.9z"/>
					<path class="st1" d="M37.7,49.7c0,0,0.1,0,0.1,0c0.4,0,0.7-0.2,0.7-0.7c0-0.5-0.5-0.7-0.8-0.7c-0.9,0-0.8,1-1.8,1.1
						c0.2,0,0.3,0,0.5,0C37.2,49.4,37.5,49.4,37.7,49.7z"/>
					<path class="st1" d="M34.4,40.9c-4.2,0-6.7,0.4-7.6,0.6c0,0.7,0.2,6.5,0.4,11c0.3,5.4,3.1,7.1,7.2,7.1c3.8,0,6.9-0.9,7.2-7.1
						c0.2-4.5,0.4-10.3,0.4-11C41,41.3,38.5,40.9,34.4,40.9z M35.1,42.2c0.3,0,0.3,0.2,0.3,0.3h0.2c0-0.1,0-0.3,0.3-0.3
						c0.4,0,0.4,0.2,0.4,0.3c0,0.4-0.6,0.5-0.8,0.7h-0.1c-0.2-0.1-0.8-0.3-0.8-0.7C34.7,42.4,34.7,42.2,35.1,42.2z M31.1,42.6
						c0.1,0,0.2,0,0.3,0l-0.1-0.8l0.1,0c0.2,0.2,0.3,0.4,0.3,0.4h0.1c0-0.2,0.2-0.4,0.2-0.4l0.1,0c0.1,0.2,0.1,0.4,0.1,0.4l0.1,0
						c0,0,0.1-0.3,0.3-0.4l0.1,0l-0.1,0.6c0.3,0,0.9,1,0.9,1.8c0.3-0.1,1.5-0.1,1.6-0.1c-0.9-0.1-1.5-0.5-1.5-1.6c0.1,0,0.2,0,0.2,0
						c0.5,0.1,0.7,0.4,0.7,0.6c0,0.2-0.1,0.3-0.2,0.3c0,0.2,0.3,0.4,0.9,0.4c1.3,0,1.2-1.4,2.8-1.4c0.6,0,1.4,0.2,1.4,1.2
						c0,1-1.2,1.1-1.4,1.1c0.2,0.2-0.1,0.6,0.5,0.6c0.5,0,1.2-0.2,1.4-0.2c0.4,0,0.2,0.5,0.5,0.9c0.3,0.3,0.3,0.3,0.3,0.4
						c0,0.1-0.1,0.2-0.2,0.3c0,0,0-0.1,0-0.1c0,0,0,0-0.1,0c0,0-0.1,0-0.2-0.2c-0.1,0-0.2,0.1-0.2,0.1c0,0.1,0,0.1,0,0.2
						c0,0.1-0.2,0.2-0.2,0.2c0,0,0,0,0,0.1c0,0,0,0.1,0,0.1c-0.1,0-0.2-0.1-0.2-0.2c0-0.1,0-0.1,0-0.2c0,0,0-0.1-0.1-0.1
						c0,0-0.1,0-0.1,0c0,0,0,0.2-0.2,0.2c-0.1,0-0.1,0-0.2,0s0,0,0,0.1c0,0,0,0.1,0,0.1c-0.1-0.1-0.1-0.1-0.1-0.2
						c0-0.2,0.2-0.2,0.2-0.3c0,0,0-0.1-0.1-0.1c-0.1,0-0.1,0-0.2,0c0,0-0.1,0-0.1,0c-0.1,0.1-0.1,0.1-0.1,0.2c0-0.1-0.1-0.1-0.1-0.2
						c0-0.1,0.2-0.3,0.4-0.3c0.1,0,0.1,0,0.2,0c0.1,0,0.3-0.2,0.3-0.3c0,0,0,0,0,0c-0.4,0-1.5,0.4-2.5,0.4c-1.4,0-0.3-1.8-1.4-1.8
						c-1.1,0-1.4,1.2-2.6,1.2c-0.4,0-0.7-0.1-0.9-0.1c0,0.4,0,0.5-0.3,0.5c-0.3,0-1.1,0.1-2.6,0.1c-0.1,0.5-0.2,0.6-0.4,0.6
						c-0.1,0-0.2,0-0.3-0.1c0.1,0,0.2,0,0.2-0.1c0,0-0.1-0.1-0.1-0.1c0,0,0-0.1,0.1-0.1c0,0-0.1,0-0.1,0c-0.2,0-0.4,0.3-0.6,0.3
						c-0.1,0-0.2-0.1-0.2-0.2c-0.1,0-0.1,0.1-0.2,0.1c0-0.2,0-0.3,0.3-0.3c0.2,0,0.2,0,0.2-0.1c0,0,0,0,0-0.1c-0.1,0-0.1,0-0.2,0
						c-0.1,0-0.2-0.1-0.2-0.1c0,0,0,0,0,0c0,0-0.1,0-0.2,0.1c0-0.2,0.1-0.3,0.3-0.3s0.1,0,0.3,0.1c0,0,0-0.1,0-0.1
						c0-0.1-0.1-0.1-0.2-0.2c-0.1,0,0-0.2-0.2-0.2c-0.1,0-0.2,0.1-0.2,0.1c0-0.1,0.2-0.4,0.4-0.4c0.4,0,0.4,0.5,0.9,0.5
						c0.7,0,1.8-0.1,2-0.2c-0.1-0.1-0.3-0.3-0.3-0.5c0-0.2,0.2-0.6,0.3-0.8c0,0-0.1,0-0.1,0c-0.1,0-0.2,0-0.2-0.2
						c0-0.2,0.1-0.3,0.1-0.3H31c0,0.1,0.1,0.2,0.4,0.2c0.3,0,0.4-0.1,0.4-0.3c0-0.4-0.2-0.5-0.5-0.5c-0.3,0-0.3,0-0.3,0.1h-0.2
						c-0.1-0.2-0.2-0.3-0.2-0.5C30.6,42.6,30.7,42.6,31.1,42.6z M34.2,46.9c0,0-0.1,0-0.1,0c-0.3,0-0.2,0.5-0.6,0.2
						c-0.1,0-0.1,0.1,0,0.2c-0.1-0.1-0.1-0.2-0.1-0.3c0.1-0.1,0.3-0.2,0.3-0.2c0,0,0,0-0.1-0.1c-0.1,0-0.3,0.2-0.4,0.1l0-0.1
						c0,0-0.1,0-0.2,0.1c0-0.1,0.1-0.2,0.2-0.3c0.1,0,0.3,0,0.3-0.1c0,0,0,0,0,0c-0.1-0.1-0.2,0.1-0.3-0.1c-0.1,0-0.1,0-0.2,0.1
						c0-0.2,0.2-0.3,0.4-0.3c0.2,0,0.5,0.2,0.7,0.2c0.1,0,0.3,0,0.3,0c0.1,0,0.2,0,0.3,0c0.2,0,0.1-0.1,0.1-0.3
						c-0.1-0.4,0-0.8,0.4-1c0.2-0.1,0.5-0.2,0.8-0.1c0.1,0.1,0.1,0.2,0.1,0.3c0,0.2,0,0.3,0,0.5c-0.2,0-0.4,0.1-0.5,0.2
						c-0.1,0.2,0.1,0.4,0.1,0.6c0,0.2-0.1,0.2-0.2,0.2c-0.1,0-0.3,0-0.7,0l0,0.1c0,0.1-0.1,0.2-0.2,0.3c-0.1,0.1-0.3,0.1-0.4,0.1
						c0.1,0,0.1-0.1,0.1-0.1C34.1,47,34.2,46.9,34.2,46.9z M35.1,47.5c0.3,0,0.3,0.2,0.3,0.3h0.2c0-0.1,0-0.3,0.3-0.3
						c0.4,0,0.4,0.2,0.4,0.3c0,0.4-0.6,0.5-0.8,0.7h-0.1c-0.2-0.1-0.8-0.3-0.8-0.7C34.7,47.7,34.7,47.5,35.1,47.5z M30.6,50.7
						c-0.2-0.1-0.2-0.1-0.3-0.2c-0.3-0.3-0.4-0.8-0.6-1.1c-0.2-0.3-0.4-0.5-0.5-0.6c-0.2,0-0.3,0-0.4,0c-0.1,0-0.4,0-0.5-0.3
						c0.1,0,0.1,0.1,0.2,0.1c0-0.1,0.1-0.1,0.1-0.1c0.1,0,0.1,0,0.2,0c0,0,0.1,0,0.1,0s0,0,0,0c0-0.1-0.1-0.2-0.3-0.2
						c-0.2,0-0.3-0.2-0.3-0.3c0,0,0,0-0.1,0c0,0-0.1,0-0.1,0c0.1-0.1,0.3-0.2,0.4-0.2c0.2,0,0.4,0.2,0.4,0.2c0.1,0,0.1-0.1,0.1-0.1
						s-0.1-0.1-0.2-0.2c0,0-0.1-0.1-0.1-0.1c0,0,0-0.1,0-0.1c-0.1-0.1-0.1-0.1-0.2-0.1c0.2-0.1,0.2-0.1,0.3-0.1
						c0.3,0,0.4,0.3,0.4,0.4c0.1,0,0.1,0,0.1-0.1c0-0.1,0,0,0-0.1c0-0.1,0-0.1,0.1-0.2c0-0.1-0.1-0.1-0.1-0.1c0.1,0,0.1,0,0.2,0
						c0.1,0,0.3,0.1,0.3,0.3c0,0.2-0.1,0.4-0.1,0.5c0,0.2,0.8,1.3,1.1,1.6C30.6,49.9,30.3,50.4,30.6,50.7z M29.8,48.1
						c0,0,0.1,0,0.2,0c0.4,0,0.4,0.6,1,0.6c0.2,0,0.2-0.1,0.4-0.1c0.1,0,0.2,0,0.2,0.2c0,0.1-0.1,0.2-0.4,0.2
						C30.1,49,30.4,48.4,29.8,48.1z M30,42.8c0.4,0,0.4,0.6,1,0.6c0.2,0,0.2-0.1,0.4-0.1c0.1,0,0.2,0,0.2,0.2c0,0.1-0.1,0.2-0.4,0.2
						c-1,0-0.8-0.6-1.4-0.9C29.9,42.8,29.9,42.8,30,42.8z M28.4,42.4c0.2,0,0.4,0.2,0.4,0.2c0.1,0,0.1-0.1,0.1-0.1
						c0-0.1-0.1-0.1-0.2-0.2c0,0-0.1-0.1-0.1-0.1s0-0.1,0-0.1c-0.1-0.1-0.1-0.1-0.2-0.1c0.2-0.1,0.2-0.1,0.3-0.1
						c0.3,0,0.4,0.3,0.4,0.4c0.1,0,0.1,0,0.1-0.1c0-0.1,0,0,0-0.1c0-0.1,0-0.1,0.1-0.2c0-0.1-0.1-0.1-0.1-0.1c0.1,0,0.1,0,0.2,0
						c0.1,0,0.3,0.1,0.3,0.3c0,0.2-0.1,0.4-0.1,0.5c0,0.2,0.8,1.3,1.1,1.6c-0.1,0.2-0.4,0.7-0.1,1c-0.2-0.1-0.2-0.1-0.3-0.2
						c-0.3-0.3-0.4-0.8-0.6-1.1c-0.2-0.3-0.4-0.5-0.5-0.6c-0.2,0-0.3,0-0.4,0c-0.1,0-0.4,0-0.5-0.3c0.1,0,0.1,0.1,0.2,0.1
						c0-0.1,0.1-0.1,0.1-0.1c0.1,0,0.1,0,0.2,0c0,0,0.1,0,0.1,0s0,0,0,0c0-0.1-0.1-0.2-0.3-0.2c-0.2,0-0.3-0.2-0.3-0.3
						c0,0,0,0-0.1,0c0,0-0.1,0-0.1,0C28.2,42.5,28.3,42.4,28.4,42.4z M28,43.9c0.3,0,0.3,0.2,0.3,0.3h0.2c0-0.1,0-0.3,0.3-0.3
						c0.4,0,0.4,0.2,0.4,0.3c0,0.4-0.6,0.5-0.8,0.7h-0.1c-0.2-0.1-0.8-0.3-0.8-0.7C27.6,44.1,27.6,43.9,28,43.9z M27.6,49.5
						c0-0.1,0-0.3,0.4-0.3c0.3,0,0.3,0.2,0.3,0.3h0.2c0-0.1,0-0.3,0.3-0.3c0.4,0,0.4,0.2,0.4,0.3c0,0.4-0.6,0.5-0.8,0.7h-0.1
						C28.2,50,27.6,49.9,27.6,49.5z M28.2,51.7c0.2,0,0.2,0,0.2-0.1c0,0,0,0,0-0.1c-0.1,0-0.1,0-0.2,0c-0.1,0-0.2-0.1-0.2-0.1
						c0,0,0,0,0,0c0,0-0.1,0-0.2,0.1c0-0.2,0.1-0.3,0.3-0.3c0.1,0,0.1,0,0.3,0.1c0,0,0-0.1,0-0.1c0-0.1-0.1-0.1-0.2-0.2
						c-0.1,0,0-0.2-0.2-0.2c-0.1,0-0.2,0.1-0.2,0.1c0-0.1,0.2-0.4,0.4-0.4c0.4,0,0.4,0.5,1,0.5c0.7,0,1.6-0.1,1.8-0.2
						c-0.1-0.1-0.3-0.3-0.3-0.5c0-0.2,0.2-0.6,0.3-0.8c0,0-0.1,0-0.1,0c-0.1,0-0.2,0-0.2-0.2c0-0.2,0.1-0.3,0.1-0.3H31
						c0,0.1,0.1,0.2,0.4,0.2c0.3,0,0.4-0.1,0.4-0.3c0-0.4-0.2-0.5-0.5-0.5c-0.3,0-0.3,0-0.3,0.1h-0.2c-0.1-0.2-0.2-0.3-0.2-0.5
						c0-0.2,0.1-0.2,0.5-0.2c0.1,0,0.2,0,0.3,0L31.3,47l0.1,0c0.2,0.2,0.3,0.4,0.3,0.4h0.1c0-0.2,0.2-0.4,0.2-0.4l0.1,0
						c0.1,0.2,0.1,0.4,0.1,0.4l0.1,0c0,0,0.1-0.3,0.3-0.4l0.1,0l-0.1,0.6c0.3,0,0.9,1,0.9,1.8c0.3-0.1,1.5-0.1,1.6-0.1
						c-0.9-0.1-1.5-0.5-1.5-1.6c0.1,0,0.2,0,0.2,0c0.5,0.1,0.7,0.4,0.7,0.6c0,0.2-0.1,0.3-0.2,0.3c0,0.2,0.3,0.5,0.9,0.5
						c1.3,0,1-1.4,2.7-1.4c0.6,0,1.4,0.2,1.4,1.2c0,1-1,1.1-1.3,1.1c0.2,0.2-0.2,0.8,0.4,0.7c0.5-0.1,1.1-0.3,1.4-0.4l0,0
						c0.4-0.1,0.2,0.5,0.6,0.8c0.3,0.2,0.3,0.3,0.3,0.4c0,0.1,0,0.3-0.2,0.3c0,0,0-0.1,0-0.1c0,0,0,0-0.1,0c0,0-0.1,0-0.2-0.1
						c-0.1,0-0.2,0.1-0.2,0.2c0,0.1,0,0.1,0.1,0.2c0,0.1-0.1,0.2-0.2,0.2c0,0,0,0,0,0.1c0,0,0,0.1,0,0.1c-0.1,0-0.2-0.1-0.2-0.2
						c0-0.1,0-0.1,0-0.2c0,0,0-0.1-0.1-0.1c0,0-0.1,0-0.1,0c0,0,0,0.2-0.2,0.3c-0.1,0-0.1,0-0.2,0c0,0,0,0.1,0,0.1c0,0,0,0.1,0,0.1
						c-0.1,0-0.1-0.1-0.1-0.2c0-0.2,0.1-0.2,0.1-0.3c0-0.1-0.1-0.1-0.1-0.1c-0.1,0-0.1,0.1-0.2,0.1c0,0-0.1,0-0.1,0
						c0,0.1-0.1,0.1-0.1,0.2c-0.1-0.1-0.1-0.1-0.1-0.2c0-0.1,0.1-0.3,0.3-0.3c0.1,0,0.1,0,0.2,0c0.1,0,0.3-0.2,0.3-0.3c0,0,0,0,0,0
						c-0.4,0.1-1.5,0.5-2.5,0.5c-1.4,0-0.3-1.8-1.4-1.8c-1.1,0-1.4,1.2-2.6,1.2c-0.4,0-0.7-0.1-0.9-0.1c0,0.4,0,0.5-0.3,0.5
						c-0.3,0-0.9,0.1-2.4,0.1c-0.1,0.5-0.2,0.6-0.4,0.6c-0.1,0-0.2,0-0.3-0.1c0.1,0,0.2,0,0.2-0.1c0,0-0.1-0.1-0.1-0.1
						c0,0,0-0.1,0.1-0.1c0,0-0.1,0-0.1,0c-0.2,0-0.4,0.3-0.6,0.3c-0.1,0-0.2-0.1-0.2-0.2c-0.1,0-0.1,0.1-0.2,0.1
						C27.9,51.8,28,51.7,28.2,51.7z M34.2,52.2c0,0-0.1,0-0.1,0c-0.3,0-0.2,0.5-0.6,0.2c-0.1,0-0.1,0.1,0,0.2
						c-0.1,0-0.1-0.2-0.1-0.3c0.1-0.1,0.3-0.2,0.3-0.2c0,0,0-0.1-0.1-0.1c-0.1,0-0.3,0.2-0.4,0.1l0-0.1c0,0-0.1,0-0.2,0.1
						c0-0.1,0.1-0.2,0.2-0.3c0.1,0,0.3,0,0.3-0.1c0,0,0,0,0,0c-0.1-0.1-0.2,0.1-0.3-0.1c-0.1,0-0.1,0-0.2,0.1c0-0.2,0.2-0.3,0.4-0.3
						c0.2,0,0.5,0.2,0.7,0.2c0.1,0,0.3,0,0.3,0c0.1,0,0.2,0,0.3,0c0.2,0,0.1-0.1,0.1-0.3c-0.1-0.4,0-0.8,0.4-1
						c0.2-0.1,0.5-0.2,0.8-0.1c0.1,0.1,0.1,0.2,0.1,0.3c0,0.2,0,0.3,0,0.5c-0.2,0-0.4,0.1-0.5,0.2c-0.1,0.2,0.1,0.4,0.1,0.6
						c0,0.2-0.1,0.2-0.2,0.2c-0.1,0-0.3,0-0.7,0l0,0.1c0,0.1-0.1,0.2-0.2,0.3c-0.1,0.1-0.3,0.1-0.4,0.1c0.1,0,0.1-0.1,0.1-0.1
						C34.1,52.3,34.2,52.2,34.2,52.2z M35.1,52.8c0.3,0,0.3,0.2,0.3,0.3h0.2c0-0.1,0-0.3,0.3-0.3c0.4,0,0.4,0.2,0.4,0.3
						c0,0.4-0.6,0.5-0.8,0.7h-0.1c-0.2-0.1-0.8-0.3-0.8-0.7C34.7,53.1,34.7,52.8,35.1,52.8z M31,56c-0.1-0.1-0.2-0.1-0.3-0.2
						c-0.3-0.3-0.4-0.8-0.7-1.1c-0.2-0.3-0.4-0.5-0.4-0.5c-0.2,0-0.2,0-0.3,0c-0.1,0-0.3,0-0.5-0.3c0.1,0,0.1,0.1,0.2,0.1
						c0-0.1,0-0.1,0.1-0.1c0.1,0,0,0,0.1,0c0,0,0,0,0-0.1c0-0.1-0.1-0.2-0.2-0.2c-0.2,0-0.3-0.2-0.3-0.3c0,0,0,0-0.1,0
						c0,0-0.1,0-0.1,0c0.1-0.1,0.2-0.2,0.3-0.2c0.1,0,0.2,0,0.4,0.2c0,0,0-0.1,0-0.1c0,0-0.1-0.1-0.1-0.1c0,0-0.1-0.1-0.1-0.1
						c0,0,0-0.1,0-0.1c-0.1-0.1-0.1-0.1-0.2-0.1c0.1-0.1,0.2-0.1,0.3-0.1c0.3,0,0.4,0.3,0.4,0.4c0.1,0,0.1,0,0.1-0.1
						c0-0.1,0,0,0-0.1c0-0.1,0-0.1,0.1-0.2c0-0.1-0.1-0.1-0.1-0.1c0.1,0,0.1,0,0.1,0c0.1,0,0.3,0.1,0.3,0.3c0,0.2-0.1,0.4-0.1,0.5
						c0,0.2,0.8,1.3,1.1,1.5C30.9,55.2,30.7,55.7,31,56z M30.2,53.4c0,0,0.1,0,0.1,0c0.4,0,0.4,0.6,0.9,0.6c0.2,0,0.2-0.1,0.4-0.1
						c0.1,0,0.2,0,0.2,0.2c0,0.1-0.1,0.2-0.4,0.2C30.5,54.3,30.7,53.7,30.2,53.4z M28,54.9c0-0.1,0-0.3,0.4-0.3
						c0.3,0,0.3,0.2,0.3,0.3H29c0-0.1,0-0.3,0.3-0.3c0.4,0,0.4,0.2,0.4,0.3c0,0.4-0.6,0.5-0.8,0.7h-0.1C28.6,55.5,28,55.3,28,54.9z
						 M35.5,56.6c-0.1,0.2,0.1,0.5,0.1,0.7c0,0.2,0,0.2-0.1,0.3c-0.1,0-0.3,0.1-0.6,0.2c0,0,0.1,0.1,0.1,0.3c0,0.2-0.3,0.2-0.4,0.3
						c0.1-0.1,0.1-0.1,0.1-0.1c-0.2-0.1,0-0.2,0-0.2c0,0-0.1,0-0.1,0c-0.3,0.1-0.1,0.5-0.5,0.4c-0.1,0,0,0.1,0,0.2
						c-0.1,0-0.2-0.1-0.1-0.2c0-0.1,0.2-0.2,0.2-0.3c0,0,0,0-0.1,0c-0.1,0-0.2,0.3-0.4,0.2l0,0c0,0-0.1,0-0.1,0.1
						c0-0.1,0-0.2,0.1-0.3c0.1-0.1,0.3-0.1,0.3-0.2c0,0,0,0,0,0c-0.1-0.1-0.2,0.1-0.3,0c-0.1,0-0.1,0.1-0.2,0.1
						c0-0.1,0.1-0.3,0.3-0.4c0.2-0.1,0.5,0.1,0.7,0c0.1,0,0.3,0,0.3,0c0.1,0,0.1,0,0.2-0.1c0.2,0,0.1-0.1,0-0.3
						c-0.2-0.4,0.1-1.1,0.4-1.3c0.2-0.1,0.4-0.2,0.7-0.1c0.1,0.1,0.1,0.2,0.1,0.3c0,0.2,0,0.3,0,0.5C35.8,56.4,35.6,56.4,35.5,56.6z
						 M39.9,57.1c0,0,0-0.1,0-0.1c0,0,0,0,0,0c-0.1,0-0.1,0-0.2-0.1c-0.1,0.1-0.1,0.1-0.1,0.2c0,0.1,0,0.1,0.1,0.1
						c0,0.1-0.1,0.2-0.1,0.3c0,0,0,0,0,0.1c0,0,0,0.1,0,0.1c-0.1,0-0.2,0-0.2-0.2c0-0.1,0-0.1,0-0.1c0,0,0,0-0.1,0c0,0-0.1,0-0.1,0
						c0,0.1,0,0.2-0.1,0.3c-0.1,0-0.1,0-0.1,0c0,0,0,0.1,0,0.1c0,0,0,0.1,0,0.1c-0.1,0-0.1-0.1-0.1-0.2c-0.1-0.2,0.1-0.2,0.1-0.3
						c0,0,0,0-0.1,0c-0.1,0.1-0.1,0.1-0.2,0.1c0,0-0.1,0-0.1,0c0,0.1,0,0.1,0,0.2c-0.1-0.1-0.1-0.1-0.1-0.2c0-0.1,0.1-0.3,0.3-0.4
						c0.1,0,0.1,0,0.2,0c0.1,0,0.2-0.2,0.2-0.4c0,0,0,0,0,0c-0.3,0.1-1.3,0.8-2.1,0.8c-1.2,0-0.2-2-1.2-2c-1,0-1.2,1.2-2.3,1.2
						c-0.4,0-0.7-0.1-0.8-0.1c0,0.4,0,0.5-0.3,0.5c-0.2,0-0.5,0.1-1.9,0.1c-0.1,0.5-0.2,0.6-0.4,0.6c-0.1,0-0.1,0-0.2-0.1
						c0.1,0,0.2,0,0.2-0.1c0,0-0.1-0.1-0.1-0.1c0,0,0-0.1,0.1-0.1c0,0,0,0-0.1,0c-0.2,0-0.3,0.3-0.6,0.3c-0.1,0-0.2-0.1-0.2-0.2
						c0,0-0.1,0.1-0.2,0.1c0-0.2,0-0.3,0.3-0.3c0.1,0,0.2,0,0.2-0.1c0,0,0,0,0-0.1c-0.1,0-0.1,0-0.2,0c-0.1,0-0.2,0-0.2-0.1
						c0,0,0,0,0,0s-0.1,0-0.2,0.1c0-0.2,0.1-0.3,0.3-0.3c0.1,0,0.1,0,0.3,0.1c0,0,0,0,0-0.1c0-0.1-0.1-0.1-0.2-0.2
						c-0.1,0,0-0.2-0.2-0.2c-0.1,0-0.2,0.1-0.2,0.1c0-0.1,0.2-0.3,0.4-0.3c0.4,0,0.4,0.4,0.9,0.4c0.6,0,1.1-0.1,1.2-0.2
						c-0.1-0.1-0.3-0.3-0.3-0.5c0-0.2,0.2-0.6,0.3-0.8c0,0-0.1,0-0.1,0c-0.1,0-0.2,0-0.2-0.2c0-0.2,0.1-0.3,0.1-0.3h0.2
						c0,0.1,0.1,0.2,0.4,0.2c0.3,0,0.4-0.1,0.4-0.3c0-0.4-0.1-0.5-0.5-0.5c-0.3,0-0.3,0-0.3,0.1h-0.2c-0.1-0.2-0.2-0.3-0.2-0.5
						c0-0.2,0.1-0.2,0.5-0.2c0.1,0,0.2,0,0.3,0l-0.1-0.8l0.1,0c0.2,0.2,0.3,0.4,0.3,0.4h0.1c0-0.2,0.1-0.4,0.1-0.4l0.1,0
						c0.1,0.2,0.1,0.4,0.1,0.4h0.1c0,0,0.1-0.3,0.3-0.4l0.1,0L32.8,53c0.3,0,0.8,1,0.8,1.8c0.3-0.1,1.3-0.1,1.4-0.1
						c-0.8-0.1-1.3-0.5-1.3-1.6c0.1,0,0.2,0,0.2,0c0.4,0.1,0.6,0.4,0.6,0.6c0,0.2-0.1,0.3-0.2,0.3c0,0.2,0.3,0.4,0.8,0.4
						c1.1,0,1.2-1.3,2.5-1.3c0.5,0,1.2,0.2,1.2,1.1c0,0.9-1,1.1-1.2,1.1c0.2,0.2-0.3,1,0.2,0.8c0.5-0.1,1-0.5,1.2-0.5
						c0.4-0.1,0.3,0.5,0.7,0.7c0.3,0.2,0.3,0.2,0.4,0.3C40.1,56.8,40,57,39.9,57.1z M40.1,55.6h-0.1c-0.2-0.1-0.8-0.3-0.8-0.7
						c0-0.1,0-0.3,0.4-0.3c0.3,0,0.3,0.2,0.3,0.3h0.2c0-0.1,0-0.3,0.3-0.3c0.4,0,0.4,0.2,0.4,0.3C40.8,55.3,40.3,55.5,40.1,55.6z
						 M40.4,50.1h-0.1c-0.2-0.1-0.8-0.3-0.8-0.7c0-0.1,0-0.3,0.4-0.3c0.3,0,0.3,0.2,0.3,0.3h0.2c0-0.1,0-0.3,0.3-0.3
						c0.4,0,0.4,0.2,0.4,0.3C41.1,49.9,40.6,50,40.4,50.1z M40.4,44.9h-0.1c-0.2-0.1-0.8-0.3-0.8-0.7c0-0.1,0-0.3,0.4-0.3
						c0.3,0,0.3,0.2,0.3,0.3h0.2c0-0.1,0-0.3,0.3-0.3c0.4,0,0.4,0.2,0.4,0.3C41.2,44.6,40.6,44.7,40.4,44.9z"/>
					<path class="st1" d="M38.3,54.3c0-0.5-0.4-0.6-0.6-0.6c-0.7,0-0.9,0.9-1.7,1c0.2,0,0.3,0,0.4,0c0.6,0,0.9,0.1,1,0.3
						c0,0,0.1,0,0.1,0C37.9,55,38.3,54.7,38.3,54.3z"/>
					<path class="st1" d="M37.7,44.4c0,0,0.1,0,0.1,0c0.4,0,0.8-0.2,0.8-0.7c0-0.5-0.4-0.7-0.7-0.7c-0.8,0-1,1-1.9,1.1
						c0.2,0,0.3,0,0.5,0C37.2,44.1,37.5,44.2,37.7,44.4z"/>
					<path class="st1" d="M31.7,42.9c0.2,0,0.3-0.1,0.4-0.3l-0.6,0C31.5,42.8,31.6,42.9,31.7,42.9z"/>
				</g>
				<path class="st1" d="M51.4,27.3c0.3,0,0.6,0.1,0.6,0.6c0,0.6-0.3,0.8-0.5,0.8c-0.3,0-0.9-0.1-0.9-0.8
					C50.6,27.4,51.2,27.3,51.4,27.3z"/>
				<path class="st1" d="M48.1,27.5c0.3,0,0.5,0.3,0.6,0.4c0-0.2,0.3-0.4,0.5-0.4c0.4,0,0.5,0.3,0.7,0.7c0.2,0.4,0.4,0.8,0.9,0.8
					c0,0.7-0.2,1.1-0.8,1.1c-0.3,0-0.4-0.1-0.5-0.1c-0.1,0.2-0.2,0.4-0.7,0.4c-0.3,0-0.6-0.2-0.7-0.3c-0.2,0.2-0.4,0.3-0.7,0.3
					c-0.3,0-0.5-0.2-0.7-0.4c-0.1,0-0.3,0.1-0.4,0.1c-0.5,0-0.7-1-0.7-1.2c0-0.3,0.2-0.5,0.5-0.5c0.1,0,0.2,0,0.3,0.1
					c0-0.2,0.1-0.6,0.5-0.6c0.2,0,0.4,0.1,0.5,0.2C47.7,27.8,47.8,27.5,48.1,27.5z"/>
				<path class="st1" d="M48,23.7c-0.8,0-2.7,0.9-2.7,2.8c0,0.4,0,0.9,0.1,1.2c0,0,0.1-0.1,0.3-0.1c0.1,0,0.3,0.1,0.5,0.3
					c0-0.3,0.1-0.6,0.6-0.6c0.3,0,0.4,0.1,0.5,0.2c0.1-0.4,0.4-0.5,0.7-0.5s0.6,0.2,0.7,0.5c0-0.3,0.3-0.4,0.5-0.4
					c0.5,0,0.7,0.3,0.9,0.7c0-0.5,0.7-0.7,1.3-0.7c0.1,0,0.1,0,0.2,0c0-1.5-0.7-2.7-2.3-3.1c0.3-2.5,0.1-2.7,0.1-2.8
					c-0.1-0.1-0.2-0.1-0.3-0.2l0-0.4c0.2,0,0.4-0.3,0.4-0.5c0-0.1-0.2-1.3-0.2-1.4c0-0.1,0.1-0.2,0.2-0.2c0.1,0,1.1,0.5,1.3,0.5
					c0.3,0,0.5-0.2,0.5-0.5c0-0.3-0.2-0.6-0.4-0.6c-0.1,0-1.1,0.2-1.3,0.3c-0.1,0-0.2-0.1-0.2-0.3c0,0,0.4-1.2,0.4-1.3
					c0-0.3-0.2-0.5-0.5-0.5c-0.3-0.1-0.6,0.1-0.6,0.4c0,0.1,0.2,1.3,0.2,1.4c0,0.1-0.1,0.2-0.2,0.2c-0.2-0.1-1.2-0.4-1.3-0.5
					c-0.3,0-0.5,0.2-0.5,0.5c0,0.3,0.2,0.6,0.4,0.6c0.1,0,1.3-0.3,1.4-0.3c0.1,0,0.2,0.1,0.2,0.3c0,0-0.3,1.2-0.4,1.3
					c0,0.2,0.1,0.5,0.3,0.5l0,0.4c-0.1,0-0.2,0-0.3,0.1C48.2,20.9,48.1,21.1,48,23.7z"/>
			</g>
		</g>
	</g>
</g>
</svg>
