<?xml version="1.0" encoding="utf-8"?>
<!-- Generator: Adobe Illustrator 16.0.4, SVG Export Plug-In . SVG Version: 6.00 Build 0)  -->
<!DOCTYPE svg PUBLIC "-//W3C//DTD SVG 1.1//EN" "http://www.w3.org/Graphics/SVG/1.1/DTD/svg11.dtd">
<svg version="1.1" id="Layer_1" xmlns="http://www.w3.org/2000/svg" xmlns:xlink="http://www.w3.org/1999/xlink" x="0px" y="0px"
	 width="299px" height="43px" viewBox="0 0 299 43" enable-background="new 0 0 299 43" xml:space="preserve">
<g enable-background="new    ">
	<path fill="#FFFFFF" d="M2.334,19.896c0-1.381-0.08-1.421-0.94-1.601l-0.3-0.061c-0.14-0.1-0.12-0.439,0.04-0.5
		c0.7,0.04,1.32,0.061,1.96,0.061c0.64,0,1.26-0.021,2-0.061c0.18,0.061,0.2,0.4,0.02,0.5l-0.4,0.061
		c-0.78,0.12-0.86,0.22-0.86,1.601v1.12c0,0.399,0,0.64,0.1,0.7s0.4-0.021,0.54-0.12c0.68-0.48,2.261-2.261,2.421-2.44
		c0.42-0.479,0.46-0.761,0.16-0.82l-0.44-0.101c-0.18-0.08-0.16-0.46,0.04-0.5c0.56,0.04,1.14,0.061,1.78,0.061
		c0.56,0,1.021-0.021,1.681-0.061c0.18,0.061,0.22,0.4,0.04,0.5c-0.36,0.08-0.98,0.181-1.36,0.381c-0.5,0.26-0.98,0.66-1.86,1.5
		l-0.92,0.88c-0.4,0.4-0.38,0.46-0.08,0.82l2.5,3c0.72,0.859,1.021,1.141,1.9,1.201l0.28,0.02c0.16,0.119,0.12,0.421-0.04,0.5
		c-0.62-0.04-1.08-0.061-1.96-0.061c-0.66,0-1.3,0-1.96,0.061c-0.2-0.079-0.22-0.381-0.08-0.5l0.28-0.04
		c0.46-0.06,0.54-0.181,0.24-0.54l-1.8-2.182c-0.16-0.198-0.74-1.061-1.12-1.061c-0.34,0-0.34,0.2-0.34,0.762v1.398
		c0,1.381,0.08,1.46,0.94,1.602l0.38,0.061c0.14,0.102,0.12,0.439-0.04,0.5c-0.76-0.04-1.42-0.061-2.04-0.061
		c-0.64,0-1.26,0.021-1.901,0.061c-0.16-0.061-0.18-0.398-0.04-0.5l0.24-0.061c0.84-0.199,0.94-0.221,0.94-1.602L2.334,19.896
		L2.334,19.896z"/>
	<path fill="#FFFFFF" d="M20.555,18.416c1.18,0.84,1.781,2.2,1.781,3.682c0,2.699-2.041,4.66-4.861,4.66
		c-0.98,0-1.84-0.199-2.541-0.58l-0.76,1.061c-0.32-0.039-0.48-0.18-0.52-0.438l0.7-0.979c-1.18-0.84-1.82-2.141-1.82-3.602
		c0-2.661,2.041-4.701,4.941-4.701c1,0,1.84,0.2,2.5,0.54l0.7-0.98c0.28,0,0.48,0.16,0.52,0.44L20.555,18.416z M19.355,18.916
		c-0.5-0.5-1.18-0.82-2.021-0.82c-1.44,0-3.061,0.98-3.061,3.801c0,1.021,0.24,2.101,0.8,2.921L19.355,18.916z M15.514,25.377
		c0.52,0.48,1.2,0.801,2.061,0.801c1.521,0,3.021-1.039,3.021-3.781c0-1.06-0.24-2.12-0.8-2.919L15.514,25.377z"/>
	<path fill="#FFFFFF" d="M27.194,20.136c0-1.3-0.02-1.62-0.58-1.7l-0.62-0.08c-0.18-0.06-0.16-0.439,0.02-0.5
		c1-0.08,2.18-0.12,3.34-0.12c0.98,0,1.801,0.021,2.541,0.301c0.72,0.26,1.26,0.819,1.26,1.76c0,0.86-0.58,1.4-1.6,1.761
		c-0.08,0.14,0.06,0.16,0.5,0.26c0.72,0.16,1.78,0.801,1.78,2.181c0,1.08-0.54,1.7-1.32,2.08c-0.76,0.36-1.78,0.46-2.72,0.46
		c-0.4,0-1.061-0.061-1.781-0.061c-0.64,0-1.32,0.021-2.1,0.061c-0.16-0.061-0.18-0.398-0.04-0.5l0.38-0.061
		c0.86-0.142,0.94-0.221,0.94-1.602V20.136z M28.714,21.196c0,0.32,0.04,0.34,0.68,0.34c1.26,0,2.121-0.3,2.121-1.56
		c0-1.2-0.9-1.661-1.92-1.661c-0.84,0-0.88,0.181-0.88,0.54L28.714,21.196L28.714,21.196z M28.714,24.396
		c0,1.201,0.26,1.561,1.5,1.561c1,0,1.94-0.46,1.94-1.779c0-1.58-1.2-2.062-2.5-2.062c-0.9,0-0.94,0.079-0.94,0.341V24.396z"/>
	<path fill="#FFFFFF" d="M38.813,19.896c0-1.381-0.08-1.44-0.84-1.601l-0.28-0.061c-0.14-0.08-0.12-0.42,0.04-0.5
		c0.581,0.04,1.201,0.061,1.861,0.061h2.84c0.88,0,1.68-0.021,1.86-0.061c0.02,0.24,0.12,1.181,0.22,2.041
		c-0.08,0.16-0.4,0.18-0.52,0.04c-0.12-0.521-0.24-0.78-0.36-0.961c-0.32-0.479-1.22-0.479-1.7-0.479h-0.881
		c-0.7,0-0.72,0.02-0.72,0.64v2.221c0,0.36,0,0.4,0.38,0.4h0.94c1.061,0,1.16-0.16,1.32-0.761l0.1-0.38c0.1-0.14,0.4-0.12,0.5,0.04
		c-0.04,0.58-0.04,0.94-0.04,1.4c0,0.5,0,0.86,0.04,1.44c-0.1,0.16-0.4,0.18-0.5,0.04l-0.1-0.38c-0.16-0.602-0.26-0.762-1.32-0.762
		h-0.94c-0.38,0-0.38,0.062-0.38,0.461v1.438c0,0.603,0.04,1.222,0.22,1.44c0.18,0.199,0.54,0.279,1.68,0.279
		c1.28,0,2.021-0.062,2.601-1.66c0.14-0.142,0.46-0.102,0.52,0.08c-0.1,0.84-0.38,1.84-0.6,2.221c-1.26-0.04-2.32-0.061-3.4-0.061
		h-1.76c-0.641,0-1.261,0.021-2.221,0.061c-0.16-0.061-0.18-0.398-0.04-0.5l0.54-0.061c0.86-0.102,0.94-0.221,0.94-1.602V19.896z"/>
	<path fill="#FFFFFF" d="M56.654,20.876c0-2-0.12-2.521-0.86-2.58l-0.64-0.061c-0.14-0.119-0.12-0.399,0.04-0.5
		c0.74,0.04,1.2,0.061,1.78,0.061c0.581,0,1.021-0.021,1.661-0.061c0.16,0.101,0.16,0.4,0.02,0.5l-0.6,0.061
		c-0.52,0.06-0.68,0.6-0.68,2.58v3.36c0,0.398,0,2.021,0.06,2.32c-0.06,0.119-0.24,0.221-0.42,0.18
		c-0.22-0.278-0.62-0.699-1.86-2.039l-3.041-3.241c-0.76-0.8-1.28-1.32-1.541-1.54c-0.08,0-0.08,0.22-0.08,0.84v2.641
		c0,2.002,0.12,2.521,0.86,2.582l0.64,0.061c0.16,0.12,0.12,0.398-0.04,0.5c-0.74-0.04-1.2-0.061-1.78-0.061s-0.96,0.021-1.66,0.061
		c-0.16-0.079-0.16-0.398-0.02-0.5l0.6-0.061c0.52-0.062,0.68-0.602,0.68-2.582v-3.58c0-0.66-0.02-0.94-0.42-1.24
		c-0.16-0.12-0.54-0.24-0.74-0.28l-0.3-0.061c-0.14-0.119-0.14-0.42,0.04-0.5c0.76,0.061,1.3,0.061,1.72,0.061
		c0.28,0,0.56-0.021,0.8-0.061c0.4,0.761,1.14,1.621,1.96,2.461l1.88,1.94c0.44,0.44,1.6,1.7,1.82,1.86
		c0.12-0.04,0.12-0.319,0.12-0.8L56.654,20.876L56.654,20.876z"/>
	<path fill="#FFFFFF" d="M69.114,21.637c0.64,0,0.72,0,0.72-0.521v-1.22c0-1.381-0.08-1.461-0.94-1.601l-0.38-0.061
		c-0.14-0.1-0.12-0.439,0.04-0.5c0.78,0.04,1.4,0.061,2.04,0.061c0.64,0,1.26-0.021,2.041-0.061c0.16,0.061,0.18,0.4,0.04,0.5
		l-0.38,0.061c-0.86,0.14-0.94,0.22-0.94,1.601v4.48c0,1.381,0.08,1.479,0.94,1.601l0.46,0.062c0.14,0.103,0.12,0.438-0.04,0.5
		c-0.84-0.04-1.5-0.062-2.121-0.062c-0.64,0-1.26,0.021-2.04,0.062c-0.16-0.062-0.18-0.397-0.04-0.5l0.38-0.062
		c0.86-0.141,0.94-0.22,0.94-1.601v-1.58c0-0.5-0.04-0.521-0.72-0.521h-3.521c-0.68,0-0.72,0.021-0.72,0.521v1.58
		c0,1.381,0.08,1.5,0.94,1.601l0.54,0.062c0.14,0.103,0.12,0.438-0.04,0.5c-0.92-0.04-1.58-0.062-2.2-0.062
		c-0.64,0-1.26,0.021-1.881,0.062c-0.16-0.062-0.18-0.397-0.04-0.5l0.22-0.062c0.84-0.22,0.94-0.22,0.94-1.601v-4.48
		c0-1.381-0.08-1.48-0.94-1.601l-0.46-0.061c-0.14-0.1-0.12-0.439,0.04-0.5c0.86,0.04,1.48,0.061,2.121,0.061
		c0.641,0,1.26-0.021,1.96-0.061c0.16,0.061,0.18,0.4,0.04,0.5l-0.3,0.061c-0.84,0.16-0.94,0.22-0.94,1.601v1.22
		c0,0.521,0.08,0.521,0.72,0.521H69.114z"/>
	<path fill="#FFFFFF" d="M78.713,23.377c-0.46,0-0.52,0.02-0.68,0.48l-0.46,1.279c-0.22,0.641-0.16,0.721,0.22,0.801l0.541,0.1
		c0.16,0.102,0.14,0.46-0.06,0.5c-0.5-0.04-1.021-0.061-1.581-0.061s-1.04,0.041-1.4,0.061c-0.18-0.079-0.18-0.398-0.04-0.5
		l0.46-0.1c0.62-0.142,0.84-0.36,1.24-1.32l1.92-4.601c0.34-0.82,0.48-1.301,0.52-1.681c0.36-0.141,0.74-0.521,0.84-0.761
		c0.16-0.06,0.28-0.02,0.32,0.101c0.08,0.2,0.4,1.24,0.86,2.46l1.8,4.781c0.24,0.66,0.42,0.92,1.14,1.061l0.32,0.062
		c0.18,0.103,0.14,0.46-0.06,0.5c-0.521-0.04-0.98-0.062-1.661-0.062c-0.72,0-1.3,0.021-1.8,0.062c-0.2-0.062-0.22-0.42-0.04-0.5
		l0.4-0.062c0.52-0.08,0.5-0.199,0.26-0.818l-0.48-1.301c-0.16-0.461-0.22-0.479-0.68-0.479L78.713,23.377L78.713,23.377z
		 M80.293,22.736c0.521,0,0.581-0.041,0.36-0.62l-0.62-1.7c-0.16-0.46-0.24-0.62-0.3-0.72h-0.04c-0.06,0.08-0.14,0.26-0.32,0.68
		l-0.72,1.78c-0.22,0.539-0.18,0.58,0.26,0.58H80.293z"/>
	<path fill="#FFFFFF" d="M87.092,19.937c-0.6-1.32-0.68-1.421-1.16-1.541l-0.66-0.16c-0.12-0.119-0.14-0.399,0.02-0.5
		c0.52,0.04,1.18,0.061,1.8,0.061c0.72,0,1.3-0.021,1.94-0.061c0.16,0.08,0.18,0.4,0,0.5l-0.42,0.061
		c-0.52,0.08-0.52,0.34-0.08,1.32l0.98,2.221c0.5,1.141,0.84,1.881,1.14,2.54c0.4-0.84,0.74-1.681,1.12-2.521
		c0.42-0.92,0.98-2.301,1.18-2.881c0.14-0.42,0.12-0.56-0.48-0.68l-0.319-0.061c-0.18-0.119-0.12-0.38,0.04-0.5
		c0.58,0.04,1.101,0.061,1.641,0.061c0.64,0,1.1-0.021,1.42-0.061c0.2,0.08,0.24,0.4,0.1,0.5l-0.56,0.12
		c-0.6,0.12-0.72,0.301-1.36,1.661l-1.52,3.259c-0.6,1.281-1.18,2.742-1.42,3.4c-0.06,0.061-0.14,0.08-0.24,0.08
		c-0.08,0-0.16-0.021-0.24-0.08c-0.18-0.521-0.4-1.158-0.66-1.721L87.092,19.937z"/>
	<path fill="#FFFFFF" d="M106.054,20.876c0-2-0.12-2.521-0.86-2.58l-0.64-0.061c-0.14-0.119-0.12-0.399,0.04-0.5
		c0.74,0.04,1.2,0.061,1.78,0.061c0.581,0,1.021-0.021,1.661-0.061c0.16,0.101,0.16,0.4,0.02,0.5l-0.6,0.061
		c-0.52,0.06-0.68,0.6-0.68,2.58v3.36c0,0.398,0,2.021,0.06,2.32c-0.06,0.119-0.24,0.221-0.42,0.18
		c-0.22-0.278-0.62-0.699-1.86-2.039l-3.041-3.241c-0.76-0.8-1.28-1.32-1.541-1.54c-0.08,0-0.08,0.22-0.08,0.84v2.641
		c0,2.002,0.12,2.521,0.86,2.582l0.64,0.061c0.16,0.12,0.12,0.398-0.04,0.5c-0.74-0.04-1.2-0.061-1.78-0.061
		c-0.58,0-0.96,0.021-1.66,0.061c-0.16-0.079-0.16-0.398-0.02-0.5l0.6-0.061c0.52-0.062,0.68-0.602,0.68-2.582v-3.58
		c0-0.66-0.02-0.94-0.42-1.24c-0.16-0.12-0.54-0.24-0.74-0.28l-0.3-0.061c-0.14-0.119-0.14-0.42,0.04-0.5
		c0.76,0.061,1.3,0.061,1.72,0.061c0.28,0,0.56-0.021,0.8-0.061c0.4,0.761,1.14,1.621,1.96,2.461l1.88,1.94
		c0.44,0.44,1.6,1.7,1.82,1.86c0.12-0.04,0.12-0.319,0.12-0.8L106.054,20.876L106.054,20.876z"/>
	<path fill="#FFFFFF" d="M113.672,22.396c-0.96-0.5-1.78-1.28-1.78-2.4c0-1.46,1.12-2.48,3.141-2.48c0.7,0,1.18,0.18,1.86,0.3
		c0.16,0.34,0.3,1.101,0.28,1.961c-0.06,0.16-0.42,0.18-0.52,0.04c-0.16-0.7-0.68-1.721-1.86-1.721c-1.181,0-1.621,0.681-1.621,1.36
		c0,0.72,0.54,1.16,1.34,1.58l1.24,0.641c0.72,0.359,1.62,1.2,1.62,2.54c0,1.561-1.28,2.541-3.26,2.541
		c-1.22,0-2.021-0.42-2.301-0.619c-0.18-0.281-0.42-1-0.42-2.062c0.08-0.2,0.38-0.22,0.52-0.04c0.16,0.72,1.04,2.141,2.38,2.141
		c1.021,0,1.681-0.521,1.681-1.439c0-0.641-0.26-1.301-1.4-1.881L113.672,22.396z"/>
	<path fill="#FFFFFF" d="M129.052,19.896c0-1.381-0.1-1.421-0.94-1.601l-0.28-0.061c-0.14-0.1-0.12-0.439,0.04-0.5
		c0.68,0.04,1.3,0.061,1.94,0.061s1.261-0.021,2.04-0.061c0.16,0.061,0.18,0.4,0.041,0.5l-0.381,0.061
		c-0.86,0.14-0.939,0.22-0.939,1.601v2.82c0,2,0.66,3.36,2.6,3.36c1.801,0,2.582-1.36,2.582-3.342v-1.859c0-2-0.121-2.46-0.98-2.58
		l-0.42-0.061c-0.141-0.119-0.12-0.399,0.04-0.5c0.641,0.04,1.1,0.061,1.68,0.061c0.58,0,1.021-0.021,1.66-0.061
		c0.16,0.101,0.16,0.4,0.021,0.5l-0.602,0.062c-0.52,0.06-0.68,0.6-0.68,2.58v1.979c0,2.562-1.18,3.9-3.721,3.9
		c-1.281,0-2.24-0.261-2.841-0.841c-0.6-0.601-0.86-1.521-0.86-2.819V19.896L129.052,19.896z"/>
	<path fill="#FFFFFF" d="M149.113,20.876c0-2-0.12-2.521-0.86-2.58l-0.641-0.061c-0.139-0.119-0.119-0.399,0.041-0.5
		c0.74,0.04,1.199,0.061,1.779,0.061c0.58,0,1.021-0.021,1.66-0.061c0.16,0.101,0.16,0.4,0.021,0.5l-0.602,0.061
		c-0.521,0.06-0.68,0.6-0.68,2.58v3.36c0,0.398,0,2.021,0.061,2.32c-0.061,0.119-0.24,0.221-0.42,0.18
		c-0.221-0.278-0.621-0.699-1.861-2.039l-3.04-3.241c-0.761-0.8-1.28-1.32-1.54-1.54c-0.08,0-0.08,0.22-0.08,0.84v2.641
		c0,2.002,0.119,2.521,0.859,2.582l0.641,0.061c0.16,0.12,0.12,0.398-0.04,0.5c-0.739-0.04-1.2-0.061-1.78-0.061
		c-0.58,0-0.959,0.021-1.66,0.061c-0.159-0.079-0.159-0.398-0.02-0.5l0.6-0.061c0.521-0.062,0.681-0.602,0.681-2.582v-3.58
		c0-0.66-0.021-0.94-0.42-1.24c-0.16-0.12-0.54-0.24-0.74-0.28l-0.3-0.061c-0.141-0.119-0.141-0.42,0.04-0.5
		c0.76,0.061,1.301,0.061,1.721,0.061c0.279,0,0.56-0.021,0.8-0.061c0.399,0.761,1.141,1.621,1.961,2.461l1.881,1.94
		c0.438,0.44,1.601,1.7,1.819,1.86c0.12-0.04,0.12-0.319,0.12-0.8L149.113,20.876L149.113,20.876z"/>
	<path fill="#FFFFFF" d="M155.811,19.896c0-1.381-0.08-1.461-0.938-1.601l-0.381-0.061c-0.14-0.1-0.119-0.439,0.041-0.5
		c0.778,0.04,1.399,0.061,2.041,0.061c0.639,0,1.26-0.021,2.038-0.061c0.16,0.061,0.181,0.4,0.041,0.5l-0.381,0.061
		c-0.858,0.14-0.938,0.22-0.938,1.601v4.48c0,1.381,0.08,1.46,0.938,1.601l0.381,0.062c0.14,0.103,0.119,0.438-0.041,0.5
		c-0.76-0.04-1.42-0.062-2.038-0.062c-0.642,0-1.263,0.021-2.041,0.062c-0.16-0.062-0.181-0.397-0.041-0.5l0.381-0.062
		c0.858-0.141,0.938-0.22,0.938-1.601V19.896z"/>
	<path fill="#FFFFFF" d="M163.131,19.937c-0.6-1.32-0.68-1.421-1.16-1.541l-0.658-0.16c-0.121-0.119-0.143-0.399,0.021-0.5
		c0.521,0.04,1.181,0.061,1.801,0.061c0.722,0,1.3-0.021,1.938-0.061c0.16,0.08,0.181,0.4,0,0.5l-0.42,0.061
		c-0.521,0.08-0.521,0.34-0.08,1.32l0.979,2.221c0.5,1.141,0.841,1.881,1.144,2.54c0.397-0.84,0.738-1.681,1.119-2.521
		c0.42-0.92,0.979-2.301,1.182-2.881c0.139-0.42,0.119-0.56-0.48-0.68l-0.32-0.061c-0.18-0.119-0.118-0.38,0.041-0.5
		c0.58,0.04,1.101,0.061,1.642,0.061c0.64,0,1.101-0.021,1.42-0.061c0.199,0.08,0.24,0.4,0.103,0.5l-0.562,0.12
		c-0.6,0.12-0.721,0.301-1.359,1.661l-1.521,3.259c-0.601,1.281-1.181,2.742-1.42,3.4c-0.062,0.061-0.142,0.08-0.24,0.08
		c-0.079,0-0.159-0.021-0.239-0.08c-0.181-0.521-0.398-1.158-0.658-1.721L163.131,19.937z"/>
	<path fill="#FFFFFF" d="M175.09,19.896c0-1.381-0.08-1.44-0.84-1.601l-0.279-0.061c-0.141-0.08-0.119-0.42,0.039-0.5
		c0.58,0.04,1.201,0.061,1.861,0.061h2.84c0.881,0,1.68-0.021,1.861-0.061c0.02,0.24,0.119,1.181,0.219,2.041
		c-0.08,0.16-0.4,0.18-0.52,0.04c-0.119-0.521-0.24-0.78-0.359-0.961c-0.32-0.479-1.221-0.479-1.701-0.479h-0.881
		c-0.699,0-0.719,0.02-0.719,0.64v2.221c0,0.36,0,0.4,0.379,0.4h0.939c1.061,0,1.159-0.16,1.319-0.761l0.103-0.38
		c0.1-0.14,0.397-0.12,0.5,0.04c-0.041,0.58-0.041,0.94-0.041,1.4c0,0.5,0,0.86,0.041,1.44c-0.103,0.16-0.4,0.18-0.5,0.04
		l-0.103-0.38c-0.16-0.602-0.261-0.762-1.319-0.762h-0.939c-0.379,0-0.379,0.062-0.379,0.461v1.438c0,0.603,0.039,1.222,0.219,1.44
		c0.182,0.199,0.541,0.279,1.682,0.279c1.279,0,2.02-0.062,2.6-1.66c0.142-0.142,0.461-0.102,0.521,0.08
		c-0.1,0.84-0.381,1.84-0.602,2.221c-1.26-0.04-2.32-0.061-3.4-0.061h-1.76c-0.641,0-1.26,0.021-2.221,0.061
		c-0.16-0.061-0.18-0.398-0.039-0.5l0.539-0.061c0.858-0.102,0.938-0.221,0.938-1.602L175.09,19.896L175.09,19.896z"/>
	<path fill="#FFFFFF" d="M186.051,20.136c0-1.3-0.02-1.64-0.48-1.7l-0.561-0.08c-0.158-0.02-0.199-0.439,0-0.5
		c1.102-0.08,2.221-0.12,3.32-0.12c1.861,0,3.881,0.301,3.881,2.4c0,1.28-1,1.861-1.779,2.141c-0.08,0.08-0.061,0.199,0,0.302
		c1,1.68,1.881,2.659,2.541,3.198c0.359,0.302,0.74,0.4,1.062,0.422c0.079,0.078,0.079,0.261,0,0.318
		c-0.181,0.062-0.462,0.102-0.841,0.102c-1.2,0-1.922-0.381-2.803-1.5c-0.5-0.641-1.039-1.521-1.459-2.16
		c-0.16-0.24-0.479-0.318-0.801-0.318c-0.52,0-0.561,0.039-0.561,0.318v1.42c0,1.381,0.08,1.479,0.938,1.602l0.459,0.061
		c0.144,0.102,0.121,0.439-0.038,0.5c-0.841-0.04-1.5-0.061-2.119-0.061c-0.642,0-1.263,0.021-1.961,0.061
		c-0.199-0.061-0.222-0.42-0.039-0.5l0.299-0.061c0.858-0.181,0.938-0.221,0.938-1.602v-4.242L186.051,20.136L186.051,20.136z
		 M187.57,21.597c0,0.5,0.021,0.5,1.002,0.5c1.299,0,1.979-0.521,1.979-1.902c0-1-0.699-1.881-2.1-1.881
		c-0.74,0-0.881,0.04-0.881,0.561V21.597L187.57,21.597z"/>
	<path fill="#FFFFFF" d="M198.691,22.396c-0.961-0.5-1.781-1.28-1.781-2.4c0-1.46,1.121-2.48,3.141-2.48
		c0.701,0,1.182,0.18,1.861,0.3c0.16,0.34,0.299,1.101,0.279,1.961c-0.062,0.16-0.42,0.18-0.521,0.04
		c-0.159-0.7-0.683-1.721-1.86-1.721c-1.18,0-1.619,0.681-1.619,1.36c0,0.72,0.539,1.16,1.34,1.58l1.24,0.641
		c0.721,0.359,1.621,1.2,1.621,2.54c0,1.561-1.281,2.541-3.263,2.541c-1.221,0-2.021-0.42-2.301-0.619
		c-0.181-0.281-0.42-1-0.42-2.062c0.079-0.2,0.379-0.22,0.521-0.04c0.159,0.72,1.041,2.141,2.381,2.141
		c1.021,0,1.682-0.521,1.682-1.439c0-0.641-0.262-1.301-1.4-1.881L198.691,22.396z"/>
	<path fill="#FFFFFF" d="M207.25,19.896c0-1.381-0.08-1.461-0.938-1.601l-0.383-0.061c-0.14-0.1-0.117-0.439,0.041-0.5
		c0.778,0.04,1.399,0.061,2.041,0.061c0.641,0,1.262-0.021,2.038-0.061c0.16,0.061,0.183,0.4,0.041,0.5l-0.381,0.061
		c-0.858,0.14-0.938,0.22-0.938,1.601v4.48c0,1.381,0.08,1.46,0.938,1.601l0.381,0.062c0.142,0.103,0.119,0.438-0.041,0.5
		c-0.76-0.04-1.42-0.062-2.038-0.062c-0.642,0-1.263,0.021-2.041,0.062c-0.158-0.062-0.181-0.397-0.041-0.5l0.383-0.062
		c0.856-0.141,0.938-0.22,0.938-1.601V19.896z"/>
	<path fill="#FFFFFF" d="M216.832,18.896c0-0.52-0.021-0.52-0.422-0.52h-0.619c-1.221,0-1.74,0.12-2.221,1.5
		c-0.199,0.12-0.42,0.061-0.5-0.1c0.221-0.86,0.438-1.86,0.541-2.36c0.08-0.08,0.279-0.08,0.359,0c0.02,0.399,0.301,0.38,1.1,0.38
		h5.562c0.74,0,0.88-0.021,1.039-0.38c0.144-0.08,0.302-0.04,0.361,0.06c-0.16,0.521-0.24,1.58-0.201,2.341
		c-0.08,0.16-0.42,0.18-0.5,0.02c-0.142-1.3-0.66-1.46-1.858-1.46h-0.683c-0.379,0-0.438,0-0.438,0.52v5.481
		c0,1.381,0.078,1.5,0.938,1.601l0.541,0.062c0.142,0.103,0.119,0.438-0.041,0.5c-0.819-0.04-1.58-0.062-2.199-0.062
		c-0.641,0-1.358,0.021-2.2,0.062c-0.158-0.062-0.181-0.397-0.039-0.5l0.539-0.062c0.86-0.101,0.94-0.22,0.94-1.601L216.832,18.896
		L216.832,18.896z"/>
	<path fill="#FFFFFF" d="M226.33,19.896c0-1.381-0.08-1.44-0.84-1.601l-0.281-0.061c-0.139-0.08-0.119-0.42,0.041-0.5
		c0.58,0.04,1.201,0.061,1.861,0.061h2.84c0.881,0,1.68-0.021,1.859-0.061c0.021,0.24,0.121,1.181,0.221,2.041
		c-0.08,0.16-0.4,0.18-0.52,0.04c-0.121-0.521-0.24-0.78-0.361-0.961c-0.318-0.479-1.221-0.479-1.699-0.479h-0.881
		c-0.699,0-0.721,0.02-0.721,0.64v2.221c0,0.36,0,0.4,0.381,0.4h0.938c1.062,0,1.16-0.16,1.319-0.761l0.101-0.38
		c0.103-0.14,0.399-0.12,0.5,0.04c-0.039,0.58-0.039,0.94-0.039,1.4c0,0.5,0,0.86,0.039,1.44c-0.101,0.16-0.397,0.18-0.5,0.04
		l-0.101-0.38c-0.159-0.602-0.26-0.762-1.319-0.762h-0.938c-0.381,0-0.381,0.062-0.381,0.461v1.438c0,0.603,0.041,1.222,0.221,1.44
		c0.18,0.199,0.541,0.279,1.68,0.279c1.281,0,2.021-0.062,2.604-1.66c0.14-0.142,0.459-0.102,0.521,0.08
		c-0.101,0.84-0.381,1.84-0.601,2.221c-1.262-0.04-2.319-0.061-3.399-0.061h-1.763c-0.641,0-1.262,0.021-2.221,0.061
		c-0.16-0.061-0.182-0.398-0.039-0.5l0.539-0.061c0.859-0.102,0.939-0.221,0.939-1.602V19.896L226.33,19.896z"/>
	<path fill="#FFFFFF" d="M239.15,18.896c0-0.52-0.021-0.52-0.42-0.52h-0.621c-1.221,0-1.74,0.12-2.221,1.5
		c-0.199,0.12-0.42,0.061-0.5-0.1c0.221-0.86,0.44-1.86,0.541-2.36c0.079-0.08,0.278-0.08,0.358,0
		c0.021,0.399,0.301,0.38,1.103,0.38h5.561c0.74,0,0.881-0.021,1.041-0.38c0.139-0.08,0.299-0.04,0.359,0.06
		c-0.16,0.521-0.24,1.58-0.199,2.341c-0.08,0.16-0.42,0.18-0.5,0.02c-0.141-1.3-0.66-1.46-1.861-1.46h-0.68
		c-0.381,0-0.441,0-0.441,0.52v5.481c0,1.381,0.08,1.5,0.941,1.601l0.539,0.062c0.141,0.103,0.121,0.438-0.039,0.5
		c-0.82-0.04-1.58-0.062-2.201-0.062c-0.639,0-1.359,0.021-2.199,0.062c-0.16-0.062-0.182-0.397-0.041-0.5l0.541-0.062
		c0.859-0.101,0.939-0.22,0.939-1.601V18.896L239.15,18.896z"/>
</g>
</svg>
