<?xml version="1.0" encoding="utf-8"?>
<!-- Generator: Adobe Illustrator 20.0.0, SVG Export Plug-In . SVG Version: 6.00 Build 0)  -->
<svg version="1.1" id="Layer_1" xmlns="http://www.w3.org/2000/svg" xmlns:xlink="http://www.w3.org/1999/xlink" x="0px" y="0px"
	 viewBox="0 0 245.2 10.3" style="enable-background:new 0 0 245.2 10.3;" xml:space="preserve">
<style type="text/css">
	.st0{enable-background:new    ;}
	.st1{fill:#FFFFFF;}
</style>
<g class="st0">
	<path class="st1" d="M1.5,2.9c0-1.4-0.1-1.4-0.9-1.6L0.2,1.2c-0.1-0.1-0.1-0.4,0-0.5c0.7,0,1.3,0.1,2,0.1s1.3,0,2-0.1
		c0.2,0.1,0.2,0.4,0,0.5L3.9,1.3C3.1,1.4,3,1.5,3,2.9V4c0,0.4,0,0.6,0.1,0.7s0.4,0,0.5-0.1c0.7-0.5,2.3-2.3,2.4-2.4
		c0.4-0.5,0.5-0.8,0.2-0.8L5.8,1.3c-0.2-0.1-0.2-0.5,0-0.5c0.6,0,1.1,0.1,1.8,0.1c0.6,0,1,0,1.7-0.1c0.2,0.1,0.2,0.4,0,0.5
		C9,1.3,8.3,1.4,8,1.6C7.5,1.9,7,2.3,6.1,3.1L5.2,4C4.8,4.4,4.8,4.5,5.1,4.8l2.5,3C8.3,8.7,8.6,9,9.5,9l0.3,0c0.2,0.1,0.1,0.4,0,0.5
		c-0.6,0-1.1-0.1-2-0.1c-0.7,0-1.3,0-2,0.1C5.6,9.5,5.6,9.2,5.7,9.1L6,9C6.5,9,6.6,8.8,6.3,8.5L4.5,6.3C4.3,6.1,3.7,5.2,3.3,5.2
		C3,5.2,3,5.4,3,6v1.4C3,8.8,3.1,8.8,3.9,9l0.4,0.1c0.1,0.1,0.1,0.4,0,0.5c-0.8,0-1.4-0.1-2-0.1c-0.6,0-1.3,0-1.9,0.1
		c-0.2-0.1-0.2-0.4,0-0.5L0.5,9c0.8-0.2,0.9-0.2,0.9-1.6L1.5,2.9L1.5,2.9z"/>
	<path class="st1" d="M19.7,1.4c1.2,0.8,1.8,2.2,1.8,3.7c0,2.7-2,4.7-4.9,4.7c-1,0-1.8-0.2-2.5-0.6l-0.8,1.1c-0.3,0-0.5-0.2-0.5-0.4
		l0.7-1c-1.2-0.8-1.8-2.1-1.8-3.6c0-2.7,2-4.7,4.9-4.7c1,0,1.8,0.2,2.5,0.5l0.7-1c0.3,0,0.5,0.2,0.5,0.4L19.7,1.4z M18.5,1.9
		c-0.5-0.5-1.2-0.8-2-0.8c-1.4,0-3.1,1-3.1,3.8c0,1,0.2,2.1,0.8,2.9L18.5,1.9z M14.7,8.4c0.5,0.5,1.2,0.8,2.1,0.8c1.5,0,3-1,3-3.8
		c0-1.1-0.2-2.1-0.8-2.9L14.7,8.4z"/>
	<path class="st1" d="M26.3,3.2c0-1.3,0-1.6-0.6-1.7l-0.6-0.1c-0.2-0.1-0.2-0.4,0-0.5c1-0.1,2.2-0.1,3.3-0.1c1,0,1.8,0,2.5,0.3
		c0.7,0.3,1.3,0.8,1.3,1.8c0,0.9-0.6,1.4-1.6,1.8c-0.1,0.1,0.1,0.2,0.5,0.3C31.9,5,33,5.6,33,7c0,1.1-0.5,1.7-1.3,2.1
		c-0.8,0.4-1.8,0.5-2.7,0.5c-0.4,0-1.1-0.1-1.8-0.1c-0.6,0-1.3,0-2.1,0.1c-0.2-0.1-0.2-0.4,0-0.5L25.4,9c0.9-0.1,0.9-0.2,0.9-1.6
		C26.3,7.4,26.3,3.2,26.3,3.2z M27.9,4.2c0,0.3,0,0.3,0.7,0.3c1.3,0,2.1-0.3,2.1-1.6c0-1.2-0.9-1.7-1.9-1.7c-0.8,0-0.9,0.2-0.9,0.5
		L27.9,4.2L27.9,4.2z M27.9,7.4c0,1.2,0.3,1.6,1.5,1.6c1,0,1.9-0.5,1.9-1.8c0-1.6-1.2-2.1-2.5-2.1c-0.9,0-0.9,0.1-0.9,0.3
		C27.9,5.5,27.9,7.4,27.9,7.4z"/>
	<path class="st1" d="M38,2.9c0-1.4-0.1-1.4-0.8-1.6l-0.3-0.1c-0.1-0.1-0.1-0.4,0-0.5c0.6,0,1.2,0.1,1.9,0.1h2.8
		c0.9,0,1.7,0,1.9-0.1c0,0.2,0.1,1.2,0.2,2c-0.1,0.2-0.4,0.2-0.5,0c-0.1-0.5-0.2-0.8-0.4-1c-0.3-0.5-1.2-0.5-1.7-0.5h-0.9
		c-0.7,0-0.7,0-0.7,0.6v2.2c0,0.4,0,0.4,0.4,0.4h0.9c1.1,0,1.2-0.2,1.3-0.8l0.1-0.4c0.1-0.1,0.4-0.1,0.5,0c0,0.6,0,0.9,0,1.4
		c0,0.5,0,0.9,0,1.4c-0.1,0.2-0.4,0.2-0.5,0l-0.1-0.4c-0.2-0.6-0.3-0.8-1.3-0.8h-0.9c-0.4,0-0.4,0.1-0.4,0.5v1.4
		c0,0.6,0,1.2,0.2,1.4c0.2,0.2,0.5,0.3,1.7,0.3c1.3,0,2-0.1,2.6-1.7c0.1-0.1,0.5-0.1,0.5,0.1c-0.1,0.8-0.4,1.8-0.6,2.2
		c-1.3,0-2.3-0.1-3.4-0.1h-1.8c-0.6,0-1.3,0-2.2,0.1c-0.2-0.1-0.2-0.4,0-0.5L37,9C37.9,8.9,38,8.8,38,7.4C38,7.4,38,2.9,38,2.9z"/>
	<path class="st1" d="M55.8,3.9c0-2-0.1-2.5-0.9-2.6l-0.6-0.1c-0.1-0.1-0.1-0.4,0-0.5c0.7,0,1.2,0.1,1.8,0.1c0.6,0,1,0,1.7-0.1
		c0.2,0.1,0.2,0.4,0,0.5l-0.6,0.1c-0.5,0.1-0.7,0.6-0.7,2.6v3.4c0,0.4,0,2,0.1,2.3c-0.1,0.1-0.2,0.2-0.4,0.2c-0.2-0.3-0.6-0.7-1.9-2
		l-3-3.2c-0.8-0.8-1.3-1.3-1.5-1.5c-0.1,0-0.1,0.2-0.1,0.8v2.6c0,2,0.1,2.5,0.9,2.6l0.6,0.1c0.2,0.1,0.1,0.4,0,0.5
		c-0.7,0-1.2-0.1-1.8-0.1s-1,0-1.7,0.1c-0.2-0.1-0.2-0.4,0-0.5L48.2,9c0.5-0.1,0.7-0.6,0.7-2.6V2.8c0-0.7,0-0.9-0.4-1.2
		c-0.2-0.1-0.5-0.2-0.7-0.3l-0.3-0.1c-0.1-0.1-0.1-0.4,0-0.5c0.8,0.1,1.3,0.1,1.7,0.1c0.3,0,0.6,0,0.8-0.1c0.4,0.8,1.1,1.6,2,2.5
		l1.9,1.9c0.4,0.4,1.6,1.7,1.8,1.9c0.1,0,0.1-0.3,0.1-0.8L55.8,3.9L55.8,3.9z"/>
	<path class="st1" d="M68.3,4.7c0.6,0,0.7,0,0.7-0.5V2.9c0-1.4-0.1-1.5-0.9-1.6l-0.4-0.1c-0.1-0.1-0.1-0.4,0-0.5
		c0.8,0,1.4,0.1,2,0.1s1.3,0,2-0.1c0.2,0.1,0.2,0.4,0,0.5l-0.4,0.1c-0.9,0.1-0.9,0.2-0.9,1.6v4.5c0,1.4,0.1,1.5,0.9,1.6l0.5,0.1
		c0.1,0.1,0.1,0.4,0,0.5c-0.8,0-1.5-0.1-2.1-0.1c-0.6,0-1.3,0-2,0.1c-0.2-0.1-0.2-0.4,0-0.5L68,9C68.9,8.9,69,8.8,69,7.4V5.8
		c0-0.5,0-0.5-0.7-0.5h-3.5c-0.7,0-0.7,0-0.7,0.5v1.6C64,8.8,64.1,8.9,65,9l0.5,0.1c0.1,0.1,0.1,0.4,0,0.5c-0.9,0-1.6-0.1-2.2-0.1
		c-0.6,0-1.3,0-1.9,0.1c-0.2-0.1-0.2-0.4,0-0.5L61.6,9c0.8-0.2,0.9-0.2,0.9-1.6V2.9c0-1.4-0.1-1.5-0.9-1.6l-0.5-0.1
		c-0.1-0.1-0.1-0.4,0-0.5c0.9,0,1.5,0.1,2.1,0.1s1.3,0,2-0.1c0.2,0.1,0.2,0.4,0,0.5L65,1.3C64.1,1.5,64,1.5,64,2.9v1.2
		c0,0.5,0.1,0.5,0.7,0.5H68.3z"/>
	<path class="st1" d="M77.9,6.4c-0.5,0-0.5,0-0.7,0.5l-0.5,1.3c-0.2,0.6-0.2,0.7,0.2,0.8l0.5,0.1c0.2,0.1,0.1,0.5-0.1,0.5
		c-0.5,0-1-0.1-1.6-0.1s-1,0-1.4,0.1c-0.2-0.1-0.2-0.4,0-0.5L74.9,9c0.6-0.1,0.8-0.4,1.2-1.3L78,3c0.3-0.8,0.5-1.3,0.5-1.7
		c0.4-0.1,0.7-0.5,0.8-0.8c0.2-0.1,0.3,0,0.3,0.1c0.1,0.2,0.4,1.2,0.9,2.5l1.8,4.8c0.2,0.7,0.4,0.9,1.1,1.1l0.3,0.1
		C84,9.2,84,9.5,83.8,9.6c-0.5,0-1-0.1-1.7-0.1c-0.7,0-1.3,0-1.8,0.1c-0.2-0.1-0.2-0.4,0-0.5L80.7,9c0.5-0.1,0.5-0.2,0.3-0.8
		l-0.5-1.3c-0.2-0.5-0.2-0.5-0.7-0.5L77.9,6.4L77.9,6.4z M79.4,5.8c0.5,0,0.6,0,0.4-0.6l-0.6-1.7C79,3,78.9,2.8,78.9,2.7h0
		c-0.1,0.1-0.1,0.3-0.3,0.7l-0.7,1.8c-0.2,0.5-0.2,0.6,0.3,0.6H79.4z"/>
	<path class="st1" d="M86.2,3c-0.6-1.3-0.7-1.4-1.2-1.5l-0.7-0.2c-0.1-0.1-0.1-0.4,0-0.5c0.5,0,1.2,0.1,1.8,0.1c0.7,0,1.3,0,1.9-0.1
		c0.2,0.1,0.2,0.4,0,0.5l-0.4,0.1c-0.5,0.1-0.5,0.3-0.1,1.3l1,2.2c0.5,1.1,0.8,1.9,1.1,2.5c0.4-0.8,0.7-1.7,1.1-2.5
		c0.4-0.9,1-2.3,1.2-2.9c0.1-0.4,0.1-0.6-0.5-0.7l-0.3-0.1c-0.2-0.1-0.1-0.4,0-0.5c0.6,0,1.1,0.1,1.6,0.1c0.6,0,1.1,0,1.4-0.1
		c0.2,0.1,0.2,0.4,0.1,0.5l-0.6,0.1c-0.6,0.1-0.7,0.3-1.4,1.7l-1.5,3.3c-0.6,1.3-1.2,2.7-1.4,3.4c-0.1,0.1-0.1,0.1-0.2,0.1
		c-0.1,0-0.2,0-0.2-0.1C89,9.2,88.8,8.5,88.5,8L86.2,3z"/>
	<path class="st1" d="M105.2,3.9c0-2-0.1-2.5-0.9-2.6l-0.6-0.1c-0.1-0.1-0.1-0.4,0-0.5c0.7,0,1.2,0.1,1.8,0.1c0.6,0,1,0,1.7-0.1
		c0.2,0.1,0.2,0.4,0,0.5l-0.6,0.1c-0.5,0.1-0.7,0.6-0.7,2.6v3.4c0,0.4,0,2,0.1,2.3c-0.1,0.1-0.2,0.2-0.4,0.2c-0.2-0.3-0.6-0.7-1.9-2
		l-3-3.2c-0.8-0.8-1.3-1.3-1.5-1.5C99,2.9,99,3.2,99,3.8v2.6c0,2,0.1,2.5,0.9,2.6l0.6,0.1c0.2,0.1,0.1,0.4,0,0.5
		c-0.7,0-1.2-0.1-1.8-0.1s-1,0-1.7,0.1c-0.2-0.1-0.2-0.4,0-0.5L97.6,9c0.5-0.1,0.7-0.6,0.7-2.6V2.8c0-0.7,0-0.9-0.4-1.2
		c-0.2-0.1-0.5-0.2-0.7-0.3l-0.3-0.1c-0.1-0.1-0.1-0.4,0-0.5c0.8,0.1,1.3,0.1,1.7,0.1c0.3,0,0.6,0,0.8-0.1c0.4,0.8,1.1,1.6,2,2.5
		l1.9,1.9c0.4,0.4,1.6,1.7,1.8,1.9c0.1,0,0.1-0.3,0.1-0.8L105.2,3.9L105.2,3.9z"/>
	<path class="st1" d="M112.8,5.4c-1-0.5-1.8-1.3-1.8-2.4c0-1.5,1.1-2.5,3.1-2.5c0.7,0,1.2,0.2,1.9,0.3c0.2,0.3,0.3,1.1,0.3,2
		c-0.1,0.2-0.4,0.2-0.5,0c-0.2-0.7-0.7-1.7-1.9-1.7c-1.2,0-1.6,0.7-1.6,1.4c0,0.7,0.5,1.2,1.3,1.6l1.2,0.6c0.7,0.4,1.6,1.2,1.6,2.5
		c0,1.6-1.3,2.5-3.3,2.5c-1.2,0-2-0.4-2.3-0.6c-0.2-0.3-0.4-1-0.4-2.1c0.1-0.2,0.4-0.2,0.5,0c0.2,0.7,1,2.1,2.4,2.1
		c1,0,1.7-0.5,1.7-1.4c0-0.6-0.3-1.3-1.4-1.9L112.8,5.4z"/>
	<path class="st1" d="M128.2,2.9c0-1.4-0.1-1.4-0.9-1.6L127,1.2c-0.1-0.1-0.1-0.4,0-0.5c0.7,0,1.3,0.1,1.9,0.1s1.3,0,2-0.1
		c0.2,0.1,0.2,0.4,0,0.5l-0.4,0.1c-0.9,0.1-0.9,0.2-0.9,1.6v2.8c0,2,0.7,3.4,2.6,3.4c1.8,0,2.6-1.4,2.6-3.3V3.9c0-2-0.1-2.5-1-2.6
		l-0.4-0.1c-0.1-0.1-0.1-0.4,0-0.5c0.6,0,1.1,0.1,1.7,0.1c0.6,0,1,0,1.7-0.1c0.2,0.1,0.2,0.4,0,0.5l-0.6,0.1
		c-0.5,0.1-0.7,0.6-0.7,2.6v2c0,2.6-1.2,3.9-3.7,3.9c-1.3,0-2.2-0.3-2.8-0.8c-0.6-0.6-0.9-1.5-0.9-2.8V2.9L128.2,2.9z"/>
	<path class="st1" d="M148.3,3.9c0-2-0.1-2.5-0.9-2.6l-0.6-0.1c-0.1-0.1-0.1-0.4,0-0.5c0.7,0,1.2,0.1,1.8,0.1s1,0,1.7-0.1
		c0.2,0.1,0.2,0.4,0,0.5l-0.6,0.1c-0.5,0.1-0.7,0.6-0.7,2.6v3.4c0,0.4,0,2,0.1,2.3c-0.1,0.1-0.2,0.2-0.4,0.2c-0.2-0.3-0.6-0.7-1.9-2
		l-3-3.2c-0.8-0.8-1.3-1.3-1.5-1.5c-0.1,0-0.1,0.2-0.1,0.8v2.6c0,2,0.1,2.5,0.9,2.6l0.6,0.1c0.2,0.1,0.1,0.4,0,0.5
		c-0.7,0-1.2-0.1-1.8-0.1s-1,0-1.7,0.1c-0.2-0.1-0.2-0.4,0-0.5l0.6-0.1c0.5-0.1,0.7-0.6,0.7-2.6V2.8c0-0.7,0-0.9-0.4-1.2
		c-0.2-0.1-0.5-0.2-0.7-0.3l-0.3-0.1c-0.1-0.1-0.1-0.4,0-0.5c0.8,0.1,1.3,0.1,1.7,0.1c0.3,0,0.6,0,0.8-0.1c0.4,0.8,1.1,1.6,2,2.5
		l1.9,1.9c0.4,0.4,1.6,1.7,1.8,1.9c0.1,0,0.1-0.3,0.1-0.8L148.3,3.9L148.3,3.9z"/>
	<path class="st1" d="M155,2.9c0-1.4-0.1-1.5-0.9-1.6l-0.4-0.1c-0.1-0.1-0.1-0.4,0-0.5c0.8,0,1.4,0.1,2,0.1c0.6,0,1.3,0,2-0.1
		c0.2,0.1,0.2,0.4,0,0.5l-0.4,0.1c-0.9,0.1-0.9,0.2-0.9,1.6v4.5c0,1.4,0.1,1.5,0.9,1.6l0.4,0.1c0.1,0.1,0.1,0.4,0,0.5
		c-0.8,0-1.4-0.1-2-0.1c-0.6,0-1.3,0-2,0.1c-0.2-0.1-0.2-0.4,0-0.5L154,9c0.9-0.1,0.9-0.2,0.9-1.6V2.9z"/>
	<path class="st1" d="M162.3,3c-0.6-1.3-0.7-1.4-1.2-1.5l-0.7-0.2c-0.1-0.1-0.1-0.4,0-0.5c0.5,0,1.2,0.1,1.8,0.1
		c0.7,0,1.3,0,1.9-0.1c0.2,0.1,0.2,0.4,0,0.5l-0.4,0.1c-0.5,0.1-0.5,0.3-0.1,1.3l1,2.2c0.5,1.1,0.8,1.9,1.1,2.5
		c0.4-0.8,0.7-1.7,1.1-2.5c0.4-0.9,1-2.3,1.2-2.9c0.1-0.4,0.1-0.6-0.5-0.7l-0.3-0.1c-0.2-0.1-0.1-0.4,0-0.5c0.6,0,1.1,0.1,1.6,0.1
		c0.6,0,1.1,0,1.4-0.1c0.2,0.1,0.2,0.4,0.1,0.5L170,1.4c-0.6,0.1-0.7,0.3-1.4,1.7l-1.5,3.3c-0.6,1.3-1.2,2.7-1.4,3.4
		c-0.1,0.1-0.1,0.1-0.2,0.1c-0.1,0-0.2,0-0.2-0.1c-0.2-0.5-0.4-1.2-0.7-1.7L162.3,3z"/>
	<path class="st1" d="M174.2,2.9c0-1.4-0.1-1.4-0.8-1.6l-0.3-0.1c-0.1-0.1-0.1-0.4,0-0.5c0.6,0,1.2,0.1,1.9,0.1h2.8
		c0.9,0,1.7,0,1.9-0.1c0,0.2,0.1,1.2,0.2,2c-0.1,0.2-0.4,0.2-0.5,0c-0.1-0.5-0.2-0.8-0.4-1c-0.3-0.5-1.2-0.5-1.7-0.5h-0.9
		c-0.7,0-0.7,0-0.7,0.6v2.2c0,0.4,0,0.4,0.4,0.4h0.9c1.1,0,1.2-0.2,1.3-0.8l0.1-0.4c0.1-0.1,0.4-0.1,0.5,0c0,0.6,0,0.9,0,1.4
		c0,0.5,0,0.9,0,1.4c-0.1,0.2-0.4,0.2-0.5,0l-0.1-0.4c-0.2-0.6-0.3-0.8-1.3-0.8h-0.9c-0.4,0-0.4,0.1-0.4,0.5v1.4
		c0,0.6,0,1.2,0.2,1.4c0.2,0.2,0.5,0.3,1.7,0.3c1.3,0,2-0.1,2.6-1.7c0.1-0.1,0.5-0.1,0.5,0.1c-0.1,0.8-0.4,1.8-0.6,2.2
		c-1.3,0-2.3-0.1-3.4-0.1H175c-0.6,0-1.3,0-2.2,0.1c-0.2-0.1-0.2-0.4,0-0.5l0.5-0.1c0.9-0.1,0.9-0.2,0.9-1.6L174.2,2.9L174.2,2.9z"
		/>
	<path class="st1" d="M185.2,3.2c0-1.3,0-1.6-0.5-1.7l-0.6-0.1c-0.2,0-0.2-0.4,0-0.5c1.1-0.1,2.2-0.1,3.3-0.1c1.9,0,3.9,0.3,3.9,2.4
		c0,1.3-1,1.9-1.8,2.1c-0.1,0.1-0.1,0.2,0,0.3c1,1.7,1.9,2.7,2.5,3.2c0.4,0.3,0.7,0.4,1.1,0.4c0.1,0.1,0.1,0.3,0,0.3
		c-0.2,0.1-0.5,0.1-0.8,0.1c-1.2,0-1.9-0.4-2.8-1.5c-0.5-0.6-1-1.5-1.5-2.2c-0.2-0.2-0.5-0.3-0.8-0.3c-0.5,0-0.6,0-0.6,0.3v1.4
		c0,1.4,0.1,1.5,0.9,1.6l0.5,0.1c0.1,0.1,0.1,0.4,0,0.5c-0.8,0-1.5-0.1-2.1-0.1c-0.6,0-1.3,0-2,0.1c-0.2-0.1-0.2-0.4,0-0.5l0.3-0.1
		c0.9-0.2,0.9-0.2,0.9-1.6L185.2,3.2L185.2,3.2L185.2,3.2z M186.7,4.6c0,0.5,0,0.5,1,0.5c1.3,0,2-0.5,2-1.9c0-1-0.7-1.9-2.1-1.9
		c-0.7,0-0.9,0-0.9,0.6V4.6L186.7,4.6z"/>
	<path class="st1" d="M197.8,5.4c-1-0.5-1.8-1.3-1.8-2.4c0-1.5,1.1-2.5,3.1-2.5c0.7,0,1.2,0.2,1.9,0.3c0.2,0.3,0.3,1.1,0.3,2
		c-0.1,0.2-0.4,0.2-0.5,0c-0.2-0.7-0.7-1.7-1.9-1.7c-1.2,0-1.6,0.7-1.6,1.4c0,0.7,0.5,1.2,1.3,1.6l1.2,0.6c0.7,0.4,1.6,1.2,1.6,2.5
		c0,1.6-1.3,2.5-3.3,2.5c-1.2,0-2-0.4-2.3-0.6c-0.2-0.3-0.4-1-0.4-2.1c0.1-0.2,0.4-0.2,0.5,0c0.2,0.7,1,2.1,2.4,2.1
		c1,0,1.7-0.5,1.7-1.4c0-0.6-0.3-1.3-1.4-1.9L197.8,5.4z"/>
	<path class="st1" d="M206.4,2.9c0-1.4-0.1-1.5-0.9-1.6l-0.4-0.1c-0.1-0.1-0.1-0.4,0-0.5c0.8,0,1.4,0.1,2,0.1c0.6,0,1.3,0,2-0.1
		c0.2,0.1,0.2,0.4,0,0.5l-0.4,0.1c-0.9,0.1-0.9,0.2-0.9,1.6v4.5c0,1.4,0.1,1.5,0.9,1.6l0.4,0.1c0.1,0.1,0.1,0.4,0,0.5
		c-0.8,0-1.4-0.1-2-0.1c-0.6,0-1.3,0-2,0.1c-0.2-0.1-0.2-0.4,0-0.5l0.4-0.1c0.9-0.1,0.9-0.2,0.9-1.6V2.9z"/>
	<path class="st1" d="M216,1.9c0-0.5,0-0.5-0.4-0.5h-0.6c-1.2,0-1.7,0.1-2.2,1.5c-0.2,0.1-0.4,0.1-0.5-0.1c0.2-0.9,0.4-1.9,0.5-2.4
		c0.1-0.1,0.3-0.1,0.4,0c0,0.4,0.3,0.4,1.1,0.4h5.6c0.7,0,0.9,0,1-0.4c0.1-0.1,0.3,0,0.4,0.1C221,1,220.9,2.1,221,2.8
		c-0.1,0.2-0.4,0.2-0.5,0c-0.1-1.3-0.7-1.5-1.9-1.5h-0.7c-0.4,0-0.4,0-0.4,0.5v5.5c0,1.4,0.1,1.5,0.9,1.6l0.5,0.1
		c0.1,0.1,0.1,0.4,0,0.5c-0.8,0-1.6-0.1-2.2-0.1c-0.6,0-1.4,0-2.2,0.1c-0.2-0.1-0.2-0.4,0-0.5L215,9c0.9-0.1,0.9-0.2,0.9-1.6
		L216,1.9L216,1.9z"/>
	<path class="st1" d="M225.5,2.9c0-1.4-0.1-1.4-0.8-1.6l-0.3-0.1c-0.1-0.1-0.1-0.4,0-0.5c0.6,0,1.2,0.1,1.9,0.1h2.8
		c0.9,0,1.7,0,1.9-0.1c0,0.2,0.1,1.2,0.2,2c-0.1,0.2-0.4,0.2-0.5,0c-0.1-0.5-0.2-0.8-0.4-1c-0.3-0.5-1.2-0.5-1.7-0.5h-0.9
		c-0.7,0-0.7,0-0.7,0.6v2.2c0,0.4,0,0.4,0.4,0.4h0.9c1.1,0,1.2-0.2,1.3-0.8l0.1-0.4c0.1-0.1,0.4-0.1,0.5,0c0,0.6,0,0.9,0,1.4
		c0,0.5,0,0.9,0,1.4c-0.1,0.2-0.4,0.2-0.5,0l-0.1-0.4c-0.2-0.6-0.3-0.8-1.3-0.8h-0.9c-0.4,0-0.4,0.1-0.4,0.5v1.4
		c0,0.6,0,1.2,0.2,1.4c0.2,0.2,0.5,0.3,1.7,0.3c1.3,0,2-0.1,2.6-1.7c0.1-0.1,0.5-0.1,0.5,0.1c-0.1,0.8-0.4,1.8-0.6,2.2
		c-1.3,0-2.3-0.1-3.4-0.1h-1.8c-0.6,0-1.3,0-2.2,0.1c-0.2-0.1-0.2-0.4,0-0.5l0.5-0.1c0.9-0.1,0.9-0.2,0.9-1.6L225.5,2.9L225.5,2.9z"
		/>
	<path class="st1" d="M238.3,1.9c0-0.5,0-0.5-0.4-0.5h-0.6c-1.2,0-1.7,0.1-2.2,1.5c-0.2,0.1-0.4,0.1-0.5-0.1
		c0.2-0.9,0.4-1.9,0.5-2.4c0.1-0.1,0.3-0.1,0.4,0c0,0.4,0.3,0.4,1.1,0.4h5.6c0.7,0,0.9,0,1-0.4c0.1-0.1,0.3,0,0.4,0.1
		c-0.2,0.5-0.2,1.6-0.2,2.3c-0.1,0.2-0.4,0.2-0.5,0c-0.1-1.3-0.7-1.5-1.9-1.5h-0.7c-0.4,0-0.4,0-0.4,0.5v5.5c0,1.4,0.1,1.5,0.9,1.6
		l0.5,0.1c0.1,0.1,0.1,0.4,0,0.5c-0.8,0-1.6-0.1-2.2-0.1c-0.6,0-1.4,0-2.2,0.1c-0.2-0.1-0.2-0.4,0-0.5l0.5-0.1
		c0.9-0.1,0.9-0.2,0.9-1.6V1.9L238.3,1.9z"/>
</g>
</svg>
