<svg id="Layer_1" data-name="Layer 1" xmlns="http://www.w3.org/2000/svg" viewBox="0 0 79.78 106.5"><defs><style>.cls-1{fill:#fff;}</style></defs><title>Haengelaas</title><path class="cls-1" d="M81.87,50.07H2.09v58.17H81.88V50.07ZM47,81.58V98.41H36.94V81.58A10.5,10.5,0,1,1,47,81.58Z" transform="translate(-2.09 -1.73)"/><path class="cls-1" d="M24.28,44.76c0-.91-0.19-10.29.15-13.93,0.76-8.25,8.67-15.09,17.64-15.27,8.3-.15,15.62,6.06,17.41,14.77,0.71,3.43.29,13.4,0.27,14.42H73.56c0-.83.34-14.58-1.32-20.48C68.58,11.28,56.17,2,42.06,1.74c-13.2-.24-25.23,8.39-30,21.47-2.16,6-1.7,20.66-1.68,21.55H24.28Z" transform="translate(-2.09 -1.73)"/></svg>