<?xml version="1.0" encoding="utf-8"?>
<!-- Generator: Adobe Illustrator 19.1.0, SVG Export Plug-In . SVG Version: 6.00 Build 0)  -->
<svg version="1.1" id="Twitter" xmlns="http://www.w3.org/2000/svg" xmlns:xlink="http://www.w3.org/1999/xlink" x="0px" y="0px"
	 viewBox="-289 381.8 31.2 31.2" style="enable-background:new -289 381.8 31.2 31.2;" xml:space="preserve">
<style type="text/css">
	.st0{fill:#FFFFFF;}
</style>
<title>social_icon_Twitter</title>
<path class="st0" d="M-263,391.8c-0.7,0.3-1.5,0.5-2.2,0.6c0.8-0.5,1.4-1.2,1.7-2.1c-0.8,0.5-1.6,0.8-2.5,0.9
	c-1.5-1.6-3.9-1.6-5.5-0.2c-1,0.9-1.4,2.4-1.1,3.7c-3.1-0.2-6-1.6-8-4.1c-1,1.8-0.5,4,1.2,5.2c-0.6,0-1.2-0.2-1.8-0.5l0,0
	c0,1.9,1.3,3.5,3.1,3.9c-0.6,0.2-1.2,0.2-1.8,0.1c0.5,1.6,2,2.7,3.6,2.7c-1.6,1.3-3.7,1.9-5.8,1.6c5.1,3.3,11.9,1.9,15.2-3.2
	c1.2-1.8,1.8-3.9,1.8-6.1c0-0.2,0-0.3,0-0.5C-264.2,393.3-263.5,392.6-263,391.8z"/>
</svg>
