<?xml version="1.0" encoding="utf-8"?>
<!-- Generator: Adobe Illustrator 19.1.0, SVG Export Plug-In . SVG Version: 6.00 Build 0)  -->
<svg version="1.1" id="RSS_colour_copy" xmlns="http://www.w3.org/2000/svg" xmlns:xlink="http://www.w3.org/1999/xlink" x="0px"
	 y="0px" viewBox="-289 381.8 31.2 31.2" style="enable-background:new -289 381.8 31.2 31.2;" xml:space="preserve">
<style type="text/css">
	.st0{fill:#FFFFFF;}
</style>
<title>social_icon_RSS</title>
<path class="st0" d="M-278.5,400.7c-1.2,0-2.2,1-2.2,2.2s1,2.2,2.2,2.2s2.2-1,2.2-2.2S-277.3,400.7-278.5,400.7
	C-278.5,400.7-278.5,400.7-278.5,400.7z M-280.7,397.3c2.1,0,4,0.8,5.5,2.3c1.5,1.5,2.3,3.4,2.3,5.5h3.2c0-6-4.9-10.9-10.9-11V397.3
	z M-280.7,391.7c7.4,0,13.3,6,13.3,13.4h3.2c0-9.1-7.4-16.5-16.5-16.6V391.7z"/>
</svg>
