<?xml version="1.0" encoding="utf-8"?>
<!-- Generator: Adobe Illustrator 19.1.0, SVG Export Plug-In . SVG Version: 6.00 Build 0)  -->
<svg version="1.1" id="You_tube_play" xmlns="http://www.w3.org/2000/svg" xmlns:xlink="http://www.w3.org/1999/xlink" x="0px"
	 y="0px" viewBox="-289 381.8 31.2 31.2" style="enable-background:new -289 381.8 31.2 31.2;" xml:space="preserve">
<style type="text/css">
	.st0{fill:#FFFFFF;}
</style>
<title>social_icon_You_tube</title>
<path class="st0" d="M-265.6,397.7v0.2c0,1.1-0.1,2.2-0.2,3.4c-0.1,1-0.9,1.7-1.9,1.8c-0.6,0.1-3.4,0.2-5.6,0.2l0,0
	c-2.2,0-5-0.1-5.6-0.2c-1-0.1-1.7-0.8-1.8-1.8c-0.1-1.1-0.2-2.2-0.2-3.4v-0.2c0-1.1,0.1-2.2,0.2-3.4c0.1-1,0.9-1.7,1.9-1.8
	c0.6-0.1,3.4-0.2,5.6-0.2l0,0c2.2,0,5,0.1,5.6,0.2c1,0.1,1.7,0.8,1.9,1.8C-265.7,395.5-265.6,396.6-265.6,397.7z M-275.6,400.8
	l5.7-3.1l-5.7-3V400.8L-275.6,400.8z M-270.6,398.1l0.6-0.4l-5.5-2.9L-270.6,398.1z"/>
</svg>
