<?xml version="1.0" encoding="utf-8"?>
<!-- Generator: Adobe Illustrator 19.1.0, SVG Export Plug-In . SVG Version: 6.00 Build 0)  -->
<svg version="1.1" id="Linkedin" xmlns="http://www.w3.org/2000/svg" xmlns:xlink="http://www.w3.org/1999/xlink" x="0px" y="0px"
	 viewBox="-289 381.8 31.2 31.2" style="enable-background:new -289 381.8 31.2 31.2;" xml:space="preserve">
<style type="text/css">
	.st0{fill:#FFFFFF;}
</style>
<title>social_icon_Linkedin</title>
<path class="st0" d="M-280,404.9h3.2v-10.4h-3.2C-280,394.5-280,404.9-280,404.9z M-278.4,389.3c-1,0-1.9,0.8-1.9,1.9
	s0.8,1.9,1.9,1.9s1.9-0.8,1.9-1.9S-277.4,389.3-278.4,389.3L-278.4,389.3 M-274.8,404.9h3.2v-5.1c0-1.4,0.3-2.7,1.9-2.7
	s1.7,1.5,1.7,2.8v5h3.2v-5.7c0-2.8-0.6-5-3.9-5c-1.3-0.1-2.5,0.6-3.1,1.7l0,0v-1.4h-3.1L-274.8,404.9L-274.8,404.9z"/>
</svg>
