<?xml version="1.0" encoding="utf-8"?>
<!-- Generator: Adobe Illustrator 19.1.0, SVG Export Plug-In . SVG Version: 6.00 Build 0)  -->
<svg version="1.1" id="futurity" xmlns="http://www.w3.org/2000/svg" xmlns:xlink="http://www.w3.org/1999/xlink" x="0px" y="0px"
	 viewBox="-288 381 33 32" style="enable-background:new -288 381 33 32;" xml:space="preserve">
<style type="text/css">
	.st0{fill:#FFFFFF;}
</style>
<title>social_icon_futurity</title>
<path class="st0" d="M-275,391.3c1,0,2.1,0,3.1,0c0.2,0,0.4-0.1,0.5-0.2l3.3-5c0-0.1,0.1-0.1,0.1-0.3h-6.5c-0.1,0-0.2,0.1-0.3,0.2
	l-8,11.9c0,0.1-0.1,0.1-0.1,0.2c0.9,0,1.8,0,2.6,0c0.2,0,0.4-0.1,0.5-0.2l4.3-6.3C-275.5,391.4-275.3,391.2-275,391.3z"/>
<path class="st0" d="M-268,399.3c1.1-1.6,2.2-3.3,3.3-4.9l0.2-0.3h-6.4c-0.2,0-0.4,0.1-0.5,0.3c-1.7,2.5-3.4,5.1-5.1,7.6l-0.2,0.3
	c1,0,1.9,0,2.8,0c0.1,0,0.2-0.1,0.3-0.2c0.5-0.8,1-1.5,1.5-2.3c0.1-0.2,0.3-0.3,0.5-0.3h3.2C-268.3,399.5-268.1,399.5-268,399.3z"/>
<path class="st0" d="M-267.6,402.4c-0.2,0-0.3,0.1-0.4,0.2l-1.7,2.5l-0.9,1.3h0.2h6.2c0.1,0,0.3-0.1,0.3-0.2
	c0.5-0.8,1.1-1.6,1.6-2.4l1-1.5h-0.2C-261.3,402.4-267.6,402.4-267.6,402.4z"/>
</svg>
