<?xml version="1.0" encoding="utf-8"?>
<!-- Generator: Adobe Illustrator 19.1.0, SVG Export Plug-In . SVG Version: 6.00 Build 0)  -->
<svg version="1.1" id="Vimeo" xmlns="http://www.w3.org/2000/svg" xmlns:xlink="http://www.w3.org/1999/xlink" x="0px" y="0px"
	 viewBox="-289 381.8 31.2 31.2" style="enable-background:new -289 381.8 31.2 31.2;" xml:space="preserve">
<style type="text/css">
	.st0{fill:#FFFFFF;}
</style>
<title>social_icon_vimeo</title>
<path class="st0" d="M-272,395c2-1.2,3.1,0.5,2,2.4c-1,1.9-1.9,3.1-2.4,3.1s-0.9-1.3-1.4-3.5c-0.6-2.2-0.6-6.4-3-5.9
	c-2.4,0.5-5.2,4-5.2,4l0.8,0.9c0,0,1.5-1.1,1.9-0.6c0.5,0.6,2.3,7.5,3,8.7c0.5,1.1,2,2.6,3.7,1.5c1.7-1,7-5.6,8-11.1
	C-263.7,389.1-271.2,390.3-272,395z"/>
</svg>
