<?xml version="1.0" encoding="utf-8"?>
<!-- Generator: Adobe Illustrator 19.1.0, SVG Export Plug-In . SVG Version: 6.00 Build 0)  -->
<svg version="1.1" id="Coursera_colour" xmlns="http://www.w3.org/2000/svg" xmlns:xlink="http://www.w3.org/1999/xlink" x="0px"
	 y="0px" viewBox="-289 381.8 31.2 31.2" style="enable-background:new -289 381.8 31.2 31.2;" xml:space="preserve">
<style type="text/css">
	.st0{fill:#FFFFFF;}
</style>
<title>social_icon_Coursera</title>
<path class="st0" d="M-273.2,400.1c0.3,0.4,0.6,0.7,1,1c1.4,1.4,3.4,2.1,5.4,1.8c1.4-0.2,2.7-1,3.5-2.1c0.9-1.2,1.3-2.7,1.1-4.1
	c-0.1-1.5-0.9-2.9-2.1-3.8c-1.1-0.8-2.4-1.3-3.7-1.2c-1.3,0-2.5,0.4-3.5,1.2c-0.7,0.5-1.3,1.1-1.8,1.9c-0.6,0.8-1.1,1.6-1.7,2.5
	c-0.5,0.7-1,1.4-1.6,2c-0.6,0.6-1.4,1-2.3,1.1c-0.8,0.1-1.7-0.2-2.3-0.8c-0.6-0.6-1-1.5-0.8-2.4c0.1-0.8,0.4-1.5,1.1-2
	c0.8-0.6,1.9-0.8,2.8-0.4c0.7,0.2,1.2,0.6,1.7,1.1l0.4,0.4l1.6-2.3v-0.1l-0.4-0.4c-1.3-1.2-3.1-1.8-4.9-1.6c-1.6,0.1-3.1,1-4,2.3
	c-0.9,1.2-1.2,2.7-1,4.2c0.2,1.3,0.8,2.5,1.7,3.3c1.1,1,2.6,1.5,4.1,1.5c1.2,0,2.4-0.4,3.4-1.2c0.7-0.5,1.3-1.1,1.9-1.8
	c0.6-0.8,1.2-1.7,1.8-2.5c0.5-0.7,1-1.3,1.5-1.9c0.7-0.7,1.6-1.1,2.6-1.1c0.8,0,1.6,0.4,2.1,1c0.5,0.6,0.7,1.4,0.7,2.2
	c-0.1,1.2-1,2.2-2.1,2.5c-1.1,0.3-2.2,0-3-0.7c-0.6-0.5-1-1.1-1.5-1.7l-0.1-0.1L-273.2,400.1L-273.2,400.1z"/>
</svg>
