<?xml version="1.0" encoding="utf-8"?>
<!-- Generator: Adobe Illustrator 19.1.0, SVG Export Plug-In . SVG Version: 6.00 Build 0)  -->
<svg version="1.1" id="Instagram" xmlns="http://www.w3.org/2000/svg" xmlns:xlink="http://www.w3.org/1999/xlink" x="0px" y="0px"
	 viewBox="-290 381.2 30.8 30.8" style="enable-background:new -290 381.2 30.8 30.8;" xml:space="preserve">
<style type="text/css">
	.st0{fill:#FFFFFF;}
</style>
<title>social_icon_Instagram</title>
<path class="st0" d="M-267.7,389l-0.2,0h-12.9c-0.1,0-0.3,0-0.4,0.1c-0.7,0.2-1.3,0.9-1.4,1.6v13c0,0.1,0,0.2,0.1,0.3
	c0.2,0.8,0.8,1.3,1.6,1.5h12.9c0.9,0,1.7-0.7,1.9-1.6c0-0.1,0-0.2,0-0.3c0-4.2,0-8.5,0-12.7C-266.2,389.9-266.8,389.1-267.7,389z
	 M-274.4,394c1.7,0,3.2,1.4,3.2,3.2s-1.4,3.2-3.2,3.2c-1.7,0-3.2-1.4-3.2-3.2l0,0C-277.5,395.4-276.1,394-274.4,394L-274.4,394z
	 M-268,396c0,2.3,0,4.6,0,6.9c0,0.3-0.2,0.6-0.5,0.6H-280c-0.3,0-0.6-0.3-0.7-0.6c0,0,0,0,0,0c0-2.3,0-4.6,0-6.9v0h1.4
	c-0.4,1.7,0,3.5,1.3,4.7c0.9,1,2.3,1.6,3.7,1.6c1.6,0,3.1-0.7,4-2c1-1.2,1.3-2.8,0.9-4.4h1.4L-268,396L-268,396z M-268,393.4
	c0,0.3-0.3,0.6-0.6,0.7c0,0,0,0-0.1,0h-1.8c-0.3,0-0.6-0.3-0.6-0.6c0,0,0,0,0,0c0-0.6,0-1.2,0-1.9c0-0.3,0.3-0.6,0.6-0.6
	c0,0,0,0,0,0h1.9c0.3,0,0.6,0.3,0.6,0.6c0,0,0,0,0,0c0,0.3,0,0.6,0,0.9C-268,392.8-268,393.1-268,393.4L-268,393.4z"/>
</svg>
